<?xml version="1.0" encoding="utf-8"?>
<!-- Generator: Adobe Illustrator 16.0.4, SVG Export Plug-In . SVG Version: 6.00 Build 0)  -->
<!DOCTYPE svg PUBLIC "-//W3C//DTD SVG 1.1//EN" "http://www.w3.org/Graphics/SVG/1.1/DTD/svg11.dtd">
<svg version="1.1" xmlns="http://www.w3.org/2000/svg" xmlns:xlink="http://www.w3.org/1999/xlink" x="0px" y="0px"
	 width="1868.5px" height="1132.5px" viewBox="0 0 1868.5 1132.5" enable-background="new 0 0 1868.5 1132.5" xml:space="preserve">
<g id="Layer_2">
	<rect fill="#F8F8F8" width="1868.5" height="1132.5"/>
	<g>
		<path fill="#393B3A" d="M126.912,99.207h9.87c1.848,0,3.703,0.308,5.565,0.924c1.862,0.616,3.542,1.547,5.04,2.793
			c1.498,1.246,2.709,2.8,3.633,4.662c0.924,1.862,1.386,4.025,1.386,6.489c0,2.493-0.462,4.662-1.386,6.51
			c-0.924,1.848-2.136,3.396-3.633,4.641c-1.498,1.246-3.178,2.177-5.04,2.793c-1.862,0.616-3.717,0.924-5.565,0.924h-9.87V99.207z
			 M129.936,126.254h6.006c2.24,0,4.193-0.35,5.859-1.05c1.666-0.7,3.045-1.617,4.137-2.751c1.092-1.134,1.911-2.429,2.457-3.885
			c0.546-1.456,0.819-2.954,0.819-4.494c0-1.54-0.273-3.038-0.819-4.494c-0.546-1.456-1.365-2.751-2.457-3.885
			c-1.092-1.134-2.472-2.051-4.137-2.751c-1.666-0.7-3.619-1.05-5.859-1.05h-6.006V126.254z"/>
		<path fill="#393B3A" d="M176.429,118.526c0,0.196,0,0.406,0,0.63c0,0.225-0.014,0.462-0.042,0.714h-16.296
			c0.027,0.98,0.224,1.904,0.588,2.772c0.364,0.868,0.868,1.624,1.512,2.268c0.644,0.645,1.4,1.155,2.268,1.533
			c0.867,0.378,1.806,0.567,2.814,0.567c1.484,0,2.765-0.342,3.843-1.029c1.078-0.686,1.896-1.477,2.457-2.373l2.142,1.68
			c-1.176,1.484-2.472,2.548-3.885,3.192c-1.415,0.644-2.934,0.966-4.557,0.966c-1.457,0-2.808-0.259-4.053-0.777
			c-1.246-0.518-2.317-1.239-3.213-2.163c-0.896-0.924-1.603-2.016-2.121-3.276c-0.519-1.26-0.777-2.632-0.777-4.116
			c0-1.484,0.252-2.856,0.756-4.116c0.504-1.26,1.204-2.352,2.1-3.276c0.896-0.924,1.946-1.645,3.15-2.163
			c1.204-0.518,2.506-0.777,3.906-0.777c1.54,0,2.898,0.259,4.074,0.777c1.176,0.518,2.156,1.218,2.94,2.1
			c0.784,0.882,1.379,1.911,1.785,3.087C176.226,115.922,176.429,117.183,176.429,118.526z M173.531,117.603
			c-0.084-1.848-0.679-3.381-1.785-4.599c-1.106-1.218-2.681-1.827-4.725-1.827c-0.952,0-1.834,0.175-2.646,0.525
			c-0.812,0.351-1.526,0.827-2.142,1.428c-0.616,0.603-1.106,1.288-1.47,2.058c-0.364,0.771-0.574,1.575-0.63,2.415H173.531z"/>
		<path fill="#393B3A" d="M193.019,113.948c-0.42-0.812-1.057-1.477-1.911-1.995c-0.854-0.518-1.827-0.777-2.919-0.777
			c-0.504,0-1.008,0.057-1.512,0.168c-0.504,0.112-0.952,0.294-1.344,0.546c-0.392,0.252-0.707,0.574-0.945,0.966
			c-0.238,0.393-0.357,0.854-0.357,1.386c0,0.924,0.378,1.632,1.134,2.121c0.756,0.49,1.946,0.903,3.57,1.239
			c2.324,0.476,4.039,1.169,5.145,2.079c1.105,0.911,1.659,2.136,1.659,3.675c0,1.12-0.217,2.065-0.651,2.835
			c-0.435,0.771-1.001,1.4-1.701,1.89c-0.7,0.49-1.491,0.84-2.373,1.05c-0.882,0.21-1.771,0.315-2.667,0.315
			c-1.485,0-2.926-0.308-4.326-0.924c-1.4-0.616-2.548-1.582-3.444-2.898l2.268-1.68c0.504,0.868,1.246,1.596,2.226,2.184
			c0.98,0.588,2.058,0.882,3.234,0.882c0.615,0,1.203-0.056,1.764-0.168c0.56-0.111,1.05-0.308,1.47-0.588
			c0.42-0.28,0.756-0.637,1.008-1.071s0.378-0.973,0.378-1.617c0-1.036-0.497-1.812-1.491-2.331
			c-0.994-0.518-2.43-1.001-4.305-1.449c-0.588-0.14-1.211-0.315-1.869-0.525c-0.658-0.21-1.267-0.518-1.827-0.924
			c-0.561-0.406-1.022-0.917-1.386-1.533c-0.364-0.615-0.546-1.386-0.546-2.31c0-1.008,0.195-1.869,0.588-2.583
			c0.392-0.714,0.917-1.302,1.575-1.764c0.657-0.462,1.407-0.805,2.247-1.029c0.84-0.224,1.708-0.336,2.604-0.336
			c1.372,0,2.702,0.309,3.99,0.924c1.288,0.616,2.253,1.484,2.898,2.604L193.019,113.948z"/>
		<path fill="#393B3A" d="M204.148,118.148h0.126l9.072-8.862h4.116l-9.912,8.988l10.92,10.668h-4.2l-9.996-10.332h-0.126v10.332
			h-2.856V97.19h2.856V118.148z"/>
		<path fill="#393B3A" d="M231.49,111.68h-5.544v11.466c0,0.729,0.069,1.33,0.21,1.806c0.14,0.477,0.342,0.848,0.609,1.113
			c0.266,0.267,0.581,0.448,0.945,0.546c0.364,0.099,0.756,0.147,1.176,0.147c0.392,0,0.805-0.056,1.239-0.168
			c0.434-0.111,0.847-0.266,1.239-0.462l0.126,2.478c-0.504,0.196-1.029,0.342-1.575,0.441c-0.546,0.098-1.141,0.147-1.785,0.147
			c-0.532,0-1.092-0.07-1.68-0.21s-1.134-0.406-1.638-0.798s-0.917-0.924-1.239-1.596c-0.322-0.672-0.483-1.554-0.483-2.646V111.68
			h-4.074v-2.394h4.074v-5.544h2.856v5.544h5.544V111.68z"/>
		<path fill="#393B3A" d="M255.472,119.114c0,1.484-0.259,2.856-0.777,4.116c-0.519,1.26-1.239,2.352-2.163,3.276
			c-0.924,0.924-2.031,1.645-3.318,2.163c-1.288,0.518-2.702,0.777-4.242,0.777c-1.512,0-2.913-0.259-4.2-0.777
			c-1.288-0.518-2.394-1.239-3.318-2.163s-1.645-2.016-2.163-3.276c-0.519-1.26-0.777-2.632-0.777-4.116
			c0-1.484,0.258-2.856,0.777-4.116c0.518-1.26,1.239-2.352,2.163-3.276c0.924-0.924,2.03-1.645,3.318-2.163
			c1.288-0.518,2.688-0.777,4.2-0.777c1.54,0,2.954,0.259,4.242,0.777c1.288,0.518,2.394,1.239,3.318,2.163
			c0.924,0.924,1.645,2.016,2.163,3.276C255.212,116.258,255.472,117.63,255.472,119.114z M252.448,119.114
			c0-1.092-0.175-2.121-0.525-3.087c-0.351-0.966-0.848-1.806-1.491-2.52c-0.645-0.714-1.428-1.281-2.352-1.701
			c-0.924-0.42-1.96-0.63-3.108-0.63c-1.148,0-2.178,0.21-3.087,0.63c-0.91,0.42-1.688,0.987-2.331,1.701
			c-0.645,0.714-1.141,1.554-1.491,2.52s-0.525,1.995-0.525,3.087c0,1.092,0.175,2.121,0.525,3.087
			c0.35,0.966,0.847,1.806,1.491,2.52c0.644,0.714,1.421,1.274,2.331,1.68c0.909,0.406,1.938,0.609,3.087,0.609
			c1.148,0,2.184-0.203,3.108-0.609c0.924-0.406,1.708-0.966,2.352-1.68c0.644-0.714,1.141-1.554,1.491-2.52
			C252.272,121.235,252.448,120.207,252.448,119.114z"/>
		<path fill="#393B3A" d="M264.459,139.022h-2.856v-29.736h2.856v3.402h0.126c0.812-1.288,1.896-2.261,3.255-2.919
			c1.358-0.658,2.736-0.987,4.137-0.987c1.54,0,2.933,0.267,4.179,0.798c1.246,0.532,2.31,1.26,3.192,2.184
			c0.882,0.924,1.568,2.016,2.058,3.276c0.49,1.26,0.735,2.618,0.735,4.074c0,1.457-0.245,2.814-0.735,4.074
			c-0.49,1.26-1.176,2.352-2.058,3.276c-0.882,0.924-1.946,1.652-3.192,2.184c-1.246,0.532-2.64,0.798-4.179,0.798
			c-1.4,0-2.779-0.329-4.137-0.987c-1.358-0.658-2.443-1.603-3.255-2.835h-0.126V139.022z M279.117,119.114
			c0-1.092-0.168-2.121-0.504-3.087s-0.819-1.806-1.449-2.52c-0.63-0.714-1.407-1.281-2.331-1.701c-0.924-0.42-1.974-0.63-3.15-0.63
			c-1.092,0-2.1,0.204-3.024,0.609c-0.924,0.406-1.722,0.966-2.394,1.68s-1.197,1.554-1.575,2.52
			c-0.378,0.966-0.567,2.009-0.567,3.129c0,1.12,0.189,2.163,0.567,3.129c0.378,0.966,0.903,1.8,1.575,2.499
			c0.672,0.7,1.47,1.253,2.394,1.659c0.924,0.406,1.932,0.609,3.024,0.609c1.176,0,2.226-0.203,3.15-0.609
			c0.924-0.406,1.701-0.966,2.331-1.68c0.63-0.714,1.113-1.554,1.449-2.52C278.949,121.235,279.117,120.207,279.117,119.114z"/>
	</g>
	<g>
		<path fill="#393B3A" d="M1030.219,128.942h-3.024v-27.048h-9.954v-2.688h22.932v2.688h-9.953V128.942z"/>
		<path fill="#393B3A" d="M1052.814,116.221c0-1.695-0.449-2.96-1.344-3.794c-0.896-0.833-2.199-1.251-3.906-1.251
			c-1.176,0-2.269,0.21-3.276,0.63c-1.008,0.42-1.862,0.98-2.562,1.68l-1.597-1.89c0.812-0.812,1.883-1.483,3.214-2.016
			c1.328-0.532,2.834-0.798,4.514-0.798c1.064,0,2.059,0.147,2.982,0.441c0.924,0.294,1.736,0.735,2.436,1.323
			c0.7,0.588,1.246,1.33,1.639,2.226c0.392,0.896,0.588,1.946,0.588,3.15v8.61c0,0.756,0.027,1.541,0.084,2.352
			c0.056,0.812,0.14,1.499,0.252,2.058h-2.562c-0.084-0.476-0.154-0.994-0.209-1.554c-0.057-0.56-0.084-1.105-0.084-1.638h-0.084
			c-0.896,1.316-1.912,2.261-3.045,2.835c-1.135,0.574-2.5,0.861-4.096,0.861c-0.756,0-1.533-0.105-2.33-0.315
			c-0.799-0.211-1.527-0.555-2.185-1.032c-0.658-0.478-1.204-1.096-1.638-1.855c-0.436-0.758-0.651-1.685-0.651-2.781
			c0-1.518,0.384-2.718,1.155-3.603c0.77-0.885,1.799-1.545,3.086-1.98c1.288-0.436,2.766-0.717,4.432-0.843
			c1.666-0.126,3.395-0.19,5.188-0.19V116.221z M1051.975,119.114c-1.177,0-2.359,0.049-3.55,0.147
			c-1.19,0.099-2.268,0.294-3.233,0.588c-0.967,0.294-1.758,0.721-2.373,1.281c-0.617,0.561-0.924,1.302-0.924,2.226
			c0,0.7,0.132,1.288,0.398,1.764c0.266,0.476,0.623,0.861,1.071,1.155c0.447,0.294,0.944,0.504,1.491,0.63
			c0.545,0.126,1.098,0.189,1.658,0.189c1.008,0,1.904-0.174,2.688-0.525c0.784-0.35,1.442-0.826,1.974-1.428
			s0.938-1.295,1.219-2.079c0.279-0.784,0.42-1.61,0.42-2.478v-1.47H1051.975z"/>
		<path fill="#393B3A" d="M1065.792,125.625v3.318h-2.856V97.19h2.856v15.498h0.084c0.84-1.288,1.932-2.261,3.276-2.919
			c1.344-0.658,2.729-0.987,4.157-0.987c1.54,0,2.933,0.267,4.179,0.798c1.246,0.532,2.311,1.26,3.192,2.184
			c0.882,0.924,1.567,2.016,2.058,3.276c0.49,1.26,0.735,2.618,0.735,4.074c0,1.457-0.245,2.814-0.735,4.074
			c-0.49,1.26-1.176,2.352-2.058,3.276s-1.946,1.652-3.192,2.184s-2.639,0.798-4.179,0.798c-1.428,0-2.813-0.322-4.157-0.966
			c-1.345-0.644-2.437-1.596-3.276-2.856H1065.792z M1080.449,119.114c0-1.092-0.168-2.121-0.504-3.087s-0.818-1.806-1.449-2.52
			c-0.629-0.714-1.406-1.281-2.33-1.701c-0.924-0.42-1.975-0.63-3.15-0.63c-1.092,0-2.1,0.204-3.023,0.609
			c-0.924,0.406-1.723,0.966-2.395,1.68s-1.197,1.554-1.574,2.52c-0.379,0.966-0.568,2.009-0.568,3.129
			c0,1.12,0.189,2.163,0.568,3.129c0.377,0.966,0.902,1.8,1.574,2.499c0.672,0.7,1.471,1.253,2.395,1.659
			c0.924,0.406,1.932,0.609,3.023,0.609c1.176,0,2.227-0.203,3.15-0.609c0.924-0.406,1.701-0.966,2.33-1.68
			c0.631-0.714,1.113-1.554,1.449-2.52C1080.281,121.235,1080.449,120.207,1080.449,119.114z"/>
		<path fill="#393B3A" d="M1092.546,128.942h-2.856V97.19h2.856V128.942z"/>
		<path fill="#393B3A" d="M1118.082,118.526c0,0.196,0,0.406,0,0.63c0,0.225-0.015,0.462-0.043,0.714h-16.295
			c0.027,0.98,0.223,1.904,0.588,2.772c0.363,0.868,0.867,1.624,1.512,2.268c0.644,0.645,1.4,1.155,2.268,1.533
			s1.807,0.567,2.814,0.567c1.484,0,2.765-0.342,3.843-1.029c1.077-0.686,1.896-1.477,2.457-2.373l2.142,1.68
			c-1.176,1.484-2.471,2.548-3.885,3.192c-1.414,0.644-2.934,0.966-4.557,0.966c-1.457,0-2.808-0.259-4.053-0.777
			c-1.246-0.518-2.317-1.239-3.213-2.163c-0.896-0.924-1.604-2.016-2.121-3.276c-0.52-1.26-0.777-2.632-0.777-4.116
			c0-1.484,0.252-2.856,0.756-4.116c0.504-1.26,1.203-2.352,2.1-3.276c0.896-0.924,1.946-1.645,3.15-2.163
			c1.203-0.518,2.506-0.777,3.906-0.777c1.539,0,2.898,0.259,4.074,0.777s2.155,1.218,2.939,2.1
			c0.783,0.882,1.379,1.911,1.785,3.087C1117.879,115.922,1118.082,117.183,1118.082,118.526z M1115.184,117.603
			c-0.084-1.848-0.68-3.381-1.785-4.599c-1.106-1.218-2.682-1.827-4.725-1.827c-0.952,0-1.834,0.175-2.646,0.525
			c-0.812,0.351-1.525,0.827-2.142,1.428c-0.616,0.603-1.106,1.288-1.47,2.058c-0.365,0.771-0.574,1.575-0.631,2.415H1115.184z"/>
		<path fill="#393B3A" d="M1133.075,111.68h-5.544v11.466c0,0.729,0.069,1.33,0.21,1.806c0.14,0.477,0.343,0.848,0.608,1.113
			c0.266,0.267,0.581,0.448,0.945,0.546c0.363,0.099,0.756,0.147,1.176,0.147c0.393,0,0.805-0.056,1.239-0.168
			c0.435-0.111,0.847-0.266,1.239-0.462l0.126,2.478c-0.504,0.196-1.029,0.342-1.575,0.441c-0.546,0.098-1.141,0.147-1.785,0.147
			c-0.531,0-1.092-0.07-1.68-0.21s-1.135-0.406-1.639-0.798s-0.917-0.924-1.238-1.596c-0.322-0.672-0.482-1.554-0.482-2.646V111.68
			h-4.074v-2.394h4.074v-5.544h2.855v5.544h5.544V111.68z"/>
	</g>
	<g>
		<path fill="#393B3A" d="M1534.855,99.207h8.4c1.512,0,2.883,0.161,4.115,0.483c1.232,0.322,2.289,0.812,3.171,1.47
			c0.882,0.658,1.562,1.485,2.037,2.478c0.476,0.995,0.714,2.163,0.714,3.507c0,1.344-0.245,2.513-0.734,3.507
			c-0.49,0.994-1.176,1.82-2.059,2.478c-0.882,0.658-1.946,1.155-3.191,1.491c-1.246,0.336-2.625,0.504-4.137,0.504h-5.293v13.818
			h-3.023V99.207z M1537.879,112.562h5.125c2.379,0,4.186-0.462,5.418-1.386c1.23-0.924,1.848-2.268,1.848-4.032
			c0-1.848-0.638-3.199-1.911-4.053c-1.274-0.854-3.06-1.281-5.354-1.281h-5.125V112.562z"/>
		<path fill="#393B3A" d="M1562.07,112.521c0.531-1.148,1.414-2.058,2.646-2.73c1.231-0.672,2.547-1.008,3.947-1.008
			c2.492,0,4.361,0.742,5.607,2.226c1.246,1.484,1.869,3.444,1.869,5.88v12.054h-2.855v-10.878c0-1.036-0.084-1.974-0.252-2.814
			c-0.168-0.84-0.456-1.561-0.861-2.163c-0.406-0.602-0.953-1.071-1.639-1.407c-0.686-0.336-1.547-0.504-2.582-0.504
			c-0.756,0-1.492,0.154-2.205,0.462c-0.715,0.309-1.352,0.777-1.912,1.407s-1.008,1.428-1.344,2.394
			c-0.336,0.966-0.504,2.107-0.504,3.423v10.08h-2.855V97.19h2.855v15.33H1562.07z"/>
		<path fill="#393B3A" d="M1603.062,119.114c0,1.484-0.26,2.856-0.777,4.116c-0.518,1.26-1.238,2.352-2.162,3.276
			c-0.925,0.924-2.031,1.645-3.318,2.163c-1.289,0.518-2.703,0.777-4.242,0.777c-1.512,0-2.912-0.259-4.2-0.777
			c-1.288-0.518-2.394-1.239-3.317-2.163s-1.646-2.016-2.164-3.276c-0.518-1.26-0.776-2.632-0.776-4.116
			c0-1.484,0.259-2.856,0.776-4.116c0.519-1.26,1.24-2.352,2.164-3.276c0.924-0.924,2.029-1.645,3.317-2.163s2.688-0.777,4.2-0.777
			c1.539,0,2.953,0.259,4.242,0.777c1.287,0.518,2.394,1.239,3.318,2.163c0.924,0.924,1.645,2.016,2.162,3.276
			C1602.803,116.258,1603.062,117.63,1603.062,119.114z M1600.039,119.114c0-1.092-0.176-2.121-0.525-3.087
			c-0.351-0.966-0.848-1.806-1.491-2.52c-0.645-0.714-1.429-1.281-2.353-1.701c-0.924-0.42-1.959-0.63-3.107-0.63
			s-2.178,0.21-3.087,0.63c-0.91,0.42-1.688,0.987-2.331,1.701c-0.645,0.714-1.141,1.554-1.491,2.52s-0.524,1.995-0.524,3.087
			c0,1.092,0.174,2.121,0.524,3.087c0.351,0.966,0.847,1.806,1.491,2.52c0.644,0.714,1.421,1.274,2.331,1.68
			c0.909,0.406,1.938,0.609,3.087,0.609s2.184-0.203,3.107-0.609c0.924-0.406,1.708-0.966,2.353-1.68
			c0.644-0.714,1.141-1.554,1.491-2.52C1599.863,121.235,1600.039,120.207,1600.039,119.114z"/>
		<path fill="#393B3A" d="M1611.756,109.287c0.057,0.532,0.098,1.12,0.126,1.764c0.028,0.645,0.042,1.176,0.042,1.596h0.084
			c0.561-1.148,1.471-2.079,2.73-2.793c1.26-0.714,2.59-1.071,3.99-1.071c2.491,0,4.36,0.742,5.606,2.226
			c1.245,1.484,1.869,3.444,1.869,5.88v12.054h-2.856v-10.878c0-1.036-0.084-1.974-0.252-2.814c-0.168-0.84-0.455-1.561-0.861-2.163
			c-0.406-0.602-0.951-1.071-1.637-1.407c-0.688-0.336-1.548-0.504-2.584-0.504c-0.756,0-1.49,0.154-2.205,0.462
			c-0.713,0.309-1.351,0.777-1.91,1.407c-0.561,0.63-1.008,1.428-1.344,2.394c-0.336,0.966-0.504,2.107-0.504,3.423v10.08h-2.857
			v-15.33c0-0.531-0.014-1.218-0.041-2.058c-0.028-0.84-0.07-1.596-0.127-2.268H1611.756z"/>
		<path fill="#393B3A" d="M1651.488,118.526c0,0.196,0,0.406,0,0.63c0,0.225-0.015,0.462-0.043,0.714h-16.295
			c0.027,0.98,0.223,1.904,0.588,2.772c0.363,0.868,0.867,1.624,1.512,2.268c0.644,0.645,1.4,1.155,2.268,1.533
			s1.807,0.567,2.814,0.567c1.484,0,2.765-0.342,3.843-1.029c1.077-0.686,1.896-1.477,2.457-2.373l2.142,1.68
			c-1.176,1.484-2.471,2.548-3.885,3.192c-1.414,0.644-2.934,0.966-4.557,0.966c-1.457,0-2.808-0.259-4.053-0.777
			c-1.246-0.518-2.317-1.239-3.213-2.163c-0.896-0.924-1.604-2.016-2.121-3.276c-0.52-1.26-0.777-2.632-0.777-4.116
			c0-1.484,0.252-2.856,0.756-4.116c0.504-1.26,1.203-2.352,2.1-3.276c0.896-0.924,1.946-1.645,3.15-2.163
			c1.203-0.518,2.506-0.777,3.906-0.777c1.539,0,2.898,0.259,4.074,0.777s2.155,1.218,2.939,2.1
			c0.783,0.882,1.379,1.911,1.785,3.087C1651.285,115.922,1651.488,117.183,1651.488,118.526z M1648.59,117.603
			c-0.084-1.848-0.68-3.381-1.785-4.599c-1.106-1.218-2.682-1.827-4.725-1.827c-0.952,0-1.834,0.175-2.646,0.525
			c-0.812,0.351-1.525,0.827-2.142,1.428c-0.616,0.603-1.106,1.288-1.47,2.058c-0.365,0.771-0.574,1.575-0.631,2.415H1648.59z"/>
	</g>
</g>
<g id="Layer_1">
	<g>
		<rect x="833.926" y="164.888" fill="#56A5D8" width="25.557" height="216.102"/>
	</g>
	<g>
		<rect x="804.385" y="164.888" fill="#56A5D8" width="25.557" height="216.102"/>
	</g>
	<g>
		<rect x="774.842" y="164.888" fill="#56A5D8" width="25.559" height="216.102"/>
	</g>
	<g>
		<rect x="745.303" y="164.888" fill="#56A5D8" width="25.557" height="216.102"/>
	</g>
	<g>
		<rect x="715.762" y="164.888" fill="#56A5D8" width="25.557" height="216.102"/>
	</g>
	<g>
		<rect x="686.22" y="164.888" fill="#56A5D8" width="25.558" height="216.102"/>
	</g>
	<g>
		<rect x="656.678" y="164.888" fill="#56A5D8" width="25.559" height="216.102"/>
	</g>
	<g>
		<rect x="627.137" y="164.888" fill="#56A5D8" width="25.558" height="216.102"/>
	</g>
	<g>
		<rect x="597.597" y="164.888" fill="#56A5D8" width="25.557" height="216.102"/>
	</g>
	<g>
		<rect x="568.055" y="164.888" fill="#56A5D8" width="25.558" height="216.102"/>
	</g>
	<g>
		<rect x="538.514" y="164.888" fill="#56A5D8" width="25.557" height="216.102"/>
	</g>
	<g>
		<rect x="508.973" y="164.888" fill="#56A5D8" width="25.558" height="216.102"/>
	</g>
	<g>
		<rect x="479.431" y="164.888" fill="#56A5D8" width="25.559" height="216.102"/>
	</g>
	<g>
		<rect x="449.891" y="164.888" fill="#56A5D8" width="25.557" height="216.102"/>
	</g>
	<g>
		<rect x="420.349" y="164.888" fill="#56A5D8" width="25.558" height="216.102"/>
	</g>
	<g>
		<rect x="390.807" y="164.888" fill="#56A5D8" width="25.558" height="216.102"/>
	</g>
	<g>
		<rect x="361.267" y="164.888" fill="#56A5D8" width="25.558" height="216.102"/>
	</g>
	<g>
		<rect x="331.726" y="164.888" fill="#56A5D8" width="25.558" height="216.102"/>
	</g>
	<g>
		<rect x="302.185" y="164.888" fill="#56A5D8" width="25.557" height="216.102"/>
	</g>
	<g>
		<rect x="272.644" y="164.888" fill="#5A9359" width="25.558" height="216.102"/>
	</g>
	<g>
		<rect x="243.102" y="164.888" fill="#5A9359" width="25.558" height="216.102"/>
	</g>
	<g>
		<rect x="213.561" y="164.888" fill="#5A9359" width="25.558" height="216.102"/>
	</g>
	<g>
		<rect x="184.02" y="164.888" fill="#5A9359" width="25.558" height="216.102"/>
	</g>
	<g>
		<rect x="154.479" y="164.888" fill="#5A9359" width="25.558" height="216.102"/>
	</g>
	<g>
		<rect x="124.938" y="164.888" fill="#5A9359" width="25.558" height="216.102"/>
	</g>
	<g>
		<rect x="1343.666" y="164.888" fill="#56A5D8" width="25.557" height="216.102"/>
	</g>
	<g>
		<rect x="1314.125" y="164.888" fill="#56A5D8" width="25.559" height="216.102"/>
	</g>
	<g>
		<rect x="1284.582" y="164.888" fill="#56A5D8" width="25.559" height="216.102"/>
	</g>
	<g>
		<rect x="1255.043" y="164.888" fill="#56A5D8" width="25.557" height="216.102"/>
	</g>
	<g>
		<rect x="1225.502" y="164.888" fill="#56A5D8" width="25.557" height="216.102"/>
	</g>
	<g>
		<rect x="1195.961" y="164.888" fill="#56A5D8" width="25.557" height="216.102"/>
	</g>
	<g>
		<rect x="1166.42" y="164.888" fill="#5A9359" width="25.557" height="216.102"/>
	</g>
	<g>
		<rect x="1136.877" y="164.888" fill="#5A9359" width="25.559" height="216.102"/>
	</g>
	<g>
		<rect x="1107.336" y="164.888" fill="#5A9359" width="25.559" height="216.102"/>
	</g>
	<g>
		<rect x="1077.795" y="164.888" fill="#5A9359" width="25.559" height="216.102"/>
	</g>
	<g>
		<rect x="1048.256" y="164.888" fill="#5A9359" width="25.557" height="216.102"/>
	</g>
	<g>
		<rect x="1018.713" y="164.888" fill="#5A9359" width="25.559" height="216.102"/>
	</g>
	<g>
		<rect x="1343.666" y="388.46" fill="#56A5D8" width="25.557" height="216.102"/>
	</g>
	<g>
		<rect x="1314.125" y="388.46" fill="#56A5D8" width="25.559" height="216.102"/>
	</g>
	<g>
		<rect x="1284.582" y="388.46" fill="#56A5D8" width="25.559" height="216.102"/>
	</g>
	<g>
		<rect x="1255.043" y="388.46" fill="#56A5D8" width="25.557" height="216.102"/>
	</g>
	<g>
		<rect x="1225.502" y="388.46" fill="#56A5D8" width="25.557" height="216.102"/>
	</g>
	<g>
		<rect x="1195.961" y="388.46" fill="#56A5D8" width="25.557" height="216.102"/>
	</g>
	<g>
		<rect x="1166.42" y="388.46" fill="#56A5D8" width="25.557" height="216.102"/>
	</g>
	<g>
		<rect x="1136.877" y="388.46" fill="#56A5D8" width="25.559" height="216.102"/>
	</g>
	<g>
		<rect x="1107.336" y="388.46" fill="#56A5D8" width="25.559" height="216.102"/>
	</g>
	<g>
		<rect x="1077.795" y="388.46" fill="#56A5D8" width="25.559" height="216.102"/>
	</g>
	<g>
		<rect x="1048.256" y="388.46" fill="#56A5D8" width="25.557" height="216.102"/>
	</g>
	<g>
		<rect x="1018.713" y="388.46" fill="#56A5D8" width="25.559" height="216.102"/>
	</g>
	<g>
		<rect x="1678.613" y="168.19" fill="#5A9359" width="25.557" height="214.689"/>
	</g>
	<g>
		<rect x="1649.07" y="168.19" fill="#5A9359" width="25.559" height="214.689"/>
	</g>
	<g>
		<rect x="1619.531" y="168.19" fill="#5A9359" width="25.557" height="214.689"/>
	</g>
	<g>
		<rect x="1589.99" y="168.19" fill="#5A9359" width="25.557" height="214.689"/>
	</g>
	<g>
		<rect x="1560.449" y="168.19" fill="#5A9359" width="25.559" height="214.689"/>
	</g>
	<g>
		<rect x="1530.908" y="168.19" fill="#5A9359" width="25.557" height="214.689"/>
	</g>
	<g>
		<rect x="1678.613" y="391.491" fill="#56A5D8" width="25.557" height="214.689"/>
	</g>
	<g>
		<rect x="1649.07" y="391.491" fill="#56A5D8" width="25.559" height="214.689"/>
	</g>
	<g>
		<rect x="1619.531" y="391.491" fill="#56A5D8" width="25.557" height="214.689"/>
	</g>
	<g>
		<rect x="1589.99" y="391.491" fill="#56A5D8" width="25.557" height="214.689"/>
	</g>
	<g>
		<rect x="1560.449" y="391.491" fill="#56A5D8" width="25.559" height="214.689"/>
	</g>
	<g>
		<rect x="1530.908" y="391.491" fill="#56A5D8" width="25.557" height="214.689"/>
	</g>
	<g>
		<rect x="1678.613" y="614.954" fill="#56A5D8" width="25.557" height="214.689"/>
	</g>
	<g>
		<rect x="1649.07" y="614.954" fill="#56A5D8" width="25.559" height="214.689"/>
	</g>
	<g>
		<rect x="1619.531" y="614.954" fill="#56A5D8" width="25.557" height="214.689"/>
	</g>
	<g>
		<rect x="1589.99" y="614.954" fill="#56A5D8" width="25.557" height="214.689"/>
	</g>
	<g>
		<rect x="1560.449" y="614.954" fill="#56A5D8" width="25.559" height="214.689"/>
	</g>
	<g>
		<rect x="1530.908" y="614.954" fill="#56A5D8" width="25.557" height="214.689"/>
	</g>
	<g>
		<rect x="1678.613" y="837.468" fill="#56A5D8" width="25.557" height="214.689"/>
	</g>
	<g>
		<rect x="1649.07" y="837.468" fill="#56A5D8" width="25.559" height="214.689"/>
	</g>
	<g>
		<rect x="1619.531" y="837.468" fill="#56A5D8" width="25.557" height="214.689"/>
	</g>
	<g>
		<rect x="1589.99" y="837.468" fill="#56A5D8" width="25.557" height="214.689"/>
	</g>
	<g>
		<rect x="1560.449" y="837.468" fill="#56A5D8" width="25.559" height="214.689"/>
	</g>
	<g>
		<rect x="1530.908" y="837.468" fill="#56A5D8" width="25.557" height="214.689"/>
	</g>
</g>
</svg>
