<?xml version="1.0" encoding="utf-8"?>
<!-- Generator: Adobe Illustrator 16.0.4, SVG Export Plug-In . SVG Version: 6.00 Build 0)  -->
<!DOCTYPE svg PUBLIC "-//W3C//DTD SVG 1.1//EN" "http://www.w3.org/Graphics/SVG/1.1/DTD/svg11.dtd">
<svg version="1.1" id="Layer_1" xmlns="http://www.w3.org/2000/svg" xmlns:xlink="http://www.w3.org/1999/xlink" x="0px" y="0px"
	 width="1224px" height="472px" viewBox="0 145.5 1224 472" enable-background="new 0 145.5 1224 472" xml:space="preserve">
<rect y="145.5" fill="#F7F7F7" width="1224" height="472"/>
<line fill="none" stroke="#CCC8CC" stroke-miterlimit="10" x1="0" y1="441.879" x2="1224" y2="441.879"/>
<line fill="none" stroke="#CCC8CC" stroke-miterlimit="10" x1="1.457" y1="476.586" x2="1225.457" y2="476.586"/>
<line fill="none" stroke="#CCC8CC" stroke-miterlimit="10" x1="0" y1="331.607" x2="1224" y2="331.607"/>
<line fill="none" stroke="#CCC8CC" stroke-miterlimit="10" x1="0" y1="373.317" x2="1224" y2="373.317"/>
<g>
	<path fill="#4D4D4D" d="M198.43,384.568c1.836-3.964,4.883-7.108,9.142-9.431c4.255-2.322,8.801-3.481,13.639-3.481
		c8.608,0,15.065,2.562,19.372,7.689c4.302,5.129,6.458,11.899,6.458,20.315v41.645h-9.868v-37.583c0-3.576-0.289-6.819-0.87-9.72
		c-0.58-2.903-1.574-5.393-2.974-7.473c-1.405-2.081-3.291-3.7-5.66-4.861c-2.372-1.161-5.345-1.742-8.923-1.742
		c-2.611,0-5.15,0.533-7.618,1.596c-2.466,1.067-4.668,2.684-6.601,4.861c-1.937,2.177-3.483,4.935-4.645,8.271
		c-1.161,3.338-1.742,7.281-1.742,11.826v34.825h-9.866V331.607h9.866v52.961H198.43z"/>
	<path fill="#4D4D4D" d="M315.381,397.354c0-5.855-1.549-10.225-4.643-13.105c-3.098-2.88-7.595-4.322-13.495-4.322
		c-4.062,0-7.835,0.727-11.318,2.177c-3.481,1.45-6.434,3.387-8.851,5.804l-5.515-6.53c2.805-2.804,6.506-5.125,11.102-6.965
		c4.594-1.836,9.793-2.755,15.597-2.755c3.676,0,7.11,0.507,10.303,1.523s5.997,2.539,8.416,4.57
		c2.417,2.031,4.304,4.596,5.66,7.691c1.352,3.096,2.031,6.725,2.031,10.881v29.748c0,2.612,0.094,5.32,0.289,8.124
		c0.193,2.809,0.484,5.177,0.872,7.111h-8.853c-0.289-1.644-0.531-3.433-0.724-5.369c-0.195-1.935-0.292-3.82-0.292-5.658h-0.289
		c-3.098,4.548-6.603,7.812-10.521,9.793c-3.917,1.982-8.632,2.976-14.146,2.976c-2.612,0-5.296-0.366-8.054-1.09
		c-2.757-0.729-5.272-1.917-7.545-3.566c-2.273-1.651-4.161-3.786-5.658-6.408c-1.501-2.621-2.25-5.821-2.25-9.608
		c0-5.242,1.329-9.392,3.991-12.447c2.659-3.057,6.213-5.336,10.665-6.842c4.448-1.505,9.551-2.476,15.308-2.914
		c5.755-0.436,11.728-0.655,17.919-0.655V397.354z M312.48,407.352c-4.064,0-8.152,0.169-12.261,0.508
		c-4.113,0.338-7.837,1.015-11.173,2.03c-3.338,1.016-6.071,2.492-8.199,4.427c-2.129,1.935-3.192,4.497-3.192,7.689
		c0,2.418,0.458,4.451,1.378,6.095c0.919,1.646,2.153,2.974,3.7,3.989s3.265,1.742,5.152,2.177c1.886,0.435,3.794,0.653,5.731,0.653
		c3.484,0,6.578-0.603,9.288-1.814c2.706-1.208,4.981-2.852,6.819-4.932c1.836-2.081,3.24-4.474,4.208-7.184
		c0.966-2.706,1.45-5.562,1.45-8.562v-5.077H312.48z"/>
	<path fill="#4D4D4D" d="M358.914,373.396c0.193,1.84,0.338,3.871,0.435,6.096c0.094,2.226,0.146,4.062,0.146,5.514h0.289
		c1.935-3.965,5.08-7.183,9.433-9.649c4.352-2.468,8.945-3.7,13.785-3.7c8.608,0,15.065,2.562,19.37,7.689
		c4.304,5.129,6.458,11.899,6.458,20.315v41.645h-9.866v-37.583c0-3.576-0.291-6.819-0.872-9.72
		c-0.579-2.903-1.572-5.393-2.974-7.473c-1.403-2.081-3.289-3.7-5.658-4.861c-2.372-1.161-5.347-1.742-8.925-1.742
		c-2.612,0-5.15,0.533-7.616,1.596c-2.468,1.067-4.668,2.684-6.603,4.861c-1.937,2.177-3.481,4.935-4.643,8.271
		c-1.161,3.338-1.742,7.281-1.742,11.826v34.825h-9.866v-52.963c0-1.836-0.051-4.208-0.146-7.109
		c-0.099-2.903-0.242-5.515-0.435-7.837H358.914z"/>
	<path fill="#4D4D4D" d="M490.231,429.841c-2.903,4.353-6.676,7.644-11.318,9.867c-4.643,2.225-9.431,3.338-14.365,3.338
		c-5.322,0-10.134-0.921-14.438-2.757c-4.306-1.836-7.98-4.354-11.027-7.546c-3.048-3.192-5.42-6.965-7.11-11.318
		c-1.695-4.354-2.539-9.043-2.539-14.073c0-5.029,0.844-9.723,2.539-14.076c1.69-4.354,4.062-8.126,7.11-11.318
		c3.047-3.192,6.721-5.706,11.027-7.546c4.304-1.836,9.116-2.755,14.438-2.755c4.934,0,9.722,1.137,14.365,3.408
		c4.643,2.275,8.416,5.637,11.318,10.085h0.29v-53.542h9.868v109.697h-9.868v-11.464H490.231z M439.88,407.352
		c0,3.772,0.581,7.327,1.742,10.665c1.161,3.336,2.83,6.238,5.007,8.704c2.175,2.468,4.859,4.405,8.051,5.804
		c3.192,1.405,6.821,2.106,10.883,2.106c3.773,0,7.254-0.701,10.447-2.106c3.192-1.398,5.95-3.312,8.272-5.73
		c2.322-2.417,4.135-5.296,5.441-8.634c1.305-3.336,1.958-6.939,1.958-10.809c0-3.87-0.653-7.474-1.958-10.812
		c-1.307-3.338-3.119-6.238-5.441-8.707c-2.322-2.466-5.08-4.401-8.272-5.804c-3.192-1.401-6.674-2.104-10.447-2.104
		c-4.062,0-7.691,0.727-10.883,2.177c-3.192,1.45-5.876,3.411-8.051,5.877c-2.177,2.466-3.846,5.369-5.007,8.706
		C440.461,400.022,439.88,403.578,439.88,407.352z"/>
	<path fill="#4D4D4D" d="M530.424,454.943c2.706,3.483,6.406,6.434,11.1,8.853c4.69,2.416,9.65,3.627,14.873,3.627
		c4.836,0,8.947-0.703,12.334-2.104c3.385-1.404,6.117-3.314,8.199-5.731c2.078-2.419,3.602-5.249,4.57-8.488
		c0.966-3.243,1.449-6.701,1.449-10.376v-12.769h-0.289c-2.611,4.257-6.311,7.546-11.1,9.868c-4.788,2.32-9.649,3.481-14.584,3.481
		c-5.321,0-10.133-0.87-14.438-2.612c-4.306-1.741-7.98-4.135-11.027-7.183c-3.048-3.047-5.42-6.698-7.111-10.955
		c-1.694-4.255-2.539-8.853-2.539-13.784c0-4.836,0.844-9.382,2.539-13.641c1.69-4.255,4.062-7.98,7.111-11.173
		c3.046-3.192,6.721-5.706,11.027-7.546c4.305-1.836,9.116-2.755,14.438-2.755c4.935,0,9.77,1.159,14.512,3.481
		c4.736,2.322,8.463,5.658,11.172,10.012h0.289v-11.754h9.869v67.328c0,3.675-0.508,7.593-1.523,11.754
		c-1.016,4.158-2.903,7.98-5.66,11.464c-2.758,3.481-6.507,6.384-11.246,8.704c-4.741,2.322-10.881,3.484-18.428,3.484
		c-6.289,0-12.286-1.211-17.992-3.627c-5.709-2.422-10.594-5.758-14.656-10.014L530.424,454.943z M532.309,406.479
		c0,3.58,0.581,6.965,1.742,10.157s2.83,5.998,5.007,8.415c2.175,2.421,4.859,4.332,8.052,5.733
		c3.191,1.403,6.821,2.104,10.883,2.104c3.773,0,7.255-0.628,10.447-1.887c3.191-1.256,5.949-3.047,8.271-5.369
		c2.322-2.32,4.135-5.102,5.441-8.343c1.305-3.239,1.959-6.843,1.959-10.811c0-3.578-0.654-6.965-1.959-10.158
		c-1.307-3.191-3.119-5.996-5.441-8.415c-2.322-2.417-5.08-4.354-8.271-5.804c-3.192-1.45-6.674-2.177-10.447-2.177
		c-4.062,0-7.691,0.727-10.883,2.177c-3.192,1.45-5.877,3.387-8.052,5.804c-2.177,2.419-3.846,5.224-5.007,8.415
		C532.89,399.515,532.309,402.901,532.309,406.479z"/>
	<path fill="#4D4D4D" d="M628.654,441.305h-9.865V331.607h9.865V441.305z"/>
	<path fill="#4D4D4D" d="M722.536,407.352c0,5.126-0.896,9.865-2.685,14.219c-1.791,4.354-4.28,8.126-7.473,11.318
		s-7.015,5.685-11.462,7.473c-4.452,1.789-9.337,2.685-14.656,2.685c-5.224,0-10.063-0.896-14.511-2.685
		c-4.45-1.788-8.271-4.28-11.462-7.473c-3.192-3.192-5.685-6.965-7.474-11.318c-1.791-4.354-2.684-9.093-2.684-14.219
		c0-5.127,0.893-9.868,2.684-14.222c1.789-4.354,4.281-8.125,7.474-11.316c3.191-3.192,7.012-5.682,11.462-7.473
		c4.447-1.789,9.287-2.684,14.511-2.684c5.319,0,10.204,0.896,14.656,2.684c4.447,1.791,8.27,4.281,11.462,7.473
		c3.192,3.192,5.682,6.963,7.473,11.316C721.641,397.483,722.536,402.225,722.536,407.352z M712.09,407.352
		c0-3.773-0.606-7.329-1.814-10.666c-1.211-3.337-2.927-6.24-5.151-8.706c-2.228-2.466-4.934-4.427-8.126-5.877
		s-6.772-2.177-10.737-2.177c-3.968,0-7.522,0.727-10.665,2.177c-3.146,1.45-5.83,3.411-8.054,5.877
		c-2.226,2.466-3.942,5.369-5.15,8.706c-1.211,3.337-1.814,6.893-1.814,10.666c0,3.772,0.604,7.327,1.814,10.665
		c1.208,3.336,2.925,6.238,5.15,8.704c2.224,2.468,4.908,4.405,8.054,5.804c3.143,1.405,6.697,2.106,10.665,2.106
		c3.965,0,7.545-0.701,10.737-2.106c3.192-1.398,5.898-3.336,8.126-5.804c2.225-2.466,3.94-5.368,5.151-8.704
		C711.483,414.679,712.09,411.124,712.09,407.352z"/>
	<path fill="#4D4D4D" d="M771.579,441.305h-10.882l-27.715-67.909h11.027l22.057,57.462h0.289l22.2-57.462h10.594L771.579,441.305z"
		/>
	<path fill="#4D4D4D" d="M876.344,405.318c0,0.679,0,1.405,0,2.177c0,0.775-0.052,1.596-0.146,2.468h-56.301
		c0.096,3.387,0.773,6.579,2.032,9.576c1.256,3,2.998,5.611,5.224,7.835c2.224,2.227,4.836,3.991,7.835,5.297
		c2.997,1.307,6.239,1.96,9.723,1.96c5.127,0,9.551-1.185,13.276-3.557c3.724-2.369,6.552-5.102,8.488-8.197l7.4,5.805
		c-4.062,5.126-8.538,8.803-13.423,11.026c-4.885,2.225-10.134,3.338-15.742,3.338c-5.031,0-9.699-0.896-14.003-2.685
		c-4.305-1.788-8.007-4.28-11.101-7.473c-3.098-3.192-5.538-6.965-7.327-11.318c-1.791-4.354-2.685-9.093-2.685-14.219
		c0-5.127,0.87-9.868,2.612-14.222c1.741-4.354,4.158-8.125,7.254-11.316c3.096-3.192,6.723-5.682,10.884-7.473
		c4.158-1.789,8.655-2.684,13.495-2.684c5.317,0,10.012,0.896,14.073,2.684c4.064,1.791,7.449,4.208,10.157,7.254
		s4.765,6.603,6.168,10.665C875.641,396.321,876.344,400.676,876.344,405.318z M866.33,402.126
		c-0.289-6.385-2.346-11.681-6.166-15.889c-3.822-4.208-9.264-6.312-16.323-6.312c-3.291,0-6.337,0.606-9.142,1.814
		c-2.807,1.21-5.274,2.854-7.4,4.932c-2.129,2.083-3.824,4.452-5.079,7.111c-1.258,2.662-1.984,5.441-2.177,8.343H866.33z"/>
	<path fill="#4D4D4D" d="M933.658,389.502c-1.451-2.804-3.653-5.101-6.604-6.892c-2.952-1.789-6.312-2.685-10.084-2.685
		c-1.742,0-3.481,0.195-5.224,0.581c-1.741,0.388-3.29,1.016-4.643,1.885c-1.355,0.872-2.444,1.984-3.265,3.338
		c-0.823,1.356-1.234,2.952-1.234,4.789c0,3.192,1.307,5.636,3.919,7.328c2.611,1.694,6.721,3.121,12.334,4.28
		c8.027,1.647,13.951,4.04,17.773,7.184c3.82,3.145,5.731,7.378,5.731,12.696c0,3.871-0.75,7.136-2.248,9.795
		c-1.502,2.661-3.46,4.837-5.877,6.53c-2.419,1.692-5.152,2.9-8.198,3.627c-3.047,0.724-6.119,1.088-9.215,1.088
		c-5.127,0-10.108-1.066-14.946-3.192c-4.837-2.127-8.803-5.465-11.896-10.013l7.835-5.805c1.741,3,4.302,5.515,7.691,7.546
		c3.383,2.031,7.108,3.049,11.173,3.049c2.125,0,4.156-0.193,6.093-0.581c1.935-0.386,3.627-1.064,5.08-2.032
		c1.45-0.965,2.611-2.199,3.481-3.7c0.871-1.498,1.307-3.359,1.307-5.586c0-3.578-1.721-6.262-5.152-8.053
		c-3.435-1.789-8.393-3.458-14.873-5.007c-2.031-0.482-4.185-1.089-6.457-1.812c-2.273-0.727-4.377-1.789-6.312-3.192
		c-1.937-1.401-3.533-3.169-4.789-5.297c-1.257-2.127-1.885-4.788-1.885-7.98c0-3.483,0.675-6.457,2.031-8.925
		c1.354-2.466,3.166-4.497,5.441-6.094c2.271-1.596,4.861-2.78,7.762-3.556c2.903-0.771,5.9-1.159,8.996-1.159
		c4.739,0,9.335,1.064,13.785,3.192c4.449,2.127,7.785,5.127,10.014,8.996L933.658,389.502z"/>
</g>
<g>
	<path fill="#4C4C4C" d="M192.687,302.216h-2.844l11.016-25.488h2.52l10.944,25.488h-2.88l-2.808-6.696h-13.176L192.687,302.216z
		 M196.431,293.144h11.232l-5.616-13.536L196.431,293.144z"/>
	<path fill="#4C4C4C" d="M224.618,302.216h-2.7l-6.876-16.848h2.736l5.472,14.256h0.072l5.508-14.256h2.628L224.618,302.216z"/>
	<path fill="#4C4C4C" d="M250.61,293.288c0,0.168,0,0.349,0,0.54c0,0.192-0.013,0.396-0.036,0.612h-13.968
		c0.024,0.84,0.192,1.632,0.504,2.376c0.312,0.744,0.744,1.392,1.296,1.944c0.552,0.552,1.2,0.99,1.944,1.314
		c0.744,0.324,1.548,0.486,2.412,0.486c1.272,0,2.37-0.294,3.294-0.882c0.924-0.588,1.625-1.266,2.106-2.034l1.836,1.44
		c-1.008,1.272-2.118,2.184-3.33,2.736s-2.514,0.828-3.906,0.828c-1.248,0-2.406-0.222-3.474-0.666s-1.986-1.062-2.754-1.854
		c-0.769-0.792-1.374-1.728-1.818-2.808c-0.444-1.08-0.666-2.256-0.666-3.528s0.216-2.448,0.648-3.528s1.032-2.016,1.8-2.808
		s1.668-1.41,2.7-1.854c1.032-0.444,2.147-0.666,3.348-0.666c1.319,0,2.484,0.222,3.492,0.666c1.008,0.444,1.848,1.044,2.52,1.8
		s1.182,1.638,1.53,2.646C250.436,291.056,250.61,292.136,250.61,293.288z M248.126,292.496c-0.072-1.584-0.582-2.898-1.53-3.942
		c-0.948-1.044-2.298-1.566-4.05-1.566c-0.816,0-1.572,0.15-2.268,0.45c-0.696,0.3-1.309,0.708-1.836,1.224
		c-0.528,0.517-0.949,1.104-1.26,1.764c-0.312,0.661-0.492,1.35-0.54,2.07H248.126z"/>
	<path fill="#4C4C4C" d="M258.062,285.368c0.048,0.457,0.084,0.96,0.108,1.512c0.023,0.552,0.036,1.008,0.036,1.368h0.072
		c0.48-0.984,1.26-1.782,2.34-2.394c1.08-0.612,2.219-0.918,3.42-0.918c2.136,0,3.738,0.636,4.806,1.908
		c1.068,1.272,1.602,2.952,1.602,5.04v10.332h-2.448v-9.324c0-0.887-0.072-1.692-0.216-2.412c-0.144-0.72-0.39-1.338-0.738-1.854
		c-0.348-0.516-0.816-0.918-1.404-1.206c-0.588-0.288-1.327-0.432-2.214-0.432c-0.648,0-1.278,0.132-1.89,0.396
		c-0.612,0.265-1.158,0.666-1.638,1.206c-0.48,0.54-0.864,1.224-1.152,2.052c-0.288,0.828-0.432,1.807-0.432,2.934v8.64h-2.448
		v-13.14c0-0.456-0.013-1.044-0.036-1.764c-0.024-0.72-0.06-1.368-0.108-1.944H258.062z"/>
	<path fill="#4C4C4C" d="M279.77,278.888c0,0.504-0.18,0.918-0.54,1.242c-0.36,0.324-0.756,0.486-1.188,0.486
		s-0.828-0.162-1.188-0.486c-0.36-0.324-0.54-0.738-0.54-1.242s0.18-0.918,0.54-1.242c0.36-0.324,0.756-0.486,1.188-0.486
		s0.828,0.162,1.188,0.486C279.59,277.97,279.77,278.384,279.77,278.888z M279.266,302.216h-2.448v-16.848h2.448V302.216z"/>
	<path fill="#4C4C4C" d="M285.746,287.312c-0.024-0.72-0.06-1.368-0.108-1.944h2.34c0.048,0.457,0.084,0.96,0.108,1.512
		c0.023,0.552,0.036,1.008,0.036,1.368h0.072c0.48-0.984,1.2-1.782,2.16-2.394c0.959-0.612,2.04-0.918,3.24-0.918
		c0.312,0,0.594,0.012,0.846,0.036c0.252,0.024,0.51,0.072,0.774,0.144l-0.324,2.34c-0.144-0.048-0.384-0.096-0.72-0.144
		c-0.336-0.048-0.672-0.072-1.008-0.072c-0.648,0-1.272,0.12-1.872,0.359c-0.6,0.24-1.122,0.617-1.566,1.131
		c-0.444,0.515-0.805,1.173-1.08,1.975c-0.276,0.802-0.414,1.766-0.414,2.891v8.619h-2.448v-13.14
		C285.782,288.62,285.77,288.032,285.746,287.312z"/>
	<path fill="#4C4C4C" d="M325.958,298.436h0.072v-21.708h2.592v25.488h-3.24l-14.832-21.924h-0.072v21.924h-2.592v-25.488h3.24
		L325.958,298.436z"/>
	<path fill="#4C4C4C" d="M350.582,293.288c0,0.168,0,0.349,0,0.54c0,0.192-0.013,0.396-0.036,0.612h-13.968
		c0.024,0.84,0.192,1.632,0.504,2.376c0.312,0.744,0.744,1.392,1.296,1.944c0.552,0.552,1.2,0.99,1.944,1.314
		c0.744,0.324,1.548,0.486,2.412,0.486c1.272,0,2.37-0.294,3.294-0.882c0.924-0.588,1.625-1.266,2.106-2.034l1.836,1.44
		c-1.008,1.272-2.118,2.184-3.33,2.736s-2.514,0.828-3.906,0.828c-1.248,0-2.406-0.222-3.474-0.666s-1.986-1.062-2.754-1.854
		c-0.769-0.792-1.374-1.728-1.818-2.808c-0.444-1.08-0.666-2.256-0.666-3.528s0.216-2.448,0.648-3.528s1.032-2.016,1.8-2.808
		s1.668-1.41,2.7-1.854c1.032-0.444,2.147-0.666,3.348-0.666c1.319,0,2.484,0.222,3.492,0.666c1.008,0.444,1.848,1.044,2.52,1.8
		s1.182,1.638,1.53,2.646C350.407,291.056,350.582,292.136,350.582,293.288z M348.097,292.496c-0.072-1.584-0.582-2.898-1.53-3.942
		c-0.948-1.044-2.298-1.566-4.05-1.566c-0.816,0-1.572,0.15-2.268,0.45c-0.696,0.3-1.309,0.708-1.836,1.224
		c-0.528,0.517-0.949,1.104-1.26,1.764c-0.312,0.661-0.492,1.35-0.54,2.07H348.097z"/>
	<path fill="#4C4C4C" d="M359.582,293.504l-6.228-8.136h3.132l4.608,6.408l4.608-6.408h2.952l-6.12,8.028l6.696,8.82h-3.168
		l-5.004-7.02l-5.148,7.02h-2.952L359.582,293.504z"/>
	<path fill="#4C4C4C" d="M380.641,287.42h-4.752v9.828c0,0.624,0.06,1.14,0.18,1.548c0.12,0.408,0.293,0.726,0.522,0.954
		c0.228,0.228,0.498,0.384,0.81,0.468c0.312,0.084,0.648,0.126,1.008,0.126c0.336,0,0.689-0.048,1.062-0.144
		c0.372-0.096,0.726-0.228,1.062-0.396l0.108,2.124c-0.432,0.168-0.882,0.294-1.35,0.378c-0.468,0.084-0.978,0.126-1.53,0.126
		c-0.456,0-0.936-0.06-1.44-0.18c-0.504-0.12-0.972-0.348-1.404-0.684c-0.432-0.336-0.786-0.792-1.062-1.368
		c-0.276-0.576-0.414-1.332-0.414-2.268V287.42h-3.492v-2.052h3.492v-4.752h2.448v4.752h4.752V287.42z"/>
</g>
</svg>
