<?xml version="1.0" encoding="utf-8"?>
<!-- Generator: Adobe Illustrator 16.0.4, SVG Export Plug-In . SVG Version: 6.00 Build 0)  -->
<!DOCTYPE svg PUBLIC "-//W3C//DTD SVG 1.1//EN" "http://www.w3.org/Graphics/SVG/1.1/DTD/svg11.dtd">
<svg version="1.1" id="Layer_1" xmlns="http://www.w3.org/2000/svg" xmlns:xlink="http://www.w3.org/1999/xlink" x="0px" y="0px"
	 width="1224px" height="713.352px" viewBox="0 0 1224 713.352" enable-background="new 0 0 1224 713.352" xml:space="preserve">
<rect fill="#F8F8F8" width="1224" height="725.353"/>
<rect x="181.831" y="140.438" fill="#F8F8F8" stroke="#EAEAEA" stroke-miterlimit="10" width="81.324" height="81.324"/>
<rect x="85.873" y="140.438" fill="#FFFFFF" stroke="#EAEAEA" stroke-miterlimit="10" width="81.324" height="81.324"/>
<rect x="373.747" y="140.438" fill="#CCCCCC" width="81.324" height="81.324"/>
<rect x="277.79" y="140.438" fill="#EFEFEF" stroke="#EAEAEA" stroke-miterlimit="10" width="81.323" height="81.324"/>
<rect x="565.664" y="140.438" fill="#828282" width="81.323" height="81.324"/>
<rect x="469.705" y="140.438" fill="#A9A9A9" width="81.324" height="81.324"/>
<rect x="757.58" y="140.438" fill="#595959" width="81.326" height="81.324"/>
<rect x="661.621" y="140.438" fill="#6E6E6E" width="81.324" height="81.324"/>
<rect x="853.539" y="140.438" fill="#4C4C4C" width="81.324" height="81.324"/>
<rect x="949.498" y="140.438" fill="#323232" width="81.324" height="81.324"/>
<rect x="85.873" y="338.837" fill="#D2E9F9" width="81.322" height="81.324"/>
<rect x="277.79" y="338.837" fill="#56A5D8" width="81.325" height="81.324"/>
<rect x="181.83" y="338.837" fill="#BCDAED" width="81.325" height="81.324"/>
<rect x="373.749" y="338.837" fill="#0078C0" width="81.323" height="81.324"/>
<rect x="469.707" y="338.837" fill="#005E95" width="81.324" height="81.324"/>
<rect x="85.873" y="535.479" fill="#9BC19C" width="81.322" height="81.323"/>
<rect x="277.79" y="535.479" fill="#338033" width="81.325" height="81.323"/>
<rect x="181.83" y="535.479" fill="#5A9359" width="81.325" height="81.323"/>
<rect x="757.58" y="338.837" fill="#E4A793" width="81.322" height="81.324"/>
<rect x="949.496" y="338.837" fill="#AB3B17" width="81.326" height="81.324"/>
<rect x="853.537" y="338.837" fill="#DE2900" width="81.324" height="81.324"/>
<rect x="757.582" y="535.479" fill="#C4BCDC" width="81.322" height="81.323"/>
<rect x="949.498" y="535.479" fill="#7461A8" width="81.326" height="81.323"/>
<rect x="853.539" y="535.479" fill="#9081BC" width="81.324" height="81.323"/>
<g>
	<path fill="#4C4C4C" d="M100.177,119.07h0.048v-14.472h1.728v16.992h-2.16l-9.888-14.616h-0.048v14.616h-1.728v-16.992h2.16
		L100.177,119.07z"/>
	<path fill="#4C4C4C" d="M116.592,115.638c0,0.112,0,0.232,0,0.36s-0.008,0.264-0.024,0.408h-9.312
		c0.016,0.561,0.128,1.088,0.336,1.584c0.208,0.496,0.496,0.928,0.864,1.296c0.368,0.369,0.8,0.66,1.296,0.876
		c0.496,0.216,1.032,0.324,1.608,0.324c0.848,0,1.58-0.196,2.196-0.588c0.616-0.392,1.083-0.844,1.404-1.356l1.224,0.96
		c-0.672,0.848-1.412,1.456-2.22,1.824c-0.808,0.368-1.676,0.552-2.604,0.552c-0.832,0-1.604-0.148-2.316-0.444
		c-0.712-0.296-1.324-0.708-1.836-1.236c-0.512-0.528-0.916-1.152-1.212-1.872c-0.296-0.72-0.444-1.503-0.444-2.352
		c0-0.848,0.144-1.632,0.432-2.352c0.288-0.72,0.688-1.344,1.2-1.872c0.512-0.528,1.112-0.94,1.8-1.236
		c0.688-0.296,1.432-0.444,2.232-0.444c0.88,0,1.656,0.148,2.328,0.444c0.672,0.296,1.232,0.696,1.68,1.2
		c0.448,0.504,0.788,1.092,1.02,1.764C116.476,114.15,116.592,114.87,116.592,115.638z M114.937,115.11
		c-0.048-1.056-0.388-1.932-1.02-2.628c-0.632-0.696-1.532-1.044-2.7-1.044c-0.544,0-1.048,0.1-1.512,0.3
		c-0.464,0.2-0.873,0.472-1.224,0.816c-0.352,0.344-0.632,0.736-0.84,1.176c-0.208,0.44-0.328,0.9-0.36,1.38H114.937z"/>
	<path fill="#4C4C4C" d="M128.256,121.59c-0.032-0.304-0.056-0.64-0.072-1.008c-0.016-0.368-0.024-0.672-0.024-0.912h-0.048
		c-0.32,0.656-0.84,1.188-1.56,1.596c-0.72,0.408-1.48,0.612-2.28,0.612c-1.424,0-2.492-0.424-3.204-1.272s-1.068-1.968-1.068-3.36
		v-6.888h1.632v6.216c0,0.592,0.048,1.128,0.144,1.608c0.096,0.48,0.26,0.892,0.492,1.236s0.544,0.612,0.936,0.804
		c0.392,0.192,0.884,0.288,1.476,0.288c0.432,0,0.852-0.088,1.26-0.264c0.408-0.176,0.772-0.444,1.092-0.804
		c0.32-0.36,0.576-0.816,0.768-1.368c0.192-0.552,0.288-1.204,0.288-1.956v-5.76h1.632v8.76c0,0.304,0.008,0.696,0.024,1.176
		c0.016,0.48,0.04,0.912,0.072,1.296H128.256z"/>
	<path fill="#4C4C4C" d="M139.104,111.726h-3.168v6.552c0,0.417,0.04,0.76,0.12,1.032s0.196,0.484,0.348,0.636
		c0.152,0.152,0.332,0.256,0.54,0.312c0.208,0.056,0.432,0.084,0.672,0.084c0.224,0,0.46-0.032,0.708-0.096
		c0.248-0.063,0.484-0.152,0.708-0.264l0.072,1.416c-0.288,0.112-0.588,0.196-0.9,0.252c-0.312,0.056-0.652,0.084-1.02,0.084
		c-0.304,0-0.624-0.04-0.96-0.12c-0.336-0.08-0.648-0.231-0.936-0.456c-0.288-0.224-0.524-0.528-0.708-0.912
		c-0.184-0.384-0.276-0.888-0.276-1.512v-7.008h-2.328v-1.368h2.328v-3.168h1.632v3.168h3.168V111.726z"/>
	<path fill="#4C4C4C" d="M141.624,111.654c-0.016-0.48-0.041-0.912-0.072-1.296h1.56c0.032,0.304,0.056,0.64,0.072,1.008
		c0.016,0.368,0.024,0.672,0.024,0.912h0.048c0.32-0.656,0.8-1.188,1.44-1.596c0.64-0.408,1.36-0.612,2.16-0.612
		c0.208,0,0.396,0.008,0.564,0.024c0.168,0.016,0.34,0.048,0.516,0.096l-0.216,1.56c-0.096-0.032-0.256-0.064-0.48-0.096
		c-0.224-0.032-0.448-0.048-0.672-0.048c-0.432,0-0.848,0.08-1.248,0.24c-0.4,0.16-0.748,0.411-1.044,0.754
		c-0.296,0.343-0.536,0.782-0.72,1.316c-0.184,0.535-0.276,1.178-0.276,1.928v5.746h-1.632v-8.76
		C141.648,112.526,141.64,112.134,141.624,111.654z"/>
	<path fill="#4C4C4C" d="M157.08,114.32c0-0.968-0.256-1.691-0.768-2.167c-0.512-0.477-1.256-0.715-2.232-0.715
		c-0.672,0-1.296,0.12-1.872,0.36c-0.576,0.24-1.064,0.56-1.464,0.96l-0.912-1.08c0.464-0.464,1.076-0.848,1.836-1.152
		c0.76-0.304,1.62-0.456,2.58-0.456c0.608,0,1.176,0.084,1.704,0.252c0.528,0.168,0.992,0.42,1.392,0.756
		c0.4,0.336,0.712,0.76,0.936,1.272c0.224,0.513,0.336,1.112,0.336,1.8v4.92c0,0.432,0.016,0.88,0.048,1.344
		c0.032,0.464,0.08,0.856,0.144,1.176h-1.464c-0.048-0.272-0.088-0.568-0.12-0.888c-0.032-0.32-0.048-0.632-0.048-0.936h-0.048
		c-0.512,0.752-1.092,1.292-1.74,1.62s-1.428,0.492-2.34,0.492c-0.432,0-0.876-0.061-1.332-0.181s-0.872-0.317-1.248-0.59
		s-0.688-0.626-0.936-1.06s-0.372-0.963-0.372-1.589c0-0.867,0.22-1.553,0.66-2.059c0.44-0.505,1.028-0.883,1.764-1.132
		c0.736-0.249,1.58-0.41,2.532-0.482c0.952-0.072,1.94-0.108,2.964-0.108V114.32z M156.599,115.974
		c-0.672,0-1.348,0.028-2.028,0.084c-0.68,0.057-1.296,0.168-1.848,0.336c-0.552,0.168-1.004,0.412-1.356,0.732
		c-0.352,0.32-0.528,0.744-0.528,1.272c0,0.4,0.076,0.736,0.228,1.008c0.152,0.272,0.356,0.492,0.612,0.66s0.54,0.288,0.852,0.36
		c0.312,0.072,0.628,0.108,0.948,0.108c0.576,0,1.088-0.1,1.536-0.3c0.448-0.2,0.824-0.472,1.128-0.816
		c0.304-0.344,0.536-0.74,0.696-1.188c0.16-0.448,0.24-0.92,0.24-1.416v-0.84H156.599z"/>
	<path fill="#4C4C4C" d="M164.496,121.59h-1.632v-18.144h1.632V121.59z"/>
	<path fill="#4C4C4C" d="M174.84,113.022c-0.24-0.464-0.604-0.844-1.092-1.14c-0.488-0.296-1.044-0.444-1.668-0.444
		c-0.288,0-0.576,0.032-0.864,0.096c-0.288,0.064-0.544,0.168-0.768,0.312c-0.225,0.144-0.404,0.328-0.54,0.552
		c-0.136,0.224-0.204,0.488-0.204,0.792c0,0.528,0.216,0.932,0.648,1.212c0.432,0.28,1.112,0.516,2.04,0.708
		c1.328,0.272,2.308,0.668,2.94,1.188c0.632,0.52,0.948,1.22,0.948,2.1c0,0.64-0.125,1.18-0.372,1.62
		c-0.249,0.44-0.572,0.8-0.972,1.08c-0.4,0.28-0.852,0.48-1.356,0.6s-1.012,0.18-1.524,0.18c-0.848,0-1.672-0.176-2.472-0.528
		c-0.8-0.352-1.456-0.903-1.968-1.656l1.296-0.96c0.288,0.496,0.712,0.912,1.272,1.248s1.176,0.504,1.848,0.504
		c0.352,0,0.688-0.032,1.008-0.096c0.32-0.063,0.6-0.176,0.84-0.336c0.24-0.16,0.432-0.364,0.576-0.612s0.216-0.556,0.216-0.924
		c0-0.592-0.284-1.036-0.852-1.332c-0.568-0.296-1.389-0.572-2.46-0.828c-0.336-0.08-0.692-0.18-1.068-0.3
		c-0.376-0.12-0.724-0.295-1.044-0.528c-0.32-0.232-0.584-0.524-0.792-0.876c-0.208-0.352-0.312-0.792-0.312-1.32
		c0-0.576,0.112-1.068,0.336-1.476c0.224-0.408,0.524-0.744,0.9-1.008c0.376-0.264,0.804-0.459,1.284-0.588
		c0.48-0.128,0.976-0.192,1.488-0.192c0.784,0,1.543,0.176,2.28,0.528c0.736,0.353,1.288,0.849,1.656,1.488L174.84,113.022z"/>
</g>
<g>
	<path fill="#4C4C4C" d="M88.128,302.999h5.064c0.64,0,1.288,0.068,1.944,0.204c0.656,0.136,1.244,0.368,1.764,0.696
		s0.944,0.772,1.272,1.332s0.492,1.264,0.492,2.112c0,0.896-0.274,1.676-0.82,2.34c-0.547,0.664-1.279,1.101-2.195,1.308v0.048
		c1.102,0.128,2.016,0.556,2.742,1.284c0.727,0.728,1.09,1.716,1.09,2.964c0,0.705-0.147,1.348-0.443,1.932
		c-0.295,0.584-0.714,1.08-1.257,1.488c-0.543,0.408-1.206,0.724-1.988,0.948s-1.661,0.336-2.634,0.336h-5.03V302.999z
		 M89.856,310.439h3.48c0.416,0,0.836-0.048,1.26-0.144c0.424-0.096,0.812-0.26,1.164-0.492c0.352-0.232,0.636-0.54,0.852-0.924
		c0.216-0.384,0.324-0.856,0.324-1.416c0-0.544-0.108-1.004-0.324-1.38c-0.216-0.375-0.508-0.684-0.876-0.924
		c-0.368-0.24-0.8-0.412-1.296-0.516c-0.496-0.104-1.024-0.156-1.584-0.156h-3V310.439z M89.856,318.503h3.216
		c0.624,0,1.22-0.06,1.788-0.18s1.064-0.312,1.488-0.576c0.424-0.264,0.764-0.608,1.02-1.032c0.256-0.424,0.384-0.932,0.384-1.524
		c0-1.12-0.38-1.956-1.14-2.508c-0.76-0.552-1.836-0.828-3.228-0.828h-3.528V318.503z"/>
	<path fill="#4C4C4C" d="M104.976,319.991h-1.632v-18.144h1.632V319.991z"/>
	<path fill="#4C4C4C" d="M117.504,319.991c-0.032-0.304-0.056-0.64-0.072-1.008c-0.016-0.368-0.024-0.672-0.024-0.912h-0.048
		c-0.32,0.656-0.84,1.188-1.56,1.596c-0.72,0.408-1.48,0.612-2.28,0.612c-1.424,0-2.492-0.424-3.204-1.272s-1.068-1.968-1.068-3.36
		v-6.888h1.632v6.216c0,0.592,0.048,1.128,0.144,1.608c0.096,0.48,0.26,0.892,0.492,1.236s0.544,0.612,0.936,0.804
		c0.392,0.192,0.884,0.288,1.476,0.288c0.432,0,0.852-0.088,1.26-0.264c0.408-0.176,0.772-0.444,1.092-0.804
		c0.32-0.36,0.576-0.816,0.768-1.368c0.192-0.552,0.288-1.204,0.288-1.956v-5.76h1.632v8.76c0,0.304,0.008,0.696,0.024,1.176
		c0.016,0.48,0.04,0.912,0.072,1.296H117.504z"/>
	<path fill="#4C4C4C" d="M133.512,314.039c0,0.112,0,0.232,0,0.36s-0.008,0.264-0.024,0.408h-9.312
		c0.016,0.561,0.128,1.088,0.336,1.584c0.208,0.496,0.496,0.928,0.864,1.296c0.368,0.369,0.8,0.66,1.296,0.876
		c0.496,0.216,1.032,0.324,1.608,0.324c0.848,0,1.58-0.196,2.196-0.588c0.616-0.392,1.083-0.844,1.404-1.356l1.224,0.96
		c-0.672,0.848-1.412,1.456-2.22,1.824c-0.808,0.368-1.676,0.552-2.604,0.552c-0.832,0-1.604-0.148-2.316-0.444
		c-0.712-0.296-1.324-0.708-1.836-1.236c-0.512-0.528-0.916-1.152-1.212-1.872c-0.296-0.72-0.444-1.503-0.444-2.352
		c0-0.848,0.144-1.632,0.432-2.352c0.288-0.72,0.688-1.344,1.2-1.872c0.512-0.528,1.112-0.94,1.8-1.236
		c0.688-0.296,1.432-0.444,2.232-0.444c0.88,0,1.656,0.148,2.328,0.444c0.672,0.296,1.232,0.696,1.68,1.2
		c0.448,0.504,0.788,1.092,1.02,1.764C133.396,312.551,133.512,313.271,133.512,314.039z M131.856,313.511
		c-0.048-1.056-0.388-1.932-1.02-2.628c-0.632-0.696-1.532-1.044-2.7-1.044c-0.544,0-1.048,0.1-1.512,0.3
		c-0.464,0.2-0.873,0.472-1.224,0.816c-0.352,0.344-0.632,0.736-0.84,1.176c-0.208,0.44-0.328,0.9-0.36,1.38H131.856z"/>
</g>
<g>
	<path fill="#4C4C4C" d="M101.017,502.715c-0.592-0.624-1.296-1.108-2.112-1.452c-0.816-0.344-1.752-0.517-2.808-0.517
		c-1.088,0-2.068,0.2-2.94,0.6c-0.873,0.399-1.612,0.938-2.22,1.617c-0.608,0.679-1.076,1.466-1.404,2.36
		c-0.328,0.895-0.492,1.837-0.492,2.827c0,0.991,0.164,1.934,0.492,2.827c0.328,0.896,0.795,1.678,1.404,2.349
		c0.608,0.671,1.348,1.206,2.22,1.605c0.872,0.399,1.852,0.599,2.94,0.599c0.96,0,1.84-0.104,2.64-0.312
		c0.8-0.208,1.448-0.472,1.944-0.792v-5.16h-3.96v-1.536h5.688v7.676c-0.928,0.562-1.928,0.979-3,1.251
		c-1.072,0.272-2.184,0.409-3.336,0.409c-1.28,0-2.464-0.225-3.552-0.672c-1.088-0.448-2.024-1.068-2.808-1.86
		c-0.784-0.792-1.396-1.731-1.836-2.819s-0.66-2.28-0.66-3.576s0.224-2.488,0.672-3.576c0.448-1.088,1.068-2.028,1.86-2.82
		s1.728-1.411,2.808-1.859s2.252-0.672,3.516-0.672c1.359,0,2.544,0.203,3.552,0.609s1.872,0.972,2.592,1.694L101.017,502.715z"/>
	<path fill="#4C4C4C" d="M106.705,506.698c-0.016-0.479-0.041-0.912-0.072-1.296h1.56c0.032,0.305,0.056,0.641,0.072,1.008
		c0.016,0.368,0.024,0.673,0.024,0.912h0.048c0.32-0.655,0.8-1.188,1.44-1.596c0.64-0.408,1.36-0.612,2.16-0.612
		c0.208,0,0.396,0.009,0.564,0.024s0.34,0.048,0.516,0.096l-0.216,1.561c-0.096-0.032-0.256-0.064-0.48-0.097
		c-0.224-0.031-0.448-0.048-0.672-0.048c-0.432,0-0.848,0.08-1.248,0.24c-0.4,0.159-0.748,0.41-1.044,0.754
		c-0.296,0.343-0.536,0.781-0.72,1.316s-0.276,1.178-0.276,1.928v5.746h-1.632v-8.76C106.729,507.57,106.72,507.179,106.705,506.698
		z"/>
	<path fill="#4C4C4C" d="M125.16,510.683c0,0.112,0,0.232,0,0.36s-0.008,0.264-0.024,0.407h-9.312
		c0.016,0.561,0.128,1.089,0.336,1.584c0.208,0.496,0.496,0.929,0.864,1.296c0.368,0.369,0.8,0.66,1.296,0.876
		c0.496,0.217,1.032,0.324,1.608,0.324c0.848,0,1.58-0.195,2.196-0.588c0.616-0.392,1.083-0.844,1.404-1.355l1.224,0.96
		c-0.672,0.848-1.412,1.456-2.22,1.823c-0.808,0.368-1.676,0.553-2.604,0.553c-0.832,0-1.604-0.148-2.316-0.444
		s-1.324-0.708-1.836-1.236c-0.512-0.527-0.916-1.151-1.212-1.872c-0.296-0.72-0.444-1.503-0.444-2.352
		c0-0.848,0.144-1.632,0.432-2.352c0.288-0.721,0.688-1.345,1.2-1.872c0.512-0.528,1.112-0.94,1.8-1.236s1.432-0.444,2.232-0.444
		c0.88,0,1.656,0.148,2.328,0.444s1.232,0.696,1.68,1.2c0.448,0.504,0.788,1.092,1.02,1.764
		C125.044,509.194,125.16,509.914,125.16,510.683z M123.504,510.154c-0.048-1.056-0.388-1.932-1.02-2.628
		c-0.632-0.696-1.532-1.044-2.7-1.044c-0.544,0-1.048,0.101-1.512,0.3c-0.464,0.2-0.873,0.473-1.224,0.816
		c-0.352,0.344-0.632,0.736-0.84,1.176c-0.208,0.44-0.328,0.9-0.36,1.38H123.504z"/>
	<path fill="#4C4C4C" d="M138.888,510.683c0,0.112,0,0.232,0,0.36s-0.008,0.264-0.024,0.407h-9.312
		c0.016,0.561,0.128,1.089,0.336,1.584c0.208,0.496,0.496,0.929,0.864,1.296c0.368,0.369,0.8,0.66,1.296,0.876
		c0.496,0.217,1.032,0.324,1.608,0.324c0.848,0,1.58-0.195,2.196-0.588c0.616-0.392,1.083-0.844,1.404-1.355l1.224,0.96
		c-0.672,0.848-1.412,1.456-2.22,1.823c-0.808,0.368-1.676,0.553-2.604,0.553c-0.832,0-1.604-0.148-2.316-0.444
		s-1.324-0.708-1.836-1.236c-0.512-0.527-0.916-1.151-1.212-1.872c-0.296-0.72-0.444-1.503-0.444-2.352
		c0-0.848,0.144-1.632,0.432-2.352c0.288-0.721,0.688-1.345,1.2-1.872c0.512-0.528,1.112-0.94,1.8-1.236s1.432-0.444,2.232-0.444
		c0.88,0,1.656,0.148,2.328,0.444s1.232,0.696,1.68,1.2c0.448,0.504,0.788,1.092,1.02,1.764
		C138.772,509.194,138.888,509.914,138.888,510.683z M137.232,510.154c-0.048-1.056-0.388-1.932-1.02-2.628
		c-0.632-0.696-1.532-1.044-2.7-1.044c-0.544,0-1.048,0.101-1.512,0.3c-0.464,0.2-0.873,0.473-1.224,0.816
		c-0.352,0.344-0.632,0.736-0.84,1.176c-0.208,0.44-0.328,0.9-0.36,1.38H137.232z"/>
	<path fill="#4C4C4C" d="M143.856,505.402c0.032,0.305,0.056,0.641,0.072,1.008c0.016,0.368,0.024,0.673,0.024,0.912H144
		c0.32-0.655,0.84-1.188,1.56-1.596c0.72-0.408,1.479-0.612,2.28-0.612c1.424,0,2.492,0.425,3.204,1.272s1.068,1.968,1.068,3.359
		v6.889h-1.632v-6.216c0-0.592-0.048-1.129-0.144-1.608c-0.096-0.48-0.26-0.892-0.492-1.236c-0.232-0.344-0.544-0.611-0.936-0.804
		s-0.884-0.288-1.476-0.288c-0.432,0-0.852,0.088-1.26,0.264c-0.408,0.177-0.772,0.444-1.092,0.805
		c-0.32,0.359-0.576,0.815-0.768,1.368c-0.192,0.552-0.288,1.204-0.288,1.956v5.76h-1.632v-8.76c0-0.305-0.008-0.696-0.024-1.177
		c-0.016-0.479-0.041-0.912-0.072-1.296H143.856z"/>
</g>
<g>
	<path fill="#4C4C4C" d="M761.373,319.991h-1.729v-16.992h4.992c0.832,0,1.604,0.081,2.316,0.24c0.711,0.16,1.328,0.42,1.848,0.78
		c0.52,0.36,0.924,0.828,1.213,1.404c0.287,0.576,0.432,1.28,0.432,2.112c0,0.624-0.113,1.192-0.336,1.704
		c-0.225,0.512-0.529,0.956-0.912,1.332c-0.385,0.376-0.84,0.676-1.369,0.9c-0.527,0.224-1.104,0.368-1.727,0.432l4.967,8.088
		h-2.111l-4.705-7.944h-2.879V319.991z M761.373,310.559h3c1.393,0,2.463-0.252,3.217-0.756c0.75-0.504,1.127-1.26,1.127-2.268
		c0-0.56-0.104-1.032-0.312-1.416c-0.207-0.384-0.496-0.696-0.863-0.936c-0.369-0.24-0.816-0.416-1.344-0.528
		c-0.529-0.112-1.113-0.168-1.752-0.168h-3.072V310.559z"/>
	<path fill="#4C4C4C" d="M783.861,314.039c0,0.112,0,0.232,0,0.36s-0.008,0.264-0.025,0.408h-9.311
		c0.016,0.561,0.127,1.088,0.336,1.584c0.207,0.496,0.496,0.928,0.863,1.296c0.367,0.369,0.801,0.66,1.297,0.876
		c0.494,0.216,1.031,0.324,1.607,0.324c0.848,0,1.58-0.196,2.195-0.588c0.617-0.392,1.084-0.844,1.404-1.356l1.225,0.96
		c-0.672,0.848-1.412,1.456-2.221,1.824c-0.809,0.368-1.676,0.552-2.604,0.552c-0.832,0-1.604-0.148-2.316-0.444
		c-0.711-0.296-1.324-0.708-1.836-1.236c-0.512-0.528-0.916-1.152-1.211-1.872c-0.297-0.72-0.445-1.503-0.445-2.352
		c0-0.848,0.145-1.632,0.432-2.352c0.289-0.72,0.689-1.344,1.201-1.872c0.512-0.528,1.111-0.94,1.799-1.236
		c0.689-0.296,1.432-0.444,2.232-0.444c0.881,0,1.656,0.148,2.328,0.444c0.672,0.296,1.232,0.696,1.68,1.2
		c0.449,0.504,0.789,1.092,1.021,1.764C783.744,312.551,783.861,313.271,783.861,314.039z M782.205,313.511
		c-0.049-1.056-0.389-1.932-1.02-2.628c-0.633-0.696-1.533-1.044-2.701-1.044c-0.543,0-1.047,0.1-1.512,0.3
		c-0.465,0.2-0.873,0.472-1.225,0.816c-0.352,0.344-0.631,0.736-0.84,1.176c-0.207,0.44-0.328,0.9-0.359,1.38H782.205z"/>
	<path fill="#4C4C4C" d="M796.604,318.095c-0.479,0.72-1.104,1.264-1.871,1.632c-0.768,0.368-1.561,0.552-2.377,0.552
		c-0.879,0-1.676-0.152-2.387-0.456c-0.713-0.304-1.32-0.72-1.824-1.248s-0.896-1.152-1.176-1.872
		c-0.281-0.72-0.42-1.496-0.42-2.328c0-0.832,0.139-1.608,0.42-2.328c0.279-0.72,0.672-1.344,1.176-1.872
		c0.504-0.528,1.111-0.944,1.824-1.248c0.711-0.304,1.508-0.456,2.387-0.456c0.816,0,1.609,0.188,2.377,0.564
		c0.768,0.376,1.393,0.932,1.871,1.668h0.049v-8.856h1.633v18.144h-1.633v-1.896H796.604z M788.275,314.375
		c0,0.624,0.098,1.212,0.289,1.764c0.191,0.552,0.469,1.032,0.828,1.44c0.359,0.408,0.805,0.729,1.332,0.96
		c0.527,0.232,1.127,0.348,1.799,0.348c0.625,0,1.201-0.116,1.729-0.348c0.529-0.231,0.984-0.548,1.369-0.948
		c0.383-0.4,0.684-0.876,0.898-1.428c0.217-0.552,0.324-1.148,0.324-1.788c0-0.64-0.107-1.236-0.324-1.788
		c-0.215-0.552-0.516-1.032-0.898-1.44c-0.385-0.408-0.84-0.728-1.369-0.96c-0.527-0.231-1.104-0.348-1.729-0.348
		c-0.672,0-1.271,0.12-1.799,0.36s-0.973,0.564-1.332,0.972c-0.359,0.408-0.637,0.888-0.828,1.44
		C788.373,313.163,788.275,313.75,788.275,314.375z"/>
</g>
<g>
	<path fill="#4C4C4C" d="M759.645,499.643h4.801c0.863,0,1.646,0.092,2.352,0.276c0.703,0.184,1.309,0.464,1.812,0.84
		s0.891,0.848,1.164,1.416c0.271,0.567,0.408,1.235,0.408,2.004c0,0.768-0.141,1.437-0.42,2.004
		c-0.281,0.568-0.672,1.04-1.178,1.416c-0.504,0.376-1.111,0.66-1.822,0.852c-0.713,0.192-1.5,0.288-2.365,0.288h-3.023v7.896
		h-1.729V499.643z M761.373,507.274h2.928c1.359,0,2.393-0.264,3.096-0.792c0.705-0.528,1.057-1.296,1.057-2.304
		c0-1.057-0.365-1.828-1.092-2.316c-0.729-0.487-1.748-0.731-3.061-0.731h-2.928V507.274z"/>
	<path fill="#4C4C4C" d="M780.477,516.635c-0.031-0.304-0.057-0.64-0.072-1.008s-0.023-0.673-0.023-0.912h-0.049
		c-0.318,0.656-0.84,1.188-1.559,1.596c-0.721,0.408-1.48,0.612-2.281,0.612c-1.424,0-2.492-0.424-3.203-1.272
		c-0.713-0.848-1.068-1.968-1.068-3.36v-6.888h1.633v6.216c0,0.593,0.047,1.128,0.143,1.608c0.098,0.479,0.262,0.892,0.492,1.236
		c0.232,0.344,0.545,0.611,0.938,0.804c0.391,0.192,0.883,0.288,1.475,0.288c0.432,0,0.854-0.088,1.26-0.265
		c0.408-0.176,0.773-0.443,1.094-0.804c0.318-0.359,0.574-0.815,0.768-1.368c0.191-0.552,0.287-1.203,0.287-1.956v-5.76h1.633v8.76
		c0,0.305,0.008,0.696,0.023,1.177c0.016,0.479,0.039,0.912,0.072,1.296H780.477z"/>
	<path fill="#4C4C4C" d="M786.236,506.698c-0.016-0.479-0.039-0.912-0.072-1.296h1.561c0.031,0.305,0.057,0.641,0.072,1.008
		c0.016,0.368,0.023,0.673,0.023,0.912h0.049c0.32-0.655,0.799-1.188,1.439-1.596s1.359-0.612,2.16-0.612
		c0.207,0,0.396,0.009,0.564,0.024s0.34,0.048,0.516,0.096l-0.217,1.561c-0.096-0.032-0.256-0.064-0.479-0.097
		c-0.225-0.031-0.449-0.048-0.672-0.048c-0.434,0-0.85,0.08-1.248,0.24c-0.4,0.159-0.748,0.41-1.045,0.754
		c-0.297,0.343-0.535,0.781-0.721,1.316c-0.184,0.535-0.275,1.178-0.275,1.928v5.746h-1.631v-8.76
		C786.262,507.57,786.252,507.179,786.236,506.698z"/>
	<path fill="#4C4C4C" d="M796.533,522.395H794.9v-16.992h1.633v1.944h0.07c0.465-0.736,1.084-1.292,1.861-1.668
		c0.775-0.376,1.562-0.564,2.363-0.564c0.881,0,1.676,0.152,2.389,0.456c0.711,0.305,1.32,0.72,1.824,1.248s0.895,1.152,1.176,1.872
		c0.279,0.72,0.42,1.496,0.42,2.328s-0.141,1.608-0.42,2.328c-0.281,0.72-0.672,1.344-1.176,1.872
		c-0.504,0.527-1.113,0.944-1.824,1.248c-0.713,0.304-1.508,0.456-2.389,0.456c-0.801,0-1.588-0.188-2.363-0.564
		c-0.777-0.376-1.396-0.916-1.861-1.62h-0.07V522.395z M804.908,511.019c0-0.624-0.096-1.212-0.287-1.764
		c-0.193-0.553-0.469-1.032-0.828-1.44c-0.361-0.408-0.805-0.731-1.332-0.972c-0.529-0.24-1.129-0.36-1.801-0.36
		c-0.623,0-1.199,0.116-1.729,0.348c-0.527,0.232-0.982,0.553-1.367,0.96c-0.385,0.408-0.684,0.889-0.9,1.44
		c-0.215,0.552-0.324,1.148-0.324,1.788s0.109,1.236,0.324,1.788c0.217,0.552,0.516,1.028,0.9,1.428
		c0.385,0.4,0.84,0.717,1.367,0.948c0.529,0.232,1.105,0.348,1.729,0.348c0.672,0,1.271-0.115,1.801-0.348
		c0.527-0.231,0.971-0.552,1.332-0.96c0.359-0.408,0.635-0.888,0.828-1.44C804.812,512.23,804.908,511.643,804.908,511.019z"/>
	<path fill="#4C4C4C" d="M811.82,516.635h-1.633V498.49h1.633V516.635z"/>
	<path fill="#4C4C4C" d="M826.412,510.683c0,0.112,0,0.232,0,0.36s-0.008,0.264-0.023,0.407h-9.312
		c0.016,0.561,0.127,1.089,0.336,1.584c0.207,0.496,0.496,0.929,0.863,1.296c0.369,0.369,0.801,0.66,1.297,0.876
		c0.496,0.217,1.031,0.324,1.607,0.324c0.848,0,1.58-0.195,2.197-0.588c0.615-0.392,1.082-0.844,1.402-1.355l1.225,0.96
		c-0.672,0.848-1.412,1.456-2.221,1.823c-0.807,0.368-1.676,0.553-2.604,0.553c-0.832,0-1.604-0.148-2.316-0.444
		c-0.711-0.296-1.324-0.708-1.836-1.236c-0.512-0.527-0.916-1.151-1.211-1.872c-0.297-0.72-0.443-1.503-0.443-2.352
		c0-0.848,0.143-1.632,0.432-2.352c0.287-0.721,0.688-1.345,1.199-1.872c0.512-0.528,1.111-0.94,1.801-1.236
		c0.688-0.296,1.432-0.444,2.23-0.444c0.881,0,1.656,0.148,2.328,0.444s1.232,0.696,1.682,1.2c0.447,0.504,0.787,1.092,1.02,1.764
		C826.295,509.194,826.412,509.914,826.412,510.683z M824.756,510.154c-0.047-1.056-0.389-1.932-1.02-2.628
		c-0.633-0.696-1.533-1.044-2.701-1.044c-0.543,0-1.047,0.101-1.512,0.3c-0.463,0.2-0.871,0.473-1.223,0.816
		c-0.354,0.344-0.633,0.736-0.84,1.176c-0.209,0.44-0.328,0.9-0.361,1.38H824.756z"/>
</g>
</svg>
