<?xml version="1.0" encoding="utf-8"?>
<!-- Generator: Adobe Illustrator 16.0.4, SVG Export Plug-In . SVG Version: 6.00 Build 0)  -->
<!DOCTYPE svg PUBLIC "-//W3C//DTD SVG 1.1//EN" "http://www.w3.org/Graphics/SVG/1.1/DTD/svg11.dtd">
<svg version="1.1" xmlns="http://www.w3.org/2000/svg" xmlns:xlink="http://www.w3.org/1999/xlink" x="0px" y="0px" width="65.25px"
	 height="81.562px" viewBox="0 0 65.25 81.562" enable-background="new 0 0 65.25 81.562" xml:space="preserve">
<g id="Layer_2">
</g>
<g id="Layer_1">
	<polygon fill="#FFFFFF" points="61.982,55.995 40.691,45.564 42.337,57.874 61.982,59.503 	"/>
	<polygon fill="#FFFFFF" points="4.462,55.995 24.67,45.564 23.222,57.5 4.462,59.503 	"/>
	<polygon fill="#FFFFFF" points="42.337,63.649 36.624,20.417 33.987,18.684 31.037,18.684 28.938,20.417 23.222,63.649 
		29.342,66.246 36.22,66.246 	"/>
	<polygon fill="#6F6FD8" points="29.979,21.188 27.862,41.167 37.685,41.167 35.564,21.188 33.376,19.646 31.713,19.646 	"/>
	<polygon fill="#6F6FD8" points="27.639,42.467 26.552,49.134 28.703,51.033 36.468,51.033 38.839,48.625 37.828,42.467 	"/>
	<polygon fill="#FFFFFF" points="56.651,52.954 55.734,45.012 55.056,45.012 54.224,51.463 	"/>
	<polygon fill="#FFFFFF" points="10.5,52.457 11.417,45.012 12.096,45.012 12.928,50.966 	"/>
</g>
</svg>
