<?xml version="1.0" encoding="utf-8"?>
<!-- Generator: Adobe Illustrator 16.0.4, SVG Export Plug-In . SVG Version: 6.00 Build 0)  -->
<!DOCTYPE svg PUBLIC "-//W3C//DTD SVG 1.1//EN" "http://www.w3.org/Graphics/SVG/1.1/DTD/svg11.dtd">
<svg version="1.1" id="Layer_1" xmlns="http://www.w3.org/2000/svg" xmlns:xlink="http://www.w3.org/1999/xlink" x="0px" y="0px"
	 width="900px" height="400px" viewBox="0 0 900 400" enable-background="new 0 0 900 400" xml:space="preserve">
<rect x="-1.113" y="-0.232" fill="#F1F2F2" width="902.226" height="400.232"/>
<g>
	<polygon fill-rule="evenodd" clip-rule="evenodd" fill="#73A1D0" points="363.892,319.693 254.509,256.541 342.902,205.508 
		452.284,268.66 	"/>
	<path fill-rule="evenodd" clip-rule="evenodd" fill="#D1DEF0" d="M336.021,181.28l20.606,11.896
		c-15.516,5.281-27.025,12.842-37.045,21.248l44.714,25.816l88.713-51.219l-47.83-27.614
		C381.94,164.715,358.742,168.977,336.021,181.28z"/>
	<g>
		<polygon fill="#231F20" points="360.458,83.601 354.754,80.307 341.34,88.051 347.045,91.345 		"/>
		<polygon fill="#231F20" points="407.427,110.718 401.718,107.422 388.305,115.166 394.014,118.461 		"/>
		<path fill="#231F20" d="M370.813,148.373l1.086-4.25c-0.898-0.092-5.485-1.004-8.686-1.84c-5.745-1.486-14-3.949-24.532-8.984
			c5.382-2.855,11.439-5.451,18.301-7.836l4.056-1.41l-20.482-11.824c10.991-5.449,23.792-9.837,38.11-13.052
			c14.479-3.254,30.632-5.344,48.014-6.213l-0.689-4.28c-18.084,0.905-34.928,3.087-50.058,6.488
			c-16.455,3.696-31.029,8.866-43.322,15.366l-2.854,1.512l19.358,11.175c-5.878,2.213-11.228,4.621-16.074,7.236
			c-1.46-0.77-2.959-1.586-4.491-2.459l-0.095-0.055c-15.164-8.922-21.379-15.691-24.735-20.019
			c-1.412-1.794-3.022-4.495-3.184-5.011l0.001,0.007l-7.356,0.637c0.314,1.158,2.497,4.512,3.755,6.116
			c3.591,4.619,10.217,11.854,26.235,21.275l0.155,0.096l0.015,0.004c1.348,0.764,2.83,1.586,4.448,2.445
			c-10.43,6.471-18.114,14.086-23.236,22.982l7.062,1.379c3.962-6.879,9.367-12.766,16.512-18c1.664-1.215,3.417-2.387,5.252-3.521
			c7.096,3.426,16.042,7.072,26.816,9.861C363.086,146.953,368.817,148.195,370.813,148.373z"/>
	</g>
	<g>
		<path fill="#586E75" d="M587.789,105.038c-0.59,0-1.063-0.467-1.063-1.034c0-0.566,0.473-1.033,1.064-1.033
			s1.065,0.467,1.065,1.033C588.855,104.57,588.382,105.038,587.789,105.038z M587.789,110.787c-0.59,0-1.063-0.466-1.063-1.034
			c0-0.566,0.473-1.033,1.064-1.033s1.065,0.467,1.065,1.034S588.382,110.787,587.789,110.787z"/>
		<path fill="#586E75" d="M595.089,98.604c0.03,0.108-0.067,0.178-0.098,0.202c-0.085,0.067-0.104,0.106-0.104,0.202v4.615
			c0.521-0.904,1.487-1.461,2.535-1.461c1.617,0,3.308,1.335,3.308,4.209c0,2.984-1.752,4.417-3.438,4.417
			c-0.987,0-1.895-0.488-2.436-1.291l-0.45,1.088h-0.839v-11.98H595.089z M595.102,104.478c-0.187,0.453-0.215,0.982-0.215,1.726
			c0,0.712-0.006,1.196,0.051,1.625c0.207,1.568,1.449,1.793,2.012,1.793c0.805,0,2.432-0.46,2.432-2.979
			c0-2.904-1.638-3.367-2.41-3.367C596.156,103.275,595.408,103.736,595.102,104.478z"/>
		<path fill="#586E75" d="M609.408,105.082c0.081,0.478,0.107,1.006,0.057,1.571h-5.838c0.099,2.463,1.691,3.07,2.792,3.07
			c0.817,0,1.594-0.325,2.13-0.926l0.715,0.699c-0.705,0.847-1.771,1.276-2.945,1.276c-2.234,0-3.949-1.466-3.949-4.207
			c0-3.003,1.817-4.408,3.781-4.408C607.5,102.158,609.035,102.874,609.408,105.082z M608.191,105.658
			c0.154-1.334-0.797-2.504-2.131-2.504c-0.883,0-2.135,0.564-2.391,2.504H608.191z"/>
		<path fill="#586E75" d="M619.195,99.629l-0.59,1.196c-0.056,0.006-0.137-0.027-0.146-0.15c-0.006-0.077,0.008-0.126-0.049-0.214
			c-0.347-0.523-1.006-0.941-1.798-0.941c-0.681,0-1.315,0.303-1.654,0.911c-0.308,0.551-0.3,1.181-0.3,1.777v0.637h2.688v1.025
			h-2.688v6.713h-1.242v-6.713h-1.787v-1.025h1.787v-0.808c0-0.73,0.029-1.416,0.451-2.101c0.574-0.935,1.656-1.433,2.812-1.433
			C617.713,98.503,618.607,98.921,619.195,99.629z"/>
		<path fill="#586E75" d="M624.078,110.802c-2.074,0-3.855-1.764-3.855-4.267c0-2.542,1.797-4.357,3.894-4.357
			c1.869,0,3.661,1.49,3.661,4.331C627.777,109.235,626.025,110.802,624.078,110.802z M621.592,106.423
			c0,2.029,1.186,3.26,2.496,3.26c1.2,0,2.386-1.05,2.386-3.121c0-2.259-1.259-3.283-2.446-3.283
			C622.77,103.279,621.592,104.406,621.592,106.423z"/>
		<path fill="#586E75" d="M631.633,102.364l-0.047,1.585c0.539-1.176,1.759-1.784,2.961-1.784c0.924,0,1.681,0.368,2.198,0.898
			l-0.606,1.243c-0.138-0.132-0.197-0.274-0.305-0.413c-0.23-0.295-0.666-0.616-1.358-0.616c-0.581,0-1.563,0.205-2.312,1.386
			c-0.559,0.884-0.578,1.43-0.578,1.926v4.009h-1.305v-8.235H631.633z"/>
		<path fill="#586E75" d="M645.408,105.082c0.081,0.478,0.107,1.006,0.057,1.571h-5.838c0.099,2.463,1.691,3.07,2.792,3.07
			c0.817,0,1.594-0.325,2.13-0.926l0.715,0.699c-0.705,0.847-1.771,1.276-2.945,1.276c-2.234,0-3.949-1.466-3.949-4.207
			c0-3.003,1.817-4.408,3.781-4.408C643.5,102.158,645.035,102.874,645.408,105.082z M644.191,105.658
			c0.154-1.334-0.797-2.504-2.131-2.504c-0.883,0-2.135,0.564-2.391,2.504H644.191z"/>
	</g>
	<g>
		<path fill="#586E75" d="M587.789,265.045c-0.59,0-1.063-0.467-1.063-1.034c0-0.566,0.473-1.033,1.064-1.033
			s1.065,0.467,1.065,1.033C588.855,264.578,588.382,265.045,587.789,265.045z M587.789,270.794c-0.59,0-1.063-0.466-1.063-1.034
			c0-0.566,0.473-1.033,1.064-1.033s1.065,0.467,1.065,1.033C588.855,270.327,588.382,270.794,587.789,270.794z"/>
		<path fill="#586E75" d="M597.062,262.184c1.276,0,2.32,0.468,2.86,1.367c0.379,0.633,0.404,1.27,0.404,1.943v5.098h-1.229v-0.902
			c-0.896,0.736-1.943,1.104-2.953,1.104c-1.719,0-2.768-1.121-2.768-2.328c0-0.912,0.589-1.873,1.887-2.35
			c1.046-0.385,2.344-0.372,3.555-0.372h0.264v-0.295c0-0.437,0.007-0.966-0.268-1.415c-0.232-0.382-0.715-0.792-1.691-0.792
			c-0.76,0-1.687,0.212-2.36,0.917l-0.638-0.823C594.895,262.541,595.951,262.184,597.062,262.184z M598.834,266.738
			c-0.855,0-1.956-0.055-2.703,0.124c-1.031,0.246-1.451,0.918-1.451,1.516c0,0.735,0.638,1.424,1.729,1.424
			c1.077,0,1.863-0.653,2.162-0.971c0.555-0.59,0.559-1.124,0.559-1.55v-0.543H598.834z"/>
		<path fill="#586E75" d="M610.195,259.637l-0.59,1.196c-0.056,0.006-0.137-0.026-0.146-0.149c-0.006-0.078,0.008-0.127-0.049-0.215
			c-0.347-0.522-1.006-0.941-1.798-0.941c-0.681,0-1.315,0.304-1.654,0.912c-0.308,0.551-0.3,1.181-0.3,1.776v0.638h2.688v1.025
			h-2.688v6.713h-1.242v-6.713h-1.787v-1.025h1.787v-0.809c0-0.73,0.029-1.416,0.451-2.102c0.574-0.935,1.656-1.433,2.812-1.433
			C608.713,258.511,609.607,258.928,610.195,259.637z"/>
		<path fill="#586E75" d="M615.295,259.932c0.064,0.183-0.065,0.294-0.102,0.486c-0.084,0.456-0.209,1.938-0.209,1.938h2.688v1.072
			h-2.704c-0.104,1.07-0.156,2.144-0.156,3.219c0,1.192,0.044,1.509,0.054,1.581c0.132,0.987,0.771,1.327,1.384,1.327
			c0.507,0,1.145-0.231,1.843-0.75l0.403,1.025c-0.695,0.51-1.649,0.918-2.629,0.918c-0.84,0-1.482-0.326-1.873-0.875
			c-0.479-0.676-0.485-1.502-0.485-2.24c0-1.396,0.056-2.797,0.171-4.205h-1.927l0.015-1.057h1.959l0.154-2.206L615.295,259.932z"/>
		<path fill="#586E75" d="M627.408,265.089c0.081,0.478,0.107,1.006,0.057,1.571h-5.838c0.099,2.463,1.691,3.07,2.792,3.07
			c0.817,0,1.594-0.326,2.13-0.926l0.715,0.699c-0.705,0.846-1.771,1.275-2.945,1.275c-2.234,0-3.949-1.466-3.949-4.207
			c0-3.002,1.817-4.407,3.781-4.407C625.5,262.165,627.035,262.881,627.408,265.089z M626.191,265.666
			c0.154-1.334-0.797-2.505-2.131-2.505c-0.883,0-2.135,0.564-2.391,2.505H626.191z"/>
		<path fill="#586E75" d="M631.633,262.371l-0.047,1.586c0.539-1.177,1.759-1.785,2.961-1.785c0.924,0,1.681,0.369,2.198,0.898
			l-0.606,1.243c-0.138-0.132-0.197-0.274-0.305-0.413c-0.23-0.295-0.666-0.615-1.358-0.615c-0.581,0-1.563,0.205-2.312,1.387
			c-0.559,0.884-0.578,1.43-0.578,1.926v4.01h-1.305v-8.236H631.633z"/>
	</g>
	<g>
		<rect x="486.359" y="105.916" fill="#586E75" width="2" height="2"/>
		<path fill="#586E75" d="M566.183,107.916h-3.892v-2h3.892V107.916z M558.4,107.916h-3.892v-2h3.892V107.916z M550.618,107.916
			h-3.892v-2h3.892V107.916z M542.836,107.916h-3.892v-2h3.892V107.916z M535.054,107.916h-3.892v-2h3.892V107.916z
			 M527.271,107.916h-3.892v-2h3.892V107.916z M519.489,107.916h-3.892v-2h3.892V107.916z M511.707,107.916h-3.892v-2h3.892V107.916
			z M503.925,107.916h-3.892v-2h3.892V107.916z M496.143,107.916h-3.892v-2h3.892V107.916z"/>
		<rect x="570.073" y="105.916" fill="#586E75" width="2" height="2"/>
	</g>
	<g>
		<rect x="486.359" y="265.916" fill="#586E75" width="2" height="2"/>
		<path fill="#586E75" d="M566.183,267.916h-3.892v-2h3.892V267.916z M558.4,267.916h-3.892v-2h3.892V267.916z M550.618,267.916
			h-3.892v-2h3.892V267.916z M542.836,267.916h-3.892v-2h3.892V267.916z M535.054,267.916h-3.892v-2h3.892V267.916z
			 M527.271,267.916h-3.892v-2h3.892V267.916z M519.489,267.916h-3.892v-2h3.892V267.916z M511.707,267.916h-3.892v-2h3.892V267.916
			z M503.925,267.916h-3.892v-2h3.892V267.916z M496.143,267.916h-3.892v-2h3.892V267.916z"/>
		<rect x="570.073" y="265.916" fill="#586E75" width="2" height="2"/>
	</g>
</g>
<rect x="-874.604" y="298.958" fill-rule="evenodd" clip-rule="evenodd" fill="#73A1D0" width="54.209" height="44.084"/>
<path fill-rule="evenodd" clip-rule="evenodd" fill="#D1DEF0" d="M-790.278,324.628h10.212c-1.578,6.148-1.185,12.284-0.06,18.414
	h22.161V298.8h-23.705C-786.009,306.023-789.928,313.647-790.278,324.628z"/>
<g>
	<rect x="-736.601" y="305.557" fill="#231F20" width="2.828" height="6.688"/>
	<rect x="-713.323" y="305.557" fill="#231F20" width="2.828" height="6.688"/>
	<path fill="#231F20" d="M-703.406,330.948l-1.553-2.105c-0.264,0.184-1.79,0.934-2.942,1.371c-2.062,0.79-5.166,1.785-9.935,2.236
		c0.107-2.574,0.494-5.206,1.17-7.946l0.399-1.621h-10.149c0.384-5.095,1.674-10.181,3.842-15.141
		c2.191-5.015,5.297-9.945,9.23-14.655l-2.008-1.677c-4.092,4.9-7.329,10.043-9.619,15.284c-2.491,5.699-3.884,11.566-4.14,17.439
		l-0.06,1.364h9.595c-0.507,2.422-0.799,4.797-0.877,7.134c-0.693,0.031-1.415,0.052-2.169,0.059h-0.047
		c-7.588-0.072-12.033-1.448-14.723-2.479c-1.118-0.423-2.678-1.188-2.939-1.371l0.005,0.004l-1.551,2.106
		c0.575,0.424,2.557,1.328,3.555,1.706c2.874,1.101,7.621,2.573,15.635,2.649h0.077h0.007c0.661-0.006,1.383-0.021,2.151-0.053
		c0.193,5.395,1.559,10.599,4.107,15.72l2.342-1.166c-1.971-3.959-3.159-7.849-3.634-11.892c-0.11-0.939-0.18-1.882-0.212-2.831
		c3.229-0.289,7.013-0.945,10.879-2.427C-705.93,332.263-703.976,331.371-703.406,330.948z"/>
</g>
</svg>
