<?xml version="1.0" encoding="utf-8"?>
<!-- Generator: Adobe Illustrator 16.0.4, SVG Export Plug-In . SVG Version: 6.00 Build 0)  -->
<!DOCTYPE svg PUBLIC "-//W3C//DTD SVG 1.1//EN" "http://www.w3.org/Graphics/SVG/1.1/DTD/svg11.dtd">
<svg version="1.1" id="Layer_1" xmlns="http://www.w3.org/2000/svg" xmlns:xlink="http://www.w3.org/1999/xlink" x="0px" y="0px"
	 width="24px" height="24px" viewBox="0 0 24 24" enable-background="new 0 0 24 24" xml:space="preserve">
<path fill="#FFFFFF" d="M23.904,0.096C23.846,0.036,23.764,0.001,23.677,0H11.853c-0.085,0-0.167,0.034-0.229,0.095
	c-0.06,0.06-0.094,0.142-0.095,0.229v2.81c-0.001,0.179,0.145,0.325,0.324,0.324h8.69v8.725c0,0.178,0.145,0.322,0.322,0.323
	l2.811,0.001c0.17-0.002,0.322-0.153,0.323-0.323L24,0.324C24.001,0.238,23.966,0.156,23.904,0.096z"/>
<path fill="#FFFFFF" d="M12.148,20.542l-8.69-0.001v-8.725c0-0.178-0.144-0.322-0.322-0.322l-2.811-0.002
	c-0.17,0.002-0.322,0.154-0.322,0.324L0,23.676c0,0.086,0.035,0.168,0.096,0.229c0.059,0.06,0.141,0.095,0.227,0.096h11.825
	c0.085-0.001,0.167-0.034,0.229-0.096c0.06-0.062,0.094-0.144,0.095-0.229v-2.81C12.472,20.688,12.327,20.541,12.148,20.542z"/>
<path fill="#FFFFFF" d="M14.158,14.146c0,0.05-0.039,0.089-0.087,0.089H9.929c-0.048,0-0.088-0.039-0.088-0.089v-4.141
	c0-0.048,0.04-0.088,0.088-0.088h4.142c0.048,0,0.087,0.04,0.087,0.088V14.146z"/>
</svg>
