<?xml version="1.0" encoding="utf-8"?>
<!-- Generator: Adobe Illustrator 16.0.4, SVG Export Plug-In . SVG Version: 6.00 Build 0)  -->
<!DOCTYPE svg PUBLIC "-//W3C//DTD SVG 1.1//EN" "http://www.w3.org/Graphics/SVG/1.1/DTD/svg11.dtd">
<svg version="1.1" id="Layer_1" xmlns="http://www.w3.org/2000/svg" xmlns:xlink="http://www.w3.org/1999/xlink" x="0px" y="0px"
	 width="1132px" height="400px" viewBox="-80.5 0 1132 400" enable-background="new -80.5 0 1132 400" xml:space="preserve">
<rect x="-81.113" y="-0.232" fill="#F1F2F2" width="1133.226" height="400.232"/>
<g>
	<polygon fill="#73A1D0" points="399.393,319.693 290.009,256.541 378.402,205.508 487.785,268.66 	"/>
	<path fill="#D1DEF0" d="M371.521,181.28l20.606,11.896c-15.516,5.281-27.025,12.842-37.045,21.248l44.714,25.816l88.713-51.219
		l-47.831-27.614C417.44,164.715,394.243,168.977,371.521,181.28z"/>
	<g>
		<polygon fill="#231F20" points="395.958,83.601 390.254,80.307 376.84,88.051 382.545,91.345 		"/>
		<polygon fill="#231F20" points="442.927,110.718 437.218,107.422 423.806,115.166 429.515,118.461 		"/>
		<path fill="#231F20" d="M406.313,148.373l1.086-4.25c-0.898-0.092-5.485-1.004-8.686-1.84c-5.745-1.486-14-3.949-24.532-8.984
			c5.382-2.855,11.439-5.451,18.301-7.836l4.056-1.41l-20.482-11.824c10.991-5.449,23.792-9.837,38.11-13.052
			c14.479-3.254,30.632-5.344,48.013-6.213l-0.688-4.28c-18.083,0.905-34.928,3.087-50.058,6.488
			c-16.455,3.696-31.029,8.866-43.322,15.366l-2.854,1.512l19.358,11.175c-5.878,2.213-11.228,4.621-16.074,7.236
			c-1.46-0.77-2.959-1.586-4.491-2.459l-0.095-0.055c-15.164-8.922-21.379-15.691-24.735-20.019
			c-1.412-1.794-3.022-4.495-3.184-5.011l0.001,0.007l-7.356,0.637c0.314,1.158,2.497,4.512,3.755,6.116
			c3.591,4.619,10.217,11.854,26.235,21.275l0.155,0.096l0.015,0.004c1.348,0.764,2.83,1.586,4.448,2.445
			c-10.43,6.471-18.114,14.086-23.236,22.982l7.062,1.379c3.962-6.879,9.367-12.766,16.512-18c1.664-1.215,3.417-2.387,5.252-3.521
			c7.096,3.426,16.042,7.072,26.816,9.861C398.586,146.953,404.317,148.195,406.313,148.373z"/>
	</g>
	<g>
		<path fill="#586E75" d="M623.289,105.038c-0.59,0-1.062-0.467-1.062-1.034c0-0.566,0.473-1.033,1.064-1.033
			c0.59,0,1.064,0.467,1.064,1.033S623.883,105.038,623.289,105.038z M623.289,110.787c-0.59,0-1.062-0.466-1.062-1.034
			c0-0.566,0.473-1.033,1.064-1.033c0.59,0,1.064,0.467,1.064,1.034S623.883,110.787,623.289,110.787z"/>
		<path fill="#586E75" d="M630.59,98.604c0.029,0.108-0.068,0.178-0.098,0.202c-0.086,0.067-0.105,0.106-0.105,0.202v4.615
			c0.521-0.904,1.488-1.461,2.535-1.461c1.617,0,3.309,1.335,3.309,4.209c0,2.984-1.752,4.417-3.438,4.417
			c-0.988,0-1.896-0.488-2.438-1.291l-0.449,1.088h-0.838v-11.98L630.59,98.604L630.59,98.604z M630.602,104.478
			c-0.186,0.453-0.215,0.982-0.215,1.726c0,0.712-0.006,1.196,0.051,1.625c0.207,1.568,1.449,1.793,2.014,1.793
			c0.805,0,2.432-0.46,2.432-2.979c0-2.904-1.639-3.367-2.41-3.367C631.656,103.275,630.908,103.736,630.602,104.478z"/>
		<path fill="#586E75" d="M644.908,105.082c0.082,0.478,0.107,1.006,0.057,1.571h-5.838c0.1,2.463,1.691,3.07,2.793,3.07
			c0.816,0,1.594-0.325,2.129-0.926l0.715,0.699c-0.705,0.847-1.77,1.276-2.943,1.276c-2.234,0-3.949-1.466-3.949-4.207
			c0-3.003,1.816-4.408,3.781-4.408C643,102.158,644.535,102.874,644.908,105.082z M643.691,105.658
			c0.154-1.334-0.797-2.504-2.131-2.504c-0.883,0-2.135,0.564-2.391,2.504H643.691z"/>
		<path fill="#586E75" d="M654.695,99.629l-0.59,1.196c-0.057,0.006-0.137-0.027-0.146-0.15c-0.006-0.077,0.008-0.126-0.049-0.214
			c-0.348-0.523-1.006-0.941-1.797-0.941c-0.682,0-1.316,0.303-1.654,0.911c-0.309,0.551-0.301,1.181-0.301,1.777v0.637h2.688v1.025
			h-2.688v6.713h-1.242v-6.713h-1.787v-1.025h1.787v-0.808c0-0.73,0.029-1.416,0.451-2.101c0.574-0.935,1.656-1.433,2.812-1.433
			C653.213,98.503,654.107,98.921,654.695,99.629z"/>
		<path fill="#586E75" d="M659.578,110.802c-2.074,0-3.855-1.764-3.855-4.267c0-2.542,1.797-4.357,3.895-4.357
			c1.869,0,3.662,1.49,3.662,4.331C663.277,109.235,661.525,110.802,659.578,110.802z M657.092,106.423
			c0,2.029,1.188,3.26,2.496,3.26c1.201,0,2.387-1.05,2.387-3.121c0-2.259-1.26-3.283-2.445-3.283
			C658.27,103.279,657.092,104.406,657.092,106.423z"/>
		<path fill="#586E75" d="M667.133,102.364l-0.047,1.585c0.539-1.176,1.76-1.784,2.961-1.784c0.924,0,1.682,0.368,2.199,0.898
			l-0.607,1.243c-0.137-0.132-0.195-0.274-0.305-0.413c-0.23-0.295-0.666-0.616-1.357-0.616c-0.582,0-1.562,0.205-2.312,1.386
			c-0.559,0.884-0.578,1.43-0.578,1.926v4.009h-1.305v-8.235h1.352V102.364z"/>
		<path fill="#586E75" d="M680.908,105.082c0.082,0.478,0.107,1.006,0.057,1.571h-5.838c0.1,2.463,1.691,3.07,2.793,3.07
			c0.816,0,1.594-0.325,2.129-0.926l0.715,0.699c-0.705,0.847-1.77,1.276-2.943,1.276c-2.234,0-3.949-1.466-3.949-4.207
			c0-3.003,1.816-4.408,3.781-4.408C679,102.158,680.535,102.874,680.908,105.082z M679.691,105.658
			c0.154-1.334-0.797-2.504-2.131-2.504c-0.883,0-2.135,0.564-2.391,2.504H679.691z"/>
	</g>
	<g>
		<path fill="#586E75" d="M623.289,265.045c-0.59,0-1.062-0.467-1.062-1.033s0.473-1.033,1.064-1.033
			c0.59,0,1.064,0.467,1.064,1.033S623.883,265.045,623.289,265.045z M623.289,270.794c-0.59,0-1.062-0.466-1.062-1.034
			c0-0.566,0.473-1.033,1.064-1.033c0.59,0,1.064,0.467,1.064,1.033C624.355,270.327,623.883,270.794,623.289,270.794z"/>
		<path fill="#586E75" d="M632.562,262.184c1.275,0,2.32,0.469,2.859,1.367c0.379,0.633,0.404,1.27,0.404,1.943v5.098h-1.229v-0.902
			c-0.896,0.736-1.943,1.104-2.953,1.104c-1.719,0-2.768-1.121-2.768-2.328c0-0.911,0.588-1.873,1.887-2.35
			c1.045-0.386,2.344-0.372,3.555-0.372h0.264v-0.295c0-0.438,0.008-0.967-0.268-1.415c-0.232-0.382-0.715-0.792-1.691-0.792
			c-0.76,0-1.688,0.212-2.359,0.917l-0.639-0.823C630.395,262.541,631.451,262.184,632.562,262.184z M634.334,266.738
			c-0.855,0-1.955-0.055-2.703,0.123c-1.031,0.246-1.451,0.918-1.451,1.517c0,0.735,0.639,1.424,1.73,1.424
			c1.076,0,1.861-0.653,2.162-0.971c0.555-0.59,0.559-1.124,0.559-1.55v-0.543H634.334z"/>
		<path fill="#586E75" d="M645.695,259.637l-0.59,1.196c-0.057,0.006-0.137-0.026-0.146-0.149c-0.006-0.078,0.008-0.127-0.049-0.215
			c-0.348-0.521-1.006-0.941-1.797-0.941c-0.682,0-1.316,0.305-1.654,0.912c-0.309,0.552-0.301,1.182-0.301,1.776v0.638h2.688v1.025
			h-2.688v6.713h-1.242v-6.713h-1.787v-1.025h1.787v-0.809c0-0.73,0.029-1.416,0.451-2.102c0.574-0.936,1.656-1.434,2.812-1.434
			C644.213,258.511,645.107,258.928,645.695,259.637z"/>
		<path fill="#586E75" d="M650.795,259.932c0.064,0.184-0.064,0.295-0.102,0.486c-0.084,0.456-0.209,1.938-0.209,1.938h2.688v1.072
			h-2.703c-0.104,1.07-0.156,2.145-0.156,3.219c0,1.192,0.045,1.51,0.055,1.582c0.131,0.986,0.77,1.326,1.383,1.326
			c0.508,0,1.145-0.23,1.844-0.75l0.402,1.025c-0.695,0.51-1.648,0.918-2.629,0.918c-0.84,0-1.482-0.326-1.873-0.875
			c-0.479-0.676-0.484-1.502-0.484-2.24c0-1.396,0.057-2.797,0.17-4.205h-1.926l0.014-1.057h1.959l0.154-2.206L650.795,259.932z"/>
		<path fill="#586E75" d="M662.908,265.089c0.082,0.478,0.107,1.007,0.057,1.571h-5.838c0.1,2.463,1.691,3.07,2.793,3.07
			c0.816,0,1.594-0.326,2.129-0.926l0.715,0.698c-0.705,0.847-1.77,1.274-2.943,1.274c-2.234,0-3.949-1.465-3.949-4.207
			c0-3.002,1.816-4.406,3.781-4.406C661,262.165,662.535,262.881,662.908,265.089z M661.691,265.666
			c0.154-1.334-0.797-2.505-2.131-2.505c-0.883,0-2.135,0.563-2.391,2.505H661.691z"/>
		<path fill="#586E75" d="M667.133,262.371l-0.047,1.586c0.539-1.178,1.76-1.785,2.961-1.785c0.924,0,1.682,0.369,2.199,0.898
			l-0.607,1.242c-0.137-0.131-0.195-0.273-0.305-0.412c-0.23-0.295-0.666-0.615-1.357-0.615c-0.582,0-1.562,0.205-2.312,1.387
			c-0.559,0.885-0.578,1.43-0.578,1.926v4.01h-1.305v-8.235L667.133,262.371L667.133,262.371z"/>
	</g>
	<g>
		<rect x="521.859" y="105.916" fill="#586E75" width="2" height="2"/>
		<path fill="#586E75" d="M601.684,107.916h-3.893v-2h3.893V107.916z M593.9,107.916h-3.893v-2h3.893V107.916z M586.119,107.916
			h-3.893v-2h3.893V107.916z M578.336,107.916h-3.891v-2h3.891V107.916z M570.555,107.916h-3.893v-2h3.893V107.916z
			 M562.771,107.916h-3.893v-2h3.893V107.916z M554.99,107.916h-3.893v-2h3.893V107.916z M547.207,107.916h-3.891v-2h3.891V107.916z
			 M539.426,107.916h-3.893v-2h3.893V107.916z M531.643,107.916h-3.891v-2h3.891V107.916z"/>
		<rect x="605.574" y="105.916" fill="#586E75" width="2" height="2"/>
	</g>
	<g>
		<rect x="521.859" y="265.916" fill="#586E75" width="2" height="2"/>
		<path fill="#586E75" d="M601.684,267.916h-3.893v-2h3.893V267.916z M593.9,267.916h-3.893v-2h3.893V267.916z M586.119,267.916
			h-3.893v-2h3.893V267.916z M578.336,267.916h-3.891v-2h3.891V267.916z M570.555,267.916h-3.893v-2h3.893V267.916z
			 M562.771,267.916h-3.893v-2h3.893V267.916z M554.99,267.916h-3.893v-2h3.893V267.916z M547.207,267.916h-3.891v-2h3.891V267.916z
			 M539.426,267.916h-3.893v-2h3.893V267.916z M531.643,267.916h-3.891v-2h3.891V267.916z"/>
		<rect x="605.574" y="265.916" fill="#586E75" width="2" height="2"/>
	</g>
</g>
<rect x="-874.604" y="298.958" fill="#73A1D0" width="54.209" height="44.084"/>
<path fill="#D1DEF0" d="M-790.278,324.628h10.212c-1.578,6.148-1.185,12.284-0.06,18.414h22.161V298.8h-23.705
	C-786.009,306.023-789.928,313.647-790.278,324.628z"/>
<g>
	<rect x="-736.601" y="305.557" fill="#231F20" width="2.828" height="6.688"/>
	<rect x="-713.323" y="305.557" fill="#231F20" width="2.828" height="6.688"/>
	<path fill="#231F20" d="M-703.406,330.948l-1.553-2.105c-0.264,0.185-1.79,0.935-2.942,1.371c-2.062,0.79-5.166,1.785-9.935,2.236
		c0.107-2.574,0.494-5.206,1.17-7.946l0.399-1.621h-10.149c0.384-5.095,1.674-10.181,3.842-15.141
		c2.191-5.016,5.297-9.945,9.23-14.655l-2.008-1.677c-4.092,4.9-7.329,10.043-9.619,15.284c-2.491,5.698-3.884,11.565-4.14,17.438
		l-0.06,1.364h9.595c-0.507,2.422-0.799,4.797-0.877,7.134c-0.693,0.031-1.415,0.052-2.169,0.06h-0.047
		c-7.588-0.072-12.033-1.448-14.723-2.479c-1.118-0.423-2.678-1.188-2.939-1.371l0.005,0.004l-1.551,2.106
		c0.575,0.424,2.557,1.328,3.555,1.706c2.874,1.101,7.621,2.572,15.635,2.648h0.077h0.007c0.661-0.006,1.383-0.021,2.151-0.053
		c0.193,5.395,1.559,10.599,4.107,15.72l2.342-1.166c-1.971-3.959-3.159-7.849-3.634-11.892c-0.11-0.939-0.18-1.882-0.212-2.831
		c3.229-0.289,7.013-0.945,10.879-2.427C-705.93,332.263-703.976,331.371-703.406,330.948z"/>
</g>
</svg>
