<?xml version="1.0" encoding="utf-8"?>
<!-- Generator: Adobe Illustrator 16.0.4, SVG Export Plug-In . SVG Version: 6.00 Build 0)  -->
<!DOCTYPE svg PUBLIC "-//W3C//DTD SVG 1.1//EN" "http://www.w3.org/Graphics/SVG/1.1/DTD/svg11.dtd">
<svg version="1.1" id="Layer_1" xmlns="http://www.w3.org/2000/svg" xmlns:xlink="http://www.w3.org/1999/xlink" x="0px" y="0px"
	 width="512px" height="512px" viewBox="0 0 512 512" enable-background="new 0 0 512 512" xml:space="preserve">
<path fill="#7A7A7A" d="M506.816,204.464c-3.376-16.432-8.4-32.64-14.944-48.112c-6.4-15.184-14.353-29.808-23.616-43.488
	c-9.152-13.552-19.664-26.288-31.231-37.856c-11.601-11.6-24.336-22.112-37.872-31.248c-13.68-9.264-28.336-17.2-43.504-23.616
	c-15.473-6.512-31.664-11.584-48.112-14.928C290.688,1.76,273.344,0,256,0s-34.688,1.76-51.568,5.216
	c-16.432,3.344-32.624,8.4-48.096,14.928c-15.168,6.416-29.808,14.352-43.488,23.616c-13.552,9.136-26.304,19.648-37.872,31.248
	c-11.584,11.568-22.08,24.304-31.232,37.856c-9.264,13.664-17.2,28.288-23.616,43.472c-6.544,15.472-11.568,31.68-14.944,48.112
	C1.744,221.296,0,238.656,0,255.968c0,17.392,1.744,34.753,5.184,51.601c3.376,16.416,8.384,32.624,14.944,48.08
	c6.416,15.168,14.352,29.84,23.616,43.52c9.152,13.552,19.664,26.272,31.232,37.856c11.584,11.567,24.336,22.063,37.872,31.216
	c13.68,9.248,28.336,17.2,43.504,23.616c15.472,6.56,31.664,11.552,48.096,14.943c16.864,3.456,34.208,5.2,51.552,5.2
	s34.688-1.744,51.552-5.216c16.448-3.393,32.64-8.368,48.112-14.944c15.168-6.399,29.809-14.352,43.504-23.616
	c13.552-9.151,26.288-19.664,37.872-31.216c11.568-11.6,22.08-24.32,31.231-37.855c9.248-13.664,17.2-28.336,23.616-43.521
	c6.528-15.456,11.568-31.664,14.944-48.08c3.424-16.831,5.168-34.192,5.168-51.584C512,238.656,510.256,221.296,506.816,204.464z
	 M474.56,253.808c-3.151-0.688-77.151-16.592-152.288-7.152c-1.535-3.744-3.088-7.504-4.72-11.28
	c-4.528-10.72-9.44-21.312-14.528-31.728c86.336-35.232,121.408-85.92,121.809-86.528
	C455.52,154.368,474.064,201.936,474.56,253.808z M400.4,91.936c-0.528,0.864-31.68,48.24-114.209,79.152
	c-37.375-68.672-78.432-123.2-81.728-127.536c16.528-4.016,33.792-6.176,51.536-6.176C311.359,37.376,361.872,58,400.4,91.936z
	 M203.648,43.728c-0.016,0.032-0.048,0.048-0.048,0.048s-0.256,0.064-0.656,0.144C203.152,43.856,203.408,43.808,203.648,43.728z
	 M162.72,58.272c2.912,3.904,43.344,58.704,81.184,125.968c-104.976,27.888-196.08,26.8-201.856,26.688
	C56.256,143.216,101.744,87.088,162.72,58.272z M37.376,255.968c0-2.32,0.096-4.592,0.192-6.896
	c3.84,0.08,111.872,2.528,224.432-31.152c6.288,12.256,12.271,24.72,17.744,37.168c-2.912,0.816-5.744,1.664-8.624,2.607
	C153.136,295.824,93.296,401.984,93.296,401.984s0.08,0.063,0.096,0.096C58.576,363.36,37.376,312.16,37.376,255.968z M256,474.608
	c-52.912,0-101.44-18.816-139.264-50.097c2.896,2.336,4.896,3.824,4.896,3.824s41.904-91.408,171.601-136.561
	c0.463-0.191,0.959-0.319,1.439-0.463c30.768,79.92,43.473,146.896,46.704,165.983C315.12,468.432,286.288,474.608,256,474.608z
	 M378.176,437.328c-2.24-13.216-13.871-77.376-42.544-156.176c70.576-11.28,131.729,8.08,136.256,9.568
	C462.145,351.616,427.264,404.176,378.176,437.328z"/>
</svg>
