<?xml version="1.0" encoding="utf-8"?>
<!-- Generator: Adobe Illustrator 16.0.4, SVG Export Plug-In . SVG Version: 6.00 Build 0)  -->
<!DOCTYPE svg PUBLIC "-//W3C//DTD SVG 1.1//EN" "http://www.w3.org/Graphics/SVG/1.1/DTD/svg11.dtd">
<svg version="1.1" xmlns="http://www.w3.org/2000/svg" xmlns:xlink="http://www.w3.org/1999/xlink" x="0px" y="0px" width="960px"
	 height="400px" viewBox="0 0 960 400" enable-background="new 0 0 960 400" xml:space="preserve">
<g id="Layer_3">
	<rect x="-156.308" y="-54.783" fill="#0E3E49" width="1229.613" height="513.62"/>
</g>
<g id="Layer_2">
	<g>
		<rect x="948" y="-1" fill="#0D3640" width="26" height="48"/>
	</g>
	<g>
		<rect x="911" y="-1" fill="#0D3640" width="26" height="48"/>
	</g>
	<g>
		<rect x="874" y="-1" fill="#0D3640" width="26" height="34"/>
	</g>
	<g>
		<rect x="837" y="-1" fill="#0D3640" width="26" height="48"/>
	</g>
	<g>
		<rect x="800" y="-1" fill="#0D3640" width="26" height="48"/>
	</g>
	<g>
		<rect x="763" y="-1" fill="#0D3640" width="26" height="40"/>
	</g>
	<g>
		<rect x="726" y="-1" fill="#0D3640" width="26" height="48"/>
	</g>
	<g>
		<rect x="689" y="-1" fill="#0D3640" width="26" height="34"/>
	</g>
	<g>
		<rect x="652" y="-1" fill="#0D3640" width="26" height="48"/>
	</g>
	<g>
		<rect x="615" y="-1" fill="#0D3640" width="26" height="48"/>
	</g>
	<g>
		<rect x="578" y="-1" fill="#0D3640" width="26" height="34"/>
	</g>
	<g>
		<rect x="541" y="-1" fill="#0D3640" width="26" height="33"/>
	</g>
	<g>
		<rect x="504" y="-1" fill="#0D3640" width="26" height="40"/>
	</g>
	<g>
		<rect x="467" y="-1" fill="#0D3640" width="26" height="48"/>
	</g>
	<g>
		<rect x="430" y="-1" fill="#0D3640" width="26" height="33"/>
	</g>
	<g>
		<rect x="393" y="-1" fill="#0D3640" width="26" height="48"/>
	</g>
	<g>
		<rect x="356" y="-1" fill="#0D3640" width="26" height="34"/>
	</g>
	<g>
		<rect x="319" y="-1" fill="#0D3640" width="26" height="48"/>
	</g>
	<g>
		<rect x="282" y="-1" fill="#0D3640" width="26" height="40"/>
	</g>
	<g>
		<rect x="245" y="-1" fill="#0D3640" width="26" height="48"/>
	</g>
	<g>
		<rect x="208" y="-1" fill="#0D3640" width="26" height="34"/>
	</g>
	<g>
		<rect x="171" y="-1" fill="#0D3640" width="26" height="33"/>
	</g>
	<g>
		<rect x="134" y="-1" fill="#0D3640" width="26" height="48"/>
	</g>
	<g>
		<rect x="97" y="-1" fill="#0D3640" width="26" height="40"/>
	</g>
	<g>
		<rect x="60" y="-1" fill="#0D3640" width="26" height="48"/>
	</g>
	<g>
		<rect x="23" y="-1" fill="#0D3640" width="26" height="34"/>
	</g>
	<g>
		<rect x="-14" y="-1" fill="#0D3640" width="26" height="48"/>
	</g>
	<g>
		<rect x="944" y="-5" fill="none" stroke="#002B35" stroke-width="3" stroke-miterlimit="10" width="26" height="48"/>
	</g>
	<g>
		<rect x="907" y="-5" fill="none" stroke="#002B35" stroke-width="3" stroke-miterlimit="10" width="26" height="48"/>
	</g>
	<g>
		<rect x="870" y="-5" fill="none" stroke="#002B35" stroke-width="3" stroke-miterlimit="10" width="26" height="34"/>
	</g>
	<g>
		<rect x="833" y="-5" fill="none" stroke="#002B35" stroke-width="3" stroke-miterlimit="10" width="26" height="48"/>
	</g>
	<g>
		<rect x="796" y="-5" fill="none" stroke="#002B35" stroke-width="3" stroke-miterlimit="10" width="26" height="48"/>
	</g>
	<g>
		<rect x="759" y="-5" fill="none" stroke="#002B35" stroke-width="3" stroke-miterlimit="10" width="26" height="40"/>
	</g>
	<g>
		<rect x="722" y="-5" fill="none" stroke="#002B35" stroke-width="3" stroke-miterlimit="10" width="26" height="48"/>
	</g>
	<g>
		<rect x="685" y="-5" fill="none" stroke="#002B35" stroke-width="3" stroke-miterlimit="10" width="26" height="34"/>
	</g>
	<g>
		<rect x="648" y="-5" fill="none" stroke="#002B35" stroke-width="3" stroke-miterlimit="10" width="26" height="48"/>
	</g>
	<g>
		<rect x="611" y="-5" fill="none" stroke="#002B35" stroke-width="3" stroke-miterlimit="10" width="26" height="48"/>
	</g>
	<g>
		<rect x="574" y="-5" fill="none" stroke="#002B35" stroke-width="3" stroke-miterlimit="10" width="26" height="34"/>
	</g>
	<g>
		<rect x="537" y="-5" fill="none" stroke="#002B35" stroke-width="3" stroke-miterlimit="10" width="26" height="33"/>
	</g>
	<g>
		<rect x="500" y="-5" fill="none" stroke="#002B35" stroke-width="3" stroke-miterlimit="10" width="26" height="40"/>
	</g>
	<g>
		<rect x="463" y="-5" fill="none" stroke="#002B35" stroke-width="3" stroke-miterlimit="10" width="26" height="48"/>
	</g>
	<g>
		<rect x="426" y="-5" fill="none" stroke="#002B35" stroke-width="3" stroke-miterlimit="10" width="26" height="33"/>
	</g>
	<g>
		<rect x="389" y="-5" fill="none" stroke="#002B35" stroke-width="3" stroke-miterlimit="10" width="26" height="48"/>
	</g>
	<g>
		<rect x="352" y="-5" fill="none" stroke="#002B35" stroke-width="3" stroke-miterlimit="10" width="26" height="34"/>
	</g>
	<g>
		<rect x="315" y="-5" fill="none" stroke="#002B35" stroke-width="3" stroke-miterlimit="10" width="26" height="48"/>
	</g>
	<g>
		<rect x="278" y="-5" fill="none" stroke="#002B35" stroke-width="3" stroke-miterlimit="10" width="26" height="40"/>
	</g>
	<g>
		<rect x="241" y="-5" fill="none" stroke="#002B35" stroke-width="3" stroke-miterlimit="10" width="26" height="48"/>
	</g>
	<g>
		<rect x="204" y="-5" fill="none" stroke="#002B35" stroke-width="3" stroke-miterlimit="10" width="26" height="34"/>
	</g>
	<g>
		<rect x="167" y="-5" fill="none" stroke="#002B35" stroke-width="3" stroke-miterlimit="10" width="26" height="33"/>
	</g>
	<g>
		<rect x="130" y="-5" fill="none" stroke="#002B35" stroke-width="3" stroke-miterlimit="10" width="26" height="48"/>
	</g>
	<g>
		<rect x="93" y="-5" fill="none" stroke="#002B35" stroke-width="3" stroke-miterlimit="10" width="26" height="40"/>
	</g>
	<g>
		<rect x="56" y="-5" fill="none" stroke="#002B35" stroke-width="3" stroke-miterlimit="10" width="26" height="48"/>
	</g>
	<g>
		<rect x="19" y="-5" fill="none" stroke="#002B35" stroke-width="3" stroke-miterlimit="10" width="26" height="34"/>
	</g>
	<g>
		<rect x="-18" y="-5" fill="none" stroke="#002B35" stroke-width="3" stroke-miterlimit="10" width="26" height="48"/>
	</g>
	<g>
		<rect x="966" y="57" fill="#0D3640" width="26" height="48"/>
	</g>
	<g>
		<rect x="929" y="57" fill="#0D3640" width="26" height="48"/>
	</g>
	<g>
		<rect x="892" y="57" fill="#0D3640" width="26" height="33"/>
	</g>
	<g>
		<rect x="855" y="57" fill="#0D3640" width="26" height="48"/>
	</g>
	<g>
		<rect x="818" y="57" fill="#0D3640" width="26" height="34"/>
	</g>
	<g>
		<rect x="781" y="57" fill="#0D3640" width="26" height="48"/>
	</g>
	<g>
		<rect x="744" y="57" fill="#0D3640" width="26" height="48"/>
	</g>
	<g>
		<rect x="707" y="57" fill="#0D3640" width="26" height="33"/>
	</g>
	<g>
		<rect x="670" y="57" fill="#0D3640" width="26" height="48"/>
	</g>
	<g>
		<rect x="633" y="57" fill="#0D3640" width="26" height="40"/>
	</g>
	<g>
		<rect x="596" y="57" fill="#0D3640" width="26" height="48"/>
	</g>
	<g>
		<rect x="559" y="57" fill="#0D3640" width="26" height="34"/>
	</g>
	<g>
		<rect x="522" y="57" fill="#0D3640" width="26" height="48"/>
	</g>
	<g>
		<rect x="485" y="57" fill="#0D3640" width="26" height="33"/>
	</g>
	<g>
		<rect x="448" y="57" fill="#0D3640" width="26" height="48"/>
	</g>
	<g>
		<rect x="411" y="57" fill="#0D3640" width="26" height="48"/>
	</g>
	<g>
		<rect x="374" y="57" fill="#0D3640" width="26" height="33"/>
	</g>
	<g>
		<rect x="337" y="57" fill="#0D3640" width="26" height="48"/>
	</g>
	<g>
		<rect x="300" y="57" fill="#0D3640" width="26" height="33"/>
	</g>
	<g>
		<rect x="263" y="57" fill="#0D3640" width="26" height="48"/>
	</g>
	<g>
		<rect x="226" y="57" fill="#0D3640" width="26" height="48"/>
	</g>
	<g>
		<rect x="189" y="57" fill="#0D3640" width="26" height="48"/>
	</g>
	<g>
		<rect x="152" y="57" fill="#0D3640" width="26" height="34"/>
	</g>
	<g>
		<rect x="115" y="57" fill="#0D3640" width="26" height="33"/>
	</g>
	<g>
		<rect x="78" y="57" fill="#0D3640" width="26" height="48"/>
	</g>
	<g>
		<rect x="41" y="57" fill="#0D3640" width="26" height="48"/>
	</g>
	<g>
		<rect x="4" y="57" fill="#0D3640" width="26" height="48"/>
	</g>
	<g>
		<rect x="962" y="53" fill="none" stroke="#002B35" stroke-width="3" stroke-miterlimit="10" width="26" height="48"/>
	</g>
	<g>
		<rect x="925" y="53" fill="none" stroke="#002B35" stroke-width="3" stroke-miterlimit="10" width="26" height="48"/>
	</g>
	<g>
		<rect x="888" y="53" fill="none" stroke="#002B35" stroke-width="3" stroke-miterlimit="10" width="26" height="33"/>
	</g>
	<g>
		<rect x="851" y="53" fill="none" stroke="#002B35" stroke-width="3" stroke-miterlimit="10" width="26" height="48"/>
	</g>
	<g>
		<rect x="814" y="53" fill="none" stroke="#002B35" stroke-width="3" stroke-miterlimit="10" width="26" height="34"/>
	</g>
	<g>
		<rect x="777" y="53" fill="none" stroke="#002B35" stroke-width="3" stroke-miterlimit="10" width="26" height="48"/>
	</g>
	<g>
		<rect x="740" y="53" fill="none" stroke="#002B35" stroke-width="3" stroke-miterlimit="10" width="26" height="48"/>
	</g>
	<g>
		<rect x="703" y="53" fill="none" stroke="#002B35" stroke-width="3" stroke-miterlimit="10" width="26" height="33"/>
	</g>
	<g>
		<rect x="666" y="53" fill="none" stroke="#002B35" stroke-width="3" stroke-miterlimit="10" width="26" height="48"/>
	</g>
	<g>
		<rect x="629" y="53" fill="none" stroke="#002B35" stroke-width="3" stroke-miterlimit="10" width="26" height="40"/>
	</g>
	<g>
		<rect x="592" y="53" fill="none" stroke="#002B35" stroke-width="3" stroke-miterlimit="10" width="26" height="48"/>
	</g>
	<g>
		<rect x="555" y="53" fill="none" stroke="#002B35" stroke-width="3" stroke-miterlimit="10" width="26" height="34"/>
	</g>
	<g>
		<rect x="518" y="53" fill="none" stroke="#002B35" stroke-width="3" stroke-miterlimit="10" width="26" height="48"/>
	</g>
	<g>
		<rect x="481" y="53" fill="none" stroke="#002B35" stroke-width="3" stroke-miterlimit="10" width="26" height="33"/>
	</g>
	<g>
		<rect x="444" y="53" fill="none" stroke="#002B35" stroke-width="3" stroke-miterlimit="10" width="26" height="48"/>
	</g>
	<g>
		<rect x="407" y="53" fill="none" stroke="#002B35" stroke-width="3" stroke-miterlimit="10" width="26" height="48"/>
	</g>
	<g>
		<rect x="370" y="53" fill="none" stroke="#002B35" stroke-width="3" stroke-miterlimit="10" width="26" height="33"/>
	</g>
	<g>
		<rect x="333" y="53" fill="none" stroke="#002B35" stroke-width="3" stroke-miterlimit="10" width="26" height="48"/>
	</g>
	<g>
		<rect x="296" y="53" fill="none" stroke="#002B35" stroke-width="3" stroke-miterlimit="10" width="26" height="33"/>
	</g>
	<g>
		<rect x="259" y="53" fill="none" stroke="#002B35" stroke-width="3" stroke-miterlimit="10" width="26" height="48"/>
	</g>
	<g>
		<rect x="222" y="53" fill="none" stroke="#002B35" stroke-width="3" stroke-miterlimit="10" width="26" height="48"/>
	</g>
	<g>
		<rect x="185" y="53" fill="none" stroke="#002B35" stroke-width="3" stroke-miterlimit="10" width="26" height="48"/>
	</g>
	<g>
		<rect x="148" y="53" fill="none" stroke="#002B35" stroke-width="3" stroke-miterlimit="10" width="26" height="34"/>
	</g>
	<g>
		<rect x="111" y="53" fill="none" stroke="#002B35" stroke-width="3" stroke-miterlimit="10" width="26" height="33"/>
	</g>
	<g>
		<rect x="74" y="53" fill="none" stroke="#002B35" stroke-width="3" stroke-miterlimit="10" width="26" height="48"/>
	</g>
	<g>
		<rect x="37" y="53" fill="none" stroke="#002B35" stroke-width="3" stroke-miterlimit="10" width="26" height="48"/>
	</g>
	<g>
		<rect y="53" fill="none" stroke="#002B35" stroke-width="3" stroke-miterlimit="10" width="26" height="48"/>
	</g>
	<g>
		<rect x="948" y="117" fill="#0D3640" width="26" height="48"/>
	</g>
	<g>
		<rect x="911" y="117" fill="#0D3640" width="26" height="34"/>
	</g>
	<g>
		<rect x="874" y="117" fill="#0D3640" width="26" height="48"/>
	</g>
	<g>
		<rect x="837" y="117" fill="#0D3640" width="26" height="48"/>
	</g>
	<g>
		<rect x="800" y="117" fill="#0D3640" width="26" height="48"/>
	</g>
	<g>
		<rect x="763" y="117" fill="#0D3640" width="26" height="48"/>
	</g>
	<g>
		<rect x="726" y="117" fill="#0D3640" width="26" height="48"/>
	</g>
	<g>
		<rect x="689" y="117" fill="#0D3640" width="26" height="48"/>
	</g>
	<g>
		<rect x="652" y="117" fill="#0D3640" width="26" height="34"/>
	</g>
	<g>
		<rect x="615" y="117" fill="#0D3640" width="26" height="33"/>
	</g>
	<g>
		<rect x="578" y="117" fill="#0D3640" width="26" height="48"/>
	</g>
	<g>
		<rect x="541" y="117" fill="#0D3640" width="26" height="33"/>
	</g>
	<g>
		<rect x="504" y="117" fill="#0D3640" width="26" height="48"/>
	</g>
	<g>
		<rect x="467" y="117" fill="#0D3640" width="26" height="48"/>
	</g>
	<g>
		<rect x="430" y="117" fill="#0D3640" width="26" height="34"/>
	</g>
	<g>
		<rect x="393" y="117" fill="#0D3640" width="26" height="48"/>
	</g>
	<g>
		<rect x="356" y="117" fill="#0D3640" width="26" height="40"/>
	</g>
	<g>
		<rect x="319" y="117" fill="#0D3640" width="26" height="48"/>
	</g>
	<g>
		<rect x="282" y="117" fill="#0D3640" width="26" height="48"/>
	</g>
	<g>
		<rect x="245" y="117" fill="#0D3640" width="26" height="34"/>
	</g>
	<g>
		<rect x="208" y="117" fill="#0D3640" width="26" height="48"/>
	</g>
	<g>
		<rect x="171" y="117" fill="#0D3640" width="26" height="40"/>
	</g>
	<g>
		<rect x="134" y="117" fill="#0D3640" width="26" height="48"/>
	</g>
	<g>
		<rect x="97" y="117" fill="#0D3640" width="26" height="48"/>
	</g>
	<g>
		<rect x="60" y="117" fill="#0D3640" width="26" height="34"/>
	</g>
	<g>
		<rect x="23" y="117" fill="#0D3640" width="26" height="48"/>
	</g>
	<g>
		<rect x="-14" y="117" fill="#0D3640" width="26" height="40"/>
	</g>
	<g>
		<rect x="944" y="113" fill="none" stroke="#002B35" stroke-width="3" stroke-miterlimit="10" width="26" height="48"/>
	</g>
	<g>
		<rect x="907" y="113" fill="none" stroke="#002B35" stroke-width="3" stroke-miterlimit="10" width="26" height="34"/>
	</g>
	<g>
		<rect x="870" y="113" fill="none" stroke="#002B35" stroke-width="3" stroke-miterlimit="10" width="26" height="48"/>
	</g>
	<g>
		<rect x="833" y="113" fill="none" stroke="#002B35" stroke-width="3" stroke-miterlimit="10" width="26" height="48"/>
	</g>
	<g>
		<rect x="796" y="113" fill="none" stroke="#002B35" stroke-width="3" stroke-miterlimit="10" width="26" height="48"/>
	</g>
	<g>
		<rect x="759" y="113" fill="none" stroke="#002B35" stroke-width="3" stroke-miterlimit="10" width="26" height="48"/>
	</g>
	<g>
		<rect x="722" y="113" fill="none" stroke="#002B35" stroke-width="3" stroke-miterlimit="10" width="26" height="48"/>
	</g>
	<g>
		<rect x="685" y="113" fill="none" stroke="#002B35" stroke-width="3" stroke-miterlimit="10" width="26" height="48"/>
	</g>
	<g>
		<rect x="648" y="113" fill="none" stroke="#002B35" stroke-width="3" stroke-miterlimit="10" width="26" height="34"/>
	</g>
	<g>
		<rect x="611" y="113" fill="none" stroke="#002B35" stroke-width="3" stroke-miterlimit="10" width="26" height="33"/>
	</g>
	<g>
		<rect x="574" y="113" fill="none" stroke="#002B35" stroke-width="3" stroke-miterlimit="10" width="26" height="48"/>
	</g>
	<g>
		<rect x="537" y="113" fill="none" stroke="#002B35" stroke-width="3" stroke-miterlimit="10" width="26" height="33"/>
	</g>
	<g>
		<rect x="500" y="113" fill="none" stroke="#002B35" stroke-width="3" stroke-miterlimit="10" width="26" height="48"/>
	</g>
	<g>
		<rect x="463" y="113" fill="none" stroke="#002B35" stroke-width="3" stroke-miterlimit="10" width="26" height="48"/>
	</g>
	<g>
		<rect x="426" y="113" fill="none" stroke="#002B35" stroke-width="3" stroke-miterlimit="10" width="26" height="34"/>
	</g>
	<g>
		<rect x="389" y="113" fill="none" stroke="#002B35" stroke-width="3" stroke-miterlimit="10" width="26" height="48"/>
	</g>
	<g>
		<rect x="352" y="113" fill="none" stroke="#002B35" stroke-width="3" stroke-miterlimit="10" width="26" height="40"/>
	</g>
	<g>
		<rect x="315" y="113" fill="none" stroke="#002B35" stroke-width="3" stroke-miterlimit="10" width="26" height="48"/>
	</g>
	<g>
		<rect x="278" y="113" fill="none" stroke="#002B35" stroke-width="3" stroke-miterlimit="10" width="26" height="48"/>
	</g>
	<g>
		<rect x="241" y="113" fill="none" stroke="#002B35" stroke-width="3" stroke-miterlimit="10" width="26" height="34"/>
	</g>
	<g>
		<rect x="204" y="113" fill="none" stroke="#002B35" stroke-width="3" stroke-miterlimit="10" width="26" height="48"/>
	</g>
	<g>
		<rect x="167" y="113" fill="none" stroke="#002B35" stroke-width="3" stroke-miterlimit="10" width="26" height="40"/>
	</g>
	<g>
		<rect x="130" y="113" fill="none" stroke="#002B35" stroke-width="3" stroke-miterlimit="10" width="26" height="48"/>
	</g>
	<g>
		<rect x="93" y="113" fill="none" stroke="#002B35" stroke-width="3" stroke-miterlimit="10" width="26" height="48"/>
	</g>
	<g>
		<rect x="56" y="113" fill="none" stroke="#002B35" stroke-width="3" stroke-miterlimit="10" width="26" height="34"/>
	</g>
	<g>
		<rect x="19" y="113" fill="none" stroke="#002B35" stroke-width="3" stroke-miterlimit="10" width="26" height="48"/>
	</g>
	<g>
		<rect x="-18" y="113" fill="none" stroke="#002B35" stroke-width="3" stroke-miterlimit="10" width="26" height="40"/>
	</g>
	<g>
		<rect x="966" y="177" fill="#0D3640" width="26" height="48"/>
	</g>
	<g>
		<rect x="929" y="177" fill="#0D3640" width="26" height="40"/>
	</g>
	<g>
		<rect x="892" y="177" fill="#0D3640" width="26" height="48"/>
	</g>
	<g>
		<rect x="855" y="177" fill="#0D3640" width="26" height="34"/>
	</g>
	<g>
		<rect x="818" y="177" fill="#0D3640" width="26" height="48"/>
	</g>
	<g>
		<rect x="781" y="177" fill="#0D3640" width="26" height="33"/>
	</g>
	<g>
		<rect x="744" y="177" fill="#0D3640" width="26" height="48"/>
	</g>
	<g>
		<rect x="707" y="177" fill="#0D3640" width="26" height="40"/>
	</g>
	<g>
		<rect x="670" y="177" fill="#0D3640" width="26" height="48"/>
	</g>
	<g>
		<rect x="633" y="177" fill="#0D3640" width="26" height="48"/>
	</g>
	<g>
		<rect x="596" y="177" fill="#0D3640" width="26" height="48"/>
	</g>
	<g>
		<rect x="559" y="177" fill="#0D3640" width="26" height="48"/>
	</g>
	<g>
		<rect x="522" y="177" fill="#0D3640" width="26" height="33"/>
	</g>
	<g>
		<rect x="485" y="177" fill="#0D3640" width="26" height="40"/>
	</g>
	<g>
		<rect x="448" y="177" fill="#0D3640" width="26" height="48"/>
	</g>
	<g>
		<rect x="411" y="177" fill="#0D3640" width="26" height="33"/>
	</g>
	<g>
		<rect x="374" y="177" fill="#0D3640" width="26" height="48"/>
	</g>
	<g>
		<rect x="337" y="177" fill="#0D3640" width="26" height="34"/>
	</g>
	<g>
		<rect x="300" y="177" fill="#0D3640" width="26" height="48"/>
	</g>
	<g>
		<rect x="263" y="177" fill="#0D3640" width="26" height="48"/>
	</g>
	<g>
		<rect x="226" y="177" fill="#0D3640" width="26" height="33"/>
	</g>
	<g>
		<rect x="189" y="177" fill="#0D3640" width="26" height="48"/>
	</g>
	<g>
		<rect x="152" y="177" fill="#0D3640" width="26" height="34"/>
	</g>
	<g>
		<rect x="115" y="177" fill="#0D3640" width="26" height="48"/>
	</g>
	<g>
		<rect x="78" y="177" fill="#0D3640" width="26" height="40"/>
	</g>
	<g>
		<rect x="41" y="177" fill="#0D3640" width="26" height="33"/>
	</g>
	<g>
		<rect x="4" y="177" fill="#0D3640" width="26" height="48"/>
	</g>
	<g>
		<rect x="962" y="173" fill="none" stroke="#002B35" stroke-width="3" stroke-miterlimit="10" width="26" height="48"/>
	</g>
	<g>
		<rect x="925" y="173" fill="none" stroke="#002B35" stroke-width="3" stroke-miterlimit="10" width="26" height="40"/>
	</g>
	<g>
		<rect x="888" y="173" fill="none" stroke="#002B35" stroke-width="3" stroke-miterlimit="10" width="26" height="48"/>
	</g>
	<g>
		<rect x="851" y="173" fill="none" stroke="#002B35" stroke-width="3" stroke-miterlimit="10" width="26" height="34"/>
	</g>
	<g>
		<rect x="814" y="173" fill="none" stroke="#002B35" stroke-width="3" stroke-miterlimit="10" width="26" height="48"/>
	</g>
	<g>
		<rect x="777" y="173" fill="none" stroke="#002B35" stroke-width="3" stroke-miterlimit="10" width="26" height="33"/>
	</g>
	<g>
		<rect x="740" y="173" fill="none" stroke="#002B35" stroke-width="3" stroke-miterlimit="10" width="26" height="48"/>
	</g>
	<g>
		<rect x="703" y="173" fill="none" stroke="#002B35" stroke-width="3" stroke-miterlimit="10" width="26" height="40"/>
	</g>
	<g>
		<rect x="666" y="173" fill="none" stroke="#002B35" stroke-width="3" stroke-miterlimit="10" width="26" height="48"/>
	</g>
	<g>
		<rect x="629" y="173" fill="none" stroke="#002B35" stroke-width="3" stroke-miterlimit="10" width="26" height="48"/>
	</g>
	<g>
		<rect x="592" y="173" fill="none" stroke="#002B35" stroke-width="3" stroke-miterlimit="10" width="26" height="48"/>
	</g>
	<g>
		<rect x="555" y="173" fill="none" stroke="#002B35" stroke-width="3" stroke-miterlimit="10" width="26" height="48"/>
	</g>
	<g>
		<rect x="518" y="173" fill="none" stroke="#002B35" stroke-width="3" stroke-miterlimit="10" width="26" height="33"/>
	</g>
	<g>
		<rect x="481" y="173" fill="none" stroke="#002B35" stroke-width="3" stroke-miterlimit="10" width="26" height="40"/>
	</g>
	<g>
		<rect x="444" y="173" fill="none" stroke="#002B35" stroke-width="3" stroke-miterlimit="10" width="26" height="48"/>
	</g>
	<g>
		<rect x="407" y="173" fill="none" stroke="#002B35" stroke-width="3" stroke-miterlimit="10" width="26" height="33"/>
	</g>
	<g>
		<rect x="370" y="173" fill="none" stroke="#002B35" stroke-width="3" stroke-miterlimit="10" width="26" height="48"/>
	</g>
	<g>
		<rect x="333" y="173" fill="none" stroke="#002B35" stroke-width="3" stroke-miterlimit="10" width="26" height="34"/>
	</g>
	<g>
		<rect x="296" y="173" fill="none" stroke="#002B35" stroke-width="3" stroke-miterlimit="10" width="26" height="48"/>
	</g>
	<g>
		<rect x="259" y="173" fill="none" stroke="#002B35" stroke-width="3" stroke-miterlimit="10" width="26" height="48"/>
	</g>
	<g>
		<rect x="222" y="173" fill="none" stroke="#002B35" stroke-width="3" stroke-miterlimit="10" width="26" height="33"/>
	</g>
	<g>
		<rect x="185" y="173" fill="none" stroke="#002B35" stroke-width="3" stroke-miterlimit="10" width="26" height="48"/>
	</g>
	<g>
		<rect x="148" y="173" fill="none" stroke="#002B35" stroke-width="3" stroke-miterlimit="10" width="26" height="34"/>
	</g>
	<g>
		<rect x="111" y="173" fill="none" stroke="#002B35" stroke-width="3" stroke-miterlimit="10" width="26" height="48"/>
	</g>
	<g>
		<rect x="74" y="173" fill="none" stroke="#002B35" stroke-width="3" stroke-miterlimit="10" width="26" height="40"/>
	</g>
	<g>
		<rect x="37" y="173" fill="none" stroke="#002B35" stroke-width="3" stroke-miterlimit="10" width="26" height="33"/>
	</g>
	<g>
		<rect y="173" fill="none" stroke="#002B35" stroke-width="3" stroke-miterlimit="10" width="26" height="48"/>
	</g>
	<g>
		<rect x="948" y="237" fill="#0D3640" width="26" height="48"/>
	</g>
	<g>
		<rect x="911" y="237" fill="#0D3640" width="26" height="33"/>
	</g>
	<g>
		<rect x="874" y="237" fill="#0D3640" width="26" height="48"/>
	</g>
	<g>
		<rect x="837" y="237" fill="#0D3640" width="26" height="40"/>
	</g>
	<g>
		<rect x="800" y="237" fill="#0D3640" width="26" height="48"/>
	</g>
	<g>
		<rect x="763" y="237" fill="#0D3640" width="26" height="48"/>
	</g>
	<g>
		<rect x="726" y="237" fill="#0D3640" width="26" height="34"/>
	</g>
	<g>
		<rect x="689" y="237" fill="#0D3640" width="26" height="48"/>
	</g>
	<g>
		<rect x="652" y="237" fill="#0D3640" width="26" height="48"/>
	</g>
	<g>
		<rect x="615" y="237" fill="#0D3640" width="26" height="33"/>
	</g>
	<g>
		<rect x="578" y="237" fill="#0D3640" width="26" height="48"/>
	</g>
	<g>
		<rect x="541" y="237" fill="#0D3640" width="26" height="48"/>
	</g>
	<g>
		<rect x="504" y="237" fill="#0D3640" width="26" height="34"/>
	</g>
	<g>
		<rect x="467" y="237" fill="#0D3640" width="26" height="48"/>
	</g>
	<g>
		<rect x="430" y="237" fill="#0D3640" width="26" height="33"/>
	</g>
	<g>
		<rect x="393" y="237" fill="#0D3640" width="26" height="48"/>
	</g>
	<g>
		<rect x="356" y="237" fill="#0D3640" width="26" height="48"/>
	</g>
	<g>
		<rect x="319" y="237" fill="#0D3640" width="26" height="48"/>
	</g>
	<g>
		<rect x="282" y="237" fill="#0D3640" width="26" height="33"/>
	</g>
	<g>
		<rect x="245" y="237" fill="#0D3640" width="26" height="34"/>
	</g>
	<g>
		<rect x="208" y="237" fill="#0D3640" width="26" height="40"/>
	</g>
	<g>
		<rect x="171" y="237" fill="#0D3640" width="26" height="33"/>
	</g>
	<g>
		<rect x="134" y="237" fill="#0D3640" width="26" height="48"/>
	</g>
	<g>
		<rect x="97" y="237" fill="#0D3640" width="26" height="40"/>
	</g>
	<g>
		<rect x="60" y="237" fill="#0D3640" width="26" height="48"/>
	</g>
	<g>
		<rect x="23" y="237" fill="#0D3640" width="26" height="34"/>
	</g>
	<g>
		<rect x="-14" y="237" fill="#0D3640" width="26" height="48"/>
	</g>
	<g>
		<rect x="944" y="233" fill="none" stroke="#002B35" stroke-width="3" stroke-miterlimit="10" width="26" height="48"/>
	</g>
	<g>
		<rect x="907" y="233" fill="none" stroke="#002B35" stroke-width="3" stroke-miterlimit="10" width="26" height="33"/>
	</g>
	<g>
		<rect x="870" y="233" fill="none" stroke="#002B35" stroke-width="3" stroke-miterlimit="10" width="26" height="48"/>
	</g>
	<g>
		<rect x="833" y="233" fill="none" stroke="#002B35" stroke-width="3" stroke-miterlimit="10" width="26" height="40"/>
	</g>
	<g>
		<rect x="796" y="233" fill="none" stroke="#002B35" stroke-width="3" stroke-miterlimit="10" width="26" height="48"/>
	</g>
	<g>
		<rect x="759" y="233" fill="none" stroke="#002B35" stroke-width="3" stroke-miterlimit="10" width="26" height="48"/>
	</g>
	<g>
		<rect x="722" y="233" fill="none" stroke="#002B35" stroke-width="3" stroke-miterlimit="10" width="26" height="34"/>
	</g>
	<g>
		<rect x="685" y="233" fill="none" stroke="#002B35" stroke-width="3" stroke-miterlimit="10" width="26" height="48"/>
	</g>
	<g>
		<rect x="648" y="233" fill="none" stroke="#002B35" stroke-width="3" stroke-miterlimit="10" width="26" height="48"/>
	</g>
	<g>
		<rect x="611" y="233" fill="none" stroke="#002B35" stroke-width="3" stroke-miterlimit="10" width="26" height="33"/>
	</g>
	<g>
		<rect x="574" y="233" fill="none" stroke="#002B35" stroke-width="3" stroke-miterlimit="10" width="26" height="48"/>
	</g>
	<g>
		<rect x="537" y="233" fill="none" stroke="#002B35" stroke-width="3" stroke-miterlimit="10" width="26" height="48"/>
	</g>
	<g>
		<rect x="500" y="233" fill="none" stroke="#002B35" stroke-width="3" stroke-miterlimit="10" width="26" height="34"/>
	</g>
	<g>
		<rect x="463" y="233" fill="none" stroke="#002B35" stroke-width="3" stroke-miterlimit="10" width="26" height="48"/>
	</g>
	<g>
		<rect x="426" y="233" fill="none" stroke="#002B35" stroke-width="3" stroke-miterlimit="10" width="26" height="33"/>
	</g>
	<g>
		<rect x="389" y="233" fill="none" stroke="#002B35" stroke-width="3" stroke-miterlimit="10" width="26" height="48"/>
	</g>
	<g>
		<rect x="352" y="233" fill="none" stroke="#002B35" stroke-width="3" stroke-miterlimit="10" width="26" height="48"/>
	</g>
	<g>
		<rect x="315" y="233" fill="none" stroke="#002B35" stroke-width="3" stroke-miterlimit="10" width="26" height="48"/>
	</g>
	<g>
		<rect x="278" y="233" fill="none" stroke="#002B35" stroke-width="3" stroke-miterlimit="10" width="26" height="33"/>
	</g>
	<g>
		<rect x="241" y="233" fill="none" stroke="#002B35" stroke-width="3" stroke-miterlimit="10" width="26" height="34"/>
	</g>
	<g>
		<rect x="204" y="233" fill="none" stroke="#002B35" stroke-width="3" stroke-miterlimit="10" width="26" height="40"/>
	</g>
	<g>
		<rect x="167" y="233" fill="none" stroke="#002B35" stroke-width="3" stroke-miterlimit="10" width="26" height="33"/>
	</g>
	<g>
		<rect x="130" y="233" fill="none" stroke="#002B35" stroke-width="3" stroke-miterlimit="10" width="26" height="48"/>
	</g>
	<g>
		<rect x="93" y="233" fill="none" stroke="#002B35" stroke-width="3" stroke-miterlimit="10" width="26" height="40"/>
	</g>
	<g>
		<rect x="56" y="233" fill="none" stroke="#002B35" stroke-width="3" stroke-miterlimit="10" width="26" height="48"/>
	</g>
	<g>
		<rect x="19" y="233" fill="none" stroke="#002B35" stroke-width="3" stroke-miterlimit="10" width="26" height="34"/>
	</g>
	<g>
		<rect x="-18" y="233" fill="none" stroke="#002B35" stroke-width="3" stroke-miterlimit="10" width="26" height="48"/>
	</g>
	<g>
		<rect x="966" y="297" fill="#0D3640" width="26" height="48"/>
	</g>
	<g>
		<rect x="929" y="297" fill="#0D3640" width="26" height="34"/>
	</g>
	<g>
		<rect x="892" y="297" fill="#0D3640" width="26" height="48"/>
	</g>
	<g>
		<rect x="855" y="297" fill="#0D3640" width="26" height="48"/>
	</g>
	<g>
		<rect x="818" y="297" fill="#0D3640" width="26" height="48"/>
	</g>
	<g>
		<rect x="781" y="297" fill="#0D3640" width="26" height="48"/>
	</g>
	<g>
		<rect x="744" y="297" fill="#0D3640" width="26" height="48"/>
	</g>
	<g>
		<rect x="707" y="297" fill="#0D3640" width="26" height="33"/>
	</g>
	<g>
		<rect x="670" y="297" fill="#0D3640" width="26" height="48"/>
	</g>
	<g>
		<rect x="633" y="297" fill="#0D3640" width="26" height="34"/>
	</g>
	<g>
		<rect x="596" y="297" fill="#0D3640" width="26" height="48"/>
	</g>
	<g>
		<rect x="559" y="297" fill="#0D3640" width="26" height="48"/>
	</g>
	<g>
		<rect x="522" y="297" fill="#0D3640" width="26" height="33"/>
	</g>
	<g>
		<rect x="485" y="297" fill="#0D3640" width="26" height="48"/>
	</g>
	<g>
		<rect x="448" y="297" fill="#0D3640" width="26" height="40"/>
	</g>
	<g>
		<rect x="411" y="297" fill="#0D3640" width="26" height="48"/>
	</g>
	<g>
		<rect x="374" y="297" fill="#0D3640" width="26" height="34"/>
	</g>
	<g>
		<rect x="337" y="297" fill="#0D3640" width="26" height="40"/>
	</g>
	<g>
		<rect x="300" y="297" fill="#0D3640" width="26" height="48"/>
	</g>
	<g>
		<rect x="263" y="297" fill="#0D3640" width="26" height="48"/>
	</g>
	<g>
		<rect x="226" y="297" fill="#0D3640" width="26" height="34"/>
	</g>
	<g>
		<rect x="189" y="297" fill="#0D3640" width="26" height="48"/>
	</g>
	<g>
		<rect x="152" y="297" fill="#0D3640" width="26" height="40"/>
	</g>
	<g>
		<rect x="115" y="297" fill="#0D3640" width="26" height="48"/>
	</g>
	<g>
		<rect x="78" y="297" fill="#0D3640" width="26" height="34"/>
	</g>
	<g>
		<rect x="41" y="297" fill="#0D3640" width="26" height="48"/>
	</g>
	<g>
		<rect x="4" y="297" fill="#0D3640" width="26" height="40"/>
	</g>
	<g>
		<rect x="962" y="293" fill="none" stroke="#002B35" stroke-width="3" stroke-miterlimit="10" width="26" height="48"/>
	</g>
	<g>
		<rect x="925" y="293" fill="none" stroke="#002B35" stroke-width="3" stroke-miterlimit="10" width="26" height="34"/>
	</g>
	<g>
		<rect x="888" y="293" fill="none" stroke="#002B35" stroke-width="3" stroke-miterlimit="10" width="26" height="48"/>
	</g>
	<g>
		<rect x="851" y="293" fill="none" stroke="#002B35" stroke-width="3" stroke-miterlimit="10" width="26" height="48"/>
	</g>
	<g>
		<rect x="814" y="293" fill="none" stroke="#002B35" stroke-width="3" stroke-miterlimit="10" width="26" height="48"/>
	</g>
	<g>
		<rect x="777" y="293" fill="none" stroke="#002B35" stroke-width="3" stroke-miterlimit="10" width="26" height="48"/>
	</g>
	<g>
		<rect x="740" y="293" fill="none" stroke="#002B35" stroke-width="3" stroke-miterlimit="10" width="26" height="48"/>
	</g>
	<g>
		<rect x="703" y="293" fill="none" stroke="#002B35" stroke-width="3" stroke-miterlimit="10" width="26" height="33"/>
	</g>
	<g>
		<rect x="666" y="293" fill="none" stroke="#002B35" stroke-width="3" stroke-miterlimit="10" width="26" height="48"/>
	</g>
	<g>
		<rect x="629" y="293" fill="none" stroke="#002B35" stroke-width="3" stroke-miterlimit="10" width="26" height="34"/>
	</g>
	<g>
		<rect x="592" y="293" fill="none" stroke="#002B35" stroke-width="3" stroke-miterlimit="10" width="26" height="48"/>
	</g>
	<g>
		<rect x="555" y="293" fill="none" stroke="#002B35" stroke-width="3" stroke-miterlimit="10" width="26" height="48"/>
	</g>
	<g>
		<rect x="518" y="293" fill="none" stroke="#002B35" stroke-width="3" stroke-miterlimit="10" width="26" height="33"/>
	</g>
	<g>
		<rect x="481" y="293" fill="none" stroke="#002B35" stroke-width="3" stroke-miterlimit="10" width="26" height="48"/>
	</g>
	<g>
		<rect x="444" y="293" fill="none" stroke="#002B35" stroke-width="3" stroke-miterlimit="10" width="26" height="40"/>
	</g>
	<g>
		<rect x="407" y="293" fill="none" stroke="#002B35" stroke-width="3" stroke-miterlimit="10" width="26" height="48"/>
	</g>
	<g>
		<rect x="370" y="293" fill="none" stroke="#002B35" stroke-width="3" stroke-miterlimit="10" width="26" height="34"/>
	</g>
	<g>
		<rect x="333" y="293" fill="none" stroke="#002B35" stroke-width="3" stroke-miterlimit="10" width="26" height="40"/>
	</g>
	<g>
		<rect x="296" y="293" fill="none" stroke="#002B35" stroke-width="3" stroke-miterlimit="10" width="26" height="48"/>
	</g>
	<g>
		<rect x="259" y="293" fill="none" stroke="#002B35" stroke-width="3" stroke-miterlimit="10" width="26" height="48"/>
	</g>
	<g>
		<rect x="222" y="293" fill="none" stroke="#002B35" stroke-width="3" stroke-miterlimit="10" width="26" height="34"/>
	</g>
	<g>
		<rect x="185" y="293" fill="none" stroke="#002B35" stroke-width="3" stroke-miterlimit="10" width="26" height="48"/>
	</g>
	<g>
		<rect x="148" y="293" fill="none" stroke="#002B35" stroke-width="3" stroke-miterlimit="10" width="26" height="40"/>
	</g>
	<g>
		<rect x="111" y="293" fill="none" stroke="#002B35" stroke-width="3" stroke-miterlimit="10" width="26" height="48"/>
	</g>
	<g>
		<rect x="74" y="293" fill="none" stroke="#002B35" stroke-width="3" stroke-miterlimit="10" width="26" height="34"/>
	</g>
	<g>
		<rect x="37" y="293" fill="none" stroke="#002B35" stroke-width="3" stroke-miterlimit="10" width="26" height="48"/>
	</g>
	<g>
		<rect y="293" fill="none" stroke="#002B35" stroke-width="3" stroke-miterlimit="10" width="26" height="40"/>
	</g>
	<g>
		<rect x="948" y="357" fill="#0D3640" width="26" height="48"/>
	</g>
	<g>
		<rect x="911" y="357" fill="#0D3640" width="26" height="48"/>
	</g>
	<g>
		<rect x="874" y="357" fill="#0D3640" width="26" height="33"/>
	</g>
	<g>
		<rect x="837" y="357" fill="#0D3640" width="26" height="48"/>
	</g>
	<g>
		<rect x="800" y="357" fill="#0D3640" width="26" height="34"/>
	</g>
	<g>
		<rect x="763" y="357" fill="#0D3640" width="26" height="48"/>
	</g>
	<g>
		<rect x="726" y="357" fill="#0D3640" width="26" height="33"/>
	</g>
	<g>
		<rect x="689" y="357" fill="#0D3640" width="26" height="48"/>
	</g>
	<g>
		<rect x="652" y="357" fill="#0D3640" width="26" height="48"/>
	</g>
	<g>
		<rect x="615" y="357" fill="#0D3640" width="26" height="48"/>
	</g>
	<g>
		<rect x="578" y="357" fill="#0D3640" width="26" height="34"/>
	</g>
	<g>
		<rect x="541" y="357" fill="#0D3640" width="26" height="48"/>
	</g>
	<g>
		<rect x="504" y="357" fill="#0D3640" width="26" height="48"/>
	</g>
	<g>
		<rect x="467" y="357" fill="#0D3640" width="26" height="48"/>
	</g>
	<g>
		<rect x="430" y="357" fill="#0D3640" width="26" height="34"/>
	</g>
	<g>
		<rect x="393" y="357" fill="#0D3640" width="26" height="48"/>
	</g>
	<g>
		<rect x="356" y="357" fill="#0D3640" width="26" height="33"/>
	</g>
	<g>
		<rect x="319" y="357" fill="#0D3640" width="26" height="48"/>
	</g>
	<g>
		<rect x="282" y="357" fill="#0D3640" width="26" height="34"/>
	</g>
	<g>
		<rect x="245" y="357" fill="#0D3640" width="26" height="48"/>
	</g>
	<g>
		<rect x="208" y="357" fill="#0D3640" width="26" height="40"/>
	</g>
	<g>
		<rect x="171" y="357" fill="#0D3640" width="26" height="33"/>
	</g>
	<g>
		<rect x="134" y="357" fill="#0D3640" width="26" height="48"/>
	</g>
	<g>
		<rect x="97" y="357" fill="#0D3640" width="26" height="34"/>
	</g>
	<g>
		<rect x="60" y="357" fill="#0D3640" width="26" height="48"/>
	</g>
	<g>
		<rect x="23" y="357" fill="#0D3640" width="26" height="40"/>
	</g>
	<g>
		<rect x="-14" y="357" fill="#0D3640" width="26" height="48"/>
	</g>
	<g>
		<rect x="944" y="353" fill="none" stroke="#002B35" stroke-width="3" stroke-miterlimit="10" width="26" height="48"/>
	</g>
	<g>
		<rect x="907" y="353" fill="none" stroke="#002B35" stroke-width="3" stroke-miterlimit="10" width="26" height="48"/>
	</g>
	<g>
		<rect x="870" y="353" fill="none" stroke="#002B35" stroke-width="3" stroke-miterlimit="10" width="26" height="33"/>
	</g>
	<g>
		<rect x="833" y="353" fill="none" stroke="#002B35" stroke-width="3" stroke-miterlimit="10" width="26" height="48"/>
	</g>
	<g>
		<rect x="796" y="353" fill="none" stroke="#002B35" stroke-width="3" stroke-miterlimit="10" width="26" height="34"/>
	</g>
	<g>
		<rect x="759" y="353" fill="none" stroke="#002B35" stroke-width="3" stroke-miterlimit="10" width="26" height="48"/>
	</g>
	<g>
		<rect x="722" y="353" fill="none" stroke="#002B35" stroke-width="3" stroke-miterlimit="10" width="26" height="33"/>
	</g>
	<g>
		<rect x="685" y="353" fill="none" stroke="#002B35" stroke-width="3" stroke-miterlimit="10" width="26" height="48"/>
	</g>
	<g>
		<rect x="648" y="353" fill="none" stroke="#002B35" stroke-width="3" stroke-miterlimit="10" width="26" height="48"/>
	</g>
	<g>
		<rect x="611" y="353" fill="none" stroke="#002B35" stroke-width="3" stroke-miterlimit="10" width="26" height="48"/>
	</g>
	<g>
		<rect x="574" y="353" fill="none" stroke="#002B35" stroke-width="3" stroke-miterlimit="10" width="26" height="34"/>
	</g>
	<g>
		<rect x="537" y="353" fill="none" stroke="#002B35" stroke-width="3" stroke-miterlimit="10" width="26" height="48"/>
	</g>
	<g>
		<rect x="500" y="353" fill="none" stroke="#002B35" stroke-width="3" stroke-miterlimit="10" width="26" height="48"/>
	</g>
	<g>
		<rect x="463" y="353" fill="none" stroke="#002B35" stroke-width="3" stroke-miterlimit="10" width="26" height="48"/>
	</g>
	<g>
		<rect x="426" y="353" fill="none" stroke="#002B35" stroke-width="3" stroke-miterlimit="10" width="26" height="34"/>
	</g>
	<g>
		<rect x="389" y="353" fill="none" stroke="#002B35" stroke-width="3" stroke-miterlimit="10" width="26" height="48"/>
	</g>
	<g>
		<rect x="352" y="353" fill="none" stroke="#002B35" stroke-width="3" stroke-miterlimit="10" width="26" height="33"/>
	</g>
	<g>
		<rect x="315" y="353" fill="none" stroke="#002B35" stroke-width="3" stroke-miterlimit="10" width="26" height="48"/>
	</g>
	<g>
		<rect x="278" y="353" fill="none" stroke="#002B35" stroke-width="3" stroke-miterlimit="10" width="26" height="34"/>
	</g>
	<g>
		<rect x="241" y="353" fill="none" stroke="#002B35" stroke-width="3" stroke-miterlimit="10" width="26" height="48"/>
	</g>
	<g>
		<rect x="204" y="353" fill="none" stroke="#002B35" stroke-width="3" stroke-miterlimit="10" width="26" height="40"/>
	</g>
	<g>
		<rect x="167" y="353" fill="none" stroke="#002B35" stroke-width="3" stroke-miterlimit="10" width="26" height="33"/>
	</g>
	<g>
		<rect x="130" y="353" fill="none" stroke="#002B35" stroke-width="3" stroke-miterlimit="10" width="26" height="48"/>
	</g>
	<g>
		<rect x="93" y="353" fill="none" stroke="#002B35" stroke-width="3" stroke-miterlimit="10" width="26" height="34"/>
	</g>
	<g>
		<rect x="56" y="353" fill="none" stroke="#002B35" stroke-width="3" stroke-miterlimit="10" width="26" height="48"/>
	</g>
	<g>
		<rect x="19" y="353" fill="none" stroke="#002B35" stroke-width="3" stroke-miterlimit="10" width="26" height="40"/>
	</g>
	<g>
		<rect x="-18" y="353" fill="none" stroke="#002B35" stroke-width="3" stroke-miterlimit="10" width="26" height="48"/>
	</g>
	<g>
		<rect x="-33" y="57" fill="#0D3640" width="26" height="34"/>
	</g>
	<g>
		<rect x="-70" y="57" fill="#0D3640" width="26" height="48"/>
	</g>
	<g>
		<rect x="-37" y="53" fill="none" stroke="#002B35" stroke-width="3" stroke-miterlimit="10" width="26" height="34"/>
	</g>
	<g>
		<rect x="-74" y="53" fill="none" stroke="#002B35" stroke-width="3" stroke-miterlimit="10" width="26" height="48"/>
	</g>
	<g>
		<rect x="-52" y="115" fill="#0D3640" width="26" height="48"/>
	</g>
	<g>
		<rect x="-56" y="111" fill="none" stroke="#002B35" stroke-width="3" stroke-miterlimit="10" width="26" height="48"/>
	</g>
	<g>
		<rect x="-33" y="175" fill="#0D3640" width="26" height="48"/>
	</g>
	<g>
		<rect x="-70" y="175" fill="#0D3640" width="26" height="40"/>
	</g>
	<g>
		<rect x="-37" y="171" fill="none" stroke="#002B35" stroke-width="3" stroke-miterlimit="10" width="26" height="48"/>
	</g>
	<g>
		<rect x="-74" y="171" fill="none" stroke="#002B35" stroke-width="3" stroke-miterlimit="10" width="26" height="40"/>
	</g>
	<g>
		<rect x="-52" y="235" fill="#0D3640" width="26" height="48"/>
	</g>
	<g>
		<rect x="-56" y="231" fill="none" stroke="#002B35" stroke-width="3" stroke-miterlimit="10" width="26" height="48"/>
	</g>
	<g>
		<rect x="-33" y="295" fill="#0D3640" width="26" height="34"/>
	</g>
	<g>
		<rect x="-70" y="295" fill="#0D3640" width="26" height="48"/>
	</g>
	<g>
		<rect x="-37" y="291" fill="none" stroke="#002B35" stroke-width="3" stroke-miterlimit="10" width="26" height="34"/>
	</g>
	<g>
		<rect x="-74" y="291" fill="none" stroke="#002B35" stroke-width="3" stroke-miterlimit="10" width="26" height="48"/>
	</g>
	<g>
		<rect x="-52" y="355" fill="#0D3640" width="26" height="40"/>
	</g>
	<g>
		<rect x="-56" y="351" fill="none" stroke="#002B35" stroke-width="3" stroke-miterlimit="10" width="26" height="40"/>
	</g>
	<g>
		<rect x="-33" y="415" fill="#0D3640" width="26" height="40"/>
	</g>
	<g>
		<rect x="-70" y="415" fill="#0D3640" width="26" height="48"/>
	</g>
	<g>
		<rect x="-37" y="411" fill="none" stroke="#002B35" stroke-width="3" stroke-miterlimit="10" width="26" height="40"/>
	</g>
	<g>
		<rect x="-74" y="411" fill="none" stroke="#002B35" stroke-width="3" stroke-miterlimit="10" width="26" height="48"/>
	</g>
</g>
<g id="Layer_1">
</g>
</svg>
