<?xml version="1.0" encoding="utf-8"?>
<!-- Generator: Adobe Illustrator 16.0.4, SVG Export Plug-In . SVG Version: 6.00 Build 0)  -->
<!DOCTYPE svg PUBLIC "-//W3C//DTD SVG 1.1//EN" "http://www.w3.org/Graphics/SVG/1.1/DTD/svg11.dtd">
<svg version="1.1" xmlns="http://www.w3.org/2000/svg" xmlns:xlink="http://www.w3.org/1999/xlink" x="0px" y="0px" width="960px"
	 height="400px" viewBox="0 0 960 400" enable-background="new 0 0 960 400" xml:space="preserve">
<g id="Layer_2">
	<g id="Layer_2_1_">
		<g id="Layer_3">
			<rect x="1.143" y="-0.078" fill="#0E3E49" width="960" height="400"/>
		</g>
	</g>
</g>
<g id="Layer_1">
	<g>
		<ellipse fill="#869900" cx="27.5" cy="283.699" rx="1.015" ry="1.197"/>
	</g>
	<g>
		<ellipse fill="#869900" cx="755.684" cy="223.903" rx="1.059" ry="1.182"/>
	</g>
	<g>
		<ellipse fill="#869900" cx="605.425" cy="87.242" rx="1.793" ry="1.894"/>
	</g>
	<g>
		<ellipse fill="#2EA197" cx="828.5" cy="391.508" rx="0.822" ry="0.992"/>
	</g>
	<g>
		<ellipse fill="#2EA197" cx="934.5" cy="30.055" rx="1.253" ry="1.445"/>
	</g>
	<g>
		<path fill="#2EA197" d="M270.22,5.503c0,1.059-0.771,1.918-1.72,1.918s-1.72-0.859-1.72-1.918c0-1.062,0.771-1.923,1.72-1.923
			S270.22,4.44,270.22,5.503z"/>
	</g>
	<g>
		<ellipse fill="#2EA197" cx="928.622" cy="293.5" rx="2.122" ry="2.317"/>
	</g>
	<g>
		<ellipse fill="#2EA197" cx="324.615" cy="274.787" rx="1.452" ry="1.568"/>
	</g>
	<g>
		<ellipse fill="#2EA197" cx="657.914" cy="250.431" rx="1.992" ry="2.082"/>
	</g>
	<g>
		<ellipse fill="#268BD2" cx="884.678" cy="321.5" rx="0.822" ry="0.992"/>
	</g>
	<g>
		<ellipse fill="#268BD2" cx="610.499" cy="263.818" rx="1.128" ry="1.315"/>
	</g>
	<g>
		<ellipse fill="#268BD2" cx="414.744" cy="302.775" rx="1.452" ry="1.568"/>
	</g>
	<g>
		<ellipse fill="#268BD2" cx="420.448" cy="83.546" rx="1.614" ry="1.724"/>
	</g>
	<g>
		<ellipse fill="#268BD2" cx="192.83" cy="81.464" rx="1.992" ry="2.082"/>
	</g>
	<g>
		<ellipse fill="#6D70C4" cx="690.414" cy="378.5" rx="0.914" ry="1.09"/>
	</g>
	<g>
		<ellipse fill="#6D70C4" cx="281.681" cy="92.167" rx="1.059" ry="1.181"/>
	</g>
	<g>
		<ellipse fill="#6D70C4" cx="489.652" cy="133.428" rx="1.177" ry="1.298"/>
	</g>
	<g>
		<ellipse fill="#6D70C4" cx="311.679" cy="216.562" rx="2.46" ry="2.515"/>
	</g>
	<g>
		<ellipse fill="#D33682" cx="137.5" cy="43.502" rx="2.123" ry="2.317"/>
	</g>
	<g>
		<ellipse fill="#D33682" cx="243.327" cy="304.007" rx="2.46" ry="2.515"/>
	</g>
	<g>
		<ellipse fill="#DD302E" cx="81.759" cy="366.5" rx="0.741" ry="0.903"/>
	</g>
	<g>
		<ellipse fill="#DD302E" cx="62.323" cy="212.5" rx="0.823" ry="0.992"/>
	</g>
	<g>
		<ellipse fill="#DD302E" cx="253.18" cy="132.196" rx="1.452" ry="1.568"/>
	</g>
	<g>
		<ellipse fill="#DD302E" cx="137.5" cy="106.502" rx="2.621" ry="2.799"/>
	</g>
	<g>
		<ellipse fill="#DD302E" cx="461.75" cy="342.5" rx="1.793" ry="1.895"/>
	</g>
	<g>
		<ellipse fill="#CC4A14" cx="279.044" cy="233.854" rx="1.059" ry="1.182"/>
	</g>
	<g>
		<ellipse fill="#CC4A14" cx="607.217" cy="299.696" rx="1.176" ry="1.298"/>
	</g>
	<g>
		<ellipse fill="#CC4A14" cx="718.119" cy="125.421" rx="2.733" ry="2.763"/>
	</g>
	<g>
		<ellipse fill="#B68800" cx="657.153" cy="192.208" rx="1.453" ry="1.568"/>
	</g>
	<g>
		<ellipse fill="#FEF6E2" cx="937.5" cy="62.41" rx="0.914" ry="1.09"/>
	</g>
	<g>
		<ellipse fill="#FEF6E2" cx="799.516" cy="133.5" rx="1.016" ry="1.197"/>
	</g>
	<g>
		<ellipse fill="#FEF6E2" cx="287.945" cy="318.171" rx="0.953" ry="1.074"/>
	</g>
	<g>
		<ellipse fill="#FEF6E2" cx="519.136" cy="172.223" rx="1.308" ry="1.427"/>
	</g>
	<g>
		<ellipse fill="#FEF6E2" cx="739.056" cy="291.354" rx="1.453" ry="1.568"/>
	</g>
	<g>
		<ellipse fill="#FEF6E2" cx="40.938" cy="30.5" rx="4.438" ry="4.487"/>
	</g>
	<g>
		<ellipse fill="#93A1A1" cx="853.5" cy="351.752" rx="0.6" ry="0.748"/>
	</g>
	<g>
		<ellipse fill="#93A1A1" cx="814.5" cy="301.679" rx="0.667" ry="0.821"/>
	</g>
	<g>
		<ellipse fill="#93A1A1" cx="134.5" cy="217.597" rx="0.741" ry="0.903"/>
	</g>
	<g>
		<ellipse fill="#93A1A1" cx="219.5" cy="24.508" rx="0.823" ry="0.992"/>
	</g>
	<g>
		<ellipse fill="#93A1A1" cx="357.5" cy="46.41" rx="0.914" ry="1.09"/>
	</g>
	<g>
		<ellipse fill="#93A1A1" cx="861.5" cy="51.303" rx="1.015" ry="1.197"/>
	</g>
	<g>
		<ellipse fill="#93A1A1" cx="944.372" cy="109.5" rx="1.128" ry="1.315"/>
	</g>
	<g>
		<ellipse fill="#93A1A1" cx="542.768" cy="80.467" rx="0.772" ry="0.89"/>
	</g>
	<g>
		<ellipse fill="#93A1A1" cx="734.129" cy="184.177" rx="0.858" ry="0.978"/>
	</g>
	<g>
		<ellipse fill="#93A1A1" cx="697.796" cy="93.245" rx="0.953" ry="1.075"/>
	</g>
	<g>
		<path fill="#93A1A1" d="M715.219,25.582c0,1.059-0.77,1.918-1.719,1.918c-0.95,0-1.721-0.859-1.721-1.918
			c0-1.062,0.771-1.923,1.721-1.923C714.449,23.659,715.219,24.52,715.219,25.582z"/>
	</g>
	<g>
		<ellipse fill="#93A1A1" cx="812.5" cy="14.392" rx="1.911" ry="2.108"/>
	</g>
	<g>
		<ellipse fill="#93A1A1" cx="588.798" cy="309.551" rx="1.307" ry="1.427"/>
	</g>
	<g>
		<ellipse fill="#93A1A1" cx="238.499" cy="377.308" rx="1.104" ry="1.192"/>
	</g>
	<g>
		<ellipse fill="#93A1A1" cx="510.5" cy="268.19" rx="1.226" ry="1.31"/>
	</g>
	<g>
		<ellipse fill="#93A1A1" cx="681.225" cy="300.312" rx="1.793" ry="1.895"/>
	</g>
	<g>
		<ellipse fill="#93A1A1" cx="60.014" cy="274.5" rx="1.514" ry="1.581"/>
	</g>
	<g>
		<ellipse fill="#93A1A1" cx="202.684" cy="113.721" rx="2.214" ry="2.288"/>
	</g>
	<g>
		<ellipse fill="#93A1A1" cx="340.631" cy="369.5" rx="1.869" ry="1.91"/>
	</g>
	<g>
		<ellipse fill="#93A1A1" cx="859.958" cy="290.5" rx="1.458" ry="1.475"/>
	</g>
	<g>
		<circle fill="#93A1A1" cx="175.193" cy="256.5" r="2.307"/>
	</g>
	<g>
		<ellipse fill="#839496" cx="915.1" cy="346.5" rx="0.6" ry="0.748"/>
	</g>
	<g>
		<ellipse fill="#839496" cx="896.5" cy="268.679" rx="0.666" ry="0.821"/>
	</g>
	<g>
		<ellipse fill="#839496" cx="857.24" cy="128.5" rx="0.74" ry="0.903"/>
	</g>
	<g>
		<ellipse fill="#839496" cx="569.322" cy="24.5" rx="0.822" ry="0.992"/>
	</g>
	<g>
		<ellipse fill="#839496" cx="213.716" cy="302.159" rx="0.563" ry="0.671"/>
	</g>
	<g>
		<ellipse fill="#839496" cx="117.484" cy="161.5" rx="1.016" ry="1.197"/>
	</g>
	<g>
		<ellipse fill="#839496" cx="373.959" cy="185.155" rx="0.695" ry="0.81"/>
	</g>
	<g>
		<ellipse fill="#839496" cx="753.376" cy="129.732" rx="0.772" ry="0.89"/>
	</g>
	<g>
		<ellipse fill="#839496" cx="242.096" cy="214.463" rx="0.858" ry="0.979"/>
	</g>
	<g>
		<ellipse fill="#839496" cx="703.061" cy="186.387" rx="0.953" ry="1.075"/>
	</g>
	<g>
		<ellipse fill="#839496" cx="379.595" cy="128.5" rx="1.059" ry="1.181"/>
	</g>
	<g>
		<ellipse fill="#839496" cx="771.75" cy="83.546" rx="1.176" ry="1.298"/>
	</g>
	<g>
		<ellipse fill="#839496" cx="624.506" cy="365.5" rx="0.994" ry="1.085"/>
	</g>
	<g>
		<ellipse fill="#839496" cx="213.768" cy="269.86" rx="1.453" ry="1.568"/>
	</g>
	<g>
		<ellipse fill="#839496" cx="719.726" cy="357.5" rx="1.226" ry="1.31"/>
	</g>
	<g>
		<ellipse fill="#839496" cx="332.566" cy="150.054" rx="1.793" ry="1.895"/>
	</g>
	<g>
		<ellipse fill="#839496" cx="634.368" cy="161.374" rx="1.275" ry="1.332"/>
	</g>
	<g>
		<ellipse fill="#839496" cx="561.086" cy="118.473" rx="2.214" ry="2.288"/>
	</g>
	<g>
		<ellipse fill="#839496" cx="550.5" cy="390.158" rx="1.312" ry="1.342"/>
	</g>
	<g>
		<ellipse fill="#839496" cx="779.5" cy="340.025" rx="1.458" ry="1.475"/>
	</g>
	<g>
		<circle fill="#839496" cx="154.5" cy="353.5" r="2.307"/>
	</g>
	<g>
		<ellipse fill="#667B82" cx="106.5" cy="306.752" rx="0.6" ry="0.748"/>
	</g>
	<g>
		<ellipse fill="#667B82" cx="323.5" cy="34.679" rx="0.666" ry="0.821"/>
	</g>
	<g>
		<ellipse fill="#667B82" cx="460.24" cy="27.5" rx="0.74" ry="0.903"/>
	</g>
	<g>
		<ellipse fill="#667B82" cx="888.5" cy="206.508" rx="0.822" ry="0.992"/>
	</g>
	<g>
		<ellipse fill="#667B82" cx="64.414" cy="88.5" rx="0.914" ry="1.09"/>
	</g>
	<g>
		<ellipse fill="#667B82" cx="626.988" cy="110.642" rx="0.625" ry="0.737"/>
	</g>
	<g>
		<ellipse fill="#667B82" cx="552.465" cy="140.397" rx="0.695" ry="0.81"/>
	</g>
	<g>
		<ellipse fill="#667B82" cx="693.643" cy="208.556" rx="0.772" ry="0.891"/>
	</g>
	<g>
		<ellipse fill="#667B82" cx="707.275" cy="154.364" rx="0.857" ry="0.978"/>
	</g>
	<g>
		<ellipse fill="#667B82" cx="533.991" cy="206.555" rx="0.953" ry="1.074"/>
	</g>
	<g>
		<ellipse fill="#667B82" cx="224.41" cy="104.484" rx="1.059" ry="1.181"/>
	</g>
	<g>
		<ellipse fill="#667B82" cx="506.839" cy="305.238" rx="1.176" ry="1.299"/>
	</g>
	<g>
		<ellipse fill="#667B82" cx="459.25" cy="309.501" rx="1.176" ry="1.299"/>
	</g>
	<g>
		<ellipse fill="#667B82" cx="502.66" cy="229.493" rx="1.308" ry="1.428"/>
	</g>
	<g>
		<ellipse fill="#667B82" cx="635.205" cy="227.646" rx="1.453" ry="1.568"/>
	</g>
	<g>
		<ellipse fill="#667B82" cx="411.5" cy="20.501" rx="1.226" ry="1.31"/>
	</g>
	<g>
		<ellipse fill="#667B82" cx="519.5" cy="357.5" rx="1.363" ry="1.439"/>
	</g>
	<g>
		<ellipse fill="#667B82" cx="72.986" cy="151.5" rx="1.514" ry="1.581"/>
	</g>
	<g>
		<ellipse fill="#667B82" cx="461.941" cy="183.308" rx="0.834" ry="0.862"/>
	</g>
	<g>
		<ellipse fill="#667B82" cx="806.5" cy="250.158" rx="1.312" ry="1.342"/>
	</g>
	<g>
		<ellipse fill="#667B82" cx="515.041" cy="12.5" rx="1.459" ry="1.475"/>
	</g>
	<g>
		<circle fill="#667B82" cx="929.88" cy="201.5" r="1.62"/>
	</g>
	<g>
		<ellipse fill="#586E75" cx="818.1" cy="89.5" rx="0.6" ry="0.748"/>
	</g>
	<g>
		<ellipse fill="#0A3641" cx="589.4" cy="131.25" rx="0.6" ry="0.748"/>
	</g>
	<g>
		<ellipse fill="#0A3641" cx="676.85" cy="160.25" rx="0.6" ry="0.748"/>
	</g>
	<g>
		<ellipse fill="#0A3641" cx="621" cy="179.497" rx="0.6" ry="0.748"/>
	</g>
	<g>
		<ellipse fill="#0A3641" cx="713" cy="57.002" rx="0.6" ry="0.748"/>
	</g>
	<g>
		<ellipse fill="#0A3641" cx="597.4" cy="54.5" rx="0.6" ry="0.748"/>
	</g>
	<g>
		<ellipse fill="#0A3641" cx="462" cy="51.25" rx="0.6" ry="0.748"/>
	</g>
	<g>
		<ellipse fill="#0A3641" cx="804" cy="46.5" rx="0.6" ry="0.748"/>
	</g>
	<g>
		<ellipse fill="#0A3641" cx="792.9" cy="169.25" rx="0.6" ry="0.748"/>
	</g>
	<g>
		<ellipse fill="#0A3641" cx="750.6" cy="259.25" rx="0.6" ry="0.748"/>
	</g>
	<g>
		<ellipse fill="#0A3641" cx="869" cy="245.252" rx="0.6" ry="0.748"/>
	</g>
	<g>
		<ellipse fill="#586E75" cx="794.5" cy="207.679" rx="0.667" ry="0.821"/>
	</g>
	<g>
		<ellipse fill="#586E75" cx="29.5" cy="200.597" rx="0.741" ry="0.903"/>
	</g>
	<g>
		<ellipse fill="#586E75" cx="28.323" cy="134.5" rx="0.823" ry="0.992"/>
	</g>
	<g>
		<ellipse fill="#586E75" cx="371.417" cy="215.274" rx="0.563" ry="0.671"/>
	</g>
	<g>
		<ellipse fill="#586E75" cx="109.5" cy="62.303" rx="1.015" ry="1.197"/>
	</g>
	<g>
		<ellipse fill="#586E75" cx="500.2" cy="80.467" rx="0.695" ry="0.81"/>
	</g>
	<g>
		<ellipse fill="#586E75" cx="262.574" cy="159.907" rx="0.772" ry="0.89"/>
	</g>
	<g>
		<ellipse fill="#586E75" cx="585.103" cy="221.489" rx="0.858" ry="0.978"/>
	</g>
	<g>
		<ellipse fill="#586E75" cx="757.809" cy="308.317" rx="0.953" ry="1.075"/>
	</g>
	<g>
		<ellipse fill="#586E75" cx="410.829" cy="255.408" rx="1.059" ry="1.181"/>
	</g>
	<g>
		<ellipse fill="#586E75" cx="365.203" cy="308.934" rx="1.177" ry="1.298"/>
	</g>
	<g>
		<ellipse fill="#586E75" cx="659" cy="132" rx="1.307" ry="1.427"/>
	</g>
	<g>
		<ellipse fill="#586E75" cx="349.247" cy="98.327" rx="1.452" ry="1.568"/>
	</g>
	<g>
		<ellipse fill="#586E75" cx="409.363" cy="174.07" rx="1.614" ry="1.724"/>
	</g>
	<g>
		<ellipse fill="#586E75" cx="36.5" cy="368.501" rx="2.912" ry="3.076"/>
	</g>
	<g>
		<ellipse fill="#586E75" cx="203.155" cy="192.545" rx="1.992" ry="2.082"/>
	</g>
	<g>
		<ellipse fill="#586E75" cx="432.681" cy="374.5" rx="1.181" ry="1.221"/>
	</g>
	<g>
		<ellipse fill="#586E75" cx="30.501" cy="74.59" rx="1.869" ry="1.91"/>
	</g>
	<g>
		<ellipse fill="#586E75" cx="641.958" cy="36.5" rx="1.458" ry="1.475"/>
	</g>
	<g>
		<circle fill="#586E75" cx="836.5" cy="185.879" r="1.621"/>
	</g>
	<g>
		<ellipse fill="#0A3641" cx="805.5" cy="378.752" rx="0.6" ry="0.748"/>
	</g>
	<g>
		<ellipse fill="#0A3641" cx="922.167" cy="182.5" rx="0.667" ry="0.821"/>
	</g>
	<g>
		<ellipse fill="#0A3641" cx="825.5" cy="252.597" rx="0.741" ry="0.903"/>
	</g>
	<g>
		<ellipse fill="#0A3641" cx="862.677" cy="148.5" rx="0.823" ry="0.992"/>
	</g>
	<g>
		<ellipse fill="#0A3641" cx="871.5" cy="102.41" rx="0.914" ry="1.09"/>
	</g>
	<g>
		<ellipse fill="#0A3641" cx="378.806" cy="153.871" rx="0.625" ry="0.737"/>
	</g>
	<g>
		<ellipse fill="#0A3641" cx="497.737" cy="273.216" rx="0.695" ry="0.811"/>
	</g>
	<g>
		<ellipse fill="#0A3641" cx="439.632" cy="331.32" rx="0.695" ry="0.811"/>
	</g>
	<g>
		<ellipse fill="#0A3641" cx="402.5" cy="289.562" rx="0.695" ry="0.811"/>
	</g>
	<g>
		<ellipse fill="#0A3641" cx="396.25" cy="335.001" rx="0.695" ry="0.811"/>
	</g>
	<g>
		<ellipse fill="#0A3641" cx="328.5" cy="334.251" rx="0.695" ry="0.811"/>
	</g>
	<g>
		<ellipse fill="#0A3641" cx="272.5" cy="257.751" rx="0.695" ry="0.811"/>
	</g>
	<g>
		<ellipse fill="#0A3641" cx="373.108" cy="254.126" rx="0.772" ry="0.89"/>
	</g>
	<g>
		<ellipse fill="#0A3641" cx="407.991" cy="137.122" rx="0.858" ry="0.978"/>
	</g>
	<g>
		<ellipse fill="#0A3641" cx="309.557" cy="84.162" rx="0.953" ry="1.074"/>
	</g>
	<g>
		<ellipse fill="#0A3641" cx="561.875" cy="276.911" rx="1.059" ry="1.181"/>
	</g>
	<g>
		<ellipse fill="#0A3641" cx="298.135" cy="154.434" rx="1.177" ry="1.298"/>
	</g>
	<g>
		<ellipse fill="#0A3641" cx="224.854" cy="151.902" rx="1.307" ry="1.427"/>
	</g>
	<g>
		<ellipse fill="#0A3641" cx="455.783" cy="262.749" rx="1.452" ry="1.568"/>
	</g>
	<g>
		<ellipse fill="#0A3641" cx="554.313" cy="246.244" rx="1.614" ry="1.724"/>
	</g>
	<g>
		<ellipse fill="#0A3641" cx="703.955" cy="230.726" rx="1.793" ry="1.895"/>
	</g>
	<g>
		<ellipse fill="#0A3641" cx="431.295" cy="217.178" rx="1.992" ry="2.081"/>
	</g>
	<g>
		<ellipse fill="#0A3641" cx="447.411" cy="130.348" rx="2.214" ry="2.289"/>
	</g>
	<g>
		<ellipse fill="#0A3641" cx="654.693" cy="84.778" rx="2.46" ry="2.515"/>
	</g>
	<g>
		<ellipse fill="#0A3641" cx="395.433" cy="105.1" rx="2.733" ry="2.763"/>
	</g>
	<g>
		<circle fill="#0A3641" cx="562.892" cy="188.85" r="3.037"/>
	</g>
	<g>
		<ellipse fill="#0E3E49" cx="24.1" cy="117.5" rx="0.6" ry="0.748"/>
	</g>
	<g>
		<ellipse fill="#0E3E49" cx="687.5" cy="389.321" rx="0.666" ry="0.821"/>
	</g>
	<g>
		<ellipse fill="#0E3E49" cx="943.5" cy="301.402" rx="0.74" ry="0.903"/>
	</g>
	<g>
		<ellipse fill="#0E3E49" cx="904.5" cy="376.508" rx="0.822" ry="0.992"/>
	</g>
	<g>
		<ellipse fill="#0E3E49" cx="847.5" cy="167.41" rx="0.914" ry="1.09"/>
	</g>
	<g>
		<ellipse fill="#0E3E49" cx="517.374" cy="84.778" rx="0.625" ry="0.737"/>
	</g>
	<g>
		<ellipse fill="#0E3E49" cx="627.673" cy="276.911" rx="0.695" ry="0.81"/>
	</g>
	<g>
		<ellipse fill="#0E3E49" cx="553.697" cy="76.498" rx="0.772" ry="0.89"/>
	</g>
	<g>
		<ellipse fill="#0E3E49" cx="460.709" cy="248.333" rx="0.858" ry="0.978"/>
	</g>
	<g>
		<ellipse fill="#0E3E49" cx="372.927" cy="127.885" rx="0.953" ry="1.074"/>
	</g>
	<g>
		<ellipse fill="#0E3E49" cx="589.857" cy="243.041" rx="1.059" ry="1.182"/>
	</g>
	<g>
		<ellipse fill="#0E3E49" cx="667.677" cy="172.839" rx="1.176" ry="1.298"/>
	</g>
	<g>
		<ellipse fill="#0E3E49" cx="650.379" cy="88.474" rx="1.307" ry="1.427"/>
	</g>
	<g>
		<ellipse fill="#0E3E49" cx="195.294" cy="85.672" rx="1.453" ry="1.568"/>
	</g>
	<g>
		<ellipse fill="#0E3E49" cx="663.927" cy="195.502" rx="1.614" ry="1.724"/>
	</g>
	<g>
		<ellipse fill="#0E3E49" cx="678.707" cy="180.182" rx="1.793" ry="1.895"/>
	</g>
	<g>
		<ellipse fill="#0E3E49" cx="596.188" cy="244.273" rx="1.993" ry="2.082"/>
	</g>
	<g>
		<ellipse fill="#0E3E49" cx="570.939" cy="291.25" rx="2.214" ry="2.288"/>
	</g>
	<g>
		<ellipse fill="#0E3E49" cx="763.689" cy="269.521" rx="2.459" ry="2.515"/>
	</g>
	<g>
		<ellipse fill="#0E3E49" cx="227.316" cy="84.778" rx="2.733" ry="2.763"/>
	</g>
	<g>
		<circle fill="#0E3E49" cx="539.533" cy="288.611" r="3.037"/>
	</g>
</g>
</svg>
