<svg xmlns="http://www.w3.org/2000/svg" width="640" height="300" viewBox="0 0 640 300"><path fill="#B9DDEA" d="M-6.5-.592H640V300H-6.5z"/><path fill="#FFF" d="M296.076 24.661h59.281v59.283h-59.281zM359.076 24.661h59.283v59.283h-59.283zM296.076 86.66h59.283v59.283h-59.283zM359.076 86.66H481.73v121.334H359.076zM485.743 86.66h122.654v59.283H485.743zM359.076 211.16h186.616v59.283H359.076zM422.09 24.661h59.282v59.283H422.09zM485.41 148.994h59.282v59.281H485.41zM549.423 148.994h59.282v121.449h-59.282zM296.076 148.994h59.283v121.449h-59.283zM485.104 24.661h59.28v59.283h-59.28zM548.114 24.661h59.283v59.283h-59.283z"/><path fill="#F8F8F8" d="M485.266 24.849h58.954v9.943h-58.954z"/><path fill="#EFEFEF" d="M544.384 34.979h-59.281V24.661h59.281v10.318zm-58.955-.375h58.629v-9.568h-58.629v9.568z"/><path fill="#FFF" d="M485.266 34.604h58.954v9.942h-58.954z"/><path fill="#EFEFEF" d="M544.384 44.735h-59.281V34.417h59.281v10.318zm-58.955-.376h58.629v-9.567h-58.629v9.567z"/><path fill="#FFF" d="M485.266 44.407h58.954v9.943h-58.954z"/><path fill="#EFEFEF" d="M544.384 54.537h-59.281V44.219h59.281v10.318zm-58.955-.375h58.629v-9.567h-58.629v9.567z"/><path fill="#FFF" d="M485.266 54.209h58.954v9.943h-58.954z"/><path fill="#EFEFEF" d="M544.384 64.34h-59.281V54.021h59.281V64.34zm-58.955-.376h58.629v-9.568h-58.629v9.568z"/><path fill="#FFF" d="M485.266 64.011h58.954v9.942h-58.954z"/><path fill="#EFEFEF" d="M544.384 74.141h-59.281V63.824h59.281v10.317zm-58.955-.375h58.629v-9.568h-58.629v9.568z"/><path fill="#FFF" d="M485.266 73.812h58.954v9.943h-58.954z"/><path fill="#EFEFEF" d="M544.384 83.943h-59.281V73.626h59.281v10.317zm-58.955-.375h58.629V74h-58.629v9.568z"/><path fill="#E8E8E8" d="M521.69 40.795h-32.845c-.539 0-.975-.503-.975-1.125s.436-1.125.975-1.125h32.845c.54 0 .979.503.979 1.125s-.439 1.125-.979 1.125zM525.817 80.441h-36.972c-.539 0-.976-.504-.976-1.125s.437-1.125.976-1.125h36.972c.54 0 .979.504.979 1.125s-.439 1.125-.979 1.125zM528.587 70.529h-39.738c-.54 0-.977-.504-.977-1.125s.437-1.125.977-1.125h39.738c.541 0 .979.504.979 1.125-.002.621-.438 1.125-.979 1.125zM519.954 60.617h-31.105c-.54 0-.977-.504-.977-1.125s.437-1.125.977-1.125h31.105c.54 0 .979.504.979 1.125-.001.623-.439 1.125-.979 1.125zM528.587 50.707h-39.738c-.54 0-.977-.504-.977-1.125 0-.622.437-1.127.977-1.127h39.738c.541 0 .979.505.979 1.127-.002.619-.438 1.125-.979 1.125z"/><path fill="#C6C6C6" d="M513.874 31.165h-25.025c-.54 0-.977-.504-.977-1.125 0-.622.437-1.126.977-1.126h25.025c.541 0 .979.504.979 1.126-.001.62-.438 1.125-.979 1.125z"/><path fill="#FFF" d="M549.423 148.994h59.281v59.283h-59.281z"/><path fill="#F8F8F8" d="M549.587 149.191h58.955v10.484h-58.955z"/><path fill="#EFEFEF" d="M608.705 159.873h-59.28v-10.879h59.28v10.879zm-58.954-.394h58.629v-10.087h-58.629v10.087z"/><path fill="#FFF" d="M549.587 159.479h58.955v10.483h-58.955z"/><path fill="#EFEFEF" d="M608.705 170.158h-59.28v-10.879h59.28v10.879zm-58.954-.394h58.629v-10.088h-58.629v10.088z"/><path fill="#FFF" d="M549.587 169.812h58.955v10.482h-58.955z"/><path fill="#EFEFEF" d="M608.705 180.494h-59.28v-10.879h59.28v10.879zm-58.954-.394h58.629v-10.089h-58.629V180.1z"/><path fill="#FFF" d="M549.587 180.148h58.955v10.481h-58.955z"/><path fill="#EFEFEF" d="M608.705 190.828h-59.28v-10.879h59.28v10.879zm-58.954-.394h58.629v-10.088h-58.629v10.088z"/><path fill="#FFF" d="M549.587 190.482h58.955v10.482h-58.955z"/><path fill="#EFEFEF" d="M608.705 201.164h-59.28v-10.881h59.28v10.881zm-58.954-.394h58.629v-10.09h-58.629v10.09z"/><path fill="#FFF" d="M549.587 200.818h58.955V211.3h-58.955z"/><path fill="#EFEFEF" d="M608.705 211.498h-59.28v-10.879h59.28v10.879zm-58.954-.394h58.629v-10.088h-58.629v10.088z"/><path fill="#E8E8E8" d="M586.011 166.006h-32.842c-.541 0-.977-.531-.977-1.188 0-.657.436-1.188.977-1.188h32.842c.541 0 .979.531.979 1.188 0 .657-.438 1.188-.979 1.188zM590.138 207.807h-36.969c-.541 0-.977-.531-.977-1.188 0-.657.436-1.188.977-1.188h36.969c.541 0 .979.53.979 1.188 0 .656-.438 1.188-.979 1.188zM592.908 197.357h-39.739c-.539 0-.976-.533-.976-1.188 0-.657.437-1.188.976-1.188h39.739c.54 0 .978.529.978 1.188 0 .655-.438 1.188-.978 1.188zM584.275 186.906h-31.106c-.539 0-.976-.531-.976-1.188 0-.653.437-1.188.976-1.188h31.106c.54 0 .978.532.978 1.188s-.438 1.188-.978 1.188zM592.908 176.455h-39.739c-.539 0-.976-.532-.976-1.188 0-.654.437-1.188.976-1.188h39.739c.54 0 .978.53.978 1.188 0 .656-.438 1.188-.978 1.188z"/><path fill="#C6C6C6" d="M578.195 155.852h-25.026c-.539 0-.976-.531-.976-1.188 0-.655.437-1.188.976-1.188h25.026c.54 0 .978.531.978 1.188s-.438 1.188-.978 1.188z"/><path fill="#FFF" d="M549.423 208.246h59.281v59.283h-59.281z"/><path fill="#F8F8F8" d="M549.587 211.436h58.955v9.942h-58.955z"/><path fill="#EFEFEF" d="M608.705 221.566h-59.28v-10.318h59.28v10.318zm-58.954-.375h58.629v-9.568h-58.629v9.568z"/><path fill="#FFF" d="M549.587 221.191h58.955v9.941h-58.955z"/><path fill="#EFEFEF" d="M608.705 231.322h-59.28v-10.319h59.28v10.319zm-58.954-.377h58.629v-9.566h-58.629v9.566z"/><path fill="#FFF" d="M549.587 230.992h58.955v9.941h-58.955z"/><path fill="#EFEFEF" d="M608.705 241.123h-59.28v-10.316h59.28v10.316zm-58.954-.375h58.629v-9.566h-58.629v9.566z"/><path fill="#FFF" d="M549.587 240.795h58.955v9.941h-58.955z"/><path fill="#EFEFEF" d="M608.705 250.926h-59.28v-10.318h59.28v10.318zm-58.954-.376h58.629v-9.567h-58.629v9.567z"/><path fill="#FFF" d="M549.587 250.598h58.955v9.941h-58.955z"/><path fill="#EFEFEF" d="M608.705 260.729h-59.28V250.41h59.28v10.319zm-58.954-.375h58.629v-9.567h-58.629v9.567z"/><path fill="#FFF" d="M549.587 260.4h58.955v9.941h-58.955z"/><path fill="#EFEFEF" d="M608.705 270.531h-59.28v-10.318h59.28v10.318zm-58.954-.377h58.629v-9.566h-58.629v9.566z"/><path fill="#E8E8E8" d="M586.011 227.382h-32.842c-.541 0-.977-.504-.977-1.126s.436-1.126.977-1.126h32.842c.541 0 .979.504.979 1.126s-.438 1.126-.979 1.126zM590.138 267.029h-36.969c-.541 0-.977-.506-.977-1.127s.436-1.125.977-1.125h36.969c.541 0 .979.504.979 1.125s-.438 1.127-.979 1.127zM592.908 257.115h-39.739c-.539 0-.976-.504-.976-1.125 0-.623.437-1.125.976-1.125h39.739c.54 0 .978.502.978 1.125s-.438 1.125-.978 1.125zM584.275 247.203h-31.106c-.539 0-.976-.504-.976-1.125s.437-1.125.976-1.125h31.106c.54 0 .978.504.978 1.125s-.438 1.125-.978 1.125zM592.908 237.293h-39.739c-.539 0-.976-.506-.976-1.126 0-.621.437-1.125.976-1.125h39.739c.54 0 .978.504.978 1.125 0 .62-.438 1.126-.978 1.126z"/><path fill="#C6C6C6" d="M578.195 217.751h-25.026c-.539 0-.976-.505-.976-1.125 0-.622.437-1.128.976-1.128h25.026c.54 0 .978.506.978 1.128 0 .62-.438 1.125-.978 1.125z"/><path fill="#FFF" stroke="#EFEFEF" stroke-width=".365" stroke-miterlimit="10" d="M545.692 219.906v50.539H359.076v-50.539M405.351 219.803v-8.167h47.519v8.167"/><path fill="none" stroke="#E8E8E8" stroke-width="2.19" stroke-linecap="round" stroke-miterlimit="10" d="M410.107 215.796h33.538"/><path fill="#F8F8F8" stroke="#EFEFEF" stroke-width=".365" stroke-miterlimit="10" d="M359.076 211.636h46.538v8.167h-46.538z"/><path fill="none" stroke="#D3D3D3" stroke-width="2.19" stroke-linecap="round" stroke-miterlimit="10" d="M363.834 215.898h23.59"/><path fill="#F8F8F8" stroke="#EFEFEF" stroke-width=".365" stroke-miterlimit="10" d="M452.778 211.636h46.537v8.167h-46.537z"/><path fill="none" stroke="#D3D3D3" stroke-width="2.19" stroke-linecap="round" stroke-miterlimit="10" d="M457.535 215.898h23.589"/><path fill="#F8F8F8" stroke="#EFEFEF" stroke-width=".365" stroke-miterlimit="10" d="M499.155 211.636h46.537v8.167h-46.537z"/><path fill="none" stroke="#D3D3D3" stroke-width="2.19" stroke-linecap="round" stroke-miterlimit="10" d="M504.241 215.898h23.589"/><path fill="#FFF" stroke="#EFEFEF" stroke-width=".295" stroke-miterlimit="10" d="M296.076 118.808h59.283v27.136h-59.283z"/><path fill="none" stroke="#E8E8E8" stroke-width="2.19" stroke-linecap="round" stroke-miterlimit="10" d="M413.479 234.697h73.629M412.992 251.462h82.88M412.992 247.271h89.086M412.992 243.078h69.737M412.992 255.652h69.737M412.992 238.889h89.086"/><path fill="none" stroke="#E8E8E8" stroke-width="1.77" stroke-linecap="round" stroke-miterlimit="10" d="M302.022 132.084h31.529M301.813 139.654h29.863M301.813 135.869h38.148"/><path fill="none" stroke="#C6C6C6" stroke-width="1.77" stroke-linecap="round" stroke-miterlimit="10" d="M301.813 124.828h24.027"/><path fill="#4BBF53" d="M386.211 59.543l-5.871-5.871-2.561 2.557 8.43 8.432 16.447-16.441-2.562-2.559-13.883 13.882z"/><path fill="#C6C6C6" d="M307.654 31.422h-7.032a.588.588 0 0 1-.586-.585c0-.323.264-.586.586-.586h7.032a.586.586 0 0 1 0 1.171zm0 2.93h-7.032a.588.588 0 0 1-.586-.586c0-.322.264-.586.586-.586h7.032a.586.586 0 1 1 0 1.172zm0 2.93h-7.032a.588.588 0 0 1-.586-.586c0-.322.264-.585.586-.585h7.032a.586.586 0 0 1 0 1.171z"/><path fill="#F8F8F8" stroke="#F8F8F8" stroke-width="1.5" stroke-linecap="round" stroke-linejoin="round" stroke-miterlimit="10" d="M428.869 33.192h46v12h-46z"/><g fill="#C84D30"><path d="M471.507 41.086c-.08 0-.16-.03-.221-.091l-3.273-3.275a.31.31 0 0 1 .438-.439l3.274 3.275a.31.31 0 0 1-.218.53z"/><path d="M468.23 41.086a.312.312 0 0 1-.219-.091.307.307 0 0 1 0-.439l3.273-3.275a.31.31 0 1 1 .438.438l-3.274 3.275a.295.295 0 0 1-.218.092z"/></g><path fill="#F8F8F8" stroke="#F8F8F8" stroke-width="1.5" stroke-linecap="round" stroke-linejoin="round" stroke-miterlimit="10" d="M428.869 48.367h46v12h-46z"/><g fill="#C84D30"><path d="M471.722 56.517a.348.348 0 0 1-.25-.104l-3.703-3.704a.353.353 0 0 1 0-.498.35.35 0 0 1 .497 0l3.704 3.706c.14.137.14.359 0 .496a.35.35 0 0 1-.248.104z"/><path d="M468.017 56.517a.336.336 0 0 1-.247-.104.345.345 0 0 1 0-.496l3.702-3.706a.351.351 0 0 1 .498 0c.14.137.14.36 0 .498l-3.704 3.704a.355.355 0 0 1-.249.104z"/></g><path fill="#F8F8F8" stroke="#F8F8F8" stroke-width="1.5" stroke-linecap="round" stroke-linejoin="round" stroke-miterlimit="10" d="M428.869 63.529h46v12h-46z"/><g fill="#C84D30"><path d="M471.507 71.424c-.08 0-.16-.03-.221-.091l-3.275-3.275a.316.316 0 0 1 0-.44.31.31 0 0 1 .439 0l3.274 3.275a.31.31 0 0 1 0 .439.296.296 0 0 1-.217.092z"/><path d="M468.23 71.424a.31.31 0 0 1-.221-.53l3.275-3.274a.306.306 0 0 1 .438 0 .31.31 0 0 1 0 .438l-3.274 3.275a.298.298 0 0 1-.218.091z"/></g><path fill="#B9DDEA" d="M296.171 86.662h59.095v32.146h-59.095z"/><path fill="none" stroke="#A3C3CC" stroke-width=".59" stroke-miterlimit="10" d="M296.171 86.662l59.095 32.146M296.171 118.808l59.095-32.146"/><path fill="#B9DDEA" d="M487.628 151.996h54.849v53.279h-54.849z"/><path fill="none" stroke="#A3C3CC" stroke-width=".732" stroke-miterlimit="10" d="M487.628 151.996l54.848 53.279M487.628 205.275l54.848-53.279"/><circle fill="#B9DDEA" cx="384.424" cy="245.499" r="15.417"/><path fill="none" stroke="#A3C3CC" stroke-width=".571" stroke-miterlimit="10" d="M373.564 234.641l21.718 21.718M373.564 256.359l21.718-21.718"/><g><path fill="none" stroke="#FFF" stroke-width="4.846" stroke-linecap="round" stroke-miterlimit="10" d="M303.629 156.607h18.521"/><circle fill="#C84D30" cx="303.727" cy="156.608" r="1.39"/><path fill="none" stroke="#DFDFDF" stroke-width="1.615" stroke-linecap="round" stroke-miterlimit="10" d="M306.86 156.607h14.669"/></g><g><path fill="none" stroke="#FFF" stroke-width="4.846" stroke-linecap="round" stroke-miterlimit="10" d="M303.629 166.171h28.861"/><circle fill="#E99141" cx="303.531" cy="166.257" r="1.39"/><path fill="none" stroke="#DFDFDF" stroke-width="1.615" stroke-linecap="round" stroke-miterlimit="10" d="M306.86 166.171h25.63"/></g><g><path fill="none" stroke="#FFF" stroke-width="4.846" stroke-linecap="round" stroke-miterlimit="10" d="M303.629 175.949h12.923"/><circle fill="#FEE864" cx="303.844" cy="175.907" r="1.39"/><path fill="none" stroke="#DFDFDF" stroke-width="1.615" stroke-linecap="round" stroke-miterlimit="10" d="M306.86 175.949h9.692"/></g><g><path fill="none" stroke="#FFF" stroke-width="4.846" stroke-linecap="round" stroke-miterlimit="10" d="M303.629 185.512h25.848"/><circle fill="#CCDE91" cx="303.844" cy="185.555" r="1.391"/><path fill="none" stroke="#DFDFDF" stroke-width="1.615" stroke-linecap="round" stroke-miterlimit="10" d="M306.86 185.512h21.753"/></g><g><path fill="none" stroke="#FFF" stroke-width="4.846" stroke-linecap="round" stroke-miterlimit="10" d="M303.629 194.762h32.521"/><circle fill="#A3C855" cx="303.629" cy="195.204" r="1.39"/><path fill="none" stroke="#DFDFDF" stroke-width="1.615" stroke-linecap="round" stroke-miterlimit="10" d="M306.86 194.762h28.431"/></g><g><path fill="none" stroke="#FFF" stroke-width="4.846" stroke-linecap="round" stroke-miterlimit="10" d="M303.629 204.639h23.692"/><circle fill="#3EA349" cx="303.844" cy="204.854" r="1.39"/><path fill="none" stroke="#DFDFDF" stroke-width="1.615" stroke-linecap="round" stroke-miterlimit="10" d="M306.86 204.639h19.384"/></g><g><path fill="none" stroke="#FFF" stroke-width="4.846" stroke-linecap="round" stroke-miterlimit="10" d="M302.937 48.24h23.692"/><circle fill="#3EA349" cx="303.151" cy="48.456" r="1.39"/><path fill="none" stroke="#DFDFDF" stroke-width="1.615" stroke-linecap="round" stroke-miterlimit="10" d="M306.167 48.24h19.384"/></g><g><path fill="none" stroke="#FFF" stroke-width="4.846" stroke-linecap="round" stroke-miterlimit="10" d="M302.937 54.322h23.692"/><circle fill="#3EA349" cx="303.151" cy="54.537" r="1.39"/><path fill="none" stroke="#DFDFDF" stroke-width="1.615" stroke-linecap="round" stroke-miterlimit="10" d="M306.167 54.322h19.384"/></g><g><path fill="none" stroke="#FFF" stroke-width="4.846" stroke-linecap="round" stroke-miterlimit="10" d="M302.937 60.402h23.692"/><circle fill="#3EA349" cx="303.151" cy="60.619" r="1.39"/><path fill="none" stroke="#DFDFDF" stroke-width="1.615" stroke-linecap="round" stroke-miterlimit="10" d="M306.167 60.402h19.384"/></g><g><path fill="none" stroke="#FFF" stroke-width="4.846" stroke-linecap="round" stroke-miterlimit="10" d="M303.629 213.68h18.521"/><circle fill="#C84D30" cx="303.727" cy="213.681" r="1.39"/><path fill="none" stroke="#DFDFDF" stroke-width="1.615" stroke-linecap="round" stroke-miterlimit="10" d="M306.86 213.68h14.669"/></g><g><path fill="none" stroke="#FFF" stroke-width="4.846" stroke-linecap="round" stroke-miterlimit="10" d="M303.629 223.242h28.861"/><circle fill="#E99141" cx="303.531" cy="223.33" r="1.391"/><path fill="none" stroke="#DFDFDF" stroke-width="1.615" stroke-linecap="round" stroke-miterlimit="10" d="M306.86 223.242h25.63"/></g><g><path fill="none" stroke="#FFF" stroke-width="4.846" stroke-linecap="round" stroke-miterlimit="10" d="M303.629 233.021h12.923"/><circle fill="#FEE864" cx="303.844" cy="232.979" r="1.39"/><path fill="none" stroke="#DFDFDF" stroke-width="1.615" stroke-linecap="round" stroke-miterlimit="10" d="M306.86 233.021h9.692"/></g><g><path fill="none" stroke="#FFF" stroke-width="4.846" stroke-linecap="round" stroke-miterlimit="10" d="M303.629 242.584h25.848"/><circle fill="#CCDE91" cx="303.844" cy="242.626" r="1.39"/><path fill="none" stroke="#DFDFDF" stroke-width="1.615" stroke-linecap="round" stroke-miterlimit="10" d="M306.86 242.584h21.753"/></g><g><path fill="none" stroke="#FFF" stroke-width="4.846" stroke-linecap="round" stroke-miterlimit="10" d="M303.629 251.834h32.521"/><circle fill="#A3C855" cx="303.629" cy="252.277" r="1.39"/><path fill="none" stroke="#DFDFDF" stroke-width="1.615" stroke-linecap="round" stroke-miterlimit="10" d="M306.86 251.834h28.431"/></g><g><path fill="none" stroke="#FFF" stroke-width="4.846" stroke-linecap="round" stroke-miterlimit="10" d="M303.629 261.71h23.692"/><circle fill="#3EA349" cx="303.844" cy="261.926" r="1.391"/><path fill="none" stroke="#DFDFDF" stroke-width="1.615" stroke-linecap="round" stroke-miterlimit="10" d="M306.86 261.71h19.384"/></g><path fill="#FFF" stroke="#EFEFEF" stroke-width=".499" stroke-miterlimit="10" d="M359.077 86.66H481.73v121.334H359.077z"/><path fill="#007AC2" stroke="#007AB7" stroke-width=".499" stroke-miterlimit="10" d="M418.52 184.734h20.748v12.271H418.52z"/><path fill="none" stroke="#007AB7" stroke-width=".499" stroke-miterlimit="10" d="M443.085 184.734h29.67v12.271h-29.67z"/><path fill="#007AC2" stroke="#007AB7" stroke-width=".271" stroke-miterlimit="10" d="M320.852 72.205h11.246v6.649h-11.246z"/><path fill="none" stroke="#007AB7" stroke-width=".271" stroke-miterlimit="10" d="M334.166 72.205h16.082v6.649h-16.082z"/><path fill="none" stroke="#E8E8E8" stroke-width="2.995" stroke-linecap="round" stroke-miterlimit="10" d="M372.385 115.447h47.636M373.645 171.193h36.629M372.068 144.146h53.624M372.068 136.972h57.641M372.068 129.798h45.12M372.068 151.322h45.12M372.068 122.623h57.641"/><path fill="none" stroke="#C6C6C6" stroke-width="2.995" stroke-linecap="round" stroke-miterlimit="10" d="M372.068 101.695h36.3"/><path fill="none" stroke="#E8E8E8" stroke-width="2.995" stroke-linecap="round" stroke-miterlimit="10" d="M553.572 47.986h47.638"/><path fill="none" stroke="#E8E8E8" stroke-width="2.377" stroke-linecap="round" stroke-miterlimit="10" d="M553.257 69.511h36.299"/><path fill="none" stroke="#E8E8E8" stroke-width="2.995" stroke-linecap="round" stroke-miterlimit="10" d="M553.257 62.336h45.119"/><path fill="none" stroke="#E8E8E8" stroke-width="2.531" stroke-linecap="round" stroke-miterlimit="10" d="M553.257 55.16h41.144"/><path fill="none" stroke="#C6C6C6" stroke-width="2.995" stroke-linecap="round" stroke-miterlimit="10" d="M553.257 34.234h36.299"/><g fill="#007AC2"><path d="M471.369 105.164a.708.708 0 0 1-.509-.211l-7.564-7.562a.716.716 0 0 1 0-1.015.72.72 0 0 1 1.017 0l7.563 7.562a.72.72 0 0 1-.507 1.226z"/><path d="M463.804 105.164a.716.716 0 0 1-.508-1.226l7.563-7.562a.718.718 0 0 1 1.015 1.015l-7.564 7.562a.71.71 0 0 1-.506.211z"/></g><circle fill="#00B1DC" cx="517.365" cy="117.598" r="19.639"/><path fill="#B9DDEA" stroke="#FFF" stroke-width="3.041" stroke-miterlimit="10" d="M517.365 117.598h18.974c0-10.479-8.494-18.973-18.974-18.973s-18.974 8.494-18.974 18.973 8.493 18.973 18.974 18.973c3.122 0 6.062-.758 8.66-2.093l-8.66-16.88z"/><path fill="#4BBF53" stroke="#FFF" stroke-miterlimit="10" d="M518.365 117.598h22.302c0-12.316-9.984-22.301-22.302-22.301a22.28 22.28 0 0 0-7.435 1.273l7.435 21.028z"/><circle fill="#FFF" cx="517.365" cy="117.598" r="12.465"/><path fill="none" stroke="#E8E8E8" stroke-width="2.531" stroke-linecap="round" stroke-miterlimit="10" d="M540.729 130.084h47.235M542.667 102.75h47.234"/><path fill="none" stroke="#E8E8E8" stroke-width="2.303" stroke-linecap="round" stroke-miterlimit="10" d="M550.79 108.553h39.111"/><path fill="#FFF" stroke="#EFEFEF" stroke-width=".334" stroke-miterlimit="10" d="M14.809 24.911h270.412v24.675H14.809V24.911z"/><path fill="none" stroke="#C6C6C6" stroke-width="3.079" stroke-linecap="round" stroke-miterlimit="10" d="M21.251 38.854h32.75"/><path fill="none" stroke="#DFDFDF" stroke-width="2.281" stroke-linecap="round" stroke-miterlimit="10" d="M68.505 38.854h20.813m9.353 0h20.813m9.354 0h20.812m9.355 0h20.812"/><path fill="#DFDFDF" d="M275.812 39.999l-1.433-1.434c-.093-.139-.278-.139-.417 0l-.527-.529c.879-1.079.818-2.694-.211-3.68-1.064-1.064-2.822-1.064-3.931 0-1.063 1.063-1.063 2.821 0 3.931.999 1 2.601 1.048 3.713.171l.533.532c-.128.095-.126.272.008.407l1.433 1.434c.093.14.277.14.417 0l.417-.417c.137-.091.137-.275-.002-.415zm-5.919-2.312c-.739-.786-.786-1.988 0-2.774s2.036-.786 2.775 0c.786.787.786 1.99 0 2.774-.787.786-2.035.786-2.775 0z"/><path fill="#007AC2" d="M128.732 24.236h21.116v2.263h-21.116v-2.263z"/><g><path fill="#F8F8F8" d="M14.809 110.969h270.412v55.656H14.809v-55.656z"/><path fill="none" stroke="#E8E8E8" stroke-width="3.434" stroke-linecap="round" stroke-miterlimit="10" d="M123.392 140.539h43.043m-43.328 16.798h40.768m-40.768-8.399h52.082"/><path fill="none" stroke="#C6C6C6" stroke-width="3.434" stroke-linecap="round" stroke-miterlimit="10" d="M123.107 125.949h32.799"/><path fill="none" stroke="#C6C6C6" stroke-width="4.525" stroke-linecap="round" stroke-miterlimit="10" d="M48.488 130.889h32.799"/><path fill="none" stroke="#E8E8E8" stroke-width="3.434" stroke-linecap="round" stroke-miterlimit="10" d="M187.561 140.539h34.852m-35.137 16.798h40.768m-40.768-8.399h25.889"/><path fill="none" stroke="#C6C6C6" stroke-width="3.434" stroke-linecap="round" stroke-miterlimit="10" d="M187.276 125.949h45.648"/><path fill="none" stroke="#E8E8E8" stroke-width="3.434" stroke-linecap="round" stroke-miterlimit="10" d="M243.981 140.539h34.851m-35.137 16.798h20.384m-20.384-8.399h35.137"/><path fill="none" stroke="#C6C6C6" stroke-width="3.434" stroke-linecap="round" stroke-miterlimit="10" d="M243.695 125.949h19.396"/><path fill="none" stroke="#DFDFDF" stroke-width="2.281" stroke-linecap="round" stroke-miterlimit="10" d="M40.965 144.329h20.812m9.612 0h20.812"/></g><g><path fill="#052942" d="M14.809 53.035h270.412v41.05H14.809v-41.05z"/><path fill="#FFF" d="M14.809 94.084h270.412v13.436H14.809V94.084z"/><path fill="none" stroke="#FFF" stroke-width="4.525" stroke-linecap="round" stroke-miterlimit="10" d="M23.514 70.416h32.75"/><path fill="#FFF" d="M64.487 97.322V83.75h42.854v13.572"/><path fill="none" stroke="#E8E8E8" stroke-width="2.34" stroke-linecap="round" stroke-miterlimit="10" d="M68.777 89.016h30.244"/><path opacity=".3" d="M21.251 83.75h41.968v10.335H21.251V83.75z"/><path fill="none" stroke="#D3D3D3" stroke-width="2.34" stroke-linecap="round" stroke-miterlimit="10" d="M25.541 89.146h21.273"/><path opacity=".3" d="M108.767 83.75h41.968v10.335h-41.968V83.75z"/><path fill="none" stroke="#D3D3D3" stroke-width="2.34" stroke-linecap="round" stroke-miterlimit="10" d="M113.057 89.146h21.272"/><path opacity=".3" d="M151.342 83.75h41.969v10.335h-41.969V83.75z"/><path fill="none" stroke="#D3D3D3" stroke-width="2.34" stroke-linecap="round" stroke-miterlimit="10" d="M155.93 89.146h21.273"/></g><g><path fill="#FFF" d="M22.834 268.697h-8.025l31.081-71.914H53l30.879 71.914h-8.125l-7.923-18.893H30.656l-7.822 18.893zm10.563-25.595h31.691l-15.845-38.19-15.846 38.19zm90.604-5.168c0-4.102-1.085-7.158-3.251-9.177-2.167-2.016-5.317-3.024-9.446-3.024-2.845 0-5.486.507-7.923 1.522-2.437 1.017-4.503 2.372-6.194 4.062l-3.859-4.569c1.961-1.961 4.555-3.589 7.771-4.875 3.215-1.284 6.855-1.933 10.919-1.933 2.572 0 4.977.354 7.211 1.067 2.235.712 4.197 1.777 5.89 3.199 1.692 1.424 3.011 3.216 3.963 5.384.947 2.169 1.422 4.707 1.422 7.617v20.822c0 1.828.067 3.727.203 5.688.135 1.966.339 3.624.61 4.978h-6.197a51.458 51.458 0 0 1-.507-3.758 39.927 39.927 0 0 1-.202-3.963h-.204c-2.167 3.185-4.621 5.471-7.364 6.855-2.744 1.389-6.044 2.083-9.903 2.083-1.828 0-3.708-.255-5.637-.763a15.754 15.754 0 0 1-5.282-2.498c-1.593-1.155-2.913-2.649-3.962-4.484-1.052-1.834-1.574-4.077-1.574-6.729 0-3.67.931-6.572 2.793-8.713 1.862-2.139 4.351-3.736 7.465-4.789 3.116-1.056 6.687-1.732 10.715-2.039 4.027-.307 8.21-.459 12.544-.459l-.001-1.504zm-2.031 6.996c-2.845 0-5.706.12-8.583.354-2.88.239-5.485.713-7.823 1.426-2.334.71-4.249 1.743-5.739 3.097-1.49 1.355-2.235 3.146-2.235 5.383 0 1.692.322 3.117.965 4.266a7.895 7.895 0 0 0 2.589 2.794 10.891 10.891 0 0 0 3.606 1.522c1.318.306 2.658.461 4.012.461 2.438 0 4.605-.424 6.502-1.271 1.894-.847 3.486-1.997 4.773-3.456 1.286-1.454 2.269-3.132 2.948-5.028a17.728 17.728 0 0 0 1.016-5.992v-3.555h-2.031v-.001z"/></g><g><path fill="#FFF" d="M162.836 217.102h-2.973l11.514-26.646h2.634l11.441 26.646h-3.01l-2.935-7.002h-13.775l-2.896 7.002zm3.914-9.487h11.742l-5.871-14.148-5.871 14.148zm9.521-22.506a3.533 3.533 0 0 1-1.073 2.56 3.662 3.662 0 0 1-2.541 1.016 3.593 3.593 0 0 1-1.393-.263 3.674 3.674 0 0 1-1.148-.753 3.516 3.516 0 0 1-1.073-2.56c0-.5.095-.971.282-1.409a3.27 3.27 0 0 1 .791-1.128 4.158 4.158 0 0 1 1.148-.754 3.403 3.403 0 0 1 1.393-.282c.476 0 .934.093 1.373.282.43.183.825.438 1.168.754.338.312.602.689.79 1.128.189.439.283.909.283 1.409zm-1.355 0c0-.625-.22-1.151-.659-1.578a2.205 2.205 0 0 0-1.599-.641c-.628 0-1.161.213-1.599.641a2.115 2.115 0 0 0-.659 1.578c0 .629.218 1.156.659 1.582.438.428.971.641 1.599.641.627 0 1.161-.213 1.599-.641.439-.423.659-.953.659-1.582zm25.402 20.592c0-1.518-.402-2.651-1.205-3.398-.804-.748-1.969-1.121-3.5-1.121a7.588 7.588 0 0 0-2.936.563c-.903.376-1.668.878-2.295 1.505l-1.431-1.691c.727-.729 1.688-1.33 2.879-1.808s2.54-.715 4.046-.715c.954 0 1.845.132 2.671.394.799.25 1.541.651 2.184 1.187a5.346 5.346 0 0 1 1.468 1.995c.35.802.524 1.744.524 2.82v7.717c0 .678.027 1.379.077 2.105.05.729.125 1.342.224 1.846h-2.295c-.08-.463-.143-.928-.188-1.394a14.997 14.997 0 0 1-.075-1.467h-.074c-.804 1.178-1.711 2.024-2.727 2.538-1.017.514-2.24.771-3.67.771a8.283 8.283 0 0 1-2.088-.281 5.897 5.897 0 0 1-1.958-.926 5.209 5.209 0 0 1-1.468-1.662c-.39-.681-.582-1.511-.582-2.492 0-1.36.344-2.437 1.033-3.229.691-.792 1.612-1.385 2.766-1.772 1.155-.392 2.479-.644 3.972-.756a62.104 62.104 0 0 1 4.647-.172l.001-.557zm-.754 2.593c-1.053 0-2.113.043-3.18.131a14.033 14.033 0 0 0-2.896.527c-.865.264-1.575.646-2.126 1.147-.551.5-.828 1.166-.828 1.994 0 .629.118 1.154.357 1.579.238.429.558.774.96 1.036.408.268.86.458 1.336.562.487.113.983.17 1.486.17.903 0 1.705-.155 2.409-.471a5.059 5.059 0 0 0 1.768-1.279 5.61 5.61 0 0 0 1.091-1.862c.25-.703.377-1.443.377-2.22v-1.318h-.754v.004zm-.149-15.655a3.533 3.533 0 0 1-2.239 3.313 3.635 3.635 0 0 1-1.375.263 3.603 3.603 0 0 1-1.392-.263 3.63 3.63 0 0 1-1.147-.753 3.488 3.488 0 0 1-.791-1.146 3.552 3.552 0 0 1-.282-1.413c0-.5.094-.972.282-1.408.18-.43.449-.814.791-1.129a4.138 4.138 0 0 1 1.147-.754 3.418 3.418 0 0 1 1.392-.281c.472-.002.94.095 1.375.281.428.184.823.437 1.166.754.338.312.602.689.79 1.129.189.434.283.907.283 1.407zm-1.354 0c0-.627-.221-1.152-.66-1.58a2.211 2.211 0 0 0-1.599-.641c-.626 0-1.161.215-1.599.641a2.12 2.12 0 0 0-.658 1.58c0 .629.219 1.154.658 1.58.438.428.972.641 1.599.641s1.161-.213 1.599-.641c.439-.426.66-.951.66-1.58z"/></g><g><path fill="#FFF" d="M227.058 217.102h-2.973l11.516-26.646h2.635l11.439 26.646h-3.01l-2.935-7.002h-13.775l-2.897 7.002zm3.915-9.487h11.741l-5.872-14.148-5.869 14.148zm6.999-19.265h-2.22l3.764-5.42h3.424l-4.968 5.42zm26.569 17.351c0-1.518-.402-2.651-1.205-3.398-.802-.748-1.968-1.121-3.5-1.121a7.577 7.577 0 0 0-2.936.563c-.902.376-1.667.878-2.296 1.505l-1.43-1.691c.727-.729 1.688-1.33 2.879-1.808 1.192-.478 2.541-.715 4.047-.715a8.81 8.81 0 0 1 2.671.394c.799.25 1.54.651 2.183 1.187a5.346 5.346 0 0 1 1.468 1.995c.352.802.526 1.744.526 2.82v7.717c0 .678.024 1.379.074 2.105.052.729.127 1.342.227 1.846h-2.296a20.543 20.543 0 0 1-.188-1.394 15.315 15.315 0 0 1-.075-1.467h-.075c-.804 1.178-1.712 2.024-2.727 2.538-1.017.514-2.24.771-3.67.771a8.27 8.27 0 0 1-2.087-.281 5.911 5.911 0 0 1-1.959-.926 5.233 5.233 0 0 1-1.468-1.662c-.388-.682-.582-1.511-.582-2.492 0-1.36.344-2.437 1.034-3.229.69-.792 1.612-1.385 2.766-1.772 1.155-.392 2.477-.644 3.969-.756a62.177 62.177 0 0 1 4.649-.172l.001-.557zm-.753 2.593c-1.055 0-2.113.043-3.179.131a14.04 14.04 0 0 0-2.898.527c-.864.264-1.575.646-2.125 1.147-.553.502-.83 1.166-.83 1.994 0 .629.119 1.154.358 1.579.238.429.558.774.96 1.036.407.268.859.458 1.334.562.492.113.985.17 1.488.17.902 0 1.706-.155 2.408-.471a5.072 5.072 0 0 0 1.769-1.279 5.59 5.59 0 0 0 1.09-1.862 6.527 6.527 0 0 0 .377-2.22v-1.318h-.753l.001.004zm-3.424-12.42h-2.222l3.766-5.418h3.424l-4.968 5.418z"/></g><g><path fill="#FFF" d="M162.836 268.499h-2.973l11.516-26.646h2.633l11.441 26.646h-3.01l-2.936-7h-13.773l-2.898 7zm3.914-9.485h11.742l-5.871-14.148-5.871 14.148zm.414-22.391c0-.503.174-.945.526-1.336.351-.391.814-.583 1.393-.583.576 0 1.039.192 1.393.583.35.391.526.833.526 1.336 0 .504-.176.945-.526 1.335-.354.392-.816.583-1.393.583-.579 0-1.042-.191-1.393-.583a1.927 1.927 0 0 1-.526-1.335zm7.225 0c0-.503.175-.945.527-1.336s.814-.583 1.393-.583c.576 0 1.041.192 1.393.583s.526.833.526 1.336c0 .504-.176.945-.526 1.335-.352.392-.816.583-1.393.583-.579 0-1.041-.191-1.393-.583a1.928 1.928 0 0 1-.527-1.335zm25.929 20.479c0-1.52-.402-2.653-1.205-3.399-.804-.748-1.969-1.122-3.5-1.122a7.534 7.534 0 0 0-2.936.566 6.964 6.964 0 0 0-2.295 1.504l-1.431-1.694c.727-.728 1.688-1.328 2.879-1.808 1.192-.474 2.54-.715 4.046-.715a8.76 8.76 0 0 1 2.671.396 6.33 6.33 0 0 1 2.184 1.186 5.368 5.368 0 0 1 1.467 1.995c.352.802.526 1.744.526 2.822v7.715c0 .679.027 1.379.077 2.106.048.729.125 1.344.224 1.846h-2.294a18.691 18.691 0 0 1-.189-1.395 14.675 14.675 0 0 1-.074-1.467h-.075c-.804 1.178-1.711 2.025-2.727 2.541-1.017.514-2.24.771-3.67.771a8.14 8.14 0 0 1-2.088-.282 5.845 5.845 0 0 1-1.958-.925 5.225 5.225 0 0 1-1.469-1.661c-.389-.68-.581-1.51-.581-2.492 0-1.361.344-2.436 1.033-3.229.69-.793 1.612-1.385 2.766-1.774 1.155-.392 2.479-.642 3.97-.756a63.242 63.242 0 0 1 4.649-.169v-.56zm-10.011-12.952c0-.502.177-.946.527-1.336.352-.39.814-.584 1.393-.584.577 0 1.041.194 1.393.584s.526.834.526 1.336c0 .5-.176.947-.526 1.336-.352.389-.815.582-1.393.582s-1.041-.193-1.393-.582a1.939 1.939 0 0 1-.527-1.336zm9.257 15.541c-1.053 0-2.113.043-3.18.132-1.065.089-2.031.264-2.896.526-.865.265-1.575.646-2.126 1.147-.551.501-.828 1.166-.828 1.993 0 .629.118 1.154.355 1.58.231.419.561.773.961 1.037.401.263.846.449 1.334.563.488.11.987.167 1.488.167.903 0 1.705-.154 2.409-.469a5.074 5.074 0 0 0 1.768-1.28 5.64 5.64 0 0 0 1.091-1.862c.253-.713.38-1.465.377-2.221v-1.314h-.753v.001zm-2.031-15.541c0-.502.174-.946.527-1.336.351-.39.813-.584 1.391-.584.579 0 1.041.194 1.393.584.354.39.528.834.528 1.336 0 .5-.176.947-.528 1.336-.352.389-.813.582-1.393.582-.578 0-1.041-.193-1.391-.582a1.934 1.934 0 0 1-.527-1.336z"/></g><g><path fill="#FFF" d="M250.089 275.535a4.5 4.5 0 0 1-1.543.999 5.03 5.03 0 0 1-1.844.354 3.599 3.599 0 0 1-1.279-.225c-.803-.3-1.458-.9-1.825-1.678a2.934 2.934 0 0 1-.283-1.299c0-.522.1-1.033.301-1.521a6.43 6.43 0 0 1 .79-1.393 9.988 9.988 0 0 1 1.092-1.242c.372-.364.761-.709 1.167-1.034l-2.935-7h-13.775l-2.898 7h-2.973L235.6 241.85h2.635l11.439 26.646h-1.203c-.929.928-1.644 1.735-2.145 2.428-.501.688-.752 1.396-.752 2.124 0 .528.188.962.566 1.301.357.332.83.514 1.316.506.352 0 .695-.066 1.034-.205.338-.139.634-.346.885-.623l.714 1.508zm-19.117-16.521h11.742l-5.872-14.148-5.87 14.148zm37.481 16.521c-.44.436-.964.775-1.542.999a5.034 5.034 0 0 1-1.844.354 3.612 3.612 0 0 1-1.28-.225 3.315 3.315 0 0 1-1.825-1.678 2.953 2.953 0 0 1-.282-1.299c0-.522.101-1.033.302-1.521.204-.495.468-.964.789-1.393a9.988 9.988 0 0 1 1.092-1.242c.372-.362.76-.707 1.165-1.034h-.074a20.374 20.374 0 0 1-.188-1.394 14.113 14.113 0 0 1-.076-1.469h-.074c-.804 1.18-1.712 2.026-2.728 2.541-1.016.516-2.239.771-3.669.771a8.273 8.273 0 0 1-2.088-.282 5.856 5.856 0 0 1-1.958-.925 5.257 5.257 0 0 1-1.469-1.661c-.388-.681-.581-1.511-.581-2.492 0-1.36.344-2.437 1.034-3.229.689-.793 1.612-1.385 2.766-1.774 1.155-.39 2.476-.642 3.969-.755a61.644 61.644 0 0 1 4.649-.169v-.562c0-1.518-.402-2.651-1.205-3.397-.803-.748-1.968-1.121-3.5-1.121a7.556 7.556 0 0 0-2.936.564c-.904.375-1.669.879-2.296 1.506l-1.43-1.694c.727-.728 1.688-1.329 2.879-1.808 1.192-.476 2.541-.715 4.047-.715.951 0 1.844.133 2.669.396a6.316 6.316 0 0 1 2.185 1.186c.627.525 1.115 1.193 1.468 1.995.352.802.526 1.742.526 2.82v7.716c0 .68.024 1.38.074 2.107.05.729.127 1.342.227 1.845h-.412c-.929.928-1.646 1.735-2.148 2.428-.5.688-.751 1.396-.751 2.124 0 .528.187.962.565 1.301a1.9 1.9 0 0 0 1.315.506c.352 0 .696-.066 1.035-.205a2.42 2.42 0 0 0 .886-.623l.714 1.508zm-4.666-15.844c-1.054 0-2.112.043-3.178.132-1.067.089-2.033.264-2.898.526-.866.265-1.575.646-2.126 1.147-.552.502-.829 1.166-.829 1.993 0 .629.119 1.154.358 1.58.236.429.558.772.958 1.037.402.263.847.449 1.336.563.488.11.988.167 1.488.167.902 0 1.706-.154 2.407-.469a5.09 5.09 0 0 0 1.77-1.28 5.62 5.62 0 0 0 1.09-1.862 6.541 6.541 0 0 0 .377-2.221v-1.314h-.753v.001z"/></g></svg>