<?xml version="1.0" encoding="utf-8"?>
<!-- Generator: Adobe Illustrator 16.0.4, SVG Export Plug-In . SVG Version: 6.00 Build 0)  -->
<!DOCTYPE svg PUBLIC "-//W3C//DTD SVG 1.1//EN" "http://www.w3.org/Graphics/SVG/1.1/DTD/svg11.dtd">
<svg version="1.1" id="Layer_1" xmlns="http://www.w3.org/2000/svg" xmlns:xlink="http://www.w3.org/1999/xlink" x="0px" y="0px"
	 width="640px" height="300px" viewBox="0 0 640 300" enable-background="new 0 0 640 300" xml:space="preserve">
<rect x="-0.042" y="-0.592" fill="#B9DDEA" width="640.042" height="300.592"/>
<rect x="296.076" y="24.661" fill="#FFFFFF" width="59.282" height="59.283"/>
<rect x="359.076" y="24.661" fill="#FFFFFF" width="59.283" height="59.283"/>
<rect x="296.076" y="86.66" fill="#FFFFFF" width="59.283" height="59.283"/>
<rect x="359.076" y="86.66" fill="#FFFFFF" width="122.655" height="121.334"/>
<rect x="485.743" y="86.66" fill="#FFFFFF" width="122.654" height="59.283"/>
<rect x="359.076" y="211.16" fill="#FFFFFF" width="186.616" height="59.283"/>
<rect x="422.09" y="24.661" fill="#FFFFFF" width="59.282" height="59.283"/>
<rect x="485.41" y="148.994" fill="#FFFFFF" width="59.282" height="59.281"/>
<rect x="549.423" y="148.994" fill="#FFFFFF" width="59.282" height="121.449"/>
<rect x="296.076" y="148.994" fill="#FFFFFF" width="59.283" height="121.449"/>
<rect x="485.103" y="24.661" fill="#FFFFFF" width="59.281" height="59.283"/>
<rect x="548.114" y="24.661" fill="#FFFFFF" width="59.283" height="59.283"/>
<g>
	<g>
		<rect x="485.266" y="24.849" fill="#F8F8F8" width="58.954" height="9.943"/>
		<path fill="#EFEFEF" d="M544.384,34.979h-59.281V24.661h59.281V34.979z M485.429,34.604h58.629v-9.568h-58.629V34.604z"/>
	</g>
	<g>
		<rect x="485.266" y="34.604" fill="#FFFFFF" width="58.954" height="9.942"/>
		<path fill="#EFEFEF" d="M544.384,44.735h-59.281V34.417h59.281V44.735z M485.429,44.359h58.629v-9.567h-58.629V44.359z"/>
	</g>
	<g>
		<rect x="485.266" y="44.407" fill="#FFFFFF" width="58.954" height="9.943"/>
		<path fill="#EFEFEF" d="M544.384,54.537h-59.281V44.219h59.281V54.537z M485.429,54.162h58.629v-9.567h-58.629V54.162z"/>
	</g>
	<g>
		<rect x="485.266" y="54.209" fill="#FFFFFF" width="58.954" height="9.943"/>
		<path fill="#EFEFEF" d="M544.384,64.34h-59.281V54.021h59.281V64.34z M485.429,63.964h58.629v-9.568h-58.629V63.964z"/>
	</g>
	<g>
		<rect x="485.266" y="64.011" fill="#FFFFFF" width="58.954" height="9.942"/>
		<path fill="#EFEFEF" d="M544.384,74.141h-59.281V63.824h59.281V74.141z M485.429,73.766h58.629v-9.568h-58.629V73.766z"/>
	</g>
	<g>
		<rect x="485.266" y="73.812" fill="#FFFFFF" width="58.954" height="9.943"/>
		<path fill="#EFEFEF" d="M544.384,83.943h-59.281V73.626h59.281V83.943z M485.429,83.568h58.629V74h-58.629V83.568z"/>
	</g>
	<path fill="#E8E8E8" d="M521.69,40.795h-32.844c-0.539,0-0.975-0.503-0.975-1.125s0.436-1.125,0.975-1.125h32.844
		c0.54,0,0.979,0.503,0.979,1.125S522.23,40.795,521.69,40.795z"/>
	<path fill="#E8E8E8" d="M525.817,80.441h-36.971c-0.539,0-0.976-0.504-0.976-1.125s0.437-1.125,0.976-1.125h36.971
		c0.54,0,0.979,0.504,0.979,1.125C526.796,79.937,526.357,80.441,525.817,80.441z"/>
	<path fill="#E8E8E8" d="M528.587,70.529h-39.738c-0.54,0-0.977-0.504-0.977-1.125s0.437-1.125,0.977-1.125h39.738
		c0.541,0,0.979,0.504,0.979,1.125C529.564,70.025,529.128,70.529,528.587,70.529z"/>
	<path fill="#E8E8E8" d="M519.954,60.617h-31.105c-0.54,0-0.977-0.504-0.977-1.125s0.437-1.125,0.977-1.125h31.105
		c0.54,0,0.979,0.504,0.979,1.125C520.932,60.115,520.494,60.617,519.954,60.617z"/>
	<path fill="#E8E8E8" d="M528.587,50.707h-39.738c-0.54,0-0.977-0.504-0.977-1.125c0-0.622,0.437-1.127,0.977-1.127h39.738
		c0.541,0,0.979,0.505,0.979,1.127C529.564,50.201,529.128,50.707,528.587,50.707z"/>
	<path fill="#C6C6C6" d="M513.874,31.165h-25.025c-0.54,0-0.977-0.504-0.977-1.125c0-0.622,0.437-1.126,0.977-1.126h25.025
		c0.541,0,0.979,0.504,0.979,1.126C514.852,30.66,514.415,31.165,513.874,31.165z"/>
</g>
<rect x="549.423" y="148.994" fill="#FFFFFF" width="59.281" height="59.283"/>
<g>
	<g>
		<rect x="549.587" y="149.191" fill="#F8F8F8" width="58.955" height="10.484"/>
		<path fill="#EFEFEF" d="M608.705,159.873h-59.28v-10.879h59.28V159.873z M549.751,159.478h58.629v-10.087h-58.629V159.478z"/>
	</g>
	<g>
		<rect x="549.587" y="159.478" fill="#FFFFFF" width="58.955" height="10.484"/>
		<path fill="#EFEFEF" d="M608.705,170.158h-59.28v-10.879h59.28V170.158z M549.751,169.763h58.629v-10.087h-58.629V169.763z"/>
	</g>
	<g>
		<rect x="549.587" y="169.813" fill="#FFFFFF" width="58.955" height="10.482"/>
		<path fill="#EFEFEF" d="M608.705,180.494h-59.28v-10.879h59.28V180.494z M549.751,180.099h58.629v-10.088h-58.629V180.099z"/>
	</g>
	<g>
		<rect x="549.587" y="180.148" fill="#FFFFFF" width="58.955" height="10.482"/>
		<path fill="#EFEFEF" d="M608.705,190.828h-59.28v-10.879h59.28V190.828z M549.751,190.433h58.629v-10.087h-58.629V190.433z"/>
	</g>
	<g>
		<rect x="549.587" y="190.482" fill="#FFFFFF" width="58.955" height="10.483"/>
		<path fill="#EFEFEF" d="M608.705,201.164h-59.28v-10.881h59.28V201.164z M549.751,200.769h58.629V190.68h-58.629V200.769z"/>
	</g>
	<g>
		<rect x="549.587" y="200.818" fill="#FFFFFF" width="58.955" height="10.483"/>
		<path fill="#EFEFEF" d="M608.705,211.498h-59.28v-10.879h59.28V211.498z M549.751,211.103h58.629v-10.087h-58.629V211.103z"/>
	</g>
	<path fill="#E8E8E8" d="M586.011,166.006h-32.842c-0.541,0-0.977-0.531-0.977-1.188s0.436-1.188,0.977-1.188h32.842
		c0.541,0,0.979,0.531,0.979,1.188S586.552,166.006,586.011,166.006z"/>
	<path fill="#E8E8E8" d="M590.138,207.807h-36.969c-0.541,0-0.977-0.531-0.977-1.188s0.436-1.188,0.977-1.188h36.969
		c0.541,0,0.979,0.531,0.979,1.188S590.679,207.807,590.138,207.807z"/>
	<path fill="#E8E8E8" d="M592.908,197.357h-39.739c-0.539,0-0.976-0.533-0.976-1.188c0-0.657,0.437-1.188,0.976-1.188h39.739
		c0.54,0,0.978,0.529,0.978,1.188C593.886,196.824,593.448,197.357,592.908,197.357z"/>
	<path fill="#E8E8E8" d="M584.275,186.906h-31.106c-0.539,0-0.976-0.531-0.976-1.188c0-0.654,0.437-1.188,0.976-1.188h31.106
		c0.54,0,0.978,0.532,0.978,1.188C585.253,186.373,584.815,186.906,584.275,186.906z"/>
	<path fill="#E8E8E8" d="M592.908,176.455h-39.739c-0.539,0-0.976-0.532-0.976-1.188c0-0.654,0.437-1.188,0.976-1.188h39.739
		c0.54,0,0.978,0.531,0.978,1.188C593.886,175.923,593.448,176.455,592.908,176.455z"/>
	<path fill="#C6C6C6" d="M578.195,155.852h-25.026c-0.539,0-0.976-0.531-0.976-1.188c0-0.655,0.437-1.188,0.976-1.188h25.026
		c0.54,0,0.978,0.532,0.978,1.188C579.173,155.32,578.735,155.852,578.195,155.852z"/>
</g>
<rect x="549.423" y="208.246" fill="#FFFFFF" width="59.281" height="59.283"/>
<g>
	<g>
		<rect x="549.587" y="211.435" fill="#F8F8F8" width="58.955" height="9.943"/>
		<path fill="#EFEFEF" d="M608.705,221.566h-59.28v-10.318h59.28V221.566z M549.751,221.191h58.629v-9.568h-58.629V221.191z"/>
	</g>
	<g>
		<rect x="549.587" y="221.191" fill="#FFFFFF" width="58.955" height="9.942"/>
		<path fill="#EFEFEF" d="M608.705,231.322h-59.28v-10.319h59.28V231.322z M549.751,230.945h58.629v-9.566h-58.629V230.945z"/>
	</g>
	<g>
		<rect x="549.587" y="230.992" fill="#FFFFFF" width="58.955" height="9.942"/>
		<path fill="#EFEFEF" d="M608.705,241.123h-59.28v-10.317h59.28V241.123z M549.751,240.748h58.629v-9.567h-58.629V240.748z"/>
	</g>
	<g>
		<rect x="549.587" y="240.795" fill="#FFFFFF" width="58.955" height="9.941"/>
		<path fill="#EFEFEF" d="M608.705,250.926h-59.28v-10.318h59.28V250.926z M549.751,250.55h58.629v-9.567h-58.629V250.55z"/>
	</g>
	<g>
		<rect x="549.587" y="250.597" fill="#FFFFFF" width="58.955" height="9.942"/>
		<path fill="#EFEFEF" d="M608.705,260.728h-59.28V250.41h59.28V260.728z M549.751,260.353h58.629v-9.567h-58.629V260.353z"/>
	</g>
	<g>
		<rect x="549.587" y="260.4" fill="#FFFFFF" width="58.955" height="9.942"/>
		<path fill="#EFEFEF" d="M608.705,270.531h-59.28v-10.318h59.28V270.531z M549.751,270.154h58.629v-9.566h-58.629V270.154z"/>
	</g>
	<path fill="#E8E8E8" d="M586.011,227.382h-32.842c-0.541,0-0.977-0.504-0.977-1.126s0.436-1.126,0.977-1.126h32.842
		c0.541,0,0.979,0.504,0.979,1.126S586.552,227.382,586.011,227.382z"/>
	<path fill="#E8E8E8" d="M590.138,267.029h-36.969c-0.541,0-0.977-0.506-0.977-1.127s0.436-1.125,0.977-1.125h36.969
		c0.541,0,0.979,0.504,0.979,1.125S590.679,267.029,590.138,267.029z"/>
	<path fill="#E8E8E8" d="M592.908,257.115h-39.739c-0.539,0-0.976-0.504-0.976-1.125c0-0.623,0.437-1.125,0.976-1.125h39.739
		c0.54,0,0.978,0.502,0.978,1.125S593.448,257.115,592.908,257.115z"/>
	<path fill="#E8E8E8" d="M584.275,247.203h-31.106c-0.539,0-0.976-0.504-0.976-1.125s0.437-1.125,0.976-1.125h31.106
		c0.54,0,0.978,0.504,0.978,1.125S584.815,247.203,584.275,247.203z"/>
	<path fill="#E8E8E8" d="M592.908,237.293h-39.739c-0.539,0-0.976-0.506-0.976-1.126c0-0.621,0.437-1.125,0.976-1.125h39.739
		c0.54,0,0.978,0.504,0.978,1.125C593.886,236.787,593.448,237.293,592.908,237.293z"/>
	<path fill="#C6C6C6" d="M578.195,217.751h-25.026c-0.539,0-0.976-0.505-0.976-1.125c0-0.622,0.437-1.128,0.976-1.128h25.026
		c0.54,0,0.978,0.506,0.978,1.128C579.173,217.246,578.735,217.751,578.195,217.751z"/>
</g>
<polyline fill="#FFFFFF" stroke="#EFEFEF" stroke-width="0.3651" stroke-miterlimit="10" points="545.692,219.906 545.692,270.445 
	359.076,270.445 359.076,219.906 "/>
<polyline fill="#FFFFFF" stroke="#EFEFEF" stroke-width="0.3651" stroke-miterlimit="10" points="405.351,219.803 405.351,211.636 
	452.87,211.636 452.87,219.803 "/>
<line fill="none" stroke="#E8E8E8" stroke-width="2.1904" stroke-linecap="round" stroke-miterlimit="10" x1="410.107" y1="215.796" x2="443.644" y2="215.796"/>
<rect x="359.076" y="211.636" fill="#F8F8F8" stroke="#EFEFEF" stroke-width="0.3651" stroke-miterlimit="10" width="46.538" height="8.167"/>
<line fill="none" stroke="#D3D3D3" stroke-width="2.1904" stroke-linecap="round" stroke-miterlimit="10" x1="363.834" y1="215.898" x2="387.424" y2="215.898"/>
<rect x="452.778" y="211.636" fill="#F8F8F8" stroke="#EFEFEF" stroke-width="0.3651" stroke-miterlimit="10" width="46.537" height="8.167"/>
<line fill="none" stroke="#D3D3D3" stroke-width="2.1904" stroke-linecap="round" stroke-miterlimit="10" x1="457.535" y1="215.898" x2="481.124" y2="215.898"/>
<rect x="499.155" y="211.636" fill="#F8F8F8" stroke="#EFEFEF" stroke-width="0.3651" stroke-miterlimit="10" width="46.537" height="8.167"/>
<line fill="none" stroke="#D3D3D3" stroke-width="2.1904" stroke-linecap="round" stroke-miterlimit="10" x1="504.241" y1="215.898" x2="527.83" y2="215.898"/>
<rect x="296.076" y="118.808" fill="#FFFFFF" stroke="#EFEFEF" stroke-width="0.295" stroke-miterlimit="10" width="59.283" height="27.136"/>
<line fill="none" stroke="#E8E8E8" stroke-width="2.1904" stroke-linecap="round" stroke-miterlimit="10" x1="413.479" y1="234.697" x2="487.108" y2="234.697"/>
<line fill="none" stroke="#E8E8E8" stroke-width="2.1904" stroke-linecap="round" stroke-miterlimit="10" x1="412.992" y1="251.462" x2="495.872" y2="251.462"/>
<line fill="none" stroke="#E8E8E8" stroke-width="2.1904" stroke-linecap="round" stroke-miterlimit="10" x1="412.992" y1="247.271" x2="502.078" y2="247.271"/>
<line fill="none" stroke="#E8E8E8" stroke-width="2.1904" stroke-linecap="round" stroke-miterlimit="10" x1="412.992" y1="243.078" x2="482.728" y2="243.078"/>
<line fill="none" stroke="#E8E8E8" stroke-width="2.1904" stroke-linecap="round" stroke-miterlimit="10" x1="412.992" y1="255.652" x2="482.728" y2="255.652"/>
<line fill="none" stroke="#E8E8E8" stroke-width="2.1904" stroke-linecap="round" stroke-miterlimit="10" x1="412.992" y1="238.889" x2="502.078" y2="238.889"/>
<line fill="none" stroke="#E8E8E8" stroke-width="1.7701" stroke-linecap="round" stroke-miterlimit="10" x1="302.022" y1="132.084" x2="333.551" y2="132.084"/>
<line fill="none" stroke="#E8E8E8" stroke-width="1.7701" stroke-linecap="round" stroke-miterlimit="10" x1="301.813" y1="139.654" x2="331.676" y2="139.654"/>
<line fill="none" stroke="#E8E8E8" stroke-width="1.7701" stroke-linecap="round" stroke-miterlimit="10" x1="301.813" y1="135.869" x2="339.961" y2="135.869"/>
<line fill="none" stroke="#C6C6C6" stroke-width="1.7701" stroke-linecap="round" stroke-miterlimit="10" x1="301.813" y1="124.828" x2="325.84" y2="124.828"/>
<path fill="#4BBF53" d="M386.211,59.543l-5.871-5.871l-2.561,2.557l8.43,8.432l16.447-16.441l-2.561-2.559L386.211,59.543z"/>
<path fill="#C6C6C6" d="M307.654,31.422h-7.032c-0.322,0-0.586-0.264-0.586-0.585l0,0c0-0.323,0.264-0.586,0.586-0.586h7.032
	c0.322,0,0.585,0.264,0.585,0.586l0,0C308.24,31.158,307.977,31.422,307.654,31.422z M307.654,34.352h-7.032
	c-0.322,0-0.586-0.264-0.586-0.586l0,0c0-0.322,0.264-0.586,0.586-0.586h7.032c0.322,0,0.585,0.264,0.585,0.586l0,0
	C308.24,34.088,307.977,34.352,307.654,34.352z M307.654,37.282h-7.032c-0.322,0-0.586-0.264-0.586-0.586l0,0
	c0-0.322,0.264-0.585,0.586-0.585h7.032c0.322,0,0.585,0.264,0.585,0.585l0,0C308.24,37.018,307.977,37.282,307.654,37.282z"/>
<rect x="428.869" y="33.192" fill="#F8F8F8" stroke="#F8F8F8" stroke-width="1.5" stroke-linecap="round" stroke-linejoin="round" stroke-miterlimit="10" width="46" height="12"/>
<g>
	<path fill="#C84D30" d="M471.507,41.086c-0.08,0-0.16-0.03-0.221-0.091l-3.273-3.275c-0.121-0.122-0.121-0.319,0-0.44
		c0.119-0.122,0.318-0.122,0.438,0l3.275,3.275c0.121,0.122,0.121,0.318,0,0.439C471.667,41.055,471.587,41.086,471.507,41.086z"/>
	<path fill="#C84D30" d="M468.231,41.086c-0.08,0-0.159-0.031-0.219-0.091c-0.123-0.122-0.123-0.319,0-0.439l3.273-3.275
		c0.122-0.122,0.318-0.122,0.439,0c0.121,0.121,0.121,0.318,0,0.439l-3.275,3.275C468.392,41.055,468.311,41.086,468.231,41.086z"/>
</g>
<rect x="428.869" y="48.367" fill="#F8F8F8" stroke="#F8F8F8" stroke-width="1.5" stroke-linecap="round" stroke-linejoin="round" stroke-miterlimit="10" width="46" height="12"/>
<g>
	<path fill="#C84D30" d="M471.722,56.517c-0.09,0-0.182-0.034-0.25-0.104l-3.703-3.704c-0.137-0.138-0.137-0.361,0-0.498
		c0.136-0.138,0.359-0.138,0.497,0l3.704,3.706c0.139,0.137,0.139,0.359,0,0.496C471.901,56.482,471.812,56.517,471.722,56.517z"/>
	<path fill="#C84D30" d="M468.017,56.517c-0.092,0-0.18-0.034-0.248-0.104c-0.139-0.137-0.139-0.359,0-0.496l3.703-3.706
		c0.14-0.138,0.361-0.138,0.498,0c0.139,0.137,0.139,0.36,0,0.498l-3.704,3.704C468.197,56.482,468.106,56.517,468.017,56.517z"/>
</g>
<rect x="428.869" y="63.529" fill="#F8F8F8" stroke="#F8F8F8" stroke-width="1.5" stroke-linecap="round" stroke-linejoin="round" stroke-miterlimit="10" width="46" height="12"/>
<g>
	<path fill="#C84D30" d="M471.507,71.424c-0.08,0-0.16-0.03-0.221-0.091l-3.275-3.275c-0.119-0.122-0.119-0.319,0-0.44
		c0.121-0.121,0.32-0.121,0.439,0l3.275,3.275c0.121,0.122,0.121,0.318,0,0.439C471.667,71.393,471.587,71.424,471.507,71.424z"/>
	<path fill="#C84D30" d="M468.231,71.424c-0.08,0-0.159-0.031-0.221-0.091c-0.121-0.122-0.121-0.319,0-0.439l3.275-3.274
		c0.122-0.123,0.318-0.123,0.439,0c0.121,0.121,0.121,0.317,0,0.438l-3.275,3.275C468.392,71.393,468.311,71.424,468.231,71.424z"/>
</g>
<rect x="296.171" y="86.662" fill="#B9DDEA" width="59.094" height="32.146"/>
<line fill="none" stroke="#A3C3CC" stroke-width="0.59" stroke-miterlimit="10" x1="296.171" y1="86.662" x2="355.266" y2="118.808"/>
<line fill="none" stroke="#A3C3CC" stroke-width="0.59" stroke-miterlimit="10" x1="296.171" y1="118.808" x2="355.266" y2="86.662"/>
<g>
	<rect x="487.628" y="151.996" fill="#B9DDEA" width="54.849" height="53.279"/>
	
		<line fill="none" stroke="#A3C3CC" stroke-width="0.7318" stroke-miterlimit="10" x1="487.628" y1="151.996" x2="542.476" y2="205.275"/>
	
		<line fill="none" stroke="#A3C3CC" stroke-width="0.7318" stroke-miterlimit="10" x1="487.628" y1="205.275" x2="542.476" y2="151.996"/>
</g>
<g>
	<circle fill="#B9DDEA" cx="384.424" cy="245.499" r="15.417"/>
	
		<line fill="none" stroke="#A3C3CC" stroke-width="0.571" stroke-miterlimit="10" x1="373.564" y1="234.641" x2="395.282" y2="256.359"/>
	
		<line fill="none" stroke="#A3C3CC" stroke-width="0.571" stroke-miterlimit="10" x1="373.564" y1="256.359" x2="395.282" y2="234.641"/>
</g>
<g>
	
		<line fill="none" stroke="#FFFFFF" stroke-width="4.8461" stroke-linecap="round" stroke-miterlimit="10" x1="303.629" y1="156.607" x2="322.151" y2="156.607"/>
	<circle fill="#C84D30" cx="303.727" cy="156.608" r="1.39"/>
	
		<line fill="none" stroke="#DFDFDF" stroke-width="1.6154" stroke-linecap="round" stroke-miterlimit="10" x1="306.86" y1="156.607" x2="321.529" y2="156.607"/>
</g>
<g>
	
		<line fill="none" stroke="#FFFFFF" stroke-width="4.8461" stroke-linecap="round" stroke-miterlimit="10" x1="303.629" y1="166.171" x2="332.49" y2="166.171"/>
	<circle fill="#E99141" cx="303.531" cy="166.257" r="1.39"/>
	
		<line fill="none" stroke="#DFDFDF" stroke-width="1.6154" stroke-linecap="round" stroke-miterlimit="10" x1="306.86" y1="166.171" x2="332.49" y2="166.171"/>
</g>
<g>
	
		<line fill="none" stroke="#FFFFFF" stroke-width="4.8461" stroke-linecap="round" stroke-miterlimit="10" x1="303.629" y1="175.949" x2="316.552" y2="175.949"/>
	<circle fill="#FEE864" cx="303.844" cy="175.907" r="1.39"/>
	
		<line fill="none" stroke="#DFDFDF" stroke-width="1.6154" stroke-linecap="round" stroke-miterlimit="10" x1="306.86" y1="175.949" x2="316.552" y2="175.949"/>
</g>
<g>
	
		<line fill="none" stroke="#FFFFFF" stroke-width="4.8461" stroke-linecap="round" stroke-miterlimit="10" x1="303.629" y1="185.512" x2="329.476" y2="185.512"/>
	<circle fill="#CCDE91" cx="303.844" cy="185.555" r="1.391"/>
	
		<line fill="none" stroke="#DFDFDF" stroke-width="1.6154" stroke-linecap="round" stroke-miterlimit="10" x1="306.86" y1="185.512" x2="328.613" y2="185.512"/>
</g>
<g>
	
		<line fill="none" stroke="#FFFFFF" stroke-width="4.8461" stroke-linecap="round" stroke-miterlimit="10" x1="303.629" y1="194.762" x2="336.151" y2="194.762"/>
	<circle fill="#A3C855" cx="303.629" cy="195.204" r="1.39"/>
	
		<line fill="none" stroke="#DFDFDF" stroke-width="1.6154" stroke-linecap="round" stroke-miterlimit="10" x1="306.86" y1="194.762" x2="335.291" y2="194.762"/>
</g>
<g>
	
		<line fill="none" stroke="#FFFFFF" stroke-width="4.8461" stroke-linecap="round" stroke-miterlimit="10" x1="303.629" y1="204.638" x2="327.321" y2="204.638"/>
	<circle fill="#3EA349" cx="303.844" cy="204.854" r="1.39"/>
	
		<line fill="none" stroke="#DFDFDF" stroke-width="1.6154" stroke-linecap="round" stroke-miterlimit="10" x1="306.86" y1="204.638" x2="326.244" y2="204.638"/>
</g>
<g>
	
		<line fill="none" stroke="#FFFFFF" stroke-width="4.8461" stroke-linecap="round" stroke-miterlimit="10" x1="302.937" y1="48.24" x2="326.629" y2="48.24"/>
	<circle fill="#3EA349" cx="303.151" cy="48.456" r="1.39"/>
	
		<line fill="none" stroke="#DFDFDF" stroke-width="1.6154" stroke-linecap="round" stroke-miterlimit="10" x1="306.167" y1="48.24" x2="325.551" y2="48.24"/>
</g>
<g>
	
		<line fill="none" stroke="#FFFFFF" stroke-width="4.8461" stroke-linecap="round" stroke-miterlimit="10" x1="302.937" y1="54.322" x2="326.629" y2="54.322"/>
	<circle fill="#3EA349" cx="303.151" cy="54.537" r="1.39"/>
	
		<line fill="none" stroke="#DFDFDF" stroke-width="1.6154" stroke-linecap="round" stroke-miterlimit="10" x1="306.167" y1="54.322" x2="325.551" y2="54.322"/>
</g>
<g>
	
		<line fill="none" stroke="#FFFFFF" stroke-width="4.8461" stroke-linecap="round" stroke-miterlimit="10" x1="302.937" y1="60.402" x2="326.629" y2="60.402"/>
	<circle fill="#3EA349" cx="303.151" cy="60.619" r="1.39"/>
	
		<line fill="none" stroke="#DFDFDF" stroke-width="1.6154" stroke-linecap="round" stroke-miterlimit="10" x1="306.167" y1="60.402" x2="325.551" y2="60.402"/>
</g>
<g>
	
		<line fill="none" stroke="#FFFFFF" stroke-width="4.8461" stroke-linecap="round" stroke-miterlimit="10" x1="303.629" y1="213.68" x2="322.151" y2="213.68"/>
	<circle fill="#C84D30" cx="303.727" cy="213.681" r="1.39"/>
	
		<line fill="none" stroke="#DFDFDF" stroke-width="1.6154" stroke-linecap="round" stroke-miterlimit="10" x1="306.86" y1="213.68" x2="321.529" y2="213.68"/>
</g>
<g>
	
		<line fill="none" stroke="#FFFFFF" stroke-width="4.8461" stroke-linecap="round" stroke-miterlimit="10" x1="303.629" y1="223.242" x2="332.49" y2="223.242"/>
	<circle fill="#E99141" cx="303.531" cy="223.33" r="1.39"/>
	
		<line fill="none" stroke="#DFDFDF" stroke-width="1.6154" stroke-linecap="round" stroke-miterlimit="10" x1="306.86" y1="223.242" x2="332.49" y2="223.242"/>
</g>
<g>
	
		<line fill="none" stroke="#FFFFFF" stroke-width="4.8461" stroke-linecap="round" stroke-miterlimit="10" x1="303.629" y1="233.021" x2="316.552" y2="233.021"/>
	<circle fill="#FEE864" cx="303.844" cy="232.979" r="1.39"/>
	
		<line fill="none" stroke="#DFDFDF" stroke-width="1.6154" stroke-linecap="round" stroke-miterlimit="10" x1="306.86" y1="233.021" x2="316.552" y2="233.021"/>
</g>
<g>
	
		<line fill="none" stroke="#FFFFFF" stroke-width="4.8461" stroke-linecap="round" stroke-miterlimit="10" x1="303.629" y1="242.584" x2="329.476" y2="242.584"/>
	<circle fill="#CCDE91" cx="303.844" cy="242.626" r="1.39"/>
	
		<line fill="none" stroke="#DFDFDF" stroke-width="1.6154" stroke-linecap="round" stroke-miterlimit="10" x1="306.86" y1="242.584" x2="328.613" y2="242.584"/>
</g>
<g>
	
		<line fill="none" stroke="#FFFFFF" stroke-width="4.8461" stroke-linecap="round" stroke-miterlimit="10" x1="303.629" y1="251.834" x2="336.151" y2="251.834"/>
	<circle fill="#A3C855" cx="303.629" cy="252.277" r="1.39"/>
	
		<line fill="none" stroke="#DFDFDF" stroke-width="1.6154" stroke-linecap="round" stroke-miterlimit="10" x1="306.86" y1="251.834" x2="335.291" y2="251.834"/>
</g>
<g>
	
		<line fill="none" stroke="#FFFFFF" stroke-width="4.8461" stroke-linecap="round" stroke-miterlimit="10" x1="303.629" y1="261.71" x2="327.321" y2="261.71"/>
	<circle fill="#3EA349" cx="303.844" cy="261.926" r="1.391"/>
	
		<line fill="none" stroke="#DFDFDF" stroke-width="1.6154" stroke-linecap="round" stroke-miterlimit="10" x1="306.86" y1="261.71" x2="326.244" y2="261.71"/>
</g>
<rect x="359.077" y="86.66" fill="#FFFFFF" stroke="#EFEFEF" stroke-width="0.4992" stroke-miterlimit="10" width="122.654" height="121.334"/>
<rect x="418.52" y="184.734" fill="#007AC2" stroke="#007AB7" stroke-width="0.4992" stroke-miterlimit="10" width="20.748" height="12.271"/>
<rect x="443.085" y="184.734" fill="none" stroke="#007AB7" stroke-width="0.4992" stroke-miterlimit="10" width="29.67" height="12.271"/>
<rect x="320.852" y="72.205" fill="#007AC2" stroke="#007AB7" stroke-width="0.2706" stroke-miterlimit="10" width="11.246" height="6.649"/>
<rect x="334.166" y="72.205" fill="none" stroke="#007AB7" stroke-width="0.2706" stroke-miterlimit="10" width="16.082" height="6.649"/>
<line fill="none" stroke="#E8E8E8" stroke-width="2.9955" stroke-linecap="round" stroke-miterlimit="10" x1="372.385" y1="115.447" x2="420.022" y2="115.447"/>
<line fill="none" stroke="#E8E8E8" stroke-width="2.9955" stroke-linecap="round" stroke-miterlimit="10" x1="373.645" y1="171.193" x2="410.274" y2="171.193"/>
<line fill="none" stroke="#E8E8E8" stroke-width="2.9955" stroke-linecap="round" stroke-miterlimit="10" x1="372.068" y1="144.146" x2="425.692" y2="144.146"/>
<line fill="none" stroke="#E8E8E8" stroke-width="2.9955" stroke-linecap="round" stroke-miterlimit="10" x1="372.068" y1="136.972" x2="429.709" y2="136.972"/>
<line fill="none" stroke="#E8E8E8" stroke-width="2.9955" stroke-linecap="round" stroke-miterlimit="10" x1="372.068" y1="129.798" x2="417.188" y2="129.798"/>
<line fill="none" stroke="#E8E8E8" stroke-width="2.9955" stroke-linecap="round" stroke-miterlimit="10" x1="372.068" y1="151.322" x2="417.188" y2="151.322"/>
<line fill="none" stroke="#E8E8E8" stroke-width="2.9955" stroke-linecap="round" stroke-miterlimit="10" x1="372.068" y1="122.623" x2="429.709" y2="122.623"/>
<line fill="none" stroke="#C6C6C6" stroke-width="2.9955" stroke-linecap="round" stroke-miterlimit="10" x1="372.068" y1="101.695" x2="408.368" y2="101.695"/>
<line fill="none" stroke="#E8E8E8" stroke-width="2.9955" stroke-linecap="round" stroke-miterlimit="10" x1="553.572" y1="47.986" x2="601.21" y2="47.986"/>
<line fill="none" stroke="#E8E8E8" stroke-width="2.3772" stroke-linecap="round" stroke-miterlimit="10" x1="553.257" y1="69.511" x2="589.556" y2="69.511"/>
<line fill="none" stroke="#E8E8E8" stroke-width="2.9955" stroke-linecap="round" stroke-miterlimit="10" x1="553.257" y1="62.336" x2="598.376" y2="62.336"/>
<line fill="none" stroke="#E8E8E8" stroke-width="2.5308" stroke-linecap="round" stroke-miterlimit="10" x1="553.257" y1="55.16" x2="594.401" y2="55.16"/>
<line fill="none" stroke="#C6C6C6" stroke-width="2.9955" stroke-linecap="round" stroke-miterlimit="10" x1="553.257" y1="34.234" x2="589.556" y2="34.234"/>
<g>
	<path fill="#007AC2" d="M471.369,105.164c-0.186,0-0.368-0.069-0.509-0.211l-7.564-7.562c-0.281-0.279-0.281-0.734,0-1.015
		c0.28-0.28,0.735-0.281,1.016,0l7.564,7.562c0.279,0.28,0.279,0.735,0,1.015C471.736,105.095,471.552,105.164,471.369,105.164z"/>
	<path fill="#007AC2" d="M463.804,105.164c-0.186,0-0.367-0.07-0.508-0.211c-0.281-0.28-0.281-0.734,0-1.015l7.563-7.562
		c0.28-0.281,0.735-0.281,1.015,0c0.28,0.28,0.28,0.735,0,1.015l-7.564,7.562C464.171,105.094,463.986,105.164,463.804,105.164z"/>
</g>
<circle fill="#00B1DC" cx="517.365" cy="117.598" r="19.639"/>
<path fill="#B9DDEA" stroke="#FFFFFF" stroke-width="3.0405" stroke-miterlimit="10" d="M517.365,117.598h18.974
	c0-10.479-8.494-18.973-18.974-18.973s-18.973,8.494-18.973,18.973s8.493,18.973,18.973,18.973c3.122,0,6.063-0.758,8.66-2.093
	L517.365,117.598z"/>
<path fill="#4BBF53" stroke="#FFFFFF" stroke-miterlimit="10" d="M518.365,117.598h22.302c0-12.316-9.984-22.301-22.302-22.301
	c-2.606,0-5.108,0.451-7.434,1.273L518.365,117.598z"/>
<circle fill="#FFFFFF" cx="517.365" cy="117.598" r="12.465"/>
<line fill="none" stroke="#E8E8E8" stroke-width="2.5308" stroke-linecap="round" stroke-miterlimit="10" x1="540.728" y1="130.084" x2="587.964" y2="130.084"/>
<line fill="none" stroke="#E8E8E8" stroke-width="2.5308" stroke-linecap="round" stroke-miterlimit="10" x1="542.667" y1="102.75" x2="589.901" y2="102.75"/>
<line fill="none" stroke="#E8E8E8" stroke-width="2.303" stroke-linecap="round" stroke-miterlimit="10" x1="550.79" y1="108.553" x2="589.901" y2="108.553"/>
<path fill="#FFFFFF" stroke="#EFEFEF" stroke-width="0.3341" stroke-miterlimit="10" d="M14.809,24.911h270.412v24.675H14.809
	V24.911z"/>
<path fill="none" stroke="#C6C6C6" stroke-width="3.0785" stroke-linecap="round" stroke-miterlimit="10" d="M21.251,38.854h32.75"
	/>
<path fill="none" stroke="#DFDFDF" stroke-width="2.2813" stroke-linecap="round" stroke-miterlimit="10" d="M68.505,38.854h20.813
	 M98.671,38.854h20.813 M128.838,38.854h20.812 M159.005,38.854h20.812"/>
<path fill="#DFDFDF" d="M275.812,39.999l-1.433-1.434c-0.093-0.139-0.278-0.139-0.417,0v0l-0.527-0.529
	c0.879-1.079,0.818-2.694-0.211-3.68c-1.064-1.064-2.822-1.064-3.931,0c-1.063,1.063-1.063,2.821,0,3.931
	c0.999,1,2.601,1.048,3.713,0.171l0.533,0.532c-0.128,0.095-0.126,0.272,0.008,0.407l1.433,1.434c0.093,0.14,0.277,0.14,0.417,0
	l0.417-0.417C275.951,40.323,275.951,40.139,275.812,39.999L275.812,39.999z M269.893,37.687c-0.739-0.786-0.786-1.988,0-2.774
	c0.786-0.786,2.036-0.786,2.775,0c0.786,0.787,0.786,1.99,0,2.774C271.881,38.473,270.633,38.473,269.893,37.687z"/>
<path fill="#007AC2" d="M128.732,24.236h21.116v2.263h-21.116V24.236z"/>
<g>
	<path fill="#F8F8F8" d="M14.809,110.969h270.412v55.656H14.809V110.969z"/>
	<path fill="none" stroke="#E8E8E8" stroke-width="3.4344" stroke-linecap="round" stroke-miterlimit="10" d="M123.392,140.539
		h43.043 M123.107,157.337h40.768 M123.107,148.938h52.082"/>
	<path fill="none" stroke="#C6C6C6" stroke-width="3.4344" stroke-linecap="round" stroke-miterlimit="10" d="M123.107,125.949
		h32.799"/>
	<path fill="none" stroke="#C6C6C6" stroke-width="4.525" stroke-linecap="round" stroke-miterlimit="10" d="M48.488,130.889h32.799
		"/>
	<path fill="none" stroke="#E8E8E8" stroke-width="3.4344" stroke-linecap="round" stroke-miterlimit="10" d="M187.561,140.539
		h34.852 M187.276,157.337h40.768 M187.276,148.938h25.889"/>
	<path fill="none" stroke="#C6C6C6" stroke-width="3.4344" stroke-linecap="round" stroke-miterlimit="10" d="M187.276,125.949
		h45.648"/>
	<path fill="none" stroke="#E8E8E8" stroke-width="3.4344" stroke-linecap="round" stroke-miterlimit="10" d="M243.981,140.539
		h34.851 M243.695,157.337h20.384 M243.695,148.938h35.137"/>
	<path fill="none" stroke="#C6C6C6" stroke-width="3.4344" stroke-linecap="round" stroke-miterlimit="10" d="M243.695,125.949
		h19.396"/>
	<path fill="none" stroke="#DFDFDF" stroke-width="2.2813" stroke-linecap="round" stroke-miterlimit="10" d="M40.965,144.329
		h20.812 M71.389,144.329h20.812"/>
</g>
<g>
	<path fill="#052942" d="M14.809,53.035h270.412v41.05H14.809V53.035z"/>
	<path fill="#FFFFFF" d="M14.809,94.084h270.412v13.436H14.809V94.084z"/>
	<path fill="none" stroke="#FFFFFF" stroke-width="4.525" stroke-linecap="round" stroke-miterlimit="10" d="M23.514,70.416h32.75"
		/>
	<path fill="#FFFFFF" d="M64.487,97.322V83.75h42.854v13.572"/>
	<path fill="none" stroke="#E8E8E8" stroke-width="2.3402" stroke-linecap="round" stroke-miterlimit="10" d="M68.777,89.016h30.244
		"/>
	<path opacity="0.3" enable-background="new    " d="M21.251,83.75h41.968v10.335H21.251V83.75z"/>
	<path fill="none" stroke="#D3D3D3" stroke-width="2.3402" stroke-linecap="round" stroke-miterlimit="10" d="M25.541,89.146h21.273
		"/>
	<path opacity="0.3" enable-background="new    " d="M108.767,83.75h41.968v10.335h-41.968V83.75z"/>
	<path fill="none" stroke="#D3D3D3" stroke-width="2.3402" stroke-linecap="round" stroke-miterlimit="10" d="M113.057,89.146
		h21.272"/>
	<path opacity="0.3" enable-background="new    " d="M151.342,83.75h41.969v10.335h-41.969V83.75z"/>
	<path fill="none" stroke="#D3D3D3" stroke-width="2.3402" stroke-linecap="round" stroke-miterlimit="10" d="M155.93,89.146h21.273
		"/>
</g>
<g>
	<path fill="#FFFFFF" d="M22.834,268.697h-8.025l31.081-71.914H53l30.879,71.914h-8.125l-7.923-18.892H30.656L22.834,268.697z
		 M33.397,243.101h31.691l-15.845-38.19L33.397,243.101z M124.001,237.933c0-4.101-1.085-7.157-3.251-9.176
		c-2.167-2.016-5.317-3.025-9.446-3.025c-2.845,0-5.486,0.507-7.923,1.523c-2.437,1.016-4.503,2.372-6.194,4.062l-3.859-4.57
		c1.961-1.961,4.555-3.589,7.771-4.875c3.215-1.284,6.855-1.932,10.919-1.932c2.572,0,4.977,0.354,7.211,1.067
		c2.235,0.712,4.197,1.777,5.89,3.199c1.692,1.424,3.011,3.216,3.963,5.384c0.947,2.169,1.422,4.707,1.422,7.617v20.823
		c0,1.828,0.067,3.726,0.203,5.688c0.135,1.965,0.339,3.624,0.61,4.978h-6.197c-0.215-1.246-0.384-2.499-0.507-3.758
		c-0.135-1.354-0.202-2.674-0.202-3.964h-0.204c-2.167,3.185-4.621,5.471-7.364,6.856c-2.744,1.389-6.044,2.083-9.903,2.083
		c-1.828,0-3.708-0.255-5.637-0.763c-1.902-0.495-3.693-1.343-5.282-2.498c-1.593-1.155-2.913-2.649-3.962-4.484
		c-1.052-1.834-1.574-4.077-1.574-6.729c0-3.669,0.931-6.572,2.793-8.712c1.862-2.139,4.351-3.737,7.465-4.789
		c3.116-1.056,6.687-1.733,10.715-2.04c4.027-0.306,8.21-0.459,12.544-0.459V237.933L124.001,237.933z M121.97,244.93
		c-2.845,0-5.706,0.12-8.583,0.354c-2.88,0.24-5.485,0.713-7.823,1.426c-2.334,0.71-4.249,1.743-5.739,3.096
		c-1.49,1.356-2.235,3.147-2.235,5.383c0,1.693,0.322,3.117,0.965,4.266c0.643,1.152,1.507,2.083,2.589,2.794
		c1.083,0.713,2.286,1.221,3.606,1.523c1.318,0.305,2.658,0.46,4.012,0.46c2.438,0,4.605-0.423,6.502-1.271
		c1.894-0.847,3.486-1.997,4.773-3.456c1.286-1.454,2.269-3.132,2.948-5.028c0.675-1.895,1.016-3.893,1.016-5.992v-3.555
		L121.97,244.93L121.97,244.93z"/>
</g>
<g>
	<path fill="#FFFFFF" d="M162.836,217.102h-2.973l11.514-26.646h2.634l11.441,26.646h-3.01l-2.935-7.002h-13.775L162.836,217.102z
		 M166.75,207.615h11.742l-5.871-14.148L166.75,207.615L166.75,207.615z M176.271,185.11c0,0.504-0.095,0.974-0.283,1.412
		c-0.184,0.433-0.453,0.822-0.79,1.148c-0.684,0.653-1.595,1.019-2.541,1.015c-0.477,0.006-0.951-0.084-1.393-0.262
		c-0.427-0.177-0.816-0.432-1.148-0.753c-0.337-0.326-0.607-0.716-0.791-1.148c-0.187-0.438-0.282-0.908-0.282-1.412
		c0-0.501,0.095-0.972,0.282-1.41c0.181-0.428,0.451-0.813,0.791-1.128c0.338-0.314,0.726-0.567,1.148-0.754
		c0.439-0.191,0.914-0.287,1.393-0.282c0.476,0,0.934,0.093,1.373,0.282c0.43,0.183,0.825,0.438,1.168,0.754
		c0.338,0.313,0.602,0.69,0.79,1.128C176.177,184.139,176.271,184.609,176.271,185.11z M174.916,185.11
		c0-0.626-0.22-1.152-0.659-1.579c-0.438-0.428-0.973-0.641-1.599-0.641c-0.628,0-1.161,0.213-1.599,0.641
		c-0.439,0.427-0.659,0.953-0.659,1.579c0,0.628,0.218,1.156,0.659,1.581c0.438,0.428,0.971,0.641,1.599,0.641
		c0.627,0,1.161-0.213,1.599-0.641C174.696,186.267,174.916,185.738,174.916,185.11z M200.318,205.701
		c0-1.518-0.402-2.651-1.205-3.398c-0.804-0.748-1.969-1.121-3.5-1.121c-1.054,0-2.031,0.188-2.936,0.563
		c-0.903,0.376-1.668,0.878-2.295,1.505l-1.431-1.692c0.727-0.728,1.688-1.33,2.879-1.807s2.54-0.715,4.046-0.715
		c0.954,0,1.845,0.132,2.671,0.394c0.799,0.249,1.541,0.651,2.184,1.186c0.628,0.526,1.116,1.191,1.468,1.995
		c0.35,0.802,0.524,1.744,0.524,2.821v7.716c0,0.678,0.027,1.379,0.077,2.106c0.05,0.729,0.125,1.342,0.224,1.846h-2.295
		c-0.08-0.463-0.143-0.928-0.188-1.394c-0.049-0.487-0.074-0.979-0.075-1.467h-0.074c-0.804,1.178-1.711,2.025-2.727,2.538
		c-1.017,0.514-2.24,0.772-3.67,0.772c-0.677,0-1.373-0.095-2.088-0.282c-0.705-0.186-1.369-0.498-1.958-0.925
		c-0.59-0.428-1.08-0.982-1.468-1.663c-0.39-0.68-0.582-1.51-0.582-2.492c0-1.36,0.344-2.436,1.033-3.229
		c0.691-0.792,1.612-1.385,2.766-1.773c1.155-0.391,2.479-0.643,3.972-0.756c1.546-0.115,3.096-0.172,4.647-0.171V205.701
		L200.318,205.701z M199.564,208.294c-1.053,0-2.113,0.043-3.18,0.131c-1.065,0.088-2.031,0.264-2.896,0.527
		c-0.865,0.264-1.575,0.646-2.126,1.147s-0.828,1.167-0.828,1.995c0,0.628,0.118,1.154,0.357,1.579
		c0.238,0.429,0.558,0.774,0.96,1.036c0.408,0.267,0.86,0.458,1.336,0.563c0.487,0.113,0.983,0.17,1.486,0.17
		c0.903,0,1.705-0.156,2.409-0.471c0.702-0.312,1.291-0.738,1.768-1.279c0.48-0.544,0.851-1.177,1.091-1.863
		c0.25-0.703,0.377-1.443,0.377-2.22v-1.318h-0.754V208.294z M199.415,192.638c0.006,0.965-0.381,1.889-1.073,2.56
		c-0.338,0.325-0.728,0.577-1.166,0.753c-0.437,0.176-0.903,0.265-1.375,0.263c-0.477,0.005-0.951-0.084-1.392-0.263
		c-0.428-0.176-0.816-0.432-1.147-0.753c-0.338-0.325-0.608-0.715-0.791-1.146c-0.189-0.447-0.286-0.928-0.282-1.413
		c0-0.5,0.094-0.972,0.282-1.409c0.18-0.429,0.449-0.814,0.791-1.129c0.337-0.314,0.725-0.567,1.147-0.753
		c0.439-0.19,0.914-0.287,1.392-0.282c0.472-0.002,0.94,0.095,1.375,0.282c0.428,0.183,0.823,0.436,1.166,0.753
		c0.338,0.312,0.602,0.69,0.79,1.129C199.321,191.666,199.415,192.138,199.415,192.638L199.415,192.638z M198.061,192.638
		c0-0.626-0.221-1.152-0.66-1.579c-0.438-0.426-0.972-0.641-1.599-0.641c-0.626,0-1.161,0.215-1.599,0.641
		c-0.439,0.427-0.658,0.954-0.658,1.579c0,0.629,0.219,1.155,0.658,1.581c0.438,0.428,0.972,0.64,1.599,0.64
		c0.627,0,1.161-0.212,1.599-0.64C197.84,193.793,198.061,193.267,198.061,192.638z"/>
</g>
<g>
	<path fill="#FFFFFF" d="M227.058,217.102h-2.973l11.516-26.646h2.635l11.439,26.646h-3.01l-2.935-7.002h-13.775L227.058,217.102
		L227.058,217.102z M230.973,207.615h11.741l-5.872-14.148L230.973,207.615z M237.972,188.349h-2.22l3.764-5.42h3.424
		L237.972,188.349z M264.541,205.701c0-1.518-0.402-2.651-1.205-3.398c-0.802-0.748-1.968-1.121-3.5-1.121
		c-1.055,0-2.033,0.188-2.936,0.563c-0.902,0.376-1.667,0.878-2.296,1.505l-1.43-1.692c0.727-0.728,1.688-1.33,2.879-1.807
		c1.192-0.477,2.541-0.715,4.047-0.715c0.951,0,1.844,0.132,2.671,0.394c0.799,0.249,1.54,0.651,2.183,1.186
		c0.628,0.526,1.116,1.191,1.468,1.995c0.352,0.802,0.526,1.744,0.526,2.821v7.716c0,0.678,0.024,1.379,0.074,2.106
		c0.052,0.729,0.127,1.342,0.227,1.846h-2.296c-0.079-0.463-0.141-0.928-0.188-1.394c-0.049-0.487-0.073-0.979-0.075-1.467h-0.075
		c-0.804,1.178-1.712,2.025-2.727,2.538c-1.017,0.514-2.24,0.772-3.67,0.772c-0.677,0-1.373-0.095-2.087-0.282
		c-0.705-0.186-1.369-0.498-1.959-0.925c-0.588-0.428-1.08-0.982-1.468-1.663c-0.388-0.681-0.582-1.51-0.582-2.492
		c0-1.36,0.344-2.436,1.034-3.229c0.69-0.792,1.612-1.385,2.766-1.773c1.155-0.391,2.477-0.643,3.969-0.756
		c1.547-0.115,3.098-0.172,4.649-0.171V205.701L264.541,205.701z M263.788,208.294c-1.055,0-2.113,0.043-3.179,0.131
		c-1.066,0.088-2.033,0.264-2.898,0.527c-0.864,0.264-1.575,0.646-2.125,1.147c-0.553,0.502-0.83,1.167-0.83,1.995
		c0,0.628,0.119,1.154,0.358,1.579c0.238,0.429,0.558,0.774,0.96,1.036c0.407,0.267,0.859,0.458,1.334,0.563
		c0.492,0.113,0.985,0.17,1.488,0.17c0.902,0,1.706-0.156,2.408-0.471c0.702-0.312,1.291-0.738,1.769-1.279
		c0.48-0.544,0.851-1.177,1.09-1.863c0.253-0.712,0.381-1.463,0.377-2.22v-1.318h-0.753V208.294z M260.364,195.874h-2.222
		l3.766-5.418h3.424L260.364,195.874z"/>
</g>
<g>
	<path fill="#FFFFFF" d="M162.836,268.499h-2.973l11.516-26.645h2.633l11.441,26.645h-3.01l-2.936-7h-13.773L162.836,268.499z
		 M166.75,259.014h11.742l-5.871-14.149L166.75,259.014L166.75,259.014z M167.164,236.623c0-0.503,0.174-0.945,0.526-1.336
		c0.351-0.39,0.814-0.583,1.393-0.583c0.576,0,1.039,0.193,1.393,0.583c0.35,0.391,0.526,0.833,0.526,1.336
		c0,0.504-0.176,0.946-0.526,1.335c-0.354,0.391-0.816,0.583-1.393,0.583c-0.579,0-1.042-0.192-1.393-0.583
		C167.338,237.569,167.164,237.127,167.164,236.623z M174.389,236.623c0-0.503,0.175-0.945,0.527-1.336
		c0.352-0.39,0.814-0.583,1.393-0.583c0.576,0,1.041,0.193,1.393,0.583c0.352,0.391,0.526,0.833,0.526,1.336
		c0,0.504-0.176,0.946-0.526,1.335c-0.352,0.391-0.816,0.583-1.393,0.583c-0.579,0-1.041-0.192-1.393-0.583
		C174.564,237.569,174.389,237.127,174.389,236.623z M200.318,257.101c0-1.519-0.402-2.653-1.205-3.399
		c-0.804-0.748-1.969-1.122-3.5-1.122c-1.054,0-2.031,0.188-2.936,0.566c-0.903,0.374-1.668,0.877-2.295,1.505l-1.431-1.695
		c0.727-0.727,1.688-1.328,2.879-1.807c1.192-0.474,2.54-0.715,4.046-0.715c0.954,0,1.845,0.132,2.671,0.396
		c0.799,0.247,1.541,0.65,2.184,1.186c0.627,0.526,1.116,1.193,1.467,1.995c0.352,0.802,0.526,1.744,0.526,2.822v7.715
		c0,0.679,0.027,1.379,0.077,2.106c0.048,0.729,0.125,1.344,0.224,1.846h-2.294c-0.081-0.463-0.143-0.927-0.189-1.395
		c-0.049-0.487-0.074-0.977-0.074-1.467h-0.075c-0.804,1.179-1.711,2.026-2.727,2.541c-1.017,0.514-2.24,0.771-3.67,0.771
		c-0.679,0-1.373-0.093-2.088-0.282c-0.705-0.184-1.368-0.497-1.958-0.925c-0.602-0.441-1.104-1.009-1.469-1.661
		c-0.389-0.679-0.581-1.509-0.581-2.492c0-1.361,0.344-2.436,1.033-3.229c0.69-0.793,1.612-1.384,2.766-1.774
		c1.155-0.391,2.479-0.642,3.97-0.756c1.547-0.114,3.097-0.169,4.649-0.169V257.101L200.318,257.101z M190.307,244.15
		c0-0.502,0.177-0.946,0.527-1.336c0.352-0.389,0.814-0.583,1.393-0.583c0.577,0,1.041,0.194,1.393,0.583
		c0.352,0.39,0.526,0.834,0.526,1.336c0,0.501-0.176,0.947-0.526,1.336c-0.352,0.389-0.815,0.583-1.393,0.583
		c-0.578,0-1.041-0.194-1.393-0.583C190.483,245.098,190.307,244.651,190.307,244.15z M199.564,259.692
		c-1.053,0-2.113,0.043-3.18,0.131c-1.065,0.089-2.031,0.264-2.896,0.527c-0.865,0.264-1.575,0.646-2.126,1.147
		s-0.828,1.166-0.828,1.993c0,0.629,0.118,1.155,0.355,1.58c0.231,0.419,0.561,0.774,0.961,1.037
		c0.401,0.263,0.846,0.45,1.334,0.564c0.488,0.11,0.987,0.167,1.488,0.167c0.903,0,1.705-0.155,2.409-0.469
		c0.702-0.313,1.291-0.74,1.768-1.28c0.48-0.545,0.851-1.177,1.091-1.863c0.253-0.712,0.38-1.464,0.377-2.22v-1.315H199.564
		L199.564,259.692z M197.533,244.15c0-0.502,0.174-0.946,0.527-1.336c0.351-0.389,0.813-0.583,1.391-0.583
		c0.579,0,1.041,0.194,1.393,0.583c0.354,0.39,0.528,0.834,0.528,1.336c0,0.501-0.176,0.947-0.528,1.336
		c-0.352,0.389-0.814,0.583-1.393,0.583c-0.578,0-1.041-0.194-1.391-0.583C197.708,245.098,197.533,244.651,197.533,244.15z"/>
</g>
<g>
	<path fill="#FFFFFF" d="M250.089,275.535c-0.44,0.435-0.965,0.775-1.543,0.999c-0.586,0.232-1.211,0.354-1.844,0.354
		c-0.437,0.003-0.87-0.072-1.279-0.224c-0.803-0.3-1.458-0.901-1.825-1.677c-0.192-0.405-0.289-0.849-0.283-1.299
		c0-0.523,0.1-1.033,0.301-1.522c0.204-0.495,0.47-0.964,0.79-1.393c0.329-0.444,0.694-0.858,1.092-1.242
		c0.372-0.364,0.761-0.709,1.167-1.034l-2.935-7h-13.775l-2.898,7h-2.973l11.516-26.645h2.635l11.439,26.645h-1.203
		c-0.929,0.928-1.644,1.736-2.145,2.428c-0.501,0.689-0.752,1.396-0.752,2.124c0,0.528,0.188,0.962,0.566,1.301
		c0.357,0.331,0.83,0.513,1.316,0.506c0.352,0,0.695-0.067,1.034-0.205c0.338-0.139,0.634-0.346,0.885-0.623L250.089,275.535z
		 M230.972,259.014h11.742l-5.872-14.149L230.972,259.014L230.972,259.014z M268.453,275.535c-0.44,0.435-0.964,0.775-1.542,0.999
		c-0.586,0.232-1.212,0.354-1.844,0.354c-0.436,0.003-0.87-0.072-1.28-0.224c-0.803-0.302-1.456-0.903-1.825-1.677
		c-0.192-0.405-0.287-0.85-0.282-1.299c0-0.523,0.101-1.033,0.302-1.522c0.204-0.495,0.468-0.964,0.789-1.393
		c0.329-0.444,0.694-0.858,1.092-1.242c0.372-0.362,0.76-0.707,1.165-1.034h-0.074c-0.079-0.462-0.141-0.927-0.188-1.394
		c-0.051-0.487-0.076-0.977-0.076-1.468h-0.074c-0.804,1.18-1.712,2.026-2.728,2.541s-2.239,0.771-3.669,0.771
		c-0.678,0-1.374-0.095-2.088-0.282c-0.705-0.184-1.369-0.497-1.958-0.925c-0.603-0.443-1.103-1.009-1.469-1.661
		c-0.388-0.681-0.581-1.51-0.581-2.492c0-1.361,0.344-2.437,1.034-3.23c0.689-0.792,1.612-1.384,2.766-1.774
		c1.155-0.39,2.476-0.641,3.969-0.755c1.547-0.114,3.098-0.171,4.649-0.169v-0.562c0-1.518-0.402-2.651-1.205-3.398
		c-0.803-0.748-1.968-1.121-3.5-1.121c-1.055,0-2.034,0.188-2.936,0.565c-0.904,0.374-1.669,0.878-2.296,1.505l-1.43-1.694
		c0.727-0.727,1.688-1.329,2.879-1.807c1.192-0.476,2.541-0.715,4.047-0.715c0.951,0,1.844,0.132,2.669,0.396
		c0.831,0.264,1.558,0.658,2.185,1.186c0.627,0.525,1.115,1.193,1.468,1.995c0.352,0.801,0.526,1.742,0.526,2.82v7.716
		c0,0.679,0.024,1.38,0.074,2.107c0.05,0.729,0.127,1.342,0.227,1.845h-0.412c-0.929,0.928-1.646,1.736-2.148,2.428
		c-0.5,0.689-0.751,1.396-0.751,2.124c0,0.528,0.187,0.962,0.565,1.301c0.356,0.331,0.829,0.512,1.315,0.506
		c0.352,0,0.696-0.067,1.035-0.205s0.641-0.351,0.886-0.623L268.453,275.535L268.453,275.535z M263.787,259.692
		c-1.054,0-2.112,0.043-3.178,0.131c-1.067,0.089-2.033,0.264-2.898,0.527c-0.866,0.264-1.575,0.646-2.126,1.147
		c-0.552,0.502-0.829,1.166-0.829,1.993c0,0.629,0.119,1.155,0.358,1.58c0.236,0.429,0.558,0.773,0.958,1.037
		c0.402,0.263,0.847,0.45,1.336,0.564c0.488,0.11,0.988,0.167,1.488,0.167c0.902,0,1.706-0.155,2.407-0.469
		c0.702-0.313,1.292-0.74,1.77-1.28c0.48-0.545,0.851-1.177,1.09-1.863c0.253-0.712,0.381-1.464,0.377-2.22v-1.315H263.787
		L263.787,259.692z"/>
</g>
</svg>
