<?xml version="1.0" encoding="utf-8"?>
<!-- Generator: Adobe Illustrator 16.0.4, SVG Export Plug-In . SVG Version: 6.00 Build 0)  -->
<!DOCTYPE svg PUBLIC "-//W3C//DTD SVG 1.1//EN" "http://www.w3.org/Graphics/SVG/1.1/DTD/svg11.dtd">
<svg version="1.1" id="Layer_1" xmlns="http://www.w3.org/2000/svg" xmlns:xlink="http://www.w3.org/1999/xlink" x="0px" y="0px"
	 width="24px" height="24px" viewBox="0 0 24 24" enable-background="new 0 0 24 24" xml:space="preserve">
<path fill="#DDDDDD" d="M-21.836-2.719l-0.629-0.275l-0.089,0.09c2.36-2.648,2.278-6.719-0.26-9.259
	c-1.275-1.274-2.971-1.978-4.773-1.978s-3.498,0.703-4.773,1.978c-2.632,2.632-2.632,6.914,0,9.546
	c1.275,1.275,2.97,1.977,4.773,1.977c1.68,0,3.262-0.615,4.503-1.73l-0.087,0.086l0.274,0.627l6.285,6.283l1.061-1.061
	L-21.836-2.719z M-27.587-2.141c-1.402,0-2.721-0.545-3.712-1.537c-2.047-2.047-2.047-5.378,0-7.425
	c0.992-0.991,2.31-1.538,3.712-1.538s2.721,0.547,3.712,1.538c2.047,2.047,2.047,5.378,0,7.425
	C-24.866-2.686-26.185-2.141-27.587-2.141z"/>
<line fill="none" stroke="#DDDDDD" stroke-width="1.5" stroke-miterlimit="10" x1="4.25" y1="4.625" x2="19.938" y2="20.312"/>
<line fill="none" stroke="#DDDDDD" stroke-width="1.5" stroke-miterlimit="10" x1="4.25" y1="20.312" x2="19.938" y2="4.625"/>
</svg>
