<?xml version="1.0" encoding="utf-8"?>
<!-- Generator: Adobe Illustrator 16.0.4, SVG Export Plug-In . SVG Version: 6.00 Build 0)  -->
<!DOCTYPE svg PUBLIC "-//W3C//DTD SVG 1.1//EN" "http://www.w3.org/Graphics/SVG/1.1/DTD/svg11.dtd">
<svg version="1.1" id="Layer_1" xmlns="http://www.w3.org/2000/svg" xmlns:xlink="http://www.w3.org/1999/xlink" x="0px" y="0px"
	 width="700px" height="450px" viewBox="0 0 700 450" enable-background="new 0 0 700 450" xml:space="preserve">
<g id="Layer_3">
	<rect x="145.312" y="35.486" fill="#0E3E49" width="554.191" height="414.514"/>
</g>
<g id="Layer_3_1_">
	<rect x="-1.099" y="35.486" fill="#0D3438" width="146.907" height="414.514"/>
</g>
<g id="Layer_3_2_">
	<rect x="-1.099" fill="#0D3438" width="700.602" height="35.486"/>
</g>
<polygon fill="#B68800" points="201.829,55.95 206.755,55.95 206.755,52.564 201.829,52.564 201.675,52.564 196.749,52.564 
	196.749,55.95 201.675,55.95 "/>
<polygon fill="#B68800" points="231.447,55.95 236.219,55.95 236.373,55.95 241.145,55.95 241.299,55.95 246.226,55.95 
	246.226,52.564 241.299,52.564 241.145,52.564 236.373,52.564 236.219,52.564 231.447,52.564 231.293,52.564 226.367,52.564 
	226.367,55.95 231.293,55.95 "/>
<polygon fill="#B68800" points="261.036,55.95 265.807,55.95 265.959,55.95 270.732,55.95 270.887,55.95 275.813,55.95 
	275.813,52.564 270.887,52.564 270.732,52.564 265.959,52.564 265.807,52.564 261.036,52.564 260.879,52.564 255.956,52.564 
	255.956,55.95 260.879,55.95 "/>
<polygon fill="#B68800" points="300.504,55.95 305.431,55.95 305.431,52.564 300.504,52.564 300.351,52.564 295.424,52.564 
	295.424,55.95 300.351,55.95 "/>
<polygon fill="#B68800" points="201.829,65.408 206.601,65.408 206.755,65.408 211.527,65.408 211.681,65.408 216.453,65.408 
	216.607,65.408 221.38,65.408 221.534,65.408 226.306,65.408 226.459,65.408 231.231,65.408 231.385,65.408 236.158,65.408 
	236.312,65.408 241.084,65.408 241.238,65.408 246.164,65.408 246.164,62.021 241.238,62.021 241.084,62.021 236.312,62.021 
	236.158,62.021 231.385,62.021 231.231,62.021 226.459,62.021 226.306,62.021 221.534,62.021 221.38,62.021 216.607,62.021 
	216.453,62.021 211.681,62.021 211.527,62.021 206.755,62.021 206.601,62.021 201.829,62.021 201.675,62.021 196.749,62.021 
	196.749,65.408 201.675,65.408 "/>
<rect x="255.893" y="62.021" fill="#B68800" width="5.08" height="3.387"/>
<polygon fill="#869900" points="246.071,71.479 241.299,71.479 241.145,71.479 236.373,71.479 236.219,71.479 231.447,71.479 
	231.293,71.479 226.521,71.479 226.367,71.479 221.595,71.479 221.441,71.479 216.515,71.479 216.515,74.865 221.441,74.865 
	221.595,74.865 226.367,74.865 226.521,74.865 231.293,74.865 231.447,74.865 236.219,74.865 236.373,74.865 241.145,74.865 
	241.299,74.865 246.071,74.865 246.226,74.865 250.998,74.865 251.151,74.865 255.924,74.865 256.077,74.865 260.85,74.865 
	261.002,74.865 265.775,74.865 265.93,74.865 270.702,74.865 270.855,74.865 275.627,74.865 275.782,74.865 280.554,74.865 
	280.708,74.865 285.48,74.865 285.633,74.865 290.407,74.865 290.56,74.865 295.333,74.865 295.486,74.865 300.413,74.865 
	300.413,71.479 295.486,71.479 295.333,71.479 290.56,71.479 290.407,71.479 285.633,71.479 285.48,71.479 280.708,71.479 
	280.554,71.479 275.782,71.479 275.627,71.479 270.855,71.479 270.702,71.479 265.93,71.479 265.775,71.479 261.002,71.479 
	260.85,71.479 256.077,71.479 255.924,71.479 251.151,71.479 250.998,71.479 246.226,71.479 "/>
<polygon fill="#2EA197" points="315.221,74.865 319.995,74.865 320.147,74.865 324.919,74.865 325.075,74.865 329.847,74.865 
	329.999,74.865 334.771,74.865 334.925,74.865 339.698,74.865 339.853,74.865 344.624,74.865 344.778,74.865 349.55,74.865 
	349.704,74.865 354.476,74.865 354.63,74.865 359.401,74.865 359.556,74.865 364.329,74.865 364.481,74.865 369.255,74.865 
	369.409,74.865 374.181,74.865 374.335,74.865 379.106,74.865 379.261,74.865 384.034,74.865 384.187,74.865 388.958,74.865 
	389.112,74.865 393.884,74.865 394.04,74.865 398.812,74.865 398.964,74.865 403.737,74.865 403.892,74.865 408.663,74.865 
	408.815,74.865 413.589,74.865 413.743,74.865 418.515,74.865 418.669,74.865 423.44,74.865 423.595,74.865 428.368,74.865 
	428.521,74.865 433.294,74.865 433.448,74.865 438.22,74.865 438.374,74.865 443.146,74.865 443.3,74.865 448.071,74.865 
	448.226,74.865 452.997,74.865 453.151,74.865 457.925,74.865 458.079,74.865 463.003,74.865 463.003,71.479 458.079,71.479 
	457.925,71.479 453.151,71.479 452.997,71.479 448.226,71.479 448.071,71.479 443.3,71.479 443.146,71.479 438.374,71.479 
	438.22,71.479 433.448,71.479 433.294,71.479 428.521,71.479 428.368,71.479 423.595,71.479 423.44,71.479 418.669,71.479 
	418.515,71.479 413.743,71.479 413.589,71.479 408.815,71.479 408.663,71.479 403.892,71.479 403.737,71.479 398.964,71.479 
	398.812,71.479 394.04,71.479 393.884,71.479 389.112,71.479 388.958,71.479 384.187,71.479 384.034,71.479 379.261,71.479 
	379.106,71.479 374.335,71.479 374.181,71.479 369.409,71.479 369.255,71.479 364.481,71.479 364.329,71.479 359.556,71.479 
	359.401,71.479 354.63,71.479 354.476,71.479 349.704,71.479 349.55,71.479 344.778,71.479 344.624,71.479 339.853,71.479 
	339.698,71.479 334.925,71.479 334.771,71.479 329.999,71.479 329.847,71.479 325.075,71.479 324.919,71.479 320.147,71.479 
	319.995,71.479 315.221,71.479 315.067,71.479 310.141,71.479 310.141,74.865 315.067,74.865 "/>
<polygon fill="#869900" points="250.998,80.938 246.226,80.938 246.071,80.938 241.299,80.938 241.145,80.938 236.373,80.938 
	236.219,80.938 231.447,80.938 231.293,80.938 226.521,80.938 226.367,80.938 221.595,80.938 221.441,80.938 216.515,80.938 
	216.515,84.324 221.441,84.324 221.595,84.324 226.367,84.324 226.521,84.324 231.293,84.324 231.447,84.324 236.219,84.324 
	236.373,84.324 241.145,84.324 241.299,84.324 246.071,84.324 246.226,84.324 250.998,84.324 251.151,84.324 256.077,84.324 
	256.077,80.938 251.151,80.938 "/>
<polygon fill="#2EA197" points="290.437,80.938 285.665,80.938 285.511,80.938 280.738,80.938 280.584,80.938 275.813,80.938 
	275.659,80.938 270.887,80.938 270.732,80.938 265.807,80.938 265.807,84.324 270.732,84.324 270.887,84.324 275.659,84.324 
	275.813,84.324 280.584,84.324 280.738,84.324 285.511,84.324 285.665,84.324 290.437,84.324 290.59,84.324 295.517,84.324 
	295.517,80.938 290.59,80.938 "/>
<polygon fill="#869900" points="216.515,93.782 221.441,93.782 221.595,93.782 226.367,93.782 226.521,93.782 231.293,93.782 
	231.447,93.782 236.219,93.782 236.373,93.782 241.145,93.782 241.299,93.782 246.226,93.782 246.226,90.396 241.299,90.396 
	241.145,90.396 236.373,90.396 236.219,90.396 231.447,90.396 231.293,90.396 226.521,90.396 226.367,90.396 221.595,90.396 
	221.441,90.396 216.515,90.396 "/>
<polygon fill="#2EA197" points="261.036,90.396 260.879,90.396 255.956,90.396 255.956,93.782 260.879,93.782 261.036,93.782 
	265.807,93.782 265.959,93.782 270.732,93.782 270.887,93.782 275.659,93.782 275.813,93.782 280.584,93.782 280.738,93.782 
	285.665,93.782 285.665,90.396 280.738,90.396 280.584,90.396 275.813,90.396 275.659,90.396 270.887,90.396 270.732,90.396 
	265.959,90.396 265.807,90.396 "/>
<polygon fill="#869900" points="216.515,103.241 221.441,103.241 221.595,103.241 226.367,103.241 226.521,103.241 231.293,103.241 
	231.447,103.241 236.219,103.241 236.373,103.241 241.145,103.241 241.299,103.241 246.071,103.241 246.226,103.241 
	251.151,103.241 251.151,99.855 246.226,99.855 246.071,99.855 241.299,99.855 241.145,99.855 236.373,99.855 236.219,99.855 
	231.447,99.855 231.293,99.855 226.521,99.855 226.367,99.855 221.595,99.855 221.441,99.855 216.515,99.855 "/>
<polygon fill="#6D70C4" points="270.887,103.241 270.887,99.855 265.959,99.855 265.807,99.855 260.879,99.855 260.879,103.241 
	265.807,103.241 265.959,103.241 "/>
<polygon fill="#869900" points="216.515,112.7 221.441,112.7 221.595,112.7 226.367,112.7 226.521,112.7 231.293,112.7 
	231.447,112.7 236.219,112.7 236.373,112.7 241.145,112.7 241.299,112.7 246.071,112.7 246.226,112.7 251.151,112.7 
	251.151,109.313 246.226,109.313 246.071,109.313 241.299,109.313 241.145,109.313 236.373,109.313 236.219,109.313 
	231.447,109.313 231.293,109.313 226.521,109.313 226.367,109.313 221.595,109.313 221.441,109.313 216.515,109.313 "/>
<rect x="260.879" y="109.313" fill="#6D70C4" width="5.08" height="3.387"/>
<rect x="275.689" y="109.313" fill="#6D70C4" width="5.08" height="3.387"/>
<rect x="290.499" y="109.313" fill="#6D70C4" width="5.08" height="3.387"/>
<polygon fill="#2EA197" points="325.011,109.313 320.239,109.313 320.087,109.313 315.313,109.313 315.161,109.313 310.388,109.313 
	310.233,109.313 305.308,109.313 305.308,112.7 310.233,112.7 310.388,112.7 315.161,112.7 315.313,112.7 320.087,112.7 
	320.239,112.7 325.011,112.7 325.167,112.7 330.093,112.7 330.093,109.313 325.167,109.313 "/>
<polygon fill="#869900" points="216.515,122.155 221.441,122.155 221.595,122.155 226.367,122.155 226.521,122.155 231.293,122.155 
	231.447,122.155 236.219,122.155 236.373,122.155 241.145,122.155 241.299,122.155 246.071,122.155 246.226,122.155 
	250.998,122.155 251.151,122.155 255.924,122.155 256.077,122.155 261.002,122.155 261.002,118.771 256.077,118.771 
	255.924,118.771 251.151,118.771 250.998,118.771 246.226,118.771 246.071,118.771 241.299,118.771 241.145,118.771 
	236.373,118.771 236.219,118.771 231.447,118.771 231.293,118.771 226.521,118.771 226.367,118.771 221.595,118.771 
	221.441,118.771 216.515,118.771 "/>
<polygon fill="#2EA197" points="300.29,118.771 295.517,118.771 295.363,118.771 290.59,118.771 290.437,118.771 285.665,118.771 
	285.511,118.771 280.738,118.771 280.584,118.771 275.813,118.771 275.659,118.771 270.732,118.771 270.732,122.155 
	275.659,122.155 275.813,122.155 280.584,122.155 280.738,122.155 285.511,122.155 285.665,122.155 290.437,122.155 290.59,122.155 
	295.363,122.155 295.517,122.155 300.29,122.155 300.443,122.155 305.37,122.155 305.37,118.771 300.443,118.771 "/>
<polygon fill="#869900" points="216.515,131.614 221.441,131.614 221.595,131.614 226.367,131.614 226.521,131.614 231.293,131.614 
	231.447,131.614 236.219,131.614 236.373,131.614 241.145,131.614 241.299,131.614 246.071,131.614 246.226,131.614 
	250.998,131.614 251.151,131.614 255.924,131.614 256.077,131.614 260.85,131.614 261.002,131.614 265.775,131.614 265.93,131.614 
	270.702,131.614 270.855,131.614 275.782,131.614 275.782,128.229 270.855,128.229 270.702,128.229 265.93,128.229 265.775,128.229 
	261.002,128.229 260.85,128.229 256.077,128.229 255.924,128.229 251.151,128.229 250.998,128.229 246.226,128.229 246.071,128.229 
	241.299,128.229 241.145,128.229 236.373,128.229 236.219,128.229 231.447,128.229 231.293,128.229 226.521,128.229 
	226.367,128.229 221.595,128.229 221.441,128.229 216.515,128.229 "/>
<polygon fill="#2EA197" points="290.59,131.614 295.363,131.614 295.517,131.614 300.29,131.614 300.443,131.614 305.215,131.614 
	305.37,131.614 310.295,131.614 310.295,128.229 305.37,128.229 305.215,128.229 300.443,128.229 300.29,128.229 295.517,128.229 
	295.363,128.229 290.59,128.229 290.437,128.229 285.511,128.229 285.511,131.614 290.437,131.614 "/>
<polygon fill="#869900" points="216.515,141.073 221.441,141.073 221.595,141.073 226.367,141.073 226.521,141.073 231.293,141.073 
	231.447,141.073 236.219,141.073 236.373,141.073 241.145,141.073 241.299,141.073 246.226,141.073 246.226,137.687 
	241.299,137.687 241.145,137.687 236.373,137.687 236.219,137.687 231.447,137.687 231.293,137.687 226.521,137.687 
	226.367,137.687 221.595,137.687 221.441,137.687 216.515,137.687 "/>
<polygon fill="#2EA197" points="270.732,141.073 270.887,141.073 275.659,141.073 275.813,141.073 280.738,141.073 280.738,137.687 
	275.813,137.687 275.659,137.687 270.887,137.687 270.732,137.687 265.959,137.687 265.807,137.687 261.036,137.687 
	260.879,137.687 255.956,137.687 255.956,141.073 260.879,141.073 261.036,141.073 265.807,141.073 265.959,141.073 "/>
<rect x="196.749" y="147.145" fill="#93A1A1" width="5.08" height="3.387"/>
<polygon fill="#B68800" points="201.829,159.99 206.601,159.99 206.755,159.99 211.527,159.99 211.681,159.99 216.453,159.99 
	216.607,159.99 221.38,159.99 221.534,159.99 226.459,159.99 226.459,156.603 221.534,156.603 221.38,156.603 216.607,156.603 
	216.453,156.603 211.681,156.603 211.527,156.603 206.755,156.603 206.601,156.603 201.829,156.603 201.675,156.603 
	196.749,156.603 196.749,159.99 201.675,159.99 "/>
<polygon fill="#B68800" points="260.819,156.603 256.047,156.603 255.893,156.603 251.121,156.603 250.967,156.603 246.195,156.603 
	246.041,156.603 241.269,156.603 241.114,156.603 236.188,156.603 236.188,159.99 241.114,159.99 241.269,159.99 246.041,159.99 
	246.195,159.99 250.967,159.99 251.121,159.99 255.893,159.99 256.047,159.99 260.819,159.99 260.973,159.99 265.899,159.99 
	265.899,156.603 260.973,156.603 "/>
<polygon fill="#B68800" points="285.633,159.99 290.56,159.99 290.56,156.603 285.633,156.603 285.48,156.603 280.708,156.603 
	280.554,156.603 275.627,156.603 275.627,159.99 280.554,159.99 280.708,159.99 285.48,159.99 "/>
<polygon fill="#B68800" points="349.55,156.603 344.778,156.603 344.624,156.603 339.853,156.603 339.698,156.603 334.925,156.603 
	334.771,156.603 329.999,156.603 329.847,156.603 325.075,156.603 324.919,156.603 320.147,156.603 319.995,156.603 
	315.221,156.603 315.067,156.603 310.295,156.603 310.141,156.603 305.37,156.603 305.215,156.603 300.29,156.603 300.29,159.99 
	305.215,159.99 305.37,159.99 310.141,159.99 310.295,159.99 315.067,159.99 315.221,159.99 319.995,159.99 320.147,159.99 
	324.919,159.99 325.075,159.99 329.847,159.99 329.999,159.99 334.771,159.99 334.925,159.99 339.698,159.99 339.853,159.99 
	344.624,159.99 344.778,159.99 349.55,159.99 349.704,159.99 354.63,159.99 354.63,156.603 349.704,156.603 "/>
<polygon fill="#B68800" points="369.438,159.99 374.212,159.99 374.366,159.99 379.138,159.99 379.292,159.99 384.063,159.99 
	384.218,159.99 388.989,159.99 389.144,159.99 394.069,159.99 394.069,156.603 389.144,156.603 388.989,156.603 384.218,156.603 
	384.063,156.603 379.292,156.603 379.138,156.603 374.366,156.603 374.212,156.603 369.438,156.603 369.286,156.603 
	364.358,156.603 364.358,159.99 369.286,159.99 "/>
<rect x="403.798" y="156.603" fill="#93A1A1" width="5.08" height="3.388"/>
<polygon fill="#D33682" points="226.367,169.446 226.521,169.446 231.293,169.446 231.447,169.446 236.219,169.446 236.373,169.446 
	241.145,169.446 241.299,169.446 246.071,169.446 246.226,169.446 250.998,169.446 251.151,169.446 255.924,169.446 
	256.077,169.446 260.85,169.446 261.002,169.446 265.93,169.446 265.93,166.061 261.002,166.061 260.85,166.061 256.077,166.061 
	255.924,166.061 251.151,166.061 250.998,166.061 246.226,166.061 246.071,166.061 241.299,166.061 241.145,166.061 
	236.373,166.061 236.219,166.061 231.447,166.061 231.293,166.061 226.521,166.061 226.367,166.061 221.595,166.061 
	221.441,166.061 216.515,166.061 216.515,169.446 221.441,169.446 221.595,169.446 "/>
<rect x="275.659" y="166.061" fill="#93A1A1" width="5.08" height="3.386"/>
<polygon fill="#869900" points="241.361,178.905 246.133,178.905 246.287,178.905 251.059,178.905 251.213,178.905 255.985,178.905 
	256.139,178.905 260.911,178.905 261.065,178.905 265.838,178.905 265.991,178.905 270.763,178.905 270.917,178.905 
	275.842,178.905 275.842,175.52 270.917,175.52 270.763,175.52 265.991,175.52 265.838,175.52 261.065,175.52 260.911,175.52 
	256.139,175.52 255.985,175.52 251.213,175.52 251.059,175.52 246.287,175.52 246.133,175.52 241.361,175.52 241.207,175.52 
	236.281,175.52 236.281,178.905 241.207,178.905 "/>
<polygon fill="#2EA197" points="290.652,178.905 295.424,178.905 295.579,178.905 300.351,178.905 300.504,178.905 305.277,178.905 
	305.431,178.905 310.356,178.905 310.356,175.52 305.431,175.52 305.277,175.52 300.504,175.52 300.351,175.52 295.579,175.52 
	295.424,175.52 290.652,175.52 290.499,175.52 285.573,175.52 285.573,178.905 290.499,178.905 "/>
<rect x="216.515" y="184.977" fill="#93A1A1" width="5.08" height="3.387"/>
<rect x="196.749" y="194.436" fill="#93A1A1" width="5.08" height="3.386"/>
<polygon fill="#B68800" points="201.829,216.736 206.601,216.736 206.755,216.736 211.527,216.736 211.681,216.736 216.453,216.736 
	216.607,216.736 221.38,216.736 221.534,216.736 226.306,216.736 226.459,216.736 231.231,216.736 231.385,216.736 236.158,216.736 
	236.312,216.736 241.238,216.736 241.238,213.35 236.312,213.35 236.158,213.35 231.385,213.35 231.231,213.35 226.459,213.35 
	226.306,213.35 221.534,213.35 221.38,213.35 216.607,213.35 216.453,213.35 211.681,213.35 211.527,213.35 206.755,213.35 
	206.601,213.35 201.829,213.35 201.675,213.35 196.749,213.35 196.749,216.736 201.675,216.736 "/>
<rect x="250.967" y="213.35" fill="#93A1A1" width="5.081" height="3.386"/>
<polygon fill="#869900" points="236.373,222.81 236.219,222.81 231.447,222.81 231.293,222.81 226.521,222.81 226.367,222.81 
	221.595,222.81 221.441,222.81 216.515,222.81 216.515,226.195 221.441,226.195 221.595,226.195 226.367,226.195 226.521,226.195 
	231.293,226.195 231.447,226.195 236.219,226.195 236.373,226.195 241.145,226.195 241.299,226.195 246.071,226.195 
	246.226,226.195 250.998,226.195 251.151,226.195 255.924,226.195 256.077,226.195 260.85,226.195 261.002,226.195 265.775,226.195 
	265.93,226.195 270.702,226.195 270.855,226.195 275.627,226.195 275.782,226.195 280.554,226.195 280.708,226.195 285.48,226.195 
	285.633,226.195 290.56,226.195 290.56,222.81 285.633,222.81 285.48,222.81 280.708,222.81 280.554,222.81 275.782,222.81 
	275.627,222.81 270.855,222.81 270.702,222.81 265.93,222.81 265.775,222.81 261.002,222.81 260.85,222.81 256.077,222.81 
	255.924,222.81 251.151,222.81 250.998,222.81 246.226,222.81 246.071,222.81 241.299,222.81 241.145,222.81 "/>
<polygon fill="#2EA197" points="354.63,222.81 349.704,222.81 349.55,222.81 344.778,222.81 344.624,222.81 339.853,222.81 
	339.698,222.81 334.925,222.81 334.771,222.81 329.999,222.81 329.847,222.81 325.075,222.81 324.919,222.81 320.147,222.81 
	319.995,222.81 315.221,222.81 315.067,222.81 310.295,222.81 310.141,222.81 305.37,222.81 305.215,222.81 300.29,222.81 
	300.29,226.195 305.215,226.195 305.37,226.195 310.141,226.195 310.295,226.195 315.067,226.195 315.221,226.195 319.995,226.195 
	320.147,226.195 324.919,226.195 325.075,226.195 329.847,226.195 329.999,226.195 334.771,226.195 334.925,226.195 
	339.698,226.195 339.853,226.195 344.624,226.195 344.778,226.195 349.55,226.195 349.704,226.195 354.63,226.195 "/>
<rect x="196.749" y="232.266" fill="#93A1A1" width="5.08" height="3.389"/>
<polygon fill="#B68800" points="201.829,245.112 206.601,245.112 206.755,245.112 211.527,245.112 211.681,245.112 216.453,245.112 
	216.607,245.112 221.38,245.112 221.534,245.112 226.306,245.112 226.459,245.112 231.231,245.112 231.385,245.112 236.158,245.112 
	236.312,245.112 241.238,245.112 241.238,241.725 236.312,241.725 236.158,241.725 231.385,241.725 231.231,241.725 
	226.459,241.725 226.306,241.725 221.534,241.725 221.38,241.725 216.607,241.725 216.453,241.725 211.681,241.725 211.527,241.725 
	206.755,241.725 206.601,241.725 201.829,241.725 201.675,241.725 196.749,241.725 196.749,245.112 201.675,245.112 "/>
<polygon fill="#B68800" points="255.893,241.725 250.967,241.725 250.967,245.112 255.893,245.112 256.047,245.112 260.973,245.112 
	260.973,241.725 256.047,241.725 "/>
<rect x="270.702" y="241.725" fill="#B68800" width="5.08" height="3.388"/>
<rect x="285.511" y="241.725" fill="#93A1A1" width="5.081" height="3.388"/>
<polygon fill="#869900" points="236.373,251.184 236.219,251.184 231.447,251.184 231.293,251.184 226.521,251.184 226.367,251.184 
	221.595,251.184 221.441,251.184 216.515,251.184 216.515,254.571 221.441,254.571 221.595,254.571 226.367,254.571 
	226.521,254.571 231.293,254.571 231.447,254.571 236.219,254.571 236.373,254.571 241.145,254.571 241.299,254.571 
	246.071,254.571 246.226,254.571 250.998,254.571 251.151,254.571 255.924,254.571 256.077,254.571 260.85,254.571 261.002,254.571 
	265.775,254.571 265.93,254.571 270.702,254.571 270.855,254.571 275.627,254.571 275.782,254.571 280.554,254.571 280.708,254.571 
	285.633,254.571 285.633,251.184 280.708,251.184 280.554,251.184 275.782,251.184 275.627,251.184 270.855,251.184 
	270.702,251.184 265.93,251.184 265.775,251.184 261.002,251.184 260.85,251.184 256.077,251.184 255.924,251.184 251.151,251.184 
	250.998,251.184 246.226,251.184 246.071,251.184 241.299,251.184 241.145,251.184 "/>
<polygon fill="#6D70C4" points="305.215,251.184 300.443,251.184 300.29,251.184 295.363,251.184 295.363,254.571 300.29,254.571 
	300.443,254.571 305.215,254.571 305.37,254.571 310.295,254.571 310.295,251.184 305.37,251.184 "/>
<polygon fill="#6D70C4" points="344.808,254.571 344.808,251.184 339.882,251.184 339.728,251.184 334.958,251.184 334.802,251.184 
	330.03,251.184 329.876,251.184 325.104,251.184 324.95,251.184 320.024,251.184 320.024,254.571 324.95,254.571 325.104,254.571 
	329.876,254.571 330.03,254.571 334.802,254.571 334.958,254.571 339.728,254.571 339.882,254.571 "/>
<polygon fill="#6D70C4" points="359.464,251.184 354.538,251.184 354.538,254.571 359.464,254.571 359.618,254.571 364.39,254.571 
	364.544,254.571 369.315,254.571 369.47,254.571 374.243,254.571 374.396,254.571 379.169,254.571 379.323,254.571 384.095,254.571 
	384.249,254.571 389.021,254.571 389.175,254.571 393.946,254.571 394.101,254.571 398.872,254.571 399.026,254.571 
	403.798,254.571 403.952,254.571 408.724,254.571 408.878,254.571 413.804,254.571 413.804,251.184 408.878,251.184 
	408.724,251.184 403.952,251.184 403.798,251.184 399.026,251.184 398.872,251.184 394.101,251.184 393.946,251.184 
	389.175,251.184 389.021,251.184 384.249,251.184 384.095,251.184 379.323,251.184 379.169,251.184 374.396,251.184 
	374.243,251.184 369.47,251.184 369.315,251.184 364.544,251.184 364.39,251.184 359.618,251.184 "/>
<polygon fill="#869900" points="216.515,264.028 221.441,264.028 221.595,264.028 226.367,264.028 226.521,264.028 231.293,264.028 
	231.447,264.028 236.219,264.028 236.373,264.028 241.145,264.028 241.299,264.028 246.071,264.028 246.226,264.028 
	250.998,264.028 251.151,264.028 255.924,264.028 256.077,264.028 260.85,264.028 261.002,264.028 265.93,264.028 265.93,260.643 
	261.002,260.643 260.85,260.643 256.077,260.643 255.924,260.643 251.151,260.643 250.998,260.643 246.226,260.643 246.071,260.643 
	241.299,260.643 241.145,260.643 236.373,260.643 236.219,260.643 231.447,260.643 231.293,260.643 226.521,260.643 
	226.367,260.643 221.595,260.643 221.441,260.643 216.515,260.643 "/>
<polygon fill="#2EA197" points="280.738,260.643 280.584,260.643 275.659,260.643 275.659,264.028 280.584,264.028 280.738,264.028 
	285.511,264.028 285.665,264.028 290.437,264.028 290.59,264.028 295.363,264.028 295.517,264.028 300.443,264.028 300.443,260.643 
	295.517,260.643 295.363,260.643 290.59,260.643 290.437,260.643 285.665,260.643 285.511,260.643 "/>
<polygon fill="#869900" points="216.515,273.486 221.441,273.486 221.595,273.486 226.367,273.486 226.521,273.486 231.293,273.486 
	231.447,273.486 236.219,273.486 236.373,273.486 241.145,273.486 241.299,273.486 246.071,273.486 246.226,273.486 
	250.998,273.486 251.151,273.486 255.924,273.486 256.077,273.486 260.85,273.486 261.002,273.486 265.775,273.486 265.93,273.486 
	270.702,273.486 270.855,273.486 275.782,273.486 275.782,270.1 270.855,270.1 270.702,270.1 265.93,270.1 265.775,270.1 
	261.002,270.1 260.85,270.1 256.077,270.1 255.924,270.1 251.151,270.1 250.998,270.1 246.226,270.1 246.071,270.1 241.299,270.1 
	241.145,270.1 236.373,270.1 236.219,270.1 231.447,270.1 231.293,270.1 226.521,270.1 226.367,270.1 221.595,270.1 221.441,270.1 
	216.515,270.1 "/>
<polygon fill="#6D70C4" points="290.59,273.486 295.363,273.486 295.517,273.486 300.29,273.486 300.443,273.486 305.215,273.486 
	305.37,273.486 310.141,273.486 310.295,273.486 315.067,273.486 315.221,273.486 320.147,273.486 320.147,270.1 315.221,270.1 
	315.067,270.1 310.295,270.1 310.141,270.1 305.37,270.1 305.215,270.1 300.443,270.1 300.29,270.1 295.517,270.1 295.363,270.1 
	290.59,270.1 290.437,270.1 285.511,270.1 285.511,273.486 290.437,273.486 "/>
<polygon fill="#6D70C4" points="339.882,273.486 339.882,270.1 334.958,270.1 334.802,270.1 329.876,270.1 329.876,273.486 
	334.802,273.486 334.958,273.486 "/>
<polygon fill="#6D70C4" points="359.464,270.1 354.69,270.1 354.538,270.1 349.61,270.1 349.61,273.486 354.538,273.486 
	354.69,273.486 359.464,273.486 359.618,273.486 364.544,273.486 364.544,270.1 359.618,270.1 "/>
<polygon fill="#CC4A14" points="384.278,270.1 379.353,270.1 379.198,270.1 374.272,270.1 374.272,273.486 379.198,273.486 
	379.353,273.486 384.278,273.486 "/>
<polygon fill="#6D70C4" points="458.202,270.1 458.046,270.1 453.274,270.1 453.122,270.1 448.349,270.1 448.194,270.1 
	443.423,270.1 443.269,270.1 438.497,270.1 438.343,270.1 433.569,270.1 433.417,270.1 428.644,270.1 428.491,270.1 423.718,270.1 
	423.563,270.1 418.792,270.1 418.638,270.1 413.866,270.1 413.712,270.1 408.94,270.1 408.786,270.1 404.015,270.1 403.858,270.1 
	399.087,270.1 398.935,270.1 394.009,270.1 394.009,273.486 398.935,273.486 399.087,273.486 403.858,273.486 404.015,273.486 
	408.786,273.486 408.94,273.486 413.712,273.486 413.866,273.486 418.638,273.486 418.792,273.486 423.563,273.486 423.718,273.486 
	428.491,273.486 428.644,273.486 433.417,273.486 433.569,273.486 438.343,273.486 438.497,273.486 443.269,273.486 
	443.423,273.486 448.194,273.486 448.349,273.486 453.122,273.486 453.274,273.486 458.046,273.486 458.202,273.486 
	462.974,273.486 463.126,273.486 467.899,273.486 468.054,273.486 472.825,273.486 472.979,273.486 477.751,273.486 
	477.905,273.486 482.679,273.486 482.831,273.486 487.604,273.486 487.757,273.486 492.53,273.486 492.685,273.486 497.61,273.486 
	497.61,270.1 492.685,270.1 492.53,270.1 487.757,270.1 487.604,270.1 482.831,270.1 482.679,270.1 477.905,270.1 477.751,270.1 
	472.979,270.1 472.825,270.1 468.054,270.1 467.899,270.1 463.126,270.1 462.974,270.1 "/>
<polygon fill="#B68800" points="201.829,282.944 206.601,282.944 206.755,282.944 211.527,282.944 211.681,282.944 216.453,282.944 
	216.607,282.944 221.38,282.944 221.534,282.944 226.306,282.944 226.459,282.944 231.231,282.944 231.385,282.944 236.158,282.944 
	236.312,282.944 241.084,282.944 241.238,282.944 246.01,282.944 246.164,282.944 250.936,282.944 251.09,282.944 255.862,282.944 
	256.016,282.944 260.788,282.944 260.942,282.944 265.868,282.944 265.868,279.557 260.942,279.557 260.788,279.557 
	256.016,279.557 255.862,279.557 251.09,279.557 250.936,279.557 246.164,279.557 246.01,279.557 241.238,279.557 241.084,279.557 
	236.312,279.557 236.158,279.557 231.385,279.557 231.231,279.557 226.459,279.557 226.306,279.557 221.534,279.557 221.38,279.557 
	216.607,279.557 216.453,279.557 211.681,279.557 211.527,279.557 206.755,279.557 206.601,279.557 201.829,279.557 
	201.675,279.557 196.749,279.557 196.749,282.944 201.675,282.944 "/>
<polygon fill="#869900" points="221.595,292.402 226.367,292.402 226.521,292.402 231.293,292.402 231.447,292.402 236.219,292.402 
	236.373,292.402 241.145,292.402 241.299,292.402 246.226,292.402 246.226,289.016 241.299,289.016 241.145,289.016 
	236.373,289.016 236.219,289.016 231.447,289.016 231.293,289.016 226.521,289.016 226.367,289.016 221.595,289.016 
	221.441,289.016 216.515,289.016 216.515,292.402 221.441,292.402 "/>
<polygon fill="#2EA197" points="261.036,289.016 260.879,289.016 255.956,289.016 255.956,292.402 260.879,292.402 261.036,292.402 
	265.807,292.402 265.959,292.402 270.732,292.402 270.887,292.402 275.659,292.402 275.813,292.402 280.584,292.402 
	280.738,292.402 285.511,292.402 285.665,292.402 290.437,292.402 290.59,292.402 295.517,292.402 295.517,289.016 290.59,289.016 
	290.437,289.016 285.665,289.016 285.511,289.016 280.738,289.016 280.584,289.016 275.813,289.016 275.659,289.016 
	270.887,289.016 270.732,289.016 265.959,289.016 265.807,289.016 "/>
<polygon fill="#869900" points="216.515,301.86 221.441,301.86 221.595,301.86 226.367,301.86 226.521,301.86 231.293,301.86 
	231.447,301.86 236.219,301.86 236.373,301.86 241.145,301.86 241.299,301.86 246.071,301.86 246.226,301.86 250.998,301.86 
	251.151,301.86 255.924,301.86 256.077,301.86 260.85,301.86 261.002,301.86 265.775,301.86 265.93,301.86 270.702,301.86 
	270.855,301.86 275.627,301.86 275.782,301.86 280.554,301.86 280.708,301.86 285.48,301.86 285.633,301.86 290.56,301.86 
	290.56,298.473 285.633,298.473 285.48,298.473 280.708,298.473 280.554,298.473 275.782,298.473 275.627,298.473 270.855,298.473 
	270.702,298.473 265.93,298.473 265.775,298.473 261.002,298.473 260.85,298.473 256.077,298.473 255.924,298.473 251.151,298.473 
	250.998,298.473 246.226,298.473 246.071,298.473 241.299,298.473 241.145,298.473 236.373,298.473 236.219,298.473 
	231.447,298.473 231.293,298.473 226.521,298.473 226.367,298.473 221.595,298.473 221.441,298.473 216.515,298.473 "/>
<polygon fill="#2EA197" points="334.925,301.86 334.925,298.473 329.999,298.473 329.847,298.473 325.075,298.473 324.919,298.473 
	320.147,298.473 319.995,298.473 315.221,298.473 315.067,298.473 310.295,298.473 310.141,298.473 305.37,298.473 305.215,298.473 
	300.29,298.473 300.29,301.86 305.215,301.86 305.37,301.86 310.141,301.86 310.295,301.86 315.067,301.86 315.221,301.86 
	319.995,301.86 320.147,301.86 324.919,301.86 325.075,301.86 329.847,301.86 329.999,301.86 "/>
<polygon fill="#869900" points="216.515,311.319 221.441,311.319 221.595,311.319 226.367,311.319 226.521,311.319 231.293,311.319 
	231.447,311.319 236.219,311.319 236.373,311.319 241.145,311.319 241.299,311.319 246.071,311.319 246.226,311.319 
	250.998,311.319 251.151,311.319 256.077,311.319 256.077,307.932 251.151,307.932 250.998,307.932 246.226,307.932 
	246.071,307.932 241.299,307.932 241.145,307.932 236.373,307.932 236.219,307.932 231.447,307.932 231.293,307.932 
	226.521,307.932 226.367,307.932 221.595,307.932 221.441,307.932 216.515,307.932 "/>
<polygon fill="#6D70C4" points="280.584,307.932 275.813,307.932 275.659,307.932 270.887,307.932 270.732,307.932 265.807,307.932 
	265.807,311.319 270.732,311.319 270.887,311.319 275.659,311.319 275.813,311.319 280.584,311.319 280.738,311.319 
	285.665,311.319 285.665,307.932 280.738,307.932 "/>
<polygon fill="#6D70C4" points="295.394,311.319 300.32,311.319 300.474,311.319 305.4,311.319 305.4,307.932 300.474,307.932 
	300.32,307.932 295.394,307.932 "/>
<rect x="196.749" y="317.389" fill="#93A1A1" width="5.08" height="3.388"/>
<polygon fill="#B68800" points="201.829,330.234 206.601,330.234 206.755,330.234 211.527,330.234 211.681,330.234 216.453,330.234 
	216.607,330.234 221.38,330.234 221.534,330.234 226.306,330.234 226.459,330.234 231.231,330.234 231.385,330.234 236.158,330.234 
	236.312,330.234 241.238,330.234 241.238,326.848 236.312,326.848 236.158,326.848 231.385,326.848 231.231,326.848 
	226.459,326.848 226.306,326.848 221.534,326.848 221.38,326.848 216.607,326.848 216.453,326.848 211.681,326.848 211.527,326.848 
	206.755,326.848 206.601,326.848 201.829,326.848 201.675,326.848 196.749,326.848 196.749,330.234 201.675,330.234 "/>
<polygon fill="#B68800" points="260.973,330.234 260.973,326.848 256.047,326.848 255.893,326.848 250.967,326.848 250.967,330.234 
	255.893,330.234 256.047,330.234 "/>
<polygon fill="#B68800" points="290.56,326.848 290.407,326.848 285.633,326.848 285.48,326.848 280.708,326.848 280.554,326.848 
	275.782,326.848 275.627,326.848 270.702,326.848 270.702,330.234 275.627,330.234 275.782,330.234 280.554,330.234 
	280.708,330.234 285.48,330.234 285.633,330.234 290.407,330.234 290.56,330.234 295.333,330.234 295.486,330.234 300.258,330.234 
	300.413,330.234 305.338,330.234 305.338,326.848 300.413,326.848 300.258,326.848 295.486,326.848 295.333,326.848 "/>
<rect x="315.067" y="326.848" fill="#93A1A1" width="5.081" height="3.387"/>
<polygon fill="#869900" points="236.373,336.305 236.219,336.305 231.447,336.305 231.293,336.305 226.521,336.305 226.367,336.305 
	221.595,336.305 221.441,336.305 216.515,336.305 216.515,339.692 221.441,339.692 221.595,339.692 226.367,339.692 
	226.521,339.692 231.293,339.692 231.447,339.692 236.219,339.692 236.373,339.692 241.145,339.692 241.299,339.692 
	246.226,339.692 246.226,336.305 241.299,336.305 241.145,336.305 "/>
<polygon fill="#2EA197" points="261.036,339.692 265.807,339.692 265.959,339.692 270.732,339.692 270.887,339.692 275.659,339.692 
	275.813,339.692 280.584,339.692 280.738,339.692 285.511,339.692 285.665,339.692 290.437,339.692 290.59,339.692 295.517,339.692 
	295.517,336.305 290.59,336.305 290.437,336.305 285.665,336.305 285.511,336.305 280.738,336.305 280.584,336.305 275.813,336.305 
	275.659,336.305 270.887,336.305 270.732,336.305 265.959,336.305 265.807,336.305 261.036,336.305 260.879,336.305 
	255.956,336.305 255.956,339.692 260.879,339.692 "/>
<polygon fill="#869900" points="216.515,349.151 221.441,349.151 221.595,349.151 226.367,349.151 226.521,349.151 231.293,349.151 
	231.447,349.151 236.219,349.151 236.373,349.151 241.145,349.151 241.299,349.151 246.071,349.151 246.226,349.151 
	250.998,349.151 251.151,349.151 255.924,349.151 256.077,349.151 260.85,349.151 261.002,349.151 265.775,349.151 265.93,349.151 
	270.702,349.151 270.855,349.151 275.627,349.151 275.782,349.151 280.708,349.151 280.708,345.764 275.782,345.764 
	275.627,345.764 270.855,345.764 270.702,345.764 265.93,345.764 265.775,345.764 261.002,345.764 260.85,345.764 256.077,345.764 
	255.924,345.764 251.151,345.764 250.998,345.764 246.226,345.764 246.071,345.764 241.299,345.764 241.145,345.764 
	236.373,345.764 236.219,345.764 231.447,345.764 231.293,345.764 226.521,345.764 226.367,345.764 221.595,345.764 
	221.441,345.764 216.515,345.764 "/>
<polygon fill="#2EA197" points="310.295,345.764 310.141,345.764 305.37,345.764 305.215,345.764 300.443,345.764 300.29,345.764 
	295.517,345.764 295.363,345.764 290.437,345.764 290.437,349.151 295.363,349.151 295.517,349.151 300.29,349.151 300.443,349.151 
	305.215,349.151 305.37,349.151 310.141,349.151 310.295,349.151 315.067,349.151 315.221,349.151 319.995,349.151 320.147,349.151 
	324.919,349.151 325.075,349.151 329.999,349.151 329.999,345.764 325.075,345.764 324.919,345.764 320.147,345.764 
	319.995,345.764 315.221,345.764 315.067,345.764 "/>
<rect x="196.749" y="355.223" fill="#93A1A1" width="5.08" height="3.387"/>
<polygon fill="#B68800" points="201.957,382.467 206.73,382.467 206.883,382.467 211.657,382.467 211.81,382.467 216.582,382.467 
	216.737,382.467 221.508,382.467 221.663,382.467 226.434,382.467 226.588,382.467 231.36,382.467 231.514,382.467 236.287,382.467 
	236.44,382.467 241.213,382.467 241.367,382.467 246.138,382.467 246.292,382.467 251.065,382.467 251.218,382.467 255.991,382.467 
	256.145,382.467 260.917,382.467 261.071,382.467 265.997,382.467 265.997,379.082 261.071,379.082 260.917,379.082 
	256.145,379.082 255.991,379.082 251.218,379.082 251.065,379.082 246.292,379.082 246.138,379.082 241.367,379.082 
	241.213,379.082 236.44,379.082 236.287,379.082 231.514,379.082 231.36,379.082 226.588,379.082 226.434,379.082 221.663,379.082 
	221.508,379.082 216.737,379.082 216.582,379.082 211.81,379.082 211.657,379.082 206.883,379.082 206.73,379.082 201.957,379.082 
	201.804,379.082 196.877,379.082 196.877,382.467 201.804,382.467 "/>
<rect x="275.726" y="379.082" fill="#93A1A1" width="5.08" height="3.387"/>
<polygon fill="#869900" points="256.052,388.541 251.28,388.541 251.126,388.541 246.354,388.541 246.2,388.541 241.428,388.541 
	241.274,388.541 236.502,388.541 236.348,388.541 231.576,388.541 231.422,388.541 226.65,388.541 226.496,388.541 221.723,388.541 
	221.57,388.541 216.643,388.541 216.643,391.926 221.57,391.926 221.723,391.926 226.496,391.926 226.65,391.926 231.422,391.926 
	231.576,391.926 236.348,391.926 236.502,391.926 241.274,391.926 241.428,391.926 246.2,391.926 246.354,391.926 251.126,391.926 
	251.28,391.926 256.052,391.926 256.208,391.926 261.131,391.926 261.131,388.541 256.208,388.541 "/>
<polygon fill="#2EA197" points="310.27,388.541 305.499,388.541 305.342,388.541 300.573,388.541 300.417,388.541 295.646,388.541 
	295.493,388.541 290.72,388.541 290.566,388.541 285.793,388.541 285.64,388.541 280.868,388.541 280.713,388.541 275.942,388.541 
	275.788,388.541 270.861,388.541 270.861,391.926 275.788,391.926 275.942,391.926 280.713,391.926 280.868,391.926 285.64,391.926 
	285.793,391.926 290.566,391.926 290.72,391.926 295.493,391.926 295.646,391.926 300.417,391.926 300.573,391.926 305.342,391.926 
	305.499,391.926 310.27,391.926 310.422,391.926 315.35,391.926 315.35,388.541 310.422,388.541 "/>
<polygon fill="#869900" points="216.643,401.385 221.57,401.385 221.723,401.385 226.496,401.385 226.65,401.385 231.422,401.385 
	231.576,401.385 236.502,401.385 236.502,397.997 231.576,397.997 231.422,397.997 226.65,397.997 226.496,397.997 221.723,397.997 
	221.57,397.997 216.643,397.997 "/>
<polygon fill="#2EA197" points="261.008,397.997 256.237,397.997 256.083,397.997 251.311,397.997 251.157,397.997 246.231,397.997 
	246.231,401.385 251.157,401.385 251.311,401.385 256.083,401.385 256.237,401.385 261.008,401.385 261.165,401.385 
	266.088,401.385 266.088,397.997 261.165,397.997 "/>
<polygon fill="#869900" points="216.643,410.842 221.57,410.842 221.723,410.842 226.496,410.842 226.65,410.842 231.422,410.842 
	231.576,410.842 236.348,410.842 236.502,410.842 241.428,410.842 241.428,407.459 236.502,407.459 236.348,407.459 
	231.576,407.459 231.422,407.459 226.65,407.459 226.496,407.459 221.723,407.459 221.57,407.459 216.643,407.459 "/>
<polygon fill="#2EA197" points="256.237,410.842 261.008,410.842 261.165,410.842 265.935,410.842 266.088,410.842 271.015,410.842 
	271.015,407.459 266.088,407.459 265.935,407.459 261.165,407.459 261.008,407.459 256.237,407.459 256.083,407.459 
	251.157,407.459 251.157,410.842 256.083,410.842 "/>
<polygon fill="#869900" points="216.643,420.299 221.57,420.299 221.723,420.299 226.65,420.299 226.65,416.913 221.723,416.913 
	221.57,416.913 216.643,416.913 "/>
<polygon fill="#2EA197" points="246.384,416.913 246.231,416.913 241.458,416.913 241.304,416.913 236.379,416.913 236.379,420.299 
	241.304,420.299 241.458,420.299 246.231,420.299 246.384,420.299 251.157,420.299 251.311,420.299 256.083,420.299 
	256.237,420.299 261.008,420.299 261.165,420.299 266.088,420.299 266.088,416.913 261.165,416.913 261.008,416.913 
	256.237,416.913 256.083,416.913 251.311,416.913 251.157,416.913 "/>
<polygon fill="#2EA197" points="295.522,416.913 290.75,416.913 290.596,416.913 285.825,416.913 285.67,416.913 280.898,416.913 
	280.745,416.913 275.818,416.913 275.818,420.299 280.745,420.299 280.898,420.299 285.67,420.299 285.825,420.299 290.596,420.299 
	290.75,420.299 295.522,420.299 295.676,420.299 300.603,420.299 300.603,416.913 295.676,416.913 "/>
<polygon fill="#CC4A14" points="320.337,416.913 315.413,416.913 315.256,416.913 310.333,416.913 310.333,420.299 315.256,420.299 
	315.413,420.299 320.337,420.299 "/>
<polygon fill="#869900" points="216.643,429.758 221.57,429.758 221.723,429.758 226.496,429.758 226.65,429.758 231.422,429.758 
	231.576,429.758 236.348,429.758 236.502,429.758 241.274,429.758 241.428,429.758 246.354,429.758 246.354,426.372 
	241.428,426.372 241.274,426.372 236.502,426.372 236.348,426.372 231.576,426.372 231.422,426.372 226.65,426.372 226.496,426.372 
	221.723,426.372 221.57,426.372 216.643,426.372 "/>
<polygon fill="#2EA197" points="261.165,429.758 265.935,429.758 266.088,429.758 270.861,429.758 271.015,429.758 275.788,429.758 
	275.942,429.758 280.713,429.758 280.868,429.758 285.793,429.758 285.793,426.372 280.868,426.372 280.713,426.372 
	275.942,426.372 275.788,426.372 271.015,426.372 270.861,426.372 266.088,426.372 265.935,426.372 261.165,426.372 
	261.008,426.372 256.083,426.372 256.083,429.758 261.008,429.758 "/>
<polygon fill="#869900" points="216.643,439.217 221.57,439.217 221.723,439.217 226.496,439.217 226.65,439.217 231.422,439.217 
	231.576,439.217 236.348,439.217 236.502,439.217 241.274,439.217 241.428,439.217 246.2,439.217 246.354,439.217 251.126,439.217 
	251.28,439.217 256.052,439.217 256.208,439.217 260.979,439.217 261.131,439.217 266.059,439.217 266.059,435.831 261.131,435.831 
	260.979,435.831 256.208,435.831 256.052,435.831 251.28,435.831 251.126,435.831 246.354,435.831 246.2,435.831 241.428,435.831 
	241.274,435.831 236.502,435.831 236.348,435.831 231.576,435.831 231.422,435.831 226.65,435.831 226.496,435.831 221.723,435.831 
	221.57,435.831 216.643,435.831 "/>
<polygon fill="#6D70C4" points="300.417,435.831 295.646,435.831 295.493,435.831 290.72,435.831 290.566,435.831 285.793,435.831 
	285.64,435.831 280.868,435.831 280.713,435.831 275.788,435.831 275.788,439.217 280.713,439.217 280.868,439.217 285.64,439.217 
	285.793,439.217 290.566,439.217 290.72,439.217 295.493,439.217 295.646,439.217 300.417,439.217 300.573,439.217 305.499,439.217 
	305.499,435.831 300.573,435.831 "/>
<polygon fill="#869900" points="216.643,448.674 221.57,448.674 221.723,448.674 226.496,448.674 226.65,448.674 231.422,448.674 
	231.576,448.674 236.348,448.674 236.502,448.674 241.274,448.674 241.428,448.674 246.2,448.674 246.354,448.674 251.126,448.674 
	251.28,448.674 256.208,448.674 256.208,445.288 251.28,445.288 251.126,445.288 246.354,445.288 246.2,445.288 241.428,445.288 
	241.274,445.288 236.502,445.288 236.348,445.288 231.576,445.288 231.422,445.288 226.65,445.288 226.496,445.288 221.723,445.288 
	221.57,445.288 216.643,445.288 "/>
<polygon fill="#2EA197" points="265.935,448.674 270.861,448.674 271.015,448.674 275.788,448.674 275.942,448.674 280.713,448.674 
	280.868,448.674 285.64,448.674 285.793,448.674 290.72,448.674 290.72,445.288 285.793,445.288 285.64,445.288 280.868,445.288 
	280.713,445.288 275.942,445.288 275.788,445.288 271.015,445.288 270.861,445.288 265.935,445.288 "/>
<g id="Layer_3_3_">
	<rect x="145.312" fill="#0E3E49" width="108.224" height="35.486"/>
</g>
<polygon fill="#C9C3C7" points="164.53,19.044 166.684,19.044 166.753,19.044 168.905,19.044 168.976,19.044 171.128,19.044 
	171.197,19.044 173.35,19.044 173.42,19.044 175.573,19.044 175.643,19.044 177.795,19.044 177.865,19.044 180.018,19.044 
	180.087,19.044 182.24,19.044 182.31,19.044 184.462,19.044 184.532,19.044 186.686,19.044 186.754,19.044 188.908,19.044 
	188.978,19.044 191.13,19.044 191.2,19.044 193.353,19.044 193.422,19.044 195.576,19.044 195.645,19.044 197.797,19.044 
	197.867,19.044 200.02,19.044 200.09,19.044 202.243,19.044 202.312,19.044 204.465,19.044 204.535,19.044 206.688,19.044 
	206.756,19.044 208.91,19.044 208.979,19.044 211.132,19.044 211.202,19.044 213.354,19.044 213.424,19.044 215.578,19.044 
	215.646,19.044 217.8,19.044 217.87,19.044 220.022,19.044 220.092,19.044 222.245,19.044 222.314,19.044 224.467,19.044 
	224.537,19.044 226.689,19.044 226.759,19.044 228.913,19.044 228.982,19.044 231.204,19.044 231.204,15.659 228.982,15.659 
	228.913,15.659 226.759,15.659 226.689,15.659 224.537,15.659 224.467,15.659 222.314,15.659 222.245,15.659 220.092,15.659 
	220.022,15.659 217.87,15.659 217.8,15.659 215.646,15.659 215.578,15.659 213.424,15.659 213.354,15.659 211.202,15.659 
	211.132,15.659 208.979,15.659 208.91,15.659 206.756,15.659 206.688,15.659 204.535,15.659 204.465,15.659 202.312,15.659 
	202.243,15.659 200.09,15.659 200.02,15.659 197.867,15.659 197.797,15.659 195.645,15.659 195.576,15.659 193.422,15.659 
	193.353,15.659 191.2,15.659 191.13,15.659 188.978,15.659 188.908,15.659 186.754,15.659 186.686,15.659 184.532,15.659 
	184.462,15.659 182.31,15.659 182.24,15.659 180.087,15.659 180.018,15.659 177.865,15.659 177.795,15.659 175.643,15.659 
	175.573,15.659 173.42,15.659 173.35,15.659 171.197,15.659 171.128,15.659 168.976,15.659 168.905,15.659 166.753,15.659 
	166.684,15.659 164.53,15.659 164.46,15.659 162.238,15.659 162.238,19.044 164.46,19.044 "/>
<polygon fill="#16616D" points="278.346,19.044 280.5,19.044 280.569,19.044 282.721,19.044 282.792,19.044 284.944,19.044 
	285.013,19.044 287.166,19.044 287.236,19.044 289.389,19.044 289.459,19.044 291.611,19.044 291.681,19.044 293.834,19.044 
	293.903,19.044 296.056,19.044 296.126,19.044 298.278,19.044 298.348,19.044 300.502,19.044 300.57,19.044 302.724,19.044 
	302.793,19.044 304.946,19.044 305.016,19.044 307.168,19.044 307.238,19.044 309.392,19.044 309.46,19.044 311.613,19.044 
	311.683,19.044 313.835,19.044 313.906,19.044 316.059,19.044 316.127,19.044 318.281,19.044 318.351,19.044 320.503,19.044 
	320.572,19.044 322.726,19.044 322.795,19.044 324.948,19.044 325.018,19.044 327.17,19.044 327.24,19.044 329.394,19.044 
	329.462,19.044 331.616,19.044 331.686,19.044 333.838,19.044 333.908,19.044 336.061,19.044 336.13,19.044 338.283,19.044 
	338.353,19.044 340.505,19.044 340.575,19.044 342.729,19.044 342.798,19.044 345.02,19.044 345.02,15.659 342.798,15.659 
	342.729,15.659 340.575,15.659 340.505,15.659 338.353,15.659 338.283,15.659 336.13,15.659 336.061,15.659 333.908,15.659 
	333.838,15.659 331.686,15.659 331.616,15.659 329.462,15.659 329.394,15.659 327.24,15.659 327.17,15.659 325.018,15.659 
	324.948,15.659 322.795,15.659 322.726,15.659 320.572,15.659 320.503,15.659 318.351,15.659 318.281,15.659 316.127,15.659 
	316.059,15.659 313.906,15.659 313.835,15.659 311.683,15.659 311.613,15.659 309.46,15.659 309.392,15.659 307.238,15.659 
	307.168,15.659 305.016,15.659 304.946,15.659 302.793,15.659 302.724,15.659 300.57,15.659 300.502,15.659 298.348,15.659 
	298.278,15.659 296.126,15.659 296.056,15.659 293.903,15.659 293.834,15.659 291.681,15.659 291.611,15.659 289.459,15.659 
	289.389,15.659 287.236,15.659 287.166,15.659 285.013,15.659 284.944,15.659 282.792,15.659 282.721,15.659 280.569,15.659 
	280.5,15.659 278.346,15.659 278.276,15.659 276.054,15.659 276.054,19.044 278.276,19.044 "/>
<polygon fill="#16616D" points="371.752,19.044 373.905,19.044 373.975,19.044 376.127,19.044 376.197,19.044 378.35,19.044 
	378.418,19.044 380.571,19.044 380.641,19.044 382.795,19.044 382.864,19.044 385.017,19.044 385.086,19.044 387.239,19.044 
	387.309,19.044 389.461,19.044 389.531,19.044 391.684,19.044 391.754,19.044 393.907,19.044 393.976,19.044 396.129,19.044 
	396.199,19.044 398.352,19.044 398.422,19.044 400.574,19.044 400.644,19.044 402.797,19.044 402.865,19.044 405.019,19.044 
	405.088,19.044 407.24,19.044 407.312,19.044 409.465,19.044 409.533,19.044 411.687,19.044 411.756,19.044 413.908,19.044 
	413.978,19.044 416.131,19.044 416.201,19.044 418.354,19.044 418.423,19.044 420.576,19.044 420.646,19.044 422.799,19.044 
	422.867,19.044 425.021,19.044 425.091,19.044 427.244,19.044 427.312,19.044 429.466,19.044 429.535,19.044 431.688,19.044 
	431.758,19.044 433.91,19.044 433.98,19.044 436.134,19.044 436.203,19.044 438.425,19.044 438.425,15.659 436.203,15.659 
	436.134,15.659 433.98,15.659 433.91,15.659 431.758,15.659 431.688,15.659 429.535,15.659 429.466,15.659 427.312,15.659 
	427.244,15.659 425.091,15.659 425.021,15.659 422.867,15.659 422.799,15.659 420.646,15.659 420.576,15.659 418.423,15.659 
	418.354,15.659 416.201,15.659 416.131,15.659 413.978,15.659 413.908,15.659 411.756,15.659 411.687,15.659 409.533,15.659 
	409.465,15.659 407.312,15.659 407.24,15.659 405.088,15.659 405.019,15.659 402.865,15.659 402.797,15.659 400.644,15.659 
	400.574,15.659 398.422,15.659 398.352,15.659 396.199,15.659 396.129,15.659 393.976,15.659 393.907,15.659 391.754,15.659 
	391.684,15.659 389.531,15.659 389.461,15.659 387.309,15.659 387.239,15.659 385.086,15.659 385.017,15.659 382.864,15.659 
	382.795,15.659 380.641,15.659 380.571,15.659 378.418,15.659 378.35,15.659 376.197,15.659 376.127,15.659 373.975,15.659 
	373.905,15.659 371.752,15.659 371.682,15.659 369.459,15.659 369.459,19.044 371.682,19.044 "/>
<polygon fill="#16616D" points="463.501,19.044 465.654,19.044 465.724,19.044 467.876,19.044 467.946,19.044 470.099,19.044 
	470.167,19.044 472.32,19.044 472.39,19.044 474.544,19.044 474.613,19.044 476.766,19.044 476.835,19.044 478.988,19.044 
	479.058,19.044 481.21,19.044 481.28,19.044 483.433,19.044 483.503,19.044 485.656,19.044 485.725,19.044 487.878,19.044 
	487.948,19.044 490.101,19.044 490.171,19.044 492.323,19.044 492.393,19.044 494.546,19.044 494.614,19.044 496.768,19.044 
	496.837,19.044 498.989,19.044 499.061,19.044 501.214,19.044 501.282,19.044 503.436,19.044 503.505,19.044 505.657,19.044 
	505.727,19.044 507.88,19.044 507.95,19.044 510.103,19.044 510.172,19.044 512.325,19.044 512.395,19.044 514.548,19.044 
	514.616,19.044 516.771,19.044 516.84,19.044 518.993,19.044 519.062,19.044 521.215,19.044 521.284,19.044 523.437,19.044 
	523.507,19.044 525.659,19.044 525.729,19.044 527.883,19.044 527.952,19.044 530.174,19.044 530.174,15.659 527.952,15.659 
	527.883,15.659 525.729,15.659 525.659,15.659 523.507,15.659 523.437,15.659 521.284,15.659 521.215,15.659 519.062,15.659 
	518.993,15.659 516.84,15.659 516.771,15.659 514.616,15.659 514.548,15.659 512.395,15.659 512.325,15.659 510.172,15.659 
	510.103,15.659 507.95,15.659 507.88,15.659 505.727,15.659 505.657,15.659 503.505,15.659 503.436,15.659 501.282,15.659 
	501.214,15.659 499.061,15.659 498.989,15.659 496.837,15.659 496.768,15.659 494.614,15.659 494.546,15.659 492.393,15.659 
	492.323,15.659 490.171,15.659 490.101,15.659 487.948,15.659 487.878,15.659 485.725,15.659 485.656,15.659 483.503,15.659 
	483.433,15.659 481.28,15.659 481.21,15.659 479.058,15.659 478.988,15.659 476.835,15.659 476.766,15.659 474.613,15.659 
	474.544,15.659 472.39,15.659 472.32,15.659 470.167,15.659 470.099,15.659 467.946,15.659 467.876,15.659 465.724,15.659 
	465.654,15.659 463.501,15.659 463.431,15.659 461.208,15.659 461.208,19.044 463.431,19.044 "/>
<polygon fill="#AAAAAA" points="25.603,28.411 30.529,28.411 30.529,25.025 25.603,25.025 25.449,25.025 20.523,25.025 
	20.523,28.411 25.449,28.411 "/>
<polygon fill="#AAAAAA" points="25.603,37.869 30.375,37.869 30.529,37.869 35.301,37.869 35.455,37.869 40.227,37.869 
	40.381,37.869 45.154,37.869 45.308,37.869 50.08,37.869 50.233,37.869 55.005,37.869 55.159,37.869 59.932,37.869 60.086,37.869 
	64.858,37.869 65.012,37.869 69.938,37.869 69.938,34.482 65.012,34.482 64.858,34.482 60.086,34.482 59.932,34.482 55.159,34.482 
	55.005,34.482 50.233,34.482 50.08,34.482 45.308,34.482 45.154,34.482 40.381,34.482 40.227,34.482 35.455,34.482 35.301,34.482 
	30.529,34.482 30.375,34.482 25.603,34.482 25.449,34.482 20.523,34.482 20.523,37.869 25.449,37.869 "/>
<polygon fill="#AAAAAA" points="69.845,43.94 65.073,43.94 64.919,43.94 60.147,43.94 59.993,43.94 55.221,43.94 55.067,43.94 
	50.295,43.94 50.141,43.94 45.369,43.94 45.215,43.94 40.289,43.94 40.289,47.326 45.215,47.326 45.369,47.326 50.141,47.326 
	50.295,47.326 55.067,47.326 55.221,47.326 59.993,47.326 60.147,47.326 64.919,47.326 65.073,47.326 69.845,47.326 70,47.326 
	74.772,47.326 74.925,47.326 79.698,47.326 79.851,47.326 84.624,47.326 84.776,47.326 89.549,47.326 89.704,47.326 94.476,47.326 
	94.629,47.326 99.401,47.326 99.556,47.326 104.328,47.326 104.481,47.326 109.254,47.326 109.407,47.326 114.181,47.326 
	114.334,47.326 119.106,47.326 119.26,47.326 124.187,47.326 124.187,43.94 119.26,43.94 119.106,43.94 114.334,43.94 
	114.181,43.94 109.407,43.94 109.254,43.94 104.481,43.94 104.328,43.94 99.556,43.94 99.401,43.94 94.629,43.94 94.476,43.94 
	89.704,43.94 89.549,43.94 84.776,43.94 84.624,43.94 79.851,43.94 79.698,43.94 74.925,43.94 74.772,43.94 70,43.94 "/>
<polygon fill="#AAAAAA" points="74.772,53.399 70,53.399 69.845,53.399 65.073,53.399 64.919,53.399 60.147,53.399 59.993,53.399 
	55.221,53.399 55.067,53.399 50.295,53.399 50.141,53.399 45.369,53.399 45.215,53.399 40.289,53.399 40.289,56.785 45.215,56.785 
	45.369,56.785 50.141,56.785 50.295,56.785 55.067,56.785 55.221,56.785 59.993,56.785 60.147,56.785 64.919,56.785 65.073,56.785 
	69.845,56.785 70,56.785 74.772,56.785 74.925,56.785 79.851,56.785 79.851,53.399 74.925,53.399 "/>
<polygon fill="#AAAAAA" points="40.289,66.243 45.215,66.243 45.369,66.243 50.141,66.243 50.295,66.243 55.067,66.243 
	55.221,66.243 59.993,66.243 60.147,66.243 64.919,66.243 65.073,66.243 70,66.243 70,62.857 65.073,62.857 64.919,62.857 
	60.147,62.857 59.993,62.857 55.221,62.857 55.067,62.857 50.295,62.857 50.141,62.857 45.369,62.857 45.215,62.857 40.289,62.857 
	"/>
<polygon fill="#AAAAAA" points="40.289,75.702 45.215,75.702 45.369,75.702 50.141,75.702 50.295,75.702 55.067,75.702 
	55.221,75.702 59.993,75.702 60.147,75.702 64.919,75.702 65.073,75.702 69.845,75.702 70,75.702 74.925,75.702 74.925,72.316 
	70,72.316 69.845,72.316 65.073,72.316 64.919,72.316 60.147,72.316 59.993,72.316 55.221,72.316 55.067,72.316 50.295,72.316 
	50.141,72.316 45.369,72.316 45.215,72.316 40.289,72.316 "/>
<polygon fill="#AAAAAA" points="40.289,85.161 45.215,85.161 45.369,85.161 50.141,85.161 50.295,85.161 55.067,85.161 
	55.221,85.161 59.993,85.161 60.147,85.161 64.919,85.161 65.073,85.161 69.845,85.161 70,85.161 74.925,85.161 74.925,81.774 
	70,81.774 69.845,81.774 65.073,81.774 64.919,81.774 60.147,81.774 59.993,81.774 55.221,81.774 55.067,81.774 50.295,81.774 
	50.141,81.774 45.369,81.774 45.215,81.774 40.289,81.774 "/>
<polygon fill="#AAAAAA" points="40.289,94.616 45.215,94.616 45.369,94.616 50.141,94.616 50.295,94.616 55.067,94.616 
	55.221,94.616 59.993,94.616 60.147,94.616 64.919,94.616 65.073,94.616 69.845,94.616 70,94.616 74.772,94.616 74.925,94.616 
	79.698,94.616 79.851,94.616 84.776,94.616 84.776,91.231 79.851,91.231 79.698,91.231 74.925,91.231 74.772,91.231 70,91.231 
	69.845,91.231 65.073,91.231 64.919,91.231 60.147,91.231 59.993,91.231 55.221,91.231 55.067,91.231 50.295,91.231 50.141,91.231 
	45.369,91.231 45.215,91.231 40.289,91.231 "/>
<polygon fill="#AAAAAA" points="40.289,104.075 45.215,104.075 45.369,104.075 50.141,104.075 50.295,104.075 55.067,104.075 
	55.221,104.075 59.993,104.075 60.147,104.075 64.919,104.075 65.073,104.075 69.845,104.075 70,104.075 74.772,104.075 
	74.925,104.075 79.698,104.075 79.851,104.075 84.624,104.075 84.776,104.075 89.549,104.075 89.704,104.075 94.476,104.075 
	94.629,104.075 99.556,104.075 99.556,100.69 94.629,100.69 94.476,100.69 89.704,100.69 89.549,100.69 84.776,100.69 
	84.624,100.69 79.851,100.69 79.698,100.69 74.925,100.69 74.772,100.69 70,100.69 69.845,100.69 65.073,100.69 64.919,100.69 
	60.147,100.69 59.993,100.69 55.221,100.69 55.067,100.69 50.295,100.69 50.141,100.69 45.369,100.69 45.215,100.69 40.289,100.69 
	"/>
<polygon fill="#AAAAAA" points="40.289,113.534 45.215,113.534 45.369,113.534 50.141,113.534 50.295,113.534 55.067,113.534 
	55.221,113.534 59.993,113.534 60.147,113.534 64.919,113.534 65.073,113.534 70,113.534 70,110.147 65.073,110.147 64.919,110.147 
	60.147,110.147 59.993,110.147 55.221,110.147 55.067,110.147 50.295,110.147 50.141,110.147 45.369,110.147 45.215,110.147 
	40.289,110.147 "/>
<polygon fill="#AAAAAA" points="25.603,132.451 30.375,132.451 30.529,132.451 35.301,132.451 35.455,132.451 40.227,132.451 
	40.381,132.451 45.154,132.451 45.308,132.451 50.233,132.451 50.233,129.063 45.308,129.063 45.154,129.063 40.381,129.063 
	40.227,129.063 35.455,129.063 35.301,129.063 30.529,129.063 30.375,129.063 25.603,129.063 25.449,129.063 20.523,129.063 
	20.523,132.451 25.449,132.451 "/>
<polygon fill="#AAAAAA" points="50.141,141.907 50.295,141.907 55.067,141.907 55.221,141.907 59.993,141.907 60.147,141.907 
	64.919,141.907 65.073,141.907 69.845,141.907 70,141.907 74.772,141.907 74.925,141.907 79.698,141.907 79.851,141.907 
	84.624,141.907 84.776,141.907 89.704,141.907 89.704,138.521 84.776,138.521 84.624,138.521 79.851,138.521 79.698,138.521 
	74.925,138.521 74.772,138.521 70,138.521 69.845,138.521 65.073,138.521 64.919,138.521 60.147,138.521 59.993,138.521 
	55.221,138.521 55.067,138.521 50.295,138.521 50.141,138.521 45.369,138.521 45.215,138.521 40.289,138.521 40.289,141.907 
	45.215,141.907 45.369,141.907 "/>
<polygon fill="#AAAAAA" points="25.603,164.358 30.375,164.358 30.529,164.358 35.301,164.358 35.455,164.358 40.227,164.358 
	40.381,164.358 45.154,164.358 45.308,164.358 50.08,164.358 50.233,164.358 55.005,164.358 55.159,164.358 59.932,164.358 
	60.086,164.358 65.012,164.358 65.012,160.972 60.086,160.972 59.932,160.972 55.159,160.972 55.005,160.972 50.233,160.972 
	50.08,160.972 45.308,160.972 45.154,160.972 40.381,160.972 40.227,160.972 35.455,160.972 35.301,160.972 30.529,160.972 
	30.375,160.972 25.603,160.972 25.449,160.972 20.523,160.972 20.523,164.358 25.449,164.358 "/>
<polygon fill="#AAAAAA" points="60.147,170.432 59.993,170.432 55.221,170.432 55.067,170.432 50.295,170.432 50.141,170.432 
	45.369,170.432 45.215,170.432 40.289,170.432 40.289,173.817 45.215,173.817 45.369,173.817 50.141,173.817 50.295,173.817 
	55.067,173.817 55.221,173.817 59.993,173.817 60.147,173.817 64.919,173.817 65.073,173.817 69.845,173.817 70,173.817 
	74.772,173.817 74.925,173.817 79.698,173.817 79.851,173.817 84.624,173.817 84.776,173.817 89.549,173.817 89.704,173.817 
	94.476,173.817 94.629,173.817 99.401,173.817 99.556,173.817 104.328,173.817 104.481,173.817 109.254,173.817 109.407,173.817 
	114.334,173.817 114.334,170.432 109.407,170.432 109.254,170.432 104.481,170.432 104.328,170.432 99.556,170.432 99.401,170.432 
	94.629,170.432 94.476,170.432 89.704,170.432 89.549,170.432 84.776,170.432 84.624,170.432 79.851,170.432 79.698,170.432 
	74.925,170.432 74.772,170.432 70,170.432 69.845,170.432 65.073,170.432 64.919,170.432 "/>
<polygon fill="#AAAAAA" points="25.603,195.218 30.375,195.218 30.529,195.218 35.301,195.218 35.455,195.218 40.227,195.218 
	40.381,195.218 45.154,195.218 45.308,195.218 50.08,195.218 50.233,195.218 55.005,195.218 55.159,195.218 59.932,195.218 
	60.086,195.218 65.012,195.218 65.012,191.829 60.086,191.829 59.932,191.829 55.159,191.829 55.005,191.829 50.233,191.829 
	50.08,191.829 45.308,191.829 45.154,191.829 40.381,191.829 40.227,191.829 35.455,191.829 35.301,191.829 30.529,191.829 
	30.375,191.829 25.603,191.829 25.449,191.829 20.523,191.829 20.523,195.218 25.449,195.218 "/>
<polygon fill="#AAAAAA" points="60.147,201.288 59.993,201.288 55.221,201.288 55.067,201.288 50.295,201.288 50.141,201.288 
	45.369,201.288 45.215,201.288 40.289,201.288 40.289,204.677 45.215,204.677 45.369,204.677 50.141,204.677 50.295,204.677 
	55.067,204.677 55.221,204.677 59.993,204.677 60.147,204.677 64.919,204.677 65.073,204.677 69.845,204.677 70,204.677 
	74.772,204.677 74.925,204.677 79.698,204.677 79.851,204.677 84.624,204.677 84.776,204.677 89.549,204.677 89.704,204.677 
	94.476,204.677 94.629,204.677 99.401,204.677 99.556,204.677 104.328,204.677 104.481,204.677 109.407,204.677 109.407,201.288 
	104.481,201.288 104.328,201.288 99.556,201.288 99.401,201.288 94.629,201.288 94.476,201.288 89.704,201.288 89.549,201.288 
	84.776,201.288 84.624,201.288 79.851,201.288 79.698,201.288 74.925,201.288 74.772,201.288 70,201.288 69.845,201.288 
	65.073,201.288 64.919,201.288 "/>
<polygon fill="#AAAAAA" points="40.289,214.134 45.215,214.134 45.369,214.134 50.141,214.134 50.295,214.134 55.067,214.134 
	55.221,214.134 59.993,214.134 60.147,214.134 64.919,214.134 65.073,214.134 69.845,214.134 70,214.134 74.772,214.134 
	74.925,214.134 79.698,214.134 79.851,214.134 84.624,214.134 84.776,214.134 89.704,214.134 89.704,210.747 84.776,210.747 
	84.624,210.747 79.851,210.747 79.698,210.747 74.925,210.747 74.772,210.747 70,210.747 69.845,210.747 65.073,210.747 
	64.919,210.747 60.147,210.747 59.993,210.747 55.221,210.747 55.067,210.747 50.295,210.747 50.141,210.747 45.369,210.747 
	45.215,210.747 40.289,210.747 "/>
<polygon fill="#AAAAAA" points="40.289,223.591 45.215,223.591 45.369,223.591 50.141,223.591 50.295,223.591 55.067,223.591 
	55.221,223.591 59.993,223.591 60.147,223.591 64.919,223.591 65.073,223.591 69.845,223.591 70,223.591 74.772,223.591 
	74.925,223.591 79.698,223.591 79.851,223.591 84.624,223.591 84.776,223.591 89.549,223.591 89.704,223.591 94.476,223.591 
	94.629,223.591 99.556,223.591 99.556,220.204 94.629,220.204 94.476,220.204 89.704,220.204 89.549,220.204 84.776,220.204 
	84.624,220.204 79.851,220.204 79.698,220.204 74.925,220.204 74.772,220.204 70,220.204 69.845,220.204 65.073,220.204 
	64.919,220.204 60.147,220.204 59.993,220.204 55.221,220.204 55.067,220.204 50.295,220.204 50.141,220.204 45.369,220.204 
	45.215,220.204 40.289,220.204 "/>
<polygon fill="#AAAAAA" points="25.603,233.053 30.375,233.053 30.529,233.053 35.301,233.053 35.455,233.053 40.227,233.053 
	40.381,233.053 45.154,233.053 45.308,233.053 50.08,233.053 50.233,233.053 55.005,233.053 55.159,233.053 59.932,233.053 
	60.086,233.053 64.858,233.053 65.012,233.053 69.784,233.053 69.938,233.053 74.71,233.053 74.864,233.053 79.636,233.053 
	79.79,233.053 84.562,233.053 84.716,233.053 89.642,233.053 89.642,229.664 84.716,229.664 84.562,229.664 79.79,229.664 
	79.636,229.664 74.864,229.664 74.71,229.664 69.938,229.664 69.784,229.664 65.012,229.664 64.858,229.664 60.086,229.664 
	59.932,229.664 55.159,229.664 55.005,229.664 50.233,229.664 50.08,229.664 45.308,229.664 45.154,229.664 40.381,229.664 
	40.227,229.664 35.455,229.664 35.301,229.664 30.529,229.664 30.375,229.664 25.603,229.664 25.449,229.664 20.523,229.664 
	20.523,233.053 25.449,233.053 "/>
<polygon fill="#AAAAAA" points="45.369,242.51 50.141,242.51 50.295,242.51 55.067,242.51 55.221,242.51 59.993,242.51 
	60.147,242.51 64.919,242.51 65.073,242.51 70,242.51 70,239.123 65.073,239.123 64.919,239.123 60.147,239.123 59.993,239.123 
	55.221,239.123 55.067,239.123 50.295,239.123 50.141,239.123 45.369,239.123 45.215,239.123 40.289,239.123 40.289,242.51 
	45.215,242.51 "/>
<polygon fill="#AAAAAA" points="40.289,251.969 45.215,251.969 45.369,251.969 50.141,251.969 50.295,251.969 55.067,251.969 
	55.221,251.969 59.993,251.969 60.147,251.969 64.919,251.969 65.073,251.969 69.845,251.969 70,251.969 74.772,251.969 
	74.925,251.969 79.698,251.969 79.851,251.969 84.624,251.969 84.776,251.969 89.549,251.969 89.704,251.969 94.476,251.969 
	94.629,251.969 99.401,251.969 99.556,251.969 104.328,251.969 104.481,251.969 109.254,251.969 109.407,251.969 114.334,251.969 
	114.334,248.58 109.407,248.58 109.254,248.58 104.481,248.58 104.328,248.58 99.556,248.58 99.401,248.58 94.629,248.58 
	94.476,248.58 89.704,248.58 89.549,248.58 84.776,248.58 84.624,248.58 79.851,248.58 79.698,248.58 74.925,248.58 74.772,248.58 
	70,248.58 69.845,248.58 65.073,248.58 64.919,248.58 60.147,248.58 59.993,248.58 55.221,248.58 55.067,248.58 50.295,248.58 
	50.141,248.58 45.369,248.58 45.215,248.58 40.289,248.58 "/>
<polygon fill="#AAAAAA" points="40.289,261.428 45.215,261.428 45.369,261.428 50.141,261.428 50.295,261.428 55.067,261.428 
	55.221,261.428 59.993,261.428 60.147,261.428 64.919,261.428 65.073,261.428 69.845,261.428 70,261.428 74.772,261.428 
	74.925,261.428 79.851,261.428 79.851,258.039 74.925,258.039 74.772,258.039 70,258.039 69.845,258.039 65.073,258.039 
	64.919,258.039 60.147,258.039 59.993,258.039 55.221,258.039 55.067,258.039 50.295,258.039 50.141,258.039 45.369,258.039 
	45.215,258.039 40.289,258.039 "/>
<polygon fill="#AAAAAA" points="25.603,280.342 30.375,280.342 30.529,280.342 35.301,280.342 35.455,280.342 40.227,280.342 
	40.381,280.342 45.154,280.342 45.308,280.342 50.08,280.342 50.233,280.342 55.005,280.342 55.159,280.342 59.932,280.342 
	60.086,280.342 65.012,280.342 65.012,276.955 60.086,276.955 59.932,276.955 55.159,276.955 55.005,276.955 50.233,276.955 
	50.08,276.955 45.308,276.955 45.154,276.955 40.381,276.955 40.227,276.955 35.455,276.955 35.301,276.955 30.529,276.955 
	30.375,276.955 25.603,276.955 25.449,276.955 20.523,276.955 20.523,280.342 25.449,280.342 "/>
<polygon fill="#AAAAAA" points="60.147,286.412 59.993,286.412 55.221,286.412 55.067,286.412 50.295,286.412 50.141,286.412 
	45.369,286.412 45.215,286.412 40.289,286.412 40.289,289.801 45.215,289.801 45.369,289.801 50.141,289.801 50.295,289.801 
	55.067,289.801 55.221,289.801 59.993,289.801 60.147,289.801 64.919,289.801 65.073,289.801 70,289.801 70,286.412 65.073,286.412 
	64.919,286.412 "/>
<polygon fill="#AAAAAA" points="40.289,299.26 45.215,299.26 45.369,299.26 50.141,299.26 50.295,299.26 55.067,299.26 
	55.221,299.26 59.993,299.26 60.147,299.26 64.919,299.26 65.073,299.26 69.845,299.26 70,299.26 74.772,299.26 74.925,299.26 
	79.698,299.26 79.851,299.26 84.624,299.26 84.776,299.26 89.549,299.26 89.704,299.26 94.476,299.26 94.629,299.26 99.401,299.26 
	99.556,299.26 104.481,299.26 104.481,295.871 99.556,295.871 99.401,295.871 94.629,295.871 94.476,295.871 89.704,295.871 
	89.549,295.871 84.776,295.871 84.624,295.871 79.851,295.871 79.698,295.871 74.925,295.871 74.772,295.871 70,295.871 
	69.845,295.871 65.073,295.871 64.919,295.871 60.147,295.871 59.993,295.871 55.221,295.871 55.067,295.871 50.295,295.871 
	50.141,295.871 45.369,295.871 45.215,295.871 40.289,295.871 "/>
<polygon fill="#AAAAAA" points="25.731,322.639 30.504,322.639 30.657,322.639 35.431,322.639 35.584,322.639 40.356,322.639 
	40.511,322.639 45.282,322.639 45.437,322.639 50.208,322.639 50.362,322.639 55.134,322.639 55.288,322.639 60.061,322.639 
	60.214,322.639 64.987,322.639 65.141,322.639 69.912,322.639 70.066,322.639 74.839,322.639 74.992,322.639 79.765,322.639 
	79.919,322.639 84.69,322.639 84.845,322.639 89.771,322.639 89.771,319.254 84.845,319.254 84.69,319.254 79.919,319.254 
	79.765,319.254 74.992,319.254 74.839,319.254 70.066,319.254 69.912,319.254 65.141,319.254 64.987,319.254 60.214,319.254 
	60.061,319.254 55.288,319.254 55.134,319.254 50.362,319.254 50.208,319.254 45.437,319.254 45.282,319.254 40.511,319.254 
	40.356,319.254 35.584,319.254 35.431,319.254 30.657,319.254 30.504,319.254 25.731,319.254 25.578,319.254 20.651,319.254 
	20.651,322.639 25.578,322.639 "/>
<polygon fill="#AAAAAA" points="79.826,328.713 75.054,328.713 74.9,328.713 70.128,328.713 69.974,328.713 65.202,328.713 
	65.048,328.713 60.276,328.713 60.122,328.713 55.35,328.713 55.196,328.713 50.424,328.713 50.27,328.713 45.497,328.713 
	45.344,328.713 40.417,328.713 40.417,332.098 45.344,332.098 45.497,332.098 50.27,332.098 50.424,332.098 55.196,332.098 
	55.35,332.098 60.122,332.098 60.276,332.098 65.048,332.098 65.202,332.098 69.974,332.098 70.128,332.098 74.9,332.098 
	75.054,332.098 79.826,332.098 79.981,332.098 84.905,332.098 84.905,328.713 79.981,328.713 "/>
<polygon fill="#AAAAAA" points="40.417,341.557 45.344,341.557 45.497,341.557 50.27,341.557 50.424,341.557 55.196,341.557 
	55.35,341.557 60.276,341.557 60.276,338.17 55.35,338.17 55.196,338.17 50.424,338.17 50.27,338.17 45.497,338.17 45.344,338.17 
	40.417,338.17 "/>
<polygon fill="#AAAAAA" points="40.417,351.014 45.344,351.014 45.497,351.014 50.27,351.014 50.424,351.014 55.196,351.014 
	55.35,351.014 60.122,351.014 60.276,351.014 65.202,351.014 65.202,347.631 60.276,347.631 60.122,347.631 55.35,347.631 
	55.196,347.631 50.424,347.631 50.27,347.631 45.497,347.631 45.344,347.631 40.417,347.631 "/>
<polygon fill="#AAAAAA" points="40.417,360.471 45.344,360.471 45.497,360.471 50.424,360.471 50.424,357.086 45.497,357.086 
	45.344,357.086 40.417,357.086 "/>
<polygon fill="#AAAAAA" points="40.417,369.93 45.344,369.93 45.497,369.93 50.27,369.93 50.424,369.93 55.196,369.93 55.35,369.93 
	60.122,369.93 60.276,369.93 65.048,369.93 65.202,369.93 70.128,369.93 70.128,366.545 65.202,366.545 65.048,366.545 
	60.276,366.545 60.122,366.545 55.35,366.545 55.196,366.545 50.424,366.545 50.27,366.545 45.497,366.545 45.344,366.545 
	40.417,366.545 "/>
<polygon fill="#AAAAAA" points="40.417,379.389 45.344,379.389 45.497,379.389 50.27,379.389 50.424,379.389 55.196,379.389 
	55.35,379.389 60.122,379.389 60.276,379.389 65.048,379.389 65.202,379.389 69.974,379.389 70.128,379.389 74.9,379.389 
	75.054,379.389 79.826,379.389 79.981,379.389 84.753,379.389 84.905,379.389 89.833,379.389 89.833,376.004 84.905,376.004 
	84.753,376.004 79.981,376.004 79.826,376.004 75.054,376.004 74.9,376.004 70.128,376.004 69.974,376.004 65.202,376.004 
	65.048,376.004 60.276,376.004 60.122,376.004 55.35,376.004 55.196,376.004 50.424,376.004 50.27,376.004 45.497,376.004 
	45.344,376.004 40.417,376.004 "/>
<polygon fill="#AAAAAA" points="40.417,388.846 45.344,388.846 45.497,388.846 50.27,388.846 50.424,388.846 55.196,388.846 
	55.35,388.846 60.122,388.846 60.276,388.846 65.048,388.846 65.202,388.846 69.974,388.846 70.128,388.846 74.9,388.846 
	75.054,388.846 79.981,388.846 79.981,385.461 75.054,385.461 74.9,385.461 70.128,385.461 69.974,385.461 65.202,385.461 
	65.048,385.461 60.276,385.461 60.122,385.461 55.35,385.461 55.196,385.461 50.424,385.461 50.27,385.461 45.497,385.461 
	45.344,385.461 40.417,385.461 "/>
</svg>
