<svg xmlns="http://www.w3.org/2000/svg" width="700" height="450" viewBox="0 0 700 450"><path fill="#0E3E49" d="M145.312 35.486h554.191V450H145.312z"/><path fill="#0D3438" d="M-1.099 35.486h146.907V450H-1.099zM-1.099 0h700.602v35.486H-1.099z"/><path fill="#B68800" d="M201.829 55.95h4.926v-3.386h-10.006v3.386h4.926zM231.447 55.95h14.779v-3.386h-19.859v3.386h4.926zM261.036 55.95h14.777v-3.386h-19.857v3.386h4.923zM300.504 55.95h4.927v-3.386H295.424v3.386h4.927zM201.829 65.408H246.164v-3.387H196.749v3.387h4.926zM255.893 62.021h5.08v3.387h-5.08z"/><path fill="#869900" d="M246.071 71.479H216.515v3.386H300.413v-3.386h-54.187z"/><path fill="#2EA197" d="M315.221 74.865h147.782v-3.386H310.141v3.386h4.926z"/><path fill="#869900" d="M250.998 80.938H216.515v3.386H256.077v-3.386h-4.926z"/><path fill="#2EA197" d="M290.437 80.938h-24.63v3.386h29.71v-3.386h-4.927z"/><path fill="#869900" d="M216.515 93.782H246.226v-3.386h-29.711z"/><path fill="#2EA197" d="M261.036 90.396h-5.08v3.386H285.665v-3.386h-19.858z"/><path fill="#869900" d="M216.515 103.241h34.636v-3.386h-34.636z"/><path fill="#6D70C4" d="M270.887 103.241v-3.386h-10.008v3.386h5.08z"/><path fill="#869900" d="M216.515 112.7h34.636v-3.387h-34.636z"/><path fill="#6D70C4" d="M260.879 109.313h5.08v3.387h-5.08zM275.689 109.313h5.08v3.387h-5.08zM290.499 109.313h5.08v3.387h-5.08z"/><path fill="#2EA197" d="M325.011 109.313h-19.703v3.387H330.093v-3.387h-4.926z"/><path fill="#869900" d="M216.515 122.155h44.487v-3.384H216.515z"/><path fill="#2EA197" d="M300.29 118.771h-29.558v3.384H305.37v-3.384h-4.927z"/><path fill="#869900" d="M216.515 131.614h59.267v-3.385H216.515z"/><path fill="#2EA197" d="M290.59 131.614h19.705v-3.385h-24.784v3.385h4.926z"/><path fill="#869900" d="M216.515 141.073H246.226v-3.386h-29.711z"/><path fill="#2EA197" d="M270.732 141.073h10.006v-3.386H255.956v3.386H265.959z"/><path fill="#93A1A1" d="M196.749 147.145h5.08v3.387h-5.08z"/><path fill="#B68800" d="M201.829 159.99H226.459v-3.387h-29.71v3.387h4.926zM260.819 156.603h-24.631v3.387h29.711v-3.387h-4.926zM285.633 159.99h4.927v-3.387h-14.933v3.387h9.853zM349.55 156.603H300.29v3.387H354.63v-3.387h-4.926zM369.438 159.99h24.631v-3.387h-29.711v3.387h4.928z"/><path fill="#93A1A1" d="M403.798 156.603h5.08v3.388h-5.08z"/><path fill="#D33682" d="M226.367 169.446H265.93v-3.385H216.515v3.385h5.08z"/><path fill="#93A1A1" d="M275.659 166.061h5.08v3.386h-5.08z"/><path fill="#869900" d="M241.361 178.905h34.481v-3.385H236.281v3.385h4.926z"/><path fill="#2EA197" d="M290.652 178.905h19.704v-3.385h-24.783v3.385h4.926z"/><path fill="#93A1A1" d="M216.515 184.977h5.08v3.387h-5.08zM196.749 194.436h5.08v3.386h-5.08z"/><path fill="#B68800" d="M201.829 216.736H241.238v-3.386H196.749v3.386h4.926z"/><path fill="#93A1A1" d="M250.967 213.35h5.081v3.386h-5.081z"/><path fill="#869900" d="M236.373 222.81h-19.858v3.385H290.56v-3.385H241.145z"/><path fill="#2EA197" d="M354.63 222.81h-54.34v3.385H354.63z"/><path fill="#93A1A1" d="M196.749 232.266h5.08v3.389h-5.08z"/><path fill="#B68800" d="M201.829 245.112H241.238v-3.387H196.749v3.387h4.926zM255.893 241.725h-4.926v3.387h10.006v-3.387h-4.926zM270.702 241.725h5.08v3.388h-5.08z"/><path fill="#93A1A1" d="M285.511 241.725h5.081v3.388h-5.081z"/><path fill="#869900" d="M236.373 251.184h-19.858v3.387h69.118v-3.387h-44.488z"/><path fill="#6D70C4" d="M305.215 251.184h-9.852v3.387H310.295v-3.387h-4.925zM344.808 254.571v-3.387h-24.784v3.387h19.858zM359.464 251.184h-4.926v3.387H413.804v-3.387H359.618z"/><path fill="#869900" d="M216.515 264.028H265.93v-3.385H216.515z"/><path fill="#2EA197" d="M280.738 260.643h-5.079v3.385h24.784v-3.385h-14.932z"/><path fill="#869900" d="M216.515 273.486h59.267V270.1H216.515z"/><path fill="#6D70C4" d="M290.59 273.486H320.147V270.1H285.511v3.386h4.926zM339.882 273.486V270.1h-10.006v3.386h5.082zM359.464 270.1h-9.854v3.386h14.934V270.1h-4.926z"/><path fill="#CC4A14" d="M384.278 270.1h-10.006v3.386h10.006z"/><path fill="#6D70C4" d="M458.202 270.1h-64.193v3.386H497.61V270.1h-34.636z"/><path fill="#B68800" d="M201.829 282.944H265.868v-3.387H196.749v3.387h4.926z"/><path fill="#869900" d="M221.595 292.402h24.631v-3.386h-29.711v3.386h4.926z"/><path fill="#2EA197" d="M261.036 289.016h-5.08v3.386H295.517v-3.386H265.807z"/><path fill="#869900" d="M216.515 301.86H290.56v-3.387h-74.045z"/><path fill="#2EA197" d="M334.925 301.86v-3.387H300.29v3.387H329.999z"/><path fill="#869900" d="M216.515 311.319H256.077v-3.387H216.515z"/><path fill="#6D70C4" d="M280.584 307.932H265.807v3.387h19.858v-3.387h-4.927zM295.394 311.319H305.4v-3.387h-10.006z"/><path fill="#93A1A1" d="M196.749 317.389h5.08v3.388h-5.08z"/><path fill="#B68800" d="M201.829 330.234H241.238v-3.386H196.749v3.386h4.926zM260.973 330.234v-3.386h-10.006v3.386h5.08zM290.56 326.848h-19.858v3.386H305.338v-3.386h-10.005z"/><path fill="#93A1A1" d="M315.067 326.848h5.081v3.387h-5.081z"/><path fill="#869900" d="M236.373 336.305h-19.858v3.387H246.226v-3.387H241.145z"/><path fill="#2EA197" d="M261.036 339.692H295.517v-3.387h-39.561v3.387h4.923z"/><path fill="#869900" d="M216.515 349.151h64.193v-3.387H216.515z"/><path fill="#2EA197" d="M310.295 345.764h-19.858v3.387H329.999v-3.387H315.067z"/><path fill="#93A1A1" d="M196.749 355.223h5.08v3.387h-5.08z"/><path fill="#B68800" d="M201.957 382.467h64.04v-3.385h-69.12v3.385h4.927z"/><path fill="#93A1A1" d="M275.726 379.082h5.08v3.387h-5.08z"/><path fill="#869900" d="M256.052 388.541h-39.409v3.385H261.131v-3.385h-4.923z"/><path fill="#2EA197" d="M310.27 388.541h-39.409v3.385H315.35v-3.385h-4.928z"/><path fill="#869900" d="M216.643 401.385H236.502v-3.388h-19.859z"/><path fill="#2EA197" d="M261.008 397.997h-14.777v3.388h19.857v-3.388h-4.923z"/><path fill="#869900" d="M216.643 410.842H241.428v-3.383H216.643z"/><path fill="#2EA197" d="M256.237 410.842h14.778v-3.383H251.157v3.383h4.926z"/><path fill="#869900" d="M216.643 420.299H226.65v-3.386H216.643z"/><path fill="#2EA197" d="M246.384 416.913H236.379v3.386H266.088v-3.386h-14.931zM295.522 416.913h-19.704v3.386h24.785v-3.386h-4.927z"/><path fill="#CC4A14" d="M320.337 416.913H310.333v3.386H320.337z"/><path fill="#869900" d="M216.643 429.758h29.711v-3.386h-29.711z"/><path fill="#2EA197" d="M261.165 429.758h24.628v-3.386H256.083v3.386h4.925z"/><path fill="#869900" d="M216.643 439.217H266.059v-3.386H216.643z"/><path fill="#6D70C4" d="M300.417 435.831h-24.629v3.386h29.711v-3.386h-4.926z"/><path fill="#869900" d="M216.643 448.674H256.208v-3.386h-39.565z"/><path fill="#2EA197" d="M265.935 448.674H290.72v-3.386H265.935z"/><path fill="#0E3E49" d="M145.312 0h108.224v35.486H145.312z"/><path fill="#C9C3C7" d="M164.53 19.044H231.204v-3.385H162.238v3.385h2.222z"/><path fill="#16616D" d="M278.346 19.044h66.674v-3.385H276.054v3.385h2.222zM371.752 19.044h66.673v-3.385h-68.966v3.385h2.223zM463.501 19.044h66.673v-3.385h-68.966v3.385h2.223z"/><path fill="#AAA" d="M25.603 28.411h4.926v-3.386H20.523v3.386h4.926zM25.603 37.869H69.938v-3.387H20.523v3.387h4.926zM69.845 43.94H40.289v3.386H124.187V43.94H70zM74.772 53.399H40.289v3.386H79.851v-3.386h-4.926zM40.289 66.243H70v-3.386H40.289zM40.289 75.702h34.636v-3.386H40.289zM40.289 85.161h34.636v-3.387H40.289zM40.289 94.616h44.487v-3.385H40.289zM40.289 104.075h59.267v-3.385H40.289zM40.289 113.534H70v-3.387H40.289zM25.603 132.451H50.233v-3.388h-29.71v3.388h4.926zM50.141 141.907H89.704v-3.386H40.289v3.386h5.08zM25.603 164.358H65.012v-3.386H20.523v3.386h4.926zM60.147 170.432H40.289v3.385H114.334v-3.385H64.919zM25.603 195.218H65.012v-3.389H20.523v3.389h4.926zM60.147 201.288H40.289v3.389H109.407v-3.389H64.919zM40.289 214.134H89.704v-3.387H40.289zM40.289 223.591h59.267v-3.387H40.289zM25.603 233.053H89.642v-3.389H20.523v3.389h4.926zM45.369 242.51H70v-3.387H40.289v3.387h4.926zM40.289 251.969H114.334v-3.389H40.289zM40.289 261.428H79.851v-3.389H40.289zM25.603 280.342H65.012v-3.387H20.523v3.387h4.926zM60.147 286.412H40.289v3.389H70v-3.389H64.919zM40.289 299.26H104.481v-3.389H40.289zM25.731 322.639h64.04v-3.385h-69.12v3.385h4.927zM79.826 328.713H40.417v3.385H84.905v-3.385h-4.924zM40.417 341.557H60.276v-3.387H40.417zM40.417 351.014H65.202v-3.383H40.417zM40.417 360.471H50.424v-3.385H40.417zM40.417 369.93h29.711v-3.385H40.417zM40.417 379.389H89.833v-3.385H40.417zM40.417 388.846H79.981v-3.385H40.417z"/></svg>