<?xml version="1.0" encoding="utf-8"?>
<!-- Generator: Adobe Illustrator 16.0.4, SVG Export Plug-In . SVG Version: 6.00 Build 0)  -->
<!DOCTYPE svg PUBLIC "-//W3C//DTD SVG 1.1//EN" "http://www.w3.org/Graphics/SVG/1.1/DTD/svg11.dtd">
<svg version="1.1" id="Layer_1" xmlns="http://www.w3.org/2000/svg" xmlns:xlink="http://www.w3.org/1999/xlink" x="0px" y="0px"
	 width="24px" height="24px" viewBox="0 0 24 24" enable-background="new 0 0 24 24" xml:space="preserve">
<path fill="#7A7A7A" d="M267.938,248.596c-0.879,0.389-1.823,0.652-2.813,0.771c1.011-0.606,1.788-1.566,2.153-2.71
	c-0.946,0.562-1.994,0.969-3.109,1.188c-0.895-0.951-2.167-1.546-3.576-1.546c-2.703,0-4.896,2.193-4.896,4.897
	c0,0.385,0.043,0.758,0.127,1.117c-4.071-0.205-7.68-2.154-10.096-5.119c-0.422,0.724-0.662,1.564-0.662,2.463
	c0,1.699,0.865,3.199,2.179,4.076c-0.804-0.024-1.558-0.246-2.218-0.612c0,0.021,0,0.041,0,0.062c0,2.373,1.688,4.354,3.929,4.803
	c-0.411,0.111-0.845,0.172-1.29,0.172c-0.316,0-0.623-0.031-0.922-0.088c0.624,1.945,2.432,3.361,4.576,3.4
	c-1.678,1.314-3.789,2.098-6.084,2.098c-0.395,0-0.784-0.022-1.168-0.068c2.168,1.391,4.742,2.199,7.509,2.199
	c9.009,0,13.937-7.463,13.937-13.934c0-0.213-0.006-0.425-0.016-0.635C266.449,250.439,267.279,249.577,267.938,248.596z"/>
<g>
	<polygon fill="none" stroke="#7A7A7A" stroke-width="1.5" stroke-miterlimit="10" points="16.224,2.259 19.75,6.773 19.75,21.866 
		4.375,21.866 4.375,2.259 	"/>
	<polyline fill="none" stroke="#7A7A7A" stroke-width="1.5" stroke-miterlimit="10" points="19.75,6.773 16.224,6.773 16.224,2.259 
			"/>
</g>
<line fill="none" stroke="#7A7A7A" stroke-width="1.5" stroke-miterlimit="10" x1="7.445" y1="6.827" x2="12.754" y2="6.827"/>
<line fill="none" stroke="#7A7A7A" stroke-width="1.5" stroke-miterlimit="10" x1="7.445" y1="10.524" x2="16.5" y2="10.524"/>
<line fill="none" stroke="#7A7A7A" stroke-width="1.5" stroke-miterlimit="10" x1="7.445" y1="14.222" x2="16.5" y2="14.222"/>
<line fill="none" stroke="#7A7A7A" stroke-width="1.5" stroke-miterlimit="10" x1="7.445" y1="17.92" x2="16.5" y2="17.92"/>
</svg>
