<svg xmlns="http://www.w3.org/2000/svg" width="24" height="24" viewBox="0 0 24 24"><path fill="#7A7A7A" d="M267.938 248.596a9.841 9.841 0 0 1-2.813.771 4.909 4.909 0 0 0 2.153-2.71 9.769 9.769 0 0 1-3.109 1.188 4.897 4.897 0 0 0-8.345 4.468 13.904 13.904 0 0 1-10.096-5.119 4.87 4.87 0 0 0-.662 2.463c0 1.699.865 3.199 2.179 4.076a4.863 4.863 0 0 1-2.218-.612v.062a4.9 4.9 0 0 0 3.929 4.803 4.95 4.95 0 0 1-2.212.084 4.903 4.903 0 0 0 4.576 3.4 9.833 9.833 0 0 1-6.084 2.098c-.395 0-.784-.022-1.168-.068a13.853 13.853 0 0 0 7.509 2.199c9.009 0 13.937-7.463 13.937-13.934 0-.213-.006-.425-.016-.635a10.101 10.101 0 0 0 2.44-2.534z"/><g fill="none" stroke="#7A7A7A" stroke-width="1.5" stroke-miterlimit="10"><path d="M16.224 2.259l3.526 4.514v15.093H4.375V2.259z"/><path d="M19.75 6.773h-3.526V2.259"/></g><path fill="none" stroke="#7A7A7A" stroke-width="1.5" stroke-miterlimit="10" d="M7.445 6.827h5.309M7.445 10.524H16.5M7.445 14.222H16.5M7.445 17.92H16.5"/></svg>