<?xml version="1.0" encoding="utf-8"?>
<!-- Generator: Adobe Illustrator 16.0.4, SVG Export Plug-In . SVG Version: 6.00 Build 0)  -->
<!DOCTYPE svg PUBLIC "-//W3C//DTD SVG 1.1//EN" "http://www.w3.org/Graphics/SVG/1.1/DTD/svg11.dtd">
<svg version="1.1" id="Layer_1" xmlns="http://www.w3.org/2000/svg" xmlns:xlink="http://www.w3.org/1999/xlink" x="0px" y="0px"
	 width="640px" height="300px" viewBox="0 0 640 300" enable-background="new 0 0 640 300" xml:space="preserve">
<g>
	<path fill-rule="evenodd" clip-rule="evenodd" fill="#FFFFFF" d="M361.308,235.924c-1.692,0-3.185,0.172-4.611-0.06
		c-0.952-0.155-2.281-0.691-2.577-1.413c-0.302-0.731,0.229-2.065,0.796-2.844c1.211-1.666,3.026-2.381,5.101-2.4
		c1.418-0.014,2.851,0.046,4.247-0.146c0.657-0.09,1.406-0.565,1.83-1.095c0.817-1.021,1.375-2.248,2.145-3.314
		c1.36-1.889,3.383-2.487,5.555-1.752c2.079,0.704,2.685,2.159,1.695,4.113c-0.297,0.586-0.635,1.15-1.079,1.952
		c2.063,0,3.854,0.006,5.643-0.002c2.174-0.009,2.826,0.998,1.896,2.989c-0.985,2.106-2.555,3.391-4.975,3.471
		c-1.712,0.057-3.422,0.194-5.134,0.224c-1.049,0.018-1.711,0.452-2.223,1.363c-3.967,7.059-7.986,14.085-11.932,21.153
		c-0.901,1.613-1.675,3.316-2.308,5.05c-0.253,0.693-0.261,1.956,0.156,2.29c0.526,0.422,1.71,0.431,2.42,0.146
		c2.916-1.174,5.128-3.359,7.277-5.564c1.703-1.746,3.292-3.604,4.918-5.426c1.271-1.426,2.994-1.686,4.598-0.661
		c1.366,0.873,1.726,2.082,0.737,3.354c-4.105,5.291-8.407,10.418-14.228,13.941c-3.288,1.99-6.949,2.177-10.634,1.488
		c-1.716-0.321-2.925-1.496-3.652-3.11c-0.152-0.34-0.298-0.683-0.521-1.193c-0.975,0.702-1.802,1.35-2.68,1.921
		c-1.969,1.279-3.945,2.471-6.428,2.593c-2.29,0.113-4.058-0.792-5.308-2.526c-0.806-1.12-1.389-0.723-2.121-0.18
		c-3.184,2.36-6.76,3.092-10.652,2.712c-2.487-0.243-4.204-1.399-5.073-3.771c-0.094-0.254-0.294-0.468-0.547-0.858
		c-0.846,0.614-1.608,1.194-2.396,1.735c-2.1,1.444-4.232,2.706-6.902,2.924c-4.494,0.366-6.952-3.79-6.507-7.175
		c0.471-3.585,2.237-6.636,3.899-9.727c1.432-2.664,2.962-5.273,4.414-7.927c0.272-0.495,0.384-1.079,0.59-1.684
		c-1.817-0.544-2.99,0.575-4.119,1.36c-2.116,1.474-4.215,3.037-6.031,4.854c-1.122,1.122-1.846,2.719-2.513,4.207
		c-2.095,4.671-4.048,9.407-6.121,14.088c-0.783,1.771-2.841,2.713-4.907,2.443c-1.818-0.238-3.313-1.339-3.485-3.045
		c-0.115-1.142,0.348-2.357,0.646-3.517c0.153-0.593,0.513-1.133,0.852-1.854c-0.557,0-0.927-0.002-1.297,0.001
		c-1.682,0.01-3.366-0.032-5.044,0.056c-0.646,0.034-1.444,0.181-1.888,0.587c-3.12,2.853-6.452,5.329-10.57,6.556
		c-4.027,1.199-8.527,1.035-11.414-2.222c-2.095-2.363-2.793-5.221-2.592-8.303c0.492-7.535,4.329-13.325,9.73-18.231
		c3.046-2.768,6.56-4.696,10.673-5.446c6.722-1.227,11.829,2.886,12.09,9.709c0.137,3.57-0.937,6.835-2.279,10.055
		c-0.089,0.216-0.18,0.431-0.331,0.79c1.974,0.371,3.341-0.729,4.774-1.535c2.723-1.535,3.947-4.213,5.153-6.902
		c1.676-3.738,3.363-7.471,5.088-11.188c0.763-1.643,2.262-1.818,3.854-1.759c1.705,0.065,3.259,0.487,4.013,2.159
		c0.266,0.592,0.042,1.404,0.042,2.221c1.343-0.882,2.667-1.883,4.11-2.669c1.981-1.079,4.039-2.072,6.389-0.996
		c3.199,1.464,4.841,5.551,3.272,9.121c-1.761,4.007-3.876,7.859-5.882,11.756c-0.691,1.344-1.551,2.601-2.269,3.933
		c-0.322,0.599-0.485,1.282-0.722,1.928c0.137,0.115,0.273,0.231,0.41,0.347c0.903-0.497,1.963-0.83,2.683-1.52
		c3.062-2.929,6.319-5.729,8.935-9.028c2.279-2.875,3.779-6.363,5.649-9.565c0.96-1.644,1.917-3.295,2.987-4.866
		c1.413-2.076,3.629-2.669,5.937-1.728c1.606,0.655,2.255,1.965,1.469,3.514c-1.522,2.996-3.204,5.91-4.802,8.868
		c-1.993,3.688-3.997,7.37-5.935,11.088c-0.626,1.201-1.492,2.749-0.34,3.805c1.187,1.087,2.579,0,3.7-0.774
		c3.753-2.595,6.683-5.996,8.978-9.874c2.68-4.531,5.109-9.212,7.614-13.847c1.269-2.345,3.491-3.497,5.949-2.983
		c2.065,0.433,2.699,1.615,1.732,3.529c-1.78,3.524-3.63,7.015-5.479,10.504c-1.621,3.061-3.3,6.093-4.9,9.165
		c-0.217,0.419-0.122,0.998-0.172,1.503c0.548,0.049,1.234,0.331,1.617,0.104c1.363-0.813,2.714-1.695,3.903-2.74
		c3.388-2.98,5.613-6.824,7.781-10.715c2.377-4.261,4.855-8.466,7.285-12.698C361.077,236.563,361.141,236.337,361.308,235.924z
		 M273.279,250.249c0.13-0.059-0.49-2.842-1.333-3.833c-1.586-1.866-3.788-1.447-5.675-0.583c-5.357,2.456-8.678,6.723-9.825,12.454
		c-0.939,4.696,2.005,7.487,6.162,6.186C267.845,262.832,273.133,255.784,273.279,250.249z"/>
	<path fill-rule="evenodd" clip-rule="evenodd" fill="#FFFFFF" d="M206.291,241.471c-2.036,0.848-4.025,1.843-6.117,2.515
		c-6.546,2.108-12.991,2.299-18.475-2.556c-4.148-3.672-5.948-8.497-5.164-14.099c1.097-7.832,5.305-13.954,10.895-19.218
		c6.067-5.716,13.231-9.484,21.238-11.826c6.628-1.938,13.333-2.419,20.158-1.879c0.953,0.076,1.613-0.155,2.317-0.858
		c1.682-1.683,4.362-1.687,5.878,0.11c0.528,0.626,0.349,1.85,0.528,3.031c1.552,0.723,3.535,1.438,5.306,2.507
		c7.801,4.709,11.213,11.917,11.521,20.8c0.197,5.688-0.95,11.135-2.792,16.508c-3.166,9.234-8.033,17.432-14.568,24.639
		c-3.932,4.336-8.442,7.879-13.93,10.186c-7.378,3.102-16.202,1.026-21.131-5.24c-0.323-0.411-0.658-0.812-0.989-1.219
		c-1.866,1.537-3.526,3.118-5.391,4.402c-6.555,4.518-13.542,5.138-20.58,1.408c-5.253-2.785-7.537-8.096-6.41-13.863
		c0.855-4.375,2.897-7.896,7.018-9.841c4.219-1.99,8.59-2.173,13.127-0.925c4.299,1.183,7.956,3.354,11.236,6.281
		c0.106,0.095,0.244,0.163,0.377,0.216c0.085,0.033,0.191,0.016,0.579,0.038c1.848-3.573,3.749-7.25,5.65-10.928
		C206.479,241.598,206.385,241.534,206.291,241.471z M246.126,220.712c0.323-7.655-4.38-15.085-11.425-17.693
		c-0.953-0.354-1.503-0.348-1.999,0.606c-0.876,1.687-1.931,3.284-2.742,4.999c-3.437,7.271-6.896,14.534-10.188,21.871
		c-3.814,8.501-7.453,17.079-12.272,25.087c-1.706,2.834-1.651,2.825,0.263,5.503c3.188,4.459,7.858,5.358,12.686,3.188
		c5.285-2.377,9.097-6.492,12.536-10.982c3.449-4.505,6.253-9.401,8.637-14.548C244.168,233.244,246.047,227.581,246.126,220.712z
		 M225.936,201.03c-0.428-0.129-0.565-0.197-0.707-0.206c-0.39-0.026-0.782-0.044-1.173-0.037
		c-6.818,0.099-13.371,1.51-19.596,4.253c-6.394,2.817-11.948,6.753-15.744,12.794c-2.489,3.962-3.992,8.264-3.967,12.978
		c0.014,2.716,0.863,5.161,3.514,6.456c1.926,0.94,4.001,1.167,6.146,0.831c4.578-0.719,8.646-2.617,12.36-5.311
		c2.819-2.043,5.459-4.335,7.056-7.483c3.769-7.431,7.402-14.932,11.097-22.401C225.215,202.312,225.549,201.742,225.936,201.03z
		 M196.843,258.615c-2.665-1.689-4.951-3.481-7.518-4.669c-2.655-1.228-5.534-1.852-8.479-0.369c-2.947,1.484-4.644,4.36-4.158,7.52
		c0.393,2.557,2.799,4.398,6.04,4.873C188.978,266.885,192.89,263.364,196.843,258.615z"/>
	<path fill-rule="evenodd" clip-rule="evenodd" fill="#FFFFFF" d="M406.453,266.165c4.108-2.408,7.758-5.279,10.723-8.845
		c6.203-7.462,12.264-15.044,18.312-22.633c1.843-2.313,5.473-1.921,7.063-0.317c0.925,0.932,1.261,1.951,0.325,3.121
		c-1.189,1.486-2.323,3.015-3.507,4.505c-1.91,2.403-2.19,5.036-1.183,7.874c1.504,4.238,2.556,8.526,1.22,13.061
		c0.121,0.104,0.242,0.208,0.364,0.312c1.323-1.039,2.777-1.952,3.942-3.146c1.596-1.633,2.976-3.478,4.443-5.234
		c1.761-2.105,4.483-2.004,5.537,0.249c0.17,0.362,0.133,0.938-0.028,1.322c-1.389,3.314-3.849,5.819-6.333,8.313
		c-5.107,5.129-11.223,7.901-18.485,8.241c-2.755,0.129-5.433,0.25-8.03-0.949c-2.084-0.964-3.539-2.504-4.58-4.6
		c-1.925,1.303-3.66,2.625-5.532,3.712c-2.861,1.659-5.84,3.113-8.715,4.749c-0.755,0.43-1.467,1.109-1.932,1.844
		c-1.847,2.925-3.405,6.048-5.415,8.851c-2.244,3.126-5.478,5.069-9.337,5.457c-2.377,0.239-4.735-0.402-6.145-2.643
		c-1.318-2.095-0.67-4.162,0.534-6.053c2.129-3.344,5.148-5.696,8.678-7.415c1.969-0.958,3.99-1.812,5.956-2.78
		c0.488-0.24,0.999-0.657,1.251-1.126c2.188-4.085,4.34-8.189,6.465-12.308c3.132-6.073,6.214-12.171,9.355-18.238
		c1.346-2.599,3.539-3.653,6.448-3.235c1.785,0.256,2.556,1.414,1.768,2.99c-1.57,3.14-3.279,6.21-4.929,9.31
		c-2.658,4.996-5.314,9.994-7.97,14.993C406.614,265.745,406.541,265.959,406.453,266.165z M429.708,252.094
		c-2.324,2.826-4.394,5.383-6.511,7.9c-1.55,1.843-1.05,4.023,0.218,5.597c2.008,2.494,5.443,2.249,6.838-0.564
		C432.359,260.777,431.256,256.625,429.708,252.094z M385.67,286.292c1.512-0.362,3.444-2.517,3.928-4.28
		C387.322,282.731,385.639,284.52,385.67,286.292z"/>
	<path fill-rule="evenodd" clip-rule="evenodd" fill="#FFFFFF" d="M420.062,233.109c-2.703,0.004-3.501-1.279-2.201-3.622
		c0.731-1.319,1.489-2.634,2.358-3.865c1.652-2.344,4.26-2.23,6.291-1.349c1.419,0.616,1.972,2.09,1.467,3.409
		C426.859,230.609,423.218,233.106,420.062,233.109z"/>
	<path fill-rule="evenodd" clip-rule="evenodd" fill="#FFFFFF" d="M379.521,272.913c-3.052-0.004-3.888-1.385-2.679-3.603
		c0.606-1.113,1.235-2.216,1.907-3.291c1.443-2.307,4.008-3.126,6.536-2.126c1.779,0.702,2.463,2.529,1.354,4.332
		C384.913,271.032,382.434,272.798,379.521,272.913z"/>
</g>
<rect x="-6" y="-5.756" fill="#4084F2" width="652" height="312.756"/>
<g>
	<path fill="#EFCC9A" stroke="#1E416B" stroke-width="8.7133" stroke-miterlimit="10" d="M308.664,100.984
		c-31.797,0-57.574,25.776-57.574,57.574c0,31.797,25.777,57.574,57.574,57.574c31.798,0,57.574-25.777,57.574-57.574
		C366.238,126.76,340.462,100.984,308.664,100.984z M308.664,175.864c-9.559,0-17.308-7.748-17.308-17.307
		c0-9.56,7.749-17.308,17.308-17.308c9.56,0,17.309,7.748,17.309,17.308C325.973,168.116,318.224,175.864,308.664,175.864z"/>
	<g>
		<path fill="#F288A9" d="M272.753,127.319c-2.718,2.974-8.697,4.155-10.25,8.138c-1.451,3.722,2.045,8.931,1.491,13.145
			c-0.531,4.039-5.302,8.019-5.114,12.17c0.189,4.179,5.313,7.76,6.125,11.715c0.872,4.252-2.353,9.621-0.888,13.208
			c1.75,4.284,7.761,5.516,10.152,8.19c3.048,3.41,4.862,9.73,9.932,11.519c4.384,1.547,10.274-2.008,15.442-1.622
			c4.828,0.36,9.965,4.848,14.908,4.236c4.985-0.617,8.847-6.221,13.387-7.786c4.933-1.701,11.584,0.107,15.295-2.663
			c4.229-3.158,3.854-9.652,5.489-14.126c1.319-3.61,6.934-6.018,7.887-9.853c0.945-3.805-2.895-8.493-2.471-12.353
			c0.435-3.95,5.18-7.804,4.896-11.633c-0.294-3.974-5.535-6.905-6.79-10.552c-1.268-3.684,0.957-9.331-1.489-12.476
			c-2.286-2.939-8.243-2.23-11.727-4.524c-3.372-2.221-5.118-8.164-9.146-9.545c-3.855-1.322-8.987,2.248-13.159,1.714
			c-4.1-0.524-8.132-5.289-12.271-5.036c-4.182,0.256-7.569,5.475-11.523,6.542c-4.085,1.102-9.717-1.629-13.265,0.359
			C275.986,118.147,275.527,124.285,272.753,127.319z"/>
	</g>
	
		<line fill="none" stroke="#F8CACD" stroke-width="7.5516" stroke-linecap="round" stroke-miterlimit="10" x1="272.125" y1="165.066" x2="267.488" y2="156.424"/>
	
		<line fill="none" stroke="#1ACFE2" stroke-width="7.5516" stroke-linecap="round" stroke-miterlimit="10" x1="303.469" y1="117.191" x2="294.724" y2="121.634"/>
	
		<line fill="none" stroke="#FFFFFF" stroke-width="7.5516" stroke-linecap="round" stroke-miterlimit="10" x1="338.443" y1="145.458" x2="345.109" y2="138.263"/>
	
		<line fill="none" stroke="#B7E5CF" stroke-width="7.5516" stroke-linecap="round" stroke-miterlimit="10" x1="299.281" y1="197.012" x2="308.554" y2="200.207"/>
	
		<line fill="none" stroke="#EFE578" stroke-width="7.5516" stroke-linecap="round" stroke-miterlimit="10" x1="328.728" y1="184.236" x2="324.402" y2="193.038"/>
	
		<line fill="none" stroke="#FFFFFF" stroke-width="7.5516" stroke-linecap="round" stroke-miterlimit="10" x1="281.057" y1="188.19" x2="287.323" y2="180.646"/>
	
		<line fill="none" stroke="#B7E5CF" stroke-width="7.5516" stroke-linecap="round" stroke-miterlimit="10" x1="277.552" y1="140.011" x2="284.64" y2="142.768"/>
	
		<line fill="none" stroke="#B7E5CF" stroke-width="7.5516" stroke-linecap="round" stroke-miterlimit="10" x1="322.137" y1="122.449" x2="329.225" y2="125.206"/>
	
		<line fill="none" stroke="#F8CACD" stroke-width="7.5516" stroke-linecap="round" stroke-miterlimit="10" x1="342.623" y1="164.006" x2="349.803" y2="170.688"/>
	<circle fill="#4084F2" stroke="#1E416B" stroke-width="8.7133" stroke-miterlimit="10" cx="308.665" cy="158.558" r="17.308"/>
</g>
<line opacity="0.6" fill="none" stroke="#B7E5CF" stroke-width="5.8089" stroke-linecap="round" stroke-miterlimit="10" x1="-3.877" y1="43.529" x2="14.037" y2="43.529"/>
<line opacity="0.6" fill="none" stroke="#F8CACD" stroke-width="5.8089" stroke-linecap="round" stroke-miterlimit="10" x1="50.77" y1="18.262" x2="60.815" y2="-2.547"/>
<line opacity="0.6" fill="none" stroke="#B7E5CF" stroke-width="5.8089" stroke-linecap="round" stroke-miterlimit="10" x1="463.529" y1="211.392" x2="454.572" y2="195.247"/>
<line opacity="0.6" fill="none" stroke="#FFFFFF" stroke-width="5.8089" stroke-linecap="round" stroke-miterlimit="10" x1="45.209" y1="44.009" x2="42.339" y2="51.902"/>
<line opacity="0.6" fill="none" stroke="#B7E5CF" stroke-width="5.8089" stroke-linecap="round" stroke-miterlimit="10" x1="7.108" y1="102.765" x2="-1.33" y2="120.704"/>
<line opacity="0.6" fill="none" stroke="#F8CACD" stroke-width="5.8089" stroke-linecap="round" stroke-miterlimit="10" x1="-3.686" y1="84.044" x2="6.359" y2="73.999"/>
<line opacity="0.6" fill="none" stroke="#B7E5CF" stroke-width="5.8089" stroke-linecap="round" stroke-miterlimit="10" x1="6.138" y1="180.139" x2="-10.736" y2="186.597"/>
<line opacity="0.6" fill="none" stroke="#FFFFFF" stroke-width="5.8089" stroke-linecap="round" stroke-miterlimit="10" x1="8.436" y1="151.739" x2="12.654" y2="166.091"/>
<line opacity="0.6" fill="none" stroke="#B7E5CF" stroke-width="5.8089" stroke-linecap="round" stroke-miterlimit="10" x1="-0.141" y1="294.655" x2="8.816" y2="286.044"/>
<line opacity="0.6" fill="none" stroke="#B7E5CF" stroke-width="5.8089" stroke-linecap="round" stroke-miterlimit="10" x1="68.554" y1="231.216" x2="86.493" y2="236.956"/>
<line opacity="0.6" fill="none" stroke="#F55489" stroke-width="5.8089" stroke-linecap="round" stroke-miterlimit="10" x1="45.021" y1="161.012" x2="58.11" y2="176.797"/>
<line opacity="0.6" fill="none" stroke="#EFE578" stroke-width="5.8089" stroke-linecap="round" stroke-miterlimit="10" x1="103.407" y1="289.673" x2="109.148" y2="301.87"/>
<line opacity="0.6" fill="none" stroke="#FFFFFF" stroke-width="5.8089" stroke-linecap="round" stroke-miterlimit="10" x1="101.305" y1="202.976" x2="96.282" y2="200.105"/>
<line opacity="0.6" fill="none" stroke="#EFE578" stroke-width="5.8089" stroke-linecap="round" stroke-miterlimit="10" x1="37.564" y1="280.25" x2="42.586" y2="267.334"/>
<line opacity="0.6" fill="none" stroke="#F8CACD" stroke-width="5.8089" stroke-linecap="round" stroke-miterlimit="10" x1="-5.375" y1="250.825" x2="12.205" y2="256.565"/>
<line opacity="0.6" fill="none" stroke="#F8CACD" stroke-width="5.8089" stroke-linecap="round" stroke-miterlimit="10" x1="380.493" y1="150.501" x2="398.073" y2="156.241"/>
<line opacity="0.6" fill="none" stroke="#EFE578" stroke-width="5.8089" stroke-linecap="round" stroke-miterlimit="10" x1="171.949" y1="64.837" x2="189.169" y2="64.12"/>
<line opacity="0.6" fill="none" stroke="#F55489" stroke-width="5.8089" stroke-linecap="round" stroke-miterlimit="10" x1="28.575" y1="94.729" x2="45.796" y2="89.706"/>
<line opacity="0.6" fill="none" stroke="#B7E5CF" stroke-width="5.8089" stroke-linecap="round" stroke-miterlimit="10" x1="88.646" y1="160.795" x2="98.691" y2="155.055"/>
<line opacity="0.6" fill="none" stroke="#F55489" stroke-width="5.8089" stroke-linecap="round" stroke-miterlimit="10" x1="133.75" y1="61.152" x2="144.513" y2="53.259"/>
<line opacity="0.6" fill="none" stroke="#EFE578" stroke-width="5.8089" stroke-linecap="round" stroke-miterlimit="10" x1="63.475" y1="138.442" x2="49.841" y2="127.679"/>
<line opacity="0.6" fill="none" stroke="#F8CACD" stroke-width="5.8089" stroke-linecap="round" stroke-miterlimit="10" x1="36.887" y1="211.244" x2="62.718" y2="206.938"/>
<line opacity="0.6" fill="none" stroke="#F55489" stroke-width="5.8089" stroke-linecap="round" stroke-miterlimit="10" x1="74.511" y1="262.127" x2="79.534" y2="271.455"/>
<line opacity="0.6" fill="none" stroke="#EFE578" stroke-width="5.8089" stroke-linecap="round" stroke-miterlimit="10" x1="115.361" y1="242.33" x2="133.299" y2="248.788"/>
<line opacity="0.6" fill="none" stroke="#F55489" stroke-width="5.8089" stroke-linecap="round" stroke-miterlimit="10" x1="183.279" y1="267.617" x2="194.042" y2="255.419"/>
<line opacity="0.6" fill="none" stroke="#EFE578" stroke-width="5.8089" stroke-linecap="round" stroke-miterlimit="10" x1="394.988" y1="103.448" x2="384.226" y2="97.708"/>
<line opacity="0.6" fill="none" stroke="#B7E5CF" stroke-width="5.8089" stroke-linecap="round" stroke-miterlimit="10" x1="142.622" y1="217.739" x2="149.08" y2="199.801"/>
<line opacity="0.6" fill="none" stroke="#F8CACD" stroke-width="5.8089" stroke-linecap="round" stroke-miterlimit="10" x1="124.266" y1="132.649" x2="119.961" y2="119.017"/>
<line opacity="0.6" fill="none" stroke="#EFE578" stroke-width="5.8089" stroke-linecap="round" stroke-miterlimit="10" x1="18.311" y1="10.854" x2="4.678" y2="-2.062"/>
<line opacity="0.6" fill="none" stroke="#FFFFFF" stroke-width="5.8089" stroke-linecap="round" stroke-miterlimit="10" x1="100.574" y1="96.833" x2="116.359" y2="87.505"/>
<line opacity="0.6" fill="none" stroke="#B7E5CF" stroke-width="5.8089" stroke-linecap="round" stroke-miterlimit="10" x1="92.152" y1="62.217" x2="84.259" y2="52.171"/>
<line opacity="0.6" fill="none" stroke="#F55489" stroke-width="5.8089" stroke-linecap="round" stroke-miterlimit="10" x1="12.587" y1="216.763" x2="1.106" y2="203.847"/>
<line opacity="0.6" fill="none" stroke="#B7E5CF" stroke-width="5.8089" stroke-linecap="round" stroke-miterlimit="10" x1="156.903" y1="-0.161" x2="145.423" y2="-5.184"/>
<line opacity="0.6" fill="none" stroke="#EFE578" stroke-width="5.8089" stroke-linecap="round" stroke-miterlimit="10" x1="114.167" y1="23.815" x2="104.839" y2="2.289"/>
<line opacity="0.6" fill="none" stroke="#F8CACD" stroke-width="5.8089" stroke-linecap="round" stroke-miterlimit="10" x1="220.377" y1="55.567" x2="214.637" y2="35.476"/>
<line opacity="0.6" fill="none" stroke="#FFFFFF" stroke-width="5.8089" stroke-linecap="round" stroke-miterlimit="10" x1="176.503" y1="36.52" x2="161.435" y2="29.345"/>
<line opacity="0.6" fill="none" stroke="#B7E5CF" stroke-width="5.8089" stroke-linecap="round" stroke-miterlimit="10" x1="242.8" y1="13.207" x2="229.884" y2="6.749"/>
<line opacity="0.6" fill="none" stroke="#B7E5CF" stroke-width="5.8089" stroke-linecap="round" stroke-miterlimit="10" x1="151.048" y1="94.238" x2="158.941" y2="87.78"/>
<line opacity="0.6" fill="none" stroke="#FFFFFF" stroke-width="5.8089" stroke-linecap="round" stroke-miterlimit="10" x1="321.33" y1="-19.637" x2="334.5" y2="-9.212"/>
<line opacity="0.6" fill="none" stroke="#B7E5CF" stroke-width="5.8089" stroke-linecap="round" stroke-miterlimit="10" x1="205.213" y1="143.065" x2="198.038" y2="130.866"/>
<line opacity="0.6" fill="none" stroke="#FFFFFF" stroke-width="5.8089" stroke-linecap="round" stroke-miterlimit="10" x1="203.392" y1="99.686" x2="196.217" y2="84.618"/>
<line opacity="0.6" fill="none" stroke="#FFFFFF" stroke-width="5.8089" stroke-linecap="round" stroke-miterlimit="10" x1="386.688" y1="207" x2="379.513" y2="191.932"/>
<line opacity="0.6" fill="none" stroke="#FFFFFF" stroke-width="5.8089" stroke-linecap="round" stroke-miterlimit="10" x1="340" y1="261" x2="331.39" y2="245.932"/>
<line opacity="0.6" fill="none" stroke="#F8CACD" stroke-width="5.8089" stroke-linecap="round" stroke-miterlimit="10" x1="165.107" y1="294.329" x2="173" y2="285"/>
<line opacity="0.6" fill="none" stroke="#EFE578" stroke-width="5.8089" stroke-linecap="round" stroke-miterlimit="10" x1="161.43" y1="260.95" x2="167.888" y2="250.188"/>
<line opacity="0.6" fill="none" stroke="#F55489" stroke-width="5.8089" stroke-linecap="round" stroke-miterlimit="10" x1="148.875" y1="284.286" x2="132.371" y2="281.416"/>
<line opacity="0.6" fill="none" stroke="#B7E5CF" stroke-width="5.8089" stroke-linecap="round" stroke-miterlimit="10" x1="173.342" y1="227.22" x2="194.868" y2="220.044"/>
<line opacity="0.6" fill="none" stroke="#FFFFFF" stroke-width="5.8089" stroke-linecap="round" stroke-miterlimit="10" x1="214" y1="286" x2="206.107" y2="272.366"/>
<line opacity="0.6" fill="none" stroke="#F8CACD" stroke-width="5.8089" stroke-linecap="round" stroke-miterlimit="10" x1="229.041" y1="229.104" x2="221.866" y2="211.165"/>
<line opacity="0.6" fill="none" stroke="#FFFFFF" stroke-width="5.8089" stroke-linecap="round" stroke-miterlimit="10" x1="412.365" y1="272.91" x2="401.602" y2="265.735"/>
<line opacity="0.6" fill="none" stroke="#B7E5CF" stroke-width="5.8089" stroke-linecap="round" stroke-miterlimit="10" x1="553.044" y1="273.783" x2="571.699" y2="275.219"/>
<line opacity="0.6" fill="none" stroke="#EFE578" stroke-width="5.8089" stroke-linecap="round" stroke-miterlimit="10" x1="399.372" y1="213.568" x2="415.875" y2="227.201"/>
<line opacity="0.6" fill="none" stroke="#FFFFFF" stroke-width="5.8089" stroke-linecap="round" stroke-miterlimit="10" x1="445.278" y1="259.801" x2="435.95" y2="243.297"/>
<line opacity="0.6" fill="none" stroke="#B7E5CF" stroke-width="5.8089" stroke-linecap="round" stroke-miterlimit="10" x1="248.973" y1="211.035" x2="243.233" y2="191.661"/>
<line opacity="0.6" fill="none" stroke="#F55489" stroke-width="5.8089" stroke-linecap="round" stroke-miterlimit="10" x1="240.253" y1="288.192" x2="247.429" y2="270.972"/>
<line opacity="0.6" fill="none" stroke="#F8CACD" stroke-width="5.8089" stroke-linecap="round" stroke-miterlimit="10" x1="214.224" y1="171.346" x2="197.003" y2="163.452"/>
<line opacity="0.6" fill="none" stroke="#B7E5CF" stroke-width="5.8089" stroke-linecap="round" stroke-miterlimit="10" x1="403.425" y1="180.81" x2="413.471" y2="170.765"/>
<line opacity="0.6" fill="none" stroke="#F8CACD" stroke-width="5.8089" stroke-linecap="round" stroke-miterlimit="10" x1="457.663" y1="139.372" x2="457.663" y2="127.174"/>
<line opacity="0.6" fill="none" stroke="#EFE578" stroke-width="5.8089" stroke-linecap="round" stroke-miterlimit="10" x1="345.402" y1="278.268" x2="321.723" y2="273.244"/>
<line opacity="0.6" fill="none" stroke="#F55489" stroke-width="5.8089" stroke-linecap="round" stroke-miterlimit="10" x1="176.498" y1="204.712" x2="168.604" y2="188.208"/>
<line opacity="0.6" fill="none" stroke="#F55489" stroke-width="5.8089" stroke-linecap="round" stroke-miterlimit="10" x1="438.456" y1="210.077" x2="416.929" y2="195.726"/>
<line opacity="0.6" fill="none" stroke="#EFE578" stroke-width="5.8089" stroke-linecap="round" stroke-miterlimit="10" x1="476.008" y1="264.266" x2="468.833" y2="245.609"/>
<line opacity="0.6" fill="none" stroke="#F8CACD" stroke-width="5.8089" stroke-linecap="round" stroke-miterlimit="10" x1="496.218" y1="192.177" x2="482.585" y2="182.132"/>
<line opacity="0.6" fill="none" stroke="#FFFFFF" stroke-width="5.8089" stroke-linecap="round" stroke-miterlimit="10" x1="426.297" y1="111.491" x2="442.8" y2="114.36"/>
<line opacity="0.6" fill="none" stroke="#B7E5CF" stroke-width="5.8089" stroke-linecap="round" stroke-miterlimit="10" x1="441.98" y1="297.838" x2="464.941" y2="289.228"/>
<line opacity="0.6" fill="none" stroke="#F8CACD" stroke-width="5.8089" stroke-linecap="round" stroke-miterlimit="10" x1="489.385" y1="122.406" x2="505.888" y2="117.384"/>
<line opacity="0.6" fill="none" stroke="#B7E5CF" stroke-width="5.8089" stroke-linecap="round" stroke-miterlimit="10" x1="516.379" y1="199.191" x2="514.227" y2="182.688"/>
<line opacity="0.6" fill="none" stroke="#B7E5CF" stroke-width="5.8089" stroke-linecap="round" stroke-miterlimit="10" x1="455.974" y1="163.408" x2="466.737" y2="161.256"/>
<line opacity="0.6" fill="none" stroke="#FFFFFF" stroke-width="5.8089" stroke-linecap="round" stroke-miterlimit="10" x1="417.848" y1="82.775" x2="407.085" y2="74.165"/>
<line opacity="0.6" fill="none" stroke="#F8CACD" stroke-width="5.8089" stroke-linecap="round" stroke-miterlimit="10" x1="229.458" y1="117.191" x2="245.961" y2="112.886"/>
<line opacity="0.6" fill="none" stroke="#B7E5CF" stroke-width="5.8089" stroke-linecap="round" stroke-miterlimit="10" x1="391.325" y1="127.587" x2="409.264" y2="123.281"/>
<line opacity="0.6" fill="none" stroke="#FFFFFF" stroke-width="5.8089" stroke-linecap="round" stroke-miterlimit="10" x1="547.458" y1="189.344" x2="539.564" y2="178.58"/>
<line opacity="0.6" fill="none" stroke="#B7E5CF" stroke-width="5.8089" stroke-linecap="round" stroke-miterlimit="10" x1="532.47" y1="97.061" x2="522.424" y2="87.733"/>
<line opacity="0.6" fill="none" stroke="#F55489" stroke-width="5.8089" stroke-linecap="round" stroke-miterlimit="10" x1="297.954" y1="273.328" x2="308" y2="264"/>
<line opacity="0.6" fill="none" stroke="#F8CACD" stroke-width="5.8089" stroke-linecap="round" stroke-miterlimit="10" x1="327.431" y1="36.557" x2="339.629" y2="35.122"/>
<line opacity="0.6" fill="none" stroke="#F8CACD" stroke-width="5.8089" stroke-linecap="round" stroke-miterlimit="10" x1="298.019" y1="73.971" x2="318.827" y2="63.926"/>
<line opacity="0.6" fill="none" stroke="#F55489" stroke-width="5.8089" stroke-linecap="round" stroke-miterlimit="10" x1="172.702" y1="124.414" x2="154.763" y2="122.262"/>
<line opacity="0.6" fill="none" stroke="#EFE578" stroke-width="5.8089" stroke-linecap="round" stroke-miterlimit="10" x1="366.553" y1="15.774" x2="350.767" y2="12.186"/>
<line opacity="0.6" fill="none" stroke="#EFE578" stroke-width="5.8089" stroke-linecap="round" stroke-miterlimit="10" x1="169.522" y1="159.565" x2="166.651" y2="148.085"/>
<line opacity="0.6" fill="none" stroke="#F55489" stroke-width="5.8089" stroke-linecap="round" stroke-miterlimit="10" x1="190.022" y1="0.112" x2="195.045" y2="-12.803"/>
<line opacity="0.6" fill="none" stroke="#F55489" stroke-width="5.8089" stroke-linecap="round" stroke-miterlimit="10" x1="274.95" y1="16.054" x2="280.69" y2="-4.037"/>
<line opacity="0.6" fill="none" stroke="#FFFFFF" stroke-width="5.8089" stroke-linecap="round" stroke-miterlimit="10" x1="250.106" y1="46.673" x2="258" y2="34.475"/>
<line opacity="0.6" fill="none" stroke="#B7E5CF" stroke-width="5.8089" stroke-linecap="round" stroke-miterlimit="10" x1="586.614" y1="20.876" x2="604.528" y2="20.876"/>
<line opacity="0.6" fill="none" stroke="#F8CACD" stroke-width="5.8089" stroke-linecap="round" stroke-miterlimit="10" x1="130.349" y1="182.831" x2="140.395" y2="162.021"/>
<line opacity="0.6" fill="none" stroke="#B7E5CF" stroke-width="5.8089" stroke-linecap="round" stroke-miterlimit="10" x1="383.647" y1="-5.173" x2="374.689" y2="-21.317"/>
<line opacity="0.6" fill="none" stroke="#FFFFFF" stroke-width="5.8089" stroke-linecap="round" stroke-miterlimit="10" x1="482.315" y1="33.023" x2="479.445" y2="40.916"/>
<line opacity="0.6" fill="none" stroke="#B7E5CF" stroke-width="5.8089" stroke-linecap="round" stroke-miterlimit="10" x1="278.642" y1="256.51" x2="270.205" y2="274.448"/>
<line opacity="0.6" fill="none" stroke="#F8CACD" stroke-width="5.8089" stroke-linecap="round" stroke-miterlimit="10" x1="504.784" y1="39.103" x2="514.829" y2="29.057"/>
<line opacity="0.6" fill="none" stroke="#B7E5CF" stroke-width="5.8089" stroke-linecap="round" stroke-miterlimit="10" x1="381.196" y1="41.192" x2="364.321" y2="47.65"/>
<line opacity="0.6" fill="none" stroke="#FFFFFF" stroke-width="5.8089" stroke-linecap="round" stroke-miterlimit="10" x1="202.782" y1="180.649" x2="207" y2="195"/>
<line opacity="0.6" fill="none" stroke="#F55489" stroke-width="5.8089" stroke-linecap="round" stroke-miterlimit="10" x1="424.373" y1="141.954" x2="432.81" y2="154.87"/>
<line opacity="0.6" fill="none" stroke="#B7E5CF" stroke-width="5.8089" stroke-linecap="round" stroke-miterlimit="10" x1="469.503" y1="107.276" x2="478.46" y2="98.666"/>
<line opacity="0.6" fill="none" stroke="#B7E5CF" stroke-width="5.8089" stroke-linecap="round" stroke-miterlimit="10" x1="373.062" y1="235.259" x2="391" y2="241"/>
<line opacity="0.6" fill="none" stroke="#F55489" stroke-width="5.8089" stroke-linecap="round" stroke-miterlimit="10" x1="366.825" y1="263.729" x2="379.914" y2="279.515"/>
<line opacity="0.6" fill="none" stroke="#B7E5CF" stroke-width="5.8089" stroke-linecap="round" stroke-miterlimit="10" x1="547.406" y1="34.817" x2="540.861" y2="22.619"/>
<line opacity="0.6" fill="none" stroke="#EFE578" stroke-width="5.8089" stroke-linecap="round" stroke-miterlimit="10" x1="525.263" y1="267.259" x2="530.286" y2="254.343"/>
<line opacity="0.6" fill="none" stroke="#F8CACD" stroke-width="5.8089" stroke-linecap="round" stroke-miterlimit="10" x1="515.043" y1="220.984" x2="532.623" y2="226.725"/>
<line opacity="0.6" fill="none" stroke="#FFFFFF" stroke-width="5.8089" stroke-linecap="round" stroke-miterlimit="10" x1="530.532" y1="122.817" x2="556.184" y2="122.817"/>
<line opacity="0.6" fill="none" stroke="#FFFFFF" stroke-width="5.8089" stroke-linecap="round" stroke-miterlimit="10" x1="553.471" y1="245.243" x2="560.646" y2="225.152"/>
<line opacity="0.6" fill="none" stroke="#EFE578" stroke-width="5.8089" stroke-linecap="round" stroke-miterlimit="10" x1="481.977" y1="78.821" x2="499.197" y2="78.104"/>
<line opacity="0.6" fill="none" stroke="#F55489" stroke-width="5.8089" stroke-linecap="round" stroke-miterlimit="10" x1="350.48" y1="221.068" x2="367.701" y2="216.046"/>
<line opacity="0.6" fill="none" stroke="#F55489" stroke-width="5.8089" stroke-linecap="round" stroke-miterlimit="10" x1="525.399" y1="63.851" x2="536.163" y2="55.958"/>
<line opacity="0.6" fill="none" stroke="#EFE578" stroke-width="5.8089" stroke-linecap="round" stroke-miterlimit="10" x1="461.769" y1="4.032" x2="448.136" y2="-6.73"/>
<line opacity="0.6" fill="none" stroke="#F8CACD" stroke-width="5.8089" stroke-linecap="round" stroke-miterlimit="10" x1="436.483" y1="83.073" x2="462.315" y2="78.768"/>
<line opacity="0.6" fill="none" stroke="#F55489" stroke-width="5.8089" stroke-linecap="round" stroke-miterlimit="10" x1="579.849" y1="177.094" x2="584.872" y2="186.422"/>
<line opacity="0.6" fill="none" stroke="#EFE578" stroke-width="5.8089" stroke-linecap="round" stroke-miterlimit="10" x1="595.872" y1="212.722" x2="613.811" y2="219.18"/>
<line opacity="0.6" fill="none" stroke="#FFFFFF" stroke-width="5.8089" stroke-linecap="round" stroke-miterlimit="10" x1="495.946" y1="290.241" x2="519.625" y2="300.287"/>
<line opacity="0.6" fill="none" stroke="#F55489" stroke-width="5.8089" stroke-linecap="round" stroke-miterlimit="10" x1="370.509" y1="81.082" x2="381.272" y2="68.883"/>
<line opacity="0.6" fill="none" stroke="#EFE578" stroke-width="5.8089" stroke-linecap="round" stroke-miterlimit="10" x1="567.601" y1="155.254" x2="556.837" y2="149.514"/>
<line opacity="0.6" fill="none" stroke="#B7E5CF" stroke-width="5.8089" stroke-linecap="round" stroke-miterlimit="10" x1="496.76" y1="270.472" x2="503.218" y2="252.533"/>
<line opacity="0.6" fill="none" stroke="#F8CACD" stroke-width="5.8089" stroke-linecap="round" stroke-miterlimit="10" x1="563.082" y1="97.092" x2="558.777" y2="83.458"/>
<line opacity="0.6" fill="none" stroke="#EFE578" stroke-width="5.8089" stroke-linecap="round" stroke-miterlimit="10" x1="424.326" y1="59.548" x2="410.693" y2="46.632"/>
<line opacity="0.6" fill="none" stroke="#F55489" stroke-width="5.8089" stroke-linecap="round" stroke-miterlimit="10" x1="454.881" y1="30.618" x2="433.354" y2="28.465"/>
<line opacity="0.6" fill="none" stroke="#FFFFFF" stroke-width="5.8089" stroke-linecap="round" stroke-miterlimit="10" x1="562.717" y1="59.869" x2="578.502" y2="50.541"/>
<line opacity="0.6" fill="none" stroke="#B7E5CF" stroke-width="5.8089" stroke-linecap="round" stroke-miterlimit="10" x1="353.638" y1="99.315" x2="345.745" y2="89.27"/>
<line opacity="0.6" fill="none" stroke="#F55489" stroke-width="5.8089" stroke-linecap="round" stroke-miterlimit="10" x1="618.867" y1="93.103" x2="607.387" y2="80.187"/>
<line opacity="0.6" fill="none" stroke="#B7E5CF" stroke-width="5.8089" stroke-linecap="round" stroke-miterlimit="10" x1="655.818" y1="74.351" x2="644.338" y2="69.329"/>
<line opacity="0.6" fill="none" stroke="#F8CACD" stroke-width="5.8089" stroke-linecap="round" stroke-miterlimit="10" x1="618.552" y1="58.596" x2="612.811" y2="38.506"/>
<line opacity="0.6" fill="none" stroke="#FFFFFF" stroke-width="5.8089" stroke-linecap="round" stroke-miterlimit="10" x1="567.949" y1="4.354" x2="552.881" y2="-2.821"/>
<line opacity="0.6" fill="none" stroke="#B7E5CF" stroke-width="5.8089" stroke-linecap="round" stroke-miterlimit="10" x1="601.272" y1="113.592" x2="588.356" y2="107.134"/>
<line opacity="0.6" fill="none" stroke="#B7E5CF" stroke-width="5.8089" stroke-linecap="round" stroke-miterlimit="10" x1="479.445" y1="-7.876" x2="487.338" y2="-14.334"/>
<line opacity="0.6" fill="none" stroke="#FFFFFF" stroke-width="5.8089" stroke-linecap="round" stroke-miterlimit="10" x1="585.743" y1="139.372" x2="601.529" y2="133.632"/>
<line opacity="0.6" fill="none" stroke="#B7E5CF" stroke-width="5.8089" stroke-linecap="round" stroke-miterlimit="10" x1="610.243" y1="184.683" x2="603.068" y2="172.484"/>
<line opacity="0.6" fill="none" stroke="#FFFFFF" stroke-width="5.8089" stroke-linecap="round" stroke-miterlimit="10" x1="423.61" y1="9.746" x2="416.435" y2="-5.323"/>
<line opacity="0.6" fill="none" stroke="#FFFFFF" stroke-width="5.8089" stroke-linecap="round" stroke-miterlimit="10" x1="641.1" y1="209.671" x2="632.488" y2="194.603"/>
<line opacity="0.6" fill="none" stroke="#F8CACD" stroke-width="5.8089" stroke-linecap="round" stroke-miterlimit="10" x1="522.705" y1="155.178" x2="530.598" y2="145.85"/>
<line opacity="0.6" fill="none" stroke="#B7E5CF" stroke-width="5.8089" stroke-linecap="round" stroke-miterlimit="10" x1="567.273" y1="204.614" x2="552.922" y2="203.18"/>
<line opacity="0.6" fill="none" stroke="#EFE578" stroke-width="5.8089" stroke-linecap="round" stroke-miterlimit="10" x1="634.528" y1="292.149" x2="640.986" y2="281.387"/>
<line opacity="0.6" fill="none" stroke="#F55489" stroke-width="5.8089" stroke-linecap="round" stroke-miterlimit="10" x1="522.715" y1="2.036" x2="506.212" y2="-0.834"/>
<line opacity="0.6" fill="none" stroke="#B7E5CF" stroke-width="5.8089" stroke-linecap="round" stroke-miterlimit="10" x1="628.062" y1="251.604" x2="649.588" y2="244.428"/>
<line opacity="0.6" fill="none" stroke="#F8CACD" stroke-width="5.8089" stroke-linecap="round" stroke-miterlimit="10" x1="609.87" y1="293.6" x2="599.825" y2="279.966"/>
<line opacity="0.6" fill="none" stroke="#EFE578" stroke-width="5.8089" stroke-linecap="round" stroke-miterlimit="10" x1="654.323" y1="133.695" x2="630.645" y2="128.673"/>
<line opacity="0.6" fill="none" stroke="#F55489" stroke-width="5.8089" stroke-linecap="round" stroke-miterlimit="10" x1="650.185" y1="170.426" x2="628.658" y2="156.075"/>
<line opacity="0.6" fill="none" stroke="#EFE578" stroke-width="5.8089" stroke-linecap="round" stroke-miterlimit="10" x1="647.707" y1="27.949" x2="631.921" y2="24.362"/>
<line opacity="0.6" fill="none" stroke="#EFE578" stroke-width="5.8089" stroke-linecap="round" stroke-miterlimit="10" x1="586.404" y1="-7.846" x2="583.534" y2="-19.326"/>
<line opacity="0.6" fill="none" stroke="#F55489" stroke-width="5.8089" stroke-linecap="round" stroke-miterlimit="10" x1="394.617" y1="23.548" x2="399.64" y2="10.633"/>
<line opacity="0.6" fill="none" stroke="#F55489" stroke-width="5.8089" stroke-linecap="round" stroke-miterlimit="10" x1="621.228" y1="2.541" x2="626.968" y2="-17.551"/>
<line opacity="0.6" fill="none" stroke="#FFFFFF" stroke-width="5.8089" stroke-linecap="round" stroke-miterlimit="10" x1="653.036" y1="-5.816" x2="660.93" y2="-18.014"/>
<line opacity="0.6" fill="none" stroke="#EFE578" stroke-width="5.8089" stroke-linecap="round" stroke-miterlimit="10" x1="234.612" y1="82.738" x2="223.849" y2="74.845"/>
<line opacity="0.6" fill="none" stroke="#B7E5CF" stroke-width="5.8089" stroke-linecap="round" stroke-miterlimit="10" x1="306.776" y1="15.802" x2="316.822" y2="5.756"/>
<line opacity="0.6" fill="none" stroke="#F55489" stroke-width="5.8089" stroke-linecap="round" stroke-miterlimit="10" x1="278.728" y1="57.008" x2="270.117" y2="56.291"/>
<line opacity="0.6" fill="none" stroke="#B7E5CF" stroke-width="5.8089" stroke-linecap="round" stroke-miterlimit="10" x1="279.919" y1="93.193" x2="267.721" y2="86.018"/>
<line opacity="0.6" fill="none" stroke="#EFE578" stroke-width="5.8089" stroke-linecap="round" stroke-miterlimit="10" x1="295.575" y1="43.918" x2="281.942" y2="31.72"/>
<line opacity="0.6" fill="none" stroke="#B7E5CF" stroke-width="5.8089" stroke-linecap="round" stroke-miterlimit="10" x1="320.086" y1="233" x2="338" y2="233"/>
<line opacity="0.6" fill="none" stroke="#F8CACD" stroke-width="5.8089" stroke-linecap="round" stroke-miterlimit="10" x1="252.021" y1="254.315" x2="262.066" y2="233.507"/>
<line opacity="0.6" fill="none" stroke="#F55489" stroke-width="5.8089" stroke-linecap="round" stroke-miterlimit="10" x1="598.086" y1="254.654" x2="586.604" y2="241.739"/>
<line opacity="0.6" fill="none" stroke="#EFE578" stroke-width="5.8089" stroke-linecap="round" stroke-miterlimit="10" x1="340.038" y1="65.312" x2="343.626" y2="56.702"/>
<line opacity="0.6" fill="none" stroke="#B7E5CF" stroke-width="5.8089" stroke-linecap="round" stroke-miterlimit="10" x1="464.633" y1="57.471" x2="477.264" y2="57.471"/>
<line opacity="0.6" fill="none" stroke="#EFE578" stroke-width="5.8089" stroke-linecap="round" stroke-miterlimit="10" x1="228" y1="253" x2="217.237" y2="247.26"/>
<line opacity="0.6" fill="none" stroke="#F55489" stroke-width="5.8089" stroke-linecap="round" stroke-miterlimit="10" x1="499.176" y1="160.657" x2="477.649" y2="146.306"/>
<line opacity="0.6" fill="none" stroke="#B7E5CF" stroke-width="5.8089" stroke-linecap="round" stroke-miterlimit="10" x1="516.379" y1="199.191" x2="514.227" y2="182.688"/>
<line opacity="0.6" fill="none" stroke="#EFE578" stroke-width="5.8089" stroke-linecap="round" stroke-miterlimit="10" x1="301.062" y1="236.232" x2="290.298" y2="230.492"/>
</svg>
