<svg xmlns="http://www.w3.org/2000/svg" width="640" height="300" viewBox="0 0 640 300"><g fill-rule="evenodd" clip-rule="evenodd" fill="#FFF"><path d="M361.308 235.924c-1.692 0-3.185.172-4.611-.06-.952-.155-2.281-.691-2.577-1.413-.302-.731.229-2.065.796-2.844 1.211-1.666 3.026-2.381 5.101-2.4 1.418-.014 2.851.046 4.247-.146.657-.09 1.406-.565 1.83-1.095.817-1.021 1.375-2.248 2.145-3.314 1.36-1.889 3.383-2.487 5.555-1.752 2.079.704 2.685 2.159 1.695 4.113-.297.586-.635 1.15-1.079 1.952 2.063 0 3.854.006 5.643-.002 2.174-.009 2.826.998 1.896 2.989-.985 2.106-2.555 3.391-4.975 3.471-1.712.057-3.422.194-5.134.224-1.049.018-1.711.452-2.223 1.363-3.967 7.059-7.986 14.085-11.932 21.153a35.004 35.004 0 0 0-2.308 5.05c-.253.693-.261 1.956.156 2.29.526.422 1.71.431 2.42.146 2.916-1.174 5.128-3.359 7.277-5.564 1.703-1.746 3.292-3.604 4.918-5.426 1.271-1.426 2.994-1.686 4.598-.661 1.366.873 1.726 2.082.737 3.354-4.105 5.291-8.407 10.418-14.228 13.941-3.288 1.99-6.949 2.177-10.634 1.488-1.716-.321-2.925-1.496-3.652-3.11-.152-.34-.298-.683-.521-1.193-.975.702-1.802 1.35-2.68 1.921-1.969 1.279-3.945 2.471-6.428 2.593-2.29.113-4.058-.792-5.308-2.526-.806-1.12-1.389-.723-2.121-.18-3.184 2.36-6.76 3.092-10.652 2.712-2.487-.243-4.204-1.399-5.073-3.771-.094-.254-.294-.468-.547-.858-.846.614-1.608 1.194-2.396 1.735-2.1 1.444-4.232 2.706-6.902 2.924-4.494.366-6.952-3.79-6.507-7.175.471-3.585 2.237-6.636 3.899-9.727 1.432-2.664 2.962-5.273 4.414-7.927.272-.495.384-1.079.59-1.684-1.817-.544-2.99.575-4.119 1.36-2.116 1.474-4.215 3.037-6.031 4.854-1.122 1.122-1.846 2.719-2.513 4.207-2.095 4.671-4.048 9.407-6.121 14.088-.783 1.771-2.841 2.713-4.907 2.443-1.818-.238-3.313-1.339-3.485-3.045-.115-1.142.348-2.357.646-3.517.153-.593.513-1.133.852-1.854-.557 0-.927-.002-1.297.001-1.682.01-3.366-.032-5.044.056-.646.034-1.444.181-1.888.587-3.12 2.853-6.452 5.329-10.57 6.556-4.027 1.199-8.527 1.035-11.414-2.222-2.095-2.363-2.793-5.221-2.592-8.303.492-7.535 4.329-13.325 9.73-18.231 3.046-2.768 6.56-4.696 10.673-5.446 6.722-1.227 11.829 2.886 12.09 9.709.137 3.57-.937 6.835-2.279 10.055-.089.216-.18.431-.331.79 1.974.371 3.341-.729 4.774-1.535 2.723-1.535 3.947-4.213 5.153-6.902a944.762 944.762 0 0 1 5.088-11.188c.763-1.643 2.262-1.818 3.854-1.759 1.705.065 3.259.487 4.013 2.159.266.592.042 1.404.042 2.221 1.343-.882 2.667-1.883 4.11-2.669 1.981-1.079 4.039-2.072 6.389-.996 3.199 1.464 4.841 5.551 3.272 9.121-1.761 4.007-3.876 7.859-5.882 11.756-.691 1.344-1.551 2.601-2.269 3.933-.322.599-.485 1.282-.722 1.928l.41.347c.903-.497 1.963-.83 2.683-1.52 3.062-2.929 6.319-5.729 8.935-9.028 2.279-2.875 3.779-6.363 5.649-9.565.96-1.644 1.917-3.295 2.987-4.866 1.413-2.076 3.629-2.669 5.937-1.728 1.606.655 2.255 1.965 1.469 3.514-1.522 2.996-3.204 5.91-4.802 8.868-1.993 3.688-3.997 7.37-5.935 11.088-.626 1.201-1.492 2.749-.34 3.805 1.187 1.087 2.579 0 3.7-.774 3.753-2.595 6.683-5.996 8.978-9.874 2.68-4.531 5.109-9.212 7.614-13.847 1.269-2.345 3.491-3.497 5.949-2.983 2.065.433 2.699 1.615 1.732 3.529-1.78 3.524-3.63 7.015-5.479 10.504-1.621 3.061-3.3 6.093-4.9 9.165-.217.419-.122.998-.172 1.503.548.049 1.234.331 1.617.104 1.363-.813 2.714-1.695 3.903-2.74 3.388-2.98 5.613-6.824 7.781-10.715 2.377-4.261 4.855-8.466 7.285-12.698.117-.198.181-.424.348-.837zm-88.029 14.325c.13-.059-.49-2.842-1.333-3.833-1.586-1.866-3.788-1.447-5.675-.583-5.357 2.456-8.678 6.723-9.825 12.454-.939 4.696 2.005 7.487 6.162 6.186 5.237-1.641 10.525-8.689 10.671-14.224zM206.291 241.471c-2.036.848-4.025 1.843-6.117 2.515-6.546 2.108-12.991 2.299-18.475-2.556-4.148-3.672-5.948-8.497-5.164-14.099 1.097-7.832 5.305-13.954 10.895-19.218 6.067-5.716 13.231-9.484 21.238-11.826 6.628-1.938 13.333-2.419 20.158-1.879.953.076 1.613-.155 2.317-.858 1.682-1.683 4.362-1.687 5.878.11.528.626.349 1.85.528 3.031 1.552.723 3.535 1.438 5.306 2.507 7.801 4.709 11.213 11.917 11.521 20.8.197 5.688-.95 11.135-2.792 16.508-3.166 9.234-8.033 17.432-14.568 24.639-3.932 4.336-8.442 7.879-13.93 10.186-7.378 3.102-16.202 1.026-21.131-5.24-.323-.411-.658-.812-.989-1.219-1.866 1.537-3.526 3.118-5.391 4.402-6.555 4.518-13.542 5.138-20.58 1.408-5.253-2.785-7.537-8.096-6.41-13.863.855-4.375 2.897-7.896 7.018-9.841 4.219-1.99 8.59-2.173 13.127-.925 4.299 1.183 7.956 3.354 11.236 6.281.106.095.244.163.377.216.085.033.191.016.579.038l5.65-10.928-.281-.189zm39.835-20.759c.323-7.655-4.38-15.085-11.425-17.693-.953-.354-1.503-.348-1.999.606-.876 1.687-1.931 3.284-2.742 4.999-3.437 7.271-6.896 14.534-10.188 21.871-3.814 8.501-7.453 17.079-12.272 25.087-1.706 2.834-1.651 2.825.263 5.503 3.188 4.459 7.858 5.358 12.686 3.188 5.285-2.377 9.097-6.492 12.536-10.982 3.449-4.505 6.253-9.401 8.637-14.548 2.546-5.499 4.425-11.162 4.504-18.031zm-20.19-19.682c-.428-.129-.565-.197-.707-.206-.39-.026-.782-.044-1.173-.037-6.818.099-13.371 1.51-19.596 4.253-6.394 2.817-11.948 6.753-15.744 12.794-2.489 3.962-3.992 8.264-3.967 12.978.014 2.716.863 5.161 3.514 6.456 1.926.94 4.001 1.167 6.146.831 4.578-.719 8.646-2.617 12.36-5.311 2.819-2.043 5.459-4.335 7.056-7.483 3.769-7.431 7.402-14.932 11.097-22.401.293-.592.627-1.162 1.014-1.874zm-29.093 57.585c-2.665-1.689-4.951-3.481-7.518-4.669-2.655-1.228-5.534-1.852-8.479-.369-2.947 1.484-4.644 4.36-4.158 7.52.393 2.557 2.799 4.398 6.04 4.873 6.25.915 10.162-2.606 14.115-7.355zM406.453 266.165c4.108-2.408 7.758-5.279 10.723-8.845 6.203-7.462 12.264-15.044 18.312-22.633 1.843-2.313 5.473-1.921 7.063-.317.925.932 1.261 1.951.325 3.121-1.189 1.486-2.323 3.015-3.507 4.505-1.91 2.403-2.19 5.036-1.183 7.874 1.504 4.238 2.556 8.526 1.22 13.061l.364.312c1.323-1.039 2.777-1.952 3.942-3.146 1.596-1.633 2.976-3.478 4.443-5.234 1.761-2.105 4.483-2.004 5.537.249.17.362.133.938-.028 1.322-1.389 3.314-3.849 5.819-6.333 8.313-5.107 5.129-11.223 7.901-18.485 8.241-2.755.129-5.433.25-8.03-.949-2.084-.964-3.539-2.504-4.58-4.6-1.925 1.303-3.66 2.625-5.532 3.712-2.861 1.659-5.84 3.113-8.715 4.749a5.728 5.728 0 0 0-1.932 1.844c-1.847 2.925-3.405 6.048-5.415 8.851-2.244 3.126-5.478 5.069-9.337 5.457-2.377.239-4.735-.402-6.145-2.643-1.318-2.095-.67-4.162.534-6.053 2.129-3.344 5.148-5.696 8.678-7.415 1.969-.958 3.99-1.812 5.956-2.78.488-.24.999-.657 1.251-1.126a900.035 900.035 0 0 0 6.465-12.308c3.132-6.073 6.214-12.171 9.355-18.238 1.346-2.599 3.539-3.653 6.448-3.235 1.785.256 2.556 1.414 1.768 2.99-1.57 3.14-3.279 6.21-4.929 9.31-2.658 4.996-5.314 9.994-7.97 14.993-.102.198-.175.412-.263.618zm23.255-14.071c-2.324 2.826-4.394 5.383-6.511 7.9-1.55 1.843-1.05 4.023.218 5.597 2.008 2.494 5.443 2.249 6.838-.564 2.106-4.25 1.003-8.402-.545-12.933zm-44.038 34.198c1.512-.362 3.444-2.517 3.928-4.28-2.276.719-3.959 2.508-3.928 4.28zM420.062 233.109c-2.703.004-3.501-1.279-2.201-3.622.731-1.319 1.489-2.634 2.358-3.865 1.652-2.344 4.26-2.23 6.291-1.349 1.419.616 1.972 2.09 1.467 3.409-1.118 2.927-4.759 5.424-7.915 5.427zM379.521 272.913c-3.052-.004-3.888-1.385-2.679-3.603a63.336 63.336 0 0 1 1.907-3.291c1.443-2.307 4.008-3.126 6.536-2.126 1.779.702 2.463 2.529 1.354 4.332-1.726 2.807-4.205 4.573-7.118 4.688z"/></g><path fill="#4084F2" d="M-6-5.756h652V307H-6z"/><path fill="#EFCC9A" stroke="#1E416B" stroke-width="8.713" stroke-miterlimit="10" d="M308.664 100.984c-31.797 0-57.574 25.776-57.574 57.574 0 31.797 25.777 57.574 57.574 57.574 31.798 0 57.574-25.777 57.574-57.574 0-31.798-25.776-57.574-57.574-57.574zm0 74.88c-9.559 0-17.308-7.748-17.308-17.307 0-9.56 7.749-17.308 17.308-17.308 9.56 0 17.309 7.748 17.309 17.308 0 9.559-7.749 17.307-17.309 17.307z"/><path fill="#F288A9" d="M272.753 127.319c-2.718 2.974-8.697 4.155-10.25 8.138-1.451 3.722 2.045 8.931 1.491 13.145-.531 4.039-5.302 8.019-5.114 12.17.189 4.179 5.313 7.76 6.125 11.715.872 4.252-2.353 9.621-.888 13.208 1.75 4.284 7.761 5.516 10.152 8.19 3.048 3.41 4.862 9.73 9.932 11.519 4.384 1.547 10.274-2.008 15.442-1.622 4.828.36 9.965 4.848 14.908 4.236 4.985-.617 8.847-6.221 13.387-7.786 4.933-1.701 11.584.107 15.295-2.663 4.229-3.158 3.854-9.652 5.489-14.126 1.319-3.61 6.934-6.018 7.887-9.853.945-3.805-2.895-8.493-2.471-12.353.435-3.95 5.18-7.804 4.896-11.633-.294-3.974-5.535-6.905-6.79-10.552-1.268-3.684.957-9.331-1.489-12.476-2.286-2.939-8.243-2.23-11.727-4.524-3.372-2.221-5.118-8.164-9.146-9.545-3.855-1.322-8.987 2.248-13.159 1.714-4.1-.524-8.132-5.289-12.271-5.036-4.182.256-7.569 5.475-11.523 6.542-4.085 1.102-9.717-1.629-13.265.359-3.678 2.061-4.137 8.199-6.911 11.233z"/><path fill="none" stroke="#F8CACD" stroke-width="7.552" stroke-linecap="round" stroke-miterlimit="10" d="M272.125 165.066l-4.637-8.642"/><path fill="none" stroke="#1ACFE2" stroke-width="7.552" stroke-linecap="round" stroke-miterlimit="10" d="M303.469 117.191l-8.745 4.443"/><path fill="none" stroke="#FFF" stroke-width="7.552" stroke-linecap="round" stroke-miterlimit="10" d="M338.443 145.458l6.666-7.195"/><path fill="none" stroke="#B7E5CF" stroke-width="7.552" stroke-linecap="round" stroke-miterlimit="10" d="M299.281 197.012l9.273 3.195"/><path fill="none" stroke="#EFE578" stroke-width="7.552" stroke-linecap="round" stroke-miterlimit="10" d="M328.728 184.236l-4.326 8.802"/><path fill="none" stroke="#FFF" stroke-width="7.552" stroke-linecap="round" stroke-miterlimit="10" d="M281.057 188.19l6.266-7.544"/><path fill="none" stroke="#B7E5CF" stroke-width="7.552" stroke-linecap="round" stroke-miterlimit="10" d="M277.552 140.011l7.088 2.757M322.137 122.449l7.088 2.757"/><path fill="none" stroke="#F8CACD" stroke-width="7.552" stroke-linecap="round" stroke-miterlimit="10" d="M342.623 164.006l7.18 6.682"/><circle fill="#4084F2" stroke="#1E416B" stroke-width="8.713" stroke-miterlimit="10" cx="308.665" cy="158.558" r="17.308"/><path opacity=".6" fill="none" stroke="#B7E5CF" stroke-width="5.809" stroke-linecap="round" stroke-miterlimit="10" d="M-3.877 43.529h17.914"/><path opacity=".6" fill="none" stroke="#F8CACD" stroke-width="5.809" stroke-linecap="round" stroke-miterlimit="10" d="M50.77 18.262L60.815-2.547"/><path opacity=".6" fill="none" stroke="#B7E5CF" stroke-width="5.809" stroke-linecap="round" stroke-miterlimit="10" d="M463.529 211.392l-8.957-16.145"/><path opacity=".6" fill="none" stroke="#FFF" stroke-width="5.809" stroke-linecap="round" stroke-miterlimit="10" d="M45.209 44.009l-2.87 7.893"/><path opacity=".6" fill="none" stroke="#B7E5CF" stroke-width="5.809" stroke-linecap="round" stroke-miterlimit="10" d="M7.108 102.765l-8.438 17.939"/><path opacity=".6" fill="none" stroke="#F8CACD" stroke-width="5.809" stroke-linecap="round" stroke-miterlimit="10" d="M-3.686 84.044L6.359 73.999"/><path opacity=".6" fill="none" stroke="#B7E5CF" stroke-width="5.809" stroke-linecap="round" stroke-miterlimit="10" d="M6.138 180.139l-16.874 6.458"/><path opacity=".6" fill="none" stroke="#FFF" stroke-width="5.809" stroke-linecap="round" stroke-miterlimit="10" d="M8.436 151.739l4.218 14.352"/><path opacity=".6" fill="none" stroke="#B7E5CF" stroke-width="5.809" stroke-linecap="round" stroke-miterlimit="10" d="M-.141 294.655l8.957-8.611M68.554 231.216l17.939 5.74"/><path opacity=".6" fill="none" stroke="#F55489" stroke-width="5.809" stroke-linecap="round" stroke-miterlimit="10" d="M45.021 161.012l13.089 15.785"/><path opacity=".6" fill="none" stroke="#EFE578" stroke-width="5.809" stroke-linecap="round" stroke-miterlimit="10" d="M103.407 289.673l5.741 12.197"/><path opacity=".6" fill="none" stroke="#FFF" stroke-width="5.809" stroke-linecap="round" stroke-miterlimit="10" d="M101.305 202.976l-5.023-2.871"/><path opacity=".6" fill="none" stroke="#EFE578" stroke-width="5.809" stroke-linecap="round" stroke-miterlimit="10" d="M37.564 280.25l5.022-12.916"/><path opacity=".6" fill="none" stroke="#F8CACD" stroke-width="5.809" stroke-linecap="round" stroke-miterlimit="10" d="M-5.375 250.825l17.58 5.74M380.493 150.501l17.58 5.74"/><path opacity=".6" fill="none" stroke="#EFE578" stroke-width="5.809" stroke-linecap="round" stroke-miterlimit="10" d="M171.949 64.837l17.22-.717"/><path opacity=".6" fill="none" stroke="#F55489" stroke-width="5.809" stroke-linecap="round" stroke-miterlimit="10" d="M28.575 94.729l17.221-5.023"/><path opacity=".6" fill="none" stroke="#B7E5CF" stroke-width="5.809" stroke-linecap="round" stroke-miterlimit="10" d="M88.646 160.795l10.045-5.74"/><path opacity=".6" fill="none" stroke="#F55489" stroke-width="5.809" stroke-linecap="round" stroke-miterlimit="10" d="M133.75 61.152l10.763-7.893"/><path opacity=".6" fill="none" stroke="#EFE578" stroke-width="5.809" stroke-linecap="round" stroke-miterlimit="10" d="M63.475 138.442l-13.634-10.763"/><path opacity=".6" fill="none" stroke="#F8CACD" stroke-width="5.809" stroke-linecap="round" stroke-miterlimit="10" d="M36.887 211.244l25.831-4.306"/><path opacity=".6" fill="none" stroke="#F55489" stroke-width="5.809" stroke-linecap="round" stroke-miterlimit="10" d="M74.511 262.127l5.023 9.328"/><path opacity=".6" fill="none" stroke="#EFE578" stroke-width="5.809" stroke-linecap="round" stroke-miterlimit="10" d="M115.361 242.33l17.938 6.458"/><path opacity=".6" fill="none" stroke="#F55489" stroke-width="5.809" stroke-linecap="round" stroke-miterlimit="10" d="M183.279 267.617l10.763-12.198"/><path opacity=".6" fill="none" stroke="#EFE578" stroke-width="5.809" stroke-linecap="round" stroke-miterlimit="10" d="M394.988 103.448l-10.762-5.74"/><path opacity=".6" fill="none" stroke="#B7E5CF" stroke-width="5.809" stroke-linecap="round" stroke-miterlimit="10" d="M142.622 217.739l6.458-17.938"/><path opacity=".6" fill="none" stroke="#F8CACD" stroke-width="5.809" stroke-linecap="round" stroke-miterlimit="10" d="M124.266 132.649l-4.305-13.632"/><path opacity=".6" fill="none" stroke="#EFE578" stroke-width="5.809" stroke-linecap="round" stroke-miterlimit="10" d="M18.311 10.854L4.678-2.062"/><path opacity=".6" fill="none" stroke="#FFF" stroke-width="5.809" stroke-linecap="round" stroke-miterlimit="10" d="M100.574 96.833l15.785-9.328"/><path opacity=".6" fill="none" stroke="#B7E5CF" stroke-width="5.809" stroke-linecap="round" stroke-miterlimit="10" d="M92.152 62.217l-7.893-10.046"/><path opacity=".6" fill="none" stroke="#F55489" stroke-width="5.809" stroke-linecap="round" stroke-miterlimit="10" d="M12.587 216.763L1.106 203.847"/><path opacity=".6" fill="none" stroke="#B7E5CF" stroke-width="5.809" stroke-linecap="round" stroke-miterlimit="10" d="M156.903-.161l-11.48-5.023"/><path opacity=".6" fill="none" stroke="#EFE578" stroke-width="5.809" stroke-linecap="round" stroke-miterlimit="10" d="M114.167 23.815l-9.328-21.526"/><path opacity=".6" fill="none" stroke="#F8CACD" stroke-width="5.809" stroke-linecap="round" stroke-miterlimit="10" d="M220.377 55.567l-5.74-20.091"/><path opacity=".6" fill="none" stroke="#FFF" stroke-width="5.809" stroke-linecap="round" stroke-miterlimit="10" d="M176.503 36.52l-15.068-7.175"/><path opacity=".6" fill="none" stroke="#B7E5CF" stroke-width="5.809" stroke-linecap="round" stroke-miterlimit="10" d="M242.8 13.207l-12.916-6.458M151.048 94.238l7.893-6.458"/><path opacity=".6" fill="none" stroke="#FFF" stroke-width="5.809" stroke-linecap="round" stroke-miterlimit="10" d="M321.33-19.637L334.5-9.212"/><path opacity=".6" fill="none" stroke="#B7E5CF" stroke-width="5.809" stroke-linecap="round" stroke-miterlimit="10" d="M205.213 143.065l-7.175-12.199"/><path opacity=".6" fill="none" stroke="#FFF" stroke-width="5.809" stroke-linecap="round" stroke-miterlimit="10" d="M203.392 99.686l-7.175-15.068M386.688 207l-7.175-15.068M340 261l-8.61-15.068"/><path opacity=".6" fill="none" stroke="#F8CACD" stroke-width="5.809" stroke-linecap="round" stroke-miterlimit="10" d="M165.107 294.329L173 285"/><path opacity=".6" fill="none" stroke="#EFE578" stroke-width="5.809" stroke-linecap="round" stroke-miterlimit="10" d="M161.43 260.95l6.458-10.762"/><path opacity=".6" fill="none" stroke="#F55489" stroke-width="5.809" stroke-linecap="round" stroke-miterlimit="10" d="M148.875 284.286l-16.504-2.87"/><path opacity=".6" fill="none" stroke="#B7E5CF" stroke-width="5.809" stroke-linecap="round" stroke-miterlimit="10" d="M173.342 227.22l21.526-7.176"/><path opacity=".6" fill="none" stroke="#FFF" stroke-width="5.809" stroke-linecap="round" stroke-miterlimit="10" d="M214 286l-7.893-13.634"/><path opacity=".6" fill="none" stroke="#F8CACD" stroke-width="5.809" stroke-linecap="round" stroke-miterlimit="10" d="M229.041 229.104l-7.175-17.939"/><path opacity=".6" fill="none" stroke="#FFF" stroke-width="5.809" stroke-linecap="round" stroke-miterlimit="10" d="M412.365 272.91l-10.763-7.175"/><path opacity=".6" fill="none" stroke="#B7E5CF" stroke-width="5.809" stroke-linecap="round" stroke-miterlimit="10" d="M553.044 273.783l18.655 1.436"/><path opacity=".6" fill="none" stroke="#EFE578" stroke-width="5.809" stroke-linecap="round" stroke-miterlimit="10" d="M399.372 213.568l16.503 13.633"/><path opacity=".6" fill="none" stroke="#FFF" stroke-width="5.809" stroke-linecap="round" stroke-miterlimit="10" d="M445.278 259.801l-9.328-16.504"/><path opacity=".6" fill="none" stroke="#B7E5CF" stroke-width="5.809" stroke-linecap="round" stroke-miterlimit="10" d="M248.973 211.035l-5.74-19.374"/><path opacity=".6" fill="none" stroke="#F55489" stroke-width="5.809" stroke-linecap="round" stroke-miterlimit="10" d="M240.253 288.192l7.176-17.22"/><path opacity=".6" fill="none" stroke="#F8CACD" stroke-width="5.809" stroke-linecap="round" stroke-miterlimit="10" d="M214.224 171.346l-17.221-7.894"/><path opacity=".6" fill="none" stroke="#B7E5CF" stroke-width="5.809" stroke-linecap="round" stroke-miterlimit="10" d="M403.425 180.81l10.046-10.045"/><path opacity=".6" fill="none" stroke="#F8CACD" stroke-width="5.809" stroke-linecap="round" stroke-miterlimit="10" d="M457.663 139.372v-12.198"/><path opacity=".6" fill="none" stroke="#EFE578" stroke-width="5.809" stroke-linecap="round" stroke-miterlimit="10" d="M345.402 278.268l-23.679-5.024"/><path opacity=".6" fill="none" stroke="#F55489" stroke-width="5.809" stroke-linecap="round" stroke-miterlimit="10" d="M176.498 204.712l-7.894-16.504M438.456 210.077l-21.527-14.351"/><path opacity=".6" fill="none" stroke="#EFE578" stroke-width="5.809" stroke-linecap="round" stroke-miterlimit="10" d="M476.008 264.266l-7.175-18.657"/><path opacity=".6" fill="none" stroke="#F8CACD" stroke-width="5.809" stroke-linecap="round" stroke-miterlimit="10" d="M496.218 192.177l-13.633-10.045"/><path opacity=".6" fill="none" stroke="#FFF" stroke-width="5.809" stroke-linecap="round" stroke-miterlimit="10" d="M426.297 111.491l16.503 2.869"/><path opacity=".6" fill="none" stroke="#B7E5CF" stroke-width="5.809" stroke-linecap="round" stroke-miterlimit="10" d="M441.98 297.838l22.961-8.61"/><path opacity=".6" fill="none" stroke="#F8CACD" stroke-width="5.809" stroke-linecap="round" stroke-miterlimit="10" d="M489.385 122.406l16.503-5.022"/><path opacity=".6" fill="none" stroke="#B7E5CF" stroke-width="5.809" stroke-linecap="round" stroke-miterlimit="10" d="M516.379 199.191l-2.152-16.503M455.974 163.408l10.763-2.152"/><path opacity=".6" fill="none" stroke="#FFF" stroke-width="5.809" stroke-linecap="round" stroke-miterlimit="10" d="M417.848 82.775l-10.763-8.61"/><path opacity=".6" fill="none" stroke="#F8CACD" stroke-width="5.809" stroke-linecap="round" stroke-miterlimit="10" d="M229.458 117.191l16.503-4.305"/><path opacity=".6" fill="none" stroke="#B7E5CF" stroke-width="5.809" stroke-linecap="round" stroke-miterlimit="10" d="M391.325 127.587l17.939-4.306"/><path opacity=".6" fill="none" stroke="#FFF" stroke-width="5.809" stroke-linecap="round" stroke-miterlimit="10" d="M547.458 189.344l-7.894-10.764"/><path opacity=".6" fill="none" stroke="#B7E5CF" stroke-width="5.809" stroke-linecap="round" stroke-miterlimit="10" d="M532.47 97.061l-10.046-9.328"/><path opacity=".6" fill="none" stroke="#F55489" stroke-width="5.809" stroke-linecap="round" stroke-miterlimit="10" d="M297.954 273.328L308 264"/><path opacity=".6" fill="none" stroke="#F8CACD" stroke-width="5.809" stroke-linecap="round" stroke-miterlimit="10" d="M327.431 36.557l12.198-1.435M298.019 73.971l20.808-10.045"/><path opacity=".6" fill="none" stroke="#F55489" stroke-width="5.809" stroke-linecap="round" stroke-miterlimit="10" d="M172.702 124.414l-17.939-2.152"/><path opacity=".6" fill="none" stroke="#EFE578" stroke-width="5.809" stroke-linecap="round" stroke-miterlimit="10" d="M366.553 15.774l-15.786-3.588M169.522 159.565l-2.871-11.48"/><path opacity=".6" fill="none" stroke="#F55489" stroke-width="5.809" stroke-linecap="round" stroke-miterlimit="10" d="M190.022.112l5.023-12.915M274.95 16.054l5.74-20.091"/><path opacity=".6" fill="none" stroke="#FFF" stroke-width="5.809" stroke-linecap="round" stroke-miterlimit="10" d="M250.106 46.673L258 34.475"/><path opacity=".6" fill="none" stroke="#B7E5CF" stroke-width="5.809" stroke-linecap="round" stroke-miterlimit="10" d="M586.614 20.876h17.914"/><path opacity=".6" fill="none" stroke="#F8CACD" stroke-width="5.809" stroke-linecap="round" stroke-miterlimit="10" d="M130.349 182.831l10.046-20.81"/><path opacity=".6" fill="none" stroke="#B7E5CF" stroke-width="5.809" stroke-linecap="round" stroke-miterlimit="10" d="M383.647-5.173l-8.958-16.144"/><path opacity=".6" fill="none" stroke="#FFF" stroke-width="5.809" stroke-linecap="round" stroke-miterlimit="10" d="M482.315 33.023l-2.87 7.893"/><path opacity=".6" fill="none" stroke="#B7E5CF" stroke-width="5.809" stroke-linecap="round" stroke-miterlimit="10" d="M278.642 256.51l-8.437 17.938"/><path opacity=".6" fill="none" stroke="#F8CACD" stroke-width="5.809" stroke-linecap="round" stroke-miterlimit="10" d="M504.784 39.103l10.045-10.046"/><path opacity=".6" fill="none" stroke="#B7E5CF" stroke-width="5.809" stroke-linecap="round" stroke-miterlimit="10" d="M381.196 41.192l-16.875 6.458"/><path opacity=".6" fill="none" stroke="#FFF" stroke-width="5.809" stroke-linecap="round" stroke-miterlimit="10" d="M202.782 180.649L207 195"/><path opacity=".6" fill="none" stroke="#F55489" stroke-width="5.809" stroke-linecap="round" stroke-miterlimit="10" d="M424.373 141.954l8.437 12.916"/><path opacity=".6" fill="none" stroke="#B7E5CF" stroke-width="5.809" stroke-linecap="round" stroke-miterlimit="10" d="M469.503 107.276l8.957-8.61M373.062 235.259L391 241"/><path opacity=".6" fill="none" stroke="#F55489" stroke-width="5.809" stroke-linecap="round" stroke-miterlimit="10" d="M366.825 263.729l13.089 15.786"/><path opacity=".6" fill="none" stroke="#B7E5CF" stroke-width="5.809" stroke-linecap="round" stroke-miterlimit="10" d="M547.406 34.817l-6.545-12.198"/><path opacity=".6" fill="none" stroke="#EFE578" stroke-width="5.809" stroke-linecap="round" stroke-miterlimit="10" d="M525.263 267.259l5.023-12.916"/><path opacity=".6" fill="none" stroke="#F8CACD" stroke-width="5.809" stroke-linecap="round" stroke-miterlimit="10" d="M515.043 220.984l17.58 5.741"/><path opacity=".6" fill="none" stroke="#FFF" stroke-width="5.809" stroke-linecap="round" stroke-miterlimit="10" d="M530.532 122.817h25.652M553.471 245.243l7.175-20.091"/><path opacity=".6" fill="none" stroke="#EFE578" stroke-width="5.809" stroke-linecap="round" stroke-miterlimit="10" d="M481.977 78.821l17.22-.717"/><path opacity=".6" fill="none" stroke="#F55489" stroke-width="5.809" stroke-linecap="round" stroke-miterlimit="10" d="M350.48 221.068l17.221-5.022M525.399 63.851l10.764-7.893"/><path opacity=".6" fill="none" stroke="#EFE578" stroke-width="5.809" stroke-linecap="round" stroke-miterlimit="10" d="M461.769 4.032L448.136-6.73"/><path opacity=".6" fill="none" stroke="#F8CACD" stroke-width="5.809" stroke-linecap="round" stroke-miterlimit="10" d="M436.483 83.073l25.832-4.305"/><path opacity=".6" fill="none" stroke="#F55489" stroke-width="5.809" stroke-linecap="round" stroke-miterlimit="10" d="M579.849 177.094l5.023 9.328"/><path opacity=".6" fill="none" stroke="#EFE578" stroke-width="5.809" stroke-linecap="round" stroke-miterlimit="10" d="M595.872 212.722l17.939 6.458"/><path opacity=".6" fill="none" stroke="#FFF" stroke-width="5.809" stroke-linecap="round" stroke-miterlimit="10" d="M495.946 290.241l23.679 10.046"/><path opacity=".6" fill="none" stroke="#F55489" stroke-width="5.809" stroke-linecap="round" stroke-miterlimit="10" d="M370.509 81.082l10.763-12.199"/><path opacity=".6" fill="none" stroke="#EFE578" stroke-width="5.809" stroke-linecap="round" stroke-miterlimit="10" d="M567.601 155.254l-10.764-5.74"/><path opacity=".6" fill="none" stroke="#B7E5CF" stroke-width="5.809" stroke-linecap="round" stroke-miterlimit="10" d="M496.76 270.472l6.458-17.939"/><path opacity=".6" fill="none" stroke="#F8CACD" stroke-width="5.809" stroke-linecap="round" stroke-miterlimit="10" d="M563.082 97.092l-4.305-13.634"/><path opacity=".6" fill="none" stroke="#EFE578" stroke-width="5.809" stroke-linecap="round" stroke-miterlimit="10" d="M424.326 59.548l-13.633-12.916"/><path opacity=".6" fill="none" stroke="#F55489" stroke-width="5.809" stroke-linecap="round" stroke-miterlimit="10" d="M454.881 30.618l-21.527-2.153"/><path opacity=".6" fill="none" stroke="#FFF" stroke-width="5.809" stroke-linecap="round" stroke-miterlimit="10" d="M562.717 59.869l15.785-9.328"/><path opacity=".6" fill="none" stroke="#B7E5CF" stroke-width="5.809" stroke-linecap="round" stroke-miterlimit="10" d="M353.638 99.315l-7.893-10.045"/><path opacity=".6" fill="none" stroke="#F55489" stroke-width="5.809" stroke-linecap="round" stroke-miterlimit="10" d="M618.867 93.103l-11.48-12.916"/><path opacity=".6" fill="none" stroke="#B7E5CF" stroke-width="5.809" stroke-linecap="round" stroke-miterlimit="10" d="M655.818 74.351l-11.48-5.022"/><path opacity=".6" fill="none" stroke="#F8CACD" stroke-width="5.809" stroke-linecap="round" stroke-miterlimit="10" d="M618.552 58.596l-5.741-20.09"/><path opacity=".6" fill="none" stroke="#FFF" stroke-width="5.809" stroke-linecap="round" stroke-miterlimit="10" d="M567.949 4.354l-15.068-7.175"/><path opacity=".6" fill="none" stroke="#B7E5CF" stroke-width="5.809" stroke-linecap="round" stroke-miterlimit="10" d="M601.272 113.592l-12.916-6.458M479.445-7.876l7.893-6.458"/><path opacity=".6" fill="none" stroke="#FFF" stroke-width="5.809" stroke-linecap="round" stroke-miterlimit="10" d="M585.743 139.372l15.786-5.74"/><path opacity=".6" fill="none" stroke="#B7E5CF" stroke-width="5.809" stroke-linecap="round" stroke-miterlimit="10" d="M610.243 184.683l-7.175-12.199"/><path opacity=".6" fill="none" stroke="#FFF" stroke-width="5.809" stroke-linecap="round" stroke-miterlimit="10" d="M423.61 9.746l-7.175-15.069M641.1 209.671l-8.612-15.068"/><path opacity=".6" fill="none" stroke="#F8CACD" stroke-width="5.809" stroke-linecap="round" stroke-miterlimit="10" d="M522.705 155.178l7.893-9.328"/><path opacity=".6" fill="none" stroke="#B7E5CF" stroke-width="5.809" stroke-linecap="round" stroke-miterlimit="10" d="M567.273 204.614l-14.351-1.434"/><path opacity=".6" fill="none" stroke="#EFE578" stroke-width="5.809" stroke-linecap="round" stroke-miterlimit="10" d="M634.528 292.149l6.458-10.762"/><path opacity=".6" fill="none" stroke="#F55489" stroke-width="5.809" stroke-linecap="round" stroke-miterlimit="10" d="M522.715 2.036l-16.503-2.87"/><path opacity=".6" fill="none" stroke="#B7E5CF" stroke-width="5.809" stroke-linecap="round" stroke-miterlimit="10" d="M628.062 251.604l21.526-7.176"/><path opacity=".6" fill="none" stroke="#F8CACD" stroke-width="5.809" stroke-linecap="round" stroke-miterlimit="10" d="M609.87 293.6l-10.045-13.634"/><path opacity=".6" fill="none" stroke="#EFE578" stroke-width="5.809" stroke-linecap="round" stroke-miterlimit="10" d="M654.323 133.695l-23.678-5.022"/><path opacity=".6" fill="none" stroke="#F55489" stroke-width="5.809" stroke-linecap="round" stroke-miterlimit="10" d="M650.185 170.426l-21.527-14.351"/><path opacity=".6" fill="none" stroke="#EFE578" stroke-width="5.809" stroke-linecap="round" stroke-miterlimit="10" d="M647.707 27.949l-15.786-3.587M586.404-7.846l-2.87-11.48"/><path opacity=".6" fill="none" stroke="#F55489" stroke-width="5.809" stroke-linecap="round" stroke-miterlimit="10" d="M394.617 23.548l5.023-12.915M621.228 2.541l5.74-20.092"/><path opacity=".6" fill="none" stroke="#FFF" stroke-width="5.809" stroke-linecap="round" stroke-miterlimit="10" d="M653.036-5.816l7.894-12.198"/><path opacity=".6" fill="none" stroke="#EFE578" stroke-width="5.809" stroke-linecap="round" stroke-miterlimit="10" d="M234.612 82.738l-10.763-7.893"/><path opacity=".6" fill="none" stroke="#B7E5CF" stroke-width="5.809" stroke-linecap="round" stroke-miterlimit="10" d="M306.776 15.802l10.046-10.046"/><path opacity=".6" fill="none" stroke="#F55489" stroke-width="5.809" stroke-linecap="round" stroke-miterlimit="10" d="M278.728 57.008l-8.611-.717"/><path opacity=".6" fill="none" stroke="#B7E5CF" stroke-width="5.809" stroke-linecap="round" stroke-miterlimit="10" d="M279.919 93.193l-12.198-7.175"/><path opacity=".6" fill="none" stroke="#EFE578" stroke-width="5.809" stroke-linecap="round" stroke-miterlimit="10" d="M295.575 43.918L281.942 31.72"/><path opacity=".6" fill="none" stroke="#B7E5CF" stroke-width="5.809" stroke-linecap="round" stroke-miterlimit="10" d="M320.086 233H338"/><path opacity=".6" fill="none" stroke="#F8CACD" stroke-width="5.809" stroke-linecap="round" stroke-miterlimit="10" d="M252.021 254.315l10.045-20.808"/><path opacity=".6" fill="none" stroke="#F55489" stroke-width="5.809" stroke-linecap="round" stroke-miterlimit="10" d="M598.086 254.654l-11.482-12.915"/><path opacity=".6" fill="none" stroke="#EFE578" stroke-width="5.809" stroke-linecap="round" stroke-miterlimit="10" d="M340.038 65.312l3.588-8.61"/><path opacity=".6" fill="none" stroke="#B7E5CF" stroke-width="5.809" stroke-linecap="round" stroke-miterlimit="10" d="M464.633 57.471h12.631"/><path opacity=".6" fill="none" stroke="#EFE578" stroke-width="5.809" stroke-linecap="round" stroke-miterlimit="10" d="M228 253l-10.763-5.74"/><path opacity=".6" fill="none" stroke="#F55489" stroke-width="5.809" stroke-linecap="round" stroke-miterlimit="10" d="M499.176 160.657l-21.527-14.351"/><path opacity=".6" fill="none" stroke="#B7E5CF" stroke-width="5.809" stroke-linecap="round" stroke-miterlimit="10" d="M516.379 199.191l-2.152-16.503"/><path opacity=".6" fill="none" stroke="#EFE578" stroke-width="5.809" stroke-linecap="round" stroke-miterlimit="10" d="M301.062 236.232l-10.764-5.74"/></svg>