<svg xmlns="http://www.w3.org/2000/svg" width="24" height="24" viewBox="244 244 24 24"><path fill="#7A7A7A" d="M267.757 253.584a11.995 11.995 0 0 0-5.046-7.533 11.931 11.931 0 0 0-4.295-1.806 12.07 12.07 0 0 0-4.833-.001c-.771.157-1.529.395-2.255.7a12.02 12.02 0 0 0-3.813 2.571 12.19 12.19 0 0 0-1.465 1.774 11.979 11.979 0 0 0-2.049 6.708 11.96 11.96 0 0 0 3.514 8.487 11.94 11.94 0 0 0 6.068 3.27 12.07 12.07 0 0 0 4.833 0 11.95 11.95 0 0 0 4.295-1.807 12.13 12.13 0 0 0 3.239-3.238 11.934 11.934 0 0 0 1.806-4.294 12.116 12.116 0 0 0 .001-4.831zm-1.513 2.313c-.147-.032-3.616-.778-7.138-.335a29.745 29.745 0 0 0-.222-.529 29.358 29.358 0 0 0-.681-1.487c4.047-1.651 5.69-4.027 5.71-4.056a10.186 10.186 0 0 1 2.331 6.407zm-3.475-7.587c-.025.04-1.485 2.261-5.354 3.71-1.752-3.219-3.677-5.774-3.831-5.979a10.231 10.231 0 0 1 2.416-.289c2.595 0 4.962.967 6.769 2.558zm-9.223-2.26l-.002.002-.031.007.033-.009zm-1.919.681a61.437 61.437 0 0 1 3.806 5.905c-4.921 1.307-9.191 1.256-9.462 1.251a10.265 10.265 0 0 1 5.656-7.156zm-5.875 9.267c0-.108.004-.215.009-.323.18.004 5.244.119 10.521-1.46.294.574.575 1.159.831 1.742a9.392 9.392 0 0 0-.404.122c-5.53 1.788-8.335 6.764-8.335 6.764l.005.005a10.202 10.202 0 0 1-2.627-6.85zM256 266.247c-2.48 0-4.755-.882-6.528-2.349.136.11.229.18.229.18s1.964-4.285 8.044-6.401c.021-.009.045-.015.067-.021 1.442 3.746 2.037 6.886 2.189 7.78-1.23.522-2.582.811-4.001.811zm5.727-1.747c-.105-.62-.65-3.627-1.994-7.321 3.309-.528 6.175.379 6.387.449a10.27 10.27 0 0 1-4.393 6.872z"/></svg>