<?xml version="1.0" encoding="utf-8"?>
<!-- Generator: Adobe Illustrator 16.0.4, SVG Export Plug-In . SVG Version: 6.00 Build 0)  -->
<!DOCTYPE svg PUBLIC "-//W3C//DTD SVG 1.1//EN" "http://www.w3.org/Graphics/SVG/1.1/DTD/svg11.dtd">
<svg version="1.1" id="Layer_1" xmlns="http://www.w3.org/2000/svg" xmlns:xlink="http://www.w3.org/1999/xlink" x="0px" y="0px"
	 width="24px" height="24px" viewBox="244 244 24 24" enable-background="new 244 244 24 24" xml:space="preserve">
<path fill="#7A7A7A" d="M267.757,253.584c-0.158-0.77-0.394-1.529-0.701-2.255c-0.3-0.712-0.673-1.397-1.106-2.039
	c-0.429-0.635-0.922-1.231-1.464-1.774c-0.544-0.543-1.141-1.036-1.775-1.465c-0.642-0.434-1.328-0.806-2.039-1.106
	c-0.726-0.306-1.484-0.543-2.256-0.7C257.626,244.082,256.812,244,256,244c-0.813,0-1.626,0.082-2.417,0.244
	c-0.771,0.157-1.529,0.395-2.255,0.7c-0.711,0.301-1.397,0.673-2.039,1.106c-0.635,0.429-1.232,0.922-1.774,1.465
	c-0.543,0.543-1.035,1.14-1.465,1.774c-0.434,0.641-0.806,1.326-1.106,2.038c-0.307,0.726-0.542,1.485-0.7,2.256
	c-0.162,0.789-0.243,1.604-0.243,2.414c0,0.815,0.081,1.63,0.243,2.419c0.158,0.77,0.393,1.529,0.7,2.254
	c0.301,0.711,0.673,1.398,1.106,2.04c0.43,0.636,0.922,1.231,1.465,1.774c0.543,0.542,1.141,1.034,1.774,1.464
	c0.642,0.434,1.329,0.806,2.04,1.106c0.725,0.308,1.484,0.542,2.254,0.7c0.791,0.162,1.604,0.244,2.417,0.244
	c0.812,0,1.626-0.082,2.416-0.244c0.771-0.159,1.53-0.393,2.255-0.701c0.711-0.3,1.397-0.673,2.04-1.106
	c0.635-0.429,1.231-0.922,1.774-1.464c0.543-0.543,1.035-1.14,1.465-1.774c0.433-0.641,0.806-1.328,1.106-2.04
	c0.306-0.725,0.542-1.484,0.7-2.254c0.161-0.788,0.243-1.603,0.243-2.418C268,255.188,267.918,254.373,267.757,253.584z
	 M266.244,255.897c-0.147-0.032-3.616-0.778-7.138-0.335c-0.072-0.176-0.146-0.353-0.222-0.529
	c-0.212-0.502-0.442-0.999-0.681-1.487c4.047-1.651,5.69-4.027,5.71-4.056C265.352,251.236,266.222,253.466,266.244,255.897z
	 M262.769,248.31c-0.025,0.04-1.485,2.261-5.354,3.71c-1.752-3.219-3.677-5.774-3.831-5.979c0.774-0.188,1.584-0.289,2.416-0.289
	C258.595,245.752,260.962,246.719,262.769,248.31z M253.546,246.05c-0.001,0.001-0.002,0.002-0.002,0.002s-0.013,0.003-0.031,0.007
	C253.522,246.056,253.534,246.054,253.546,246.05z M251.627,246.731c0.137,0.183,2.032,2.752,3.806,5.905
	c-4.921,1.307-9.191,1.256-9.462,1.251C246.637,250.713,248.769,248.082,251.627,246.731z M245.752,255.998
	c0-0.108,0.004-0.215,0.009-0.323c0.18,0.004,5.244,0.119,10.521-1.46c0.294,0.574,0.575,1.159,0.831,1.742
	c-0.137,0.038-0.269,0.078-0.404,0.122c-5.53,1.788-8.335,6.764-8.335,6.764s0.004,0.003,0.005,0.005
	C246.745,261.032,245.752,258.633,245.752,255.998z M256,266.247c-2.48,0-4.755-0.882-6.528-2.349c0.136,0.11,0.229,0.18,0.229,0.18
	s1.964-4.285,8.044-6.401c0.021-0.009,0.045-0.015,0.067-0.021c1.442,3.746,2.037,6.886,2.189,7.78
	C258.771,265.958,257.419,266.247,256,266.247z M261.727,264.5c-0.105-0.62-0.65-3.627-1.994-7.321
	c3.309-0.528,6.175,0.379,6.387,0.449C265.662,260.482,264.027,262.945,261.727,264.5z"/>
</svg>
