<?xml version="1.0" encoding="utf-8"?>
<!-- Generator: Adobe Illustrator 16.0.4, SVG Export Plug-In . SVG Version: 6.00 Build 0)  -->
<!DOCTYPE svg PUBLIC "-//W3C//DTD SVG 1.1//EN" "http://www.w3.org/Graphics/SVG/1.1/DTD/svg11.dtd">
<svg version="1.1" id="Layer_1" xmlns="http://www.w3.org/2000/svg" xmlns:xlink="http://www.w3.org/1999/xlink" x="0px" y="0px"
	 width="512px" height="512px" viewBox="0 0 512 512" enable-background="new 0 0 512 512" xml:space="preserve">
<path fill="#7A7A7A" d="M259,0C117.615,0,3,114.615,3,256s114.615,256,256,256s256-114.615,256-256S400.385,0,259,0z
	 M411.028,408.028c-19.759,19.758-42.757,35.266-68.354,46.093c-6.503,2.75-13.107,5.164-19.8,7.246V423
	c0-20.167-6.917-35-20.75-44.5c8.667-0.833,16.625-2,23.875-3.5s14.917-3.667,23-6.5s15.333-6.208,21.75-10.125s12.583-9,18.5-15.25
	s10.875-13.333,14.875-21.25s7.167-17.417,9.5-28.5s3.5-23.292,3.5-36.625c0-25.833-8.417-47.833-25.25-66
	c7.667-20,6.833-41.75-2.5-65.25l-6.25-0.75c-4.333-0.5-12.125,1.333-23.375,5.5s-23.875,11-37.875,20.5
	c-19.833-5.5-40.417-8.25-61.75-8.25c-21.5,0-42,2.75-61.5,8.25c-8.833-6-17.208-10.958-25.125-14.875s-14.25-6.583-19-8
	s-9.167-2.292-13.25-2.625s-6.708-0.417-7.875-0.25s-2,0.333-2.5,0.5c-9.333,23.667-10.167,45.417-2.5,65.25
	c-16.833,18.167-25.25,40.167-25.25,66c0,13.333,1.167,25.542,3.5,36.625s5.5,20.583,9.5,28.5s8.958,15,14.875,21.25
	s12.083,11.333,18.5,15.25s13.667,7.292,21.75,10.125s15.75,5,23,6.5s15.208,2.667,23.875,3.5c-13.667,9.333-20.5,24.167-20.5,44.5
	v39.115c-7.549-2.247-14.99-4.902-22.3-7.994c-25.597-10.827-48.594-26.335-68.353-46.093
	c-19.758-19.76-35.267-42.756-46.093-68.354C49.679,313.195,44,285.043,44,256s5.679-57.195,16.879-83.675
	c10.827-25.597,26.335-48.594,46.093-68.353c19.758-19.759,42.756-35.267,68.353-46.093C201.805,46.679,229.957,41,259,41
	s57.195,5.679,83.675,16.879c25.599,10.827,48.595,26.335,68.354,46.093c19.758,19.758,35.266,42.756,46.093,68.353
	C468.321,198.805,474,226.957,474,256s-5.679,57.195-16.879,83.675C446.294,365.272,430.786,388.27,411.028,408.028z"/>
</svg>
