<svg xmlns="http://www.w3.org/2000/svg" width="24" height="24" viewBox="244 244 24 24"><path fill="#7A7A7A" d="M256 244c-6.627 0-12 5.373-12 12 0 6.628 5.373 12 12 12 6.628 0 12-5.372 12-12 0-6.627-5.372-12-12-12zm7.128 19.128a10.125 10.125 0 0 1-4.134 2.5v-1.801c0-.945-.324-1.64-.972-2.085.406-.038.777-.095 1.119-.163a8.456 8.456 0 0 0 1.077-.306 5.28 5.28 0 0 0 1.02-.475c.302-.183.59-.422.867-.714.278-.294.511-.626.697-.996.188-.372.336-.817.445-1.337a8.379 8.379 0 0 0 .165-1.716c0-1.211-.396-2.243-1.186-3.094.36-.938.321-1.957-.117-3.059l-.292-.034c-.203-.024-.568.062-1.097.258-.526.194-1.119.515-1.774.96a10.779 10.779 0 0 0-2.895-.386c-1.007 0-1.968.128-2.883.386a10.206 10.206 0 0 0-1.177-.697 6 6 0 0 0-.891-.375 3.115 3.115 0 0 0-.992-.134.914.914 0 0 0-.117.023c-.437 1.11-.476 2.129-.117 3.059-.789.851-1.184 1.883-1.184 3.094 0 .625.055 1.196.165 1.716.109.52.257.965.445 1.337.187.37.419.702.697.996.278.292.566.531.867.714a5.28 5.28 0 0 0 1.02.475c.378.134.738.234 1.078.306.341.068.712.125 1.12.163-.641.437-.961 1.132-.961 2.085v1.835a10.094 10.094 0 0 1-7.202-9.662 10.034 10.034 0 0 1 2.953-7.126 10.023 10.023 0 0 1 3.204-2.161 10.02 10.02 0 0 1 3.922-.792 10.053 10.053 0 0 1 7.128 2.953 10.05 10.05 0 0 1 2.949 7.126c0 1.361-.265 2.682-.79 3.922a10.081 10.081 0 0 1-2.157 3.205z"/></svg>