<?xml version="1.0" encoding="utf-8"?>
<!-- Generator: Adobe Illustrator 16.0.4, SVG Export Plug-In . SVG Version: 6.00 Build 0)  -->
<!DOCTYPE svg PUBLIC "-//W3C//DTD SVG 1.1//EN" "http://www.w3.org/Graphics/SVG/1.1/DTD/svg11.dtd">
<svg version="1.1" id="Layer_1" xmlns="http://www.w3.org/2000/svg" xmlns:xlink="http://www.w3.org/1999/xlink" x="0px" y="0px"
	 width="24px" height="24px" viewBox="244 244 24 24" enable-background="new 244 244 24 24" xml:space="preserve">
<path fill="#7A7A7A" d="M256,244c-6.627,0-12,5.373-12,12c0,6.628,5.373,12,12,12c6.628,0,12-5.372,12-12
	C268,249.373,262.628,244,256,244z M263.128,263.128c-0.929,0.924-2.006,1.651-3.206,2.159c-0.304,0.128-0.613,0.242-0.928,0.341
	v-1.801c0-0.945-0.324-1.64-0.972-2.085c0.406-0.038,0.777-0.095,1.119-0.163c0.338-0.071,0.698-0.172,1.077-0.306
	c0.379-0.132,0.719-0.291,1.02-0.475c0.302-0.183,0.59-0.422,0.867-0.714c0.278-0.294,0.511-0.626,0.697-0.996
	c0.188-0.372,0.336-0.817,0.445-1.337c0.109-0.521,0.165-1.092,0.165-1.716c0-1.211-0.396-2.243-1.186-3.094
	c0.36-0.938,0.321-1.957-0.117-3.059l-0.292-0.034c-0.203-0.024-0.568,0.062-1.097,0.258c-0.526,0.194-1.119,0.515-1.774,0.96
	c-0.93-0.258-1.895-0.386-2.895-0.386c-1.007,0-1.968,0.128-2.883,0.386c-0.414-0.281-0.807-0.513-1.177-0.697
	c-0.372-0.184-0.668-0.309-0.891-0.375c-0.223-0.066-0.43-0.107-0.622-0.123c-0.191-0.015-0.315-0.019-0.37-0.011
	c-0.054,0.008-0.094,0.016-0.117,0.023c-0.437,1.11-0.476,2.129-0.117,3.059c-0.789,0.851-1.184,1.883-1.184,3.094
	c0,0.625,0.055,1.196,0.165,1.716c0.109,0.52,0.257,0.965,0.445,1.337c0.187,0.37,0.419,0.702,0.697,0.996
	c0.278,0.292,0.566,0.531,0.867,0.714c0.301,0.184,0.641,0.343,1.02,0.475c0.378,0.134,0.738,0.234,1.078,0.306
	c0.341,0.068,0.712,0.125,1.12,0.163c-0.641,0.437-0.961,1.132-0.961,2.085v1.835c-0.354-0.106-0.703-0.23-1.045-0.375
	c-1.2-0.508-2.277-1.235-3.204-2.159c-0.927-0.929-1.654-2.006-2.161-3.206c-0.525-1.24-0.792-2.561-0.792-3.922
	c0-1.361,0.266-2.681,0.792-3.922c0.507-1.2,1.234-2.277,2.161-3.204c0.926-0.927,2.004-1.654,3.204-2.161
	c1.242-0.525,2.562-0.792,3.922-0.792c1.361,0,2.682,0.266,3.922,0.792c1.2,0.507,2.278,1.234,3.206,2.161
	c0.926,0.926,1.651,2.004,2.159,3.204c0.525,1.241,0.79,2.562,0.79,3.922c0,1.361-0.265,2.682-0.79,3.922
	C264.779,261.122,264.052,262.2,263.128,263.128z"/>
</svg>
