<?xml version="1.0" encoding="utf-8"?>
<!-- Generator: Adobe Illustrator 16.0.4, SVG Export Plug-In . SVG Version: 6.00 Build 0)  -->
<!DOCTYPE svg PUBLIC "-//W3C//DTD SVG 1.1//EN" "http://www.w3.org/Graphics/SVG/1.1/DTD/svg11.dtd">
<svg version="1.1" id="Layer_1" xmlns="http://www.w3.org/2000/svg" xmlns:xlink="http://www.w3.org/1999/xlink" x="0px" y="0px"
	 width="24px" height="24px" viewBox="4 4 24 24" enable-background="new 4 4 24 24" xml:space="preserve">
<path fill="#7A7A7A" d="M4.019,24.383c-0.006-0.06-0.011-0.118-0.014-0.178C4.008,24.265,4.014,24.323,4.019,24.383z M9.529,17.246
	c2.156,0.064,3.603-2.173,3.231-4.997c-0.373-2.824-2.423-5.09-4.58-5.155C6.024,7.031,4.578,9.191,4.95,12.016
	C5.322,14.84,7.372,17.182,9.529,17.246z M28,10V8c0-2.2-1.799-4-4-4H8C5.838,4,4.063,5.74,4.003,7.889
	c1.368-1.205,3.266-2.21,5.224-2.21c2.093,0,8.373,0,8.373,0l-1.874,1.585h-2.654c1.761,0.675,2.699,2.722,2.699,4.821
	c0,1.763-0.98,3.281-2.365,4.359c-1.351,1.052-1.607,1.494-1.607,2.388c0,0.765,1.447,2.062,2.203,2.598
	c2.212,1.558,2.929,3.007,2.929,5.424c0,0.385-0.049,0.77-0.144,1.147H24c2.201,0,4-1.798,4-4.001V11.501h-4.5v4.5H22v-4.5h-4.5
	v-1.5H22v-4.5h1.5v4.5L28,10L28,10z M8.357,21.952c0.506,0,0.971-0.014,1.452-0.014c-0.636-0.616-1.14-1.373-1.14-2.306
	c0-0.554,0.177-1.085,0.425-1.559c-0.253,0.018-0.511,0.022-0.776,0.022c-1.743,0-3.223-0.563-4.317-1.496v1.576v4.729
	C5.253,22.311,6.741,21.953,8.357,21.952L8.357,21.952z M4.081,24.795c-0.026-0.127-0.046-0.258-0.06-0.39
	C4.035,24.537,4.055,24.668,4.081,24.795z M14.675,26.332c-0.353-1.379-1.604-2.062-3.349-3.271
	c-0.635-0.204-1.333-0.326-2.083-0.333c-2.101-0.022-4.058,0.818-5.162,2.071C4.455,26.621,6.074,28,8,28h6.713
	c0.042-0.261,0.063-0.53,0.063-0.807C14.777,26.899,14.741,26.611,14.675,26.332L14.675,26.332z"/>
</svg>
