<?xml version="1.0" encoding="utf-8"?>
<!-- Generator: Adobe Illustrator 16.0.1, SVG Export Plug-In . SVG Version: 6.00 Build 0)  -->
<!DOCTYPE svg PUBLIC "-//W3C//DTD SVG 1.1//EN" "http://www.w3.org/Graphics/SVG/1.1/DTD/svg11.dtd">
<svg version="1.1" id="Layer_1" xmlns="http://www.w3.org/2000/svg" xmlns:xlink="http://www.w3.org/1999/xlink" x="0px" y="0px"
	 width="32px" height="32px" viewBox="0 0 32 32" enable-background="new 0 0 32 32" xml:space="preserve">
<path fill="#7A7A7A" d="M0.025,27.177c-0.008-0.079-0.014-0.157-0.018-0.237C0.011,27.02,0.018,27.098,0.025,27.177z M7.372,17.661
	c2.875,0.086,4.804-2.897,4.308-6.662c-0.497-3.765-3.231-6.787-6.106-6.873C2.698,4.041,0.77,6.922,1.266,10.688
	C1.762,14.453,4.496,17.575,7.372,17.661z M32,8V5.334C32,2.4,29.602,0,26.667,0H5.334c-2.884,0-5.25,2.32-5.33,5.185
	c1.824-1.606,4.354-2.947,6.965-2.947c2.791,0,11.164,0,11.164,0l-2.498,2.113h-3.54c2.348,0.9,3.599,3.629,3.599,6.429
	c0,2.351-1.307,4.374-3.153,5.812c-1.801,1.403-2.143,1.991-2.143,3.184c0,1.019,1.93,2.75,2.938,3.463
	c2.949,2.078,3.904,4.01,3.904,7.232c0,0.514-0.064,1.026-0.19,1.53h9.617c2.935,0,5.333-2.397,5.333-5.334V10.001h-6v6h-2v-6h-6v-2
	h6v-6h2v6L32,8L32,8z M5.809,23.936c0.675,0,1.294-0.018,1.936-0.018c-0.848-0.822-1.52-1.831-1.52-3.074
	c0-0.738,0.236-1.447,0.567-2.078c-0.337,0.023-0.681,0.03-1.035,0.03c-2.324,0-4.297-0.752-5.756-1.995v2.102v6.304
	c1.67-0.793,3.653-1.269,5.809-1.269L5.809,23.936z M0.107,27.727c-0.035-0.17-0.061-0.344-0.079-0.52
	C0.046,27.383,0.073,27.557,0.107,27.727z M14.233,29.775c-0.471-1.838-2.139-2.748-4.465-4.36C8.922,25.143,7.99,24.98,6.99,24.971
	c-2.801-0.029-5.41,1.092-6.882,2.762C0.606,30.161,2.765,32,5.334,32h8.951c0.057-0.348,0.084-0.707,0.084-1.076
	C14.369,30.532,14.321,30.148,14.233,29.775L14.233,29.775z"/>
</svg>
