<?xml version="1.0" encoding="utf-8"?>
<!-- Generator: Adobe Illustrator 16.0.4, SVG Export Plug-In . SVG Version: 6.00 Build 0)  -->
<!DOCTYPE svg PUBLIC "-//W3C//DTD SVG 1.1//EN" "http://www.w3.org/Graphics/SVG/1.1/DTD/svg11.dtd">
<svg version="1.1" id="Layer_1" xmlns="http://www.w3.org/2000/svg" xmlns:xlink="http://www.w3.org/1999/xlink" x="0px" y="0px"
	 width="24px" height="24px" viewBox="0 0 24 24" enable-background="new 0 0 24 24" xml:space="preserve">
<path fill="#FFFFFF" d="M6.303,12.4l8.388,8.385c0.12,0.12,0.335,0.12,0.457,0l1.986-1.988c0.126-0.127,0.126-0.331,0-0.457
	l-6.17-6.168l6.145-6.145c0.127-0.126,0.127-0.332,0-0.458l-1.987-1.987c-0.062-0.061-0.144-0.094-0.229-0.094
	c-0.087,0-0.168,0.034-0.229,0.094l-8.361,8.362c-0.061,0.061-0.094,0.144-0.094,0.229C6.208,12.257,6.242,12.34,6.303,12.4z"/>
</svg>
