<svg xmlns="http://www.w3.org/2000/svg" width="640" height="300" viewBox="0 0 640 300"><path fill="#15A0AF" d="M-15-4.822h675V306H-15z"/><circle fill="#EAE3BB" cx="513.03" cy="144.149" r="68.084"/><path fill="#44372B" d="M562.422 163.274c-2.198-1.798-5.313-2.707-9.245-2.707v.098c-.062-.005-.113-.019-.173-.019H474.608c-1.022 0-1.851.83-1.851 1.853 0 22.433 18.246 40.675 40.675 40.675.121 0 .248-.01.371-.013.125.003.248.013.375.013 14.46 0 27.174-7.592 34.388-18.995 10.19 0 17.033-7.302 17.033-14.126.001-2.698-1.126-5.1-3.177-6.779zm-11.832 17.319a40.337 40.337 0 0 0 4.223-16.493c2.307.203 4.166.827 5.427 1.852 1.577 1.291 1.909 2.944 1.909 4.102-.001 4.008-4.099 9.656-11.559 10.539z"/><path fill="#6F553C" d="M545.101 182.647c-6.647 10.152-18.121 16.876-31.135 16.876-19.879 0-36.166-15.683-37.141-35.324h74.256c-.014.208-.012.417-.026.624-.008.139-.021.278-.029.416a36.985 36.985 0 0 1-5.768 17.088c-.064.1-.115.207-.157.32"/><path fill="#574027" d="M525.298 164.199c0 20.604-11.346 35.324-11.346 35.324h.014c13.014 0 24.487-6.724 31.135-16.876.042-.113.094-.221.158-.32a37.008 37.008 0 0 0 5.768-17.088c.009-.138.021-.277.029-.416.015-.207.013-.416.026-.624h-25.784z"/><path fill="#CA4E29" d="M520.605 157.314c2.767-3.331 6.017-7.088 9.473-11.888 13.095-18.183 8.417-47.691-25.724-52.836 4.209 7.95 12.629 21.51-15.342 44.42-6.969 6.444-9.662 13.523-9.395 20.304h40.988z"/><path fill="#AF4126" d="M546.332 157.314c.716-7.355-.896-16.114-6.42-26.331.481 12.05-4.618 19.843-9.876 26.331h16.296z"/><ellipse opacity=".2" cx="44.414" cy="68.738" rx="8.327" ry="4.412"/><path fill="#C84D30" d="M32 43.417c0 7.633 12.415 25.005 12.415 25.005s12.413-17.836 12.413-25.005C56.828 36.556 51.273 31 44.415 31 37.558 31 32 36.556 32 43.417z"/><path fill="#FFF" d="M45.851 47.768c.415-.512 1.088-1.282 1.712-2.149 2.366-3.287 1.522-8.62-4.649-9.55.76 1.437 2.283 3.887-2.774 8.029-1.259 1.166-1.746 2.445-1.698 3.67h-.003a6.045 6.045 0 0 0 6.044 6.044c3.338 0 5.968-2.708 6.044-6.044 0-2.032-.218-2.938-1.218-4.784.089 2.179-.862 3.477-1.783 4.759-1.357 1.89-2.442.97-1.675.025z"/><path opacity=".2" d="M71.701 252.448c0 3.121-4.773 5.652-10.665 5.652-5.89 0-10.668-2.531-10.668-5.652 0-3.118 4.778-5.655 10.668-5.655 5.891 0 10.665 2.537 10.665 5.655z"/><path fill="#C84D30" d="M45.132 220.013c0 9.777 15.903 32.031 15.903 32.031s15.901-22.849 15.901-32.031c0-8.79-7.115-15.906-15.901-15.906-8.784-.001-15.903 7.116-15.903 15.906z"/><path fill="#FFF" d="M62.875 225.587c.531-.656 1.394-1.643 2.194-2.754 3.03-4.209 1.949-11.042-5.956-12.232.974 1.84 2.925 4.979-3.553 10.283-1.613 1.493-2.236 3.132-2.175 4.703h-.005a7.742 7.742 0 0 0 7.743 7.74c4.277 0 7.645-3.469 7.743-7.74 0-2.604-.28-3.763-1.561-6.13.114 2.792-1.104 4.454-2.284 6.097-1.739 2.421-3.128 1.244-2.146.033z"/><g><path opacity=".2" d="M302.082 201.878c0 3.988-6.1 7.223-13.628 7.223-7.526 0-13.631-3.234-13.631-7.223 0-3.984 6.105-7.227 13.631-7.227 7.528 0 13.628 3.243 13.628 7.227z"/><path fill="#C84D30" d="M268.132 160.432c0 12.493 20.321 40.93 20.321 40.93s20.318-29.196 20.318-40.93c0-11.232-9.092-20.325-20.318-20.325-11.224-.001-20.321 9.092-20.321 20.325z"/><path fill="#FFF" d="M290.803 167.555c.679-.839 1.781-2.1 2.804-3.52 3.872-5.378 2.491-14.109-7.61-15.631 1.244 2.352 3.737 6.362-4.54 13.141-2.061 1.908-2.857 4.002-2.78 6.01h-.005c0 5.463 4.43 9.891 9.894 9.891 5.465 0 9.769-4.433 9.894-9.891 0-3.328-.357-4.809-1.994-7.833.145 3.567-1.411 5.691-2.919 7.79-2.223 3.093-3.998 1.59-2.744.043z"/></g><g><path opacity=".2" d="M318.717 85.091c0 2.711-4.146 4.911-9.265 4.911-5.117 0-9.268-2.199-9.268-4.911 0-2.709 4.15-4.913 9.268-4.913s9.265 2.204 9.265 4.913z"/><path fill="#C84D30" d="M295.636 56.912c0 8.494 13.816 27.828 13.816 27.828s13.813-19.851 13.813-27.828c0-7.637-6.181-13.819-13.813-13.819-7.632 0-13.816 6.182-13.816 13.819z"/><path fill="#FFF" d="M311.049 61.755c.463-.57 1.212-1.427 1.906-2.393 2.633-3.656 1.694-9.593-5.174-10.627.846 1.599 2.541 4.326-3.087 8.934-1.401 1.297-1.941 2.721-1.89 4.086h-.003a6.726 6.726 0 0 0 6.726 6.725c3.716 0 6.643-3.014 6.728-6.725 0-2.263-.243-3.269-1.356-5.326.1 2.426-.958 3.87-1.983 5.296-1.512 2.104-2.719 1.082-1.867.03z"/></g><g><path opacity=".2" d="M220.189 264.611c0 2.711-4.146 4.91-9.265 4.91-5.117 0-9.268-2.199-9.268-4.91 0-2.709 4.15-4.913 9.268-4.913 5.119 0 9.265 2.204 9.265 4.913z"/><path fill="#C84D30" d="M197.108 236.433c0 8.493 13.816 27.827 13.816 27.827s13.813-19.85 13.813-27.827c0-7.637-6.181-13.819-13.813-13.819-7.631-.001-13.816 6.182-13.816 13.819z"/><path fill="#FFF" d="M212.521 241.275c.463-.57 1.212-1.428 1.906-2.393 2.633-3.656 1.694-9.594-5.174-10.627.846 1.598 2.541 4.325-3.087 8.934-1.401 1.297-1.941 2.721-1.89 4.086h-.003a6.725 6.725 0 0 0 6.726 6.725c3.716 0 6.643-3.014 6.728-6.725 0-2.263-.243-3.27-1.356-5.326.1 2.426-.958 3.87-1.983 5.297-1.511 2.104-2.718 1.081-1.867.029z"/></g><g><ellipse opacity=".2" cx="378.453" cy="237.101" rx="7.609" ry="4.032"/><path fill="#C84D30" d="M367.108 213.961c0 6.975 11.346 22.852 11.346 22.852s11.343-16.301 11.343-22.852c0-6.271-5.075-11.348-11.343-11.348s-11.346 5.077-11.346 11.348z"/><path fill="#FFF" d="M379.766 217.938c.38-.469.995-1.173 1.564-1.965 2.162-3.003 1.392-7.878-4.248-8.727.694 1.312 2.087 3.552-2.535 7.336-1.15 1.064-1.594 2.234-1.552 3.355h-.002a5.521 5.521 0 0 0 5.522 5.521c3.052 0 5.455-2.475 5.524-5.521 0-1.858-.199-2.686-1.113-4.374.081 1.992-.787 3.178-1.629 4.35-1.24 1.729-2.232.889-1.531.025z"/></g><g><path opacity=".2" d="M391.052 138.107c0 2.521-3.854 4.565-8.613 4.565-4.758 0-8.616-2.044-8.616-4.565 0-2.519 3.858-4.567 8.616-4.567 4.758 0 8.613 2.049 8.613 4.567z"/><path fill="#C84D30" d="M369.593 111.908c0 7.897 12.846 25.873 12.846 25.873s12.843-18.456 12.843-25.873c0-7.1-5.746-12.848-12.843-12.848-7.096 0-12.846 5.749-12.846 12.848z"/><path fill="#FFF" d="M383.924 116.412c.43-.531 1.127-1.328 1.771-2.225 2.447-3.4 1.575-8.919-4.811-9.88.786 1.485 2.363 4.021-2.87 8.306-1.303 1.206-1.805 2.53-1.757 3.799h-.002c0 3.453 2.8 6.251 6.253 6.251 3.455 0 6.176-2.802 6.255-6.251 0-2.104-.226-3.041-1.261-4.952.092 2.255-.892 3.598-1.845 4.924-1.404 1.956-2.526 1.005-1.733.028z"/></g><g><path opacity=".2" d="M205.137 113.882c0 3.408-5.211 6.171-11.643 6.171-6.43 0-11.646-2.763-11.646-6.171 0-3.404 5.216-6.174 11.646-6.174 6.432 0 11.643 2.77 11.643 6.174z"/><path fill="#C84D30" d="M176.132 78.472c0 10.674 17.362 34.969 17.362 34.969s17.359-24.944 17.359-34.969c0-9.597-7.768-17.365-17.359-17.365-9.59-.001-17.362 7.768-17.362 17.365z"/><path fill="#FFF" d="M195.501 84.557c.581-.716 1.521-1.793 2.396-3.007 3.308-4.595 2.128-12.055-6.502-13.354 1.063 2.009 3.193 5.436-3.879 11.227-1.761 1.63-2.441 3.419-2.375 5.134h-.004a8.452 8.452 0 0 0 8.453 8.45c4.669 0 8.346-3.787 8.453-8.45 0-2.843-.306-4.108-1.704-6.692.124 3.048-1.206 4.862-2.494 6.655-1.898 2.644-3.415 1.359-2.344.037z"/></g><g><ellipse opacity=".2" cx="157.006" cy="203.438" rx="8.839" ry="4.684"/><path fill="#C84D30" d="M143.828 176.558c0 8.103 13.179 26.545 13.179 26.545s13.177-18.936 13.177-26.545c0-7.284-5.896-13.182-13.177-13.182-7.279 0-13.179 5.897-13.179 13.182z"/><path fill="#FFF" d="M158.531 181.177c.44-.543 1.155-1.361 1.818-2.281 2.511-3.489 1.615-9.151-4.936-10.139.807 1.525 2.423 4.127-2.945 8.522-1.336 1.237-1.853 2.596-1.803 3.897h-.003a6.416 6.416 0 0 0 6.417 6.415c3.544 0 6.335-2.875 6.417-6.415 0-2.158-.232-3.118-1.293-5.079.094 2.313-.916 3.69-1.893 5.052-1.441 2.007-2.592 1.032-1.779.028z"/></g><g><path opacity=".2" d="M100.012 140.164c0 3.222-4.928 5.835-11.011 5.835-6.081 0-11.014-2.613-11.014-5.835 0-3.22 4.933-5.839 11.014-5.839 6.083 0 11.011 2.619 11.011 5.839z"/><path fill="#C84D30" d="M72.582 106.676c0 10.094 16.419 33.071 16.419 33.071s16.417-23.591 16.417-33.071c0-9.075-7.346-16.422-16.417-16.422-9.069-.001-16.419 7.347-16.419 16.422z"/><path fill="#FFF" d="M90.9 112.43c.548-.676 1.438-1.696 2.265-2.842 3.128-4.347 2.012-11.401-6.149-12.631 1.005 1.9 3.019 5.142-3.668 10.618-1.665 1.542-2.308 3.234-2.246 4.855h-.004a7.994 7.994 0 0 0 7.994 7.992c4.415 0 7.893-3.582 7.994-7.992 0-2.688-.289-3.885-1.611-6.328.117 2.882-1.141 4.598-2.359 6.293-1.795 2.501-3.23 1.286-2.216.035z"/></g></svg>