<?xml version="1.0" encoding="utf-8"?>
<!-- Generator: Adobe Illustrator 16.0.4, SVG Export Plug-In . SVG Version: 6.00 Build 0)  -->
<!DOCTYPE svg PUBLIC "-//W3C//DTD SVG 1.1//EN" "http://www.w3.org/Graphics/SVG/1.1/DTD/svg11.dtd">
<svg version="1.1" id="Layer_1" xmlns="http://www.w3.org/2000/svg" xmlns:xlink="http://www.w3.org/1999/xlink" x="0px" y="0px"
	 width="640px" height="300px" viewBox="0 0 640 300" enable-background="new 0 0 640 300" xml:space="preserve">
<rect x="-15" y="-4.822" fill="#15A0AF" width="675" height="310.822"/>
<g>
	<circle fill="#EAE3BB" cx="513.03" cy="144.149" r="68.084"/>
	<path fill="#44372B" d="M562.422,163.274c-2.198-1.798-5.313-2.707-9.245-2.707v0.098c-0.062-0.005-0.113-0.019-0.173-0.019h-4.671
		h-69.057h-4.668c-1.022,0-1.851,0.83-1.851,1.853c0,22.433,18.246,40.675,40.675,40.675c0.121,0,0.248-0.01,0.371-0.013
		c0.125,0.003,0.248,0.013,0.375,0.013c14.46,0,27.174-7.592,34.388-18.995l0,0c10.19,0,17.033-7.302,17.033-14.126
		C565.6,167.355,564.473,164.953,562.422,163.274z M550.59,180.593c2.499-5.002,3.992-10.584,4.223-16.493
		c2.307,0.203,4.166,0.827,5.427,1.852c1.577,1.291,1.909,2.944,1.909,4.102C562.148,174.062,558.05,179.71,550.59,180.593z"/>
	<path fill="#6F553C" d="M545.101,182.647c-6.647,10.152-18.121,16.876-31.135,16.876c-19.879,0-36.166-15.683-37.141-35.324h3.229
		h37.572h9.318h18.817h5.32c-0.014,0.208-0.012,0.417-0.026,0.624c-0.008,0.139-0.021,0.278-0.029,0.416
		c-0.481,6.06-2.445,11.915-5.768,17.088C545.194,182.427,545.143,182.534,545.101,182.647"/>
	<path fill="#574027" d="M525.298,164.199c0,20.604-11.346,35.324-11.346,35.324c0.002,0,0.01,0,0.014,0
		c13.014,0,24.487-6.724,31.135-16.876c0.042-0.113,0.094-0.221,0.158-0.32c3.322-5.173,5.286-11.028,5.768-17.088
		c0.009-0.138,0.021-0.277,0.029-0.416c0.015-0.207,0.013-0.416,0.026-0.624C551.082,164.199,531.661,164.199,525.298,164.199z"/>
	<path fill="#CA4E29" d="M520.605,157.314c2.767-3.331,6.017-7.088,9.473-11.888c13.095-18.183,8.417-47.691-25.724-52.836
		c4.209,7.95,12.629,21.51-15.342,44.42c-6.969,6.444-9.662,13.523-9.395,20.304H520.605z"/>
	<path fill="#AF4126" d="M546.332,157.314c0.716-7.355-0.896-16.114-6.42-26.331c0.481,12.05-4.618,19.843-9.876,26.331H546.332z"/>
</g>
<g>
	<ellipse opacity="0.2" cx="44.414" cy="68.738" rx="8.327" ry="4.412"/>
	<path fill="#C84D30" d="M32,43.417c0,7.633,12.415,25.005,12.415,25.005s12.413-17.836,12.413-25.005
		C56.828,36.556,51.273,31,44.415,31C37.558,31,32,36.556,32,43.417z"/>
	<g>
		<path fill="#FFFFFF" d="M45.851,47.768c0.415-0.512,1.088-1.282,1.712-2.149c2.366-3.287,1.522-8.62-4.649-9.55
			c0.76,1.437,2.283,3.887-2.774,8.029c-1.259,1.166-1.746,2.445-1.698,3.67h-0.003c0,3.338,2.707,6.044,6.044,6.044
			c3.338,0,5.968-2.708,6.044-6.044l0,0c0-2.032-0.218-2.938-1.218-4.784c0.089,2.179-0.862,3.477-1.783,4.759
			C46.169,49.633,45.084,48.713,45.851,47.768z"/>
	</g>
</g>
<g>
	<path opacity="0.2" d="M71.701,252.448c0,3.121-4.773,5.652-10.665,5.652c-5.89,0-10.668-2.531-10.668-5.652
		c0-3.118,4.778-5.655,10.668-5.655C66.927,246.793,71.701,249.33,71.701,252.448z"/>
	<path fill="#C84D30" d="M45.132,220.013c0,9.777,15.903,32.031,15.903,32.031s15.901-22.849,15.901-32.031
		c0-8.79-7.115-15.906-15.901-15.906C52.251,204.106,45.132,211.223,45.132,220.013z"/>
	<g>
		<path fill="#FFFFFF" d="M62.875,225.587c0.531-0.656,1.394-1.643,2.194-2.754c3.03-4.209,1.949-11.042-5.956-12.232
			c0.974,1.84,2.925,4.979-3.553,10.283c-1.613,1.493-2.236,3.132-2.175,4.703H53.38c0,4.275,3.467,7.74,7.743,7.74
			c4.277,0,7.645-3.469,7.743-7.74l0,0c0-2.604-0.28-3.763-1.561-6.13c0.114,2.792-1.104,4.454-2.284,6.097
			C63.282,227.975,61.893,226.798,62.875,225.587z"/>
	</g>
</g>
<g>
	<path opacity="0.2" d="M302.082,201.878c0,3.988-6.1,7.223-13.628,7.223c-7.526,0-13.631-3.234-13.631-7.223
		c0-3.984,6.105-7.227,13.631-7.227C295.982,194.651,302.082,197.894,302.082,201.878z"/>
	<path fill="#C84D30" d="M268.132,160.432c0,12.493,20.321,40.93,20.321,40.93s20.318-29.196,20.318-40.93
		c0-11.232-9.092-20.325-20.318-20.325C277.229,140.106,268.132,149.199,268.132,160.432z"/>
	<g>
		<path fill="#FFFFFF" d="M290.803,167.555c0.679-0.839,1.781-2.1,2.804-3.52c3.872-5.378,2.491-14.109-7.61-15.631
			c1.244,2.352,3.737,6.362-4.54,13.141c-2.061,1.908-2.857,4.002-2.78,6.01h-0.005c0,5.463,4.43,9.891,9.894,9.891
			c5.465,0,9.769-4.433,9.894-9.891l0,0c0-3.328-0.357-4.809-1.994-7.833c0.145,3.567-1.411,5.691-2.919,7.79
			C291.324,170.605,289.549,169.102,290.803,167.555z"/>
	</g>
</g>
<g>
	<path opacity="0.2" d="M318.717,85.091c0,2.711-4.146,4.911-9.265,4.911c-5.117,0-9.268-2.199-9.268-4.911
		c0-2.709,4.15-4.913,9.268-4.913C314.57,80.178,318.717,82.382,318.717,85.091z"/>
	<path fill="#C84D30" d="M295.636,56.912c0,8.494,13.816,27.828,13.816,27.828s13.813-19.851,13.813-27.828
		c0-7.637-6.181-13.819-13.813-13.819C301.82,43.093,295.636,49.275,295.636,56.912z"/>
	<g>
		<path fill="#FFFFFF" d="M311.049,61.755c0.463-0.57,1.212-1.427,1.906-2.393c2.633-3.656,1.694-9.593-5.174-10.627
			c0.846,1.599,2.541,4.326-3.087,8.934c-1.401,1.297-1.941,2.721-1.89,4.086h-0.003c0,3.714,3.012,6.725,6.726,6.725
			c3.716,0,6.643-3.014,6.728-6.725l0,0c0-2.263-0.243-3.269-1.356-5.326c0.1,2.426-0.958,3.87-1.983,5.296
			C311.404,63.829,310.197,62.807,311.049,61.755z"/>
	</g>
</g>
<g>
	<path opacity="0.2" d="M220.189,264.611c0,2.711-4.146,4.91-9.265,4.91c-5.117,0-9.268-2.199-9.268-4.91
		c0-2.709,4.15-4.913,9.268-4.913C216.043,259.698,220.189,261.902,220.189,264.611z"/>
	<path fill="#C84D30" d="M197.108,236.433c0,8.493,13.816,27.827,13.816,27.827s13.813-19.85,13.813-27.827
		c0-7.637-6.181-13.819-13.813-13.819C203.293,222.613,197.108,228.796,197.108,236.433z"/>
	<g>
		<path fill="#FFFFFF" d="M212.521,241.275c0.463-0.57,1.212-1.428,1.906-2.393c2.633-3.656,1.694-9.594-5.174-10.627
			c0.846,1.598,2.541,4.325-3.087,8.934c-1.401,1.297-1.941,2.721-1.89,4.086h-0.003c0,3.715,3.012,6.725,6.726,6.725
			c3.716,0,6.643-3.014,6.728-6.725l0,0c0-2.263-0.243-3.27-1.356-5.326c0.1,2.426-0.958,3.87-1.983,5.297
			C212.877,243.35,211.67,242.327,212.521,241.275z"/>
	</g>
</g>
<g>
	<ellipse opacity="0.2" cx="378.453" cy="237.101" rx="7.609" ry="4.032"/>
	<path fill="#C84D30" d="M367.108,213.961c0,6.975,11.346,22.852,11.346,22.852s11.343-16.301,11.343-22.852
		c0-6.271-5.075-11.348-11.343-11.348S367.108,207.69,367.108,213.961z"/>
	<g>
		<path fill="#FFFFFF" d="M379.766,217.938c0.38-0.469,0.995-1.173,1.564-1.965c2.162-3.003,1.392-7.878-4.248-8.727
			c0.694,1.312,2.087,3.552-2.535,7.336c-1.15,1.064-1.594,2.234-1.552,3.355h-0.002c0,3.05,2.473,5.521,5.522,5.521
			c3.052,0,5.455-2.475,5.524-5.521l0,0c0-1.858-0.199-2.686-1.113-4.374c0.081,1.992-0.787,3.178-1.629,4.35
			C380.057,219.642,379.065,218.802,379.766,217.938z"/>
	</g>
</g>
<g>
	<path opacity="0.2" d="M391.052,138.107c0,2.521-3.854,4.565-8.613,4.565c-4.758,0-8.616-2.044-8.616-4.565
		c0-2.519,3.858-4.567,8.616-4.567C387.197,133.54,391.052,135.589,391.052,138.107z"/>
	<path fill="#C84D30" d="M369.593,111.908c0,7.897,12.846,25.873,12.846,25.873s12.843-18.456,12.843-25.873
		c0-7.1-5.746-12.848-12.843-12.848C375.343,99.06,369.593,104.809,369.593,111.908z"/>
	<g>
		<path fill="#FFFFFF" d="M383.924,116.412c0.43-0.531,1.127-1.328,1.771-2.225c2.447-3.4,1.575-8.919-4.811-9.88
			c0.786,1.485,2.363,4.021-2.87,8.306c-1.303,1.206-1.805,2.53-1.757,3.799h-0.002c0,3.453,2.8,6.251,6.253,6.251
			c3.455,0,6.176-2.802,6.255-6.251l0,0c0-2.104-0.226-3.041-1.261-4.952c0.092,2.255-0.892,3.598-1.845,4.924
			C384.253,118.34,383.131,117.389,383.924,116.412z"/>
	</g>
</g>
<g>
	<path opacity="0.2" d="M205.137,113.882c0,3.408-5.211,6.171-11.643,6.171c-6.43,0-11.646-2.763-11.646-6.171
		c0-3.404,5.216-6.174,11.646-6.174C199.926,107.708,205.137,110.478,205.137,113.882z"/>
	<path fill="#C84D30" d="M176.132,78.472c0,10.674,17.362,34.969,17.362,34.969s17.359-24.944,17.359-34.969
		c0-9.597-7.768-17.365-17.359-17.365C183.904,61.106,176.132,68.875,176.132,78.472z"/>
	<g>
		<path fill="#FFFFFF" d="M195.501,84.557c0.581-0.716,1.521-1.793,2.396-3.007c3.308-4.595,2.128-12.055-6.502-13.354
			c1.063,2.009,3.193,5.436-3.879,11.227c-1.761,1.63-2.441,3.419-2.375,5.134h-0.004c0,4.667,3.785,8.45,8.453,8.45
			c4.669,0,8.346-3.787,8.453-8.45l0,0c0-2.843-0.306-4.108-1.704-6.692c0.124,3.048-1.206,4.862-2.494,6.655
			C195.947,87.164,194.43,85.879,195.501,84.557z"/>
	</g>
</g>
<g>
	<ellipse opacity="0.2" cx="157.006" cy="203.438" rx="8.839" ry="4.684"/>
	<path fill="#C84D30" d="M143.828,176.558c0,8.103,13.179,26.545,13.179,26.545s13.177-18.936,13.177-26.545
		c0-7.284-5.896-13.182-13.177-13.182C149.728,163.376,143.828,169.273,143.828,176.558z"/>
	<g>
		<path fill="#FFFFFF" d="M158.531,181.177c0.44-0.543,1.155-1.361,1.818-2.281c2.511-3.489,1.615-9.151-4.936-10.139
			c0.807,1.525,2.423,4.127-2.945,8.522c-1.336,1.237-1.853,2.596-1.803,3.897h-0.003c0,3.543,2.873,6.415,6.417,6.415
			c3.544,0,6.335-2.875,6.417-6.415l0,0c0-2.158-0.232-3.118-1.293-5.079c0.094,2.313-0.916,3.69-1.893,5.052
			C158.869,183.156,157.718,182.181,158.531,181.177z"/>
	</g>
</g>
<g>
	<path opacity="0.2" d="M100.012,140.164c0,3.222-4.928,5.835-11.011,5.835c-6.081,0-11.014-2.613-11.014-5.835
		c0-3.22,4.933-5.839,11.014-5.839C95.084,134.325,100.012,136.944,100.012,140.164z"/>
	<path fill="#C84D30" d="M72.582,106.676c0,10.094,16.419,33.071,16.419,33.071s16.417-23.591,16.417-33.071
		c0-9.075-7.346-16.422-16.417-16.422C79.932,90.253,72.582,97.601,72.582,106.676z"/>
	<g>
		<path fill="#FFFFFF" d="M90.9,112.43c0.548-0.676,1.438-1.696,2.265-2.842c3.128-4.347,2.012-11.401-6.149-12.631
			c1.005,1.9,3.019,5.142-3.668,10.618c-1.665,1.542-2.308,3.234-2.246,4.855h-0.004c0,4.414,3.58,7.992,7.994,7.992
			c4.415,0,7.893-3.582,7.994-7.992l0,0c0-2.688-0.289-3.885-1.611-6.328c0.117,2.882-1.141,4.598-2.359,6.293
			C91.321,114.896,89.886,113.681,90.9,112.43z"/>
	</g>
</g>
</svg>
