<?xml version="1.0" encoding="utf-8"?>
<!-- Generator: Adobe Illustrator 16.0.4, SVG Export Plug-In . SVG Version: 6.00 Build 0)  -->
<!DOCTYPE svg PUBLIC "-//W3C//DTD SVG 1.1//EN" "http://www.w3.org/Graphics/SVG/1.1/DTD/svg11.dtd">
<svg version="1.1" id="Layer_1" xmlns="http://www.w3.org/2000/svg" xmlns:xlink="http://www.w3.org/1999/xlink" x="0px" y="0px"
	 width="24px" height="24px" viewBox="0 0 24 24" enable-background="new 0 0 24 24" xml:space="preserve">
<path fill="#FFFFFF" d="M17.135,12.4l-8.388,8.385c-0.12,0.12-0.335,0.12-0.457,0l-1.986-1.988c-0.126-0.127-0.126-0.331,0-0.457
	l6.17-6.168L6.329,6.026c-0.127-0.126-0.127-0.332,0-0.458l1.987-1.987C8.378,3.521,8.46,3.487,8.545,3.487
	c0.087,0,0.168,0.034,0.229,0.094l8.361,8.362c0.061,0.061,0.094,0.144,0.094,0.229C17.229,12.257,17.195,12.34,17.135,12.4z"/>
</svg>
