<?xml version="1.0" encoding="utf-8"?>
<!-- Generator: Adobe Illustrator 16.0.4, SVG Export Plug-In . SVG Version: 6.00 Build 0)  -->
<!DOCTYPE svg PUBLIC "-//W3C//DTD SVG 1.1//EN" "http://www.w3.org/Graphics/SVG/1.1/DTD/svg11.dtd">
<svg version="1.1" id="Layer_1" xmlns="http://www.w3.org/2000/svg" xmlns:xlink="http://www.w3.org/1999/xlink" x="0px" y="0px"
	 width="24px" height="24px" viewBox="0 0 24 24" enable-background="new 0 0 24 24" xml:space="preserve">
<path fill="#B5B5B5" d="M15.106,14.039l-0.629-0.275l-0.089,0.09c2.36-2.648,2.278-6.719-0.26-9.259
	c-1.275-1.275-2.971-1.977-4.773-1.977S5.857,3.32,4.583,4.595c-2.632,2.632-2.632,6.914,0,9.546
	c1.275,1.275,2.97,1.977,4.773,1.977c1.68,0,3.262-0.615,4.503-1.73l-0.087,0.086l0.274,0.627l6.285,6.283l1.061-1.061
	L15.106,14.039z M9.355,14.617c-1.402,0-2.721-0.545-3.712-1.537c-2.047-2.047-2.047-5.378,0-7.425
	c0.992-0.992,2.31-1.538,3.712-1.538s2.721,0.546,3.712,1.538c2.047,2.047,2.047,5.378,0,7.425
	C12.076,14.072,10.758,14.617,9.355,14.617z"/>
</svg>
