<?xml version="1.0" encoding="utf-8"?>
<!-- Generator: Adobe Illustrator 16.0.4, SVG Export Plug-In . SVG Version: 6.00 Build 0)  -->
<!DOCTYPE svg PUBLIC "-//W3C//DTD SVG 1.1//EN" "http://www.w3.org/Graphics/SVG/1.1/DTD/svg11.dtd">
<svg version="1.1" id="Layer_1" xmlns="http://www.w3.org/2000/svg" xmlns:xlink="http://www.w3.org/1999/xlink" x="0px" y="0px"
	 width="24px" height="24px" viewBox="0 0 24 24" enable-background="new 0 0 24 24" xml:space="preserve">
<path fill="#AAAAAA" d="M15.105,14.039l-0.629-0.275l-0.088,0.09c2.359-2.647,2.277-6.719-0.261-9.258
	c-1.274-1.275-2.971-1.977-4.773-1.977c-1.802,0-3.498,0.702-4.772,1.977c-2.632,2.632-2.632,6.914,0,9.545
	c1.275,1.275,2.97,1.978,4.773,1.978c1.68,0,3.262-0.615,4.503-1.729l-0.088,0.086l0.274,0.627l6.285,6.282l1.062-1.061
	L15.105,14.039z M9.355,14.617c-1.402,0-2.721-0.545-3.712-1.537c-2.047-2.047-2.047-5.378,0-7.425
	c0.992-0.992,2.31-1.538,3.712-1.538s2.721,0.546,3.711,1.538c2.048,2.047,2.048,5.378,0,7.425
	C12.076,14.072,10.758,14.617,9.355,14.617z"/>
</svg>
