<svg xmlns="http://www.w3.org/2000/svg" width="24" height="24" viewBox="0 0 24 24"><path fill="#AAA" d="M15.105 14.039l-.629-.275-.088.09c2.359-2.647 2.277-6.719-.261-9.258a6.706 6.706 0 0 0-4.773-1.977 6.703 6.703 0 0 0-4.772 1.977 6.756 6.756 0 0 0 0 9.545 6.707 6.707 0 0 0 4.773 1.978c1.68 0 3.262-.615 4.503-1.729l-.088.086.274.627 6.285 6.282 1.062-1.061-6.286-6.285zm-5.75.578a5.212 5.212 0 0 1-3.712-1.537 5.256 5.256 0 0 1 0-7.425c.992-.992 2.31-1.538 3.712-1.538s2.721.546 3.711 1.538a5.255 5.255 0 0 1 0 7.425 5.206 5.206 0 0 1-3.711 1.537z"/></svg>