<?xml version="1.0" encoding="utf-8"?>
<!-- Generator: Adobe Illustrator 16.0.4, SVG Export Plug-In . SVG Version: 6.00 Build 0)  -->
<!DOCTYPE svg PUBLIC "-//W3C//DTD SVG 1.1//EN" "http://www.w3.org/Graphics/SVG/1.1/DTD/svg11.dtd">
<svg version="1.1" id="Layer_1" xmlns="http://www.w3.org/2000/svg" xmlns:xlink="http://www.w3.org/1999/xlink" x="0px" y="0px"
	 width="640px" height="300px" viewBox="0 0 640 300" enable-background="new 0 0 640 300" xml:space="preserve">
<g id="Layer_2">
	<rect fill="#CDD2D3" width="648.5" height="300"/>
</g>
<g id="Layer_1_1_">
	<path fill="#FFFFFF" d="M85.65,100.319c4.509-4.51,4.509-11.848,0-16.359c-4.51-4.509-11.848-4.509-16.359,0
		c-3.941,3.943-4.438,10.05-1.485,14.535l-7.974,7.974c-0.915,0.915-0.915,2.396,0,3.31c0.916,0.916,2.396,0.916,3.312,0
		l7.972-7.974C75.603,104.756,81.707,104.261,85.65,100.319z M72.603,97.009c-2.684-2.684-2.684-7.053,0-9.739
		c2.685-2.684,7.054-2.684,9.738,0c2.685,2.686,2.685,7.055,0,9.739C79.656,99.692,75.288,99.695,72.603,97.009z"/>
	<g>
		<polygon fill="#FFFFFF" points="247.694,188.01 265,198 247.694,207.991 		"/>
		<polygon fill="#FFFFFF" points="265,188.01 282.306,198 265,207.991 		"/>
	</g>
	<g>
		<rect x="366.693" y="69.298" fill="#FFFFFF" width="5.77" height="25.958"/>
		<rect x="378.23" y="69.298" fill="#FFFFFF" width="5.77" height="25.958"/>
	</g>
	<polygon fill="#FFFFFF" points="524.524,221.443 547.599,234.77 524.524,248.085 	"/>
	<g>
		<polygon fill="#FFFFFF" points="601,50.069 583.694,40.076 601,30.087 		"/>
		<polygon fill="#FFFFFF" points="583.694,50.069 566.39,40.079 583.694,30.087 		"/>
	</g>
	<g>
		
			<polygon opacity="0.1" fill="none" stroke="#000000" stroke-width="6.7903" stroke-linecap="round" stroke-linejoin="round" enable-background="new    " points="
			180.957,100.828 213.627,44.241 246.297,100.828 		"/>
		<polygon fill="none" stroke="#FEE560" stroke-width="6.7903" stroke-linecap="round" stroke-linejoin="round" points="
			172.377,91.707 205.047,35.121 237.718,91.707 		"/>
	</g>
	
		<circle opacity="0.1" fill="none" stroke="#000000" stroke-width="6.7879" stroke-linecap="round" stroke-linejoin="round" enable-background="new    " cx="396.682" cy="239.505" r="35.071"/>
	
		<circle fill="none" stroke="#127DDD" stroke-width="6.7879" stroke-linecap="round" stroke-linejoin="round" cx="388.104" cy="230.387" r="35.071"/>
	<g>
		
			<rect x="494.789" y="100.379" opacity="0.1" fill="none" stroke="#000000" stroke-width="7.8849" stroke-linecap="round" stroke-linejoin="round" enable-background="new    " width="69.211" height="69.212"/>
		
			<rect x="484.828" y="89.789" fill="none" stroke="#2CC2C6" stroke-width="7.8849" stroke-linecap="round" stroke-linejoin="round" width="69.211" height="69.211"/>
	</g>
	<g opacity="0.1">
		<path fill="none" stroke="#000000" stroke-width="7.8849" stroke-linecap="round" stroke-linejoin="round" d="M62.809,205.82
			c7.715,0,7.715,15.771,15.43,15.771c7.716,0,7.716-15.771,15.432-15.771c7.713,0,7.713,15.771,15.427,15.771
			c7.715,0,7.715-15.771,15.433-15.771c7.717,0,7.716,15.771,15.433,15.771c7.719,0,7.719-15.771,15.437-15.771
			c7.718,0,7.717,15.771,15.435,15.771"/>
	</g>
	<g>
		<path fill="none" stroke="#F78C98" stroke-width="7.8849" stroke-linecap="round" stroke-linejoin="round" d="M52.846,195.229
			c7.715,0,7.715,15.771,15.43,15.771c7.716,0,7.716-15.771,15.431-15.771c7.713,0,7.713,15.771,15.427,15.771
			c7.716,0,7.716-15.771,15.433-15.771c7.717,0,7.717,15.771,15.433,15.771c7.718,0,7.718-15.771,15.437-15.771
			c7.718,0,7.718,15.771,15.436,15.771"/>
	</g>
</g>
</svg>
