<svg xmlns="http://www.w3.org/2000/svg" width="640" height="300" viewBox="0 0 640 300"><path fill="#CDD2D3" d="M0 0h648.5v300H0z"/><path fill="#FFF" d="M85.65 100.319c4.509-4.51 4.509-11.848 0-16.359-4.51-4.509-11.848-4.509-16.359 0-3.941 3.943-4.438 10.05-1.485 14.535l-7.974 7.974a2.339 2.339 0 0 0 0 3.31 2.34 2.34 0 0 0 3.312 0l7.972-7.974c4.487 2.951 10.591 2.456 14.534-1.486zm-13.047-3.31c-2.684-2.684-2.684-7.053 0-9.739 2.685-2.684 7.054-2.684 9.738 0 2.685 2.686 2.685 7.055 0 9.739-2.685 2.683-7.053 2.686-9.738 0z"/><g fill="#FFF"><path d="M247.694 188.01L265 198l-17.306 9.991zM265 188.01l17.306 9.99L265 207.991z"/></g><g fill="#FFF"><path d="M366.693 69.298h5.77v25.958h-5.77zM378.23 69.298H384v25.958h-5.77z"/></g><path fill="#FFF" d="M524.524 221.443l23.075 13.327-23.075 13.315z"/><g fill="#FFF"><path d="M601 50.069l-17.306-9.993L601 30.087zM583.694 50.069l-17.304-9.99 17.304-9.992z"/></g><g fill="none" stroke-width="6.79" stroke-linecap="round" stroke-linejoin="round"><path opacity=".1" stroke="#000" d="M180.957 100.828l32.67-56.587 32.67 56.587z"/><path stroke="#FEE560" d="M172.377 91.707l32.67-56.586 32.671 56.586z"/></g><circle opacity=".1" fill="none" stroke="#000" stroke-width="6.788" stroke-linecap="round" stroke-linejoin="round" cx="396.682" cy="239.505" r="35.071"/><circle fill="none" stroke="#127DDD" stroke-width="6.788" stroke-linecap="round" stroke-linejoin="round" cx="388.104" cy="230.387" r="35.071"/><g fill="none" stroke-width="7.885" stroke-linecap="round" stroke-linejoin="round"><path opacity=".1" stroke="#000" d="M494.789 100.379H564v69.212h-69.211z"/><path stroke="#2CC2C6" d="M484.828 89.789h69.211V159h-69.211z"/></g><path fill="none" stroke="#000" stroke-width="7.885" stroke-linecap="round" stroke-linejoin="round" d="M62.809 205.82c7.715 0 7.715 15.771 15.43 15.771 7.716 0 7.716-15.771 15.432-15.771 7.713 0 7.713 15.771 15.427 15.771 7.715 0 7.715-15.771 15.433-15.771 7.717 0 7.716 15.771 15.433 15.771 7.719 0 7.719-15.771 15.437-15.771 7.718 0 7.717 15.771 15.435 15.771" opacity=".1"/><path fill="none" stroke="#F78C98" stroke-width="7.885" stroke-linecap="round" stroke-linejoin="round" d="M52.846 195.229c7.715 0 7.715 15.771 15.43 15.771 7.716 0 7.716-15.771 15.431-15.771 7.713 0 7.713 15.771 15.427 15.771 7.716 0 7.716-15.771 15.433-15.771S122.284 211 130 211c7.718 0 7.718-15.771 15.437-15.771 7.718 0 7.718 15.771 15.436 15.771"/></svg>