<?xml version="1.0" encoding="utf-8"?>
<!-- Generator: Adobe Illustrator 16.0.4, SVG Export Plug-In . SVG Version: 6.00 Build 0)  -->
<!DOCTYPE svg PUBLIC "-//W3C//DTD SVG 1.1//EN" "http://www.w3.org/Graphics/SVG/1.1/DTD/svg11.dtd">
<svg version="1.1" id="Layer_1" xmlns="http://www.w3.org/2000/svg" xmlns:xlink="http://www.w3.org/1999/xlink" x="0px" y="0px"
	 width="700px" height="450px" viewBox="0 0 700 450" enable-background="new 0 0 700 450" xml:space="preserve">
<path fill="#F6F9FC" stroke="#D6D6D6" stroke-miterlimit="10" d="M697.468,443.184c0,1.557-1.261,2.816-2.816,2.816H5.817
	C4.261,446,3,444.74,3,443.184V5.816C3,4.261,4.261,3,5.817,3h688.834c1.556,0,2.816,1.261,2.816,2.816V443.184z"/>
<path fill="#FFFFFF" d="M679.544,422.636c0,1.611-1.309,2.918-2.919,2.918H120.074c-1.612,0-2.918-1.307-2.918-2.918V57.877
	c0-1.612,1.307-2.918,2.918-2.918h556.551c1.61,0,2.919,1.307,2.919,2.918V422.636z"/>
<g>
	<g>
		<path id="path-1_4_" fill="#FF4785" d="M35.554,120.161l-1.473-39.24c-0.048-1.295,0.945-2.394,2.239-2.475l33.376-2.086
			c1.317-0.081,2.452,0.919,2.535,2.237c0.003,0.05,0.004,0.098,0.004,0.148v42.76c0,1.32-1.07,2.389-2.39,2.389
			c-0.036,0-0.071,0-0.108-0.003l-31.902-1.431C36.593,122.404,35.6,121.404,35.554,120.161L35.554,120.161z"/>
	</g>
	<defs>
		<filter id="Adobe_OpacityMaskFilter" filterUnits="userSpaceOnUse" x="43.907" y="76.356" width="23.358" height="38.529">
			<feColorMatrix  type="matrix" values="1 0 0 0 0  0 1 0 0 0  0 0 1 0 0  0 0 0 1 0"/>
		</filter>
	</defs>
	<mask maskUnits="userSpaceOnUse" x="43.907" y="76.356" width="23.358" height="38.529" id="mask-2_2_">
		<g filter="url(#Adobe_OpacityMaskFilter)">
			<path id="path-1_3_" fill="#FFFFFF" d="M35.554,120.161l-1.473-39.24c-0.048-1.295,0.945-2.394,2.239-2.475l33.376-2.086
				c1.317-0.081,2.452,0.919,2.535,2.237c0.003,0.05,0.004,0.098,0.004,0.148v42.76c0,1.32-1.07,2.389-2.39,2.389
				c-0.036,0-0.071,0-0.108-0.003l-31.902-1.431C36.593,122.404,35.6,121.404,35.554,120.161L35.554,120.161z"/>
		</g>
	</mask>
	<path mask="url(#mask-2_2_)" fill="#FFFFFF" d="M62.256,82.199l0.227-5.483l4.583-0.36l0.198,5.655
		c0.007,0.196-0.147,0.361-0.344,0.368c-0.084,0.003-0.167-0.024-0.233-0.076l-1.767-1.392l-2.093,1.587
		c-0.157,0.118-0.38,0.088-0.5-0.068C62.277,82.363,62.252,82.282,62.256,82.199z M56.393,94.275c0,0.929,6.263,0.483,7.105-0.17
		c0-6.332-3.397-9.66-9.62-9.66s-9.708,3.379-9.708,8.449c0,8.829,11.915,8.997,11.915,13.812c0,1.352-0.662,2.154-2.119,2.154
		c-1.897,0-2.647-0.969-2.559-4.265c0-0.713-7.237-0.936-7.457,0c-0.562,7.985,4.412,10.289,10.105,10.289
		c5.515,0,9.839-2.94,9.839-8.263c0-9.462-12.09-9.208-12.09-13.897c0-1.9,1.411-2.154,2.251-2.154
		C54.937,90.57,56.526,90.726,56.393,94.275z"/>
</g>
<path opacity="0.2" fill="#4C48FF" enable-background="new    " d="M374.08,126.457h42.797l-23.135,24.915h-42.564L374.08,126.457z"
	/>
<path opacity="0.2" fill="#4C48FF" enable-background="new    " d="M386.266,318.144h66.954l-36.191,39.222h-66.595L386.266,318.144
	z"/>
<path opacity="0.2" fill="#4C48FF" enable-background="new    " d="M506.516,163.049h32.097l-17.352,19.083h-31.924L506.516,163.049
	z"/>
<path opacity="0.2" fill="#4C48FF" enable-background="new    " d="M296.343,281.351h37.242l-20.131,22.114h-37.042L296.343,281.351
	z"/>
<path opacity="0.9" fill="#4C48FF" enable-background="new    " d="M362.177,274.451h93.116l-50.334,54.385h-92.615L362.177,274.451
	z"/>
<path opacity="0.2" fill="#4C48FF" enable-background="new    " d="M483.974,221.121h52.114l-28.172,30.743h-51.834L483.974,221.121
	z"/>
<path opacity="0.2" fill="#4C48FF" enable-background="new    " d="M485.995,279.534h32.094l-17.348,19.083h-31.924L485.995,279.534
	z"/>
<path opacity="0.2" fill="#4C48FF" enable-background="new    " d="M306.156,168.332h32.096l-17.35,19.083h-31.923L306.156,168.332z
	"/>
<path opacity="0.2" fill="#4C48FF" enable-background="new    " d="M398.52,190.065h62.125l-33.583,36.575h-61.787L398.52,190.065z"
	/>
<path opacity="0.2" fill="#4C48FF" enable-background="new    " d="M473.857,122.636h54.191l-29.295,31.836h-53.9L473.857,122.636z"
	/>
<path opacity="0.2" fill="#4C48FF" enable-background="new    " d="M285.464,335.721h51.149l-27.65,30.135h-50.875L285.464,335.721z
	"/>
<path opacity="0.9" fill="#4C48FF" enable-background="new    " d="M513.957,209.995H322.663l-50.307,54.385H463.65L513.957,209.995
	z"/>
<path opacity="0.9" fill="#4C48FF" enable-background="new    " d="M382.653,145.539h92.772l-50.104,54.385h-92.844L382.653,145.539
	z"/>
<rect x="17.456" y="208.733" fill="#1EA7FD" width="90.947" height="7.604"/>
<line fill="none" stroke="#BFBFBF" stroke-width="2" stroke-linecap="round" stroke-miterlimit="10" x1="13.565" y1="197.946" x2="67.264" y2="197.946"/>
<line fill="none" stroke="#FFFFFF" stroke-width="2" stroke-linecap="round" stroke-miterlimit="10" x1="28.155" y1="212.537" x2="81.854" y2="212.537"/>
<line fill="none" stroke="#BFBFBF" stroke-width="2" stroke-linecap="round" stroke-miterlimit="10" x1="28.155" y1="227.127" x2="67.264" y2="227.127"/>
<line fill="none" stroke="#BFBFBF" stroke-width="2" stroke-linecap="round" stroke-miterlimit="10" x1="13.565" y1="244.247" x2="89.921" y2="244.247"/>
<line fill="none" stroke="#BFBFBF" stroke-width="2" stroke-linecap="round" stroke-miterlimit="10" x1="13.565" y1="261.366" x2="51.742" y2="261.366"/>
<line fill="none" stroke="#BFBFBF" stroke-width="2" stroke-linecap="round" stroke-miterlimit="10" x1="13.565" y1="278.483" x2="81.167" y2="278.483"/>
<line fill="none" stroke="#BFBFBF" stroke-width="2" stroke-linecap="round" stroke-miterlimit="10" x1="13.565" y1="295.603" x2="104.512" y2="295.603"/>
<line fill="none" stroke="#BFBFBF" stroke-width="2" stroke-linecap="round" stroke-miterlimit="10" x1="13.565" y1="312.722" x2="67.264" y2="312.722"/>
<path fill="none" stroke="#D6D6D6" stroke-miterlimit="10" d="M697.468,443.184c0,1.557-1.261,2.816-2.816,2.816H5.817
	C4.261,446,3,444.74,3,443.184V5.816C3,4.261,4.261,3,5.817,3h688.834c1.556,0,2.816,1.261,2.816,2.816V443.184z"/>
<path fill="#FFFFFF" stroke="#D6D6D6" stroke-miterlimit="10" d="M3,33.959V5.816C3,4.261,4.261,3,5.817,3h688.834
	c1.556,0,2.816,1.261,2.816,2.816v28.143H3z"/>
<circle fill="#FAFDFF" stroke="#D6D6D6" stroke-miterlimit="10" cx="19.044" cy="17.378" r="3.879"/>
<circle fill="#FAFDFF" stroke="#D6D6D6" stroke-miterlimit="10" cx="34.044" cy="17.378" r="3.879"/>
<circle fill="#FAFDFF" stroke="#D6D6D6" stroke-miterlimit="10" cx="49.044" cy="17.378" r="3.879"/>
</svg>
