<?xml version="1.0" encoding="utf-8"?>
<!-- Generator: Adobe Illustrator 16.0.4, SVG Export Plug-In . SVG Version: 6.00 Build 0)  -->
<!DOCTYPE svg PUBLIC "-//W3C//DTD SVG 1.1//EN" "http://www.w3.org/Graphics/SVG/1.1/DTD/svg11.dtd">
<svg version="1.1" id="Layer_1" xmlns="http://www.w3.org/2000/svg" xmlns:xlink="http://www.w3.org/1999/xlink" x="0px" y="0px"
	 width="24px" height="24px" viewBox="244 244 24 24" enable-background="new 244 244 24 24" xml:space="preserve">
<path fill="#7A7A7A" d="M267.937,248.595c-0.879,0.389-1.823,0.653-2.813,0.771c1.011-0.606,1.788-1.566,2.153-2.71
	c-0.946,0.562-1.994,0.969-3.109,1.188c-0.895-0.952-2.167-1.546-3.576-1.546c-2.704,0-4.897,2.193-4.897,4.898
	c0,0.384,0.043,0.757,0.127,1.116c-4.071-0.205-7.68-2.154-10.095-5.118c-0.422,0.723-0.663,1.564-0.663,2.462
	c0,1.699,0.865,3.199,2.179,4.077c-0.803-0.025-1.558-0.246-2.218-0.613c0,0.021,0,0.041,0,0.062c0,2.373,1.688,4.353,3.929,4.802
	c-0.411,0.112-0.844,0.172-1.29,0.172c-0.316,0-0.623-0.031-0.922-0.088c0.624,1.945,2.432,3.362,4.576,3.401
	c-1.677,1.314-3.789,2.097-6.083,2.097c-0.395,0-0.785-0.022-1.168-0.068c2.167,1.39,4.742,2.2,7.508,2.2
	c9.009,0,13.936-7.463,13.936-13.935c0-0.212-0.005-0.424-0.015-0.634C266.449,250.439,267.279,249.577,267.937,248.595z"/>
</svg>
