<svg xmlns="http://www.w3.org/2000/svg" width="24" height="24" viewBox="244 244 24 24"><path fill="#7A7A7A" d="M267.937 248.595a9.809 9.809 0 0 1-2.813.771 4.909 4.909 0 0 0 2.153-2.71 9.769 9.769 0 0 1-3.109 1.188 4.895 4.895 0 0 0-3.576-1.546 4.898 4.898 0 0 0-4.77 6.014 13.903 13.903 0 0 1-10.095-5.118 4.867 4.867 0 0 0-.663 2.462c0 1.699.865 3.199 2.179 4.077a4.868 4.868 0 0 1-2.218-.613v.062a4.9 4.9 0 0 0 3.929 4.802 4.903 4.903 0 0 1-2.212.084 4.904 4.904 0 0 0 4.576 3.401 9.829 9.829 0 0 1-6.083 2.097c-.395 0-.785-.022-1.168-.068a13.859 13.859 0 0 0 7.508 2.2c9.009 0 13.936-7.463 13.936-13.935 0-.212-.005-.424-.015-.634a10.02 10.02 0 0 0 2.441-2.534z"/></svg>