<?xml version="1.0" encoding="utf-8"?>
<!-- Generator: Adobe Illustrator 16.0.4, SVG Export Plug-In . SVG Version: 6.00 Build 0)  -->
<!DOCTYPE svg PUBLIC "-//W3C//DTD SVG 1.1//EN" "http://www.w3.org/Graphics/SVG/1.1/DTD/svg11.dtd">
<svg version="1.1" id="Layer_1" xmlns="http://www.w3.org/2000/svg" xmlns:xlink="http://www.w3.org/1999/xlink" x="0px" y="0px"
	 width="700px" height="450px" viewBox="0 0 700 450" enable-background="new 0 0 700 450" xml:space="preserve">
<g id="Layer_2">
	<path fill="#FFFFFF" d="M0,1h700v450H0V1z"/>
</g>
<g id="Layer_1_1_">
	<g>
		<g>
			<path fill="none" stroke="#D33682" stroke-width="2" stroke-miterlimit="10" d="M337.501,418.091
				c0.001,2.417-1.958,4.378-4.374,4.378c-0.003,0-0.003,0-0.004,0H139.417c-2.417,0.001-4.376-1.954-4.378-4.374
				c0,0,0-0.002,0-0.004V286.75c-0.002-2.417,1.957-4.377,4.373-4.378c0.002,0,0.004,0,0.005,0h193.705
				c2.416-0.001,4.377,1.958,4.378,4.374c0,0.001,0,0.002,0,0.004L337.501,418.091L337.501,418.091z M135.039,299.969h202.462"/>
		</g>
		<circle fill="none" stroke="#D33682" stroke-width="2" stroke-miterlimit="10" cx="144.739" cy="290.719" r="3.385"/>
		<circle fill="none" stroke="#D33682" stroke-width="2" stroke-miterlimit="10" cx="153.763" cy="290.719" r="3.385"/>
		<circle fill="none" stroke="#D33682" stroke-width="2" stroke-miterlimit="10" cx="162.788" cy="290.719" r="3.385"/>
	</g>
	<g>
		<g>
			<path fill="none" stroke="#268BD2" stroke-width="2" stroke-miterlimit="10" d="M651.62,411.846
				c0.001,2.7-2.187,4.889-4.886,4.89h-0.004H430.39c-2.697,0.001-4.888-2.186-4.89-4.884c0-0.004,0-0.004,0-0.006V265.158
				c-0.002-2.701,2.188-4.889,4.884-4.891c0.002,0,0.005,0,0.006,0H646.73c2.698-0.002,4.888,2.186,4.888,4.883
				c0,0.004,0,0.004,0,0.008v146.688H651.62z M425.5,279.92h226.12"/>
		</g>
		<circle fill="none" stroke="#268BD2" stroke-width="2" stroke-miterlimit="10" cx="436.334" cy="269.59" r="3.78"/>
		<circle fill="none" stroke="#268BD2" stroke-width="2" stroke-miterlimit="10" cx="446.413" cy="269.59" r="3.78"/>
		<circle fill="none" stroke="#268BD2" stroke-width="2" stroke-miterlimit="10" cx="456.492" cy="269.59" r="3.78"/>
	</g>
	<g>
		<g>
			<path fill="none" stroke="#CC4A14" stroke-width="2" stroke-miterlimit="10" d="M653.086,205.571
				c0.001,2.722-2.204,4.928-4.923,4.929c-0.003,0-0.005,0-0.007,0H430.042c-2.722,0.002-4.928-2.203-4.93-4.924
				c0-0.002,0-0.004,0-0.005V57.68c-0.002-2.723,2.203-4.928,4.925-4.93c0.002,0,0.004,0,0.005,0h218.113
				c2.722-0.002,4.929,2.203,4.93,4.924c0,0.002,0,0.004,0,0.005L653.086,205.571L653.086,205.571z M425.112,72.564h227.974"/>
		</g>
		<circle fill="none" stroke="#CC4A14" stroke-width="2" stroke-miterlimit="10" cx="436.035" cy="62.149" r="3.811"/>
		<circle fill="none" stroke="#CC4A14" stroke-width="2" stroke-miterlimit="10" cx="446.196" cy="62.149" r="3.811"/>
		<circle fill="none" stroke="#CC4A14" stroke-width="2" stroke-miterlimit="10" cx="456.357" cy="62.149" r="3.811"/>
	</g>
	<g>
		<g>
			<path fill="none" stroke="#6D70C4" stroke-width="2" stroke-miterlimit="10" d="M379.385,207.152
				c0.001,3.267-2.646,5.917-5.91,5.917c-0.004,0-0.007,0-0.009,0h-261.81c-3.267,0.002-5.916-2.644-5.917-5.912
				c0-0.001,0-0.003,0-0.005V29.633c-0.002-3.267,2.645-5.916,5.91-5.917c0.002,0,0.005,0,0.007,0h261.81
				c3.268-0.002,5.915,2.645,5.917,5.911c0,0.003,0,0.004,0,0.006v177.519H379.385z M105.739,47.5h273.646"/>
		</g>
		<circle fill="none" stroke="#6D70C4" stroke-width="2" stroke-miterlimit="10" cx="118.85" cy="34.998" r="4.574"/>
		<circle fill="none" stroke="#6D70C4" stroke-width="2" stroke-miterlimit="10" cx="131.047" cy="34.998" r="4.574"/>
		<circle fill="none" stroke="#6D70C4" stroke-width="2" stroke-miterlimit="10" cx="143.244" cy="34.998" r="4.574"/>
	</g>
	<g>
		<g>
			<path fill="none" stroke="#B68800" stroke-width="2" stroke-miterlimit="10" d="M299.822,320.055
				c0.001,3.084-2.498,5.586-5.579,5.586c-0.003,0-0.005,0-0.008,0H47.12c-3.083,0.002-5.583-2.494-5.585-5.58
				c0-0.002,0-0.004,0-0.006V152.5c-0.001-3.084,2.497-5.583,5.579-5.585c0.002,0,0.004,0,0.006,0h247.115
				c3.083-0.002,5.583,2.496,5.585,5.58c0,0.002,0,0.003,0,0.006v167.556h0.002V320.055z M41.535,169.363h258.287"/>
		</g>
		<circle fill="none" stroke="#B68800" stroke-width="2" stroke-miterlimit="10" cx="53.911" cy="157.563" r="4.318"/>
		<circle fill="none" stroke="#B68800" stroke-width="2" stroke-miterlimit="10" cx="65.423" cy="157.563" r="4.318"/>
		<circle fill="none" stroke="#B68800" stroke-width="2" stroke-miterlimit="10" cx="76.935" cy="157.563" r="4.318"/>
	</g>
	<g>
		<g>
			<path fill="none" stroke="#667B82" stroke-width="2" stroke-miterlimit="10" d="M628.622,381.938
				c0.001,3.78-3.062,6.846-6.84,6.848c-0.002,0-0.007,0-0.009,0H318.855c-3.78,0.003-6.846-3.061-6.847-6.84
				c0-0.004,0-0.006,0-0.008V176.546c-0.002-3.781,3.062-6.844,6.837-6.847c0.002,0,0.006,0,0.01,0h302.916
				c3.78-0.001,6.848,3.06,6.849,6.839c0,0.002,0,0.005,0,0.007v205.393H628.622L628.622,381.938z M312.009,197.216h316.613"/>
		</g>
		<circle fill="none" stroke="#667B82" stroke-width="2" stroke-miterlimit="10" cx="327.179" cy="182.753" r="5.293"/>
		<circle fill="none" stroke="#667B82" stroke-width="2" stroke-miterlimit="10" cx="341.29" cy="182.753" r="5.293"/>
		<circle fill="none" stroke="#667B82" stroke-width="2" stroke-miterlimit="10" cx="355.403" cy="182.753" r="5.293"/>
	</g>
	<g>
		<g>
			<path fill="none" stroke="#2EA197" stroke-width="2" stroke-miterlimit="10" d="M544.822,335.118
				c0.001,4.403-3.566,7.975-7.969,7.978c-0.005,0-0.008,0-0.011,0H183.86c-4.404,0.002-7.975-3.563-7.977-7.97
				c0-0.003,0-0.006,0-0.008V95.78c-0.002-4.405,3.565-7.977,7.97-7.979c0.002,0,0.004,0,0.007,0h352.981
				c4.403-0.002,7.976,3.566,7.979,7.97c0,0.003,0,0.005,0,0.009v239.338H544.822L544.822,335.118z M175.883,119.867h368.939"/>
		</g>
		<circle fill="none" stroke="#2EA197" stroke-width="2" stroke-miterlimit="10" cx="193.561" cy="103.012" r="6.167"/>
		<circle fill="none" stroke="#2EA197" stroke-width="2" stroke-miterlimit="10" cx="210.004" cy="103.012" r="6.167"/>
		<circle fill="none" stroke="#2EA197" stroke-width="2" stroke-miterlimit="10" cx="226.448" cy="103.012" r="6.167"/>
	</g>
</g>
</svg>
