<?xml version="1.0" encoding="utf-8"?>
<!-- Generator: Adobe Illustrator 16.0.4, SVG Export Plug-In . SVG Version: 6.00 Build 0)  -->
<!DOCTYPE svg PUBLIC "-//W3C//DTD SVG 1.1//EN" "http://www.w3.org/Graphics/SVG/1.1/DTD/svg11.dtd">
<svg version="1.1" id="Layer_1" xmlns="http://www.w3.org/2000/svg" xmlns:xlink="http://www.w3.org/1999/xlink" x="0px" y="0px"
	 width="700px" height="450px" viewBox="0 0 700 450" enable-background="new 0 0 700 450" xml:space="preserve">
<path fill="#F0E7D4" d="M0,0h700v450H0V0z"/>
<path fill="#B68800" d="M356.345,788.233h23.562v-4.05h-29.634v4.05h5.89H356.345z"/>
<path fill="#93A1A1" d="M391.54,784.184h6.075v4.05h-6.074L391.54,784.184z"/>
<path fill="#869900" d="M373.906,795.493v4.05h53.197v-4.05h-47.306H373.906z"/>
<path fill="#2EA197" d="M444.811,799.543h41.232v-4.049H438.74v4.049h5.89H444.811z"/>
<path fill="#93A1A1" d="M350.27,806.801h6.075v4.051h-6.073L350.27,806.801z"/>
<path fill="#B68800" d="M356.345,833.47h11.782v-4.05h-17.854v4.05h5.89H356.345z M385.834,833.47h11.782v-4.05H379.76v4.05h5.891
	H385.834z M415.322,833.47h11.779v-4.05h-17.856v4.05h5.89H415.322z M444.811,833.47h11.783v-4.05H438.74v4.05h5.89H444.811z
	 M480.006,829.42h-11.781v4.05h17.853v-4.05h-5.89H480.006z M503.787,833.47h11.781v-4.05h-17.854v4.05h5.89H503.787z
	 M533.275,833.47h5.89v-4.05h-11.963v4.05h5.89H533.275z M556.873,833.47h11.781v-4.05H550.8v4.05h5.89H556.873z M586.36,833.47
	h17.672v-4.05h-23.744v4.05h5.89H586.36z M621.74,833.47h17.672v-4.05H615.67v4.05h5.891H621.74z"/>
<path fill="#93A1A1" d="M651.045,829.42h6.074v4.05h-6.075L651.045,829.42z"/>
<path fill="#869900" d="M426.918,840.729h-53.011v4.05h135.659v-4.05h-82.461H426.918z"/>
<path fill="#2EA197" d="M527.275,844.779h64.794v-4.05H521.2v4.05h5.89H527.275z"/>
<path fill="#93A1A1" d="M350.27,852.039h6.075v4.051h-6.073L350.27,852.039z"/>
<path fill="#B68800" d="M356.345,878.709h5.89v-4.05h-11.963v4.05h5.891H356.345z"/>
<path fill="#93A1A1" d="M373.87,874.659h6.073v4.05h-6.074L373.87,874.659z"/>
<path fill="#869900" d="M373.906,885.968v4.05h59.088v-4.05h-53.197H373.906z"/>
<path fill="#2EA197" d="M474.078,885.968H444.63v4.05h35.522v-4.05h-5.889H474.078z"/>
<path fill="#869900" d="M379.98,901.327h82.463v-4.05h-88.538v4.05h5.89H379.98z"/>
<path fill="#2EA197" d="M515.494,897.277h-41.419v4.05h41.417L515.494,897.277z"/>
<path fill="#93A1A1" d="M350.27,908.586h6.075v4.051h-6.073L350.27,908.586z"/>
<path fill="#B68800" d="M681.646,912.552h94.243v-4.05H675.57v4.05h5.89H681.646z M793.6,912.552h29.449v-4.05h-35.527v4.05h5.891
	H793.6z"/>
<path fill="#93A1A1" d="M834.684,908.502h6.074v4.05h-6.074V908.502z"/>
<path fill="#869900" d="M705.28,923.861h29.454v-4.05H699.21v4.05h5.89H705.28z"/>
<path fill="#6D70C4" d="M769.928,919.812h-23.56v4.05h29.639v-4.05h-5.89H769.928z"/>
<path fill="#869900" d="M699.207,935.17h76.756v-4.051h-76.755L699.207,935.17z"/>
<path fill="#268BD2" d="M793.672,935.17h29.45v-4.051h-35.527v4.051h5.891H793.672z"/>
<path fill="#869900" d="M699.207,946.479h82.648v-4.05h-82.647L699.207,946.479z"/>
<path fill="#268BD2" d="M799.562,946.479h29.447v-4.05h-35.523v4.05h5.89H799.562z"/>
<path fill="#93A1A1" d="M675.572,953.739h6.074v4.05h-6.074V953.739z"/>
<path fill="#B68800" d="M44.08,545.903h4.926v-3.386H39v3.386h4.926H44.08z M73.698,545.903h14.779v-3.386H68.618v3.386h4.926
	H73.698z M103.286,545.903h14.779v-3.386H98.208v3.386h4.925H103.286z M142.755,545.903h4.927v-3.386h-10.007v3.386h4.927H142.755z
	 M44.08,555.361h44.334v-3.387H39v3.387h4.926H44.08z M98.144,551.975h5.08v3.387h-5.08V551.975z"/>
<path fill="#869900" d="M88.322,561.433H58.766v3.386h83.898v-3.387H88.48L88.322,561.433z"/>
<path fill="#2EA197" d="M157.472,564.819H305.25v-3.387H152.39v3.386h4.926L157.472,564.819z"/>
<path fill="#869900" d="M93.25,570.892H58.766v3.386h39.561v-3.386h-4.925H93.25z"/>
<path fill="#2EA197" d="M132.688,570.892h-24.631v3.386h29.71v-3.386h-4.926H132.688z"/>
<path fill="#869900" d="M58.766,583.735h29.711v-3.386H58.766V583.735z"/>
<path fill="#2EA197" d="M103.286,580.35h-5.079v3.386h29.711v-3.386h-19.86H103.286z"/>
<path fill="#869900" d="M58.766,593.194h34.636v-3.385H58.766V593.194z"/>
<path fill="#6D70C4" d="M113.138,593.194v-3.385h-10.006v3.385h5.08H113.138z"/>
<path fill="#869900" d="M58.766,602.653h34.636v-3.387H58.766V602.653z"/>
<path fill="#6D70C4" d="M103.13,599.267h5.08v3.387h-5.08V599.267z M117.94,599.267h5.08v3.387h-5.08V599.267z M132.75,599.267h5.08
	v3.387h-5.08V599.267z"/>
<path fill="#2EA197" d="M167.262,599.267H147.56v3.387h24.78v-3.387h-4.926H167.262z"/>
<path fill="#869900" d="M58.766,612.109h44.487v-3.386H58.765L58.766,612.109z"/>
<path fill="#2EA197" d="M142.54,608.724h-29.558v3.385h34.638v-3.386h-4.926L142.54,608.724z"/>
<path fill="#869900" d="M58.766,621.567h59.268v-3.385H58.767L58.766,621.567z"/>
<path fill="#2EA197" d="M132.842,621.567h19.704v-3.385h-24.784v3.385h4.926H132.842z"/>
<path fill="#869900" d="M58.766,631.026h29.711v-3.387H58.766V631.026z"/>
<path fill="#2EA197" d="M112.983,631.026h10.007v-3.387H98.207v3.387h10.006H112.983z"/>
<path fill="#93A1A1" d="M39,637.098h5.08v3.387H39V637.098z"/>
<path fill="#B68800" d="M44.08,649.943h24.63v-3.388H39v3.388h4.926H44.08z M103.07,646.556H78.44v3.388h29.71v-3.388h-4.926H103.07
	z M127.885,649.943h4.926v-3.388H117.88v3.388h9.849H127.885z M191.8,646.556h-49.26v3.388h54.339v-3.388h-4.925H191.8z
	 M211.689,649.943h24.631v-3.388h-29.711v3.388h4.927H211.689z"/>
<path fill="#93A1A1" d="M246.05,646.556h5.08v3.388h-5.08V646.556z"/>
<path fill="#D33682" d="M68.618,659.399h39.562v-3.386H58.767v3.386h5.08H68.618z"/>
<path fill="#93A1A1" d="M117.91,656.014h5.08v3.386h-5.08V656.014z"/>
<path fill="#869900" d="M83.612,668.859h34.481v-3.387H78.53v3.386h4.926L83.612,668.859z"/>
<path fill="#2EA197" d="M132.903,668.859h19.704v-3.387h-24.784v3.386h4.927L132.903,668.859z"/>
<path fill="#93A1A1" d="M58.766,674.93h5.08v3.387h-5.08V674.93z M39,684.39h5.08v3.385H39V684.39z"/>
<path fill="#B68800" d="M44.08,706.689h39.41v-3.386H39v3.386h4.926H44.08z"/>
<path fill="#93A1A1" d="M93.218,703.304h5.08v3.386h-5.08V703.304z"/>
<path fill="#869900" d="M78.624,712.763H58.766v3.386h74.044v-3.387H83.398L78.624,712.763z"/>
<path fill="#2EA197" d="M196.88,712.763h-54.34v3.386h54.339L196.88,712.763z"/>
<path fill="#93A1A1" d="M39,722.22h5.08v3.388H39V722.22z"/>
<path fill="#B68800" d="M44.08,735.065h39.41v-3.387H39v3.386h4.926L44.08,735.065z M98.144,731.68h-4.926v3.386h10.006v-3.387
	h-4.926L98.144,731.68z M112.953,731.68h5.08v3.386h-5.08V731.68z"/>
<path fill="#93A1A1" d="M127.762,731.68h5.08v3.386h-5.08V731.68z"/>
<path fill="#869900" d="M78.624,741.137H58.766v3.388h69.118v-3.388H83.395H78.624z"/>
<path fill="#6D70C4" d="M147.466,741.137h-9.852v3.388h14.932v-3.388h-4.926H147.466z M187.06,744.524v-3.388h-24.785v3.388h19.86
	H187.06z M201.714,741.137h-4.926v3.388h59.264v-3.388H201.87H201.714z"/>
<path fill="#869900" d="M58.766,753.981h49.414v-3.386H58.767L58.766,753.981z"/>
<path fill="#2EA197" d="M122.99,750.596h-5.08v3.386h24.783v-3.386h-14.931H122.99z"/>
<path fill="#869900" d="M58.766,763.439h59.268v-3.387H58.767L58.766,763.439z"/>
<path fill="#6D70C4" d="M132.842,763.439h29.556v-3.387h-34.636v3.387h4.926H132.842z M182.133,763.439v-3.387h-10.006v3.387h5.081
	H182.133z M201.714,760.053h-9.852v3.387h14.931v-3.387h-4.925H201.714z"/>
<path fill="#CC4A14" d="M226.53,760.053h-10.009v3.387h10.004L226.53,760.053z"/>
<path fill="#6D70C4" d="M300.452,760.053H236.26v3.387h103.596v-3.387h-34.635H300.452z"/>
<path fill="#B68800" d="M44.08,772.897h64.038v-3.388H39v3.389h4.926L44.08,772.897z"/>
<path fill="#869900" d="M63.846,782.355h24.631v-3.387H58.766v3.387h4.926H63.846z"/>
<path fill="#2EA197" d="M103.286,778.97h-5.079v3.386h39.563v-3.387h-29.71L103.286,778.97z"/>
<path fill="#869900" d="M58.766,791.813h74.044v-3.388H58.767L58.766,791.813z"/>
<path fill="#2EA197" d="M177.176,791.813v-3.388H142.54v3.388h29.71H177.176z"/>
<path fill="#869900" d="M58.766,801.272h39.561v-3.387H58.765L58.766,801.272z"/>
<path fill="#6D70C4" d="M122.836,797.886h-14.778v3.387h19.857v-3.387h-4.925H122.836z M137.645,801.272h10.007v-3.387h-10.005
	L137.645,801.272z"/>
<path fill="#93A1A1" d="M39,807.342h5.08v3.388H39V807.342z"/>
<path fill="#B68800" d="M44.08,820.188h39.41v-3.387H39v3.388h4.926L44.08,820.188z M103.224,820.188v-3.387H93.218v3.388h5.08
	L103.224,820.188z M132.81,816.799h-19.856v3.389h34.634v-3.387H137.58L132.81,816.799z"/>
<path fill="#93A1A1" d="M157.318,816.799h5.08v3.389h-5.08V816.799z"/>
<path fill="#869900" d="M78.624,826.26H58.766v3.386h29.711v-3.388h-5.081L78.624,826.26z"/>
<path fill="#2EA197" d="M103.286,829.646h34.482v-3.388H98.207v3.387h4.925L103.286,829.646z"/>
<path fill="#869900" d="M58.766,839.104h64.194v-3.388H58.766V839.104z"/>
<path fill="#2EA197" d="M152.546,835.717h-19.858v3.388h39.562v-3.388h-14.932H152.546z"/>
<path fill="#93A1A1" d="M39,845.177h5.08v3.386H39V845.177z"/>
<path fill="#B68800" d="M353.788,542.5h39.407v-3.391h-44.488v3.387h4.926L353.788,542.5z M407.852,539.111h-4.926v3.387h10.006
	v-3.389h-4.926L407.852,539.111z M432.512,539.111h-9.852v3.387h83.896v-3.389H432.67L432.512,539.111z"/>
<path fill="#93A1A1" d="M516.285,539.111h5.08v3.387h-5.08V539.111z"/>
<path fill="#869900" d="M388.332,548.569H368.47v3.388h69.114v-3.388H393.1H388.332z"/>
<path fill="#6D70C4" d="M481.958,548.569h-34.635v3.388h34.637L481.958,548.569z M496.613,548.569h-4.926v3.388h10.006v-3.388
	h-4.926H496.613z M526.354,548.569h-14.932v3.388h14.932V548.569z M546.09,548.569h-10.008v3.388h10.008V548.569z M659.266,548.569
	H555.818v3.388h108.525v-3.388h-4.926H659.266z"/>
<path fill="#D33682" d="M353.788,561.414h73.89v-3.385h-78.973v3.385h4.926H353.788z"/>
<path fill="#869900" d="M422.814,567.485h-54.347v3.388h64.188v-3.388h-5.08H422.814z"/>
<path fill="#2EA197" d="M476.877,567.485h-34.48v3.388h39.563v-3.388h-4.927H476.877z"/>
<path fill="#93A1A1" d="M348.708,576.944h5.08v3.388h-5.08V576.944z"/>
<path fill="#B68800" d="M353.788,599.246h54.187v-3.387h-59.269v3.387h4.926H353.788z M437.408,595.859h-19.705v3.387h93.747v-3.387
	h-73.886H437.408z"/>
<path fill="#93A1A1" d="M521.182,595.859h5.08v3.387h-5.08V595.859z"/>
<path fill="#869900" d="M393.104,605.319H368.47v3.386h29.712v-3.386h-4.926H393.104z"/>
<path fill="#2EA197" d="M407.913,608.705h39.562v-3.386h-39.562L407.913,608.705z"/>
<path fill="#93A1A1" d="M348.708,614.776h5.08v3.388h-5.08V614.776z"/>
<path fill="#B68800" d="M353.788,627.621h83.742v-3.387h-88.823v3.387h4.926H353.788z"/>
<path fill="#D33682" d="M541.01,624.234h-93.75v3.387h93.748L541.01,624.234z"/>
<path fill="#93A1A1" d="M550.738,624.234h5.08v3.387h-5.08V624.234z"/>
<path fill="#869900" d="M393.104,633.692H368.47v3.388h29.712v-3.387h-4.926L393.104,633.692z"/>
<path fill="#2EA197" d="M432.697,633.692h-24.783v3.388h39.561v-3.387h-10.008L432.697,633.692z"/>
<path fill="#93A1A1" d="M348.708,643.149h5.08v3.388h-5.08V643.149z"/>
<path fill="#B68800" d="M353.788,655.996h54.187v-3.387h-59.269v3.387h4.926H353.788z M422.783,655.996h98.519v-3.387H417.703v3.387
	h4.926H422.783z M353.788,665.453h54.187v-3.387h-59.269v3.387h4.926H353.788z M417.703,665.453h88.82v-3.387h-88.82V665.453z"/>
<path fill="#93A1A1" d="M516.256,662.066h5.08v3.387h-5.08V662.066z"/>
<path fill="#869900" d="M373.553,674.912h24.631v-3.388H368.47v3.388h4.927H373.553z"/>
<path fill="#2EA197" d="M407.913,674.912h39.562v-3.388h-39.562L407.913,674.912z"/>
<path fill="#869900" d="M368.473,684.369h59.262v-3.387h-59.267L368.473,684.369z"/>
<path fill="#6D70C4" d="M447.32,680.982h-9.851v3.387h34.636v-3.387h-24.629H447.32z M491.84,684.369v-3.387h-10.005v3.387h5.08
	H491.84z M511.422,684.369h5.08v-3.387H501.57v3.387h5.08H511.422z M531.156,680.982h-4.924v3.387h10.004v-3.387h-4.924H531.156z
	 M644.486,680.982h-98.52v3.387h103.598v-3.387h-4.924H644.486z"/>
<path fill="#B68800" d="M353.788,693.828H412.9v-3.389h-64.194v3.389h4.926H353.788z M432.636,690.439H422.63v3.389h54.34v-3.389
	h-39.56H432.636z"/>
<path fill="#869900" d="M408.035,699.899H368.47v3.388h49.412v-3.389h-5.073L408.035,699.899z"/>
<path fill="#2EA197" d="M432.697,703.287H452.4v-3.389h-24.783v3.387h4.926L432.697,703.287z"/>
<path fill="#869900" d="M368.473,712.744h74.041v-3.387h-74.047L368.473,712.744z"/>
<path fill="#2EA197" d="M481.804,709.357H452.25v3.387h34.637v-3.387h-4.926H481.804z"/>
<path fill="#869900" d="M368.473,722.199h59.262v-3.385h-59.267L368.473,722.199z"/>
<path fill="#2EA197" d="M437.47,718.814v3.386h19.857v-3.385h-14.931L437.47,718.814z"/>
<path fill="#869900" d="M368.473,731.659h69.114v-3.387h-69.124L368.473,731.659z"/>
<path fill="#CC4A14" d="M452.4,731.659h4.927v-3.387h-10.005v3.387h4.928H452.4z"/>
<path fill="#869900" d="M368.473,741.119h74.041v-3.39h-74.047L368.473,741.119z"/>
<path fill="#2EA197" d="M491.81,741.119h14.778v-3.39h-54.34v3.39h39.409H491.81z"/>
<path fill="#869900" d="M368.473,750.576h113.451v-3.386H368.47L368.473,750.576z"/>
<path fill="#2EA197" d="M545.842,747.189h-54.188v3.387h59.266v-3.386h-4.924L545.842,747.189z"/>
<path fill="#93A1A1" d="M348.708,756.646h5.08v3.387h-5.08V756.646z"/>
<path fill="#B68800" d="M680.16,546.025h54.187v-3.386H675.08v3.386h4.928H680.16z M872.154,542.64H744.082v3.386h133.156v-3.386
	h-4.926H872.154z M680.16,555.483h54.187v-3.387H675.08v3.387h4.928H680.16z M749.156,555.483H867.39v-3.387H744.083v3.387h4.924
	H749.156z M680.16,564.939h54.187v-3.386H675.08v3.386h4.928H680.16z M867.23,564.939h10.002v-3.386H744.08v3.386h118.383H867.23z
	 M680.16,574.399h54.187v-3.39H675.08v3.387h4.928L680.16,574.399z M778.713,574.399h83.747v-3.39H744.083v3.387h34.479
	L778.713,574.399z"/>
<path fill="#93A1A1" d="M872.186,571.012h5.08v3.387h-5.08V571.012z"/>
<path fill="#869900" d="M719.477,580.47h-24.631v3.387h29.71v-3.387h-4.926H719.477z"/>
<path fill="#6D70C4" d="M734.287,583.856h39.561v-3.387h-39.563L734.287,583.856z"/>
<path fill="#93A1A1" d="M675.08,589.93h5.08v3.387h-5.08V589.93z"/>
<path fill="#B68800" d="M680.16,612.229h88.667v-3.385h-93.749v3.386h4.928L680.16,612.229z M906.637,608.845H778.562v3.386H911.72
	v-3.385h-4.926L906.637,608.845z M680.16,621.689h88.667v-3.387h-93.749v3.387h4.928H680.16z M783.64,621.689h118.226v-3.387
	H778.561v3.387h4.924H783.64z M680.16,631.147h88.667v-3.388h-93.749v3.389h4.928L680.16,631.147z M901.71,631.147h10.008v-3.388
	H778.562v3.389h118.381L901.71,631.147z M680.16,640.604h88.667v-3.388h-93.749v3.388h4.928H680.16z M867.383,640.604h29.555v-3.388
	H778.561v3.388h88.672H867.383z"/>
<path fill="#93A1A1" d="M906.668,637.217h5.08v3.388h-5.08V637.217z"/>
<path fill="#869900" d="M719.477,646.676h-24.631v3.388h29.71v-3.388h-4.926H719.477z"/>
<path fill="#6D70C4" d="M763.996,646.676h-29.71v3.388h39.562v-3.388h-5.08H763.996z"/>
<path fill="#93A1A1" d="M675.08,656.135h5.08v3.387h-5.08V656.135z"/>
<path fill="#B68800" d="M680.16,678.437h64.038v-3.388h-69.12v3.388h4.928H680.16z"/>
<path fill="#93A1A1" d="M753.93,675.049h5.08v3.387h-5.08V675.049z"/>
<path fill="#869900" d="M734.256,684.508h-39.41v3.387h44.489v-3.387h-4.926H734.256z"/>
<path fill="#2EA197" d="M788.473,684.508h-39.406v3.387h44.489v-3.387h-4.926H788.473z"/>
<path fill="#869900" d="M694.846,697.354h19.857v-3.389h-19.859L694.846,697.354z"/>
<path fill="#2EA197" d="M739.213,693.965h-14.781v3.389h19.857v-3.389h-4.926H739.213z"/>
<path fill="#869900" d="M694.846,706.812h24.783v-3.386h-24.784L694.846,706.812z"/>
<path fill="#2EA197" d="M734.439,706.812h14.778v-3.386h-19.862v3.386h4.927H734.439z"/>
<path fill="#869900" d="M694.846,716.27h10.008v-3.389h-10.008V716.27z"/>
<path fill="#2EA197" d="M724.588,712.881h-10.006v3.388h29.71v-3.388h-14.935H724.588z M773.725,712.881H754.02v3.388h24.785v-3.388
	h-4.928H773.725z"/>
<path fill="#CC4A14" d="M798.54,712.881h-10.004v3.388h10.006L798.54,712.881z"/>
<path fill="#869900" d="M694.846,725.727h29.71v-3.387h-29.709L694.846,725.727z"/>
<path fill="#2EA197" d="M739.367,725.727h24.627v-3.387h-29.71v3.387h4.926H739.367z"/>
<path fill="#869900" d="M694.846,735.186h49.414v-3.387h-49.414V735.186z"/>
<path fill="#6D70C4" d="M778.62,731.799h-24.63v3.387h29.71v-3.387h-4.925H778.62z"/>
<path fill="#869900" d="M694.846,744.644h39.563v-3.388h-39.563V744.644z"/>
<path fill="#2EA197" d="M744.14,744.644h24.783v-3.388H744.14V744.644z"/>
<path fill="#869900" d="M694.846,754.1h54.342v-3.387h-54.342V754.1z"/>
<path fill="#2EA197" d="M763.996,754.1h24.632v-3.387h-29.709v3.388h4.928L763.996,754.1z"/>
<path fill="#869900" d="M694.846,763.56h93.75v-3.388h-93.751L694.846,763.56z"/>
<path fill="#2EA197" d="M808.178,763.56h5.08v-3.388h-14.932v3.388h5.08H808.178z M828.066,763.56h9.852v-3.388h-14.932v3.388h4.926
	H828.066z M852.727,763.56h9.854v-3.388h-14.934v3.388h4.928H852.727z"/>
<path fill="#6D70C4" d="M951.127,760.172h-78.816v3.388h83.893v-3.388h-4.926H951.127z"/>
<path fill="#869900" d="M694.846,773.017h78.973v-3.386h-78.974L694.846,773.017z"/>
<path fill="#2EA197" d="M793.4,769.629h-9.854v3.388h14.934v-3.386h-4.928L793.4,769.629z M818.061,769.629h-9.851v3.388h14.93
	v-3.386h-4.925L818.061,769.629z M837.95,773.017h9.853v-3.386h-14.935v3.387h4.925L837.95,773.017z M936.348,769.629H857.53v3.388
	h83.896v-3.386H936.5L936.348,769.629z"/>
<path fill="#869900" d="M694.846,782.476h54.342v-3.388h-54.342V782.476z"/>
<path fill="#2EA197" d="M768.77,779.09h-9.854v3.386h14.934v-3.388h-4.926L768.77,779.09z M793.43,779.09h-9.852v3.386h14.932
	v-3.388h-4.926L793.43,779.09z M823.172,782.476v-3.388h-14.934v3.387h10.008L823.172,782.476z"/>
<path fill="#6D70C4" d="M911.717,779.09H832.9v3.386h83.895v-3.388h-4.926L911.717,779.09z"/>
<path fill="#869900" d="M694.846,791.933h108.527v-3.388H694.846V791.933z"/>
<path fill="#2EA197" d="M813.104,788.545h5.08v3.388h-5.08V788.545z M827.912,788.545h5.08v3.388h-5.08V788.545z M847.803,791.933
	h9.852v-3.388h-14.932v3.388h4.924H847.803z M882.16,788.545h-14.778v3.388h19.855v-3.388h-4.927H882.16z"/>
<path fill="#869900" d="M788.596,798.004h-93.751v3.388h93.751V798.004z"/>
<path fill="#2EA197" d="M798.326,798.004h5.08v3.388h-5.08V798.004z M813.135,798.004h5.08v3.388h-5.08V798.004z M837.795,798.004
	h-9.854v3.388h14.931v-3.388h-4.926H837.795z"/>
<path fill="#CC4A14" d="M867.383,798.004h-14.777v3.388h19.857v-3.388h-4.926H867.383z"/>
<path fill="#869900" d="M778.59,807.463h-83.745v3.387h88.825v-3.387h-4.926H778.59z"/>
<path fill="#2EA197" d="M793.4,807.463h5.08v3.387h-5.08V807.463z M808.21,807.463h5.077v3.387h-5.078L808.21,807.463z
	 M828.098,810.85h9.853v-3.387h-14.933v3.387h4.925H828.098z M862.457,807.463H847.68v3.387h19.857v-3.387h-4.928H862.457z"/>
<path fill="#869900" d="M778.744,820.308v-3.388h-83.899v3.389h78.974L778.744,820.308z"/>
<path fill="#2EA197" d="M788.473,816.92h5.08v3.388h-5.08V816.92z M803.28,816.92h5.08v3.388h-5.08V816.92z M833.023,820.308v-3.388
	h-14.932v3.389h10.006L833.023,820.308z"/>
<path fill="#CC4A14" d="M857.53,816.92h-14.778v3.388h19.858v-3.388h-4.925H857.53z"/>
<path fill="#869900" d="M739.182,829.765h24.784v-3.388h-69.119v3.388h39.563H739.182z"/>
<path fill="#2EA197" d="M773.695,826.377h5.08v3.388h-5.08V826.377z M788.504,826.377h5.08v3.388h-5.08V826.377z M813.166,826.377
	h-9.854v3.388h14.934v-3.388h-4.928H813.166z M842.752,826.377h-14.777v3.388h19.857v-3.388h-4.926H842.752z"/>
<path fill="#869900" d="M729.33,835.836h-34.484v3.387h39.563v-3.387h-4.929H729.33z"/>
<path fill="#2EA197" d="M763.844,839.223h5.08v-3.387H744.14v3.387h14.929H763.844z"/>
<path fill="#93A1A1" d="M675.08,845.295h5.08v3.387h-5.08V845.295z"/>
<path fill="#D33682" d="M744.2,854.752h-69.122v3.388h69.12L744.2,854.752z"/>
<path fill="#93A1A1" d="M753.93,854.752h5.08v3.388h-5.08V854.752z M768.738,854.752h5.08v3.388h-5.08V854.752z"/>
<path fill="#869900" d="M729.33,864.209h-34.484v3.388h39.563v-3.386h-4.929L729.33,864.209z"/>
<path fill="#2EA197" d="M768.77,864.209h-24.63v3.388h29.708v-3.386h-4.926L768.77,864.209z"/>
<path fill="#869900" d="M729.33,873.67h-34.484v3.385h39.563v-3.387h-4.929L729.33,873.67z"/>
<path fill="#2EA197" d="M763.844,873.67H744.14v3.385h24.783v-3.387h-4.928L763.844,873.67z"/>
<path fill="#93A1A1" d="M675.08,883.127h5.08v3.388h-5.08V883.127z"/>
<path fill="#B68800" d="M44.208,872.42h64.042v-3.386H39.13v3.386h4.927H44.208z"/>
<path fill="#93A1A1" d="M117.977,869.034h5.08v3.388h-5.08V869.034z"/>
<path fill="#869900" d="M98.303,878.493H58.897v3.386h44.487v-3.386h-4.926H98.303z"/>
<path fill="#2EA197" d="M152.52,878.493h-39.406v3.386H157.6v-3.386h-4.926H152.52z"/>
<path fill="#869900" d="M58.894,891.34h19.861v-3.391H58.898L58.894,891.34z"/>
<path fill="#2EA197" d="M103.26,887.949H88.482v3.391h19.858v-3.391h-4.925H103.26z"/>
<path fill="#869900" d="M58.894,900.795H83.68v-3.384H58.894V900.795z"/>
<path fill="#2EA197" d="M98.488,900.795h14.778v-3.384H93.408v3.384h4.926H98.488z"/>
<path fill="#869900" d="M58.894,910.252h10.008v-3.386H58.896L58.894,910.252z"/>
<path fill="#2EA197" d="M88.635,906.866H78.63v3.386h29.71v-3.386H93.408H88.635z M137.773,906.866H118.07v3.386h24.784v-3.386
	h-4.927H137.773z"/>
<path fill="#CC4A14" d="M162.588,906.866h-10.005v3.386h10.005V906.866z"/>
<path fill="#869900" d="M58.894,919.711h29.711v-3.386H58.894V919.711z"/>
<path fill="#2EA197" d="M103.415,919.711h24.628v-3.386h-29.71v3.386h4.926H103.415z"/>
<path fill="#869900" d="M58.894,929.17h49.416v-3.386H58.897L58.894,929.17z"/>
<path fill="#6D70C4" d="M142.668,925.784H118.04v3.386h29.71v-3.385h-4.927L142.668,925.784z"/>
<path fill="#869900" d="M58.894,938.627H98.46v-3.386H58.899L58.894,938.627z"/>
<path fill="#2EA197" d="M108.186,938.627h24.784v-3.386h-24.783L108.186,938.627z"/>
<path fill="#869900" d="M58.894,948.086h54.342v-3.388H58.898L58.894,948.086z"/>
<path fill="#2EA197" d="M128.044,948.086h24.63v-3.388h-29.709v3.386h4.927L128.044,948.086z"/>
<path fill="#869900" d="M58.894,957.543h93.751v-3.386H58.898L58.894,957.543z"/>
<path fill="#2EA197" d="M172.225,957.543h5.079v-3.386h-14.931v3.386h5.08H172.225z M192.115,957.543h9.852v-3.386h-14.932v3.386
	h4.926H192.115z M216.775,957.543h9.852v-3.386h-14.932v3.386h4.927H216.775z"/>
<path fill="#6D70C4" d="M315.174,954.157h-78.814v3.386h83.895v-3.386h-4.925H315.174z"/>
<path fill="#869900" d="M58.894,967.002h78.973v-3.386h-78.97L58.894,967.002z"/>
<path fill="#2EA197" d="M157.448,963.616h-9.854v3.386h14.936v-3.386h-4.93H157.448z M182.11,963.616h-9.854v3.386h14.931v-3.386
	h-4.926H182.11z M201.997,967.002h9.853v-3.386h-14.933v3.386h4.926H201.997z M300.396,963.616h-78.812v3.386h83.893v-3.386h-4.926
	H300.396z"/>
<path fill="#869900" d="M58.894,976.459h54.342v-3.386H58.898L58.894,976.459z"/>
<path fill="#2EA197" d="M132.817,973.073h-9.852v3.388H137.9v-3.387h-4.93L132.817,973.073z M157.478,973.073h-9.853v3.388h14.933
	v-3.387h-4.926L157.478,973.073z M187.22,976.459v-3.386h-14.935v3.388h10.005L187.22,976.459z"/>
<path fill="#6D70C4" d="M275.766,973.073H196.95v3.388h83.896v-3.387h-4.925L275.766,973.073z"/>
<path fill="#869900" d="M58.894,985.918h108.529v-3.388H58.898L58.894,985.918z"/>
<path fill="#2EA197" d="M177.15,982.529h5.08v3.389h-5.08V982.529z M191.96,982.529h5.08v3.389h-5.08V982.529z M211.85,985.918
	h9.853v-3.388H206.77v3.388h4.926H211.85z M246.208,982.529h-14.776v3.389h19.86v-3.388h-4.927L246.208,982.529z"/>
<path fill="#869900" d="M152.644,991.989H58.898v3.388h93.747L152.644,991.989z"/>
<path fill="#2EA197" d="M162.374,991.989h5.08v3.388h-5.08V991.989z M177.182,991.989h5.08v3.388h-5.08V991.989z M201.843,991.989
	h-9.851v3.388h14.934v-3.388H202H201.843z"/>
<path fill="#CC4A14" d="M231.43,991.989h-14.777v3.388h19.857v-3.388h-4.926H231.43z"/>
<path fill="#869900" d="M142.638,1001.449h-83.74v3.387h88.822v-3.388h-4.926L142.638,1001.449z"/>
<path fill="#2EA197" d="M157.448,1001.449h5.08v3.387h-5.08V1001.449z M172.256,1001.449h5.08v3.387h-5.08V1001.449z
	 M192.145,1004.836h9.853v-3.388h-14.93v3.386h4.926L192.145,1004.836z M226.504,1001.449h-14.779v3.387h19.857v-3.388h-4.926
	L226.504,1001.449z"/>
<path fill="#869900" d="M142.792,1014.292v-3.387H58.898v3.387h78.969H142.792z"/>
<path fill="#2EA197" d="M152.52,1010.905h5.08v3.387h-5.08V1010.905z M167.33,1010.905h5.08v3.387h-5.08V1010.905z M197.07,1014.292
	v-3.387h-14.93v3.387h10.004H197.07z"/>
<path fill="#CC4A14" d="M221.58,1010.905H206.8v3.387h19.857v-3.387h-4.925H221.58z"/>
<path fill="#869900" d="M103.23,1023.749h24.783v-3.387H58.897v3.387H98.46H103.23z"/>
<path fill="#2EA197" d="M137.743,1020.362h5.08v3.387h-5.08V1020.362z M152.552,1020.362h5.08v3.387h-5.08V1020.362z
	 M177.213,1020.362h-9.851v3.387h14.934v-3.387h-4.926H177.213z M206.8,1020.362h-14.778v3.387h19.858v-3.387h-4.925H206.8z"/>
<path fill="#869900" d="M93.377,1029.821H58.896v3.387H98.46v-3.388h-4.93L93.377,1029.821z"/>
<path fill="#2EA197" d="M127.89,1033.209h5.082v-3.388h-24.785v3.387h14.931L127.89,1033.209z"/>
<path fill="#93A1A1" d="M39.128,1039.279h5.08v3.389h-5.08V1039.279z"/>
<path fill="#D33682" d="M418.77,928.116h-69.115v3.386h69.121L418.77,928.116z"/>
<path fill="#93A1A1" d="M428.5,928.116h5.08v3.388h-5.08V928.116z M443.311,928.116h5.08v3.388h-5.08V928.116z"/>
<path fill="#869900" d="M403.9,937.573h-34.483v3.388h39.563v-3.387h-4.926L403.9,937.573z"/>
<path fill="#2EA197" d="M443.34,937.573h-24.63v3.388h29.71v-3.387h-4.926L443.34,937.573z"/>
<path fill="#869900" d="M403.9,947.032h-34.483v3.386h39.563v-3.387h-4.926L403.9,947.032z"/>
<path fill="#2EA197" d="M438.414,947.032H418.71v3.386h24.783v-3.387h-4.927L438.414,947.032z"/>
<path fill="#93A1A1" d="M349.65,956.489h5.08v3.391h-5.08V956.489z"/>
<rect x="-362.5" y="-146.993" fill="#2EA197" width="216" height="69.493"/>
<rect x="189.5" y="-352.5" fill="#2EA197" width="580" height="309"/>
<g>
	<path fill="none" stroke="#839496" stroke-width="2" stroke-miterlimit="10" d="M598.219,362.297c0,5.363-4.34,9.703-9.703,9.703
		H159.203c-5.363,0-9.703-4.34-9.703-9.703V71.203c0-5.363,4.34-9.703,9.703-9.703h429.312c5.363,0,9.703,4.34,9.703,9.703V362.297z
		"/>
	<line fill="none" stroke="#839496" stroke-width="2" stroke-miterlimit="10" x1="149.5" y1="100.5" x2="598.219" y2="100.5"/>
</g>
<circle fill="none" stroke="#667B82" stroke-width="2" stroke-miterlimit="10" cx="171" cy="80" r="7.5"/>
<circle fill="none" stroke="#667B82" stroke-width="2" stroke-miterlimit="10" cx="191" cy="80" r="7.5"/>
<circle fill="none" stroke="#667B82" stroke-width="2" stroke-miterlimit="10" cx="211" cy="80" r="7.5"/>
<circle fill="none" stroke="#CC4A14" stroke-width="2" stroke-miterlimit="10" cx="221" cy="162" r="31.5"/>
<circle fill="none" stroke="#DD302E" stroke-width="2" stroke-miterlimit="10" cx="511" cy="269" r="75.5"/>
<circle fill="none" stroke="#B68800" stroke-width="2" stroke-miterlimit="10" cx="347.01" cy="173.207" r="45"/>
<circle fill="none" stroke="#268BD2" stroke-width="2" stroke-miterlimit="10" cx="232.91" cy="276.522" r="31"/>
<circle fill="none" stroke="#6D70C4" stroke-width="2" stroke-miterlimit="10" cx="349.161" cy="292.023" r="40"/>
<circle fill="none" stroke="#2EA197" stroke-width="2" stroke-miterlimit="10" cx="465" cy="146" r="26.5"/>
</svg>
