<svg xmlns="http://www.w3.org/2000/svg" width="700" height="483" viewBox="0 -11.5 700 483"><path fill="#FFF" stroke="#D4D4D8" stroke-width="2" stroke-miterlimit="10" d="M0-11.5h700v483H0z"/><path fill="none" stroke="#D33682" stroke-width="2" stroke-miterlimit="10" d="M337.501 418.091a4.376 4.376 0 0 1-4.374 4.378H139.417a4.374 4.374 0 0 1-4.378-4.374V286.75a4.375 4.375 0 0 1 4.373-4.378h193.71a4.377 4.377 0 0 1 4.378 4.374v.004l.001 131.341zM135.039 299.969h202.462"/><circle fill="none" stroke="#D33682" stroke-width="2" stroke-miterlimit="10" cx="144.739" cy="290.719" r="3.385"/><circle fill="none" stroke="#D33682" stroke-width="2" stroke-miterlimit="10" cx="153.763" cy="290.719" r="3.385"/><circle fill="none" stroke="#D33682" stroke-width="2" stroke-miterlimit="10" cx="162.788" cy="290.719" r="3.385"/><path fill="none" stroke="#268BD2" stroke-width="2" stroke-miterlimit="10" d="M651.62 411.846a4.89 4.89 0 0 1-4.886 4.892H430.39a4.893 4.893 0 0 1-4.89-4.886V265.158a4.889 4.889 0 0 1 4.884-4.891H646.73a4.886 4.886 0 0 1 4.888 4.883v146.696h.002zM425.5 279.92h226.12"/><circle fill="none" stroke="#268BD2" stroke-width="2" stroke-miterlimit="10" cx="436.334" cy="269.59" r="3.78"/><circle fill="none" stroke="#268BD2" stroke-width="2" stroke-miterlimit="10" cx="446.413" cy="269.59" r="3.78"/><circle fill="none" stroke="#268BD2" stroke-width="2" stroke-miterlimit="10" cx="456.492" cy="269.59" r="3.78"/><g><path fill="none" stroke="#CC4A14" stroke-width="2" stroke-miterlimit="10" d="M653.086 205.571a4.926 4.926 0 0 1-4.923 4.929H430.042a4.926 4.926 0 0 1-4.93-4.924V57.68a4.926 4.926 0 0 1 4.925-4.93h218.118a4.926 4.926 0 0 1 4.93 4.924v.005l.001 147.892zM425.112 72.564h227.974"/><circle fill="none" stroke="#CC4A14" stroke-width="2" stroke-miterlimit="10" cx="436.035" cy="62.149" r="3.811"/><circle fill="none" stroke="#CC4A14" stroke-width="2" stroke-miterlimit="10" cx="446.196" cy="62.149" r="3.811"/><circle fill="none" stroke="#CC4A14" stroke-width="2" stroke-miterlimit="10" cx="456.357" cy="62.149" r="3.811"/></g><g><path fill="none" stroke="#6D70C4" stroke-width="2" stroke-miterlimit="10" d="M379.385 207.152a5.913 5.913 0 0 1-5.91 5.917H111.656a5.913 5.913 0 0 1-5.917-5.912V29.633a5.913 5.913 0 0 1 5.91-5.917h261.817a5.912 5.912 0 0 1 5.917 5.911v177.525h.002zM105.739 47.5h273.646"/><circle fill="none" stroke="#6D70C4" stroke-width="2" stroke-miterlimit="10" cx="118.85" cy="34.998" r="4.574"/><circle fill="none" stroke="#6D70C4" stroke-width="2" stroke-miterlimit="10" cx="131.047" cy="34.998" r="4.574"/><circle fill="none" stroke="#6D70C4" stroke-width="2" stroke-miterlimit="10" cx="143.244" cy="34.998" r="4.574"/></g><g><path fill="none" stroke="#B68800" stroke-width="2" stroke-miterlimit="10" d="M299.822 320.055a5.583 5.583 0 0 1-5.579 5.586H47.12a5.58 5.58 0 0 1-5.585-5.58V152.5a5.582 5.582 0 0 1 5.579-5.585h247.121a5.582 5.582 0 0 1 5.585 5.58v167.562h.002v-.002zM41.535 169.363h258.287"/><circle fill="none" stroke="#B68800" stroke-width="2" stroke-miterlimit="10" cx="53.911" cy="157.563" r="4.318"/><circle fill="none" stroke="#B68800" stroke-width="2" stroke-miterlimit="10" cx="65.423" cy="157.563" r="4.318"/><circle fill="none" stroke="#B68800" stroke-width="2" stroke-miterlimit="10" cx="76.935" cy="157.563" r="4.318"/></g><g><path fill="none" stroke="#667B82" stroke-width="2" stroke-miterlimit="10" d="M628.622 381.938a6.847 6.847 0 0 1-6.84 6.85H318.855a6.845 6.845 0 0 1-6.849-6.842v-205.4a6.844 6.844 0 0 1 6.837-6.847h302.928c3.778-.001 6.848 3.06 6.849 6.839v205.4h.002zM312.009 197.216h316.613"/><circle fill="none" stroke="#667B82" stroke-width="2" stroke-miterlimit="10" cx="327.179" cy="182.753" r="5.293"/><circle fill="none" stroke="#667B82" stroke-width="2" stroke-miterlimit="10" cx="341.29" cy="182.753" r="5.293"/><circle fill="none" stroke="#667B82" stroke-width="2" stroke-miterlimit="10" cx="355.403" cy="182.753" r="5.293"/></g><g><path fill="none" stroke="#2EA197" stroke-width="2" stroke-miterlimit="10" d="M544.822 335.118a7.976 7.976 0 0 1-7.969 7.978H183.86a7.97 7.97 0 0 1-7.977-7.97V95.78c-.002-4.405 3.565-7.979 7.97-7.979h352.988c4.403-.002 7.978 3.566 7.979 7.97V335.118h.002zM175.883 119.867h368.939"/><circle fill="none" stroke="#2EA197" stroke-width="2" stroke-miterlimit="10" cx="193.561" cy="103.012" r="6.167"/><circle fill="none" stroke="#2EA197" stroke-width="2" stroke-miterlimit="10" cx="210.004" cy="103.012" r="6.167"/><circle fill="none" stroke="#2EA197" stroke-width="2" stroke-miterlimit="10" cx="226.448" cy="103.012" r="6.167"/></g></svg>