<?xml version="1.0" encoding="utf-8"?>
<!-- Generator: Adobe Illustrator 16.0.4, SVG Export Plug-In . SVG Version: 6.00 Build 0)  -->
<!DOCTYPE svg PUBLIC "-//W3C//DTD SVG 1.1//EN" "http://www.w3.org/Graphics/SVG/1.1/DTD/svg11.dtd">
<svg version="1.1" id="Layer_1" xmlns="http://www.w3.org/2000/svg" xmlns:xlink="http://www.w3.org/1999/xlink" x="0px" y="0px"
	 width="960px" height="400px" viewBox="0 0 960 400" enable-background="new 0 0 960 400" xml:space="preserve">
<rect x="0" y="0" fill="#FEF5E3" width="960" height="400"/>
<g>
	<g>
		<g>
			<path fill="#EFE8D8" d="M56.85,99.294c-0.83-0.57-1.251-1.269-1.187-1.966c0.065-0.698,0.61-1.313,1.533-1.73l87.97-39.753
				c1.904-0.86,4.849-0.604,6.564,0.573l116.721,80.207c0.001,0,0.002,0.001,0.003,0.001c0.829,0.57,1.251,1.269,1.186,1.967
				c-0.064,0.698-0.609,1.312-1.532,1.73l-87.968,39.752c-0.924,0.418-2.115,0.588-3.355,0.48c-1.238-0.108-2.381-0.482-3.209-1.052
				L56.852,99.296C56.852,99.295,56.851,99.294,56.85,99.294z M136.732,60.732L58.144,96.245c-0.646,0.292-1.025,0.72-1.07,1.206
				c-0.045,0.486,0.249,0.972,0.827,1.368c0,0.001,0.001,0.002,0.001,0.002l116.718,80.204c0.582,0.4,1.375,0.66,2.238,0.735
				c0.831,0.073,1.63-0.034,2.262-0.302l78.661-35.546L136.732,60.732z M137.783,60.257l121.05,83.182l8.326-3.763
				c0.646-0.293,1.023-0.72,1.069-1.206s-0.248-0.973-0.826-1.37l0,0L150.684,56.895c-1.197-0.821-3.247-1-4.573-0.4L137.783,60.257
				z"/>
		</g>
		<path fill="#EFE8D8" d="M146.034,62.649c-1.385-0.952-1.26-2.293,0.279-2.988c1.54-0.695,3.919-0.487,5.305,0.465
			c1.385,0.951,1.259,2.292-0.281,2.987C149.798,63.81,147.419,63.601,146.034,62.649z M150.567,60.601
			c-0.864-0.594-2.348-0.725-3.309-0.29c-0.96,0.434-1.039,1.271-0.175,1.864s2.348,0.724,3.309,0.29
			C151.354,62.03,151.432,61.194,150.567,60.601z"/>
		<path fill="#EFE8D8" d="M151.472,66.386c-1.385-0.952-1.26-2.292,0.279-2.988c1.54-0.695,3.919-0.487,5.304,0.465
			c1.386,0.951,1.26,2.292-0.28,2.987C155.235,67.546,152.856,67.337,151.472,66.386z M156.005,64.337
			c-0.864-0.594-2.349-0.725-3.31-0.29c-0.96,0.435-1.039,1.271-0.175,1.864s2.349,0.724,3.31,0.29
			C156.791,65.767,156.868,64.931,156.005,64.337z"/>
		<path fill="#EFE8D8" d="M156.909,70.121c-1.385-0.951-1.26-2.291,0.279-2.986c1.54-0.696,3.919-0.488,5.304,0.464
			c1.386,0.951,1.26,2.292-0.28,2.988C160.673,71.281,158.294,71.073,156.909,70.121z M161.442,68.073
			c-0.864-0.594-2.348-0.724-3.309-0.29c-0.961,0.435-1.04,1.271-0.176,1.864s2.349,0.724,3.31,0.29
			C162.229,69.503,162.307,68.667,161.442,68.073z"/>
	</g>
	<g>
		<g>
			<path fill="#EFE8D8" d="M278.889,99.802c-1.155-0.794-1.742-1.766-1.652-2.736c0.09-0.972,0.849-1.829,2.134-2.409
				l122.466-55.341c2.651-1.198,6.75-0.84,9.139,0.798l162.491,111.659c0.001,0,0.002,0.001,0.004,0.001
				c1.154,0.794,1.741,1.766,1.65,2.738c-0.09,0.972-0.849,1.827-2.134,2.409l-122.462,55.34c-1.286,0.582-2.945,0.818-4.671,0.669
				c-1.724-0.151-3.314-0.672-4.467-1.464L278.891,99.805C278.891,99.804,278.889,99.802,278.889,99.802z M390.095,46.12
				L280.69,95.558c-0.898,0.406-1.427,1.002-1.49,1.679c-0.062,0.677,0.347,1.353,1.151,1.904c0.001,0.001,0.001,0.003,0.002,0.003
				L442.84,210.799c0.811,0.558,1.915,0.919,3.116,1.024c1.157,0.102,2.269-0.048,3.148-0.421l109.507-49.484L390.095,46.12z
				 M391.558,45.458l168.518,115.8l11.592-5.238c0.898-0.408,1.425-1.002,1.488-1.679c0.064-0.677-0.345-1.354-1.15-1.907l0,0
				L409.517,40.777c-1.667-1.144-4.52-1.392-6.366-0.558L391.558,45.458z"/>
		</g>
		<path fill="#EFE8D8" d="M403.045,48.789c-1.928-1.326-1.755-3.192,0.389-4.16c2.144-0.968,5.456-0.679,7.385,0.647
			c1.928,1.324,1.752,3.191-0.392,4.159C408.284,50.403,404.973,50.113,403.045,48.789z M409.355,45.936
			c-1.203-0.827-3.269-1.009-4.606-0.404c-1.337,0.604-1.447,1.769-0.244,2.596c1.203,0.826,3.269,1.007,4.607,0.403
			C410.45,47.926,410.559,46.763,409.355,45.936z"/>
		<path fill="#EFE8D8" d="M410.614,53.99c-1.928-1.325-1.753-3.19,0.389-4.16c2.144-0.968,5.456-0.678,7.383,0.647
			c1.929,1.324,1.754,3.19-0.39,4.159C415.854,55.605,412.542,55.314,410.614,53.99z M416.925,51.138
			c-1.203-0.827-3.27-1.009-4.607-0.404c-1.336,0.605-1.446,1.769-0.243,2.595s3.27,1.007,4.607,0.404
			C418.02,53.128,418.127,51.964,416.925,51.138z"/>
		<path fill="#EFE8D8" d="M418.184,59.19c-1.928-1.324-1.754-3.189,0.389-4.157c2.144-0.969,5.456-0.68,7.384,0.646
			c1.929,1.324,1.753,3.191-0.39,4.16C423.424,60.805,420.112,60.516,418.184,59.19z M424.495,56.339
			c-1.203-0.826-3.269-1.007-4.606-0.403c-1.338,0.605-1.448,1.769-0.245,2.595s3.27,1.007,4.607,0.404
			C425.589,58.33,425.698,57.166,424.495,56.339z"/>
	</g>
	<g>
		<g>
			<path fill="#EFE8D8" d="M183.759,226.479c-1.155-0.793-1.742-1.766-1.652-2.736c0.09-0.972,0.849-1.828,2.134-2.408
				l122.466-55.342c2.651-1.198,6.75-0.84,9.139,0.798l162.491,111.659c0.001,0,0.002,0.001,0.004,0.001
				c1.154,0.794,1.741,1.767,1.65,2.738c-0.09,0.972-0.849,1.827-2.134,2.409l-122.462,55.34c-1.286,0.582-2.945,0.818-4.671,0.669
				c-1.724-0.151-3.314-0.672-4.467-1.464l-162.494-111.66C183.761,226.48,183.759,226.479,183.759,226.479z M294.965,172.796
				L185.56,222.234c-0.898,0.406-1.427,1.002-1.49,1.68c-0.062,0.677,0.347,1.353,1.151,1.904c0.001,0.002,0.001,0.003,0.002,0.003
				L347.71,337.476c0.811,0.558,1.915,0.919,3.116,1.024c1.157,0.102,2.269-0.048,3.148-0.421l109.507-49.483L294.965,172.796z
				 M296.428,172.134l168.518,115.799l11.592-5.237c0.898-0.408,1.425-1.002,1.488-1.679c0.064-0.678-0.345-1.354-1.15-1.908l0,0
				L314.387,167.454c-1.667-1.144-4.52-1.392-6.366-0.558L296.428,172.134z"/>
		</g>
		<path fill="#EFE8D8" d="M307.915,175.465c-1.928-1.326-1.755-3.192,0.389-4.16c2.144-0.968,5.456-0.679,7.385,0.647
			c1.928,1.324,1.752,3.191-0.392,4.159C313.154,177.08,309.843,176.79,307.915,175.465z M314.226,172.613
			c-1.203-0.827-3.269-1.009-4.606-0.404c-1.337,0.604-1.447,1.769-0.244,2.596c1.203,0.826,3.269,1.007,4.607,0.403
			C315.32,174.603,315.429,173.439,314.226,172.613z"/>
		<path fill="#EFE8D8" d="M315.484,180.667c-1.928-1.325-1.753-3.19,0.389-4.16c2.144-0.968,5.456-0.678,7.383,0.647
			c1.929,1.324,1.754,3.19-0.39,4.159C320.724,182.282,317.412,181.991,315.484,180.667z M321.795,177.814
			c-1.203-0.827-3.27-1.009-4.607-0.404c-1.336,0.605-1.446,1.769-0.243,2.595s3.27,1.007,4.607,0.404
			C322.89,179.805,322.997,178.641,321.795,177.814z"/>
		<path fill="#EFE8D8" d="M323.054,185.867c-1.928-1.324-1.754-3.189,0.389-4.157c2.144-0.969,5.456-0.68,7.384,0.646
			c1.929,1.324,1.753,3.191-0.39,4.16C328.294,187.482,324.982,187.192,323.054,185.867z M329.365,183.016
			c-1.203-0.826-3.269-1.007-4.606-0.403c-1.338,0.605-1.448,1.769-0.245,2.595s3.27,1.007,4.607,0.404
			C330.459,185.006,330.568,183.842,329.365,183.016z"/>
	</g>
	<g>
		<g>
			<path fill="#EFE8D8" d="M347.233,400.127c-1.155-0.793-1.742-1.766-1.652-2.736c0.09-0.972,0.849-1.828,2.134-2.408
				l122.466-55.342c2.651-1.197,6.75-0.84,9.139,0.798l162.492,111.659c0,0,0.002,0.001,0.004,0.001
				c1.154,0.794,1.74,1.767,1.65,2.738s-0.85,1.827-2.135,2.409l-122.462,55.34c-1.286,0.582-2.944,0.818-4.671,0.669
				c-1.725-0.151-3.314-0.672-4.468-1.464l-162.494-111.66C347.235,400.129,347.233,400.127,347.233,400.127z M458.439,346.445
				l-109.405,49.438c-0.898,0.406-1.427,1.002-1.49,1.68c-0.062,0.677,0.347,1.353,1.151,1.904c0.001,0.002,0.001,0.003,0.002,0.003
				l162.487,111.654c0.811,0.558,1.915,0.919,3.117,1.024c1.156,0.102,2.269-0.048,3.148-0.421l109.506-49.483L458.439,346.445z
				 M459.902,345.783L628.42,461.582l11.592-5.237c0.898-0.408,1.424-1.002,1.488-1.679c0.064-0.678-0.346-1.354-1.15-1.908l0,0
				L477.861,341.102c-1.667-1.143-4.52-1.392-6.366-0.557L459.902,345.783z"/>
		</g>
		<path fill="#EFE8D8" d="M471.389,349.113c-1.928-1.325-1.755-3.191,0.389-4.16c2.144-0.968,5.456-0.678,7.385,0.647
			c1.927,1.324,1.752,3.19-0.392,4.159C476.628,350.729,473.317,350.438,471.389,349.113z M477.7,346.262
			c-1.203-0.827-3.269-1.01-4.606-0.404c-1.337,0.604-1.447,1.77-0.244,2.596s3.269,1.008,4.607,0.403
			C478.794,348.252,478.903,347.088,477.7,346.262z"/>
		<path fill="#EFE8D8" d="M478.958,354.314c-1.928-1.324-1.753-3.189,0.389-4.16c2.144-0.967,5.455-0.678,7.383,0.648
			c1.93,1.324,1.754,3.189-0.39,4.158C484.198,355.93,480.887,355.639,478.958,354.314z M485.27,351.463
			c-1.203-0.826-3.27-1.009-4.607-0.404c-1.336,0.605-1.446,1.77-0.243,2.596s3.27,1.008,4.606,0.404
			C486.363,353.453,486.471,352.289,485.27,351.463z"/>
		<path fill="#EFE8D8" d="M486.528,359.516c-1.928-1.324-1.754-3.189,0.389-4.158c2.144-0.969,5.456-0.68,7.384,0.646
			c1.93,1.324,1.754,3.19-0.391,4.16C491.768,361.131,488.456,360.841,486.528,359.516z M492.84,356.664
			c-1.203-0.826-3.27-1.008-4.606-0.403c-1.338,0.604-1.448,1.769-0.245,2.595c1.203,0.827,3.27,1.008,4.607,0.404
			C493.934,358.654,494.043,357.49,492.84,356.664z"/>
	</g>
	<g>
		<g>
			<path fill="#EFE8D8" d="M-64.532,254.102c-1.293-0.888-1.95-1.978-1.85-3.064c0.101-1.088,0.95-2.047,2.389-2.696l137.124-61.965
				c2.969-1.34,7.558-0.94,10.232,0.894l181.94,125.023c0,0,0.002,0.001,0.004,0.001c1.292,0.89,1.948,1.979,1.848,3.066
				s-0.951,2.046-2.39,2.697l-137.119,61.964c-1.44,0.651-3.297,0.916-5.23,0.749c-1.931-0.17-3.711-0.752-5.002-1.64
				L-64.529,254.105C-64.529,254.104-64.531,254.102-64.532,254.102z M59.985,193.995l-122.5,55.355
				c-1.006,0.454-1.598,1.121-1.669,1.88c-0.07,0.758,0.388,1.515,1.289,2.133c0.001,0.002,0.001,0.003,0.002,0.003l181.935,125.019
				c0.908,0.624,2.144,1.028,3.49,1.146c1.295,0.114,2.54-0.054,3.525-0.471l122.612-55.406L59.985,193.995z M61.623,193.253
				L250.31,322.912l12.979-5.864c1.006-0.457,1.594-1.122,1.666-1.88c0.072-0.759-0.387-1.517-1.288-2.137l0,0L81.731,188.011
				c-1.866-1.279-5.061-1.558-7.128-0.623L61.623,193.253z"/>
		</g>
		<path fill="#EFE8D8" d="M74.485,196.982c-2.159-1.484-1.965-3.573,0.435-4.658c2.4-1.083,6.108-0.759,8.269,0.725
			c2.158,1.483,1.962,3.572-0.438,4.657C80.351,198.791,76.644,198.465,74.485,196.982z M81.55,193.789
			c-1.347-0.926-3.66-1.13-5.158-0.453c-1.498,0.676-1.62,1.981-0.272,2.906c1.347,0.925,3.66,1.128,5.158,0.452
			C82.776,196.018,82.897,194.714,81.55,193.789z"/>
		<path fill="#EFE8D8" d="M82.96,202.806c-2.159-1.483-1.963-3.571,0.436-4.658c2.4-1.083,6.108-0.759,8.267,0.726
			c2.161,1.483,1.964,3.572-0.437,4.656C88.827,204.614,85.119,204.289,82.96,202.806z M90.026,199.613
			c-1.347-0.925-3.661-1.129-5.159-0.453c-1.497,0.678-1.62,1.981-0.272,2.906c1.347,0.926,3.661,1.129,5.158,0.453
			C91.251,201.842,91.371,200.537,90.026,199.613z"/>
		<path fill="#EFE8D8" d="M91.436,208.629c-2.158-1.482-1.963-3.57,0.436-4.655c2.4-1.085,6.109-0.761,8.268,0.724
			c2.161,1.482,1.964,3.572-0.438,4.658C97.302,210.438,93.594,210.113,91.436,208.629z M98.503,205.437
			c-1.347-0.925-3.661-1.128-5.158-0.452c-1.498,0.678-1.622,1.98-0.274,2.906s3.661,1.128,5.159,0.452
			C99.728,207.665,99.85,206.361,98.503,205.437z"/>
	</g>
	<g>
		<g>
			<path fill="#EFE8D8" d="M104.728,449.337c-1.293-0.888-1.95-1.978-1.85-3.064c0.101-1.088,0.95-2.047,2.389-2.696l137.124-61.965
				c2.969-1.341,7.558-0.941,10.232,0.893l181.94,125.023c0,0,0.002,0.001,0.004,0.001c1.292,0.89,1.948,1.979,1.848,3.066
				s-0.951,2.046-2.39,2.697l-137.119,61.964c-1.44,0.651-3.297,0.916-5.23,0.749c-1.931-0.17-3.711-0.752-5.002-1.64
				L104.73,449.341C104.73,449.339,104.728,449.337,104.728,449.337z M229.244,389.23l-122.5,55.354
				c-1.006,0.454-1.598,1.121-1.669,1.88c-0.07,0.758,0.388,1.515,1.289,2.133c0.001,0.002,0.001,0.003,0.002,0.003l181.935,125.019
				c0.908,0.624,2.144,1.028,3.49,1.146c1.295,0.114,2.54-0.054,3.525-0.471l122.612-55.406L229.244,389.23z M230.882,388.488
				l188.688,129.659l12.979-5.864c1.006-0.457,1.594-1.122,1.666-1.88c0.072-0.759-0.387-1.517-1.288-2.137l0,0L250.991,383.246
				c-1.866-1.279-5.061-1.558-7.128-0.623L230.882,388.488z"/>
		</g>
		<path fill="#EFE8D8" d="M243.744,392.217c-2.159-1.483-1.965-3.572,0.435-4.658c2.4-1.083,6.108-0.758,8.269,0.726
			c2.158,1.483,1.962,3.572-0.438,4.657C249.61,394.025,245.903,393.7,243.744,392.217z M250.81,389.024
			c-1.347-0.927-3.66-1.13-5.158-0.452c-1.498,0.676-1.62,1.98-0.272,2.906c1.347,0.925,3.66,1.128,5.158,0.451
			C252.035,391.253,252.157,389.949,250.81,389.024z"/>
		<path fill="#EFE8D8" d="M252.219,398.041c-2.159-1.482-1.963-3.571,0.436-4.658c2.4-1.082,6.108-0.759,8.267,0.727
			c2.161,1.482,1.964,3.57-0.437,4.655C258.086,399.85,254.378,399.523,252.219,398.041z M259.286,394.848
			c-1.347-0.925-3.661-1.129-5.159-0.452c-1.497,0.678-1.62,1.981-0.272,2.906s3.661,1.128,5.158,0.452
			C260.51,397.076,260.63,395.773,259.286,394.848z"/>
		<path fill="#EFE8D8" d="M260.695,403.865c-2.158-1.483-1.963-3.572,0.436-4.656c2.4-1.085,6.109-0.762,8.268,0.724
			c2.161,1.483,1.964,3.572-0.438,4.658C266.562,405.674,262.854,405.349,260.695,403.865z M267.762,400.672
			c-1.347-0.926-3.661-1.129-5.158-0.451c-1.498,0.676-1.622,1.98-0.274,2.904c1.347,0.927,3.661,1.129,5.159,0.453
			C268.987,402.9,269.109,401.597,267.762,400.672z"/>
	</g>
	<g>
		<g>
			<path fill="#EFE8D8" d="M674.124,429.254c-1.293-0.888-1.95-1.978-1.851-3.064c0.102-1.088,0.951-2.047,2.39-2.696
				l137.124-61.965c2.969-1.341,7.558-0.941,10.232,0.893l181.939,125.023c0,0,0.002,0.001,0.005,0.001
				c1.292,0.89,1.948,1.979,1.848,3.066s-0.951,2.046-2.39,2.697l-137.119,61.964c-1.441,0.651-3.297,0.916-5.23,0.749
				c-1.932-0.17-3.711-0.752-5.002-1.64L674.127,429.258C674.127,429.256,674.125,429.254,674.124,429.254z M798.641,369.147
				l-122.5,55.354c-1.006,0.454-1.598,1.121-1.668,1.88c-0.07,0.758,0.388,1.515,1.289,2.133c0,0.002,0.001,0.003,0.002,0.003
				l181.934,125.019c0.908,0.624,2.145,1.028,3.49,1.146c1.295,0.114,2.541-0.054,3.525-0.471l122.613-55.406L798.641,369.147z
				 M800.278,368.405l188.688,129.659l12.979-5.864c1.006-0.457,1.594-1.122,1.666-1.88c0.072-0.759-0.387-1.517-1.288-2.137l0,0
				L820.387,363.163c-1.865-1.279-5.061-1.558-7.127-0.623L800.278,368.405z"/>
		</g>
		<path fill="#EFE8D8" d="M813.141,372.134c-2.159-1.483-1.965-3.572,0.436-4.658c2.4-1.083,6.107-0.758,8.268,0.726
			c2.158,1.483,1.963,3.572-0.438,4.657C819.007,373.942,815.299,373.617,813.141,372.134z M820.206,368.941
			c-1.347-0.927-3.66-1.13-5.157-0.452c-1.498,0.676-1.62,1.98-0.273,2.906c1.348,0.925,3.66,1.128,5.158,0.451
			S821.553,369.866,820.206,368.941z"/>
		<path fill="#EFE8D8" d="M821.615,377.958c-2.158-1.482-1.963-3.571,0.436-4.658c2.4-1.082,6.109-0.759,8.268,0.727
			c2.16,1.482,1.963,3.57-0.438,4.655C827.482,379.767,823.775,379.44,821.615,377.958z M828.682,374.765
			c-1.347-0.925-3.66-1.129-5.158-0.452c-1.496,0.678-1.619,1.981-0.272,2.906s3.661,1.128,5.157,0.452
			C829.906,376.993,830.027,375.69,828.682,374.765z"/>
		<path fill="#EFE8D8" d="M830.092,383.782c-2.158-1.483-1.964-3.572,0.436-4.656c2.399-1.085,6.108-0.762,8.268,0.724
			c2.16,1.483,1.963,3.572-0.438,4.658C835.958,385.591,832.25,385.266,830.092,383.782z M837.158,380.589
			c-1.347-0.926-3.66-1.129-5.158-0.451c-1.498,0.676-1.621,1.98-0.273,2.904c1.347,0.927,3.66,1.129,5.158,0.453
			C838.383,382.817,838.506,381.514,837.158,380.589z"/>
	</g>
	<g>
		<g>
			<path fill="#EFE8D8" d="M77.325-85.933c-1.293-0.888-1.95-1.978-1.851-3.064c0.102-1.088,0.951-2.047,2.39-2.696l137.124-61.965
				c2.969-1.341,7.558-0.941,10.232,0.893L407.16-27.742c0,0,0.002,0.001,0.005,0.001c1.292,0.89,1.948,1.979,1.848,3.066
				s-0.951,2.046-2.39,2.697L269.503,39.986c-1.441,0.651-3.297,0.916-5.23,0.749c-1.932-0.17-3.711-0.752-5.002-1.64L77.328-85.929
				C77.328-85.931,77.326-85.933,77.325-85.933z M201.841-146.039l-122.5,55.354c-1.006,0.454-1.598,1.121-1.668,1.88
				c-0.07,0.758,0.388,1.515,1.289,2.133c0,0.002,0.001,0.003,0.002,0.003L260.898,38.35c0.908,0.624,2.145,1.028,3.49,1.146
				c1.295,0.114,2.541-0.054,3.525-0.471l122.613-55.406L201.841-146.039z M203.479-146.781L392.167-17.122l12.979-5.864
				c1.006-0.457,1.594-1.122,1.666-1.88c0.072-0.759-0.387-1.517-1.288-2.137l0,0L223.587-152.023
				c-1.865-1.279-5.061-1.558-7.127-0.623L203.479-146.781z"/>
		</g>
		<path fill="#EFE8D8" d="M216.341-143.053c-2.159-1.483-1.965-3.572,0.436-4.658c2.4-1.083,6.107-0.758,8.268,0.726
			c2.158,1.483,1.963,3.572-0.438,4.657C222.208-141.244,218.5-141.569,216.341-143.053z M223.407-146.245
			c-1.347-0.927-3.66-1.13-5.157-0.452c-1.498,0.676-1.62,1.98-0.273,2.906c1.348,0.925,3.66,1.128,5.158,0.451
			S224.753-145.32,223.407-146.245z"/>
		<path fill="#EFE8D8" d="M224.816-137.229c-2.158-1.482-1.963-3.571,0.436-4.658c2.4-1.082,6.109-0.759,8.268,0.727
			c2.16,1.482,1.963,3.57-0.438,4.655C230.683-135.42,226.976-135.746,224.816-137.229z M231.882-140.422
			c-1.347-0.925-3.66-1.129-5.158-0.452c-1.496,0.678-1.619,1.981-0.272,2.906s3.661,1.128,5.157,0.452
			C233.107-138.193,233.228-139.496,231.882-140.422z"/>
		<path fill="#EFE8D8" d="M233.292-131.404c-2.158-1.483-1.964-3.572,0.436-4.656c2.399-1.085,6.108-0.762,8.268,0.724
			c2.16,1.483,1.963,3.572-0.438,4.658C239.159-129.596,235.451-129.921,233.292-131.404z M240.359-134.598
			c-1.347-0.926-3.66-1.129-5.158-0.451c-1.498,0.676-1.621,1.98-0.273,2.904c1.347,0.927,3.66,1.129,5.158,0.453
			C241.583-132.369,241.707-133.673,240.359-134.598z"/>
	</g>
	<g>
		<g>
			<path fill="#EFE8D8" d="M325.496-61.521c-1.293-0.888-1.95-1.978-1.851-3.064c0.102-1.088,0.951-2.047,2.39-2.696l137.124-61.965
				c2.969-1.341,7.558-0.941,10.232,0.893L655.33-3.33c0,0,0.002,0.001,0.006,0.001c1.291,0.89,1.947,1.979,1.848,3.066
				c-0.102,1.088-0.951,2.046-2.391,2.697L517.674,64.398c-1.441,0.651-3.297,0.916-5.23,0.749c-1.932-0.17-3.711-0.752-5.002-1.64
				L325.499-61.517C325.499-61.519,325.497-61.521,325.496-61.521z M450.012-121.627l-122.5,55.354
				c-1.006,0.454-1.598,1.121-1.668,1.88c-0.07,0.758,0.388,1.515,1.289,2.133c0,0.002,0.001,0.003,0.002,0.003L509.068,62.762
				c0.908,0.624,2.145,1.028,3.49,1.146c1.295,0.114,2.541-0.054,3.525-0.471L638.697,8.031L450.012-121.627z M451.65-122.369
				L640.338,7.29l12.979-5.864c1.006-0.457,1.594-1.122,1.666-1.88c0.072-0.759-0.387-1.517-1.287-2.137l0,0L471.758-127.611
				c-1.865-1.279-5.061-1.558-7.127-0.623L451.65-122.369z"/>
		</g>
		<path fill="#EFE8D8" d="M464.512-118.641c-2.159-1.483-1.965-3.572,0.436-4.658c2.4-1.083,6.107-0.758,8.268,0.726
			c2.158,1.483,1.963,3.572-0.438,4.657C470.378-116.832,466.67-117.157,464.512-118.641z M471.578-121.833
			c-1.347-0.927-3.66-1.13-5.157-0.452c-1.498,0.676-1.62,1.98-0.273,2.906c1.348,0.925,3.66,1.128,5.158,0.451
			S472.924-120.908,471.578-121.833z"/>
		<path fill="#EFE8D8" d="M472.987-112.816c-2.158-1.482-1.963-3.571,0.436-4.658c2.4-1.082,6.109-0.759,8.267,0.727
			c2.16,1.482,1.963,3.57-0.438,4.655C478.854-111.008,475.147-111.334,472.987-112.816z M480.053-116.01
			c-1.347-0.925-3.66-1.129-5.158-0.452c-1.496,0.678-1.619,1.981-0.272,2.906s3.661,1.128,5.157,0.452
			C481.277-113.781,481.398-115.084,480.053-116.01z"/>
		<path fill="#EFE8D8" d="M481.463-106.992c-2.158-1.483-1.963-3.572,0.436-4.656c2.4-1.085,6.109-0.762,8.268,0.724
			c2.16,1.483,1.963,3.572-0.438,4.658C487.33-105.184,483.621-105.509,481.463-106.992z M488.529-110.186
			c-1.346-0.926-3.66-1.129-5.158-0.451c-1.498,0.676-1.621,1.98-0.273,2.904c1.348,0.927,3.66,1.129,5.158,0.453
			C489.754-107.957,489.877-109.261,488.529-110.186z"/>
	</g>
	<g>
		<g>
			<path fill="#EFE8D8" d="M496.184,257.547c-1.154-0.793-1.742-1.766-1.652-2.736c0.09-0.972,0.849-1.828,2.134-2.408
				l122.466-55.342c2.651-1.198,6.75-0.84,9.139,0.798l162.491,111.659c0.001,0,0.002,0.001,0.004,0.001
				c1.154,0.794,1.741,1.767,1.65,2.738c-0.09,0.972-0.849,1.827-2.134,2.409l-122.463,55.34c-1.285,0.582-2.944,0.818-4.671,0.669
				c-1.724-0.151-3.314-0.672-4.468-1.464l-162.494-111.66C496.186,257.549,496.184,257.547,496.184,257.547z M607.391,203.865
				l-109.406,49.438c-0.898,0.406-1.426,1.002-1.49,1.68c-0.062,0.677,0.348,1.353,1.151,1.904c0.001,0.002,0.001,0.003,0.002,0.003
				l162.487,111.654c0.811,0.558,1.914,0.919,3.116,1.024c1.157,0.102,2.269-0.048,3.148-0.421l109.507-49.483L607.391,203.865z
				 M608.853,203.203L777.37,319.002l11.592-5.237c0.898-0.408,1.425-1.002,1.488-1.679c0.064-0.678-0.345-1.354-1.15-1.908l0,0
				L626.812,198.522c-1.667-1.144-4.521-1.392-6.367-0.558L608.853,203.203z"/>
		</g>
		<path fill="#EFE8D8" d="M620.34,206.533c-1.928-1.325-1.755-3.191,0.389-4.16c2.145-0.968,5.455-0.678,7.385,0.647
			c1.928,1.324,1.752,3.19-0.392,4.159C625.579,208.148,622.268,207.857,620.34,206.533z M626.65,203.682
			c-1.203-0.827-3.27-1.01-4.606-0.404c-1.337,0.604-1.446,1.77-0.243,2.596s3.269,1.008,4.606,0.403
			C627.744,205.672,627.854,204.508,626.65,203.682z"/>
		<path fill="#EFE8D8" d="M627.909,211.734c-1.928-1.324-1.753-3.189,0.39-4.16c2.143-0.967,5.455-0.678,7.383,0.648
			c1.93,1.324,1.754,3.189-0.391,4.158C633.148,213.35,629.837,213.059,627.909,211.734z M634.221,208.883
			c-1.203-0.826-3.27-1.009-4.607-0.404c-1.337,0.605-1.447,1.77-0.244,2.596s3.27,1.008,4.607,0.404
			C635.314,210.873,635.422,209.709,634.221,208.883z"/>
		<path fill="#EFE8D8" d="M635.479,216.936c-1.928-1.324-1.754-3.189,0.389-4.158c2.145-0.969,5.457-0.68,7.385,0.646
			c1.929,1.324,1.753,3.19-0.391,4.16C640.719,218.551,637.406,218.261,635.479,216.936z M641.79,214.084
			c-1.203-0.826-3.269-1.008-4.606-0.403s-1.447,1.769-0.244,2.595c1.203,0.827,3.27,1.008,4.607,0.404
			C642.885,216.074,642.993,214.91,641.79,214.084z"/>
	</g>
	<g>
		<g>
			<path fill="#EFE8D8" d="M542.802,99.802c-1.154-0.793-1.742-1.766-1.652-2.736c0.09-0.972,0.849-1.828,2.134-2.408
				l122.466-55.342c2.651-1.198,6.75-0.84,9.139,0.798l162.491,111.659c0.001,0,0.002,0.001,0.004,0.001
				c1.154,0.794,1.741,1.767,1.65,2.738c-0.09,0.972-0.849,1.827-2.134,2.409l-122.463,55.34c-1.285,0.582-2.944,0.818-4.671,0.669
				c-1.724-0.151-3.314-0.672-4.468-1.464L542.804,99.806C542.804,99.804,542.802,99.802,542.802,99.802z M654.009,46.12
				L544.603,95.558c-0.898,0.406-1.426,1.002-1.49,1.68c-0.062,0.677,0.348,1.353,1.151,1.904c0.001,0.002,0.001,0.003,0.002,0.003
				l162.487,111.654c0.811,0.558,1.914,0.919,3.116,1.024c1.157,0.102,2.269-0.048,3.148-0.421l109.507-49.483L654.009,46.12z
				 M655.471,45.458l168.518,115.799l11.592-5.237c0.898-0.408,1.425-1.002,1.488-1.679c0.064-0.678-0.345-1.354-1.15-1.908l0,0
				L673.431,40.777c-1.667-1.144-4.521-1.392-6.367-0.558L655.471,45.458z"/>
		</g>
		<path fill="#EFE8D8" d="M666.958,48.789c-1.928-1.326-1.755-3.192,0.389-4.16c2.145-0.968,5.455-0.679,7.385,0.647
			c1.928,1.324,1.752,3.191-0.392,4.159C672.197,50.403,668.886,50.113,666.958,48.789z M673.269,45.936
			c-1.203-0.827-3.27-1.009-4.606-0.404c-1.337,0.604-1.446,1.769-0.243,2.596c1.203,0.826,3.269,1.007,4.606,0.403
			C674.362,47.926,674.472,46.763,673.269,45.936z"/>
		<path fill="#EFE8D8" d="M674.527,53.989c-1.928-1.325-1.753-3.19,0.39-4.16c2.143-0.968,5.455-0.678,7.383,0.647
			c1.93,1.324,1.754,3.19-0.391,4.159C679.767,55.604,676.455,55.313,674.527,53.989z M680.839,51.138
			c-1.203-0.827-3.27-1.009-4.607-0.404c-1.337,0.605-1.447,1.769-0.244,2.595c1.203,0.826,3.27,1.008,4.607,0.404
			C681.933,53.128,682.04,51.964,680.839,51.138z"/>
		<path fill="#EFE8D8" d="M682.097,59.19c-1.928-1.324-1.754-3.189,0.389-4.158c2.145-0.969,5.457-0.68,7.385,0.646
			c1.929,1.324,1.753,3.19-0.391,4.16C687.337,60.806,684.024,60.516,682.097,59.19z M688.408,56.339
			c-1.203-0.826-3.269-1.008-4.606-0.403s-1.447,1.769-0.244,2.595c1.203,0.827,3.27,1.008,4.607,0.404
			C689.503,58.329,689.611,57.165,688.408,56.339z"/>
	</g>
	<g>
		<g>
			<path fill="#EFE8D8" d="M751.033,246.391c-0.943-0.648-1.425-1.443-1.351-2.237c0.073-0.794,0.693-1.495,1.744-1.97
				l100.141-45.252c2.168-0.979,5.52-0.687,7.473,0.652l132.869,91.303c0,0,0.001,0.002,0.003,0.002
				c0.943,0.648,1.424,1.443,1.35,2.239c-0.073,0.794-0.694,1.493-1.745,1.969l-100.138,45.252
				c-1.051,0.476-2.407,0.669-3.819,0.548c-1.409-0.125-2.71-0.55-3.653-1.198l-132.871-91.305
				C751.035,246.393,751.033,246.391,751.033,246.391z M841.967,202.495l-89.461,40.425c-0.734,0.333-1.166,0.819-1.219,1.374
				c-0.051,0.554,0.284,1.106,0.941,1.557c0.001,0.002,0.001,0.004,0.002,0.004l132.865,91.299c0.663,0.456,1.565,0.751,2.549,0.837
				c0.946,0.083,1.854-0.038,2.574-0.343l89.544-40.464L841.967,202.495z M843.163,201.954l137.796,94.688l9.479-4.282
				c0.735-0.333,1.165-0.819,1.218-1.373s-0.282-1.106-0.941-1.561l0,0l-132.865-91.3c-1.363-0.935-3.696-1.138-5.207-0.456
				L843.163,201.954z"/>
		</g>
		<path fill="#EFE8D8" d="M852.556,204.678c-1.576-1.084-1.435-2.61,0.318-3.401c1.753-0.792,4.46-0.556,6.038,0.528
			c1.576,1.083,1.433,2.609-0.32,3.4C856.84,205.998,854.132,205.761,852.556,204.678z M857.716,202.345
			c-0.983-0.676-2.674-0.824-3.767-0.33s-1.183,1.447-0.199,2.123c0.984,0.676,2.673,0.823,3.768,0.33
			C858.61,203.973,858.7,203.021,857.716,202.345z"/>
		<path fill="#EFE8D8" d="M858.745,208.93c-1.576-1.083-1.434-2.607,0.318-3.4c1.752-0.792,4.461-0.555,6.037,0.529
			c1.578,1.083,1.435,2.607-0.319,3.4C863.029,210.251,860.321,210.013,858.745,208.93z M863.906,206.599
			c-0.984-0.676-2.674-0.825-3.768-0.33c-1.093,0.494-1.184,1.446-0.199,2.121c0.983,0.676,2.673,0.824,3.768,0.331
			C864.801,208.226,864.889,207.274,863.906,206.599z"/>
		<path fill="#EFE8D8" d="M864.935,213.183c-1.576-1.082-1.434-2.607,0.318-3.399c1.753-0.793,4.462-0.557,6.038,0.528
			c1.577,1.083,1.434,2.609-0.319,3.401C869.22,214.504,866.511,214.268,864.935,213.183z M870.096,210.852
			c-0.984-0.676-2.673-0.824-3.767-0.329c-1.094,0.493-1.184,1.445-0.2,2.121c0.984,0.677,2.674,0.823,3.768,0.33
			C870.991,212.479,871.079,211.526,870.096,210.852z"/>
	</g>
	<g>
		<g>
			<path fill="#EFE8D8" d="M671.985-11.251c-0.943-0.648-1.425-1.443-1.351-2.237c0.073-0.794,0.693-1.495,1.744-1.97L772.52-60.71
				c2.168-0.979,5.52-0.687,7.473,0.652l132.869,91.303c0,0,0.001,0.002,0.003,0.002c0.943,0.648,1.424,1.443,1.35,2.239
				c-0.073,0.794-0.694,1.493-1.745,1.969L812.331,80.707c-1.051,0.476-2.407,0.669-3.819,0.548c-1.409-0.125-2.71-0.55-3.653-1.198
				L671.987-11.248C671.987-11.249,671.985-11.251,671.985-11.251z M762.919-55.146l-89.461,40.425
				c-0.734,0.333-1.166,0.819-1.219,1.374c-0.051,0.554,0.284,1.106,0.941,1.557c0.001,0.002,0.001,0.004,0.002,0.004
				l132.865,91.299c0.663,0.456,1.565,0.751,2.549,0.837c0.946,0.083,1.854-0.038,2.574-0.343l89.544-40.464L762.919-55.146z
				 M764.115-55.688l137.796,94.688l9.479-4.282c0.735-0.333,1.165-0.819,1.218-1.373s-0.282-1.106-0.941-1.561l0,0l-132.865-91.3
				c-1.363-0.935-3.696-1.138-5.207-0.456L764.115-55.688z"/>
		</g>
		<path fill="#EFE8D8" d="M773.508-52.964c-1.576-1.084-1.435-2.61,0.318-3.401c1.753-0.792,4.46-0.556,6.038,0.528
			c1.576,1.083,1.433,2.609-0.32,3.4C777.792-51.644,775.084-51.881,773.508-52.964z M778.668-55.297
			c-0.983-0.676-2.674-0.824-3.767-0.33s-1.183,1.447-0.199,2.123c0.984,0.676,2.673,0.823,3.768,0.33
			C779.562-53.669,779.652-54.62,778.668-55.297z"/>
		<path fill="#EFE8D8" d="M779.697-48.712c-1.576-1.083-1.434-2.607,0.318-3.4c1.752-0.792,4.461-0.555,6.037,0.529
			c1.578,1.083,1.435,2.607-0.319,3.4C783.981-47.391,781.273-47.629,779.697-48.712z M784.858-51.043
			c-0.984-0.676-2.674-0.825-3.768-0.33c-1.093,0.494-1.184,1.446-0.199,2.121c0.983,0.676,2.673,0.824,3.768,0.331
			C785.753-49.416,785.841-50.367,784.858-51.043z"/>
		<path fill="#EFE8D8" d="M785.887-44.459c-1.576-1.082-1.434-2.607,0.318-3.399c1.753-0.793,4.462-0.557,6.038,0.528
			c1.577,1.083,1.434,2.609-0.319,3.401C790.172-43.138,787.463-43.374,785.887-44.459z M791.048-46.79
			c-0.984-0.676-2.673-0.824-3.767-0.329c-1.094,0.493-1.184,1.445-0.2,2.121c0.984,0.677,2.674,0.823,3.768,0.33
			C791.943-45.163,792.031-46.115,791.048-46.79z"/>
	</g>
	<g>
		<g>
			<path fill="#EFE8D8" d="M837.368,128.312c-1.207-0.83-1.823-1.847-1.729-2.863c0.094-1.016,0.888-1.913,2.231-2.521
				l128.134-57.901c2.774-1.253,7.062-0.879,9.562,0.835l170.011,116.825c0,0,0.001,0.002,0.003,0.002
				c1.208,0.83,1.822,1.847,1.728,2.865c-0.094,1.016-0.889,1.911-2.233,2.519l-128.129,57.901c-1.345,0.608-3.08,0.856-4.888,0.701
				c-1.803-0.16-3.467-0.704-4.674-1.533L837.37,128.315C837.37,128.314,837.368,128.312,837.368,128.312z M953.721,72.146
				l-114.469,51.725c-0.939,0.426-1.491,1.048-1.559,1.758c-0.065,0.708,0.363,1.416,1.204,1.992
				c0.001,0.003,0.001,0.005,0.003,0.005l170.005,116.82c0.849,0.583,2.003,0.961,3.262,1.07c1.211,0.106,2.373-0.048,3.294-0.438
				l114.574-51.774L953.721,72.146z M955.251,71.453l176.314,121.157l12.128-5.479c0.941-0.426,1.491-1.049,1.559-1.757
				c0.067-0.708-0.361-1.416-1.205-1.997l0,0L974.042,66.556c-1.744-1.196-4.729-1.456-6.663-0.583L955.251,71.453z"/>
		</g>
		<path fill="#EFE8D8" d="M967.27,74.938c-2.017-1.387-1.836-3.34,0.407-4.353c2.243-1.013,5.707-0.711,7.726,0.676
			c2.018,1.386,1.833,3.339-0.409,4.351C972.751,76.627,969.286,76.324,967.27,74.938z M973.872,71.953
			c-1.259-0.865-3.421-1.055-4.819-0.422s-1.514,1.852-0.255,2.716c1.259,0.865,3.42,1.054,4.82,0.422
			C975.017,74.036,975.132,72.819,973.872,71.953z"/>
		<path fill="#EFE8D8" d="M975.189,80.379c-2.018-1.386-1.835-3.336,0.407-4.351c2.241-1.013,5.708-0.709,7.725,0.677
			c2.019,1.386,1.835,3.336-0.409,4.351C980.671,82.069,977.206,81.765,975.189,80.379z M981.793,77.396
			c-1.26-0.865-3.422-1.056-4.821-0.422c-1.397,0.632-1.514,1.851-0.255,2.714c1.259,0.865,3.42,1.054,4.821,0.423
			C982.938,79.478,983.05,78.261,981.793,77.396z"/>
		<path fill="#EFE8D8" d="M983.108,85.821c-2.017-1.385-1.834-3.336,0.407-4.35c2.243-1.015,5.709-0.712,7.727,0.676
			c2.018,1.386,1.834,3.339-0.409,4.352C988.592,87.511,985.125,87.209,983.108,85.821z M989.713,82.838
			c-1.26-0.865-3.421-1.055-4.82-0.421c-1.399,0.631-1.514,1.849-0.256,2.714c1.26,0.866,3.421,1.053,4.82,0.422
			C990.858,84.919,990.971,83.701,989.713,82.838z"/>
	</g>
</g>
<g>
	<g>
		<g>
			<path fill="#DDD8D3" d="M56.85,89.294c-0.83-0.57-1.251-1.269-1.187-1.966c0.065-0.698,0.61-1.313,1.533-1.73l87.97-39.753
				c1.904-0.86,4.849-0.604,6.564,0.573l116.721,80.207c0.001,0,0.002,0.001,0.003,0.001c0.829,0.57,1.251,1.269,1.186,1.967
				c-0.064,0.698-0.609,1.312-1.532,1.73l-87.968,39.752c-0.924,0.418-2.115,0.588-3.355,0.48c-1.238-0.108-2.381-0.482-3.209-1.052
				L56.852,89.296C56.852,89.295,56.851,89.294,56.85,89.294z M136.732,50.732L58.144,86.245c-0.646,0.292-1.025,0.72-1.07,1.206
				c-0.045,0.486,0.249,0.972,0.827,1.368c0,0.001,0.001,0.002,0.001,0.002l116.718,80.204c0.582,0.4,1.375,0.66,2.238,0.735
				c0.831,0.073,1.63-0.034,2.262-0.302l78.661-35.546L136.732,50.732z M137.783,50.257l121.05,83.182l8.326-3.763
				c0.646-0.293,1.023-0.72,1.069-1.206s-0.248-0.973-0.826-1.37l0,0L150.684,46.895c-1.197-0.821-3.247-1-4.573-0.4L137.783,50.257
				z"/>
		</g>
		<path fill="#DDD8D3" d="M146.034,52.649c-1.385-0.952-1.26-2.293,0.279-2.988c1.54-0.695,3.919-0.487,5.305,0.465
			c1.385,0.951,1.259,2.292-0.281,2.987C149.798,53.81,147.419,53.601,146.034,52.649z M150.567,50.601
			c-0.864-0.594-2.348-0.725-3.309-0.29c-0.96,0.434-1.039,1.271-0.175,1.864s2.348,0.724,3.309,0.29
			C151.354,52.03,151.432,51.194,150.567,50.601z"/>
		<path fill="#DDD8D3" d="M151.472,56.386c-1.385-0.952-1.26-2.292,0.279-2.988c1.54-0.695,3.919-0.487,5.304,0.465
			c1.386,0.951,1.26,2.292-0.28,2.987C155.235,57.546,152.856,57.337,151.472,56.386z M156.005,54.337
			c-0.864-0.594-2.349-0.725-3.31-0.29c-0.96,0.435-1.039,1.271-0.175,1.864s2.349,0.724,3.31,0.29
			C156.791,55.767,156.868,54.931,156.005,54.337z"/>
		<path fill="#DDD8D3" d="M156.909,60.121c-1.385-0.951-1.26-2.291,0.279-2.986c1.54-0.696,3.919-0.488,5.304,0.464
			c1.386,0.951,1.26,2.292-0.28,2.988C160.673,61.281,158.294,61.073,156.909,60.121z M161.442,58.073
			c-0.864-0.594-2.348-0.724-3.309-0.29c-0.961,0.435-1.04,1.271-0.176,1.864s2.349,0.724,3.31,0.29
			C162.229,59.503,162.307,58.667,161.442,58.073z"/>
	</g>
	<g>
		<g>
			<path fill="#DDD8D3" d="M278.889,89.802c-1.155-0.794-1.742-1.766-1.652-2.736c0.09-0.972,0.849-1.829,2.134-2.409
				l122.466-55.341c2.651-1.198,6.75-0.84,9.139,0.798l162.491,111.659c0.001,0,0.002,0.001,0.004,0.001
				c1.154,0.794,1.741,1.766,1.65,2.738c-0.09,0.972-0.849,1.827-2.134,2.409l-122.462,55.34c-1.286,0.582-2.945,0.818-4.671,0.669
				c-1.724-0.151-3.314-0.672-4.467-1.464L278.891,89.805C278.891,89.804,278.889,89.802,278.889,89.802z M390.095,36.12
				L280.69,85.558c-0.898,0.406-1.427,1.002-1.49,1.679c-0.062,0.677,0.347,1.353,1.151,1.904c0.001,0.001,0.001,0.003,0.002,0.003
				L442.84,200.799c0.811,0.558,1.915,0.919,3.116,1.024c1.157,0.102,2.269-0.048,3.148-0.421l109.507-49.484L390.095,36.12z
				 M391.558,35.458l168.518,115.8l11.592-5.238c0.898-0.408,1.425-1.002,1.488-1.679c0.064-0.677-0.345-1.354-1.15-1.907l0,0
				L409.517,30.777c-1.667-1.144-4.52-1.392-6.366-0.558L391.558,35.458z"/>
		</g>
		<path fill="#DDD8D3" d="M403.045,38.789c-1.928-1.326-1.755-3.192,0.389-4.16c2.144-0.968,5.456-0.679,7.385,0.647
			c1.928,1.324,1.752,3.191-0.392,4.159C408.284,40.403,404.973,40.113,403.045,38.789z M409.355,35.936
			c-1.203-0.827-3.269-1.009-4.606-0.404c-1.337,0.604-1.447,1.769-0.244,2.596c1.203,0.826,3.269,1.007,4.607,0.403
			C410.45,37.926,410.559,36.763,409.355,35.936z"/>
		<path fill="#DDD8D3" d="M410.614,43.99c-1.928-1.325-1.753-3.19,0.389-4.16c2.144-0.968,5.456-0.678,7.383,0.647
			c1.929,1.324,1.754,3.19-0.39,4.159C415.854,45.605,412.542,45.314,410.614,43.99z M416.925,41.138
			c-1.203-0.827-3.27-1.009-4.607-0.404c-1.336,0.605-1.446,1.769-0.243,2.595s3.27,1.007,4.607,0.404
			C418.02,43.128,418.127,41.964,416.925,41.138z"/>
		<path fill="#DDD8D3" d="M418.184,49.19c-1.928-1.324-1.754-3.189,0.389-4.157c2.144-0.969,5.456-0.68,7.384,0.646
			c1.929,1.324,1.753,3.191-0.39,4.16C423.424,50.805,420.112,50.516,418.184,49.19z M424.495,46.339
			c-1.203-0.826-3.269-1.007-4.606-0.403c-1.338,0.605-1.448,1.769-0.245,2.595s3.27,1.007,4.607,0.404
			C425.589,48.33,425.698,47.166,424.495,46.339z"/>
	</g>
	<g>
		<g>
			<path fill="#DDD8D3" d="M183.759,216.479c-1.155-0.793-1.742-1.766-1.652-2.736c0.09-0.972,0.849-1.828,2.134-2.408
				l122.466-55.342c2.651-1.198,6.75-0.84,9.139,0.798l162.491,111.659c0.001,0,0.002,0.001,0.004,0.001
				c1.154,0.794,1.741,1.767,1.65,2.738c-0.09,0.972-0.849,1.827-2.134,2.409l-122.462,55.34c-1.286,0.582-2.945,0.818-4.671,0.669
				c-1.724-0.151-3.314-0.672-4.467-1.464l-162.494-111.66C183.761,216.48,183.759,216.479,183.759,216.479z M294.965,162.796
				L185.56,212.234c-0.898,0.406-1.427,1.002-1.49,1.68c-0.062,0.677,0.347,1.353,1.151,1.904c0.001,0.002,0.001,0.003,0.002,0.003
				L347.71,327.476c0.811,0.558,1.915,0.919,3.116,1.024c1.157,0.102,2.269-0.048,3.148-0.421l109.507-49.483L294.965,162.796z
				 M296.428,162.134l168.518,115.799l11.592-5.237c0.898-0.408,1.425-1.002,1.488-1.679c0.064-0.678-0.345-1.354-1.15-1.908l0,0
				L314.387,157.454c-1.667-1.144-4.52-1.392-6.366-0.558L296.428,162.134z"/>
		</g>
		<path fill="#DDD8D3" d="M307.915,165.465c-1.928-1.326-1.755-3.192,0.389-4.16c2.144-0.968,5.456-0.679,7.385,0.647
			c1.928,1.324,1.752,3.191-0.392,4.159C313.154,167.08,309.843,166.79,307.915,165.465z M314.226,162.613
			c-1.203-0.827-3.269-1.009-4.606-0.404c-1.337,0.604-1.447,1.769-0.244,2.596c1.203,0.826,3.269,1.007,4.607,0.403
			C315.32,164.603,315.429,163.439,314.226,162.613z"/>
		<path fill="#DDD8D3" d="M315.484,170.667c-1.928-1.325-1.753-3.19,0.389-4.16c2.144-0.968,5.456-0.678,7.383,0.647
			c1.929,1.324,1.754,3.19-0.39,4.159C320.724,172.282,317.412,171.991,315.484,170.667z M321.795,167.814
			c-1.203-0.827-3.27-1.009-4.607-0.404c-1.336,0.605-1.446,1.769-0.243,2.595s3.27,1.007,4.607,0.404
			C322.89,169.805,322.997,168.641,321.795,167.814z"/>
		<path fill="#DDD8D3" d="M323.054,175.867c-1.928-1.324-1.754-3.189,0.389-4.157c2.144-0.969,5.456-0.68,7.384,0.646
			c1.929,1.324,1.753,3.191-0.39,4.16C328.294,177.482,324.982,177.192,323.054,175.867z M329.365,173.016
			c-1.203-0.826-3.269-1.007-4.606-0.403c-1.338,0.605-1.448,1.769-0.245,2.595s3.27,1.007,4.607,0.404
			C330.459,175.006,330.568,173.842,329.365,173.016z"/>
	</g>
	<g>
		<g>
			<path fill="#DDD8D3" d="M347.233,390.127c-1.155-0.793-1.742-1.766-1.652-2.736c0.09-0.972,0.849-1.828,2.134-2.408
				l122.466-55.342c2.651-1.197,6.75-0.84,9.139,0.798l162.492,111.659c0,0,0.002,0.001,0.004,0.001
				c1.154,0.794,1.74,1.767,1.65,2.738s-0.85,1.827-2.135,2.409l-122.462,55.34c-1.286,0.582-2.944,0.818-4.671,0.669
				c-1.725-0.151-3.314-0.672-4.468-1.464l-162.494-111.66C347.235,390.129,347.233,390.127,347.233,390.127z M458.439,336.445
				l-109.405,49.438c-0.898,0.406-1.427,1.002-1.49,1.68c-0.062,0.677,0.347,1.353,1.151,1.904c0.001,0.002,0.001,0.003,0.002,0.003
				l162.487,111.654c0.811,0.558,1.915,0.919,3.117,1.024c1.156,0.102,2.269-0.048,3.148-0.421l109.506-49.483L458.439,336.445z
				 M459.902,335.783L628.42,451.582l11.592-5.237c0.898-0.408,1.424-1.002,1.488-1.679c0.064-0.678-0.346-1.354-1.15-1.908l0,0
				L477.861,331.102c-1.667-1.143-4.52-1.392-6.366-0.557L459.902,335.783z"/>
		</g>
		<path fill="#DDD8D3" d="M471.389,339.113c-1.928-1.325-1.755-3.191,0.389-4.16c2.144-0.968,5.456-0.678,7.385,0.647
			c1.927,1.324,1.752,3.19-0.392,4.159C476.628,340.729,473.317,340.438,471.389,339.113z M477.7,336.262
			c-1.203-0.827-3.269-1.01-4.606-0.404c-1.337,0.604-1.447,1.77-0.244,2.596s3.269,1.008,4.607,0.403
			C478.794,338.252,478.903,337.088,477.7,336.262z"/>
		<path fill="#DDD8D3" d="M478.958,344.314c-1.928-1.324-1.753-3.189,0.389-4.16c2.144-0.967,5.455-0.678,7.383,0.648
			c1.93,1.324,1.754,3.189-0.39,4.158C484.198,345.93,480.887,345.639,478.958,344.314z M485.27,341.463
			c-1.203-0.826-3.27-1.009-4.607-0.404c-1.336,0.605-1.446,1.77-0.243,2.596s3.27,1.008,4.606,0.404
			C486.363,343.453,486.471,342.289,485.27,341.463z"/>
		<path fill="#DDD8D3" d="M486.528,349.516c-1.928-1.324-1.754-3.189,0.389-4.158c2.144-0.969,5.456-0.68,7.384,0.646
			c1.93,1.324,1.754,3.19-0.391,4.16C491.768,351.131,488.456,350.841,486.528,349.516z M492.84,346.664
			c-1.203-0.826-3.27-1.008-4.606-0.403c-1.338,0.604-1.448,1.769-0.245,2.595c1.203,0.827,3.27,1.008,4.607,0.404
			C493.934,348.654,494.043,347.49,492.84,346.664z"/>
	</g>
	<g>
		<g>
			<path fill="#DDD8D3" d="M-64.532,244.102c-1.293-0.888-1.95-1.978-1.85-3.064c0.101-1.088,0.95-2.047,2.389-2.696l137.124-61.965
				c2.969-1.34,7.558-0.94,10.232,0.894l181.94,125.023c0,0,0.002,0.001,0.004,0.001c1.292,0.89,1.948,1.979,1.848,3.066
				s-0.951,2.046-2.39,2.697l-137.119,61.964c-1.44,0.651-3.297,0.916-5.23,0.749c-1.931-0.17-3.711-0.752-5.002-1.64
				L-64.529,244.105C-64.529,244.104-64.531,244.102-64.532,244.102z M59.985,183.995l-122.5,55.355
				c-1.006,0.454-1.598,1.121-1.669,1.88c-0.07,0.758,0.388,1.515,1.289,2.133c0.001,0.002,0.001,0.003,0.002,0.003l181.935,125.019
				c0.908,0.624,2.144,1.028,3.49,1.146c1.295,0.114,2.54-0.054,3.525-0.471l122.612-55.406L59.985,183.995z M61.623,183.253
				L250.31,312.912l12.979-5.864c1.006-0.457,1.594-1.122,1.666-1.88c0.072-0.759-0.387-1.517-1.288-2.137l0,0L81.731,178.011
				c-1.866-1.279-5.061-1.558-7.128-0.623L61.623,183.253z"/>
		</g>
		<path fill="#DDD8D3" d="M74.485,186.982c-2.159-1.484-1.965-3.573,0.435-4.658c2.4-1.083,6.108-0.759,8.269,0.725
			c2.158,1.483,1.962,3.572-0.438,4.657C80.351,188.791,76.644,188.465,74.485,186.982z M81.55,183.789
			c-1.347-0.926-3.66-1.13-5.158-0.453c-1.498,0.676-1.62,1.981-0.272,2.906c1.347,0.925,3.66,1.128,5.158,0.452
			C82.776,186.018,82.897,184.714,81.55,183.789z"/>
		<path fill="#DDD8D3" d="M82.96,192.806c-2.159-1.483-1.963-3.571,0.436-4.658c2.4-1.083,6.108-0.759,8.267,0.726
			c2.161,1.483,1.964,3.571-0.437,4.656C88.827,194.614,85.119,194.289,82.96,192.806z M90.026,189.613
			c-1.347-0.925-3.661-1.129-5.159-0.453c-1.497,0.678-1.62,1.981-0.272,2.906c1.347,0.925,3.661,1.128,5.158,0.453
			C91.251,191.841,91.371,190.538,90.026,189.613z"/>
		<path fill="#DDD8D3" d="M91.436,198.629c-2.158-1.483-1.963-3.571,0.436-4.656c2.4-1.085,6.109-0.761,8.268,0.724
			c2.161,1.483,1.964,3.572-0.438,4.658C97.302,200.438,93.594,200.113,91.436,198.629z M98.503,195.437
			c-1.347-0.925-3.661-1.128-5.158-0.452c-1.498,0.677-1.622,1.98-0.274,2.905c1.347,0.926,3.661,1.128,5.159,0.453
			C99.728,197.665,99.85,196.361,98.503,195.437z"/>
	</g>
	<g>
		<g>
			<path fill="#DDD8D3" d="M104.728,439.337c-1.293-0.888-1.95-1.978-1.85-3.064c0.101-1.088,0.95-2.047,2.389-2.696l137.124-61.965
				c2.969-1.341,7.558-0.941,10.232,0.893l181.94,125.023c0,0,0.002,0.001,0.004,0.001c1.292,0.89,1.948,1.979,1.848,3.066
				s-0.951,2.046-2.39,2.697l-137.119,61.964c-1.44,0.651-3.297,0.916-5.23,0.749c-1.931-0.17-3.711-0.752-5.002-1.64
				L104.73,439.341C104.73,439.339,104.728,439.337,104.728,439.337z M229.244,379.23l-122.5,55.354
				c-1.006,0.454-1.598,1.121-1.669,1.88c-0.07,0.758,0.388,1.515,1.289,2.133c0.001,0.002,0.001,0.003,0.002,0.003l181.935,125.019
				c0.908,0.624,2.144,1.028,3.49,1.146c1.295,0.114,2.54-0.054,3.525-0.471l122.612-55.406L229.244,379.23z M230.882,378.488
				l188.688,129.659l12.979-5.864c1.006-0.457,1.594-1.122,1.666-1.88c0.072-0.759-0.387-1.517-1.288-2.137l0,0L250.991,373.246
				c-1.866-1.279-5.061-1.558-7.128-0.623L230.882,378.488z"/>
		</g>
		<path fill="#DDD8D3" d="M243.744,382.217c-2.159-1.483-1.965-3.572,0.435-4.658c2.4-1.083,6.108-0.758,8.269,0.726
			c2.158,1.483,1.962,3.572-0.438,4.657C249.61,384.025,245.903,383.7,243.744,382.217z M250.81,379.024
			c-1.347-0.927-3.66-1.13-5.158-0.452c-1.498,0.676-1.62,1.98-0.272,2.906c1.347,0.925,3.66,1.128,5.158,0.451
			C252.035,381.253,252.157,379.949,250.81,379.024z"/>
		<path fill="#DDD8D3" d="M252.219,388.041c-2.159-1.482-1.963-3.571,0.436-4.658c2.4-1.082,6.108-0.759,8.267,0.727
			c2.161,1.482,1.964,3.57-0.437,4.655C258.086,389.85,254.378,389.523,252.219,388.041z M259.286,384.848
			c-1.347-0.925-3.661-1.129-5.159-0.452c-1.497,0.678-1.62,1.981-0.272,2.906s3.661,1.128,5.158,0.452
			C260.51,387.076,260.63,385.773,259.286,384.848z"/>
		<path fill="#DDD8D3" d="M260.695,393.865c-2.158-1.483-1.963-3.572,0.436-4.656c2.4-1.085,6.109-0.762,8.268,0.724
			c2.161,1.483,1.964,3.572-0.438,4.658C266.562,395.674,262.854,395.349,260.695,393.865z M267.762,390.672
			c-1.347-0.926-3.661-1.129-5.158-0.451c-1.498,0.676-1.622,1.98-0.274,2.904c1.347,0.927,3.661,1.129,5.159,0.453
			C268.987,392.9,269.109,391.597,267.762,390.672z"/>
	</g>
	<g>
		<g>
			<path fill="#DDD8D3" d="M674.124,419.254c-1.293-0.888-1.95-1.978-1.851-3.064c0.102-1.088,0.951-2.047,2.39-2.696
				l137.124-61.965c2.969-1.341,7.558-0.941,10.232,0.893l181.939,125.023c0,0,0.002,0.001,0.005,0.001
				c1.292,0.89,1.948,1.979,1.848,3.066s-0.951,2.046-2.39,2.697l-137.119,61.964c-1.441,0.651-3.297,0.916-5.23,0.749
				c-1.932-0.17-3.711-0.752-5.002-1.64L674.127,419.258C674.127,419.256,674.125,419.254,674.124,419.254z M798.641,359.147
				l-122.5,55.354c-1.006,0.454-1.598,1.121-1.668,1.88c-0.07,0.758,0.388,1.515,1.289,2.133c0,0.002,0.001,0.003,0.002,0.003
				l181.934,125.019c0.908,0.624,2.145,1.028,3.49,1.146c1.295,0.114,2.541-0.054,3.525-0.471l122.613-55.406L798.641,359.147z
				 M800.278,358.405l188.688,129.659l12.979-5.864c1.006-0.457,1.594-1.122,1.666-1.88c0.072-0.759-0.387-1.517-1.288-2.137l0,0
				L820.387,353.163c-1.865-1.279-5.061-1.558-7.127-0.623L800.278,358.405z"/>
		</g>
		<path fill="#DDD8D3" d="M813.141,362.134c-2.159-1.483-1.965-3.572,0.436-4.658c2.4-1.083,6.107-0.758,8.268,0.726
			c2.158,1.483,1.963,3.572-0.438,4.657C819.007,363.942,815.299,363.617,813.141,362.134z M820.206,358.941
			c-1.347-0.927-3.66-1.13-5.157-0.452c-1.498,0.676-1.62,1.98-0.273,2.906c1.348,0.925,3.66,1.128,5.158,0.451
			S821.553,359.866,820.206,358.941z"/>
		<path fill="#DDD8D3" d="M821.615,367.958c-2.158-1.482-1.963-3.571,0.436-4.658c2.4-1.082,6.109-0.759,8.268,0.727
			c2.16,1.482,1.963,3.57-0.438,4.655C827.482,369.767,823.775,369.44,821.615,367.958z M828.682,364.765
			c-1.347-0.925-3.66-1.129-5.158-0.452c-1.496,0.678-1.619,1.981-0.272,2.906s3.661,1.128,5.157,0.452
			C829.906,366.993,830.027,365.69,828.682,364.765z"/>
		<path fill="#DDD8D3" d="M830.092,373.782c-2.158-1.483-1.964-3.572,0.436-4.656c2.399-1.085,6.108-0.762,8.268,0.724
			c2.16,1.483,1.963,3.572-0.438,4.658C835.958,375.591,832.25,375.266,830.092,373.782z M837.158,370.589
			c-1.347-0.926-3.66-1.129-5.158-0.451c-1.498,0.676-1.621,1.98-0.273,2.904c1.347,0.927,3.66,1.129,5.158,0.453
			C838.383,372.817,838.506,371.514,837.158,370.589z"/>
	</g>
	<g>
		<g>
			<path fill="#DDD8D3" d="M77.325-95.933c-1.293-0.888-1.95-1.978-1.851-3.064c0.102-1.088,0.951-2.047,2.39-2.696l137.124-61.965
				c2.969-1.341,7.558-0.941,10.232,0.893L407.16-37.742c0,0,0.002,0.001,0.005,0.001c1.292,0.89,1.948,1.979,1.848,3.066
				s-0.951,2.046-2.39,2.697L269.503,29.986c-1.441,0.651-3.297,0.916-5.23,0.749c-1.932-0.17-3.711-0.752-5.002-1.64L77.328-95.929
				C77.328-95.931,77.326-95.933,77.325-95.933z M201.841-156.039l-122.5,55.354c-1.006,0.454-1.598,1.121-1.668,1.88
				c-0.07,0.758,0.388,1.515,1.289,2.133c0,0.002,0.001,0.003,0.002,0.003L260.898,28.35c0.908,0.624,2.145,1.028,3.49,1.146
				c1.295,0.114,2.541-0.054,3.525-0.471l122.613-55.406L201.841-156.039z M203.479-156.781L392.167-27.122l12.979-5.864
				c1.006-0.457,1.594-1.122,1.666-1.88c0.072-0.759-0.387-1.517-1.288-2.137l0,0L223.587-162.023
				c-1.865-1.279-5.061-1.558-7.127-0.623L203.479-156.781z"/>
		</g>
		<path fill="#DDD8D3" d="M216.341-153.053c-2.159-1.483-1.965-3.572,0.436-4.658c2.4-1.083,6.107-0.758,8.268,0.726
			c2.158,1.483,1.963,3.572-0.438,4.657C222.208-151.244,218.5-151.569,216.341-153.053z M223.407-156.245
			c-1.347-0.927-3.66-1.13-5.157-0.452c-1.498,0.676-1.62,1.98-0.273,2.906c1.348,0.925,3.66,1.128,5.158,0.451
			S224.753-155.32,223.407-156.245z"/>
		<path fill="#DDD8D3" d="M224.816-147.229c-2.158-1.482-1.963-3.571,0.436-4.658c2.4-1.082,6.109-0.759,8.268,0.727
			c2.16,1.482,1.963,3.57-0.438,4.655C230.683-145.42,226.976-145.746,224.816-147.229z M231.882-150.422
			c-1.347-0.925-3.66-1.129-5.158-0.452c-1.496,0.678-1.619,1.981-0.272,2.906s3.661,1.128,5.157,0.452
			C233.107-148.193,233.228-149.496,231.882-150.422z"/>
		<path fill="#DDD8D3" d="M233.292-141.404c-2.158-1.483-1.964-3.572,0.436-4.656c2.399-1.085,6.108-0.762,8.268,0.724
			c2.16,1.483,1.963,3.572-0.438,4.658C239.159-139.596,235.451-139.921,233.292-141.404z M240.359-144.598
			c-1.347-0.926-3.66-1.129-5.158-0.451c-1.498,0.676-1.621,1.98-0.273,2.904c1.347,0.927,3.66,1.129,5.158,0.453
			C241.583-142.369,241.707-143.673,240.359-144.598z"/>
	</g>
	<g>
		<g>
			<path fill="#DDD8D3" d="M325.496-71.521c-1.293-0.888-1.95-1.978-1.851-3.064c0.102-1.088,0.951-2.047,2.39-2.696l137.124-61.965
				c2.969-1.341,7.558-0.941,10.232,0.893L655.33-13.33c0,0,0.002,0.001,0.006,0.001c1.291,0.89,1.947,1.979,1.848,3.066
				c-0.102,1.088-0.951,2.046-2.391,2.697L517.674,54.398c-1.441,0.651-3.297,0.916-5.23,0.749c-1.932-0.17-3.711-0.752-5.002-1.64
				L325.499-71.517C325.499-71.519,325.497-71.521,325.496-71.521z M450.012-131.627l-122.5,55.354
				c-1.006,0.454-1.598,1.121-1.668,1.88c-0.07,0.758,0.388,1.515,1.289,2.133c0,0.002,0.001,0.003,0.002,0.003L509.068,52.762
				c0.908,0.624,2.145,1.028,3.49,1.146c1.295,0.114,2.541-0.054,3.525-0.471L638.697-1.969L450.012-131.627z M451.65-132.369
				L640.338-2.71l12.979-5.864c1.006-0.457,1.594-1.122,1.666-1.88c0.072-0.759-0.387-1.517-1.287-2.137l0,0L471.758-137.611
				c-1.865-1.279-5.061-1.558-7.127-0.623L451.65-132.369z"/>
		</g>
		<path fill="#DDD8D3" d="M464.512-128.641c-2.159-1.483-1.965-3.572,0.436-4.658c2.4-1.083,6.107-0.758,8.268,0.726
			c2.158,1.483,1.963,3.572-0.438,4.657C470.378-126.832,466.67-127.157,464.512-128.641z M471.578-131.833
			c-1.347-0.927-3.66-1.13-5.157-0.452c-1.498,0.676-1.62,1.98-0.273,2.906c1.348,0.925,3.66,1.128,5.158,0.451
			S472.924-130.908,471.578-131.833z"/>
		<path fill="#DDD8D3" d="M472.987-122.816c-2.158-1.482-1.963-3.571,0.436-4.658c2.4-1.082,6.109-0.759,8.267,0.727
			c2.16,1.482,1.963,3.57-0.438,4.655C478.854-121.008,475.147-121.334,472.987-122.816z M480.053-126.01
			c-1.347-0.925-3.66-1.129-5.158-0.452c-1.496,0.678-1.619,1.981-0.272,2.906s3.661,1.128,5.157,0.452
			C481.277-123.781,481.398-125.084,480.053-126.01z"/>
		<path fill="#DDD8D3" d="M481.463-116.992c-2.158-1.483-1.963-3.572,0.436-4.656c2.4-1.085,6.109-0.762,8.268,0.724
			c2.16,1.483,1.963,3.572-0.438,4.658C487.33-115.184,483.621-115.509,481.463-116.992z M488.529-120.186
			c-1.346-0.926-3.66-1.129-5.158-0.451c-1.498,0.676-1.621,1.98-0.273,2.904c1.348,0.927,3.66,1.129,5.158,0.453
			C489.754-117.957,489.877-119.261,488.529-120.186z"/>
	</g>
	<g>
		<g>
			<path fill="#DDD8D3" d="M496.184,247.547c-1.154-0.793-1.742-1.766-1.652-2.736c0.09-0.972,0.849-1.828,2.134-2.408
				l122.466-55.342c2.651-1.198,6.75-0.84,9.139,0.798l162.491,111.659c0.001,0,0.002,0.001,0.004,0.001
				c1.154,0.794,1.741,1.767,1.65,2.738c-0.09,0.972-0.849,1.827-2.134,2.409l-122.463,55.34c-1.285,0.582-2.944,0.818-4.671,0.669
				c-1.724-0.151-3.314-0.672-4.468-1.464l-162.494-111.66C496.186,247.549,496.184,247.547,496.184,247.547z M607.391,193.865
				l-109.406,49.438c-0.898,0.406-1.426,1.002-1.49,1.68c-0.062,0.677,0.348,1.353,1.151,1.904c0.001,0.002,0.001,0.003,0.002,0.003
				l162.487,111.654c0.811,0.558,1.914,0.919,3.116,1.024c1.157,0.102,2.269-0.048,3.148-0.421l109.507-49.483L607.391,193.865z
				 M608.853,193.203L777.37,309.002l11.592-5.237c0.898-0.408,1.425-1.002,1.488-1.679c0.064-0.678-0.345-1.354-1.15-1.908l0,0
				L626.812,188.522c-1.667-1.144-4.521-1.392-6.367-0.558L608.853,193.203z"/>
		</g>
		<path fill="#DDD8D3" d="M620.34,196.534c-1.928-1.326-1.755-3.192,0.389-4.16c2.145-0.968,5.455-0.679,7.385,0.647
			c1.928,1.324,1.752,3.191-0.392,4.159C625.579,198.148,622.268,197.858,620.34,196.534z M626.65,193.681
			c-1.203-0.827-3.27-1.009-4.606-0.404c-1.337,0.604-1.446,1.769-0.243,2.596c1.203,0.826,3.269,1.007,4.606,0.403
			C627.744,195.671,627.854,194.508,626.65,193.681z"/>
		<path fill="#DDD8D3" d="M627.909,201.734c-1.928-1.325-1.753-3.19,0.39-4.16c2.143-0.968,5.455-0.678,7.383,0.647
			c1.93,1.324,1.754,3.19-0.391,4.159C633.148,203.35,629.837,203.059,627.909,201.734z M634.221,198.883
			c-1.203-0.827-3.27-1.009-4.607-0.404c-1.337,0.605-1.447,1.769-0.244,2.595c1.203,0.826,3.27,1.008,4.607,0.404
			C635.314,200.873,635.422,199.709,634.221,198.883z"/>
		<path fill="#DDD8D3" d="M635.479,206.936c-1.928-1.324-1.754-3.189,0.389-4.158c2.145-0.969,5.457-0.68,7.385,0.646
			c1.929,1.324,1.753,3.19-0.391,4.16C640.719,208.551,637.406,208.261,635.479,206.936z M641.79,204.084
			c-1.203-0.826-3.269-1.008-4.606-0.403s-1.447,1.769-0.244,2.595c1.203,0.827,3.27,1.008,4.607,0.404
			C642.885,206.074,642.993,204.91,641.79,204.084z"/>
	</g>
	<g>
		<g>
			<path fill="#DDD8D3" d="M542.802,89.802c-1.154-0.793-1.742-1.766-1.652-2.736c0.09-0.972,0.849-1.828,2.134-2.408
				l122.466-55.342c2.651-1.198,6.75-0.84,9.139,0.798l162.491,111.659c0.001,0,0.002,0.001,0.004,0.001
				c1.154,0.794,1.741,1.767,1.65,2.738c-0.09,0.972-0.849,1.827-2.134,2.409l-122.463,55.34c-1.285,0.582-2.944,0.818-4.671,0.669
				c-1.724-0.151-3.314-0.672-4.468-1.464L542.804,89.806C542.804,89.804,542.802,89.802,542.802,89.802z M654.009,36.12
				L544.603,85.558c-0.898,0.406-1.426,1.002-1.49,1.68c-0.062,0.677,0.348,1.353,1.151,1.904c0.001,0.002,0.001,0.003,0.002,0.003
				l162.487,111.654c0.811,0.558,1.914,0.919,3.116,1.024c1.157,0.102,2.269-0.048,3.148-0.421l109.507-49.483L654.009,36.12z
				 M655.471,35.458l168.518,115.799l11.592-5.237c0.898-0.408,1.425-1.002,1.488-1.679c0.064-0.678-0.345-1.354-1.15-1.908l0,0
				L673.431,30.777c-1.667-1.144-4.521-1.392-6.367-0.558L655.471,35.458z"/>
		</g>
		<path fill="#DDD8D3" d="M666.958,38.789c-1.928-1.326-1.755-3.192,0.389-4.16c2.145-0.968,5.455-0.679,7.385,0.647
			c1.928,1.324,1.752,3.191-0.392,4.159C672.197,40.403,668.886,40.113,666.958,38.789z M673.269,35.936
			c-1.203-0.827-3.27-1.009-4.606-0.404c-1.337,0.604-1.446,1.769-0.243,2.596c1.203,0.826,3.269,1.007,4.606,0.403
			C674.362,37.926,674.472,36.763,673.269,35.936z"/>
		<path fill="#DDD8D3" d="M674.527,43.989c-1.928-1.325-1.753-3.19,0.39-4.16c2.143-0.968,5.455-0.678,7.383,0.647
			c1.93,1.324,1.754,3.19-0.391,4.159C679.767,45.604,676.455,45.313,674.527,43.989z M680.839,41.138
			c-1.203-0.827-3.27-1.009-4.607-0.404c-1.337,0.605-1.447,1.769-0.244,2.595c1.203,0.826,3.27,1.008,4.607,0.404
			C681.933,43.128,682.04,41.964,680.839,41.138z"/>
		<path fill="#DDD8D3" d="M682.097,49.19c-1.928-1.324-1.754-3.189,0.389-4.158c2.145-0.969,5.457-0.68,7.385,0.646
			c1.929,1.324,1.753,3.19-0.391,4.16C687.337,50.806,684.024,50.516,682.097,49.19z M688.408,46.339
			c-1.203-0.826-3.269-1.008-4.606-0.403s-1.447,1.769-0.244,2.595c1.203,0.827,3.27,1.008,4.607,0.404
			C689.503,48.329,689.611,47.165,688.408,46.339z"/>
	</g>
	<g>
		<g>
			<path fill="#DDD8D3" d="M751.033,236.391c-0.943-0.648-1.425-1.443-1.351-2.237c0.073-0.794,0.693-1.495,1.744-1.97
				l100.141-45.252c2.168-0.979,5.52-0.687,7.473,0.652l132.869,91.303c0,0,0.001,0.002,0.003,0.002
				c0.943,0.648,1.424,1.443,1.35,2.239c-0.073,0.794-0.694,1.493-1.745,1.969l-100.138,45.252
				c-1.051,0.476-2.407,0.669-3.819,0.548c-1.409-0.125-2.71-0.55-3.653-1.198l-132.871-91.305
				C751.035,236.393,751.033,236.391,751.033,236.391z M841.967,192.495l-89.461,40.425c-0.734,0.333-1.166,0.819-1.219,1.374
				c-0.051,0.554,0.284,1.106,0.941,1.557c0.001,0.002,0.001,0.004,0.002,0.004l132.865,91.299c0.663,0.456,1.565,0.751,2.549,0.837
				c0.946,0.083,1.854-0.038,2.574-0.343l89.544-40.464L841.967,192.495z M843.163,191.954l137.796,94.688l9.479-4.282
				c0.735-0.333,1.165-0.819,1.218-1.373s-0.282-1.106-0.941-1.561l0,0l-132.865-91.3c-1.363-0.935-3.696-1.138-5.207-0.456
				L843.163,191.954z"/>
		</g>
		<path fill="#DDD8D3" d="M852.556,194.678c-1.576-1.084-1.435-2.61,0.318-3.401c1.753-0.792,4.46-0.556,6.038,0.528
			c1.576,1.083,1.433,2.609-0.32,3.4C856.84,195.998,854.132,195.761,852.556,194.678z M857.716,192.345
			c-0.983-0.676-2.674-0.824-3.767-0.33s-1.183,1.447-0.199,2.123c0.984,0.676,2.673,0.823,3.768,0.33
			C858.61,193.973,858.7,193.021,857.716,192.345z"/>
		<path fill="#DDD8D3" d="M858.745,198.93c-1.576-1.083-1.434-2.607,0.318-3.4c1.752-0.792,4.461-0.555,6.037,0.529
			c1.578,1.083,1.435,2.607-0.319,3.4C863.029,200.251,860.321,200.013,858.745,198.93z M863.906,196.599
			c-0.984-0.676-2.674-0.825-3.768-0.33c-1.093,0.494-1.184,1.446-0.199,2.121c0.983,0.676,2.673,0.824,3.768,0.331
			C864.801,198.226,864.889,197.274,863.906,196.599z"/>
		<path fill="#DDD8D3" d="M864.935,203.183c-1.576-1.082-1.434-2.607,0.318-3.399c1.753-0.793,4.462-0.557,6.038,0.528
			c1.577,1.083,1.434,2.609-0.319,3.401C869.22,204.504,866.511,204.268,864.935,203.183z M870.096,200.852
			c-0.984-0.676-2.673-0.824-3.767-0.329c-1.094,0.493-1.184,1.445-0.2,2.121c0.984,0.677,2.674,0.823,3.768,0.33
			C870.991,202.479,871.079,201.526,870.096,200.852z"/>
	</g>
	<g>
		<g>
			<path fill="#DDD8D3" d="M671.985-21.251c-0.943-0.648-1.425-1.443-1.351-2.237c0.073-0.794,0.693-1.495,1.744-1.97L772.52-70.71
				c2.168-0.979,5.52-0.687,7.473,0.652l132.869,91.303c0,0,0.001,0.002,0.003,0.002c0.943,0.648,1.424,1.443,1.35,2.239
				c-0.073,0.794-0.694,1.493-1.745,1.969L812.331,70.707c-1.051,0.476-2.407,0.669-3.819,0.548c-1.409-0.125-2.71-0.55-3.653-1.198
				L671.987-21.248C671.987-21.249,671.985-21.251,671.985-21.251z M762.919-65.146l-89.461,40.425
				c-0.734,0.333-1.166,0.819-1.219,1.374c-0.051,0.554,0.284,1.106,0.941,1.557c0.001,0.002,0.001,0.004,0.002,0.004
				l132.865,91.299c0.663,0.456,1.565,0.751,2.549,0.837c0.946,0.083,1.854-0.038,2.574-0.343l89.544-40.464L762.919-65.146z
				 M764.115-65.688l137.796,94.688l9.479-4.282c0.735-0.333,1.165-0.819,1.218-1.373s-0.282-1.106-0.941-1.561l0,0l-132.865-91.3
				c-1.363-0.935-3.696-1.138-5.207-0.456L764.115-65.688z"/>
		</g>
		<path fill="#DDD8D3" d="M773.508-62.964c-1.576-1.084-1.435-2.61,0.318-3.401c1.753-0.792,4.46-0.556,6.038,0.528
			c1.576,1.083,1.433,2.609-0.32,3.4C777.792-61.644,775.084-61.881,773.508-62.964z M778.668-65.297
			c-0.983-0.676-2.674-0.824-3.767-0.33s-1.183,1.447-0.199,2.123c0.984,0.676,2.673,0.823,3.768,0.33
			C779.562-63.669,779.652-64.62,778.668-65.297z"/>
		<path fill="#DDD8D3" d="M779.697-58.712c-1.576-1.083-1.434-2.607,0.318-3.4c1.752-0.792,4.461-0.555,6.037,0.529
			c1.578,1.083,1.435,2.607-0.319,3.4C783.981-57.391,781.273-57.629,779.697-58.712z M784.858-61.043
			c-0.984-0.676-2.674-0.825-3.768-0.33c-1.093,0.494-1.184,1.446-0.199,2.121c0.983,0.676,2.673,0.824,3.768,0.331
			C785.753-59.416,785.841-60.367,784.858-61.043z"/>
		<path fill="#DDD8D3" d="M785.887-54.459c-1.576-1.082-1.434-2.607,0.318-3.399c1.753-0.793,4.462-0.557,6.038,0.528
			c1.577,1.083,1.434,2.609-0.319,3.401C790.172-53.138,787.463-53.374,785.887-54.459z M791.048-56.79
			c-0.984-0.676-2.673-0.824-3.767-0.329c-1.094,0.493-1.184,1.445-0.2,2.121c0.984,0.677,2.674,0.823,3.768,0.33
			C791.943-55.163,792.031-56.115,791.048-56.79z"/>
	</g>
	<g>
		<g>
			<path fill="#DDD8D3" d="M837.368,118.312c-1.207-0.83-1.823-1.847-1.729-2.863c0.094-1.016,0.888-1.913,2.231-2.521
				l128.134-57.901c2.774-1.253,7.062-0.879,9.562,0.835l170.011,116.825c0,0,0.001,0.002,0.003,0.002
				c1.208,0.83,1.822,1.847,1.728,2.865c-0.094,1.016-0.889,1.911-2.233,2.519l-128.129,57.901c-1.345,0.608-3.08,0.856-4.888,0.701
				c-1.803-0.16-3.467-0.704-4.674-1.533L837.37,118.315C837.37,118.314,837.368,118.312,837.368,118.312z M953.721,62.146
				l-114.469,51.725c-0.939,0.426-1.491,1.048-1.559,1.758c-0.065,0.708,0.363,1.416,1.204,1.992
				c0.001,0.003,0.001,0.005,0.003,0.005l170.005,116.82c0.849,0.583,2.003,0.961,3.262,1.07c1.211,0.106,2.373-0.048,3.294-0.438
				l114.574-51.774L953.721,62.146z M955.251,61.453l176.314,121.157l12.128-5.479c0.941-0.426,1.491-1.049,1.559-1.757
				c0.067-0.708-0.361-1.416-1.205-1.997l0,0L974.042,56.556c-1.744-1.196-4.729-1.456-6.663-0.583L955.251,61.453z"/>
		</g>
		<path fill="#DDD8D3" d="M967.27,64.938c-2.017-1.387-1.836-3.34,0.407-4.353c2.243-1.013,5.707-0.711,7.726,0.676
			c2.018,1.386,1.833,3.339-0.409,4.351C972.751,66.627,969.286,66.324,967.27,64.938z M973.872,61.953
			c-1.259-0.865-3.421-1.055-4.819-0.422s-1.514,1.852-0.255,2.716c1.259,0.865,3.42,1.054,4.82,0.422
			C975.017,64.036,975.132,62.819,973.872,61.953z"/>
		<path fill="#DDD8D3" d="M975.189,70.379c-2.018-1.386-1.835-3.336,0.407-4.351c2.241-1.013,5.708-0.709,7.725,0.677
			c2.019,1.386,1.835,3.336-0.409,4.351C980.671,72.069,977.206,71.765,975.189,70.379z M981.793,67.396
			c-1.26-0.865-3.422-1.056-4.821-0.422c-1.397,0.632-1.514,1.851-0.255,2.714c1.259,0.865,3.42,1.054,4.821,0.423
			C982.938,69.478,983.05,68.261,981.793,67.396z"/>
		<path fill="#DDD8D3" d="M983.108,75.821c-2.017-1.385-1.834-3.336,0.407-4.35c2.243-1.015,5.709-0.712,7.727,0.676
			c2.018,1.386,1.834,3.339-0.409,4.352C988.592,77.511,985.125,77.209,983.108,75.821z M989.713,72.838
			c-1.26-0.865-3.421-1.055-4.82-0.421c-1.399,0.631-1.514,1.849-0.256,2.714c1.26,0.866,3.421,1.053,4.82,0.422
			C990.858,74.919,990.971,73.701,989.713,72.838z"/>
	</g>
</g>
<g>
	<g>
		<path fill="#EFE8D8" d="M370.96-250.018c-1.756,0-3.408-0.684-4.65-1.925c-1.244-1.242-1.929-2.896-1.93-4.655v-167.561
			c-0.001-3.628,2.95-6.583,6.578-6.585h247.122c0.001,0,0.003,0,0.005,0c1.756,0,3.407,0.684,4.65,1.925
			c1.243,1.243,1.929,2.896,1.93,4.654l0.002,167.56c0.001,1.759-0.684,3.412-1.926,4.657c-1.242,1.244-2.896,1.93-4.652,1.93
			H370.964C370.963-250.018,370.961-250.018,370.96-250.018z M366.379-406.296v149.692c0.001,1.23,0.478,2.381,1.344,3.247
			c0.865,0.864,2.015,1.339,3.238,1.339c0.001,0,0.002,0,0.003,0h247.115c1.231,0,2.381-0.477,3.246-1.343
			c0.833-0.833,1.305-1.931,1.339-3.104v-149.831H366.379z M366.379-408.296h256.285v-15.862c-0.001-1.23-0.479-2.38-1.344-3.246
			c-0.865-0.864-2.015-1.34-3.238-1.34h-0.002H370.964c-2.532,0.001-4.586,2.058-4.585,4.584V-408.296z"/>
	</g>
	<path fill="#EFE8D8" d="M377.755-413.778c-2.933,0-5.318-2.386-5.318-5.318s2.386-5.318,5.318-5.318
		c2.932,0,5.318,2.386,5.318,5.318S380.688-413.778,377.755-413.778z M377.755-422.414c-1.83,0-3.318,1.488-3.318,3.318
		s1.489,3.318,3.318,3.318s3.318-1.488,3.318-3.318S379.585-422.414,377.755-422.414z"/>
	<path fill="#EFE8D8" d="M389.267-413.778c-2.932,0-5.318-2.386-5.318-5.318s2.386-5.318,5.318-5.318
		c2.933,0,5.318,2.386,5.318,5.318S392.2-413.778,389.267-413.778z M389.267-422.414c-1.83,0-3.318,1.488-3.318,3.318
		s1.488,3.318,3.318,3.318s3.318-1.488,3.318-3.318S391.097-422.414,389.267-422.414z"/>
	<path fill="#EFE8D8" d="M400.779-413.778c-2.932,0-5.318-2.386-5.318-5.318s2.386-5.318,5.318-5.318s5.318,2.386,5.318,5.318
		S403.711-413.778,400.779-413.778z M400.779-422.414c-1.83,0-3.318,1.488-3.318,3.318s1.488,3.318,3.318,3.318
		s3.318-1.488,3.318-3.318S402.609-422.414,400.779-422.414z"/>
</g>
</svg>
