<?xml version="1.0" standalone="no"?>
<!DOCTYPE svg PUBLIC "-//W3C//DTD SVG 1.1//EN" "http://www.w3.org/Graphics/SVG/1.1/DTD/svg11.dtd" >
<svg xmlns="http://www.w3.org/2000/svg">
<metadata></metadata>
<defs>
<font id="facitregular" horiz-adv-x="1132" >
<font-face units-per-em="2048" ascent="1638" descent="-410" />
<missing-glyph horiz-adv-x="440" />
<glyph unicode="&#xfb01;" horiz-adv-x="1216" d="M72 829v162h182v70q0 80 11.5 143t42 122t81 98.5t133 63t193.5 23.5q207 0 336 -90l-72 -139q-113 70 -279 70q-60 0 -103.5 -7.5t-72.5 -25t-46.5 -38.5t-26.5 -56.5t-12 -69.5t-3 -86v-78h613v-991h-185v829h-428v-829h-182v829h-182z" />
<glyph unicode="&#xfb03;" horiz-adv-x="1822" d="M72 831v158h180v90q0 201 82 306.5t270 105.5q79 0 133 -25l-41 -153q-44 16 -100 16q-45 0 -75.5 -12.5t-48 -31.5t-26.5 -55.5t-11.5 -71.5t-2.5 -91v-78h432v72q0 66 7.5 120t26 106.5t52 91.5t82.5 70t121.5 46.5t165.5 15.5q207 0 336 -90l-72 -139q-116 70 -278 70 q-60 0 -103.5 -7.5t-72.5 -25.5t-46.5 -39t-26.5 -56.5t-11.5 -69t-2.5 -85.5v-80h611v-989h-183v831h-428v-831h-178v831h-432v-831h-180v831h-180z" />
<glyph horiz-adv-x="2048" />
<glyph horiz-adv-x="2048" />
<glyph unicode="&#xd;" horiz-adv-x="2048" />
<glyph unicode=" "  horiz-adv-x="440" />
<glyph unicode="&#x09;" horiz-adv-x="440" />
<glyph unicode="&#xa0;" horiz-adv-x="440" />
<glyph unicode="!" horiz-adv-x="653" d="M244 104q0 51 33 85t85 34q51 0 85 -34t34 -85t-34 -83.5t-85 -32.5t-84.5 32.5t-33.5 83.5zM262 1413h201l-17 -1007h-170z" />
<glyph unicode="&#x22;" horiz-adv-x="827" d="M160 1413h182l-8 -448h-166zM487 1413h183l-8 -448h-168z" />
<glyph unicode="#" d="M18 375v149h203l49 363h-184v149h207l51 377h164l-53 -377h293l51 377h162l-52 -377h181v-149h-205l-49 -363h186v-149h-209l-51 -375h-164l53 375h-291l-53 -375h-162l54 375h-181zM383 524h293l47 363h-291z" />
<glyph unicode="$" d="M100 180l103 142q67 -51 160 -77t188 -26q262 0 262 197q0 49 -23.5 87t-63.5 64.5t-92 48.5t-109.5 42t-115 42.5t-109.5 53t-92 69.5t-63.5 96.5t-23.5 129.5q0 166 133 260q84 61 215 84v174h195l-2 -168q190 -18 307 -105l-95 -139q-125 82 -307 82q-250 0 -250 -184 q0 -44 23.5 -79.5t64 -60t92.5 -45.5t109.5 -41t114.5 -43t109 -55t92.5 -71.5t64 -99t23.5 -132.5q0 -180 -144 -279q-82 -59 -204 -81l2 -179h-195v166q-107 7 -206.5 38t-162.5 89z" />
<glyph unicode="%" horiz-adv-x="1775" d="M109 1034q0 216 75 307q73 86 211 86q127 0 193 -69q86 -86 86 -314q0 -231 -88 -321q-70 -76 -199 -76q-125 0 -197 72q-81 81 -81 315zM215 12l1253 1485l117 -98l-1253 -1483zM258 1028q0 -138 25.5 -196t103.5 -58q82 0 109.5 62.5t27.5 210.5q0 140 -25.5 196.5 t-103.5 56.5q-82 0 -109.5 -63.5t-27.5 -208.5zM1102 371q0 213 74 305q74 90 215 90q117 0 190 -70q49 -50 67.5 -126t18.5 -185q0 -236 -88 -326q-70 -73 -201 -73q-129 0 -194 71q-82 82 -82 314zM1251 367q0 -139 25.5 -197.5t103.5 -58.5q82 0 110 63.5t28 210.5 q0 139 -25.5 196.5t-103.5 57.5q-82 0 -110 -63.5t-28 -208.5z" />
<glyph unicode="&#x26;" horiz-adv-x="1376" d="M121 350q0 247 219 402q-68 81 -100.5 155t-32.5 164q0 158 96 254q109 109 297 109q194 0 307 -113l-106 -123q-87 78 -211 78q-101 0 -149 -47.5t-48 -145.5q0 -33 6.5 -64t13.5 -55t27.5 -55.5t33 -49.5t46.5 -55t51 -54l63 -63l30 -30l270 -270q83 154 86 338h170 q0 -233 -141 -453l274 -272h-227l-148 145q-157 -168 -393 -168q-203 0 -322 107q-112 103 -112 266zM301 362q0 -233 254 -233q168 0 283 123l-385 381q-152 -97 -152 -271z" />
<glyph unicode="'" horiz-adv-x="501" d="M160 1413h182l-8 -448h-166z" />
<glyph unicode="(" horiz-adv-x="675" d="M145 590q0 150 5.5 254t22.5 211t47.5 184.5t82 149.5t125.5 131l119 -127q-38 -31 -67 -62.5t-51.5 -69t-38.5 -74t-27 -87t-17.5 -97.5t-10 -117t-4.5 -134t-1 -158q0 -128 2 -208t9.5 -166.5t21.5 -141.5t38.5 -111t60 -98.5t85.5 -83.5l-119 -127 q-74 58 -125.5 130.5t-82 150.5t-47.5 185.5t-22.5 212t-5.5 253.5z" />
<glyph unicode=")" horiz-adv-x="675" d="M129 -213q61 49 100 104.5t63 115t35.5 153t15 185t3.5 245.5q0 126 -2 205.5t-9.5 165t-21.5 140.5t-38.5 111t-60 98.5t-85.5 82.5l119 127q74 -58 125.5 -130.5t82 -150t47 -185t22 -211t5.5 -253.5q0 -151 -5.5 -255t-22 -211.5t-47 -185t-82 -149.5t-125.5 -131z " />
<glyph unicode="*" horiz-adv-x="1073" d="M121 1206l45 146l299 -103l-4 318h149l-2 -318l299 101l45 -146l-299 -92l187 -256l-121 -88l-182 260l-183 -258l-121 88l187 254z" />
<glyph unicode="+" horiz-adv-x="1218" d="M131 465v162h387v417h182v-417h387v-162h-387v-416h-182v416h-387z" />
<glyph unicode="," horiz-adv-x="481" d="M80 -227q71 125 102 227q-29 12 -46 40.5t-17 65.5q0 52 32.5 87.5t88.5 35.5q57 0 89.5 -36t32.5 -99q0 -131 -163 -387z" />
<glyph unicode="-" horiz-adv-x="684" d="M41 459v174h604v-174h-604z" />
<glyph unicode="." horiz-adv-x="481" d="M119 106q0 54 34.5 88.5t88.5 34.5q53 0 86.5 -34.5t33.5 -88.5q0 -51 -34 -85.5t-86 -34.5t-87.5 34.5t-35.5 85.5z" />
<glyph unicode="/" horiz-adv-x="909" d="M10 -127l701 1763l170 -65l-699 -1764z" />
<glyph unicode="0" d="M106 686q0 210 31.5 363t110.5 251q117 142 327 142q207 0 320 -135q73 -89 102 -232.5t29 -345.5q0 -210 -31.5 -366.5t-111.5 -251.5q-116 -138 -326 -138q-211 0 -319 133q-73 91 -102.5 235t-29.5 345zM301 686q0 -291 55 -420t203 -129q152 0 212 140t60 452 q0 289 -55 418t-203 129q-152 0 -212 -140t-60 -450z" />
<glyph unicode="1" d="M106 1137l412 276h205v-1245h289v-168h-834v168h357v1055l-326 -226z" />
<glyph unicode="2" d="M127 0v123q0 68 8.5 122t31 103.5t52 89.5t81.5 86t108.5 87.5t142.5 99.5q68 46 106 75t79 73t59 93.5t18 110.5t-19 103t-55 64.5t-78.5 32t-99.5 9.5q-101 0 -175 -28.5t-136 -90.5l-113 117q148 164 434 164q71 0 132.5 -11t118.5 -38t96.5 -69t63.5 -107.5 t24 -149.5q0 -63 -14.5 -116t-37.5 -94.5t-67 -85t-87.5 -78t-113.5 -83.5q-65 -45 -102.5 -72t-81.5 -61.5t-67.5 -59t-48.5 -54.5t-36 -58t-18.5 -61.5t-7.5 -71.5l682 6v-170h-879z" />
<glyph unicode="3" d="M109 121l102 135q111 -117 315 -117q133 0 202 57.5t69 198.5q0 143 -78.5 195.5t-257.5 52.5h-148v166h140q157 0 239 59.5t82 192.5q0 117 -62 164t-184 47q-202 0 -317 -115l-100 131q74 80 183.5 115t229.5 35q181 0 299 -74q148 -91 148 -287q0 -127 -61.5 -216 t-180.5 -124q131 -27 197.5 -118.5t66.5 -235.5q0 -227 -164 -330q-122 -76 -315 -76q-272 0 -405 144z" />
<glyph unicode="4" d="M82 295v170l381 948h190l-383 -946h365v547h178v-545h242v-174h-242v-295h-180v295h-551z" />
<glyph unicode="5" d="M147 113l101 135q111 -111 303 -111q99 0 166 49q92 73 92 267q0 187 -76 247q-58 45 -164 45q-143 0 -245 -110l-150 47l10 731h744v-172h-574l-10 -422q45 44 114.5 67t143.5 23q168 0 281 -98q127 -112 127 -348q0 -268 -172 -393q-128 -93 -312 -93q-104 0 -208 33.5 t-171 102.5z" />
<glyph unicode="6" d="M119 672q0 227 25 373.5t100 238.5q125 154 377 154q250 0 376 -129l-98 -133q-105 98 -295 98q-51 0 -90 -7t-69.5 -25t-51.5 -39.5t-36.5 -61t-24.5 -78t-14 -102t-7.5 -122t-3.5 -147.5q42 83 126.5 126.5t193.5 43.5q169 0 278 -98q115 -109 115 -330 q0 -229 -123 -346q-118 -111 -326 -111q-251 0 -360 175q-57 91 -74.5 218t-17.5 302zM319 410q0 -273 263 -273q137 0 192 72t55 219q0 150 -53 217.5t-174 67.5q-137 0 -210 -78t-73 -225z" />
<glyph unicode="7" d="M96 1413h934v-170q-277 -580 -450 -1243h-203q168 652 457 1233h-576l-4 -215h-156z" />
<glyph unicode="8" d="M119 350q0 252 280 373q-121 49 -189.5 139.5t-68.5 218.5q0 77 26 139.5t68 103.5t99 68.5t116.5 39.5t122.5 12q79 0 151.5 -19t135.5 -59t101 -111t38 -165q0 -242 -256 -361q277 -117 277 -377q0 -97 -39 -172t-104.5 -119.5t-144 -67t-165.5 -22.5q-68 0 -131 13.5 t-121 43t-101.5 73t-69 107.5t-25.5 142zM303 365q0 -238 266 -238q55 0 100 11t84 37t61 74t22 116q0 54 -16 97.5t-38 70.5t-62.5 51.5t-71 36.5t-81.5 30q-49 -17 -81.5 -30.5t-70.5 -37.5t-60 -51.5t-37 -70.5t-15 -96zM326 1067q0 -52 14 -92t33 -65t56 -47.5t64 -33.5 t76 -28q48 16 77 28.5t64.5 34.5t55 47.5t33.5 66t14 91.5q0 219 -242 219q-245 0 -245 -221z" />
<glyph unicode="9" d="M113 979q0 229 123 346q121 111 325 111q252 0 359 -172q59 -95 76.5 -217.5t17.5 -303.5q0 -229 -25 -375t-100 -239q-125 -154 -377 -154q-108 0 -208.5 30t-168.5 99l98 134q106 -99 295 -99q51 0 90 7t69.5 25t51.5 39.5t36.5 61t24.5 78t14 102t7.5 122t3.5 147.5 q-43 -84 -126.5 -127t-192.5 -43q-173 0 -279 98q-114 108 -114 330zM303 985q0 -150 53 -217.5t174 -67.5q137 0 210 78.5t73 225.5q0 272 -262 272q-137 0 -192.5 -72t-55.5 -219z" />
<glyph unicode=":" horiz-adv-x="520" d="M160 106q0 51 34.5 85t86.5 34t85 -34t33 -85q0 -52 -33.5 -86t-84.5 -34q-53 0 -87 34t-34 86zM160 827q0 53 34 87t87 34q52 0 85 -34t33 -87q0 -51 -33.5 -84.5t-84.5 -33.5q-52 0 -86.5 33.5t-34.5 84.5z" />
<glyph unicode=";" horiz-adv-x="485" d="M80 -227q79 149 100 227q-28 12 -45.5 40.5t-17.5 63.5q0 53 33 88t88 35q58 0 90 -36t32 -97q0 -138 -163 -387zM119 834q0 53 34.5 87.5t86.5 34.5q53 0 86.5 -34t33.5 -88q0 -51 -34.5 -85t-85.5 -34q-52 0 -86.5 34t-34.5 85z" />
<glyph unicode="&#x3c;" horiz-adv-x="1218" d="M139 457v178l822 352l55 -156l-701 -282l701 -287l-55 -156z" />
<glyph unicode="=" horiz-adv-x="1218" d="M178 264v158h862v-158h-862zM178 670v157h862v-157h-862z" />
<glyph unicode="&#x3e;" horiz-adv-x="1218" d="M205 260l700 285l-700 286l55 156l821 -352v-178l-821 -353z" />
<glyph unicode="?" horiz-adv-x="989" d="M147 1309q148 125 367 125q133 0 242 -60q139 -78 139 -244q0 -72 -27 -131.5t-67.5 -97.5t-88 -74.5t-88 -63.5t-67.5 -62.5t-27 -73.5q0 -53 48 -121l-140 -80q-84 100 -84 207q0 61 26.5 113t66 85t86 67.5t86 63t66 68.5t26.5 86q0 160 -191 160q-152 0 -274 -96z M422 106q0 51 34 85t85 34q52 0 86.5 -34t34.5 -85q0 -52 -34 -85t-87 -33q-51 0 -85 33t-34 85z" />
<glyph unicode="@" horiz-adv-x="1773" d="M119 551q0 370 215 589.5t575 219.5q176 0 318.5 -55.5t236 -153t143.5 -228.5t50 -284q0 -144 -42 -258.5t-125 -183t-194 -68.5q-175 0 -211 164q-46 -84 -120.5 -126t-165.5 -42q-121 0 -197 68t-76 186q0 260 408 260h104v41q0 90 -32 123t-125 33q-148 0 -224 -68 l-92 123q108 100 322 100q172 0 256 -78.5t84 -246.5v-185q0 -207 98 -207q67 0 109.5 89t42.5 243q0 271 -142.5 426.5t-429.5 155.5q-291 0 -449.5 -161t-158.5 -476q0 -627 661 -627q196 0 342 51.5t236 135.5l102 -113q-110 -107 -289.5 -172.5t-400.5 -65.5 q-204 0 -363 57.5t-260.5 162.5t-153.5 249.5t-52 321.5zM727 383q0 -104 98 -104q83 0 145.5 63.5t69.5 167.5h-104q-40 0 -66 -1.5t-56 -9t-47 -20.5t-28.5 -37t-11.5 -59z" />
<glyph unicode="A" horiz-adv-x="1216" d="M10 0l482 1413h239l475 -1413h-211l-114 352h-549l-119 -352h-203zM379 514h457l-228 700z" />
<glyph unicode="B" horiz-adv-x="1206" d="M172 0v1413h498q187 0 291 -82q102 -82 102 -248q0 -131 -62.5 -220t-189.5 -120q279 -35 279 -340q0 -203 -129 -307q-121 -96 -334 -96h-455zM362 162h259q139 0 200 55q68 61 68 199q0 131 -64.5 180t-201.5 49h-261v-483zM362 801h203q139 0 217 56t78 194 q0 111 -55 159q-44 39 -158 39h-285v-448z" />
<glyph unicode="C" horiz-adv-x="1191" d="M119 694q0 424 164 596q138 148 393 148q267 0 411 -160l-110 -127q-124 121 -307 121q-186 0 -264 -109q-87 -121 -87 -461q0 -350 99 -471q76 -90 225 -90q203 0 348 168l117 -114q-175 -220 -467 -220q-228 0 -356 131q-166 171 -166 588z" />
<glyph unicode="D" horiz-adv-x="1339" d="M172 0v1413h479q277 0 412 -129q89 -83 123.5 -219.5t34.5 -351.5q0 -199 -34 -342t-130 -236q-138 -135 -400 -135h-485zM365 168h282q185 0 273 94q55 58 77.5 160t22.5 280q0 183 -23 290t-77 165q-85 88 -273 88h-282v-1077z" />
<glyph unicode="E" horiz-adv-x="1064" d="M172 0v1413h770v-168h-580v-440h531v-168h-531v-469h588v-168h-778z" />
<glyph unicode="F" horiz-adv-x="1021" d="M172 0v1413h768v-168h-578v-452h527v-168h-527v-625h-190z" />
<glyph unicode="G" horiz-adv-x="1327" d="M119 686q0 208 36 356.5t126 239.5q145 152 438 152q285 0 434 -146l-109 -139q-131 119 -348 119q-189 0 -278 -99q-52 -55 -75.5 -157t-23.5 -307q0 -220 25.5 -323t79.5 -157q89 -86 291 -86q161 0 274 35v412h-307v168h489v-697q-190 -77 -446 -77q-303 0 -446 143 q-92 92 -126 228.5t-34 334.5z" />
<glyph unicode="H" horiz-adv-x="1361" d="M172 0v1413h190v-606h637v606h191v-1413h-191v637h-637v-637h-190z" />
<glyph unicode="I" horiz-adv-x="534" d="M172 0v1413h190v-1413h-190z" />
<glyph unicode="J" horiz-adv-x="561" d="M-178 -401l37 176q53 -21 127 -21q127 0 171 74.5t44 243.5v1341h188v-1341q0 -500 -405 -500q-88 0 -162 27z" />
<glyph unicode="K" horiz-adv-x="1249" d="M172 0v1413h190v-598h140l467 598h225l-532 -686l569 -727h-236l-497 635h-136v-635h-190z" />
<glyph unicode="L" horiz-adv-x="1011" d="M172 0v1413h190v-1243h592v-170h-782z" />
<glyph unicode="M" horiz-adv-x="1742" d="M135 0l80 1413h268l389 -1077l394 1077h264l78 -1413h-193l-53 1194l-399 -1118h-185l-397 1118l-55 -1194h-191z" />
<glyph unicode="N" horiz-adv-x="1431" d="M172 0v1413h254l651 -1159l-6 1159h189v-1413h-254l-652 1157l4 -1157h-186z" />
<glyph unicode="O" horiz-adv-x="1396" d="M119 690q0 201 36.5 347t125.5 243q149 162 428 162q276 0 419 -156q80 -91 115 -229.5t35 -335.5q0 -202 -36.5 -345.5t-127.5 -242.5q-148 -162 -426 -162q-277 0 -420 156q-81 88 -115 226.5t-34 336.5zM324 694q0 -181 22.5 -296.5t77.5 -172.5q84 -90 264 -90 q187 0 279 98q58 64 82 174t24 308q0 187 -22.5 298.5t-79.5 172.5q-85 92 -266 92q-191 0 -277 -100q-55 -61 -79.5 -176.5t-24.5 -307.5z" />
<glyph unicode="P" horiz-adv-x="1169" d="M172 0v1413h475q193 0 299 -78q139 -101 139 -358q0 -268 -141 -369q-108 -80 -299 -80h-283v-528h-190zM362 696h287q126 0 180 54q58 58 58 223q0 95 -15.5 144.5t-48.5 80.5q-30 27 -70.5 37t-115.5 10h-275v-549z" />
<glyph unicode="Q" horiz-adv-x="1396" d="M119 690q0 201 36.5 347t125.5 243q149 162 428 162q276 0 419 -156q80 -89 115 -228t35 -335q0 -203 -37 -347.5t-127 -242.5l-8 -8l199 -209l-146 -137l-221 235q-108 -43 -252 -43q-275 0 -418 156q-81 88 -115 226.5t-34 336.5zM324 694q0 -181 22.5 -296.5 t77.5 -172.5q84 -90 264 -90q187 0 279 98q58 64 82 174t24 308q0 187 -22.5 298.5t-79.5 172.5q-85 92 -266 92q-191 0 -277 -100q-55 -61 -79.5 -176.5t-24.5 -307.5z" />
<glyph unicode="R" horiz-adv-x="1208" d="M172 0v1413h479q191 0 301 -70q138 -89 138 -299q0 -154 -73.5 -254.5t-221.5 -132.5q40 -10 72.5 -31.5t57.5 -48.5t47.5 -73.5t39 -91t34 -117t30.5 -135t32 -160.5h-203q-19 91 -31.5 148.5t-28.5 121.5t-29.5 101t-31.5 76t-36 59.5t-42.5 38t-52.5 24t-63 6.5h-228 v-575h-190zM362 741h183q173 0 258.5 60.5t85.5 218.5q0 130 -55 182q-48 45 -185 45h-287v-506z" />
<glyph unicode="S" horiz-adv-x="1062" d="M72 117l98 139q135 -113 348 -113q56 0 100 10t81.5 33.5t58 70t20.5 112.5q0 54 -23.5 97t-63 72t-91 53.5t-108.5 47t-114 46.5t-108.5 57t-91 74.5t-63 103.5t-23.5 139q0 173 133 274q135 103 330 103q100 0 203.5 -28.5t173.5 -86.5l-92 -139q-127 90 -314 90 q-114 0 -177.5 -47.5t-63.5 -161.5q0 -50 23.5 -89t63.5 -66.5t91.5 -50.5t108.5 -45.5t114 -47t108.5 -59.5t91.5 -78t63.5 -107t23.5 -143q0 -103 -42.5 -183t-113.5 -128q-131 -89 -328 -89q-115 0 -231 35t-186 105z" />
<glyph unicode="T" horiz-adv-x="1114" d="M29 1243v170h1056v-170h-432v-1243h-190v1243h-434z" />
<glyph unicode="U" horiz-adv-x="1376" d="M172 496v917h190v-919q0 -40 1 -69.5t5 -62.5t11 -56t19 -48t29 -41.5t41.5 -32t56 -24.5t72.5 -14t91 -5q63 0 111 8t83 22t59 39t38.5 51.5t23 66.5t11 79t2.5 93v913h188v-907q0 -124 -21 -213t-75 -154q-133 -162 -428 -162q-282 0 -408 150q-100 117 -100 369z" />
<glyph unicode="V" horiz-adv-x="1234" d="M29 1413h209l380 -1204l388 1204h200l-481 -1413h-221z" />
<glyph unicode="W" horiz-adv-x="1839" d="M45 1413h195l272 -1192l301 1151h217l303 -1151l271 1192h192l-348 -1413h-227l-303 1145l-306 -1145h-227z" />
<glyph unicode="X" horiz-adv-x="1218" d="M35 0l452 733l-417 680h227l315 -549l314 549h223l-416 -680l451 -733h-228l-348 596l-348 -596h-225z" />
<glyph unicode="Y" horiz-adv-x="1093" d="M8 1413h219l318 -663l323 663h217l-448 -858v-555h-191v555z" />
<glyph unicode="Z" horiz-adv-x="1122" d="M74 0v166l714 1075h-698v168h924v-168l-717 -1075l737 2v-168h-960z" />
<glyph unicode="[" horiz-adv-x="688" d="M172 -305v1790h389v-152h-203v-1489h203v-149h-389z" />
<glyph unicode="\" horiz-adv-x="919" d="M29 1559l170 65l710 -1749l-170 -65z" />
<glyph unicode="]" horiz-adv-x="688" d="M129 -156h203v1491h-203v150h387v-1792h-387v151z" />
<glyph unicode="^" horiz-adv-x="1218" d="M158 698l362 824h180l361 -824l-158 -55l-295 703l-295 -703z" />
<glyph unicode="_" horiz-adv-x="868" d="M0 -106h868v-168h-868v168z" />
<glyph unicode="`" horiz-adv-x="409" d="M-49 1491l127 106l299 -360l-111 -96z" />
<glyph unicode="a" horiz-adv-x="1030" d="M74 274q0 165 116 246q121 84 355 84h147v51q0 132 -46 183t-165 51q-86 0 -147.5 -24.5t-116.5 -80.5l-100 115q130 143 370 143q195 0 290 -87.5t95 -284.5v-670h-170l-2 170q-48 -95 -134 -144t-191 -49q-141 0 -219 78q-82 76 -82 219zM262 283q0 -75 32.5 -114.5 t106.5 -39.5q51 0 100.5 20t92.5 59t70.5 105.5t29.5 151.5h-168q-137 0 -200.5 -36.5t-63.5 -145.5z" />
<glyph unicode="b" horiz-adv-x="1157" d="M168 0v1567h184v-707q49 91 135 137.5t195 46.5q85 0 149.5 -29.5t103 -77t62 -116.5t31.5 -137.5t8 -151.5q0 -552 -393 -552q-205 0 -303 157l-2 -137h-170zM346 479q0 -179 84 -266q71 -74 184 -74q56 0 97.5 19.5t67 52.5t41.5 83t22 103.5t6 120.5q0 78 -8.5 138 t-30.5 113.5t-65.5 82.5t-106.5 29q-116 0 -193 -86q-98 -110 -98 -316z" />
<glyph unicode="c" horiz-adv-x="995" d="M121 496q0 297 123 430q111 121 317 121q208 0 324 -121l-105 -123q-89 80 -217 80q-75 0 -124 -22t-75.5 -71t-36.5 -113.5t-10 -162.5q0 -196 46 -285.5t169 -89.5q152 0 259 125l110 -112q-134 -172 -377 -172q-191 0 -293 120q-110 126 -110 396z" />
<glyph unicode="d" horiz-adv-x="1161" d="M121 494q0 304 127 436q104 112 291 112q193 0 270 -124v649h184v-1567h-176v180q-52 -96 -144 -149.5t-200 -53.5q-143 0 -231 99q-62 69 -91.5 167.5t-29.5 250.5zM317 504q0 -187 43 -276t148 -89q112 0 194 88q113 119 113 336q0 174 -80 254q-64 64 -178 64 q-139 0 -189.5 -90.5t-50.5 -286.5z" />
<glyph unicode="e" horiz-adv-x="1099" d="M121 481q0 298 121 432q120 134 327 134q107 0 187 -34t126.5 -95.5t68.5 -138.5t22 -171q0 -66 -6 -125l-656 -4q1 -69 7 -116.5t21.5 -93.5t42 -73t71 -43t106.5 -16q177 0 303 123l101 -115q-84 -85 -180.5 -125t-223.5 -40q-205 0 -313 108q-63 63 -94 156.5 t-31 236.5zM317 625l465 2v11q0 127 -43 190q-45 65 -172 65q-131 0 -186.5 -68t-63.5 -200z" />
<glyph unicode="f" horiz-adv-x="778" d="M72 829v162h180v78q0 91 20.5 167.5t64.5 138.5t120.5 97t179.5 35q141 0 215 -53l-68 -141q-59 30 -143 30q-123 0 -164 -62t-41 -212v-78h275v-162h-275v-829h-184v829h-180z" />
<glyph unicode="g" horiz-adv-x="1161" d="M121 502q0 283 121 420q105 120 288 120q205 0 295 -153l4 133h164v-1055q0 -76 -12 -139.5t-44 -125t-83.5 -104t-136 -68.5t-195.5 -26q-244 0 -381 117l97 139q114 -92 297 -92q89 0 145.5 19.5t85.5 62t39 93.5t10 130v207q-46 -95 -135 -145.5t-199 -50.5 q-173 0 -260 120q-100 129 -100 398zM317 500q0 -186 43.5 -271.5t155.5 -85.5q118 0 193 84q108 115 108 334q0 174 -84 254q-71 68 -182 68q-133 0 -183.5 -94.5t-50.5 -288.5z" />
<glyph unicode="h" d="M168 0v1567h184v-742q32 97 119.5 159.5t206.5 62.5q140 0 218.5 -89.5t78.5 -250.5v-707h-184v674q0 104 -32.5 154.5t-111.5 50.5q-58 0 -108.5 -28.5t-93.5 -87.5t-68 -163.5t-25 -243.5v-356h-184z" />
<glyph unicode="i" horiz-adv-x="520" d="M141 1366q0 51 34 85t85 34t85 -34t34 -85q0 -52 -34 -86.5t-85 -34.5t-85 35t-34 86zM168 0v1022h184v-1022h-184z" />
<glyph unicode="j" horiz-adv-x="524" d="M-117 -469l35 164q35 -14 98 -14q94 0 125 48t31 162v1131h184v-1133q0 -179 -84.5 -280t-257.5 -101q-67 0 -131 23zM145 1366q0 51 34 85t85 34t85 -34t34 -85q0 -52 -34 -86.5t-85 -34.5t-85 35t-34 86z" />
<glyph unicode="k" horiz-adv-x="1042" d="M168 0v1567h184v-953h88l305 408h224l-383 -490l422 -532h-240l-330 438h-86v-438h-184z" />
<glyph unicode="l" horiz-adv-x="520" d="M168 0v1567h184v-1567h-184z" />
<glyph unicode="m" horiz-adv-x="1720" d="M168 0v1022h176v-213q36 111 118.5 174.5t203.5 63.5q231 0 280 -242q40 111 124 176.5t202 65.5q138 0 214.5 -89.5t76.5 -250.5v-707h-185v664q0 110 -30 162.5t-109 52.5q-57 0 -106 -29t-89.5 -88t-64 -161t-23.5 -236v-365h-184v668q0 105 -29.5 158t-109.5 53 q-120 0 -200.5 -127t-80.5 -387v-365h-184z" />
<glyph unicode="n" d="M168 0v1022h176l-2 -213q38 110 125 174t209 64q143 0 221 -90t78 -250v-707h-184v664q0 110 -32.5 162.5t-113.5 52.5q-129 0 -211 -129.5t-82 -387.5v-362h-184z" />
<glyph unicode="o" horiz-adv-x="1136" d="M121 494q0 147 27 246.5t96 174.5q123 132 334 132q210 0 323 -123q65 -71 90 -166t25 -234q0 -145 -26.5 -239.5t-96.5 -171.5q-62 -66 -140.5 -99.5t-193.5 -33.5q-207 0 -323 122q-66 70 -90.5 162t-24.5 230zM313 500q0 -213 72 -299q54 -64 176 -64q129 0 189 72 q73 90 73 311t-71 303q-62 66 -181 66q-124 0 -184 -72q-74 -91 -74 -317z" />
<glyph unicode="p" horiz-adv-x="1161" d="M168 -492v1514h178v-180q47 95 139.5 150t200.5 55q144 0 234 -97q120 -128 120 -422q0 -321 -145 -454q-104 -94 -264 -94q-186 0 -279 122v-594h-184zM346 457q0 -163 64 -238q67 -80 200 -80q128 0 181 88.5t53 292.5q0 192 -45 277.5t-148 85.5q-60 0 -115.5 -28 t-93.5 -77q-96 -120 -96 -321z" />
<glyph unicode="q" horiz-adv-x="1161" d="M121 492q0 307 125 440q102 110 274 110q97 0 177.5 -38t127.5 -119l2 137h166v-1514h-184v654q-47 -85 -137 -135t-193 -50q-138 0 -235 97q-123 123 -123 418zM317 494q0 -69 5 -120t18 -97t35.5 -75t58 -46t84.5 -17q118 0 199 90q98 104 98 312q0 184 -80 264 q-81 78 -192 78q-126 0 -176 -92.5t-50 -296.5z" />
<glyph unicode="r" horiz-adv-x="790" d="M168 0v1022h176l-2 -203q43 116 117.5 172t167.5 56q67 0 123 -29l-52 -172q-27 18 -88 18q-85 0 -145 -68t-86.5 -172t-26.5 -231v-393h-184z" />
<glyph unicode="s" horiz-adv-x="866" d="M66 102l96 121q94 -94 258 -94q90 0 140 32t50 111q0 44 -29 76.5t-75.5 53t-102.5 39t-112 43t-102.5 56.5t-75.5 86.5t-29 127.5q0 141 105.5 214.5t271.5 73.5q201 0 307 -106l-98 -121q-95 74 -228 74q-172 0 -172 -125q0 -41 29 -71t75.5 -49.5t102 -38t111.5 -43.5 t102.5 -58.5t75.5 -90.5t29 -132q0 -64 -22 -116t-59.5 -86t-88.5 -56.5t-106 -32.5t-116 -10q-105 0 -195 30t-142 92z" />
<glyph unicode="t" horiz-adv-x="858" d="M66 842v162h186v294l182 23v-317h311v-162h-311v-492q0 -61 4 -93.5t18.5 -60.5t44.5 -38.5t81 -10.5q75 0 161 21l17 -156q-88 -26 -205 -26q-94 0 -153.5 20.5t-92.5 67.5t-45 108.5t-12 157.5v502h-186z" />
<glyph unicode="u" d="M168 315v707h184v-670q0 -101 33 -157t115 -56q120 0 201 126t81 382v375h183v-1022h-172v213q-36 -111 -122 -173.5t-208 -62.5q-144 0 -219.5 87t-75.5 251z" />
<glyph unicode="v" horiz-adv-x="995" d="M45 1022h199l256 -827l258 827h192l-348 -1022h-213z" />
<glyph unicode="w" horiz-adv-x="1505" d="M51 1022h191l196 -811l211 782h209l213 -782l195 811h188l-276 -1022h-211l-215 788l-220 -788h-213z" />
<glyph unicode="x" horiz-adv-x="1024" d="M55 0l336 528l-307 494h213l219 -371l217 371h211l-303 -492l330 -530h-215l-244 401l-246 -401h-211z" />
<glyph unicode="y" horiz-adv-x="1024" d="M45 1022h197l286 -922l258 922h195l-297 -963q-41 -134 -84 -231t-98.5 -172t-125.5 -112.5t-155 -37.5q-97 0 -147 37l63 154q43 -21 90 -21q90 0 148 76.5t114 255.5h-108z" />
<glyph unicode="z" horiz-adv-x="933" d="M90 0v158l512 692h-496v160h717v-158l-514 -692h531v-160h-750z" />
<glyph unicode="{" horiz-adv-x="727" d="M14 510v156q112 3 156.5 47.5t44.5 173.5v330q0 127 69 197.5t191 70.5h123v-160h-80q-81 0 -105 -31.5t-24 -107.5v-318q0 -236 -168 -278q168 -45 168 -279v-319q0 -77 24.5 -109.5t104.5 -32.5h80v-155h-123q-122 0 -191 67t-69 193v336q0 67 -11 109t-37 66t-61.5 33 t-91.5 11z" />
<glyph unicode="|" horiz-adv-x="530" d="M172 -492v2059h186v-2059h-186z" />
<glyph unicode="}" horiz-adv-x="727" d="M129 -145h80q81 0 105 31t24 108v317q0 238 168 277q-168 45 -168 278v320q0 77 -24 109t-105 32h-80v156h123q122 0 191 -67t69 -193v-336q0 -67 11 -109t37 -66t61.5 -33t91.5 -11v-156q-75 -1 -116.5 -19t-63 -66t-21.5 -136v-330q0 -126 -69 -196t-191 -70h-123v160z " />
<glyph unicode="~" horiz-adv-x="1218" d="M115 539q61 76 127 117.5t153 41.5q58 0 121.5 -21.5t109.5 -48t102 -48t101 -21.5q90 0 172 98l105 -104q-63 -77 -129 -118.5t-154 -41.5q-58 0 -121.5 21.5t-109.5 48t-102 48t-101 21.5q-90 0 -172 -98z" />
<glyph unicode="&#xa1;" horiz-adv-x="653" d="M172 1149q0 51 35 84t86 33t85 -33t34 -84t-34 -85t-85 -34q-52 0 -86.5 34t-34.5 85zM193 -160l14 1008h170l14 -1008h-198z" />
<glyph unicode="&#xa2;" d="M127 719q0 313 117 463q92 117 258 151l-2 234h194l-2 -224q195 -17 312 -139l-111 -127q-106 101 -268 101q-74 0 -126.5 -18.5t-85.5 -52t-51.5 -91t-25 -123.5t-6.5 -162q0 -98 7 -168t24 -127.5t46.5 -92t75 -53t109.5 -18.5q193 0 315 160l121 -117 q-119 -161 -336 -198l2 -230h-194l2 228q-173 27 -266 157q-109 148 -109 447z" />
<glyph unicode="&#xa3;" d="M96 0v160h158v469h-158v159h158v132q0 79 12.5 148t44.5 136.5t81.5 115.5t130 77.5t184.5 29.5q212 0 323 -114l-108 -127q-77 80 -226 80q-67 0 -114 -17.5t-74 -45t-41.5 -76.5t-18.5 -97t-4 -121v-121h332v-159h-332v-469h623v-160h-971z" />
<glyph unicode="&#xa4;" d="M35 1145l117 117l174 -172q95 65 241 65q137 0 238 -63l172 168l117 -115l-176 -170q57 -97 57 -225q0 -131 -62 -236l185 -178l-119 -115l-180 180q-94 -61 -234 -61q-131 0 -231 59l-178 -182l-119 117l182 178q-63 97 -63 233q0 131 57 228zM319 750q0 -263 246 -263 q248 0 248 263q0 256 -248 256q-246 0 -246 -256z" />
<glyph unicode="&#xa5;" d="M10 1413h219l336 -661l344 661h213l-346 -625h268v-161h-356l-33 -58v-80h389v-163h-389v-326h-188v326h-367v163h367v80l-33 58h-334v161h248z" />
<glyph unicode="&#xa6;" horiz-adv-x="530" d="M172 279h186v-771h-186v771zM172 795v772h186v-772h-186z" />
<glyph unicode="&#xa7;" horiz-adv-x="1021" d="M72 653q0 179 157 301q-88 81 -88 205q0 104 61 178t153 107t204 33q203 0 326 -105l-84 -125q-96 80 -264 80q-220 0 -220 -164q0 -47 34 -82.5t88 -58.5t119 -45t130.5 -51.5t119.5 -68.5t88 -104.5t34 -152.5q0 -175 -156 -303q92 -78 92 -203q0 -79 -38 -141.5 t-100.5 -99.5t-135 -56.5t-148.5 -19.5q-92 0 -184.5 27.5t-159.5 82.5l86 127q110 -88 277 -88q229 0 229 166q0 43 -26.5 76t-70 53.5t-99.5 41.5t-114 39.5t-114 49t-99.5 67.5t-70 97t-26.5 137zM242 662q0 -41 17.5 -75.5t42.5 -56.5t68.5 -44.5t79 -35.5t91 -33 t88.5 -34q131 98 131 207q0 42 -17.5 76.5t-42.5 57t-68 44.5t-79 35t-90.5 33t-87.5 34q-133 -97 -133 -208z" />
<glyph unicode="&#xa8;" horiz-adv-x="409" d="M-96 1337q0 47 30 79t76 32q45 0 77 -32t32 -79q0 -44 -32 -75t-77 -31q-44 0 -75 31t-31 75zM291 1337q0 47 30 79t76 32t77.5 -32t31.5 -79q0 -44 -32 -75t-77 -31t-75.5 30.5t-30.5 75.5z" />
<glyph unicode="&#xa9;" horiz-adv-x="1683" d="M119 707q0 158 46.5 294t135 240t228 163.5t313.5 59.5q173 0 312 -59.5t228 -162.5t136 -240t47 -295t-47.5 -295t-137 -240.5t-228.5 -163t-312 -59.5t-311.5 59.5t-227 163t-135.5 240.5t-47 295zM289 702q0 -129 33 -234.5t99 -184.5t172.5 -122.5t246.5 -43.5 t247 43.5t173 122.5t99.5 185.5t33.5 236.5t-33 236.5t-98.5 186t-171.5 123t-244 43.5q-140 0 -248 -44t-175 -124t-100.5 -187t-33.5 -237zM473 694q0 205 92 316q103 123 301 123q182 0 283 -93l-109 -145q-66 55 -182 55q-98 0 -134 -52t-36 -189q0 -148 36 -202 t118 -54q118 0 202 84l121 -129q-127 -136 -327 -136q-164 0 -260 99q-105 108 -105 323z" />
<glyph unicode="&#xaa;" horiz-adv-x="655" d="M57 1176q0 100 84 145q72 39 197 39h74v18q0 55 -24.5 77t-84.5 22q-89 0 -147 -52l-74 82q78 78 227 78q122 0 179 -48t57 -161v-352h-125v78q-60 -92 -182 -92q-83 0 -132 43t-49 123zM92 797v118h453v-118h-453zM195 1184q0 -68 63 -68q55 0 103 41.5t51 108.5h-80 q-71 0 -104 -15.5t-33 -66.5z" />
<glyph unicode="&#xab;" horiz-adv-x="1007" d="M41 547l330 409l121 -94l-248 -315l248 -316l-121 -96zM492 547l329 409l121 -94l-250 -315l250 -316l-121 -96z" />
<glyph unicode="&#xac;" horiz-adv-x="1218" d="M150 594v160h894v-586h-180v426h-714z" />
<glyph unicode="&#xad;" horiz-adv-x="684" d="M41 459v174h604v-174h-604z" />
<glyph unicode="&#xae;" horiz-adv-x="1208" d="M121 1214q0 137 59 248.5t170 177.5t254 66q214 0 348.5 -141t134.5 -351q0 -208 -135.5 -349.5t-349.5 -141.5t-347.5 141.5t-133.5 349.5zM254 1214q0 -162 93 -262t255 -100q163 0 257.5 100.5t94.5 264.5q0 162 -94 262t-256 100t-256 -101t-94 -264zM399 958v510 h230q91 0 143.5 -35t52.5 -110q0 -57 -29 -94t-85 -49q57 -10 78 -56t38 -166h-131q-18 101 -35 135.5t-55 34.5h-80v-170h-127zM526 1231h49q61 0 90 16.5t29 59.5q0 33 -17.5 44t-60.5 11h-90v-131z" />
<glyph unicode="&#xaf;" horiz-adv-x="409" d="M-96 1257v156h602v-156h-602z" />
<glyph unicode="&#xb0;" horiz-adv-x="909" d="M119 1157q0 151 90.5 246.5t251.5 95.5q157 0 243.5 -91t86.5 -237q0 -152 -90 -247t-252 -95q-157 0 -243.5 91t-86.5 237zM283 1157q0 -81 42 -134.5t126 -53.5q87 0 131.5 58t44.5 142q0 82 -42 135.5t-126 53.5q-87 0 -131.5 -58t-44.5 -143z" />
<glyph unicode="&#xb1;" horiz-adv-x="1218" d="M203 90v150h813v-150h-813zM203 651v152h325v305h162v-305h326v-152h-326v-313h-162v313h-325z" />
<glyph unicode="&#xb2;" horiz-adv-x="718" d="M86 1690q91 98 270 98q54 0 99.5 -10.5t84 -34t60 -66t21.5 -100.5q0 -84 -43 -133t-144 -107q-110 -64 -151 -101.5t-41 -86.5l376 2v-127h-530v96q0 54 11 92t43.5 72.5t71.5 61.5t114 71q38 22 58 35t43 33t32.5 42.5t9.5 49.5q0 49 -33 67.5t-94 18.5 q-107 0 -168 -61z" />
<glyph unicode="&#xb3;" horiz-adv-x="718" d="M74 1087l73 99q62 -53 177 -53q70 0 104.5 23.5t34.5 84.5t-39 84t-129 23h-98v118h94q160 0 160 109q0 51 -31 70.5t-96 19.5q-114 0 -174 -53l-74 98q78 78 252 78q118 0 188 -45q86 -52 86 -152q0 -65 -35 -111.5t-102 -66.5q147 -35 147 -186q0 -109 -92 -168 q-76 -49 -198 -49q-76 0 -143 19t-105 58z" />
<glyph unicode="&#xb4;" horiz-adv-x="409" d="M25 1237l299 360l125 -106l-314 -350z" />
<glyph unicode="&#xb5;" d="M168 -492v1514h184v-670q0 -100 33.5 -155.5t114.5 -55.5q118 0 200 130t82 386v365h183v-1022h-174l4 213q-34 -113 -118 -174.5t-206 -61.5q-78 0 -131 23l12 -492h-184z" />
<glyph unicode="&#xb6;" horiz-adv-x="1533" d="M84 993q0 118 24.5 204t62 135t96 77t113 36.5t126.5 8.5h856v-1946h-184v1778h-250v-1778h-185v1033h-223q-51 0 -89.5 3t-86 13.5t-82.5 29t-70.5 52.5t-57.5 80.5t-36 116t-14 157.5zM274 995q0 -89 15.5 -146t50.5 -87t79 -40.5t113 -10.5h211v573h-223 q-141 0 -193.5 -70t-52.5 -219z" />
<glyph unicode="&#xb7;" horiz-adv-x="481" d="M119 547q0 51 34.5 86t86.5 35t87 -35t35 -86q0 -52 -34.5 -86.5t-87.5 -34.5q-51 0 -86 34.5t-35 86.5z" />
<glyph unicode="&#xb8;" horiz-adv-x="409" d="M-86 -362l84 88q55 -78 125 -78q40 0 65 21.5t25 60.5q0 38 -30.5 64.5t-106.5 45.5l16 183h135l-12 -121q77 -30 109 -71t32 -99q0 -89 -59.5 -150t-163.5 -61q-139 0 -219 117z" />
<glyph unicode="&#xb9;" horiz-adv-x="718" d="M68 1616l237 160h162v-623h160v-129h-512v129h204v473l-172 -113z" />
<glyph unicode="&#xba;" horiz-adv-x="708" d="M80 1288q0 149 76 228q68 71 202 71q126 0 191 -59q76 -68 76 -221t-78 -228q-69 -69 -201 -69q-124 0 -190 63q-76 70 -76 215zM127 797v118h461v-118h-461zM231 1290q0 -100 33 -133q30 -27 84 -27q62 0 94 35q33 42 33 144t-39 135q-25 22 -78 22q-59 0 -90 -28 q-37 -37 -37 -148z" />
<glyph unicode="&#xbb;" horiz-adv-x="1007" d="M66 229l249 318l-249 313l120 96l330 -409l-330 -410zM516 229l248 318l-248 313l121 96l330 -409l-330 -410z" />
<glyph unicode="&#xbc;" horiz-adv-x="1798" d="M119 1262l219 151h166v-622h151v-129h-491v129h192v477l-157 -113zM215 12l1253 1485l117 -98l-1253 -1483zM1106 143v127l188 482h142l-189 -480h170v275h135v-273h125v-131h-125v-143h-137v143h-309z" />
<glyph unicode="&#xbd;" horiz-adv-x="1798" d="M119 1262l219 151h166v-622h151v-129h-491v129h192v477l-157 -113zM215 12l1253 1485l117 -98l-1253 -1483zM1130 668q90 96 263 96q54 0 98 -10.5t81 -34t58 -65.5t21 -101q0 -44 -11.5 -78.5t-38.5 -63.5t-55.5 -50t-77.5 -50q-109 -65 -145.5 -100t-36.5 -86l363 2 v-127h-516v96q0 55 10.5 92.5t40.5 72t67.5 61t108.5 69.5q76 44 109.5 77t33.5 85q0 49 -32 67.5t-89 18.5q-102 0 -163 -61z" />
<glyph unicode="&#xbe;" horiz-adv-x="1798" d="M111 725l75 100q61 -55 174 -55q69 0 104.5 24.5t35.5 84.5q0 61 -39 83.5t-129 22.5h-99v121h95q79 0 119 24t40 82q0 51 -31.5 71t-95.5 20q-112 0 -174 -52l-73 97q82 79 247 79q122 0 193 -45q86 -56 86 -153q0 -64 -34.5 -110.5t-102.5 -67.5q72 -15 109.5 -63 t37.5 -120q0 -117 -92 -172q-75 -47 -201 -47q-74 0 -140.5 19t-104.5 57zM215 12l1253 1485l117 -98l-1253 -1483zM1106 143v127l188 482h142l-189 -480h170v275h135v-273h125v-131h-125v-143h-137v143h-309z" />
<glyph unicode="&#xbf;" horiz-adv-x="989" d="M94 123q0 62 20 115t52.5 90t71 69t77.5 58.5t71.5 52t52.5 56t20 63.5q0 55 -47 121l139 79q86 -102 86 -206q0 -54 -19.5 -99.5t-51.5 -78t-70 -61.5t-76 -55.5t-70 -54t-51.5 -62.5t-19.5 -75q0 -158 190 -158q154 0 274 97l101 -129q-73 -63 -170 -94t-195 -31 q-142 0 -246 59q-139 80 -139 244zM328 1147q0 52 34.5 85.5t86.5 33.5q53 0 86.5 -33.5t33.5 -85.5q0 -51 -34 -85t-86 -34q-51 0 -86 34t-35 85z" />
<glyph unicode="&#xc0;" horiz-adv-x="1216" d="M10 0l482 1413h239l475 -1413h-211l-114 352h-549l-119 -352h-203zM307 1788l94 137l375 -276l-78 -117zM379 514h457l-228 700z" />
<glyph unicode="&#xc1;" horiz-adv-x="1216" d="M10 0l482 1413h239l475 -1413h-211l-114 352h-549l-119 -352h-203zM379 514h457l-228 700zM426 1649l375 276l94 -137l-391 -256z" />
<glyph unicode="&#xc2;" horiz-adv-x="1216" d="M10 0l482 1413h239l475 -1413h-211l-114 352h-549l-119 -352h-203zM303 1667l307 209l305 -207l-75 -119l-232 142l-231 -144zM379 514h457l-228 700z" />
<glyph unicode="&#xc3;" horiz-adv-x="1216" d="M10 0l482 1413h239l475 -1413h-211l-114 352h-549l-119 -352h-203zM268 1737q100 129 219 129q53 0 135.5 -34t116.5 -34q67 0 123 72l86 -101q-101 -127 -219 -127q-53 0 -135.5 34t-116.5 34q-67 0 -123 -72zM379 514h457l-228 700z" />
<glyph unicode="&#xc4;" horiz-adv-x="1216" d="M10 0l482 1413h239l475 -1413h-211l-114 352h-549l-119 -352h-203zM307 1729q0 47 30.5 78.5t76.5 31.5q45 0 76.5 -31.5t31.5 -78.5q0 -44 -32 -75.5t-76 -31.5t-75.5 31.5t-31.5 75.5zM379 514h457l-228 700zM694 1729q0 47 30.5 78.5t76.5 31.5t77 -31.5t31 -78.5 q0 -44 -32 -75.5t-76 -31.5q-45 0 -76 31t-31 76z" />
<glyph unicode="&#xc5;" horiz-adv-x="1216" d="M10 0l482 1413h239l475 -1413h-211l-114 352h-549l-119 -352h-203zM377 1733q0 92 64.5 146t166.5 54q101 0 166.5 -54.5t65.5 -147.5q0 -92 -66 -147.5t-166 -55.5t-165.5 56t-65.5 149zM379 514h457l-228 700zM506 1731q0 -44 28.5 -68.5t73.5 -24.5q46 0 74.5 25 t28.5 70q0 44 -29 68t-74 24q-46 0 -74 -24.5t-28 -69.5z" />
<glyph unicode="&#xc6;" horiz-adv-x="1746" d="M-25 0l672 1413h977v-168h-577v-440h524v-168h-524v-471h585v-166h-778v387h-489l-179 -387h-211zM438 547h416v698h-92z" />
<glyph unicode="&#xc7;" horiz-adv-x="1191" d="M119 694q0 419 164 596q138 148 395 148q265 0 409 -160l-110 -127q-124 121 -307 121q-186 0 -267 -111q-84 -119 -84 -463q0 -346 99 -467q76 -90 223 -90q205 0 350 168l117 -114q-169 -211 -449 -220l-6 -73q77 -30 109.5 -71t32.5 -99q0 -89 -60 -150t-164 -61 q-138 0 -221 117l86 88q52 -78 125 -78q39 0 63.5 21.5t24.5 60.5q0 38 -30 64.5t-107 45.5l14 146q-150 23 -241 120q-166 171 -166 588z" />
<glyph unicode="&#xc8;" horiz-adv-x="1064" d="M172 0v1413h770v-168h-580v-440h531v-168h-531v-469h588v-168h-778zM266 1788l94 137l375 -276l-78 -117z" />
<glyph unicode="&#xc9;" horiz-adv-x="1064" d="M172 0v1413h770v-168h-580v-440h531v-168h-531v-469h588v-168h-778zM385 1649l375 276l94 -137l-391 -256z" />
<glyph unicode="&#xca;" horiz-adv-x="1064" d="M172 0v1413h770v-168h-580v-440h531v-168h-531v-469h588v-168h-778zM262 1667l307 209l305 -207l-75 -119l-232 142l-231 -144z" />
<glyph unicode="&#xcb;" horiz-adv-x="1064" d="M172 0v1413h770v-168h-580v-440h531v-168h-531v-469h588v-168h-778zM266 1729q0 47 30.5 78.5t76.5 31.5q45 0 76.5 -31.5t31.5 -78.5q0 -44 -32 -75.5t-76 -31.5t-75.5 31.5t-31.5 75.5zM653 1729q0 47 30.5 78.5t76.5 31.5t77 -31.5t31 -78.5q0 -44 -32 -75.5 t-76 -31.5q-45 0 -76 31t-31 76z" />
<glyph unicode="&#xcc;" horiz-adv-x="534" d="M-33 1788l94 137l375 -276l-78 -117zM172 0v1413h190v-1413h-190z" />
<glyph unicode="&#xcd;" horiz-adv-x="534" d="M86 1649l375 276l94 -137l-391 -256zM172 0v1413h190v-1413h-190z" />
<glyph unicode="&#xce;" horiz-adv-x="534" d="M-37 1667l307 209l305 -207l-75 -119l-232 142l-231 -144zM172 0v1413h190v-1413h-190z" />
<glyph unicode="&#xcf;" horiz-adv-x="534" d="M-33 1729q0 47 30.5 78.5t76.5 31.5q45 0 76.5 -31.5t31.5 -78.5q0 -44 -32 -75.5t-76 -31.5t-75.5 31.5t-31.5 75.5zM172 0v1413h190v-1413h-190zM354 1729q0 47 30.5 78.5t76.5 31.5t77 -31.5t31 -78.5q0 -44 -32 -75.5t-76 -31.5q-45 0 -76 31t-31 76z" />
<glyph unicode="&#xd0;" horiz-adv-x="1361" d="M53 641v172h144v600h483q280 0 418 -141q84 -88 115.5 -224t31.5 -335q0 -77 -5 -141.5t-18.5 -141.5t-43 -145.5t-74.5 -120.5q-140 -164 -422 -164h-485v641h-144zM387 166h289q215 0 293 119q42 64 57.5 167t15.5 255q0 171 -18 278.5t-66 165.5q-75 94 -280 94h-291 v-432h283v-172h-283v-475z" />
<glyph unicode="&#xd1;" horiz-adv-x="1431" d="M172 0v1413h254l651 -1159l-6 1159h189v-1413h-254l-652 1157l4 -1157h-186zM406 1737q100 129 219 129q53 0 135.5 -34t116.5 -34q66 0 122 72l86 -101q-101 -127 -219 -127q-53 0 -135.5 34t-116.5 34q-66 0 -122 -72z" />
<glyph unicode="&#xd2;" horiz-adv-x="1396" d="M119 690q0 201 36.5 347t125.5 243q149 162 428 162q276 0 419 -156q80 -91 115 -229.5t35 -335.5q0 -202 -36.5 -345.5t-127.5 -242.5q-148 -162 -426 -162q-277 0 -420 156q-81 88 -115 226.5t-34 336.5zM324 694q0 -181 22.5 -296.5t77.5 -172.5q84 -90 264 -90 q187 0 279 98q58 64 82 174t24 308q0 187 -22.5 298.5t-79.5 172.5q-85 92 -266 92q-191 0 -277 -100q-55 -61 -79.5 -176.5t-24.5 -307.5zM397 1788l95 137l374 -276l-78 -117z" />
<glyph unicode="&#xd3;" horiz-adv-x="1396" d="M119 690q0 201 36.5 347t125.5 243q149 162 428 162q276 0 419 -156q80 -91 115 -229.5t35 -335.5q0 -202 -36.5 -345.5t-127.5 -242.5q-148 -162 -426 -162q-277 0 -420 156q-81 88 -115 226.5t-34 336.5zM324 694q0 -181 22.5 -296.5t77.5 -172.5q84 -90 264 -90 q187 0 279 98q58 64 82 174t24 308q0 187 -22.5 298.5t-79.5 172.5q-85 92 -266 92q-191 0 -277 -100q-55 -61 -79.5 -176.5t-24.5 -307.5zM516 1649l375 276l94 -137l-391 -256z" />
<glyph unicode="&#xd4;" horiz-adv-x="1396" d="M119 690q0 201 36.5 347t125.5 243q149 162 428 162q276 0 419 -156q80 -91 115 -229.5t35 -335.5q0 -202 -36.5 -345.5t-127.5 -242.5q-148 -162 -426 -162q-277 0 -420 156q-81 88 -115 226.5t-34 336.5zM324 694q0 -181 22.5 -296.5t77.5 -172.5q84 -90 264 -90 q187 0 279 98q58 64 82 174t24 308q0 187 -22.5 298.5t-79.5 172.5q-85 92 -266 92q-191 0 -277 -100q-55 -61 -79.5 -176.5t-24.5 -307.5zM393 1667l307 209l306 -207l-76 -119l-232 142l-231 -144z" />
<glyph unicode="&#xd5;" horiz-adv-x="1396" d="M119 690q0 201 36.5 347t125.5 243q149 162 428 162q276 0 419 -156q80 -91 115 -229.5t35 -335.5q0 -202 -36.5 -345.5t-127.5 -242.5q-148 -162 -426 -162q-277 0 -420 156q-81 88 -115 226.5t-34 336.5zM324 694q0 -181 22.5 -296.5t77.5 -172.5q84 -90 264 -90 q187 0 279 98q58 64 82 174t24 308q0 187 -22.5 298.5t-79.5 172.5q-85 92 -266 92q-191 0 -277 -100q-55 -61 -79.5 -176.5t-24.5 -307.5zM358 1737q100 129 220 129q53 0 135 -34t116 -34q67 0 123 72l86 -101q-101 -127 -219 -127q-53 0 -135.5 34t-116.5 34 q-67 0 -123 -72z" />
<glyph unicode="&#xd6;" horiz-adv-x="1396" d="M119 690q0 201 36.5 347t125.5 243q149 162 428 162q276 0 419 -156q80 -91 115 -229.5t35 -335.5q0 -202 -36.5 -345.5t-127.5 -242.5q-148 -162 -426 -162q-277 0 -420 156q-81 88 -115 226.5t-34 336.5zM324 694q0 -181 22.5 -296.5t77.5 -172.5q84 -90 264 -90 q187 0 279 98q58 64 82 174t24 308q0 187 -22.5 298.5t-79.5 172.5q-85 92 -266 92q-191 0 -277 -100q-55 -61 -79.5 -176.5t-24.5 -307.5zM397 1729q0 47 30.5 78.5t76.5 31.5q45 0 76.5 -31.5t31.5 -78.5q0 -44 -32 -75.5t-76 -31.5t-75.5 31.5t-31.5 75.5zM784 1729 q0 47 30.5 78.5t76.5 31.5t77 -31.5t31 -78.5q0 -44 -32 -75.5t-76 -31.5q-45 0 -76 31t-31 76z" />
<glyph unicode="&#xd7;" horiz-adv-x="1218" d="M188 246l306 301l-306 301l115 115l305 -304l305 304l115 -115l-305 -301l305 -301l-113 -115l-307 301l-305 -303z" />
<glyph unicode="&#xd8;" horiz-adv-x="1402" d="M78 -47l151 221q-110 165 -110 514q0 199 34 342.5t117 239.5q149 172 439 172q199 0 331 -82l136 196l139 -98l-152 -219q113 -165 113 -514q0 -199 -37 -347t-129 -247q-146 -160 -426 -160q-200 0 -332 82l-135 -196zM317 694q0 -221 35 -340l590 863q-81 65 -235 65 q-218 0 -306 -131q-84 -125 -84 -457zM451 197q82 -66 235 -66q221 0 307 135q82 124 82 453q0 219 -35 340z" />
<glyph unicode="&#xd9;" horiz-adv-x="1376" d="M172 496v917h190v-919q0 -40 1 -69.5t5 -62.5t11 -56t19 -48t29 -41.5t41.5 -32t56 -24.5t72.5 -14t91 -5q63 0 111 8t83 22t59 39t38.5 51.5t23 66.5t11 79t2.5 93v913h188v-907q0 -124 -21 -213t-75 -154q-133 -162 -428 -162q-282 0 -408 150q-100 117 -100 369z M387 1788l94 137l375 -276l-78 -117z" />
<glyph unicode="&#xda;" horiz-adv-x="1376" d="M172 496v917h190v-919q0 -40 1 -69.5t5 -62.5t11 -56t19 -48t29 -41.5t41.5 -32t56 -24.5t72.5 -14t91 -5q63 0 111 8t83 22t59 39t38.5 51.5t23 66.5t11 79t2.5 93v913h188v-907q0 -124 -21 -213t-75 -154q-133 -162 -428 -162q-282 0 -408 150q-100 117 -100 369z M506 1649l375 276l94 -137l-391 -256z" />
<glyph unicode="&#xdb;" horiz-adv-x="1376" d="M172 496v917h190v-919q0 -40 1 -69.5t5 -62.5t11 -56t19 -48t29 -41.5t41.5 -32t56 -24.5t72.5 -14t91 -5q63 0 111 8t83 22t59 39t38.5 51.5t23 66.5t11 79t2.5 93v913h188v-907q0 -124 -21 -213t-75 -154q-133 -162 -428 -162q-282 0 -408 150q-100 117 -100 369z M383 1667l307 209l305 -207l-75 -119l-232 142l-231 -144z" />
<glyph unicode="&#xdc;" horiz-adv-x="1376" d="M172 496v917h190v-919q0 -40 1 -69.5t5 -62.5t11 -56t19 -48t29 -41.5t41.5 -32t56 -24.5t72.5 -14t91 -5q63 0 111 8t83 22t59 39t38.5 51.5t23 66.5t11 79t2.5 93v913h188v-907q0 -124 -21 -213t-75 -154q-133 -162 -428 -162q-282 0 -408 150q-100 117 -100 369z M387 1729q0 47 30.5 78.5t76.5 31.5q45 0 76.5 -31.5t31.5 -78.5q0 -44 -32 -75.5t-76 -31.5t-75.5 31.5t-31.5 75.5zM774 1729q0 47 30.5 78.5t76.5 31.5t77 -31.5t31 -78.5q0 -44 -32 -75.5t-76 -31.5q-45 0 -76 31t-31 76z" />
<glyph unicode="&#xdd;" horiz-adv-x="1093" d="M8 1413h219l318 -663l323 663h217l-448 -858v-555h-191v555zM365 1649l374 276l95 -137l-392 -256z" />
<glyph unicode="&#xde;" horiz-adv-x="1198" d="M172 0v1413h190v-278h279q173 0 279 -66q159 -98 159 -369q0 -283 -168 -387q-105 -63 -274 -63h-275v-250h-190zM362 418h281q130 0 180 53q58 61 58 223q0 173 -68 232q-30 24 -72.5 32.5t-109.5 8.5h-269v-549z" />
<glyph unicode="&#xdf;" horiz-adv-x="1196" d="M168 0v993q0 48 3.5 93t15.5 102.5t31 106t53 96.5t79 81.5t112 54.5t148 21q204 0 310 -131q96 -119 96 -334q0 -94 -10 -172q-62 0 -97 -1t-79.5 -5t-67.5 -12.5t-46 -23.5t-32.5 -38.5t-9.5 -56.5q0 -44 24.5 -75t64 -51t87.5 -38t96 -42.5t87.5 -58t64 -91.5 t24.5 -135q0 -147 -110 -230q-102 -76 -252 -76q-83 0 -168.5 27t-140.5 82l84 133q98 -88 249 -88q85 0 120.5 32.5t35.5 104.5q0 42 -19 74.5t-51 52t-72 39t-82 35t-82 41t-72 55.5t-51 80t-19 113q0 118 79 194q97 90 252 101q6 27 6 80q0 132 -51 194q-46 57 -155 57 q-71 0 -121.5 -20.5t-79.5 -52.5t-45 -83.5t-20.5 -100.5t-4.5 -117v-1010h-184z" />
<glyph unicode="&#xe0;" horiz-adv-x="1030" d="M74 274q0 165 116 246q121 84 355 84h147v51q0 132 -46 183t-165 51q-86 0 -147.5 -24.5t-116.5 -80.5l-100 115q130 143 370 143q195 0 290 -87.5t95 -284.5v-670h-170l-2 170q-48 -95 -134 -144t-191 -49q-141 0 -219 78q-82 76 -82 219zM252 1491l127 106l299 -360 l-111 -96zM262 283q0 -75 32.5 -114.5t106.5 -39.5q51 0 100.5 20t92.5 59t70.5 105.5t29.5 151.5h-168q-137 0 -200.5 -36.5t-63.5 -145.5z" />
<glyph unicode="&#xe1;" horiz-adv-x="1030" d="M74 274q0 165 116 246q121 84 355 84h147v51q0 132 -46 183t-165 51q-86 0 -147.5 -24.5t-116.5 -80.5l-100 115q130 143 370 143q195 0 290 -87.5t95 -284.5v-670h-170l-2 170q-48 -95 -134 -144t-191 -49q-141 0 -219 78q-82 76 -82 219zM262 283q0 -75 32.5 -114.5 t106.5 -39.5q51 0 100.5 20t92.5 59t70.5 105.5t29.5 151.5h-168q-137 0 -200.5 -36.5t-63.5 -145.5zM326 1237l299 360l125 -106l-314 -350z" />
<glyph unicode="&#xe2;" horiz-adv-x="1030" d="M74 274q0 165 116 246q121 84 355 84h147v51q0 132 -46 183t-165 51q-86 0 -147.5 -24.5t-116.5 -80.5l-100 115q130 143 370 143q195 0 290 -87.5t95 -284.5v-670h-170l-2 170q-48 -95 -134 -144t-191 -49q-141 0 -219 78q-82 76 -82 219zM221 1260l287 303l285 -301 l-101 -99l-186 195l-189 -197zM262 283q0 -75 32.5 -114.5t106.5 -39.5q51 0 100.5 20t92.5 59t70.5 105.5t29.5 151.5h-168q-137 0 -200.5 -36.5t-63.5 -145.5z" />
<glyph unicode="&#xe3;" horiz-adv-x="1030" d="M74 274q0 165 116 246q121 84 355 84h147v51q0 132 -46 183t-165 51q-86 0 -147.5 -24.5t-116.5 -80.5l-100 115q130 143 370 143q195 0 290 -87.5t95 -284.5v-670h-170l-2 170q-48 -95 -134 -144t-191 -49q-141 0 -219 78q-82 76 -82 219zM166 1346q100 129 219 129 q53 0 135.5 -34t116.5 -34q67 0 123 72l86 -101q-101 -127 -219 -127q-53 0 -135.5 34t-116.5 34q-67 0 -123 -72zM262 283q0 -75 32.5 -114.5t106.5 -39.5q51 0 100.5 20t92.5 59t70.5 105.5t29.5 151.5h-168q-137 0 -200.5 -36.5t-63.5 -145.5z" />
<glyph unicode="&#xe4;" horiz-adv-x="1030" d="M74 274q0 165 116 246q121 84 355 84h147v51q0 132 -46 183t-165 51q-86 0 -147.5 -24.5t-116.5 -80.5l-100 115q130 143 370 143q195 0 290 -87.5t95 -284.5v-670h-170l-2 170q-48 -95 -134 -144t-191 -49q-141 0 -219 78q-82 76 -82 219zM205 1337q0 47 30 79t76 32 q45 0 77 -32t32 -79q0 -44 -32 -75t-77 -31q-44 0 -75 31t-31 75zM262 283q0 -75 32.5 -114.5t106.5 -39.5q51 0 100.5 20t92.5 59t70.5 105.5t29.5 151.5h-168q-137 0 -200.5 -36.5t-63.5 -145.5zM592 1337q0 47 30 79t76 32t77.5 -32t31.5 -79q0 -44 -32 -75t-77 -31 t-75.5 30.5t-30.5 75.5z" />
<glyph unicode="&#xe5;" horiz-adv-x="1030" d="M74 274q0 165 116 246q121 84 355 84h147v51q0 132 -46 183t-165 51q-86 0 -147.5 -24.5t-116.5 -80.5l-100 115q130 143 370 143q195 0 290 -87.5t95 -284.5v-670h-170l-2 170q-48 -95 -134 -144t-191 -49q-141 0 -219 78q-82 76 -82 219zM262 283q0 -75 32.5 -114.5 t106.5 -39.5q51 0 100.5 20t92.5 59t70.5 105.5t29.5 151.5h-168q-137 0 -200.5 -36.5t-63.5 -145.5zM266 1403q0 98 67 160.5t173 62.5q103 0 171 -62.5t68 -160.5q0 -99 -67.5 -161t-171.5 -62q-103 0 -171.5 62.5t-68.5 160.5zM406 1401q0 -49 29 -76t71 -27 q43 0 71.5 28.5t28.5 76.5q0 49 -29 76.5t-71 27.5q-44 0 -72 -28t-28 -78z" />
<glyph unicode="&#xe6;" horiz-adv-x="1665" d="M74 276q0 63 18 114.5t46 86t71 60t85.5 39.5t96 22.5t96.5 11t93 2.5h118v35q0 129 -46.5 184.5t-176.5 55.5q-167 0 -266 -94l-92 116q66 70 161 101.5t195 31.5q246 0 336 -178q114 183 340 183q98 0 173 -35.5t120.5 -99t68.5 -146t23 -182.5q0 -60 -8 -109l-637 -4 q-1 -82 7.5 -137.5t33.5 -103t75 -70.5t128 -23q164 0 294 121l103 -119q-159 -159 -385 -159q-268 0 -371 221q-61 -117 -160.5 -170.5t-220.5 -53.5q-153 0 -236 79t-83 220zM264 281q0 -76 34.5 -114t117.5 -38q61 0 111 21.5t81.5 55.5t52.5 80t29.5 92t7.5 93h-129h-1 h-1h-1h-1h-1h-1h-1h-1h-1h-1h-2q-134 0 -186 -17q-102 -33 -107 -161v-12zM895 612h448q2 147 -41 214t-163 67q-126 0 -182 -72.5t-62 -208.5z" />
<glyph unicode="&#xe7;" horiz-adv-x="1001" d="M121 498q0 291 123 424q110 120 319 120q207 0 322 -120l-105 -123q-89 80 -217 80q-75 0 -124 -21.5t-75.5 -70t-36.5 -112.5t-10 -163q0 -195 46.5 -284t171.5 -89q152 0 256 125l110 -112q-120 -156 -334 -172l-8 -78q77 -30 109 -71t32 -99q0 -89 -59.5 -150 t-163.5 -61q-139 0 -219 117l84 88q55 -78 125 -78q40 0 65 21.5t25 60.5q0 38 -30.5 64.5t-106.5 45.5l14 148q-123 19 -203 112q-59 69 -84.5 166t-25.5 232z" />
<glyph unicode="&#xe8;" horiz-adv-x="1099" d="M121 481q0 298 121 432q120 134 327 134q107 0 187 -34t126.5 -95.5t68.5 -138.5t22 -171q0 -66 -6 -125l-656 -4q1 -69 7 -116.5t21.5 -93.5t42 -73t71 -43t106.5 -16q177 0 303 123l101 -115q-84 -85 -180.5 -125t-223.5 -40q-205 0 -313 108q-63 63 -94 156.5 t-31 236.5zM305 1491l127 106l299 -360l-110 -96zM317 625l465 2q2 136 -43 201t-172 65q-131 0 -186.5 -68t-63.5 -200z" />
<glyph unicode="&#xe9;" horiz-adv-x="1099" d="M121 481q0 298 121 432q120 134 327 134q107 0 187 -34t126.5 -95.5t68.5 -138.5t22 -171q0 -66 -6 -125l-656 -4q1 -69 7 -116.5t21.5 -93.5t42 -73t71 -43t106.5 -16q177 0 303 123l101 -115q-84 -85 -180.5 -125t-223.5 -40q-205 0 -313 108q-63 63 -94 156.5 t-31 236.5zM317 625l465 2q2 136 -43 201t-172 65q-131 0 -186.5 -68t-63.5 -200zM379 1237l299 360l125 -106l-314 -350z" />
<glyph unicode="&#xea;" horiz-adv-x="1099" d="M121 481q0 298 121 432q120 134 327 134q107 0 187 -34t126.5 -95.5t68.5 -138.5t22 -171q0 -66 -6 -125l-656 -4q1 -69 7 -116.5t21.5 -93.5t42 -73t71 -43t106.5 -16q177 0 303 123l101 -115q-84 -85 -180.5 -125t-223.5 -40q-205 0 -313 108q-63 63 -94 156.5 t-31 236.5zM274 1260l287 303l285 -301l-101 -99l-186 195l-188 -197zM317 625l465 2q2 136 -43 201t-172 65q-131 0 -186.5 -68t-63.5 -200z" />
<glyph unicode="&#xeb;" horiz-adv-x="1099" d="M121 481q0 298 121 432q120 134 327 134q107 0 187 -34t126.5 -95.5t68.5 -138.5t22 -171q0 -66 -6 -125l-656 -4q1 -69 7 -116.5t21.5 -93.5t42 -73t71 -43t106.5 -16q177 0 303 123l101 -115q-84 -85 -180.5 -125t-223.5 -40q-205 0 -313 108q-63 63 -94 156.5 t-31 236.5zM258 1337q0 47 30.5 79t76.5 32q45 0 76.5 -32t31.5 -79q0 -44 -32 -75t-76 -31t-75.5 31t-31.5 75zM317 625l465 2q2 136 -43 201t-172 65q-131 0 -186.5 -68t-63.5 -200zM645 1337q0 47 30.5 79t76.5 32t77 -32t31 -79q0 -44 -32 -75t-76 -31q-46 0 -76.5 30.5 t-30.5 75.5z" />
<glyph unicode="&#xec;" horiz-adv-x="518" d="M4 1491l127 106l299 -360l-111 -96zM168 0v1022h184v-1022h-184z" />
<glyph unicode="&#xed;" horiz-adv-x="518" d="M78 1237l299 360l125 -106l-314 -350zM168 0v1022h184v-1022h-184z" />
<glyph unicode="&#xee;" horiz-adv-x="518" d="M-27 1260l287 303l285 -301l-101 -99l-186 195l-188 -197zM168 0v1022h184v-1022h-184z" />
<glyph unicode="&#xef;" horiz-adv-x="518" d="M-43 1337q0 47 30 79t76 32q45 0 77 -32t32 -79q0 -44 -32 -75t-77 -31q-44 0 -75 31t-31 75zM168 0v1022h184v-1022h-184zM344 1337q0 47 30.5 79t76.5 32t77 -32t31 -79q0 -44 -32 -75t-76 -31q-45 0 -76 30.5t-31 75.5z" />
<glyph unicode="&#xf0;" horiz-adv-x="1157" d="M121 467q0 219 108 353t318 134q104 0 179 -33.5t112 -95.5q-11 214 -119 359l-168 -119l-80 106l156 111q-99 86 -287 176l78 148q223 -97 358 -220l160 113l82 -104l-150 -107q90 -114 130 -263t40 -351q0 -697 -475 -697q-214 0 -328 132t-114 358zM322 477 q0 -190 56.5 -267t186.5 -77q78 0 133 24.5t84.5 71t42.5 105t13 135.5q0 174 -65.5 256t-205.5 82q-139 0 -192 -78t-53 -252z" />
<glyph unicode="&#xf1;" d="M168 0v1022h176l-2 -213q38 110 125 174t209 64q143 0 221 -90t78 -250v-707h-184v664q0 110 -32.5 162.5t-113.5 52.5q-129 0 -211 -129.5t-82 -387.5v-362h-184zM229 1346q100 129 220 129q53 0 135 -34t116 -34q67 0 123 72l86 -101q-101 -127 -219 -127 q-53 0 -135.5 34t-116.5 34q-67 0 -123 -72z" />
<glyph unicode="&#xf2;" horiz-adv-x="1136" d="M121 494q0 147 27 246.5t96 174.5q123 132 334 132q210 0 323 -123q65 -71 90 -166t25 -234q0 -145 -26.5 -239.5t-96.5 -171.5q-62 -66 -140.5 -99.5t-193.5 -33.5q-207 0 -323 122q-66 70 -90.5 162t-24.5 230zM313 500q0 -213 72 -299q54 -64 176 -64q129 0 189 72 q73 90 73 311t-71 303q-62 66 -181 66q-124 0 -184 -72q-74 -91 -74 -317zM313 1491l127 106l299 -360l-110 -96z" />
<glyph unicode="&#xf3;" horiz-adv-x="1136" d="M121 494q0 147 27 246.5t96 174.5q123 132 334 132q210 0 323 -123q65 -71 90 -166t25 -234q0 -145 -26.5 -239.5t-96.5 -171.5q-62 -66 -140.5 -99.5t-193.5 -33.5q-207 0 -323 122q-66 70 -90.5 162t-24.5 230zM313 500q0 -213 72 -299q54 -64 176 -64q129 0 189 72 q73 90 73 311t-71 303q-62 66 -181 66q-124 0 -184 -72q-74 -91 -74 -317zM387 1237l299 360l125 -106l-313 -350z" />
<glyph unicode="&#xf4;" horiz-adv-x="1136" d="M121 494q0 147 27 246.5t96 174.5q123 132 334 132q210 0 323 -123q65 -71 90 -166t25 -234q0 -145 -26.5 -239.5t-96.5 -171.5q-62 -66 -140.5 -99.5t-193.5 -33.5q-207 0 -323 122q-66 70 -90.5 162t-24.5 230zM283 1260l286 303l285 -301l-100 -99l-187 195l-188 -197 zM313 500q0 -213 72 -299q54 -64 176 -64q129 0 189 72q73 90 73 311t-71 303q-62 66 -181 66q-124 0 -184 -72q-74 -91 -74 -317z" />
<glyph unicode="&#xf5;" horiz-adv-x="1136" d="M121 494q0 147 27 246.5t96 174.5q123 132 334 132q210 0 323 -123q65 -71 90 -166t25 -234q0 -145 -26.5 -239.5t-96.5 -171.5q-62 -66 -140.5 -99.5t-193.5 -33.5q-207 0 -323 122q-66 70 -90.5 162t-24.5 230zM227 1346q100 129 219 129q53 0 135.5 -34t116.5 -34 q67 0 123 72l86 -101q-101 -127 -219 -127q-53 0 -135.5 34t-116.5 34q-67 0 -123 -72zM313 500q0 -213 72 -299q54 -64 176 -64q129 0 189 72q73 90 73 311t-71 303q-62 66 -181 66q-124 0 -184 -72q-74 -91 -74 -317z" />
<glyph unicode="&#xf6;" horiz-adv-x="1136" d="M121 494q0 147 27 246.5t96 174.5q123 132 334 132q210 0 323 -123q65 -71 90 -166t25 -234q0 -145 -26.5 -239.5t-96.5 -171.5q-62 -66 -140.5 -99.5t-193.5 -33.5q-207 0 -323 122q-66 70 -90.5 162t-24.5 230zM266 1337q0 47 30.5 79t76.5 32q45 0 76.5 -32t31.5 -79 q0 -44 -32 -75t-76 -31t-75.5 31t-31.5 75zM313 500q0 -213 72 -299q54 -64 176 -64q129 0 189 72q73 90 73 311t-71 303q-62 66 -181 66q-124 0 -184 -72q-74 -91 -74 -317zM653 1337q0 47 30.5 79t76.5 32t77 -32t31 -79q0 -44 -32 -75t-76 -31q-46 0 -76.5 30.5 t-30.5 75.5z" />
<glyph unicode="&#xf7;" horiz-adv-x="1218" d="M145 461v170h926v-170h-926zM498 199q0 46 32 77t78 31q47 0 80 -31t33 -77t-33 -78.5t-80 -32.5q-46 0 -78 32.5t-32 78.5zM498 895q0 46 32.5 78.5t79.5 32.5t79 -32.5t32 -78.5t-32 -78.5t-79 -32.5t-79.5 32.5t-32.5 78.5z" />
<glyph unicode="&#xf8;" horiz-adv-x="1146" d="M113 -53l114 178q-94 123 -94 364q0 266 111 406q122 149 348 149q116 0 199 -36l108 168l150 -101l-115 -180q92 -123 92 -367q0 -282 -123 -419q-120 -134 -334 -134q-112 0 -200 37l-107 -166zM317 494q0 -122 19 -197l371 577q-49 21 -117 21q-133 0 -197 -76 q-76 -94 -76 -325zM455 145q44 -20 118 -20q141 0 203 88q68 96 68 313q0 112 -21 195z" />
<glyph unicode="&#xf9;" d="M168 315v707h184v-670q0 -101 33 -157t115 -56q120 0 201 126t81 382v375h183v-1022h-172v213q-36 -111 -122 -173.5t-208 -62.5q-144 0 -219.5 87t-75.5 251zM313 1491l127 106l299 -360l-110 -96z" />
<glyph unicode="&#xfa;" d="M168 315v707h184v-670q0 -101 33 -157t115 -56q120 0 201 126t81 382v375h183v-1022h-172v213q-36 -111 -122 -173.5t-208 -62.5q-144 0 -219.5 87t-75.5 251zM387 1237l299 360l125 -106l-313 -350z" />
<glyph unicode="&#xfb;" d="M168 315v707h184v-670q0 -101 33 -157t115 -56q120 0 201 126t81 382v375h183v-1022h-172v213q-36 -111 -122 -173.5t-208 -62.5q-144 0 -219.5 87t-75.5 251zM283 1260l286 303l285 -301l-100 -99l-187 195l-188 -197z" />
<glyph unicode="&#xfc;" d="M168 315v707h184v-670q0 -101 33 -157t115 -56q120 0 201 126t81 382v375h183v-1022h-172v213q-36 -111 -122 -173.5t-208 -62.5q-144 0 -219.5 87t-75.5 251zM266 1337q0 47 30.5 79t76.5 32q45 0 76.5 -32t31.5 -79q0 -44 -32 -75t-76 -31t-75.5 31t-31.5 75zM653 1337 q0 47 30.5 79t76.5 32t77 -32t31 -79q0 -44 -32 -75t-76 -31q-46 0 -76.5 30.5t-30.5 75.5z" />
<glyph unicode="&#xfd;" horiz-adv-x="1024" d="M45 1022h197l286 -922l258 922h195l-297 -963q-41 -134 -84 -231t-98.5 -172t-125.5 -112.5t-155 -37.5q-97 0 -147 37l63 154q43 -21 90 -21q90 0 148 76.5t114 255.5h-108zM332 1237l299 360l125 -106l-314 -350z" />
<glyph unicode="&#xfe;" horiz-adv-x="1161" d="M168 -492v2059h184v-713q50 91 140.5 142t193.5 51q144 0 234 -97q120 -128 120 -422q0 -321 -145 -454q-104 -94 -264 -94q-186 0 -279 122v-594h-184zM346 457q0 -163 64 -238q67 -80 200 -80q128 0 181 88.5t53 292.5q0 192 -45 277.5t-148 85.5q-60 0 -115.5 -28 t-93.5 -77q-96 -120 -96 -321z" />
<glyph unicode="&#xff;" horiz-adv-x="1024" d="M45 1022h197l286 -922l258 922h195l-297 -963q-41 -134 -84 -231t-98.5 -172t-125.5 -112.5t-155 -37.5q-97 0 -147 37l63 154q43 -21 90 -21q90 0 148 76.5t114 255.5h-108zM211 1337q0 47 30 79t76 32q45 0 77 -32t32 -79q0 -44 -32 -75t-77 -31q-44 0 -75 31t-31 75z M598 1337q0 47 30.5 79t76.5 32t77 -32t31 -79q0 -44 -32 -75t-76 -31q-45 0 -76 30.5t-31 75.5z" />
<glyph unicode="&#x152;" horiz-adv-x="1947" d="M119 692q0 70 3 124t14 131.5t38 147t68 124.5q149 202 471 202q37 0 121 -4t118 -4h871v-168h-672q67 -71 91 -180t26 -260h504v-168h-504q0 -164 -24.5 -280t-100.5 -191h688v-166h-897q-35 0 -112.5 -4t-119.5 -4q-327 0 -471 201q-38 53 -63 121.5t-34.5 144 t-12 123.5t-2.5 110zM326 709q0 -95 1.5 -149t9 -121.5t22 -103.5t40.5 -75t65.5 -57.5t95.5 -30.5t132 -12q78 0 136.5 13t98.5 32t66.5 60t41.5 76.5t22 103.5t8.5 118.5t1.5 143.5q0 97 -1.5 151t-8.5 122t-21.5 103t-39.5 74.5t-63.5 56.5t-93 29t-128.5 12 q-79 0 -139 -13.5t-101 -33t-68.5 -60.5t-43 -77t-23 -103t-9 -118t-1.5 -141z" />
<glyph unicode="&#x153;" horiz-adv-x="1810" d="M121 492q0 260 121 407q125 148 338 148q242 0 350 -189q104 189 344 189q106 0 185 -35.5t126 -99.5t69.5 -146t22.5 -182q0 -23 -3 -59.5t-3 -43.5l-651 -4q-1 -72 3.5 -121t18.5 -93.5t40 -70t69 -40.5t104 -15q192 0 312 123l104 -110q-159 -170 -401 -170 q-256 0 -352 188q-117 -191 -363 -191q-211 0 -326 140q-108 126 -108 375zM315 489q0 -49 2 -86t8.5 -75.5t17.5 -66t29 -52t43.5 -39.5t61.5 -24t82 -9q68 0 116.5 20t77.5 52t46 84.5t22.5 106t5.5 126.5q0 72 -5.5 123.5t-21 98.5t-43 75.5t-72 45t-107.5 16.5 q-67 0 -114.5 -18.5t-76 -50t-45 -84t-22 -108.5t-5.5 -135zM1024 623h463q2 147 -41 209.5t-172 62.5q-68 0 -115 -17t-75 -53t-41.5 -84t-18.5 -118z" />
<glyph unicode="&#x178;" horiz-adv-x="1093" d="M8 1413h219l318 -663l323 663h217l-448 -858v-555h-191v555zM246 1729q0 47 30 78.5t76 31.5q45 0 77 -31.5t32 -78.5q0 -44 -32.5 -75.5t-76.5 -31.5t-75 31.5t-31 75.5zM633 1729q0 47 30 78.5t76 31.5t77.5 -31.5t31.5 -78.5q0 -44 -32.5 -75.5t-76.5 -31.5 q-45 0 -75.5 31t-30.5 76z" />
<glyph unicode="&#x2c6;" horiz-adv-x="409" d="M-80 1260l287 303l285 -301l-101 -99l-186 195l-189 -197z" />
<glyph unicode="&#x2dc;" horiz-adv-x="409" d="M-135 1346q100 129 219 129q53 0 135.5 -34t116.5 -34q67 0 123 72l86 -101q-101 -127 -219 -127q-53 0 -135.5 34t-116.5 34q-67 0 -123 -72z" />
<glyph unicode="&#x2000;" horiz-adv-x="966" />
<glyph unicode="&#x2001;" horiz-adv-x="1933" />
<glyph unicode="&#x2002;" horiz-adv-x="966" />
<glyph unicode="&#x2003;" horiz-adv-x="1933" />
<glyph unicode="&#x2004;" horiz-adv-x="644" />
<glyph unicode="&#x2005;" horiz-adv-x="483" />
<glyph unicode="&#x2006;" horiz-adv-x="322" />
<glyph unicode="&#x2007;" horiz-adv-x="322" />
<glyph unicode="&#x2008;" horiz-adv-x="241" />
<glyph unicode="&#x2009;" horiz-adv-x="386" />
<glyph unicode="&#x200a;" horiz-adv-x="107" />
<glyph unicode="&#x2010;" horiz-adv-x="684" d="M41 459v174h604v-174h-604z" />
<glyph unicode="&#x2011;" horiz-adv-x="684" d="M41 459v174h604v-174h-604z" />
<glyph unicode="&#x2012;" horiz-adv-x="684" d="M41 459v174h604v-174h-604z" />
<glyph unicode="&#x2013;" horiz-adv-x="1024" d="M41 459v174h942v-174h-942z" />
<glyph unicode="&#x2014;" horiz-adv-x="2048" d="M41 459v174h1966v-174h-1966z" />
<glyph unicode="&#x2018;" horiz-adv-x="481" d="M121 1198q0 145 162 397l118 -67q-79 -149 -100 -228q28 -12 44.5 -40.5t16.5 -65.5q0 -53 -32.5 -88t-87.5 -35t-88 36t-33 91z" />
<glyph unicode="&#x2019;" horiz-adv-x="481" d="M80 1092q80 151 102 227q-29 12 -46 40.5t-17 65.5q0 52 33.5 87.5t87.5 35.5q56 0 89 -36t33 -91q0 -147 -163 -397z" />
<glyph unicode="&#x201a;" horiz-adv-x="479" d="M80 -221q4 7 18.5 34t19.5 37t16.5 34t18 39t14 36t13.5 41q-28 12 -44.5 40.5t-16.5 63.5q0 52 32.5 86.5t86.5 34.5q56 0 89 -35t33 -90q0 -137 -161 -387z" />
<glyph unicode="&#x201c;" horiz-adv-x="847" d="M121 1163q0 139 160 387l118 -65q-4 -7 -21.5 -40t-24 -46t-19 -39.5t-20.5 -49t-15 -46.5q29 -12 46 -40.5t17 -64.5q0 -52 -33 -86.5t-87 -34.5q-55 0 -88 35t-33 90zM489 1163q0 140 162 387l117 -65q-4 -7 -21.5 -40t-24 -46t-19 -39.5t-20.5 -49t-15 -46.5 q29 -12 46 -40.5t17 -64.5q0 -52 -33.5 -86.5t-87.5 -34.5q-55 0 -88 35t-33 90z" />
<glyph unicode="&#x201d;" horiz-adv-x="847" d="M80 1057q3 5 18 33.5l20 38t17 34t18 39t13.5 36.5t13.5 42q-28 12 -44.5 40t-16.5 64q0 52 32.5 86.5t86.5 34.5q56 0 89 -35.5t33 -89.5q0 -139 -161 -389zM451 1057q4 7 25.5 49.5t29.5 59.5t21.5 50.5t21.5 63.5q-28 12 -45 40t-17 64q0 52 32.5 86.5t86.5 34.5 q56 0 89.5 -35.5t33.5 -89.5q0 -142 -162 -389z" />
<glyph unicode="&#x201e;" horiz-adv-x="847" d="M80 -221q4 7 18.5 34t19.5 37t16.5 34t18 39t14 36t13.5 41q-28 12 -44.5 40.5t-16.5 63.5q0 52 32.5 86.5t86.5 34.5q56 0 89 -35t33 -90q0 -137 -161 -387zM451 -221q5 9 25.5 50t29 58.5t22 50.5t21.5 62q-28 12 -45 40.5t-17 63.5q0 52 32.5 86.5t86.5 34.5 q56 0 89.5 -35t33.5 -90q0 -140 -162 -387z" />
<glyph unicode="&#x2022;" horiz-adv-x="604" d="M119 682q0 79 51.5 131.5t130.5 52.5t131.5 -53t52.5 -131q0 -75 -53 -128.5t-131 -53.5t-130 53.5t-52 128.5z" />
<glyph unicode="&#x2026;" horiz-adv-x="2048" d="M219 106q0 54 34.5 88.5t88.5 34.5q53 0 87 -34.5t34 -88.5q0 -51 -34.5 -85.5t-86.5 -34.5t-87.5 34.5t-35.5 85.5zM903 106q0 54 34 88.5t87 34.5q54 0 87.5 -34.5t33.5 -88.5q0 -51 -34.5 -85.5t-86.5 -34.5t-86.5 34.5t-34.5 85.5zM1585 106q0 54 34 88.5t87 34.5 q54 0 88.5 -34.5t34.5 -88.5q0 -51 -35.5 -85.5t-87.5 -34.5q-51 0 -86 34.5t-35 85.5z" />
<glyph unicode="&#x202f;" horiz-adv-x="386" />
<glyph unicode="&#x2039;" horiz-adv-x="602" d="M41 545l369 424l127 -101l-275 -323l275 -320l-127 -102z" />
<glyph unicode="&#x203a;" horiz-adv-x="602" d="M66 223l276 324l-276 321l129 101l366 -422l-366 -424z" />
<glyph unicode="&#x205f;" horiz-adv-x="483" />
<glyph unicode="&#x20ac;" d="M10 436l39 160h117v195h-156l39 157h129q24 173 94 281q130 205 437 205q200 0 333 -82l-51 -160q-126 76 -295 76q-161 0 -232 -76.5t-89 -243.5h553l-41 -157h-522q0 -127 2 -195h473l-41 -160h-420q23 -151 89 -222t202 -71q182 0 344 129v-186q-138 -106 -340 -106 q-164 0 -270 66t-156 167q-48 96 -68 223h-170z" />
<glyph unicode="&#x2122;" horiz-adv-x="1267" d="M29 1331v123h426v-123h-144v-397h-139v397h-143zM532 934l35 520h185l108 -309l107 309h184l33 -520h-135l-15 369l-112 -347h-127l-113 347l-14 -369h-136z" />
<glyph unicode="&#xe000;" horiz-adv-x="1024" d="M0 0v1024h1024v-1024h-1024z" />
<glyph unicode="&#xfb02;" horiz-adv-x="1277" d="M72 829v162h180v103q0 411 356 411q70 0 135 -24l-43 -154q-41 16 -94 16q-39 0 -68 -7t-47.5 -24.5t-29.5 -36.5t-16.5 -53t-7 -63.5t-1.5 -77.5v-90h232v-162h-232v-829h-184v829h-180zM926 0v1567h184v-1567h-184z" />
</font>
</defs>
</svg>
