<?xml version="1.0" encoding="utf-8"?>
<!-- Generator: Adobe Illustrator 16.0.4, SVG Export Plug-In . SVG Version: 6.00 Build 0)  -->
<!DOCTYPE svg PUBLIC "-//W3C//DTD SVG 1.1//EN" "http://www.w3.org/Graphics/SVG/1.1/DTD/svg11.dtd">
<svg version="1.1" id="Layer_1" xmlns="http://www.w3.org/2000/svg" xmlns:xlink="http://www.w3.org/1999/xlink" x="0px" y="0px"
	 width="1087px" height="145px" viewBox="0 0 1087 145" enable-background="new 0 0 1087 145" xml:space="preserve">
<rect fill="#F2F4F7" width="1085.867" height="145.333"/>
<g>
	<g>
		<rect x="89.333" y="86.205" fill="#CBCFC4" width="36" height="36"/>
		<rect x="49.333" y="86.205" fill="#E8CF8D" width="36" height="36"/>
		<rect x="129.333" y="86.205" fill="#A9585A" width="36" height="36"/>
		<rect x="169.333" y="86.205" fill="#E5DEC8" width="36" height="36"/>
		<rect x="209.333" y="86.205" fill="#191A1E" width="36" height="36"/>
		<rect x="249.333" y="86.205" fill="#ECDFB1" width="36" height="36"/>
	</g>
	<g>
		<path fill="#58595B" d="M328.956,99.646v0.745h-3.788v2.453h3.125v0.766h-3.125v2.774h3.757v0.745h-4.554v-7.483H328.956z"/>
		<path fill="#58595B" d="M334.894,101.643l-1.776,2.668l2.014,2.817h-0.983l-1.51-2.13l-1.429,2.13h-0.973l1.924-2.785
			l-1.893-2.701h0.942l1.436,2.03l1.369-2.03H334.894z"/>
		<path fill="#58595B" d="M340.531,103.268c-0.095-0.071-0.03-0.184-0.076-0.277c-0.032-0.064-0.481-0.717-1.417-0.717
			c-1.007,0-1.81,0.779-1.81,2.028c0,1.281,0.814,2.175,1.882,2.175c0.549,0,1.081-0.243,1.451-0.663l0.497,0.58
			c-0.522,0.563-1.256,0.87-2.021,0.87c-1.55,0-2.699-1.22-2.699-2.873c0-1.645,1.144-2.852,2.753-2.852
			c0.881,0,1.618,0.382,2.049,1.015L340.531,103.268z"/>
		<path fill="#58595B" d="M344.708,101.529c0.851,0,1.546,0.311,1.906,0.91c0.252,0.422,0.269,0.846,0.269,1.295v3.395h-0.817v-0.6
			c-0.598,0.49-1.294,0.735-1.967,0.735c-1.145,0-1.844-0.747-1.844-1.551c0-0.607,0.393-1.248,1.256-1.565
			c0.697-0.256,1.561-0.248,2.368-0.248h0.176v-0.196c0-0.291,0.004-0.643-0.178-0.943c-0.155-0.254-0.477-0.527-1.127-0.527
			c-0.506,0-1.123,0.141-1.572,0.611l-0.424-0.548C343.265,101.767,343.97,101.529,344.708,101.529z M345.89,104.562
			c-0.569,0-1.303-0.036-1.801,0.083c-0.687,0.164-0.966,0.611-0.966,1.009c0,0.49,0.424,0.949,1.151,0.949
			c0.718,0,1.242-0.435,1.44-0.646c0.37-0.393,0.372-0.749,0.372-1.032v-0.362H345.89z"/>
		<path fill="#58595B" d="M349.178,101.643c0.021,0.098-0.039,0.162-0.039,0.235c0,0.029,0.008,0.05,0.018,0.076l1.584,4.006
			l0.879-2.039c0.311-0.719,0.601-1.479,0.746-2.277h0.776c-0.182,0.835-0.49,1.634-0.817,2.401l-1.335,3.126h-0.672l-2.174-5.527
			H349.178z"/>
		<path fill="#58595B" d="M356.708,101.529c0.851,0,1.546,0.311,1.906,0.91c0.252,0.422,0.269,0.846,0.269,1.295v3.395h-0.817v-0.6
			c-0.598,0.49-1.294,0.735-1.967,0.735c-1.145,0-1.844-0.747-1.844-1.551c0-0.607,0.393-1.248,1.256-1.565
			c0.697-0.256,1.561-0.248,2.368-0.248h0.176v-0.196c0-0.291,0.004-0.643-0.178-0.943c-0.155-0.254-0.477-0.527-1.127-0.527
			c-0.506,0-1.123,0.141-1.572,0.611l-0.424-0.548C355.265,101.767,355.97,101.529,356.708,101.529z M357.89,104.562
			c-0.569,0-1.303-0.036-1.801,0.083c-0.687,0.164-0.966,0.611-0.966,1.009c0,0.49,0.424,0.949,1.151,0.949
			c0.718,0,1.242-0.435,1.44-0.646c0.37-0.393,0.372-0.749,0.372-1.032v-0.362H357.89z"/>
		<path fill="#58595B" d="M362.865,100.029c0.042,0.122-0.044,0.195-0.068,0.324c-0.057,0.304-0.139,1.291-0.139,1.291h1.791v0.714
			h-1.801c-0.069,0.712-0.104,1.428-0.104,2.144c0,0.794,0.029,1.005,0.035,1.053c0.088,0.658,0.513,0.884,0.922,0.884
			c0.337,0,0.762-0.155,1.228-0.5l0.269,0.683c-0.463,0.339-1.099,0.612-1.751,0.612c-0.56,0-0.988-0.218-1.248-0.584
			c-0.319-0.449-0.323-1-0.323-1.491c0-0.931,0.038-1.863,0.114-2.801h-1.283l0.01-0.704h1.304l0.104-1.47L362.865,100.029z"/>
		<path fill="#58595B" d="M369.134,101.643v4.792h1.284v0.693h-3.55v-0.693h1.397v-4.088h-1.325v-0.704H369.134z M369.341,99.878
			c0,0.339-0.277,0.616-0.621,0.616c-0.343,0-0.621-0.277-0.621-0.616c0-0.339,0.278-0.616,0.621-0.616
			S369.341,99.539,369.341,99.878z"/>
		<path fill="#58595B" d="M374.72,107.274c-1.381,0-2.568-1.175-2.568-2.842c0-1.693,1.197-2.902,2.594-2.902
			c1.245,0,2.439,0.993,2.439,2.885C377.185,106.23,376.017,107.274,374.72,107.274z M373.063,104.357
			c0,1.352,0.79,2.172,1.663,2.172c0.8,0,1.589-0.7,1.589-2.079c0-1.504-0.839-2.187-1.629-2.187
			C373.848,102.263,373.063,103.014,373.063,104.357z"/>
		<path fill="#58595B" d="M378.484,101.654h0.879v0.962c0.402-0.611,1.078-1.097,1.821-1.097c0.625,0,1.186,0.351,1.459,0.967
			c0.195,0.441,0.198,0.893,0.198,1.321v3.322h-0.849v-3.302c0-0.387-0.003-0.857-0.299-1.211c-0.197-0.235-0.468-0.347-0.743-0.347
			c-0.58,0-1.106,0.484-1.315,0.763c-0.228,0.304-0.272,0.572-0.272,0.941v3.157h-0.879V101.654z"/>
		<path fill="#58595B" d="M386.058,109.147l-0.414-0.362c0.284-0.262,0.486-0.554,0.603-0.746c0.059-0.096,0.178-0.301,0.178-0.5
			c0-0.247-0.177-0.357-0.281-0.427c-0.106-0.07-0.334-0.208-0.334-0.531c0-0.362,0.296-0.684,0.69-0.684
			c0.427,0,0.833,0.381,0.833,0.995C387.332,107.517,386.893,108.299,386.058,109.147z"/>
		<path fill="#58595B" d="M399.258,107.139h-0.838v-6.448l-1.501,0.445l-0.197-0.466l1.956-1.025h0.58V107.139z"/>
		<path fill="#58595B" d="M402.619,106.57l0.58-0.642c0.127,0.081,0.094,0.21,0.196,0.289c0.002,0.002,0.363,0.271,0.9,0.271
			c0.537,0,1.158-0.271,1.477-1.026c0.079-0.187,0.269-0.69,0.305-1.852c-0.348,0.505-0.924,0.808-1.541,0.808
			c-1.085,0-2.051-0.923-2.051-2.359c0-1.448,0.977-2.475,2.139-2.475c0.78,0,1.641,0.479,2.03,1.622
			c0.174,0.511,0.258,1.156,0.258,2.091c0,1.223-0.189,1.872-0.32,2.217c-0.453,1.194-1.407,1.741-2.319,1.741
			C403.654,107.255,403.06,107.007,402.619,106.57z M406.034,102.771c0.133-1.509-0.578-2.443-1.429-2.443
			c-0.678,0-1.304,0.608-1.304,1.696c0,1.113,0.648,1.661,1.314,1.661C405.154,103.685,405.704,103.328,406.034,102.771z"/>
		<path fill="#58595B" d="M412.728,99.656v0.756h-3.084l-0.114,2.153c0.387-0.193,0.804-0.29,1.217-0.29
			c1.251,0,2.261,0.892,2.261,2.492c0,1.62-1.069,2.498-2.36,2.498c-0.888,0-1.719-0.417-2.215-1.149l0.745-0.559
			c0.103,0.073,0.041,0.191,0.089,0.283c0.042,0.079,0.563,0.69,1.37,0.69c0.802,0,1.512-0.629,1.512-1.778
			c0-1.191-0.743-1.784-1.529-1.784c-0.51,0-1.04,0.251-1.4,0.705l-0.539-0.217l0.259-3.799H412.728z"/>
		<path fill="#58595B" d="M419.059,103.519c0,2.568-1.28,3.745-2.365,3.745c-1.182,0-2.428-1.394-2.428-3.812
			c0-2.392,1.229-3.848,2.415-3.848C417.831,99.604,419.059,100.968,419.059,103.519z M416.67,100.339
			c-0.741,0-1.619,1.056-1.619,2.968c0,0.528,0.062,1.002,0.167,1.412l2.63-3.406C417.528,100.653,417.079,100.339,416.67,100.339z
			 M415.495,105.479c0.325,0.655,0.784,1.02,1.228,1.02c0.66,0,1.561-0.794,1.561-2.882c0-0.581-0.058-1.081-0.158-1.502
			L415.495,105.479z"/>
	</g>
</g>
<g>
	<g>
		<rect x="652.291" y="86.47" fill="#6AABE1" width="36" height="36"/>
		<rect x="612.291" y="86.47" fill="#DBB0C5" width="36" height="36"/>
		<rect x="692.291" y="86.47" fill="#E1D6DD" width="36" height="36"/>
		<rect x="732.291" y="86.47" fill="#C4A957" width="36" height="36"/>
		<rect x="772.291" y="86.47" fill="#77B0B2" width="36" height="36"/>
		<rect x="812.291" y="86.47" fill="#B95F67" width="36" height="36"/>
	</g>
	<g>
		<path fill="#58595B" d="M891.312,101.582c-0.026-0.008-0.061-0.032-0.063-0.098c-0.001-0.044,0.005-0.069-0.027-0.115
			c-0.29-0.422-0.825-0.74-1.521-0.74c-0.855,0-1.35,0.522-1.35,1.095c0,0.306,0.138,0.749,0.764,1.115
			c0.684,0.4,1.736,0.612,2.387,1.224c0.467,0.44,0.58,0.962,0.58,1.354c0,0.94-0.672,2.16-2.49,2.16
			c-0.922,0-1.76-0.323-2.348-0.963l0.497-0.859c0.058,0.029,0.055,0.095,0.055,0.115c-0.001,0.049-0.004,0.08,0.034,0.127
			c0.334,0.423,0.965,0.824,1.785,0.824c1.086,0,1.633-0.706,1.633-1.355c0-0.334-0.137-0.725-0.627-1.032
			c-0.565-0.354-1.645-0.613-2.336-1.124c-0.623-0.46-0.795-1.022-0.795-1.458c0-1.022,0.928-1.915,2.277-1.915
			c0.814,0,1.566,0.33,2.072,0.931L891.312,101.582z"/>
		<path fill="#58595B" d="M897.896,103.786c0.054,0.318,0.071,0.67,0.038,1.046h-3.889c0.064,1.641,1.126,2.045,1.859,2.045
			c0.545,0,1.061-0.217,1.418-0.617l0.477,0.466c-0.469,0.564-1.18,0.85-1.961,0.85c-1.488,0-2.632-0.977-2.632-2.802
			c0-2,1.211-2.936,2.52-2.936C896.624,101.838,897.646,102.314,897.896,103.786z M897.084,104.169
			c0.104-0.888-0.531-1.668-1.418-1.668c-0.589,0-1.423,0.376-1.594,1.668H897.084z"/>
		<path fill="#58595B" d="M901.666,101.851c0.85,0,1.545,0.311,1.905,0.91c0.253,0.422,0.269,0.846,0.269,1.295v3.395h-0.817v-0.6
			c-0.598,0.49-1.294,0.735-1.968,0.735c-1.145,0-1.844-0.747-1.844-1.551c0-0.607,0.393-1.248,1.257-1.565
			c0.697-0.256,1.562-0.248,2.368-0.248h0.176v-0.196c0-0.291,0.004-0.643-0.178-0.943c-0.154-0.254-0.477-0.527-1.127-0.527
			c-0.507,0-1.123,0.141-1.572,0.611l-0.424-0.548C900.223,102.088,900.927,101.851,901.666,101.851z M902.847,104.884
			c-0.569,0-1.304-0.036-1.801,0.083c-0.687,0.164-0.966,0.611-0.966,1.009c0,0.49,0.424,0.949,1.15,0.949
			c0.718,0,1.242-0.435,1.44-0.646c0.37-0.393,0.372-0.749,0.372-1.032v-0.362H902.847z"/>
		<path fill="#58595B" d="M907.822,100.351c0.041,0.122-0.045,0.195-0.068,0.324c-0.057,0.304-0.139,1.291-0.139,1.291h1.79v0.714
			h-1.801c-0.069,0.712-0.104,1.428-0.104,2.144c0,0.794,0.029,1.005,0.035,1.053c0.088,0.658,0.514,0.884,0.922,0.884
			c0.338,0,0.763-0.155,1.229-0.5l0.269,0.683c-0.464,0.339-1.099,0.612-1.751,0.612c-0.561,0-0.988-0.218-1.248-0.584
			c-0.319-0.449-0.324-1-0.324-1.491c0-0.931,0.038-1.863,0.114-2.801h-1.283l0.011-0.704h1.304l0.104-1.47L907.822,100.351z"/>
		<path fill="#58595B" d="M915.896,103.786c0.054,0.318,0.071,0.67,0.038,1.046h-3.889c0.064,1.641,1.126,2.045,1.859,2.045
			c0.545,0,1.061-0.217,1.418-0.617l0.477,0.466c-0.469,0.564-1.18,0.85-1.961,0.85c-1.488,0-2.632-0.977-2.632-2.802
			c0-2,1.211-2.936,2.52-2.936C914.624,101.838,915.646,102.314,915.896,103.786z M915.084,104.169
			c0.104-0.888-0.531-1.668-1.418-1.668c-0.589,0-1.423,0.376-1.594,1.668H915.084z"/>
		<path fill="#58595B" d="M921.074,99.471h0.921c0.005,0.082-0.041,0.141-0.065,0.179c-0.043,0.066-0.049,0.1-0.049,0.162
			l0.011,7.131c0.001,0.166,0.009,0.339,0.052,0.507h-0.859c-0.043-0.133-0.051-0.273-0.051-0.404v-0.476
			c-0.345,0.615-0.992,1.001-1.693,1.001c-1.059,0-2.178-0.884-2.178-2.907c0-2.094,1.261-2.836,2.305-2.836
			c0.758,0,1.344,0.379,1.607,0.943V99.471z M917.999,104.524c0,1.805,0.921,2.287,1.542,2.287c0.571,0,1.139-0.382,1.35-1.04
			c0.089-0.276,0.114-0.583,0.114-0.997c0-0.612-0.024-0.917-0.093-1.172c-0.217-0.813-0.924-1.069-1.404-1.069
			C918.877,102.534,917.999,102.964,917.999,104.524z"/>
		<path fill="#58595B" d="M929.772,99.978l1.853,3.654l1.884-3.664h0.632v7.494h-0.797v-5.651l-1.615,3.012h-0.32l-1.512-2.971v5.61
			h-0.787v-7.483H929.772z"/>
		<path fill="#58595B" d="M937.666,101.851c0.85,0,1.545,0.311,1.905,0.91c0.253,0.422,0.269,0.846,0.269,1.295v3.395h-0.817v-0.6
			c-0.598,0.49-1.294,0.735-1.968,0.735c-1.145,0-1.844-0.747-1.844-1.551c0-0.607,0.393-1.248,1.257-1.565
			c0.697-0.256,1.562-0.248,2.368-0.248h0.176v-0.196c0-0.291,0.004-0.643-0.178-0.943c-0.154-0.254-0.477-0.527-1.127-0.527
			c-0.507,0-1.123,0.141-1.572,0.611l-0.424-0.548C936.223,102.088,936.927,101.851,937.666,101.851z M938.847,104.884
			c-0.569,0-1.304-0.036-1.801,0.083c-0.687,0.164-0.966,0.611-0.966,1.009c0,0.49,0.424,0.949,1.15,0.949
			c0.718,0,1.242-0.435,1.44-0.646c0.37-0.393,0.372-0.749,0.372-1.032v-0.362H938.847z"/>
		<path fill="#58595B" d="M941.441,101.976h0.879v0.962c0.402-0.611,1.078-1.097,1.822-1.097c0.624,0,1.186,0.351,1.459,0.967
			c0.194,0.441,0.197,0.893,0.197,1.321v3.322h-0.849v-3.302c0-0.387-0.003-0.857-0.3-1.211c-0.196-0.235-0.467-0.347-0.742-0.347
			c-0.58,0-1.105,0.484-1.314,0.763c-0.229,0.304-0.273,0.572-0.273,0.941v3.157h-0.879V101.976z"/>
		<path fill="#58595B" d="M949.015,109.469l-0.414-0.362c0.284-0.262,0.485-0.554,0.603-0.746c0.059-0.096,0.178-0.301,0.178-0.5
			c0-0.247-0.176-0.357-0.281-0.427c-0.105-0.07-0.334-0.208-0.334-0.531c0-0.362,0.296-0.684,0.69-0.684
			c0.427,0,0.833,0.381,0.833,0.995C950.289,107.839,949.85,108.621,949.015,109.469z"/>
		<path fill="#58595B" d="M962.215,107.461h-0.838v-6.448l-1.501,0.445l-0.196-0.466l1.955-1.025h0.58V107.461z"/>
		<path fill="#58595B" d="M965.576,106.892l0.579-0.642c0.128,0.081,0.095,0.21,0.196,0.289c0.002,0.002,0.363,0.271,0.899,0.271
			c0.537,0,1.157-0.271,1.478-1.026c0.078-0.187,0.269-0.69,0.305-1.852c-0.349,0.505-0.925,0.808-1.541,0.808
			c-1.086,0-2.051-0.923-2.051-2.359c0-1.448,0.977-2.475,2.139-2.475c0.78,0,1.641,0.479,2.029,1.622
			c0.174,0.511,0.258,1.156,0.258,2.091c0,1.223-0.188,1.872-0.319,2.217c-0.453,1.194-1.407,1.741-2.319,1.741
			C966.611,107.577,966.017,107.329,965.576,106.892z M968.991,103.093c0.133-1.509-0.578-2.443-1.429-2.443
			c-0.678,0-1.304,0.608-1.304,1.696c0,1.113,0.648,1.661,1.314,1.661C968.111,104.007,968.661,103.65,968.991,103.093z"/>
		<path fill="#58595B" d="M974.433,103.466c0.775,0.283,1.284,1.04,1.284,1.929c0,1.161-0.87,2.182-2.302,2.182
			c-0.748,0-1.462-0.293-1.964-0.851l0.632-0.755c0.106,0.109,0.054,0.225,0.155,0.34c0.053,0.06,0.473,0.506,1.17,0.506
			c0.875,0,1.504-0.703,1.504-1.523c0-0.891-0.744-1.419-1.756-1.419c-0.127,0-0.254,0.009-0.38,0.026v-0.673
			c0.709-0.001,1.049-0.132,1.181-0.189c0.518-0.227,0.797-0.721,0.797-1.176c0-0.631-0.532-1.165-1.299-1.165
			c-0.463,0-0.941,0.2-1.289,0.574l-0.466-0.518c0.469-0.512,1.122-0.8,1.796-0.8c1.182,0,2.055,0.873,2.055,1.894
			C975.551,102.574,975.104,103.216,974.433,103.466z"/>
		<path fill="#58595B" d="M977.576,106.892l0.579-0.642c0.128,0.081,0.095,0.21,0.196,0.289c0.002,0.002,0.363,0.271,0.899,0.271
			c0.537,0,1.157-0.271,1.478-1.026c0.078-0.187,0.269-0.69,0.305-1.852c-0.349,0.505-0.925,0.808-1.541,0.808
			c-1.086,0-2.051-0.923-2.051-2.359c0-1.448,0.977-2.475,2.139-2.475c0.78,0,1.641,0.479,2.029,1.622
			c0.174,0.511,0.258,1.156,0.258,2.091c0,1.223-0.188,1.872-0.319,2.217c-0.453,1.194-1.407,1.741-2.319,1.741
			C978.611,107.577,978.017,107.329,977.576,106.892z M980.991,103.093c0.133-1.509-0.578-2.443-1.429-2.443
			c-0.678,0-1.304,0.608-1.304,1.696c0,1.113,0.648,1.661,1.314,1.661C980.111,104.007,980.661,103.65,980.991,103.093z"/>
	</g>
</g>
<g>
	<g>
		<rect x="89.333" y="25.735" fill="#BDA67E" width="36" height="36"/>
		<rect x="49.333" y="25.735" fill="#E5A92C" width="36" height="36"/>
		<rect x="129.333" y="25.735" fill="#F8F1DD" width="36" height="36"/>
		<rect x="169.333" y="25.735" fill="#B08A52" width="36" height="36"/>
		<rect x="209.333" y="25.735" fill="#F6EED5" width="36" height="36"/>
		<rect x="249.333" y="25.735" fill="#EFC683" width="36" height="36"/>
	</g>
	<g>
		<path fill="#58595B" d="M326.058,39.238c0.659,0,1.197,0.047,1.74,0.4c0.961,0.626,1.388,1.885,1.388,3.323
			c0,1.636-0.584,2.909-1.656,3.46c-0.527,0.271-1.023,0.3-1.617,0.3h-1.604v-7.483H326.058z M325.105,46.059h0.766
			c0.47,0,0.929-0.021,1.397-0.338c0.597-0.402,1.069-1.223,1.069-2.646c0-1.073-0.231-2.137-0.926-2.712
			c-0.462-0.384-0.935-0.411-1.406-0.411h-0.901V46.059z"/>
		<path fill="#58595B" d="M332.72,46.856c-1.381,0-2.568-1.176-2.568-2.843c0-1.692,1.197-2.902,2.594-2.902
			c1.245,0,2.439,0.993,2.439,2.885C335.185,45.812,334.017,46.856,332.72,46.856z M331.063,43.939c0,1.352,0.79,2.172,1.663,2.172
			c0.8,0,1.589-0.7,1.589-2.079c0-1.505-0.839-2.187-1.629-2.187C331.848,41.845,331.063,42.595,331.063,43.939z"/>
		<path fill="#58595B" d="M338.72,46.856c-1.381,0-2.568-1.176-2.568-2.843c0-1.692,1.197-2.902,2.594-2.902
			c1.245,0,2.439,0.993,2.439,2.885C341.185,45.812,340.017,46.856,338.72,46.856z M337.063,43.939c0,1.352,0.79,2.172,1.663,2.172
			c0.8,0,1.589-0.7,1.589-2.079c0-1.505-0.839-2.187-1.629-2.187C337.848,41.845,337.063,42.595,337.063,43.939z"/>
		<path fill="#58595B" d="M343.757,41.236l-0.031,1.056c0.359-0.784,1.171-1.188,1.972-1.188c0.616,0,1.12,0.245,1.465,0.598
			l-0.404,0.828c-0.092-0.088-0.131-0.183-0.203-0.274c-0.154-0.196-0.444-0.41-0.905-0.41c-0.388,0-1.042,0.136-1.54,0.923
			c-0.372,0.589-0.385,0.953-0.385,1.283v2.671h-0.869v-5.485H343.757z"/>
		<path fill="#58595B" d="M356.865,39.611c0.042,0.121-0.044,0.195-0.068,0.323c-0.057,0.304-0.139,1.291-0.139,1.291h1.791v0.714
			h-1.801c-0.069,0.713-0.104,1.428-0.104,2.145c0,0.794,0.029,1.005,0.035,1.053c0.088,0.658,0.513,0.885,0.922,0.885
			c0.337,0,0.762-0.155,1.228-0.501l0.269,0.684c-0.463,0.339-1.099,0.612-1.751,0.612c-0.56,0-0.988-0.218-1.248-0.584
			c-0.319-0.449-0.323-1-0.323-1.491c0-0.931,0.038-1.863,0.114-2.802h-1.283l0.01-0.703h1.304l0.104-1.47L356.865,39.611z"/>
		<path fill="#58595B" d="M362.72,46.856c-1.381,0-2.568-1.176-2.568-2.843c0-1.692,1.197-2.902,2.594-2.902
			c1.245,0,2.439,0.993,2.439,2.885C365.185,45.812,364.017,46.856,362.72,46.856z M361.063,43.939c0,1.352,0.79,2.172,1.663,2.172
			c0.8,0,1.589-0.7,1.589-2.079c0-1.505-0.839-2.187-1.629-2.187C361.848,41.845,361.063,42.595,361.063,43.939z"/>
		<path fill="#58595B" d="M374.865,39.611c0.042,0.121-0.044,0.195-0.068,0.323c-0.057,0.304-0.139,1.291-0.139,1.291h1.791v0.714
			h-1.801c-0.069,0.713-0.104,1.428-0.104,2.145c0,0.794,0.029,1.005,0.035,1.053c0.088,0.658,0.513,0.885,0.922,0.885
			c0.337,0,0.762-0.155,1.228-0.501l0.269,0.684c-0.463,0.339-1.099,0.612-1.751,0.612c-0.56,0-0.988-0.218-1.248-0.584
			c-0.319-0.449-0.323-1-0.323-1.491c0-0.931,0.038-1.863,0.114-2.802h-1.283l0.01-0.703h1.304l0.104-1.47L374.865,39.611z"/>
		<path fill="#58595B" d="M378.505,38.741h0.994c0.004,0.012,0.006,0.023,0.006,0.036c0,0.062-0.049,0.1-0.076,0.129
			c-0.041,0.043-0.043,0.074-0.043,0.114v3.178c0.402-0.61,1.078-1.097,1.821-1.097c0.624,0,1.186,0.351,1.458,0.967
			c0.195,0.44,0.198,0.893,0.198,1.32v3.322h-0.849v-3.302c0-0.387-0.002-0.857-0.299-1.211c-0.197-0.235-0.468-0.348-0.743-0.348
			c-0.579,0-1.106,0.484-1.315,0.763c-0.228,0.304-0.272,0.572-0.272,0.941v3.156h-0.88V38.741z"/>
		<path fill="#58595B" d="M388.938,43.045c0.054,0.318,0.071,0.67,0.038,1.047h-3.889c0.065,1.641,1.126,2.045,1.86,2.045
			c0.544,0,1.061-0.217,1.418-0.617l0.476,0.466c-0.469,0.564-1.18,0.851-1.961,0.851c-1.488,0-2.631-0.977-2.631-2.803
			c0-2,1.211-2.936,2.52-2.936C387.667,41.098,388.689,41.575,388.938,43.045z M388.127,43.429c0.103-0.888-0.531-1.668-1.419-1.668
			c-0.588,0-1.422,0.376-1.593,1.668H388.127z"/>
		<path fill="#58595B" d="M398.544,39.238c0.483,0,0.955,0.011,1.428,0.251c0.688,0.35,1.057,1.048,1.057,1.799
			c0,0.989-0.617,1.843-1.523,2.09l1.729,3.333h-0.942l-1.656-3.302h-1.449v3.302h-0.849v-7.473H398.544z M397.188,42.674h1.449
			c0.294,0,0.58-0.007,0.868-0.153c0.433-0.219,0.664-0.664,0.664-1.141c0-0.486-0.242-0.962-0.708-1.195
			c-0.304-0.153-0.605-0.161-0.917-0.161h-1.356V42.674z"/>
		<path fill="#58595B" d="M405.134,41.225v4.792h1.284v0.693h-3.55v-0.693h1.397v-4.088h-1.325v-0.704H405.134z M405.341,39.46
			c0,0.339-0.277,0.616-0.621,0.616c-0.343,0-0.621-0.277-0.621-0.616s0.278-0.616,0.621-0.616S405.341,39.121,405.341,39.46z"/>
		<path fill="#58595B" d="M409.178,41.225c0.021,0.098-0.039,0.162-0.039,0.234c0,0.029,0.008,0.051,0.018,0.076l1.584,4.006
			l0.879-2.039c0.311-0.719,0.601-1.479,0.746-2.277h0.776c-0.182,0.835-0.49,1.634-0.817,2.401l-1.335,3.126h-0.672l-2.174-5.527
			H409.178z"/>
		<path fill="#58595B" d="M418.938,43.045c0.054,0.318,0.071,0.67,0.038,1.047h-3.889c0.065,1.641,1.126,2.045,1.86,2.045
			c0.544,0,1.061-0.217,1.418-0.617l0.476,0.466c-0.469,0.564-1.18,0.851-1.961,0.851c-1.488,0-2.631-0.977-2.631-2.803
			c0-2,1.211-2.936,2.52-2.936C417.667,41.098,418.689,41.575,418.938,43.045z M418.127,43.429c0.103-0.888-0.531-1.668-1.419-1.668
			c-0.588,0-1.422,0.376-1.593,1.668H418.127z"/>
		<path fill="#58595B" d="M421.757,41.236l-0.031,1.056c0.359-0.784,1.171-1.188,1.972-1.188c0.616,0,1.12,0.245,1.465,0.598
			l-0.404,0.828c-0.092-0.088-0.131-0.183-0.203-0.274c-0.154-0.196-0.444-0.41-0.905-0.41c-0.388,0-1.042,0.136-1.54,0.923
			c-0.372,0.589-0.385,0.953-0.385,1.283v2.671h-0.869v-5.485H421.757z"/>
		<path fill="#58595B" d="M428.058,48.729l-0.414-0.362c0.284-0.262,0.486-0.554,0.603-0.746c0.059-0.096,0.178-0.301,0.178-0.499
			c0-0.247-0.177-0.357-0.281-0.427c-0.106-0.07-0.334-0.209-0.334-0.531c0-0.362,0.296-0.684,0.69-0.684
			c0.427,0,0.833,0.381,0.833,0.994C429.332,47.099,428.893,47.881,428.058,48.729z"/>
		<path fill="#58595B" d="M441.258,46.721h-0.838v-6.448l-1.501,0.445l-0.197-0.466l1.956-1.025h0.58V46.721z"/>
		<path fill="#58595B" d="M444.619,46.152l0.58-0.642c0.127,0.081,0.094,0.21,0.196,0.288c0.002,0.002,0.363,0.271,0.9,0.271
			c0.537,0,1.158-0.271,1.477-1.026c0.079-0.187,0.269-0.69,0.305-1.852c-0.348,0.505-0.924,0.808-1.541,0.808
			c-1.085,0-2.051-0.924-2.051-2.359c0-1.448,0.977-2.475,2.139-2.475c0.78,0,1.641,0.479,2.03,1.621
			c0.174,0.511,0.258,1.156,0.258,2.092c0,1.223-0.189,1.871-0.32,2.217c-0.453,1.194-1.407,1.741-2.319,1.741
			C445.654,46.836,445.06,46.588,444.619,46.152z M448.034,42.353c0.133-1.509-0.578-2.443-1.429-2.443
			c-0.678,0-1.304,0.608-1.304,1.696c0,1.112,0.648,1.661,1.314,1.661C447.154,43.267,447.704,42.91,448.034,42.353z"/>
		<path fill="#58595B" d="M454.748,39.838l-0.579,0.642c-0.11-0.081-0.108-0.193-0.181-0.271c-0.047-0.048-0.377-0.312-0.873-0.312
			c-0.537,0-1.768,0.334-1.813,2.89c0.33-0.559,0.932-0.901,1.584-0.901c1.056,0,2.05,0.894,2.05,2.448c0,1.539-0.997,2.5-2.133,2.5
			c-0.666,0-1.33-0.335-1.766-0.992c-0.48-0.725-0.565-1.659-0.565-2.534c0-0.717,0.069-1.587,0.32-2.299
			c0.46-1.307,1.427-1.855,2.318-1.855C453.718,39.154,454.31,39.406,454.748,39.838z M451.344,43.626
			c-0.1,1.396,0.582,2.464,1.494,2.464c0.634,0,1.281-0.544,1.281-1.713c0-1.288-0.711-1.756-1.312-1.756
			C452.252,42.622,451.68,43.013,451.344,43.626z"/>
		<path fill="#58595B" d="M461.059,43.101c0,2.567-1.279,3.744-2.364,3.744c-1.182,0-2.428-1.394-2.428-3.812
			c0-2.392,1.229-3.848,2.415-3.848C459.831,39.186,461.059,40.55,461.059,43.101z M458.67,39.92c-0.74,0-1.619,1.056-1.619,2.968
			c0,0.528,0.062,1.002,0.168,1.412l2.63-3.406C459.528,40.235,459.078,39.92,458.67,39.92z M457.495,45.061
			c0.325,0.655,0.784,1.02,1.228,1.02c0.66,0,1.561-0.794,1.561-2.883c0-0.581-0.058-1.081-0.157-1.502L457.495,45.061z"/>
	</g>
</g>
<g>
	<g>
		<rect x="652.291" y="26" fill="#B0664D" width="36" height="36"/>
		<rect x="612.291" y="26" fill="#B95337" width="36" height="36"/>
		<rect x="692.291" y="26" fill="#C8B1A9" width="36" height="36"/>
		<rect x="732.291" y="26" fill="#F3C45D" width="36" height="36"/>
		<rect x="772.291" y="26" fill="#8C4531" width="36" height="36"/>
		<rect x="812.291" y="26" fill="#905C49" width="36" height="36"/>
	</g>
	<g>
		<path fill="#58595B" d="M892.119,40.471l-0.59,0.6c-0.094-0.06-0.123-0.154-0.16-0.235c-0.229-0.501-0.759-0.883-1.426-0.883
			c-0.629,0-1.296,0.345-1.682,1.07c-0.292,0.551-0.375,1.221-0.375,1.917c0,0.79,0.088,1.838,0.711,2.549
			c0.406,0.464,0.938,0.654,1.422,0.654c0.445,0,0.926-0.157,1.344-0.456v-1.779h-1.355v-0.725h2.133v2.918
			c-0.705,0.52-1.504,0.777-2.195,0.777c-1.305,0-2.889-0.934-2.889-3.762c0-3.279,1.898-3.898,2.893-3.898
			C890.869,39.218,891.692,39.696,892.119,40.471z"/>
		<path fill="#58595B" d="M895.666,41.163c0.85,0,1.545,0.312,1.905,0.91c0.253,0.422,0.269,0.846,0.269,1.295v3.396h-0.817v-0.601
			c-0.598,0.49-1.294,0.735-1.968,0.735c-1.145,0-1.844-0.747-1.844-1.551c0-0.607,0.393-1.248,1.257-1.565
			c0.697-0.256,1.562-0.248,2.368-0.248h0.176v-0.196c0-0.29,0.004-0.644-0.178-0.942c-0.154-0.254-0.477-0.527-1.127-0.527
			c-0.507,0-1.123,0.141-1.572,0.61l-0.424-0.548C894.223,41.401,894.927,41.163,895.666,41.163z M896.847,44.196
			c-0.569,0-1.304-0.035-1.801,0.084c-0.687,0.164-0.966,0.611-0.966,1.009c0,0.489,0.424,0.948,1.15,0.948
			c0.718,0,1.242-0.435,1.44-0.646c0.37-0.393,0.372-0.748,0.372-1.031v-0.363H896.847z"/>
		<path fill="#58595B" d="M899.441,41.288h0.879v0.963c0.402-0.611,1.078-1.098,1.822-1.098c0.624,0,1.186,0.352,1.459,0.967
			c0.194,0.441,0.197,0.893,0.197,1.321v3.322h-0.849v-3.302c0-0.387-0.003-0.857-0.3-1.211c-0.196-0.236-0.467-0.348-0.742-0.348
			c-0.58,0-1.105,0.484-1.314,0.763c-0.229,0.304-0.273,0.571-0.273,0.94v3.157h-0.879V41.288z"/>
		<path fill="#58595B" d="M909.302,42.769c-0.021-0.006-0.063-0.025-0.062-0.097c0.001-0.042,0.009-0.071-0.025-0.114
			c-0.208-0.27-0.739-0.752-1.521-0.752c-0.62,0-1.154,0.307-1.154,0.748c0,0.184,0.095,0.449,0.542,0.666
			c0.513,0.247,1.395,0.371,2.014,0.719c0.648,0.363,0.804,0.859,0.804,1.238c0,0.828-0.781,1.711-2.279,1.711
			c-0.832,0-1.67-0.271-2.312-0.869l0.497-0.859c0.06,0.027,0.054,0.097,0.053,0.113c-0.002,0.048-0.007,0.082,0.033,0.128
			c0.174,0.196,0.775,0.763,1.714,0.763c0.783,0,1.409-0.354,1.409-0.867c0-0.197-0.095-0.486-0.547-0.697
			c-0.403-0.189-1.009-0.335-1.472-0.502c-0.299-0.107-1.336-0.457-1.336-1.414c0-0.818,0.834-1.529,2.106-1.529
			c0.811,0,1.538,0.302,2.044,0.859L909.302,42.769z"/>
		<path fill="#58595B" d="M915.896,43.099c0.054,0.318,0.071,0.67,0.038,1.047h-3.889c0.064,1.641,1.126,2.045,1.859,2.045
			c0.545,0,1.061-0.217,1.418-0.617l0.477,0.466c-0.469,0.563-1.18,0.851-1.961,0.851c-1.488,0-2.632-0.977-2.632-2.803
			c0-2,1.211-2.936,2.52-2.936C914.624,41.151,915.646,41.628,915.896,43.099z M915.084,43.482c0.104-0.888-0.531-1.668-1.418-1.668
			c-0.589,0-1.423,0.376-1.594,1.668H915.084z"/>
		<path fill="#58595B" d="M918.135,41.278c0.021,0.098-0.039,0.162-0.039,0.234c0,0.029,0.008,0.051,0.018,0.076l1.584,4.006
			l0.88-2.039c0.311-0.719,0.601-1.479,0.745-2.277h0.776c-0.183,0.835-0.489,1.634-0.817,2.4l-1.336,3.127h-0.672l-2.174-5.527
			H918.135z"/>
		<path fill="#58595B" d="M925.677,46.909c-1.382,0-2.568-1.176-2.568-2.843c0-1.692,1.197-2.902,2.594-2.902
			c1.245,0,2.439,0.993,2.439,2.885C928.142,45.865,926.975,46.909,925.677,46.909z M924.021,43.991c0,1.352,0.79,2.172,1.663,2.172
			c0.799,0,1.589-0.699,1.589-2.078c0-1.505-0.839-2.188-1.629-2.188C924.805,41.897,924.021,42.648,924.021,43.991z"/>
		<path fill="#58595B" d="M931.677,46.909c-1.382,0-2.568-1.176-2.568-2.843c0-1.692,1.197-2.902,2.594-2.902
			c1.245,0,2.439,0.993,2.439,2.885C934.142,45.865,932.975,46.909,931.677,46.909z M930.021,43.991c0,1.352,0.79,2.172,1.663,2.172
			c0.799,0,1.589-0.699,1.589-2.078c0-1.505-0.839-2.188-1.629-2.188C930.805,41.897,930.021,42.648,930.021,43.991z"/>
		<path fill="#58595B" d="M936.715,41.288l-0.031,1.057c0.358-0.784,1.171-1.189,1.971-1.189c0.616,0,1.121,0.246,1.465,0.599
			l-0.403,0.828c-0.092-0.088-0.132-0.183-0.203-0.274c-0.153-0.197-0.444-0.41-0.905-0.41c-0.387,0-1.041,0.136-1.539,0.923
			c-0.372,0.589-0.385,0.952-0.385,1.283v2.671h-0.869v-5.486H936.715z"/>
		<path fill="#58595B" d="M943.822,39.663c0.041,0.122-0.045,0.195-0.068,0.324c-0.057,0.304-0.139,1.291-0.139,1.291h1.79v0.714
			h-1.801c-0.069,0.712-0.104,1.428-0.104,2.144c0,0.795,0.029,1.006,0.035,1.054c0.088,0.657,0.514,0.884,0.922,0.884
			c0.338,0,0.763-0.154,1.229-0.5l0.269,0.684c-0.464,0.339-1.099,0.611-1.751,0.611c-0.561,0-0.988-0.217-1.248-0.584
			c-0.319-0.449-0.324-0.999-0.324-1.49c0-0.932,0.038-1.863,0.114-2.802h-1.283l0.011-0.704h1.304l0.104-1.47L943.822,39.663z"/>
		<path fill="#58595B" d="M957.312,40.895c-0.026-0.008-0.061-0.031-0.063-0.098c-0.001-0.044,0.005-0.069-0.027-0.115
			c-0.29-0.423-0.825-0.74-1.521-0.74c-0.855,0-1.35,0.522-1.35,1.095c0,0.307,0.138,0.75,0.764,1.115
			c0.684,0.4,1.736,0.612,2.387,1.225c0.467,0.439,0.58,0.962,0.58,1.354c0,0.939-0.672,2.159-2.49,2.159
			c-0.922,0-1.76-0.323-2.348-0.964l0.497-0.858c0.058,0.028,0.055,0.095,0.055,0.114c-0.001,0.05-0.004,0.08,0.034,0.128
			c0.334,0.423,0.965,0.824,1.785,0.824c1.086,0,1.633-0.706,1.633-1.355c0-0.335-0.137-0.725-0.627-1.032
			c-0.565-0.354-1.645-0.612-2.336-1.123c-0.623-0.461-0.795-1.022-0.795-1.458c0-1.022,0.928-1.915,2.277-1.915
			c0.814,0,1.566,0.33,2.072,0.932L957.312,40.895z"/>
		<path fill="#58595B" d="M961.822,39.663c0.041,0.122-0.045,0.195-0.068,0.324c-0.057,0.304-0.139,1.291-0.139,1.291h1.79v0.714
			h-1.801c-0.069,0.712-0.104,1.428-0.104,2.144c0,0.795,0.029,1.006,0.035,1.054c0.088,0.657,0.514,0.884,0.922,0.884
			c0.338,0,0.763-0.154,1.229-0.5l0.269,0.684c-0.464,0.339-1.099,0.611-1.751,0.611c-0.561,0-0.988-0.217-1.248-0.584
			c-0.319-0.449-0.324-0.999-0.324-1.49c0-0.932,0.038-1.863,0.114-2.802h-1.283l0.011-0.704h1.304l0.104-1.47L961.822,39.663z"/>
		<path fill="#58595B" d="M966.715,41.288l-0.031,1.057c0.358-0.784,1.171-1.189,1.971-1.189c0.616,0,1.121,0.246,1.465,0.599
			l-0.403,0.828c-0.092-0.088-0.132-0.183-0.203-0.274c-0.153-0.197-0.444-0.41-0.905-0.41c-0.387,0-1.041,0.136-1.539,0.923
			c-0.372,0.589-0.385,0.952-0.385,1.283v2.671h-0.869v-5.486H966.715z"/>
		<path fill="#58595B" d="M975.896,43.099c0.054,0.318,0.071,0.67,0.038,1.047h-3.889c0.064,1.641,1.126,2.045,1.859,2.045
			c0.545,0,1.061-0.217,1.418-0.617l0.477,0.466c-0.469,0.563-1.18,0.851-1.961,0.851c-1.488,0-2.632-0.977-2.632-2.803
			c0-2,1.211-2.936,2.52-2.936C974.624,41.151,975.646,41.628,975.896,43.099z M975.084,43.482c0.104-0.888-0.531-1.668-1.418-1.668
			c-0.589,0-1.423,0.376-1.594,1.668H975.084z"/>
		<path fill="#58595B" d="M981.896,43.099c0.054,0.318,0.071,0.67,0.038,1.047h-3.889c0.064,1.641,1.126,2.045,1.859,2.045
			c0.545,0,1.061-0.217,1.418-0.617l0.477,0.466c-0.469,0.563-1.18,0.851-1.961,0.851c-1.488,0-2.632-0.977-2.632-2.803
			c0-2,1.211-2.936,2.52-2.936C980.624,41.151,981.646,41.628,981.896,43.099z M981.084,43.482c0.104-0.888-0.531-1.668-1.418-1.668
			c-0.589,0-1.423,0.376-1.594,1.668H981.084z"/>
		<path fill="#58595B" d="M985.822,39.663c0.041,0.122-0.045,0.195-0.068,0.324c-0.057,0.304-0.139,1.291-0.139,1.291h1.79v0.714
			h-1.801c-0.069,0.712-0.104,1.428-0.104,2.144c0,0.795,0.029,1.006,0.035,1.054c0.088,0.657,0.514,0.884,0.922,0.884
			c0.338,0,0.763-0.154,1.229-0.5l0.269,0.684c-0.464,0.339-1.099,0.611-1.751,0.611c-0.561,0-0.988-0.217-1.248-0.584
			c-0.319-0.449-0.324-0.999-0.324-1.49c0-0.932,0.038-1.863,0.114-2.802h-1.283l0.011-0.704h1.304l0.104-1.47L985.822,39.663z"/>
		<path fill="#58595B" d="M991.015,48.782l-0.414-0.362c0.284-0.262,0.485-0.554,0.603-0.746c0.059-0.097,0.178-0.302,0.178-0.499
			c0-0.248-0.176-0.357-0.281-0.428s-0.334-0.208-0.334-0.53c0-0.362,0.296-0.685,0.69-0.685c0.427,0,0.833,0.381,0.833,0.995
			C992.289,47.151,991.85,47.935,991.015,48.782z"/>
		<path fill="#58595B" d="M1004.215,46.774h-0.838v-6.449l-1.501,0.445l-0.196-0.466l1.955-1.024h0.58V46.774z"/>
		<path fill="#58595B" d="M1007.576,46.204l0.579-0.641c0.128,0.08,0.095,0.209,0.196,0.288c0.002,0.002,0.363,0.271,0.899,0.271
			c0.537,0,1.157-0.271,1.478-1.026c0.078-0.187,0.269-0.69,0.305-1.852c-0.349,0.504-0.925,0.807-1.541,0.807
			c-1.086,0-2.051-0.923-2.051-2.358c0-1.448,0.977-2.476,2.139-2.476c0.78,0,1.641,0.479,2.029,1.622
			c0.174,0.511,0.258,1.156,0.258,2.091c0,1.224-0.188,1.872-0.319,2.218c-0.453,1.194-1.407,1.741-2.319,1.741
			C1008.611,46.89,1008.017,46.642,1007.576,46.204z M1010.991,42.406c0.133-1.509-0.578-2.443-1.429-2.443
			c-0.678,0-1.304,0.608-1.304,1.696c0,1.112,0.648,1.66,1.314,1.66C1010.111,43.319,1010.661,42.963,1010.991,42.406z"/>
		<path fill="#58595B" d="M1017.084,39.28v4.678h0.963v0.746h-0.963v2.06h-0.869v-2.069h-3.012v-0.621l3.178-4.793H1017.084z
			 M1014.031,43.958h2.194v-3.343L1014.031,43.958z"/>
		<path fill="#58595B" d="M1019.576,46.204l0.579-0.641c0.128,0.08,0.095,0.209,0.196,0.288c0.002,0.002,0.363,0.271,0.899,0.271
			c0.537,0,1.157-0.271,1.478-1.026c0.078-0.187,0.269-0.69,0.305-1.852c-0.349,0.504-0.925,0.807-1.541,0.807
			c-1.086,0-2.051-0.923-2.051-2.358c0-1.448,0.977-2.476,2.139-2.476c0.78,0,1.641,0.479,2.029,1.622
			c0.174,0.511,0.258,1.156,0.258,2.091c0,1.224-0.188,1.872-0.319,2.218c-0.453,1.194-1.407,1.741-2.319,1.741
			C1020.611,46.89,1020.017,46.642,1019.576,46.204z M1022.991,42.406c0.133-1.509-0.578-2.443-1.429-2.443
			c-0.678,0-1.304,0.608-1.304,1.696c0,1.112,0.648,1.66,1.314,1.66C1022.111,43.319,1022.661,42.963,1022.991,42.406z"/>
	</g>
</g>
<text transform="matrix(1 0 0 1 30 36)" fill="#58595B" font-family="'Inconsolata'" font-size="12">1</text>
<text transform="matrix(1 0 0 1 30 95)" fill="#58595B" font-family="'Inconsolata'" font-size="12">3</text>
<text transform="matrix(1 0 0 1 594 36)" fill="#58595B" font-family="'Inconsolata'" font-size="12">2</text>
<text transform="matrix(1 0 0 1 594 95)" fill="#58595B" font-family="'Inconsolata'" font-size="12">4</text>
</svg>
