<?xml version="1.0" encoding="utf-8"?>
<!-- Generator: Adobe Illustrator 16.0.4, SVG Export Plug-In . SVG Version: 6.00 Build 0)  -->
<!DOCTYPE svg PUBLIC "-//W3C//DTD SVG 1.1//EN" "http://www.w3.org/Graphics/SVG/1.1/DTD/svg11.dtd">
<svg version="1.1" id="Layer_1" xmlns="http://www.w3.org/2000/svg" xmlns:xlink="http://www.w3.org/1999/xlink" x="0px" y="0px"
	 width="1224px" height="345px" viewBox="0 0 1224 345" enable-background="new 0 0 1224 345" xml:space="preserve">
<rect fill="#F7F7F7" width="1224" height="345"/>
<rect x="88.487" y="168.044" fill="#F487A9" width="698.903" height="53.003"/>
<rect x="787.391" y="168.044" fill="#85D5AF" width="75.609" height="53.003"/>
<rect x="863" y="168.044" fill="#EADF44" width="93.902" height="53.003"/>
<rect x="956.902" y="168.044" fill="#01CFE4" width="93.902" height="53.003"/>
<g>
	<path fill="#FFFFFF" d="M105.462,191.373c0-1.628,0.021-2.648,0.062-3.062c0.016-0.104,0.256-0.166,0.721-0.186
		c0.181-0.01,0.362-0.016,0.543-0.016l0.853,0.031c0.465,0.036,0.708,0.072,0.729,0.108c0.046,0.775,0.078,2.274,0.093,4.496
		c1.313-0.021,2.63-0.031,3.954-0.031c0.021-2.444,0.046-3.868,0.078-4.271c0.258-0.067,0.785-0.101,1.581-0.101
		c0.036,0,0.075-0.003,0.116-0.008c0.724,0,1.101,0.026,1.132,0.077c0.057,0.021,0.085,1.589,0.085,4.705v0.435
		c0,3.405-0.039,5.364-0.116,5.875c-0.026,0.103-0.274,0.165-0.744,0.186c-0.191,0.01-0.382,0.016-0.573,0.016
		c-0.274,0-0.548-0.011-0.822-0.031c-0.46-0.031-0.69-0.067-0.69-0.108c-0.01-0.455-0.026-1.845-0.046-4.17
		c-1.07,0.016-1.982,0.023-2.736,0.023c-0.455,0-0.85-0.003-1.186-0.008c0,1.938-0.016,3.317-0.046,4.139
		c-0.279,0.072-0.822,0.114-1.628,0.124c-0.114,0-0.22,0.002-0.318,0.008c-0.594,0-0.899-0.034-0.915-0.101
		c-0.046-0.522-0.083-2.367-0.108-5.535C105.467,192.977,105.462,192.111,105.462,191.373z"/>
	<path fill="#FFFFFF" d="M117.017,194.008c0.188-0.47,0.451-0.89,0.787-1.26c0.336-0.369,0.758-0.667,1.268-0.891
		c0.509-0.225,1.063-0.337,1.663-0.337c0.563,0,1.092,0.094,1.585,0.283c0.494,0.188,0.922,0.456,1.287,0.802
		c0.364,0.346,0.652,0.783,0.864,1.31c0.212,0.527,0.317,1.111,0.317,1.751c0,0.517-0.091,1.008-0.275,1.473
		c-0.184,0.465-0.443,0.879-0.779,1.244c-0.336,0.364-0.761,0.656-1.275,0.875c-0.514,0.22-1.079,0.335-1.694,0.345
		c-1.157,0-2.119-0.376-2.883-1.128s-1.147-1.758-1.147-3.019C116.733,194.961,116.828,194.478,117.017,194.008z M119.613,196.903
		c0.287,0.308,0.629,0.467,1.027,0.477h0.078c0.512,0,0.907-0.145,1.186-0.434c0.29-0.31,0.434-0.747,0.434-1.31
		c0-0.584-0.14-1.01-0.418-1.279c-0.279-0.269-0.63-0.411-1.054-0.426h-0.078c-0.517,0-0.91,0.15-1.178,0.45
		c-0.29,0.315-0.432,0.739-0.426,1.271C119.183,196.178,119.327,196.596,119.613,196.903z"/>
	<path fill="#FFFFFF" d="M125.997,194.31c0-0.863,0.005-1.739,0.016-2.627c0.062-0.083,0.328-0.124,0.798-0.124
		c0.134,0,0.287,0.002,0.458,0.008c0.759,0.031,1.178,0.085,1.255,0.163c-0.026,0.532-0.041,0.816-0.046,0.853
		c0.476-0.718,1.222-1.078,2.24-1.078c0.434,0,0.827,0.103,1.178,0.307s0.636,0.484,0.853,0.841
		c0.129-0.222,0.297-0.415,0.504-0.578c0.207-0.163,0.428-0.281,0.663-0.356c0.235-0.075,0.452-0.129,0.651-0.163
		c0.199-0.034,0.392-0.051,0.577-0.051c0.972,0,1.696,0.295,2.174,0.884c0.478,0.589,0.717,1.411,0.717,2.465
		c0,0.538-0.014,1.341-0.042,2.411c-0.029,1.069-0.053,1.791-0.074,2.163c-0.005,0.062-0.414,0.101-1.225,0.116
		c-0.269,0.005-0.496,0.008-0.683,0.008c-0.367,0-0.555-0.01-0.565-0.031c-0.011-0.134-0.016-0.354-0.016-0.659v-0.333
		c0.005-0.486,0.014-1.137,0.027-1.953c0.013-0.816,0.02-1.305,0.02-1.465c0-0.434-0.076-0.77-0.229-1.007
		c-0.152-0.238-0.425-0.357-0.818-0.357c-0.207,0-0.388,0.047-0.542,0.14c-0.155,0.093-0.273,0.212-0.353,0.356
		c-0.08,0.145-0.138,0.29-0.174,0.434c-0.036,0.145-0.054,0.284-0.054,0.419c0,1.715-0.034,3.145-0.101,4.287
		c-0.01,0.051-0.29,0.077-0.837,0.077h-0.372c-0.796-0.01-1.207-0.031-1.232-0.062c-0.016-0.196-0.023-0.532-0.023-1.007
		c0-0.476,0.006-1.12,0.019-1.934c0.013-0.814,0.02-1.262,0.02-1.345c0-0.429-0.079-0.763-0.236-1.003
		c-0.158-0.241-0.428-0.361-0.81-0.361c-0.377,0-0.668,0.127-0.872,0.38c-0.204,0.253-0.306,0.53-0.306,0.83
		c0,0.491-0.008,1.363-0.023,2.616c-0.016,1.253-0.034,1.893-0.054,1.918c-0.016,0.021-0.22,0.031-0.612,0.031h-0.597
		c-0.786-0.01-1.186-0.041-1.202-0.093c-0.01-0.021-0.023-0.45-0.039-1.287c-0.016-0.837-0.026-1.827-0.031-2.969V194.31z"/>
	<path fill="#FFFFFF" d="M139.458,194.097c0.168-0.494,0.408-0.934,0.721-1.322c0.313-0.388,0.716-0.696,1.209-0.926
		s1.042-0.345,1.647-0.345c0.512,0,0.983,0.092,1.415,0.275c0.431,0.184,0.791,0.43,1.077,0.74c0.287,0.31,0.509,0.668,0.667,1.074
		c0.158,0.406,0.237,0.831,0.237,1.275c0,0.501-0.047,0.91-0.14,1.225c-0.356,0.052-1.106,0.083-2.248,0.093
		c-0.439,0.005-0.827,0.005-1.163,0c-0.538,0-0.94-0.005-1.209-0.016c0,0.429,0.147,0.764,0.442,1.004s0.713,0.36,1.256,0.36
		c0.646,0,1.264-0.183,1.853-0.55c0.083,0.083,0.24,0.36,0.473,0.833c0.232,0.473,0.351,0.766,0.356,0.879
		c-0.248,0.228-0.632,0.436-1.151,0.624c-0.519,0.189-1.073,0.283-1.663,0.283c-0.692,0-1.305-0.11-1.837-0.33
		s-0.954-0.517-1.264-0.891c-0.31-0.375-0.542-0.792-0.698-1.252c-0.155-0.46-0.232-0.954-0.232-1.48
		C139.206,195.108,139.29,194.59,139.458,194.097z M144.144,194.667v-0.085c0-0.367-0.093-0.669-0.279-0.907
		c-0.196-0.259-0.478-0.391-0.845-0.396c-0.403,0-0.731,0.137-0.985,0.411c-0.253,0.274-0.379,0.615-0.379,1.023L144.144,194.667z"
		/>
</g>
<g>
	<path fill="#FFFFFF" d="M802.939,198.31c0-0.124,0.055-0.349,0.163-0.674c0.124-0.383,0.264-0.742,0.419-1.078
		c0.145-0.31,0.245-0.465,0.302-0.465h0.016c0.016,0.011,0.072,0.047,0.171,0.109c0.098,0.062,0.181,0.114,0.248,0.155
		c0.067,0.042,0.168,0.1,0.302,0.174c0.135,0.075,0.256,0.137,0.364,0.186c0.109,0.049,0.242,0.105,0.399,0.167
		c0.158,0.062,0.308,0.112,0.45,0.151c0.142,0.039,0.299,0.071,0.473,0.097c0.173,0.026,0.34,0.039,0.5,0.039
		c1.028,0,1.542-0.323,1.542-0.969c0-0.181-0.053-0.338-0.158-0.473c-0.106-0.134-0.31-0.265-0.609-0.391
		c-0.299-0.127-0.715-0.244-1.247-0.353c-1.08-0.222-1.891-0.606-2.431-1.151c-0.54-0.545-0.81-1.322-0.81-2.33
		c0-0.455,0.092-0.885,0.274-1.291c0.184-0.405,0.447-0.765,0.791-1.077c0.344-0.313,0.781-0.56,1.313-0.74
		c0.532-0.181,1.124-0.271,1.775-0.271c0.801,0,1.539,0.09,2.213,0.271c0.675,0.181,1.177,0.403,1.508,0.667
		c0.021,0.016,0.031,0.046,0.031,0.093c0,0.109-0.044,0.287-0.132,0.535c-0.129,0.372-0.281,0.729-0.457,1.069
		c-0.176,0.341-0.292,0.509-0.35,0.504c-0.005,0-0.037-0.014-0.097-0.042s-0.109-0.052-0.151-0.07
		c-0.041-0.018-0.105-0.046-0.193-0.085c-0.088-0.039-0.169-0.071-0.244-0.097s-0.167-0.057-0.275-0.093s-0.212-0.069-0.31-0.097
		c-0.099-0.028-0.211-0.057-0.338-0.085c-0.126-0.029-0.248-0.052-0.364-0.07s-0.242-0.032-0.38-0.043
		c-0.137-0.01-0.27-0.015-0.398-0.015c-0.46,0-0.808,0.083-1.043,0.248c-0.235,0.165-0.353,0.385-0.353,0.659
		c0,0.258,0.117,0.464,0.353,0.616s0.723,0.312,1.461,0.477c0.439,0.104,0.83,0.216,1.171,0.337s0.67,0.276,0.988,0.465
		c0.317,0.189,0.581,0.405,0.79,0.647c0.21,0.243,0.376,0.536,0.5,0.88s0.187,0.727,0.187,1.151c0,0.434-0.089,0.852-0.268,1.252
		c-0.178,0.4-0.441,0.766-0.791,1.097c-0.349,0.331-0.814,0.596-1.398,0.795c-0.584,0.199-1.248,0.298-1.992,0.298
		c-0.801,0-1.562-0.12-2.283-0.36c-0.721-0.241-1.262-0.495-1.624-0.764C802.942,198.349,802.939,198.331,802.939,198.31z"/>
	<path fill="#FFFFFF" d="M812.51,194.558c0.038-1.963,0.078-2.997,0.12-3.101c0.031-0.005,0.098-0.008,0.201-0.008
		s0.246,0.003,0.427,0.008c0.352,0.01,0.731,0.026,1.14,0.046l0.612,0.031c0,0.031-0.003,0.174-0.008,0.43
		c-0.006,0.256-0.008,0.399-0.008,0.43c0.031-0.057,0.105-0.13,0.225-0.221c0.119-0.091,0.273-0.189,0.465-0.295
		s0.438-0.195,0.74-0.267c0.303-0.072,0.619-0.109,0.95-0.109c0.475,0,0.921,0.088,1.337,0.264s0.784,0.429,1.104,0.76
		s0.573,0.754,0.76,1.271c0.186,0.517,0.279,1.095,0.279,1.736c0,0.615-0.1,1.177-0.299,1.686c-0.199,0.509-0.468,0.926-0.807,1.252
		c-0.338,0.326-0.727,0.578-1.166,0.756s-0.904,0.27-1.396,0.275c-0.47,0-0.909-0.083-1.317-0.248
		c-0.408-0.166-0.651-0.315-0.729-0.45c0,0.041,0.001,0.239,0.004,0.593c0.002,0.354,0.004,0.696,0.004,1.027
		c0,0.331-0.002,0.683-0.004,1.058c-0.003,0.375-0.012,0.682-0.027,0.922s-0.036,0.368-0.062,0.383
		c-0.077,0.057-0.493,0.099-1.248,0.124c-0.186,0.005-0.352,0.008-0.496,0.008c-0.465,0-0.757-0.028-0.876-0.085
		c-0.005-0.145-0.008-0.456-0.008-0.934s0.003-1.128,0.008-1.95C812.446,198.32,812.471,196.522,812.51,194.558z M815.524,196.768
		c0.303,0.31,0.66,0.465,1.074,0.465c0.491,0,0.876-0.152,1.155-0.457c0.278-0.305,0.418-0.708,0.418-1.209
		c0-0.522-0.141-0.928-0.422-1.217c-0.282-0.29-0.646-0.434-1.09-0.434c-0.521,0-0.917,0.148-1.186,0.445
		c-0.269,0.297-0.403,0.694-0.403,1.19C815.071,196.052,815.223,196.458,815.524,196.768z"/>
	<path fill="#FFFFFF" d="M821.975,194.097c0.168-0.494,0.408-0.934,0.721-1.322s0.716-0.696,1.209-0.926
		c0.494-0.23,1.043-0.345,1.647-0.345c0.512,0,0.983,0.092,1.415,0.275c0.431,0.184,0.79,0.43,1.077,0.74s0.509,0.668,0.666,1.074
		c0.158,0.406,0.237,0.831,0.237,1.275c0,0.501-0.047,0.91-0.14,1.225c-0.356,0.052-1.106,0.083-2.248,0.093
		c-0.439,0.005-0.827,0.005-1.163,0c-0.537,0-0.94-0.005-1.209-0.016c0,0.429,0.147,0.764,0.441,1.004
		c0.295,0.24,0.714,0.36,1.256,0.36c0.646,0,1.264-0.183,1.853-0.55c0.083,0.083,0.24,0.36,0.474,0.833
		c0.232,0.473,0.351,0.766,0.356,0.879c-0.248,0.228-0.632,0.436-1.151,0.624c-0.52,0.189-1.073,0.283-1.663,0.283
		c-0.692,0-1.305-0.11-1.837-0.33s-0.953-0.517-1.264-0.891c-0.31-0.375-0.542-0.792-0.697-1.252s-0.232-0.954-0.232-1.48
		C821.723,195.108,821.807,194.59,821.975,194.097z M826.66,194.667v-0.085c0-0.367-0.093-0.669-0.279-0.907
		c-0.196-0.259-0.478-0.391-0.845-0.396c-0.403,0-0.731,0.137-0.984,0.411s-0.38,0.615-0.38,1.023L826.66,194.667z"/>
	<path fill="#FFFFFF" d="M830.506,195.434c0.542-0.429,1.219-0.643,2.03-0.643c0.6,0,1.091,0.142,1.473,0.426
		c0.011-0.114,0.011-0.233,0-0.357c-0.01-0.124-0.021-0.247-0.034-0.368c-0.014-0.121-0.051-0.235-0.113-0.341
		c-0.062-0.106-0.141-0.2-0.236-0.283c-0.096-0.083-0.229-0.148-0.398-0.197c-0.171-0.049-0.37-0.074-0.598-0.074
		c-0.227,0-0.441,0.037-0.643,0.112c-0.202,0.075-0.358,0.156-0.47,0.244c-0.11,0.088-0.212,0.169-0.302,0.244
		c-0.091,0.075-0.148,0.115-0.175,0.12c-0.077,0-0.302-0.168-0.674-0.504c-0.367-0.331-0.548-0.54-0.543-0.628
		c0-0.057,0.044-0.152,0.132-0.287c0.083-0.129,0.213-0.279,0.392-0.45c0.178-0.17,0.386-0.331,0.624-0.48
		c0.237-0.15,0.537-0.278,0.899-0.384c0.361-0.106,0.741-0.159,1.139-0.159c1.028,0,1.868,0.3,2.52,0.899
		c0.651,0.6,0.977,1.458,0.977,2.574c0,0.827-0.016,1.761-0.046,2.802c-0.031,1.041-0.06,1.585-0.086,1.631
		c-0.016,0.026-0.193,0.039-0.534,0.039c-0.342,0-0.678-0.008-1.008-0.023l-0.504-0.016l-0.14-0.682
		c-0.579,0.579-1.256,0.868-2.031,0.868c-0.826,0-1.444-0.217-1.853-0.651s-0.612-1.016-0.612-1.744
		C829.691,196.426,829.963,195.863,830.506,195.434z M832.118,197.721c0.196,0.166,0.441,0.248,0.736,0.248
		c0.33,0,0.587-0.085,0.771-0.256c0.184-0.17,0.275-0.382,0.275-0.635c0-0.274-0.1-0.494-0.298-0.659
		c-0.199-0.165-0.449-0.248-0.748-0.248c-0.306,0-0.554,0.087-0.744,0.26c-0.191,0.173-0.287,0.389-0.287,0.647
		C831.823,197.341,831.921,197.556,832.118,197.721z"/>
	<path fill="#FFFFFF" d="M837.979,189.427c0-1.209,0.025-1.845,0.077-1.907c0.114-0.083,0.488-0.124,1.124-0.124h0.171
		c0.738,0.01,1.145,0.036,1.217,0.078c0.016,0.124,0.023,0.429,0.023,0.915v0.868c-0.011,1.002-0.034,2.083-0.07,3.24l-0.046,1.736
		c2.098-1.969,3.198-2.953,3.302-2.953c0.093,0,0.424,0.178,0.992,0.535c0.573,0.356,0.86,0.586,0.86,0.689
		c0.005,0.073-0.193,0.3-0.597,0.682c-0.403,0.388-0.812,0.76-1.225,1.116l-0.604,0.535l1.914,2.883
		c0.522,0.796,0.783,1.222,0.783,1.279c0,0.067-0.344,0.23-1.031,0.488c-0.584,0.217-1.005,0.325-1.264,0.325
		c-0.036,0-0.069-0.002-0.101-0.007c-0.036-0.005-0.233-0.312-0.593-0.919c-0.359-0.607-0.717-1.213-1.073-1.817
		c-0.352-0.6-0.548-0.899-0.59-0.899c-0.03,0-0.103,0.049-0.217,0.147c-0.113,0.093-0.217,0.184-0.31,0.271l-0.14,0.14l0.077,2.822
		h-0.612c-1.137,0-1.736-0.026-1.798-0.078c-0.067-0.052-0.143-2.031-0.226-5.938C837.988,191.783,837.973,190.414,837.979,189.427z
		"/>
</g>
<g>
	<path fill="#FFFFFF" d="M881.124,188.427c1.028-0.119,2.315-0.178,3.86-0.178c1.515,0,2.676,0.342,3.484,1.027
		c0.809,0.685,1.213,1.655,1.213,2.911c0,1.395-0.396,2.416-1.186,3.062c-0.791,0.646-1.961,0.969-3.512,0.969
		c-0.098,0-0.252-0.002-0.461-0.007c-0.21-0.005-0.343-0.008-0.399-0.008c0,0.176-0.001,0.566-0.004,1.17s-0.009,1.074-0.02,1.407
		c-0.01,0.333-0.028,0.544-0.054,0.632c-0.031,0.052-0.53,0.083-1.496,0.093c-0.212,0.005-0.4,0.007-0.566,0.007
		c-0.594,0-0.892-0.018-0.892-0.054c-0.046-0.424-0.069-2.241-0.069-5.453C881.023,190.792,881.057,188.933,881.124,188.427z
		 M885.163,193.76c0.532,0,0.958-0.115,1.278-0.345s0.48-0.58,0.48-1.05c0-0.563-0.186-0.956-0.558-1.178s-0.873-0.333-1.504-0.333
		c-0.305,0-0.576,0.016-0.813,0.046v2.83C884.429,193.75,884.801,193.76,885.163,193.76z"/>
	<path fill="#FFFFFF" d="M890.438,194.097c0.168-0.494,0.408-0.934,0.721-1.322s0.716-0.696,1.209-0.926
		c0.494-0.23,1.043-0.345,1.647-0.345c0.512,0,0.983,0.092,1.415,0.275c0.431,0.184,0.79,0.43,1.077,0.74s0.509,0.668,0.666,1.074
		c0.158,0.406,0.237,0.831,0.237,1.275c0,0.501-0.047,0.91-0.14,1.225c-0.356,0.052-1.106,0.083-2.248,0.093
		c-0.439,0.005-0.827,0.005-1.163,0c-0.537,0-0.94-0.005-1.209-0.016c0,0.429,0.147,0.764,0.441,1.004
		c0.295,0.24,0.714,0.36,1.256,0.36c0.646,0,1.264-0.183,1.853-0.55c0.083,0.083,0.24,0.36,0.474,0.833
		c0.232,0.473,0.351,0.766,0.356,0.879c-0.248,0.228-0.632,0.436-1.151,0.624c-0.52,0.189-1.073,0.283-1.663,0.283
		c-0.692,0-1.305-0.11-1.837-0.33s-0.953-0.517-1.264-0.891c-0.31-0.375-0.542-0.792-0.697-1.252s-0.232-0.954-0.232-1.48
		C890.187,195.108,890.271,194.59,890.438,194.097z M895.124,194.667v-0.085c0-0.367-0.093-0.669-0.279-0.907
		c-0.196-0.259-0.478-0.391-0.845-0.396c-0.403,0-0.731,0.137-0.984,0.411s-0.38,0.615-0.38,1.023L895.124,194.667z"/>
	<path fill="#FFFFFF" d="M898.636,191.791c0.066-0.119,0.478-0.199,1.232-0.24c0.273-0.016,0.504-0.026,0.689-0.031
		c0.326,0,0.509,0.026,0.551,0.078c0.005,0.098,0.008,0.229,0.008,0.392c0,0.163-0.003,0.322-0.008,0.477v0.232
		c0.273-0.48,0.658-0.803,1.154-0.969c0.326-0.108,0.67-0.163,1.031-0.163c0.191,0,0.391,0.015,0.597,0.046
		c0.067,0.041,0.102,0.186,0.102,0.434c0,0.207-0.023,0.48-0.07,0.821c-0.104,0.765-0.225,1.23-0.364,1.396
		c-0.434-0.104-0.783-0.155-1.047-0.155h-0.069c-0.352,0.005-0.628,0.119-0.829,0.341c-0.202,0.222-0.326,0.517-0.372,0.884
		c-0.006,0.036-0.008,0.124-0.008,0.263c0,0.207,0.005,0.522,0.016,0.946c0.016,0.713,0.028,1.338,0.038,1.876
		c0.006,0.181,0.008,0.341,0.008,0.48c0,0.269-0.008,0.444-0.023,0.527c-0.015,0.041-0.454,0.062-1.317,0.062h-0.147
		c-0.765,0-1.16-0.021-1.186-0.062c-0.026-0.026-0.039-1.054-0.039-3.085v-0.643C898.581,193.238,898.6,191.936,898.636,191.791z"/>
	<path fill="#FFFFFF" d="M904.717,191.717c0.245-0.034,0.485-0.061,0.721-0.082c0.235-0.021,0.353-0.033,0.353-0.039l-0.008-0.093
		c0-0.062-0.002-0.145-0.008-0.248c-0.005-0.103-0.01-0.217-0.015-0.341c-0.006-0.124-0.01-0.26-0.012-0.407
		c-0.003-0.147-0.004-0.286-0.004-0.415c0-0.336,0.062-0.66,0.186-0.973s0.3-0.593,0.527-0.841s0.52-0.447,0.876-0.597
		s0.752-0.225,1.186-0.225c0.59,0,1.103,0.085,1.539,0.256c0.437,0.17,0.766,0.349,0.988,0.535
		c-0.036,0.238-0.129,0.606-0.279,1.104c-0.149,0.499-0.253,0.75-0.31,0.756h-0.008c-0.052,0-0.212-0.06-0.48-0.178
		c-0.284-0.124-0.535-0.186-0.752-0.186c-0.32,0-0.56,0.106-0.718,0.318c-0.157,0.212-0.241,0.475-0.251,0.791
		c0,0.072,0.002,0.158,0.007,0.256c0.006,0.098,0.01,0.184,0.012,0.256c0.003,0.072,0.004,0.114,0.004,0.124
		c0.026,0.01,0.207,0.017,0.543,0.019c0.336,0.003,0.665,0.016,0.988,0.039c0.323,0.023,0.5,0.068,0.531,0.136
		c0.03,0.449,0.046,0.816,0.046,1.101c0,0.362-0.025,0.592-0.077,0.69c-0.026,0.046-0.359,0.08-1,0.101
		c-0.361,0.01-0.625,0.016-0.791,0.016c-0.124,0-0.193-0.002-0.209-0.008c-0.005,0,0.008,0.478,0.039,1.434
		c0.025,0.961,0.049,1.93,0.069,2.907c0.011,0.486,0.016,0.853,0.016,1.101s-0.005,0.377-0.016,0.388
		c-0.046,0.046-0.473,0.088-1.278,0.124c-0.259,0.01-0.479,0.016-0.659,0.016c-0.393,0-0.61-0.026-0.651-0.078
		c-0.016-0.021-0.027-0.12-0.035-0.298s-0.014-0.403-0.019-0.674c-0.006-0.271-0.01-0.58-0.012-0.926
		c-0.003-0.346-0.004-0.693-0.004-1.039v-1.042c0-0.349,0.001-0.652,0.004-0.911c0.002-0.258,0.004-0.479,0.004-0.663v-0.283
		c-0.031-0.005-0.252-0.008-0.663-0.008s-0.629-0.005-0.655-0.016c-0.031-0.015-0.069-0.31-0.116-0.883
		c-0.021-0.31-0.031-0.542-0.031-0.698c0-0.129,0.008-0.204,0.023-0.225C904.338,191.781,904.472,191.751,904.717,191.717z"/>
	<path fill="#FFFFFF" d="M911.035,194.008c0.188-0.47,0.45-0.89,0.786-1.26c0.336-0.369,0.759-0.667,1.268-0.891
		c0.509-0.225,1.063-0.337,1.663-0.337c0.562,0,1.092,0.094,1.585,0.283c0.493,0.188,0.922,0.456,1.287,0.802
		c0.364,0.346,0.652,0.783,0.864,1.31c0.212,0.527,0.317,1.111,0.317,1.751c0,0.517-0.092,1.008-0.275,1.473
		c-0.184,0.465-0.443,0.879-0.778,1.244c-0.336,0.364-0.762,0.656-1.275,0.875c-0.515,0.22-1.079,0.335-1.694,0.345
		c-1.157,0-2.118-0.376-2.883-1.128s-1.147-1.758-1.147-3.019C910.752,194.961,910.847,194.478,911.035,194.008z M913.632,196.903
		c0.286,0.308,0.629,0.467,1.026,0.477h0.078c0.512,0,0.907-0.145,1.186-0.434c0.29-0.31,0.435-0.747,0.435-1.31
		c0-0.584-0.14-1.01-0.419-1.279c-0.279-0.269-0.63-0.411-1.054-0.426h-0.078c-0.517,0-0.909,0.15-1.178,0.45
		c-0.29,0.315-0.432,0.739-0.427,1.271C913.201,196.178,913.345,196.596,913.632,196.903z"/>
	<path fill="#FFFFFF" d="M920.085,191.791c0.067-0.119,0.479-0.199,1.232-0.24c0.274-0.016,0.504-0.026,0.69-0.031
		c0.325,0,0.509,0.026,0.55,0.078c0.006,0.098,0.008,0.229,0.008,0.392c0,0.163-0.002,0.322-0.008,0.477v0.232
		c0.274-0.48,0.659-0.803,1.155-0.969c0.325-0.108,0.669-0.163,1.031-0.163c0.19,0,0.39,0.015,0.597,0.046
		c0.067,0.041,0.101,0.186,0.101,0.434c0,0.207-0.023,0.48-0.069,0.821c-0.104,0.765-0.226,1.23-0.364,1.396
		c-0.435-0.104-0.783-0.155-1.047-0.155h-0.069c-0.352,0.005-0.628,0.119-0.83,0.341c-0.201,0.222-0.325,0.517-0.372,0.884
		c-0.005,0.036-0.008,0.124-0.008,0.263c0,0.207,0.006,0.522,0.016,0.946c0.016,0.713,0.028,1.338,0.039,1.876
		c0.005,0.181,0.008,0.341,0.008,0.48c0,0.269-0.008,0.444-0.023,0.527c-0.016,0.041-0.455,0.062-1.317,0.062h-0.147
		c-0.765,0-1.16-0.021-1.187-0.062c-0.025-0.026-0.038-1.054-0.038-3.085v-0.643C920.031,193.238,920.049,191.936,920.085,191.791z"
		/>
	<path fill="#FFFFFF" d="M926.38,194.31c0-0.863,0.005-1.739,0.016-2.627c0.062-0.083,0.328-0.124,0.798-0.124
		c0.135,0,0.287,0.002,0.458,0.008c0.759,0.031,1.178,0.085,1.255,0.163c-0.025,0.532-0.041,0.816-0.046,0.853
		c0.476-0.718,1.222-1.078,2.24-1.078c0.434,0,0.826,0.103,1.178,0.307s0.636,0.484,0.853,0.841c0.13-0.222,0.298-0.415,0.504-0.578
		c0.207-0.163,0.428-0.281,0.663-0.356c0.235-0.075,0.452-0.129,0.651-0.163c0.198-0.034,0.392-0.051,0.577-0.051
		c0.972,0,1.696,0.295,2.174,0.884c0.479,0.589,0.718,1.411,0.718,2.465c0,0.538-0.015,1.341-0.043,2.411
		c-0.028,1.069-0.053,1.791-0.073,2.163c-0.006,0.062-0.414,0.101-1.225,0.116c-0.27,0.005-0.496,0.008-0.683,0.008
		c-0.367,0-0.556-0.01-0.565-0.031c-0.011-0.134-0.016-0.354-0.016-0.659v-0.333c0.005-0.486,0.014-1.137,0.026-1.953
		c0.014-0.816,0.02-1.305,0.02-1.465c0-0.434-0.076-0.77-0.229-1.007c-0.152-0.238-0.425-0.357-0.817-0.357
		c-0.207,0-0.388,0.047-0.543,0.14c-0.155,0.093-0.272,0.212-0.353,0.356c-0.08,0.145-0.139,0.29-0.175,0.434
		c-0.036,0.145-0.054,0.284-0.054,0.419c0,1.715-0.034,3.145-0.101,4.287c-0.011,0.051-0.29,0.077-0.838,0.077h-0.372
		c-0.796-0.01-1.206-0.031-1.232-0.062c-0.016-0.196-0.022-0.532-0.022-1.007c0-0.476,0.006-1.12,0.019-1.934
		c0.014-0.814,0.02-1.262,0.02-1.345c0-0.429-0.079-0.763-0.236-1.003c-0.157-0.241-0.428-0.361-0.81-0.361
		c-0.378,0-0.668,0.127-0.872,0.38c-0.204,0.253-0.307,0.53-0.307,0.83c0,0.491-0.008,1.363-0.023,2.616
		c-0.016,1.253-0.033,1.893-0.054,1.918c-0.016,0.021-0.22,0.031-0.612,0.031h-0.597c-0.786-0.01-1.187-0.041-1.202-0.093
		c-0.01-0.021-0.023-0.45-0.038-1.287c-0.016-0.837-0.026-1.827-0.031-2.969V194.31z"/>
</g>
<g>
	<path fill="#FFFFFF" d="M971.48,198.31c0-0.124,0.055-0.349,0.163-0.674c0.124-0.383,0.264-0.742,0.419-1.078
		c0.145-0.31,0.245-0.465,0.302-0.465h0.016c0.016,0.011,0.072,0.047,0.171,0.109c0.098,0.062,0.181,0.114,0.248,0.155
		c0.067,0.042,0.168,0.1,0.302,0.174c0.135,0.075,0.256,0.137,0.364,0.186c0.109,0.049,0.242,0.105,0.399,0.167
		c0.158,0.062,0.308,0.112,0.45,0.151c0.142,0.039,0.299,0.071,0.473,0.097c0.173,0.026,0.34,0.039,0.5,0.039
		c1.028,0,1.542-0.323,1.542-0.969c0-0.181-0.053-0.338-0.158-0.473c-0.106-0.134-0.31-0.265-0.609-0.391
		c-0.299-0.127-0.715-0.244-1.247-0.353c-1.08-0.222-1.891-0.606-2.431-1.151c-0.54-0.545-0.81-1.322-0.81-2.33
		c0-0.455,0.092-0.885,0.274-1.291c0.184-0.405,0.447-0.765,0.791-1.077c0.344-0.313,0.781-0.56,1.313-0.74
		c0.532-0.181,1.124-0.271,1.775-0.271c0.801,0,1.539,0.09,2.213,0.271c0.675,0.181,1.177,0.403,1.508,0.667
		c0.021,0.016,0.031,0.046,0.031,0.093c0,0.109-0.044,0.287-0.132,0.535c-0.129,0.372-0.281,0.729-0.457,1.069
		c-0.176,0.341-0.292,0.509-0.35,0.504c-0.005,0-0.037-0.014-0.097-0.042s-0.109-0.052-0.151-0.07
		c-0.041-0.018-0.105-0.046-0.193-0.085c-0.088-0.039-0.169-0.071-0.244-0.097s-0.167-0.057-0.275-0.093s-0.212-0.069-0.31-0.097
		c-0.099-0.028-0.211-0.057-0.338-0.085c-0.126-0.029-0.248-0.052-0.364-0.07s-0.242-0.032-0.38-0.043
		c-0.137-0.01-0.27-0.015-0.398-0.015c-0.46,0-0.808,0.083-1.043,0.248c-0.235,0.165-0.353,0.385-0.353,0.659
		c0,0.258,0.117,0.464,0.353,0.616s0.723,0.312,1.461,0.477c0.439,0.104,0.83,0.216,1.171,0.337s0.67,0.276,0.988,0.465
		c0.317,0.189,0.581,0.405,0.79,0.647c0.21,0.243,0.376,0.536,0.5,0.88s0.187,0.727,0.187,1.151c0,0.434-0.089,0.852-0.268,1.252
		c-0.178,0.4-0.441,0.766-0.791,1.097c-0.349,0.331-0.814,0.596-1.398,0.795c-0.584,0.199-1.248,0.298-1.992,0.298
		c-0.801,0-1.562-0.12-2.283-0.36c-0.721-0.241-1.262-0.495-1.624-0.764C971.483,198.349,971.48,198.331,971.48,198.31z"/>
	<path fill="#FFFFFF" d="M981.051,194.558c0.038-1.963,0.078-2.997,0.12-3.101c0.031-0.005,0.098-0.008,0.201-0.008
		s0.246,0.003,0.427,0.008c0.352,0.01,0.731,0.026,1.14,0.046l0.612,0.031c0,0.031-0.003,0.174-0.008,0.43
		c-0.006,0.256-0.008,0.399-0.008,0.43c0.031-0.057,0.105-0.13,0.225-0.221c0.119-0.091,0.273-0.189,0.465-0.295
		s0.438-0.195,0.74-0.267c0.303-0.072,0.619-0.109,0.95-0.109c0.475,0,0.921,0.088,1.337,0.264s0.784,0.429,1.104,0.76
		s0.573,0.754,0.76,1.271c0.186,0.517,0.279,1.095,0.279,1.736c0,0.615-0.1,1.177-0.299,1.686c-0.199,0.509-0.468,0.926-0.807,1.252
		c-0.338,0.326-0.727,0.578-1.166,0.756s-0.904,0.27-1.396,0.275c-0.47,0-0.909-0.083-1.317-0.248
		c-0.408-0.166-0.651-0.315-0.729-0.45c0,0.041,0.001,0.239,0.004,0.593c0.002,0.354,0.004,0.696,0.004,1.027
		c0,0.331-0.002,0.683-0.004,1.058c-0.003,0.375-0.012,0.682-0.027,0.922s-0.036,0.368-0.062,0.383
		c-0.077,0.057-0.493,0.099-1.248,0.124c-0.186,0.005-0.352,0.008-0.496,0.008c-0.465,0-0.757-0.028-0.876-0.085
		c-0.005-0.145-0.008-0.456-0.008-0.934s0.003-1.128,0.008-1.95C980.987,198.32,981.012,196.522,981.051,194.558z M984.065,196.768
		c0.303,0.31,0.66,0.465,1.074,0.465c0.491,0,0.876-0.152,1.155-0.457c0.278-0.305,0.418-0.708,0.418-1.209
		c0-0.522-0.141-0.928-0.422-1.217c-0.282-0.29-0.646-0.434-1.09-0.434c-0.521,0-0.917,0.148-1.186,0.445
		c-0.269,0.297-0.403,0.694-0.403,1.19C983.612,196.052,983.764,196.458,984.065,196.768z"/>
	<path fill="#FFFFFF" d="M990.531,194.008c0.188-0.47,0.45-0.89,0.786-1.26c0.336-0.369,0.759-0.667,1.268-0.891
		c0.509-0.225,1.063-0.337,1.663-0.337c0.562,0,1.092,0.094,1.585,0.283c0.493,0.188,0.922,0.456,1.287,0.802
		c0.364,0.346,0.652,0.783,0.864,1.31c0.212,0.527,0.317,1.111,0.317,1.751c0,0.517-0.092,1.008-0.275,1.473
		c-0.184,0.465-0.443,0.879-0.778,1.244c-0.336,0.364-0.762,0.656-1.275,0.875c-0.515,0.22-1.079,0.335-1.694,0.345
		c-1.157,0-2.118-0.376-2.883-1.128s-1.147-1.758-1.147-3.019C990.248,194.961,990.343,194.478,990.531,194.008z M993.128,196.903
		c0.286,0.308,0.629,0.467,1.026,0.477h0.078c0.512,0,0.907-0.145,1.186-0.434c0.29-0.31,0.435-0.747,0.435-1.31
		c0-0.584-0.14-1.01-0.419-1.279c-0.279-0.269-0.63-0.411-1.054-0.426h-0.078c-0.517,0-0.909,0.15-1.178,0.45
		c-0.29,0.315-0.432,0.739-0.427,1.271C992.697,196.178,992.841,196.596,993.128,196.903z"/>
	<path fill="#FFFFFF" d="M999.512,194.38c0-0.853,0.005-1.721,0.016-2.604c0.066-0.098,0.485-0.168,1.256-0.209
		c0.278-0.016,0.511-0.023,0.697-0.023c0.325,0,0.512,0.023,0.558,0.07c-0.03,0.625-0.046,0.943-0.046,0.953
		c0.201-0.305,0.506-0.566,0.914-0.783s0.907-0.326,1.496-0.326c0.858,0,1.542,0.314,2.051,0.942s0.764,1.456,0.764,2.484
		c0,0.563-0.015,1.366-0.043,2.407c-0.028,1.042-0.059,1.748-0.089,2.12c-0.006,0.067-0.408,0.106-1.21,0.116
		c-0.227,0.005-0.423,0.008-0.589,0.008c-0.413,0-0.628-0.01-0.644-0.031c-0.015-0.197-0.022-0.534-0.022-1.012
		s0.006-1.132,0.019-1.961c0.014-0.829,0.02-1.288,0.02-1.375c0-0.445-0.102-0.799-0.306-1.062
		c-0.204-0.264-0.506-0.396-0.903-0.396c-0.413,0-0.749,0.133-1.008,0.399c-0.258,0.266-0.388,0.567-0.388,0.903
		c0,2.884-0.021,4.354-0.062,4.411c-0.016,0.021-0.22,0.031-0.612,0.031h-0.597c-0.786-0.01-1.187-0.041-1.202-0.093
		c-0.01-0.021-0.023-0.434-0.038-1.24c-0.016-0.806-0.026-1.768-0.031-2.884V194.38z"/>
	<path fill="#FFFFFF" d="M1008.364,198.744c-0.005-0.083,0.033-0.243,0.116-0.48c0.104-0.311,0.225-0.606,0.364-0.888
		s0.229-0.412,0.271-0.392c0.021,0.01,0.124,0.07,0.31,0.178c0.187,0.109,0.364,0.206,0.535,0.291
		c0.171,0.085,0.389,0.168,0.655,0.248c0.266,0.08,0.516,0.12,0.748,0.12c0.31,0,0.546-0.051,0.709-0.151s0.244-0.242,0.244-0.422
		c0-0.181-0.089-0.324-0.268-0.43c-0.178-0.106-0.518-0.206-1.02-0.298c-0.889-0.15-1.545-0.417-1.969-0.802
		c-0.424-0.385-0.636-0.911-0.636-1.578c0-0.848,0.275-1.506,0.826-1.977c0.55-0.47,1.313-0.706,2.29-0.706
		c0.651,0,1.272,0.083,1.864,0.248c0.592,0.166,0.955,0.315,1.089,0.45c0.016,0.016,0.023,0.039,0.023,0.07
		c0,0.134-0.093,0.429-0.279,0.884c-0.232,0.573-0.379,0.865-0.441,0.875c-0.005,0-0.113-0.051-0.325-0.155s-0.479-0.207-0.799-0.31
		s-0.617-0.155-0.892-0.155c-0.289,0-0.51,0.06-0.662,0.179c-0.153,0.119-0.229,0.266-0.229,0.441c0,0.176,0.086,0.311,0.256,0.403
		c0.171,0.093,0.483,0.17,0.938,0.232c0.961,0.14,1.656,0.393,2.085,0.76s0.644,0.912,0.644,1.636c0,0.356-0.063,0.692-0.19,1.007
		c-0.126,0.315-0.313,0.598-0.562,0.849c-0.248,0.25-0.58,0.448-0.996,0.593s-0.893,0.217-1.431,0.217
		c-0.708,0-1.39-0.106-2.046-0.318s-1.06-0.398-1.209-0.558C1008.369,198.796,1008.364,198.775,1008.364,198.744z"/>
	<path fill="#FFFFFF" d="M1015.849,194.008c0.188-0.47,0.451-0.89,0.787-1.26c0.336-0.369,0.758-0.667,1.268-0.891
		c0.509-0.225,1.062-0.337,1.662-0.337c0.563,0,1.092,0.094,1.585,0.283c0.494,0.188,0.923,0.456,1.287,0.802
		s0.652,0.783,0.864,1.31c0.212,0.527,0.318,1.111,0.318,1.751c0,0.517-0.092,1.008-0.275,1.473
		c-0.184,0.465-0.443,0.879-0.779,1.244c-0.336,0.364-0.761,0.656-1.275,0.875c-0.514,0.22-1.078,0.335-1.693,0.345
		c-1.157,0-2.119-0.376-2.884-1.128s-1.147-1.758-1.147-3.019C1015.565,194.961,1015.66,194.478,1015.849,194.008z
		 M1018.445,196.903c0.287,0.308,0.629,0.467,1.027,0.477h0.077c0.512,0,0.907-0.145,1.187-0.434c0.289-0.31,0.434-0.747,0.434-1.31
		c0-0.584-0.14-1.01-0.418-1.279c-0.279-0.269-0.631-0.411-1.055-0.426h-0.077c-0.517,0-0.91,0.15-1.179,0.45
		c-0.289,0.315-0.432,0.739-0.426,1.271C1018.016,196.178,1018.159,196.596,1018.445,196.903z"/>
	<path fill="#FFFFFF" d="M1024.898,191.791c0.067-0.119,0.479-0.199,1.232-0.24c0.274-0.016,0.504-0.026,0.69-0.031
		c0.325,0,0.509,0.026,0.55,0.078c0.006,0.098,0.008,0.229,0.008,0.392c0,0.163-0.002,0.322-0.008,0.477v0.232
		c0.274-0.48,0.659-0.803,1.155-0.969c0.325-0.108,0.669-0.163,1.031-0.163c0.19,0,0.39,0.015,0.597,0.046
		c0.067,0.041,0.101,0.186,0.101,0.434c0,0.207-0.023,0.48-0.069,0.821c-0.104,0.765-0.226,1.23-0.364,1.396
		c-0.435-0.104-0.783-0.155-1.047-0.155h-0.069c-0.352,0.005-0.628,0.119-0.83,0.341c-0.201,0.222-0.325,0.517-0.372,0.884
		c-0.005,0.036-0.008,0.124-0.008,0.263c0,0.207,0.006,0.522,0.016,0.946c0.016,0.713,0.028,1.338,0.039,1.876
		c0.005,0.181,0.008,0.341,0.008,0.48c0,0.269-0.008,0.444-0.023,0.527c-0.016,0.041-0.455,0.062-1.317,0.062h-0.147
		c-0.765,0-1.16-0.021-1.187-0.062c-0.025-0.026-0.038-1.054-0.038-3.085v-0.643
		C1024.845,193.238,1024.862,191.936,1024.898,191.791z"/>
</g>
<polyline fill="none" stroke="#DDDDDD" stroke-width="2" stroke-miterlimit="10" points="88.487,151 88.487,127 1050.805,127 
	1050.805,151 "/>
<g>
	<path fill="#AFAFAF" d="M525.205,103.784c0.396-0.699,0.925-1.237,1.586-1.614s1.392-0.569,2.189-0.575
		c0.594,0,1.141,0.128,1.642,0.385c0.501,0.257,0.847,0.527,1.039,0.812c0-4.045,0.037-6.098,0.111-6.16s0.464-0.105,1.169-0.13
		c0.161-0.006,0.306-0.009,0.436-0.009c0.452,0,0.733,0.028,0.844,0.083c0.006,0,0.009,0.074,0.009,0.223
		c0,0.687-0.037,2.944-0.111,6.772c-0.086,4.651-0.142,7.063-0.167,7.236c-0.006,0.019-0.158,0.04-0.455,0.065
		c-0.235,0.019-0.489,0.028-0.761,0.028h-0.204c-0.359-0.006-0.606-0.037-0.742-0.093c0-0.074-0.006-0.266-0.019-0.575
		s-0.019-0.504-0.019-0.584c-0.216,0.291-0.584,0.572-1.104,0.844s-1.123,0.408-1.809,0.408c-0.575,0-1.115-0.102-1.619-0.306
		c-0.504-0.204-0.953-0.5-1.346-0.886c-0.393-0.387-0.702-0.885-0.928-1.494c-0.226-0.609-0.338-1.291-0.338-2.045
		C524.611,105.278,524.809,104.483,525.205,103.784z M527.784,108.131c0.445,0.417,1.008,0.626,1.688,0.626
		c0.761,0,1.334-0.23,1.721-0.691c0.386-0.46,0.58-1.074,0.58-1.841c0-0.798-0.221-1.412-0.664-1.841
		c-0.442-0.43-0.994-0.645-1.656-0.645c-0.717,0-1.287,0.226-1.707,0.677s-0.631,1.067-0.631,1.846
		C527.116,107.09,527.339,107.713,527.784,108.131z"/>
	<path fill="#AFAFAF" d="M536.528,97.415c0.201-0.256,0.577-0.385,1.127-0.385c0.445,0,0.804,0.142,1.076,0.427
		s0.408,0.674,0.408,1.169c0,0.359-0.139,0.66-0.417,0.904c-0.278,0.245-0.634,0.367-1.067,0.367s-0.779-0.121-1.039-0.362
		s-0.39-0.575-0.39-1.002C536.227,98.044,536.327,97.672,536.528,97.415z M536.431,103.033c0-0.866,0.016-1.333,0.046-1.401
		c0.049-0.056,0.337-0.083,0.863-0.083h0.315c0.73,0.012,1.116,0.04,1.16,0.083c0.025,0.019,0.034,0.572,0.028,1.661
		c0,0.73-0.003,1.695-0.009,2.895c-0.025,3.006-0.056,4.54-0.093,4.602c-0.043,0.056-0.374,0.083-0.993,0.083
		c-0.037-0.006-0.074-0.009-0.111-0.009c-0.693,0-1.048-0.019-1.067-0.056c-0.019-0.056-0.053-1.565-0.102-4.527
		C536.443,104.888,536.431,103.806,536.431,103.033z"/>
	<path fill="#AFAFAF" d="M540.717,109.842c0-0.043,0.012-0.105,0.037-0.186c0.037-0.13,0.096-0.275,0.176-0.436
		s0.162-0.32,0.246-0.478c0.083-0.158,0.162-0.286,0.236-0.385s0.121-0.139,0.139-0.121c0.958,0.711,1.846,1.067,2.663,1.067
		c0.489,0,0.863-0.088,1.123-0.264c0.26-0.177,0.39-0.41,0.39-0.701c0-0.303-0.128-0.534-0.385-0.691
		c-0.256-0.158-0.722-0.295-1.396-0.413c-1.101-0.192-1.908-0.506-2.421-0.941c-0.513-0.437-0.77-1.041-0.77-1.814
		c0-0.94,0.317-1.676,0.951-2.208c0.634-0.532,1.508-0.798,2.621-0.798c0.779,0,1.481,0.101,2.106,0.301
		c0.625,0.201,1.03,0.401,1.215,0.599c0.012,0.012,0.019,0.034,0.019,0.065c0.006,0.124-0.09,0.402-0.288,0.835
		c-0.248,0.544-0.405,0.813-0.473,0.807c-0.006,0-0.124-0.062-0.353-0.186s-0.538-0.25-0.928-0.38s-0.767-0.195-1.132-0.195
		c-0.47,0-0.824,0.098-1.062,0.292c-0.238,0.195-0.357,0.435-0.357,0.719c0,0.297,0.125,0.521,0.375,0.672
		c0.251,0.152,0.713,0.274,1.387,0.367c1.095,0.155,1.907,0.445,2.435,0.872c0.529,0.427,0.793,1.042,0.793,1.846
		c0,0.884-0.311,1.606-0.932,2.166c-0.622,0.56-1.526,0.84-2.714,0.84c-0.829,0-1.604-0.139-2.324-0.417
		c-0.72-0.278-1.173-0.538-1.359-0.779C540.723,109.886,540.717,109.867,540.717,109.842z"/>
	<path fill="#AFAFAF" d="M549.841,105.115c0.04-2.322,0.085-3.548,0.134-3.678c0.043-0.012,0.146-0.019,0.306-0.019h0.278
		c0.328,0.012,0.68,0.031,1.058,0.056l0.566,0.037c0,0.086-0.003,0.285-0.009,0.594s-0.009,0.504-0.009,0.584
		c0.179-0.297,0.524-0.577,1.035-0.84c0.51-0.263,1.133-0.394,1.869-0.394c0.582,0,1.123,0.104,1.624,0.311
		c0.501,0.207,0.942,0.504,1.322,0.891c0.381,0.386,0.679,0.884,0.896,1.493c0.216,0.609,0.325,1.294,0.325,2.055
		c0,1.422-0.402,2.554-1.206,3.396s-1.84,1.268-3.108,1.28c-0.606,0-1.163-0.11-1.67-0.33c-0.507-0.219-0.844-0.465-1.011-0.737
		c0,0.086,0.003,0.646,0.009,1.679c0.006,0.52,0.009,0.982,0.009,1.387c0,0.405-0.003,0.753-0.009,1.043
		c-0.006,0.582-0.028,0.884-0.065,0.909c-0.068,0.068-0.448,0.111-1.141,0.13c-0.161,0.006-0.306,0.009-0.436,0.009
		c-0.439,0-0.717-0.028-0.835-0.083c-0.006-0.167-0.009-0.534-0.009-1.099c0-0.566,0.003-1.332,0.009-2.296
		C549.778,109.564,549.801,107.438,549.841,105.115z M552.842,108.08c0.439,0.464,0.974,0.696,1.605,0.696
		c0.742,0,1.314-0.229,1.716-0.687s0.603-1.079,0.603-1.865c0-0.847-0.21-1.477-0.631-1.888c-0.42-0.411-0.971-0.617-1.651-0.617
		c-0.754,0-1.327,0.221-1.716,0.664c-0.39,0.442-0.584,1.043-0.584,1.804C552.184,106.985,552.403,107.616,552.842,108.08z"/>
	<path fill="#AFAFAF" d="M561.136,105.538c0-1.756,0.019-3.519,0.056-5.288c0.049-2.356,0.118-3.569,0.204-3.637
		c0.111-0.086,0.482-0.136,1.113-0.148h0.213c0.489,0,0.749,0.031,0.779,0.093c0.025,0.043,0.04,0.485,0.046,1.327
		c0,1.095-0.025,2.86-0.074,5.297c-0.081,4.317-0.148,6.902-0.204,7.756h-0.51c-0.94,0-1.447-0.031-1.521-0.093
		c-0.056-0.037-0.09-1.225-0.102-3.562C561.13,106.7,561.13,106.119,561.136,105.538z"/>
	<path fill="#AFAFAF" d="M566.239,105.997c0.649-0.529,1.475-0.793,2.477-0.793c0.86,0,1.543,0.229,2.05,0.687
		c0-0.309-0.011-0.566-0.032-0.77c-0.022-0.204-0.07-0.417-0.144-0.64s-0.178-0.397-0.311-0.524
		c-0.133-0.127-0.321-0.232-0.565-0.315c-0.245-0.084-0.537-0.125-0.877-0.125c-0.328,0-0.631,0.051-0.909,0.153
		c-0.278,0.103-0.487,0.214-0.626,0.334c-0.14,0.121-0.262,0.234-0.367,0.339s-0.17,0.158-0.195,0.158h-0.009
		c-0.099,0-0.328-0.155-0.687-0.464c-0.371-0.322-0.557-0.522-0.557-0.603c0.012-0.074,0.068-0.184,0.167-0.329
		c0.099-0.146,0.252-0.315,0.459-0.511c0.207-0.194,0.445-0.377,0.714-0.547c0.27-0.17,0.608-0.314,1.016-0.432
		s0.838-0.176,1.29-0.176c1.231,0,2.2,0.359,2.908,1.076c0.708,0.717,1.062,1.753,1.062,3.108c0,0.594-0.009,1.3-0.028,2.12
		c-0.019,0.819-0.04,1.515-0.065,2.087c-0.025,0.572-0.043,0.874-0.056,0.905c-0.019,0.031-0.188,0.046-0.51,0.046
		s-0.64-0.009-0.956-0.028l-0.473-0.019l-0.111-0.816c-0.68,0.68-1.519,1.021-2.514,1.021c-1.045,0-1.828-0.264-2.347-0.793
		c-0.52-0.528-0.779-1.208-0.779-2.036C565.265,107.229,565.589,106.525,566.239,105.997z M567.774,109.021
		c0.319,0.25,0.722,0.375,1.211,0.375c0.532,0,0.949-0.133,1.252-0.399s0.455-0.587,0.455-0.965c0-0.427-0.162-0.769-0.487-1.025
		c-0.324-0.256-0.737-0.385-1.238-0.385c-0.482,0-0.881,0.139-1.197,0.417s-0.473,0.615-0.473,1.011
		S567.456,108.771,567.774,109.021z"/>
	<path fill="#AFAFAF" d="M576.37,101.437c0.081,0,0.325,0.489,0.733,1.466s0.798,1.955,1.169,2.932l0.557,1.457
		c1.596-3.878,2.431-5.823,2.505-5.835h0.019c0.111,0,0.479,0.071,1.104,0.213c0.674,0.155,1.021,0.257,1.039,0.306
		c-0.192,0.649-1.152,2.915-2.881,6.795c-1.729,3.881-2.704,5.986-2.927,6.313h-0.019c-0.241,0-0.646-0.124-1.215-0.371
		c-0.582-0.253-0.906-0.43-0.974-0.529c0.012-0.062,0.161-0.397,0.445-1.006c0.285-0.609,0.591-1.274,0.918-1.995
		c0.328-0.72,0.544-1.213,0.649-1.479c-0.315-0.637-0.934-2.044-1.855-4.221c-0.916-2.159-1.373-3.355-1.373-3.59
		c0-0.068,0.308-0.161,0.923-0.278C575.802,101.496,576.196,101.437,576.37,101.437z"/>
	<path fill="#AFAFAF" d="M585.132,102.374c0.331-0.303,0.796-0.442,1.396-0.417c0.427,0.031,0.787,0.178,1.081,0.441
		c0.294,0.263,0.441,0.666,0.441,1.21c0,0.563-0.17,0.996-0.51,1.299s-0.816,0.445-1.429,0.427
		c-0.377-0.012-0.717-0.176-1.021-0.492s-0.455-0.708-0.455-1.178C584.636,103.107,584.801,102.677,585.132,102.374z
		 M585.192,108.098c0.322-0.297,0.779-0.433,1.373-0.408c0.42,0.031,0.776,0.176,1.067,0.436s0.436,0.659,0.436,1.197
		c0,0.557-0.167,0.982-0.501,1.276c-0.334,0.293-0.807,0.431-1.419,0.413c-0.371,0-0.704-0.156-0.997-0.468
		c-0.294-0.312-0.441-0.701-0.441-1.165C584.71,108.822,584.871,108.395,585.192,108.098z"/>
	<path fill="#AFAFAF" d="M593.89,101.743c0.312-0.031,0.617-0.056,0.914-0.074s0.445-0.031,0.445-0.037v-0.102
		c-0.006-0.062-0.014-0.147-0.023-0.255c-0.01-0.108-0.017-0.226-0.023-0.353c-0.006-0.126-0.011-0.266-0.014-0.417
		c-0.003-0.152-0.005-0.29-0.005-0.413c0-0.996,0.368-1.84,1.104-2.533s1.686-1.039,2.848-1.039c1.064,0,1.958,0.235,2.681,0.705
		l0.213-0.501c0.371-0.025,0.729-0.036,1.071-0.033c0.344,0.003,0.549,0.021,0.617,0.051c0.043,0.019,0.051,2.347,0.023,6.986
		c-0.028,4.639-0.061,6.992-0.098,7.06c-0.043,0.056-0.41,0.082-1.1,0.079c-0.689-0.003-1.046-0.023-1.071-0.06
		c-0.006-0.019-0.026-1.526-0.061-4.523c-0.034-2.996-0.057-5.277-0.069-6.842c-0.507-0.507-1.135-0.761-1.883-0.761
		c-0.587,0-1.058,0.159-1.41,0.478c-0.353,0.319-0.529,0.793-0.529,1.424v1.03c0.118,0.006,0.243,0.009,0.376,0.009
		c0.133,0,0.366-0.001,0.7-0.004c0.334-0.003,0.68-0.005,1.039-0.005c0.13,0.662,0.118,1.302-0.037,1.92
		c-1.348,0-2.029-0.006-2.041-0.019c-0.006,0,0.003,0.625,0.028,1.874s0.046,2.415,0.065,3.498s0.016,1.729-0.009,1.939
		c-0.056,0.056-0.448,0.104-1.178,0.144c-0.73,0.04-1.123,0.017-1.178-0.07c-0.056-0.136-0.083-2.579-0.083-7.329
		c-0.086-0.006-0.249-0.008-0.487-0.004c-0.238,0.003-0.49,0.004-0.756,0.004s-0.408-0.006-0.427-0.019
		c-0.037-0.019-0.081-0.295-0.13-0.831c-0.049-0.535-0.056-0.83-0.019-0.886C593.409,101.805,593.578,101.774,593.89,101.743z"/>
	<path fill="#AFAFAF" d="M605.931,104.554c0.195-0.575,0.475-1.088,0.84-1.54s0.832-0.81,1.4-1.076
		c0.569-0.266,1.2-0.399,1.893-0.399c0.768,0,1.454,0.178,2.061,0.533c0.605,0.356,1.067,0.823,1.381,1.401
		c0.316,0.578,0.475,1.21,0.475,1.897c0,0.557-0.061,1.027-0.178,1.41c-0.42,0.062-1.36,0.099-2.82,0.111
		c-0.562,0.006-1.061,0.006-1.493,0c-0.693,0-1.219-0.006-1.578-0.019c0,0.656,0.228,1.177,0.683,1.563
		c0.454,0.387,1.04,0.58,1.758,0.58c0.859,0,1.651-0.272,2.375-0.816c0.08,0.068,0.238,0.333,0.474,0.793
		c0.234,0.461,0.355,0.75,0.361,0.868c-0.291,0.285-0.741,0.544-1.35,0.779s-1.27,0.353-1.98,0.353
		c-0.762,0-1.441-0.125-2.041-0.375c-0.601-0.251-1.083-0.592-1.447-1.025c-0.365-0.433-0.641-0.923-0.826-1.471
		c-0.186-0.547-0.278-1.133-0.278-1.758C605.639,105.732,605.737,105.129,605.931,104.554z M611.791,105.352
		c0.006-0.068,0.009-0.133,0.009-0.195c0-0.55-0.143-0.993-0.427-1.327c-0.321-0.383-0.776-0.572-1.363-0.566
		c-0.606,0-1.1,0.207-1.48,0.622c-0.38,0.415-0.57,0.916-0.57,1.503L611.791,105.352z"/>
	<path fill="#AFAFAF" d="M615.766,108.794c0.678-1.008,1.285-1.877,1.824-2.607c-0.18-0.315-0.504-0.835-0.975-1.559
		c-0.477-0.73-0.881-1.361-1.215-1.893c-0.334-0.526-0.498-0.832-0.492-0.918c0-0.049,0.314-0.128,0.941-0.236
		c0.629-0.108,1.025-0.163,1.193-0.163c0.049,0,0.227,0.243,0.533,0.728c0.305,0.486,0.631,1.015,0.973,1.587
		c0.344,0.572,0.549,0.904,0.617,0.997c0.051-0.068,0.254-0.383,0.613-0.946c0.357-0.563,0.705-1.098,1.039-1.605
		s0.52-0.767,0.557-0.779c0.018-0.006,0.055-0.009,0.111-0.009c0.172-0.006,0.525,0.04,1.057,0.139
		c0.688,0.124,1.031,0.213,1.031,0.269c-0.045,0.179-0.367,0.737-0.971,1.675c-0.604,0.937-1.186,1.811-1.748,2.621
		c0.191,0.353,0.518,0.903,0.979,1.651s0.855,1.396,1.188,1.944c0.33,0.547,0.496,0.849,0.496,0.904
		c-0.018,0.056-0.346,0.139-0.982,0.25c-0.639,0.111-1.037,0.167-1.197,0.167c-0.051-0.012-0.225-0.258-0.525-0.738
		c-0.299-0.479-0.627-1.016-0.982-1.609s-0.576-0.956-0.664-1.085c-0.111,0.161-0.352,0.535-0.723,1.123s-0.707,1.11-1.008,1.568
		c-0.299,0.458-0.465,0.687-0.496,0.687h-0.037c-0.148,0-0.537-0.053-1.168-0.158c-0.693-0.118-1.043-0.204-1.049-0.26
		C614.729,110.383,615.09,109.802,615.766,108.794z"/>
</g>
<g>
	<path fill="#AFAFAF" d="M89.336,242.298c0.312-0.031,0.617-0.056,0.914-0.074s0.445-0.031,0.445-0.037v-0.102
		c-0.006-0.062-0.014-0.147-0.023-0.255c-0.009-0.108-0.017-0.226-0.023-0.353c-0.006-0.126-0.011-0.266-0.014-0.417
		c-0.003-0.152-0.004-0.29-0.004-0.413c0-0.996,0.368-1.84,1.104-2.533s1.686-1.039,2.848-1.039c1.064,0,1.958,0.235,2.681,0.705
		l0.213-0.501c0.371-0.025,0.728-0.036,1.072-0.033c0.343,0.003,0.549,0.021,0.617,0.051c0.043,0.019,0.051,2.347,0.023,6.986
		c-0.027,4.639-0.06,6.992-0.097,7.06c-0.043,0.056-0.41,0.082-1.099,0.079c-0.69-0.003-1.047-0.023-1.072-0.06
		c-0.006-0.019-0.026-1.526-0.06-4.523c-0.034-2.996-0.058-5.277-0.07-6.842c-0.507-0.507-1.135-0.761-1.883-0.761
		c-0.587,0-1.058,0.159-1.41,0.478c-0.353,0.319-0.529,0.793-0.529,1.424v1.03c0.118,0.006,0.243,0.009,0.375,0.009
		c0.133,0,0.367-0.001,0.701-0.004c0.334-0.003,0.68-0.005,1.039-0.005c0.13,0.662,0.118,1.302-0.037,1.92
		c-1.348,0-2.029-0.006-2.041-0.019c-0.006,0,0.003,0.625,0.028,1.874s0.046,2.415,0.065,3.498s0.016,1.729-0.009,1.939
		c-0.056,0.056-0.448,0.104-1.178,0.144c-0.73,0.04-1.123,0.017-1.178-0.07c-0.056-0.136-0.083-2.579-0.083-7.329
		c-0.086-0.006-0.249-0.008-0.487-0.004c-0.238,0.003-0.49,0.004-0.756,0.004s-0.408-0.006-0.427-0.019
		c-0.037-0.019-0.081-0.295-0.13-0.831c-0.049-0.535-0.056-0.83-0.019-0.886C88.855,242.36,89.024,242.329,89.336,242.298z"/>
	<path fill="#AFAFAF" d="M101.378,245.109c0.195-0.575,0.475-1.088,0.84-1.54s0.832-0.81,1.401-1.076s1.2-0.399,1.893-0.399
		c0.767,0,1.454,0.178,2.06,0.533c0.606,0.356,1.067,0.823,1.382,1.401c0.315,0.578,0.473,1.21,0.473,1.897
		c0,0.557-0.059,1.027-0.176,1.41c-0.42,0.062-1.361,0.099-2.82,0.111c-0.563,0.006-1.061,0.006-1.494,0
		c-0.693,0-1.218-0.006-1.577-0.019c0,0.656,0.227,1.177,0.682,1.563c0.454,0.387,1.041,0.58,1.758,0.58
		c0.86,0,1.651-0.272,2.375-0.816c0.081,0.068,0.238,0.333,0.473,0.793c0.235,0.461,0.355,0.75,0.362,0.868
		c-0.291,0.285-0.741,0.544-1.35,0.779c-0.609,0.235-1.27,0.353-1.981,0.353c-0.761,0-1.441-0.125-2.041-0.375
		c-0.6-0.251-1.083-0.592-1.447-1.025s-0.64-0.923-0.826-1.471c-0.186-0.547-0.278-1.133-0.278-1.758
		C101.086,246.287,101.184,245.684,101.378,245.109z M107.237,245.907c0.006-0.068,0.009-0.133,0.009-0.195
		c0-0.55-0.142-0.993-0.427-1.327c-0.322-0.383-0.776-0.572-1.364-0.566c-0.606,0-1.099,0.207-1.48,0.622
		c-0.38,0.415-0.57,0.916-0.57,1.503L107.237,245.907z"/>
	<path fill="#AFAFAF" d="M111.212,249.349c0.678-1.008,1.285-1.877,1.823-2.607c-0.179-0.315-0.504-0.835-0.974-1.559
		c-0.476-0.73-0.881-1.361-1.215-1.893c-0.334-0.526-0.498-0.832-0.492-0.918c0-0.049,0.314-0.128,0.942-0.236
		c0.627-0.108,1.025-0.163,1.192-0.163c0.049,0,0.227,0.243,0.534,0.728c0.306,0.486,0.631,1.015,0.974,1.587
		c0.344,0.572,0.549,0.904,0.617,0.997c0.049-0.068,0.253-0.383,0.612-0.946s0.705-1.098,1.039-1.605s0.52-0.767,0.557-0.779
		c0.019-0.006,0.056-0.009,0.111-0.009c0.173-0.006,0.526,0.04,1.058,0.139c0.687,0.124,1.03,0.213,1.03,0.269
		c-0.043,0.179-0.367,0.737-0.969,1.675c-0.604,0.937-1.186,1.811-1.749,2.621c0.192,0.353,0.518,0.903,0.979,1.651
		c0.461,0.749,0.857,1.396,1.188,1.944c0.331,0.547,0.497,0.849,0.497,0.904c-0.019,0.056-0.346,0.139-0.983,0.25
		s-1.036,0.167-1.197,0.167c-0.049-0.012-0.224-0.258-0.524-0.738c-0.3-0.479-0.627-1.016-0.983-1.609
		c-0.355-0.594-0.577-0.956-0.663-1.085c-0.111,0.161-0.353,0.535-0.724,1.123s-0.707,1.11-1.007,1.568
		c-0.3,0.458-0.465,0.687-0.496,0.687h-0.037c-0.148,0-0.538-0.053-1.169-0.158c-0.693-0.118-1.042-0.204-1.048-0.26
		C110.175,250.938,110.535,250.357,111.212,249.349z"/>
	<path fill="#AFAFAF" d="M120.907,242.929c0.331-0.303,0.796-0.442,1.396-0.417c0.427,0.031,0.787,0.178,1.081,0.441
		c0.294,0.263,0.441,0.666,0.441,1.21c0,0.563-0.17,0.996-0.51,1.299s-0.816,0.445-1.429,0.427
		c-0.377-0.012-0.717-0.176-1.021-0.492s-0.455-0.708-0.455-1.178C120.411,243.662,120.576,243.232,120.907,242.929z
		 M120.967,248.653c0.322-0.297,0.779-0.433,1.373-0.408c0.42,0.031,0.776,0.176,1.067,0.436s0.436,0.659,0.436,1.197
		c0,0.557-0.167,0.982-0.501,1.276c-0.334,0.293-0.807,0.431-1.419,0.413c-0.371,0-0.704-0.156-0.997-0.468
		c-0.294-0.312-0.441-0.701-0.441-1.165C120.485,249.376,120.646,248.95,120.967,248.653z"/>
	<path fill="#AFAFAF" d="M131.284,239.079c1.218-0.68,1.945-1.058,2.18-1.132c0.192,0.012,0.47,0.068,0.835,0.167
		s0.582,0.201,0.649,0.306c0,8.083-0.019,12.379-0.056,12.886c-0.068,0.037-0.479,0.07-1.234,0.097
		c-0.754,0.028-1.166,0.002-1.234-0.079c-0.031-0.371-0.006-3.899,0.074-10.585c-0.019,0.012-0.046,0.029-0.083,0.051
		c-0.037,0.022-0.111,0.068-0.223,0.14c-0.111,0.071-0.221,0.141-0.33,0.208c-0.108,0.068-0.238,0.148-0.39,0.241
		c-0.151,0.093-0.293,0.178-0.427,0.255c-0.133,0.077-0.269,0.154-0.408,0.231c-0.139,0.078-0.261,0.144-0.366,0.2
		s-0.198,0.101-0.278,0.134c-0.081,0.034-0.133,0.048-0.158,0.042c-0.068-0.006-0.196-0.311-0.385-0.914
		c-0.188-0.603-0.267-0.926-0.236-0.969C129.375,240.186,130.065,239.759,131.284,239.079z"/>
	<path fill="#AFAFAF" d="M142.769,239.079c1.218-0.68,1.945-1.058,2.18-1.132c0.192,0.012,0.47,0.068,0.835,0.167
		s0.582,0.201,0.649,0.306c0,8.083-0.019,12.379-0.056,12.886c-0.068,0.037-0.479,0.07-1.234,0.097
		c-0.754,0.028-1.166,0.002-1.234-0.079c-0.031-0.371-0.006-3.899,0.074-10.585c-0.019,0.012-0.046,0.029-0.083,0.051
		c-0.037,0.022-0.111,0.068-0.223,0.14c-0.111,0.071-0.221,0.141-0.33,0.208c-0.108,0.068-0.238,0.148-0.39,0.241
		c-0.151,0.093-0.293,0.178-0.427,0.255c-0.133,0.077-0.269,0.154-0.408,0.231c-0.139,0.078-0.261,0.144-0.366,0.2
		s-0.198,0.101-0.278,0.134c-0.081,0.034-0.133,0.048-0.158,0.042c-0.068-0.006-0.196-0.311-0.385-0.914
		c-0.188-0.603-0.267-0.926-0.236-0.969C140.861,240.186,141.551,239.759,142.769,239.079z"/>
	<path fill="#AFAFAF" d="M153.54,246.552c0.649-0.529,1.475-0.793,2.477-0.793c0.86,0,1.543,0.229,2.05,0.687
		c0-0.309-0.011-0.566-0.032-0.77c-0.022-0.204-0.07-0.417-0.144-0.64s-0.178-0.397-0.311-0.524
		c-0.133-0.127-0.321-0.232-0.565-0.315c-0.245-0.084-0.537-0.125-0.877-0.125c-0.328,0-0.631,0.051-0.909,0.153
		c-0.278,0.103-0.487,0.214-0.626,0.334c-0.14,0.121-0.262,0.234-0.367,0.339s-0.17,0.158-0.195,0.158h-0.009
		c-0.099,0-0.328-0.155-0.687-0.464c-0.371-0.322-0.557-0.522-0.557-0.603c0.012-0.074,0.068-0.184,0.167-0.329
		c0.099-0.146,0.252-0.315,0.459-0.511c0.207-0.194,0.445-0.377,0.714-0.547c0.27-0.17,0.608-0.314,1.016-0.432
		s0.838-0.176,1.29-0.176c1.231,0,2.2,0.359,2.908,1.076c0.708,0.717,1.062,1.753,1.062,3.108c0,0.594-0.009,1.3-0.028,2.12
		c-0.019,0.819-0.04,1.515-0.065,2.087c-0.025,0.572-0.043,0.874-0.056,0.905c-0.019,0.031-0.188,0.046-0.51,0.046
		s-0.64-0.009-0.956-0.028l-0.473-0.019l-0.111-0.816c-0.68,0.68-1.519,1.021-2.514,1.021c-1.045,0-1.828-0.264-2.347-0.793
		c-0.52-0.528-0.779-1.208-0.779-2.036C152.566,247.784,152.891,247.08,153.54,246.552z M155.075,249.576
		c0.319,0.25,0.722,0.375,1.211,0.375c0.532,0,0.949-0.133,1.252-0.399s0.455-0.587,0.455-0.965c0-0.427-0.162-0.769-0.487-1.025
		c-0.324-0.256-0.737-0.385-1.238-0.385c-0.482,0-0.881,0.139-1.197,0.417s-0.473,0.615-0.473,1.011
		S154.757,249.325,155.075,249.576z"/>
	<path fill="#AFAFAF" d="M162.585,244.975c0.068-1.259,0.127-2.182,0.176-2.77c0.037-0.086,0.368-0.13,0.993-0.13h0.13
		c0.705,0.006,1.085,0.031,1.141,0.074v0.056c-0.006,0.229-0.034,1.073-0.083,2.533c-0.062,1.608-0.09,2.561-0.083,2.857
		c0,1.311,0.594,1.976,1.781,1.995c0.612,0,1.104-0.195,1.475-0.584s0.563-0.866,0.575-1.429c0-0.396,0.023-1.381,0.07-2.955
		c0.046-1.574,0.082-2.374,0.106-2.398c0.019-0.037,0.238-0.056,0.659-0.056c0.124,0.006,0.272,0.009,0.445,0.009
		c0.717,0.012,1.095,0.046,1.132,0.102c0,0.167-0.056,3.213-0.167,9.138c-0.068,0.099-0.35,0.148-0.844,0.148h-0.25
		c-0.649-0.019-1.014-0.074-1.095-0.167c0.006-0.105,0.009-0.244,0.009-0.417v-0.45c0-0.126,0.003-0.206,0.009-0.236
		c-0.253,0.365-0.643,0.688-1.169,0.97c-0.526,0.281-1.092,0.422-1.698,0.422c-1.15,0-2.007-0.333-2.57-0.997
		c-0.563-0.665-0.844-1.631-0.844-2.899C162.483,247.171,162.518,246.233,162.585,244.975z"/>
	<path fill="#AFAFAF" d="M172.633,242.864c0-0.482,0.028-0.733,0.083-0.751c0.006,0,0.068,0.001,0.186,0.005
		c0.118,0.003,0.248,0.006,0.39,0.009c0.142,0.003,0.289,0.006,0.441,0.01c0.151,0.003,0.28,0.004,0.385,0.004
		s0.164-0.009,0.176-0.028c0.012-0.006,0.026-0.37,0.042-1.09c0.016-0.721,0.054-1.112,0.116-1.174
		c0.074-0.068,0.452-0.127,1.132-0.176c0.371-0.031,0.649-0.046,0.835-0.046c0.148,0,0.232,0.009,0.25,0.028
		c0.019,0.056,0.031,0.179,0.037,0.371c0.006,0.099,0.003,0.21-0.009,0.334c-0.012,0.383-0.031,0.786-0.056,1.206
		c-0.019,0.328-0.028,0.526-0.028,0.594v0.037c0.031-0.012,0.195-0.021,0.492-0.028c0.198,0.006,0.464,0.009,0.798,0.009
		c0.854,0.012,1.317,0.065,1.392,0.158c0.056,0.056,0.086,0.226,0.093,0.51v0.223c0,0.21-0.006,0.415-0.019,0.612l-0.037,0.39
		c-0.037,0.049-0.297,0.074-0.779,0.074s-0.921-0.006-1.317-0.019h-0.269c-0.235,0-0.377,0.012-0.427,0.037
		c0,0.012-0.008,0.272-0.023,0.779c-0.016,0.507-0.033,1.096-0.051,1.767c-0.019,0.671-0.031,1.189-0.037,1.554v0.074
		c0.006,0.353,0.09,0.634,0.25,0.844c0.173,0.223,0.442,0.334,0.807,0.334h0.046l0.659-0.121c0.235-0.086,0.428-0.168,0.58-0.246
		c0.152-0.078,0.249-0.113,0.292-0.107c0.105,0.025,0.23,0.268,0.375,0.728c0.146,0.461,0.218,0.787,0.218,0.979
		c-0.025,0.025-0.06,0.057-0.107,0.097c-0.046,0.041-0.151,0.113-0.315,0.218c-0.164,0.105-0.34,0.196-0.528,0.274
		c-0.189,0.077-0.438,0.146-0.747,0.208c-0.285,0.056-0.582,0.083-0.891,0.083h-0.093c-0.977-0.006-1.707-0.269-2.189-0.789
		c-0.476-0.507-0.714-1.194-0.714-2.06v-0.065l0.167-4.676c0-0.006-0.121-0.011-0.362-0.014c-0.241-0.003-0.489-0.013-0.742-0.028
		c-0.253-0.015-0.393-0.032-0.417-0.051c-0.049-0.043-0.077-0.355-0.083-0.937V242.864z"/>
	<path fill="#AFAFAF" d="M180.839,245.016c0.207-0.55,0.499-1.043,0.876-1.48c0.377-0.436,0.858-0.785,1.443-1.048
		c0.584-0.263,1.226-0.395,1.925-0.395c0.884,0,1.673,0.184,2.366,0.552c0.693,0.368,1.245,0.92,1.656,1.656
		c0.412,0.736,0.617,1.608,0.617,2.616c0,0.854-0.176,1.626-0.529,2.319s-0.881,1.254-1.586,1.684
		c-0.705,0.43-1.534,0.654-2.486,0.673c-1.336,0-2.436-0.438-3.298-1.312c-0.863-0.875-1.294-2.062-1.294-3.558
		C180.528,246.136,180.631,245.566,180.839,245.016z M183.45,248.797c0.433,0.454,0.958,0.682,1.577,0.682h0.028
		c0.761,0,1.345-0.22,1.753-0.659c0.408-0.445,0.612-1.085,0.612-1.92c0-0.897-0.207-1.54-0.622-1.93s-0.956-0.591-1.624-0.603
		h-0.028c-0.767,0-1.348,0.229-1.744,0.687c-0.408,0.458-0.609,1.073-0.603,1.846C182.801,247.709,183.017,248.342,183.45,248.797z"
		/>
</g>
<g>
	<path fill="#AFAFAF" d="M788.239,242.298c0.312-0.031,0.617-0.056,0.914-0.074s0.445-0.031,0.445-0.037v-0.102
		c-0.007-0.062-0.014-0.147-0.023-0.255c-0.009-0.108-0.017-0.226-0.022-0.353c-0.007-0.126-0.012-0.266-0.015-0.417
		c-0.003-0.152-0.005-0.29-0.005-0.413c0-0.996,0.369-1.84,1.104-2.533s1.686-1.039,2.849-1.039c1.063,0,1.957,0.235,2.681,0.705
		l0.214-0.501c0.371-0.025,0.728-0.036,1.071-0.033c0.343,0.003,0.549,0.021,0.616,0.051c0.044,0.019,0.052,2.347,0.023,6.986
		c-0.027,4.639-0.061,6.992-0.098,7.06c-0.043,0.056-0.409,0.082-1.099,0.079c-0.69-0.003-1.047-0.023-1.071-0.06
		c-0.007-0.019-0.027-1.526-0.061-4.523c-0.034-2.996-0.058-5.277-0.07-6.842c-0.507-0.507-1.135-0.761-1.883-0.761
		c-0.588,0-1.058,0.159-1.41,0.478c-0.353,0.319-0.529,0.793-0.529,1.424v1.03c0.118,0.006,0.243,0.009,0.376,0.009
		c0.134,0,0.366-0.001,0.7-0.004c0.334-0.003,0.681-0.005,1.039-0.005c0.131,0.662,0.118,1.302-0.037,1.92
		c-1.348,0-2.028-0.006-2.041-0.019c-0.006,0,0.004,0.625,0.028,1.874s0.046,2.415,0.065,3.498c0.018,1.083,0.016,1.729-0.01,1.939
		c-0.056,0.056-0.448,0.104-1.178,0.144c-0.73,0.04-1.123,0.017-1.179-0.07c-0.056-0.136-0.083-2.579-0.083-7.329
		c-0.087-0.006-0.25-0.008-0.487-0.004c-0.238,0.003-0.49,0.004-0.757,0.004c-0.266,0-0.408-0.006-0.426-0.019
		c-0.037-0.019-0.081-0.295-0.131-0.831c-0.049-0.535-0.055-0.83-0.018-0.886C787.759,242.36,787.928,242.329,788.239,242.298z"/>
	<path fill="#AFAFAF" d="M800.281,245.109c0.195-0.575,0.475-1.088,0.84-1.54s0.832-0.81,1.4-1.076
		c0.569-0.266,1.2-0.399,1.893-0.399c0.768,0,1.454,0.178,2.061,0.533c0.605,0.356,1.066,0.823,1.382,1.401
		c0.315,0.578,0.474,1.21,0.474,1.897c0,0.557-0.059,1.027-0.177,1.41c-0.421,0.062-1.36,0.099-2.82,0.111
		c-0.563,0.006-1.061,0.006-1.493,0c-0.693,0-1.219-0.006-1.578-0.019c0,0.656,0.228,1.177,0.683,1.563
		c0.454,0.387,1.04,0.58,1.758,0.58c0.86,0,1.651-0.272,2.375-0.816c0.081,0.068,0.238,0.333,0.474,0.793
		c0.234,0.461,0.355,0.75,0.361,0.868c-0.291,0.285-0.74,0.544-1.35,0.779s-1.27,0.353-1.98,0.353c-0.762,0-1.441-0.125-2.041-0.375
		c-0.601-0.251-1.083-0.592-1.447-1.025c-0.365-0.433-0.641-0.923-0.826-1.471c-0.186-0.547-0.278-1.133-0.278-1.758
		C799.989,246.287,800.087,245.684,800.281,245.109z M806.141,245.907c0.006-0.068,0.009-0.133,0.009-0.195
		c0-0.55-0.142-0.993-0.427-1.327c-0.322-0.383-0.776-0.572-1.363-0.566c-0.606,0-1.1,0.207-1.48,0.622
		c-0.38,0.415-0.57,0.916-0.57,1.503L806.141,245.907z"/>
	<path fill="#AFAFAF" d="M810.115,249.349c0.678-1.008,1.285-1.877,1.823-2.607c-0.179-0.315-0.504-0.835-0.974-1.559
		c-0.477-0.73-0.882-1.361-1.216-1.893c-0.334-0.526-0.498-0.832-0.491-0.918c0-0.049,0.313-0.128,0.941-0.236
		c0.627-0.108,1.025-0.163,1.191-0.163c0.05,0,0.228,0.243,0.534,0.728c0.306,0.486,0.631,1.015,0.974,1.587
		c0.344,0.572,0.549,0.904,0.617,0.997c0.049-0.068,0.254-0.383,0.612-0.946s0.705-1.098,1.039-1.605s0.52-0.767,0.557-0.779
		c0.019-0.006,0.056-0.009,0.111-0.009c0.173-0.006,0.526,0.04,1.058,0.139c0.687,0.124,1.029,0.213,1.029,0.269
		c-0.043,0.179-0.366,0.737-0.969,1.675c-0.604,0.937-1.186,1.811-1.749,2.621c0.192,0.353,0.519,0.903,0.979,1.651
		c0.461,0.749,0.856,1.396,1.188,1.944c0.331,0.547,0.497,0.849,0.497,0.904c-0.02,0.056-0.347,0.139-0.984,0.25
		c-0.637,0.111-1.035,0.167-1.196,0.167c-0.05-0.012-0.224-0.258-0.524-0.738c-0.3-0.479-0.627-1.016-0.983-1.609
		c-0.355-0.594-0.577-0.956-0.663-1.085c-0.111,0.161-0.353,0.535-0.724,1.123s-0.706,1.11-1.007,1.568
		c-0.3,0.458-0.465,0.687-0.496,0.687h-0.037c-0.148,0-0.538-0.053-1.169-0.158c-0.692-0.118-1.042-0.204-1.048-0.26
		C809.078,250.938,809.438,250.357,810.115,249.349z"/>
	<path fill="#AFAFAF" d="M819.811,242.929c0.33-0.303,0.796-0.442,1.396-0.417c0.426,0.031,0.787,0.178,1.08,0.441
		c0.294,0.263,0.441,0.666,0.441,1.21c0,0.563-0.17,0.996-0.511,1.299s-0.816,0.445-1.429,0.427
		c-0.377-0.012-0.717-0.176-1.021-0.492s-0.454-0.708-0.454-1.178C819.314,243.662,819.479,243.232,819.811,242.929z
		 M819.871,248.653c0.321-0.297,0.779-0.433,1.373-0.408c0.42,0.031,0.775,0.176,1.066,0.436s0.436,0.659,0.436,1.197
		c0,0.557-0.166,0.982-0.5,1.276c-0.334,0.293-0.808,0.431-1.42,0.413c-0.371,0-0.703-0.156-0.997-0.468
		c-0.294-0.312-0.44-0.701-0.44-1.165C819.389,249.376,819.549,248.95,819.871,248.653z"/>
	<path fill="#AFAFAF" d="M830.066,239.635c0.859-1.163,2.053-1.744,3.581-1.744c0.742,0,1.411,0.136,2.009,0.408
		c0.597,0.272,1.121,0.685,1.572,1.239c0.451,0.553,0.799,1.286,1.044,2.198c0.244,0.913,0.366,1.975,0.366,3.187
		c0,2.159-0.418,3.829-1.252,5.01c-0.836,1.181-2.045,1.772-3.628,1.772c-3.321,0-4.981-2.279-4.981-6.837
		C828.777,242.542,829.207,240.798,830.066,239.635z M833.666,249.516c1.645,0,2.468-1.494,2.468-4.481
		c0-3.216-0.823-4.824-2.468-4.824c-1.676,0-2.514,1.589-2.514,4.769C831.152,248.003,831.99,249.516,833.666,249.516z"/>
	<path fill="#AFAFAF" d="M845.931,239.079c1.218-0.68,1.945-1.058,2.181-1.132c0.191,0.012,0.47,0.068,0.834,0.167
		c0.365,0.099,0.582,0.201,0.65,0.306c0,8.083-0.02,12.379-0.057,12.886c-0.067,0.037-0.479,0.07-1.233,0.097
		c-0.755,0.028-1.166,0.002-1.233-0.079c-0.031-0.371-0.007-3.899,0.074-10.585c-0.02,0.012-0.047,0.029-0.084,0.051
		c-0.037,0.022-0.111,0.068-0.223,0.14c-0.111,0.071-0.221,0.141-0.329,0.208s-0.238,0.148-0.39,0.241
		c-0.152,0.093-0.294,0.178-0.427,0.255c-0.134,0.077-0.27,0.154-0.408,0.231c-0.14,0.078-0.262,0.144-0.366,0.2
		c-0.105,0.056-0.198,0.101-0.279,0.134c-0.08,0.034-0.133,0.048-0.157,0.042c-0.067-0.006-0.196-0.311-0.385-0.914
		c-0.188-0.603-0.268-0.926-0.237-0.969C844.022,240.186,844.713,239.759,845.931,239.079z"/>
	<path fill="#AFAFAF" d="M856.701,246.552c0.65-0.529,1.476-0.793,2.478-0.793c0.86,0,1.543,0.229,2.05,0.687
		c0-0.309-0.01-0.566-0.032-0.77c-0.021-0.204-0.069-0.417-0.144-0.64s-0.178-0.397-0.311-0.524
		c-0.133-0.127-0.322-0.232-0.566-0.315c-0.244-0.084-0.536-0.125-0.877-0.125c-0.327,0-0.631,0.051-0.908,0.153
		c-0.279,0.103-0.487,0.214-0.627,0.334c-0.139,0.121-0.262,0.234-0.366,0.339s-0.17,0.158-0.194,0.158h-0.01
		c-0.1,0-0.328-0.155-0.687-0.464c-0.371-0.322-0.557-0.522-0.557-0.603c0.013-0.074,0.067-0.184,0.167-0.329
		c0.1-0.146,0.252-0.315,0.459-0.511c0.207-0.194,0.445-0.377,0.715-0.547c0.269-0.17,0.607-0.314,1.016-0.432
		s0.838-0.176,1.289-0.176c1.231,0,2.201,0.359,2.909,1.076s1.062,1.753,1.062,3.108c0,0.594-0.009,1.3-0.027,2.12
		c-0.019,0.819-0.04,1.515-0.064,2.087c-0.025,0.572-0.044,0.874-0.057,0.905c-0.018,0.031-0.188,0.046-0.51,0.046
		s-0.641-0.009-0.955-0.028l-0.474-0.019l-0.111-0.816c-0.681,0.68-1.519,1.021-2.515,1.021c-1.045,0-1.827-0.264-2.347-0.793
		c-0.52-0.528-0.779-1.208-0.779-2.036C855.728,247.784,856.053,247.08,856.701,246.552z M858.237,249.576
		c0.318,0.25,0.722,0.375,1.21,0.375c0.532,0,0.949-0.133,1.253-0.399s0.454-0.587,0.454-0.965c0-0.427-0.162-0.769-0.486-1.025
		c-0.325-0.256-0.738-0.385-1.238-0.385c-0.482,0-0.882,0.139-1.197,0.417s-0.473,0.615-0.473,1.011
		S857.918,249.325,858.237,249.576z"/>
	<path fill="#AFAFAF" d="M865.747,244.975c0.067-1.259,0.127-2.182,0.177-2.77c0.037-0.086,0.367-0.13,0.992-0.13h0.13
		c0.705,0.006,1.085,0.031,1.142,0.074v0.056c-0.007,0.229-0.035,1.073-0.084,2.533c-0.062,1.608-0.09,2.561-0.084,2.857
		c0,1.311,0.594,1.976,1.781,1.995c0.613,0,1.104-0.195,1.476-0.584s0.563-0.866,0.575-1.429c0-0.396,0.023-1.381,0.069-2.955
		c0.047-1.574,0.082-2.374,0.106-2.398c0.02-0.037,0.238-0.056,0.659-0.056c0.124,0.006,0.272,0.009,0.445,0.009
		c0.718,0.012,1.095,0.046,1.132,0.102c0,0.167-0.056,3.213-0.167,9.138c-0.067,0.099-0.35,0.148-0.845,0.148h-0.25
		c-0.649-0.019-1.014-0.074-1.095-0.167c0.007-0.105,0.009-0.244,0.009-0.417v-0.45c0-0.126,0.004-0.206,0.01-0.236
		c-0.254,0.365-0.643,0.688-1.169,0.97c-0.526,0.281-1.092,0.422-1.698,0.422c-1.15,0-2.006-0.333-2.569-0.997
		c-0.563-0.665-0.845-1.631-0.845-2.899C865.645,247.171,865.68,246.233,865.747,244.975z"/>
	<path fill="#AFAFAF" d="M875.795,242.864c0-0.482,0.027-0.733,0.083-0.751c0.007,0,0.067,0.001,0.186,0.005
		c0.118,0.003,0.247,0.006,0.39,0.009c0.143,0.003,0.289,0.006,0.44,0.01c0.151,0.003,0.28,0.004,0.386,0.004
		c0.104,0,0.164-0.009,0.176-0.028c0.012-0.006,0.026-0.37,0.042-1.09c0.015-0.721,0.054-1.112,0.116-1.174
		c0.074-0.068,0.451-0.127,1.131-0.176c0.371-0.031,0.65-0.046,0.836-0.046c0.148,0,0.231,0.009,0.25,0.028
		c0.019,0.056,0.031,0.179,0.037,0.371c0.006,0.099,0.003,0.21-0.01,0.334c-0.012,0.383-0.03,0.786-0.055,1.206
		c-0.02,0.328-0.028,0.526-0.028,0.594v0.037c0.03-0.012,0.194-0.021,0.491-0.028c0.198,0.006,0.465,0.009,0.799,0.009
		c0.854,0.012,1.316,0.065,1.391,0.158c0.057,0.056,0.087,0.226,0.094,0.51v0.223c0,0.21-0.007,0.415-0.02,0.612l-0.037,0.39
		c-0.037,0.049-0.297,0.074-0.779,0.074s-0.921-0.006-1.316-0.019h-0.27c-0.234,0-0.377,0.012-0.427,0.037
		c0,0.012-0.008,0.272-0.023,0.779c-0.015,0.507-0.032,1.096-0.051,1.767c-0.019,0.671-0.03,1.189-0.037,1.554v0.074
		c0.007,0.353,0.09,0.634,0.251,0.844c0.173,0.223,0.441,0.334,0.807,0.334h0.047l0.658-0.121c0.234-0.086,0.428-0.168,0.58-0.246
		c0.151-0.078,0.248-0.113,0.292-0.107c0.104,0.025,0.23,0.268,0.376,0.728c0.145,0.461,0.218,0.787,0.218,0.979
		c-0.024,0.025-0.061,0.057-0.106,0.097c-0.047,0.041-0.152,0.113-0.315,0.218c-0.164,0.105-0.341,0.196-0.529,0.274
		c-0.188,0.077-0.438,0.146-0.747,0.208c-0.284,0.056-0.581,0.083-0.891,0.083h-0.092c-0.978-0.006-1.707-0.269-2.189-0.789
		c-0.477-0.507-0.715-1.194-0.715-2.06v-0.065l0.167-4.676c0-0.006-0.12-0.011-0.362-0.014c-0.24-0.003-0.488-0.013-0.742-0.028
		c-0.253-0.015-0.393-0.032-0.417-0.051c-0.05-0.043-0.077-0.355-0.083-0.937V242.864z"/>
	<path fill="#AFAFAF" d="M884,245.016c0.207-0.55,0.5-1.043,0.877-1.48c0.377-0.436,0.858-0.785,1.442-1.048
		c0.585-0.263,1.227-0.395,1.925-0.395c0.885,0,1.674,0.184,2.366,0.552c0.692,0.368,1.245,0.92,1.656,1.656
		s0.616,1.608,0.616,2.616c0,0.854-0.176,1.626-0.528,2.319s-0.882,1.254-1.587,1.684c-0.705,0.43-1.533,0.654-2.486,0.673
		c-1.336,0-2.435-0.438-3.298-1.312c-0.862-0.875-1.294-2.062-1.294-3.558C883.689,246.136,883.793,245.566,884,245.016z
		 M886.611,248.797c0.434,0.454,0.959,0.682,1.578,0.682h0.027c0.761,0,1.346-0.22,1.754-0.659c0.408-0.445,0.611-1.085,0.611-1.92
		c0-0.897-0.207-1.54-0.621-1.93s-0.955-0.591-1.623-0.603h-0.028c-0.767,0-1.349,0.229-1.744,0.687
		c-0.408,0.458-0.609,1.073-0.603,1.846C885.963,247.709,886.179,248.342,886.611,248.797z"/>
</g>
</svg>
