<?xml version="1.0" encoding="utf-8"?>
<!-- Generator: Adobe Illustrator 16.0.4, SVG Export Plug-In . SVG Version: 6.00 Build 0)  -->
<!DOCTYPE svg PUBLIC "-//W3C//DTD SVG 1.1//EN" "http://www.w3.org/Graphics/SVG/1.1/DTD/svg11.dtd">
<svg version="1.1" id="Layer_1" xmlns="http://www.w3.org/2000/svg" xmlns:xlink="http://www.w3.org/1999/xlink" x="0px" y="0px"
	 width="1224px" height="792px" viewBox="0 0 1224 792" enable-background="new 0 0 1224 792" xml:space="preserve">
<rect fill="#3B81F5" width="1224" height="792"/>
<line fill="none" stroke="#5AA5FF" stroke-miterlimit="10" x1="0" y1="441.879" x2="1224" y2="441.879"/>
<line fill="none" stroke="#5AA5FF" stroke-miterlimit="10" x1="0" y1="478.043" x2="1224" y2="478.043"/>
<line fill="none" stroke="#5AA5FF" stroke-miterlimit="10" x1="0" y1="313.957" x2="1224" y2="313.957"/>
<line fill="none" stroke="#5AA5FF" stroke-miterlimit="10" x1="0" y1="357.713" x2="1224" y2="357.713"/>
<g>
	<path fill="#FFFFFF" d="M185.535,357.631c0-24.436,0.136-38.477,0.408-42.124c0.381-0.381,2.694-0.762,6.939-1.143
		c2.83-0.272,5.66-0.408,8.49-0.408l4.245,0.082c4.245,0.218,6.477,0.871,6.694,1.959c0.109,0.925,0.163,3.319,0.163,7.184
		c0,4.299-0.054,10.395-0.163,18.286c-0.218,14.966-0.49,23.538-0.816,25.715c4.953-6.694,12.245-10.041,21.878-10.041
		c11.103,0,19.565,3.211,25.388,9.633s8.735,15.184,8.735,26.286c0,6.15-0.286,15.184-0.857,27.104
		c-0.571,11.918-1.075,18.612-1.51,20.082c-0.381,0.652-4.762,1.034-13.143,1.143c-2.776,0.055-5.116,0.082-7.021,0.082
		c-3.755,0-5.66-0.082-5.714-0.245c-0.109-1.851-0.164-4.626-0.164-8.327v-2.939c0-5.115,0.055-11.795,0.164-20.041
		c0.109-8.244,0.163-12.912,0.163-14c0-3.973-1.088-7.497-3.266-10.572c-2.177-3.075-5.279-4.612-9.306-4.612
		c-4.354,0-7.81,1.401-10.368,4.204c-2.558,2.803-3.837,5.973-3.837,9.511c0,30.749-0.217,46.341-0.653,46.777
		c-0.163,0.218-2.367,0.326-6.612,0.326h-6.286c-8.381-0.108-12.708-0.436-12.979-0.979c-0.272-0.545-0.463-20.354-0.572-59.43
		V357.631z"/>
	<path fill="#FFFFFF" d="M287.743,398.857c5.714-4.518,12.844-6.776,21.388-6.776c6.313,0,11.483,1.497,15.511,4.49
		c0.109-1.198,0.109-2.449,0-3.755s-0.231-2.599-0.367-3.877c-0.136-1.279-0.531-2.477-1.184-3.592
		c-0.653-1.116-1.483-2.109-2.49-2.979s-2.408-1.565-4.204-2.082c-1.796-0.517-3.891-0.776-6.286-0.776
		c-2.395,0-4.653,0.395-6.776,1.184c-2.123,0.789-3.769,1.646-4.939,2.571c-1.17,0.925-2.231,1.782-3.184,2.571
		c-0.953,0.79-1.565,1.211-1.837,1.266c-0.816,0-3.184-1.769-7.102-5.306c-3.864-3.483-5.769-5.688-5.714-6.613
		c0-0.599,0.462-1.605,1.388-3.021c0.871-1.36,2.245-2.938,4.123-4.734s4.068-3.483,6.572-5.062c2.503-1.578,5.66-2.925,9.469-4.041
		s7.81-1.673,12-1.673c10.83,0,19.674,3.156,26.531,9.47c6.857,6.313,10.286,15.347,10.286,27.103c0,8.708-0.163,18.544-0.49,29.51
		c-0.326,10.967-0.626,16.695-0.898,17.185c-0.163,0.272-2.041,0.408-5.633,0.408c-3.592,0-7.129-0.081-10.612-0.245l-5.306-0.163
		l-1.47-7.184c-6.095,6.095-13.225,9.144-21.388,9.144c-8.708,0-15.211-2.287-19.511-6.857c-4.299-4.572-6.449-10.695-6.449-18.368
		C279.172,409.307,282.029,403.374,287.743,398.857z M304.723,422.939c2.068,1.741,4.653,2.611,7.755,2.611
		c3.483,0,6.19-0.897,8.123-2.693s2.898-4.027,2.898-6.693c0-2.885-1.047-5.198-3.143-6.939c-2.096-1.742-4.721-2.612-7.878-2.612
		c-3.211,0-5.823,0.911-7.837,2.734s-3.021,4.096-3.021,6.817C301.621,418.939,302.655,421.197,304.723,422.939z"/>
	<path fill="#FFFFFF" d="M367.093,387.754c0-8.979,0.055-18.123,0.164-27.429c0.708-1.034,5.116-1.769,13.225-2.204
		c2.939-0.163,5.388-0.245,7.347-0.245c3.429,0,5.388,0.245,5.878,0.734c-0.327,6.585-0.49,9.933-0.49,10.041
		c2.123-3.211,5.333-5.959,9.633-8.245c4.299-2.286,9.551-3.429,15.755-3.429c9.034,0,16.231,3.306,21.592,9.918
		s8.041,15.333,8.041,26.164c0,5.932-0.15,14.381-0.449,25.348s-0.612,18.408-0.938,22.327c-0.055,0.708-4.3,1.116-12.735,1.225
		c-2.395,0.055-4.462,0.082-6.204,0.082c-4.354,0-6.612-0.109-6.775-0.327c-0.164-2.068-0.245-5.619-0.245-10.653
		s0.068-11.919,0.204-20.653s0.204-13.565,0.204-14.49c0-4.68-1.075-8.408-3.225-11.184c-2.15-2.775-5.32-4.163-9.51-4.163
		c-4.354,0-7.892,1.401-10.613,4.204s-4.082,5.973-4.082,9.51c0,30.368-0.218,45.852-0.653,46.45
		c-0.163,0.218-2.312,0.327-6.449,0.327h-6.286c-8.272-0.109-12.49-0.436-12.653-0.98c-0.109-0.217-0.245-4.571-0.408-13.062
		c-0.163-8.489-0.272-18.612-0.327-30.368V387.754z"/>
	<path fill="#FFFFFF" d="M463.791,381.509c2.204-5.197,5.129-9.469,8.775-12.816c3.646-3.347,7.769-5.932,12.368-7.755
		c4.599-1.823,9.375-2.762,14.327-2.816c4.844,0,9.429,1.088,13.755,3.266c4.327,2.177,6.953,4.054,7.877,5.633
		c0-33.742,0.381-50.858,1.143-51.348c0.816-0.653,5.197-1.088,13.143-1.306c1.796-0.055,3.429-0.082,4.898-0.082
		c5.116,0,8.354,0.299,9.715,0.898c0.054,0,0.082,0.734,0.082,2.204c0,6.367-0.299,26.395-0.898,60.083
		c-0.708,41.416-1.17,62.559-1.388,63.43c-0.218,0.218-1.905,0.463-5.062,0.735c-2.449,0.218-5.17,0.326-8.164,0.326
		c-0.871-0.055-1.796-0.081-2.775-0.081c-4.027-0.109-6.939-0.49-8.735-1.144c0-3.864-0.163-6.938-0.49-9.225
		c-1.088,1.687-4.014,3.728-8.776,6.122c-4.762,2.395-10.19,3.593-16.286,3.593c-4.789,0-9.361-0.926-13.714-2.776
		c-4.354-1.85-8.259-4.503-11.715-7.959c-3.456-3.456-6.218-7.932-8.286-13.429c-2.068-5.497-3.102-11.593-3.102-18.286
		C460.485,392.462,461.587,386.707,463.791,381.509z M493.873,412.571c3.048,3.048,6.966,4.571,11.755,4.571
		c5.388,0,9.497-1.619,12.327-4.857s4.245-7.469,4.245-12.693c0-5.333-1.592-9.565-4.775-12.694s-7.116-4.694-11.796-4.694
		c-5.17,0-9.184,1.605-12.041,4.816c-2.857,3.211-4.286,7.456-4.286,12.735C489.302,405.252,490.826,409.523,493.873,412.571z"/>
	<path fill="#FFFFFF" d="M565.386,383.224c2.177-5.415,5.089-9.918,8.735-13.51c3.646-3.592,7.823-6.395,12.531-8.408
		c4.708-2.014,9.592-3.021,14.653-3.021c5.007,0,9.578,0.871,13.714,2.612c4.137,1.741,7.565,4.054,10.287,6.939
		c0-0.327,0.067-1.837,0.203-4.531c0.137-2.694,0.205-4.205,0.205-4.531c1.197-0.708,4.217-1.062,9.061-1.062
		c1.034,0,2.178,0.027,3.429,0.082c6.857,0.163,10.477,0.435,10.857,0.816c0.381,2.123,0.898,23.865,1.551,65.226v1.144
		c0,5.714-0.381,10.966-1.143,15.755c-0.816,5.116-1.959,9.511-3.429,13.185c-1.469,3.673-3.293,6.925-5.469,9.755
		c-2.178,2.83-4.477,5.143-6.898,6.939c-2.422,1.796-5.116,3.265-8.082,4.408c-2.966,1.143-5.864,1.932-8.694,2.367
		c-2.829,0.436-5.823,0.653-8.979,0.653c-8.871,0-16.708-1.415-23.511-4.245s-10.885-5.442-12.245-7.837
		c0.708-2.612,1.945-5.77,3.714-9.47c1.769-3.701,3.333-6.504,4.694-8.408c0.109-0.109,0.558,0.04,1.347,0.448
		c0.789,0.408,1.905,0.994,3.347,1.756c1.442,0.762,3.048,1.523,4.816,2.285c1.769,0.763,3.946,1.429,6.531,2
		c2.585,0.572,5.184,0.857,7.796,0.857c6.857,0,11.836-2.231,14.939-6.694c2.884-4.299,4.327-10.041,4.327-17.225v-1.144
		c-0.436,0.763-1.156,1.619-2.164,2.572c-1.006,0.952-2.395,2.014-4.163,3.184s-4.108,2.149-7.021,2.939
		c-2.912,0.789-6.109,1.184-9.592,1.184c-4.571,0-9.102-0.857-13.592-2.572c-4.49-1.714-8.613-4.163-12.368-7.347
		c-3.755-3.185-6.803-7.347-9.143-12.49c-2.34-5.144-3.51-10.816-3.51-17.021C562.121,394.503,563.209,388.639,565.386,383.224z
		 M595.305,413.633c2.803,3.156,6.79,4.734,11.959,4.734c4.735,0,8.708-1.564,11.919-4.693c3.211-3.13,4.816-7.361,4.816-12.694
		c0-5.279-1.429-9.524-4.286-12.735c-2.856-3.211-7.007-4.816-12.449-4.816c-4.734,0-8.612,1.524-11.633,4.572
		s-4.531,7.32-4.531,12.817C591.101,406.204,592.502,410.477,595.305,413.633z"/>
	<path fill="#FFFFFF" d="M667.594,392.816c0-14.966,0.109-29.96,0.326-44.98c0.327-20.79,0.898-31.511,1.715-32.164
		c1.089-1.034,5.442-1.579,13.062-1.633h0.897c7.021,0,10.613,0.327,10.776,0.979c0.218,0.436,0.326,4.517,0.326,12.245
		c0,9.688-0.163,25.144-0.489,46.369c-0.653,38.097-1.252,60.899-1.796,68.41h-6.939c-10.612,0-16.272-0.218-16.979-0.653
		c-0.49-0.326-0.789-10.775-0.898-31.348C667.539,404.326,667.539,398.585,667.594,392.816z"/>
	<path fill="#FFFFFF" d="M709.841,383.836c1.986-4.952,4.748-9.374,8.285-13.266c3.538-3.891,7.987-7.021,13.348-9.388
		c5.36-2.368,11.197-3.551,17.511-3.551c5.932,0,11.497,0.993,16.694,2.979c5.197,1.987,9.714,4.803,13.551,8.449
		c3.837,3.646,6.871,8.245,9.103,13.796s3.347,11.701,3.347,18.449c0,5.442-0.966,10.612-2.897,15.511
		c-1.933,4.898-4.667,9.266-8.204,13.103c-3.538,3.837-8.015,6.911-13.43,9.225s-11.36,3.524-17.837,3.633
		c-12.19,0-22.313-3.96-30.368-11.878s-12.082-18.518-12.082-31.797C706.86,393.877,707.854,388.789,709.841,383.836z
		 M737.188,414.326c3.021,3.238,6.626,4.912,10.816,5.021h0.816c5.388,0,9.551-1.524,12.489-4.572
		c3.048-3.266,4.572-7.863,4.572-13.796c0-6.15-1.47-10.64-4.408-13.47c-2.939-2.83-6.64-4.327-11.103-4.49h-0.816
		c-5.442,0-9.578,1.579-12.408,4.735c-3.048,3.32-4.545,7.783-4.49,13.388C732.657,406.693,734.168,411.088,737.188,414.326z"/>
	<path fill="#FFFFFF" d="M820.171,356.488c0.871,0,6.775,18.042,17.715,54.124c1.851-5.062,5.741-15.361,11.674-30.899
		c5.932-15.538,9.116-23.333,9.551-23.388h0.082c0.489,0,2.694,0.381,6.612,1.143c4.19,0.871,8.354,1.823,12.49,2.857
		c4.082,1.034,6.096,1.688,6.041,1.959c-0.762,3.156-3.959,11.306-9.592,24.449s-11.103,25.538-16.409,37.184
		c-5.306,11.646-8.122,17.634-8.449,17.961c-1.034,0.489-3.048,0.734-6.041,0.734h-1.796c-3.918-0.109-8.027-0.326-12.326-0.653
		c-4.3-0.326-6.477-0.571-6.531-0.734c-0.163-0.327-2.477-6.694-6.938-19.103c-4.463-12.408-8.98-25.252-13.552-38.532
		c-4.517-13.17-6.775-20.518-6.775-22.042c0-0.653,3.66-1.66,10.979-3.021C814.226,357.169,818.647,356.488,820.171,356.488z"/>
	<path fill="#FFFFFF" d="M888.949,384.775c1.77-5.197,4.3-9.837,7.593-13.918c3.292-4.082,7.537-7.334,12.734-9.755
		c5.197-2.422,10.98-3.633,17.348-3.633c5.388,0,10.354,0.966,14.898,2.898c4.544,1.932,8.326,4.531,11.347,7.796
		c3.021,3.266,5.361,7.034,7.021,11.307c1.66,4.272,2.49,8.749,2.49,13.429c0,5.279-0.49,9.579-1.47,12.898
		c-3.755,0.544-11.646,0.87-23.674,0.979c-4.626,0.055-8.708,0.055-12.245,0c-5.66,0-9.905-0.055-12.735-0.163
		c0,4.517,1.552,8.041,4.653,10.571c3.103,2.531,7.511,3.797,13.226,3.797c6.803,0,13.306-1.933,19.51-5.797
		c0.871,0.871,2.531,3.797,4.98,8.775c2.448,4.98,3.7,8.068,3.755,9.266c-2.612,2.395-6.653,4.586-12.123,6.572
		s-11.306,2.979-17.511,2.979c-7.292,0-13.741-1.156-19.347-3.47c-5.605-2.312-10.041-5.442-13.307-9.388
		c-3.266-3.946-5.715-8.341-7.348-13.185c-1.632-4.844-2.448-10.041-2.448-15.592C886.297,395.428,887.181,389.972,888.949,384.775z
		 M938.298,390.775v-0.898c0-3.864-0.979-7.048-2.938-9.551c-2.068-2.721-5.034-4.109-8.898-4.163
		c-4.245,0-7.701,1.442-10.368,4.327c-2.666,2.884-4,6.476-4,10.775L938.298,390.775z"/>
	<path fill="#FFFFFF" d="M970.545,433.715c-0.055-0.871,0.354-2.559,1.225-5.062c1.088-3.265,2.367-6.381,3.836-9.347
		c1.47-2.967,2.422-4.341,2.857-4.123c0.218,0.109,1.307,0.734,3.266,1.878c1.959,1.143,3.837,2.163,5.633,3.062
		c1.796,0.897,4.096,1.769,6.898,2.611c2.803,0.844,5.429,1.266,7.877,1.266c3.266,0,5.756-0.53,7.47-1.592
		c1.715-1.061,2.571-2.544,2.571-4.449c0-1.904-0.938-3.414-2.816-4.53c-1.877-1.116-5.455-2.163-10.734-3.144
		c-9.361-1.578-16.272-4.395-20.735-8.449c-4.463-4.054-6.694-9.591-6.694-16.612c0-8.925,2.898-15.864,8.694-20.816
		c5.796-4.953,13.837-7.429,24.123-7.429c6.857,0,13.401,0.871,19.633,2.612c6.231,1.741,10.055,3.32,11.47,4.734
		c0.164,0.164,0.245,0.408,0.245,0.735c0,1.415-0.979,4.517-2.938,9.307c-2.449,6.041-4,9.116-4.653,9.225
		c-0.055,0-1.197-0.544-3.429-1.633s-5.034-2.177-8.408-3.265c-3.374-1.089-6.504-1.633-9.389-1.633
		c-3.047,0-5.374,0.626-6.979,1.877c-1.605,1.252-2.408,2.803-2.408,4.653c0,1.85,0.898,3.265,2.694,4.245
		c1.796,0.98,5.088,1.796,9.878,2.449c10.122,1.47,17.442,4.136,21.959,8c4.518,3.864,6.776,9.605,6.776,17.225
		c0,3.756-0.667,7.293-2,10.613c-1.334,3.319-3.307,6.299-5.919,8.938s-6.109,4.722-10.49,6.245
		c-4.381,1.524-9.401,2.286-15.062,2.286c-7.456,0-14.64-1.115-21.552-3.347c-6.911-2.232-11.156-4.191-12.734-5.879
		C970.599,434.259,970.545,434.041,970.545,433.715z"/>
</g>
</svg>
