<?xml version="1.0" encoding="utf-8"?>
<!-- Generator: Adobe Illustrator 16.0.4, SVG Export Plug-In . SVG Version: 6.00 Build 0)  -->
<!DOCTYPE svg PUBLIC "-//W3C//DTD SVG 1.1//EN" "http://www.w3.org/Graphics/SVG/1.1/DTD/svg11.dtd">
<svg version="1.1" id="Layer_1" xmlns="http://www.w3.org/2000/svg" xmlns:xlink="http://www.w3.org/1999/xlink" x="0px" y="0px"
	 width="960px" height="400px" viewBox="0 0 960 400" enable-background="new 0 0 960 400" xml:space="preserve">
<rect x="-5.444" y="-5.796" fill-rule="evenodd" clip-rule="evenodd" fill="#EFE7D5" width="984.211" height="416.542"/>
<polygon fill-rule="evenodd" clip-rule="evenodd" fill="none" stroke="#586E75" stroke-miterlimit="10" points="310.252,-56.176 
	200.87,-119.328 289.263,-170.361 398.645,-107.209 "/>
<path fill-rule="evenodd" clip-rule="evenodd" fill="none" stroke="#586E75" stroke-miterlimit="10" d="M319.382-194.589
	l20.606,11.896c-15.516,5.281-27.025,12.842-37.045,21.248l44.715,25.816l88.712-51.219l-47.83-27.614
	C365.301-211.154,342.102-206.893,319.382-194.589z"/>
<g>
	<polygon fill="none" stroke="#586E75" stroke-miterlimit="10" points="343.819,-292.269 338.115,-295.562 324.701,-287.818 
		330.406,-284.524 	"/>
	<polygon fill="none" stroke="#586E75" stroke-miterlimit="10" points="390.788,-265.151 385.079,-268.447 371.666,-260.703 
		377.375,-257.408 	"/>
	<path fill="none" stroke="#586E75" stroke-miterlimit="10" d="M354.174-227.496l1.086-4.25c-0.898-0.092-5.485-1.004-8.686-1.84
		c-5.745-1.486-14-3.949-24.532-8.984c5.382-2.855,11.439-5.451,18.301-7.836l4.056-1.41l-20.482-11.824
		c10.991-5.449,23.793-9.837,38.11-13.052c14.479-3.254,30.632-5.344,48.014-6.213l-0.689-4.28
		c-18.084,0.905-34.928,3.087-50.058,6.488c-16.455,3.696-31.03,8.866-43.323,15.366l-2.854,1.512l19.358,11.175
		c-5.878,2.213-11.228,4.621-16.074,7.236c-1.46-0.77-2.959-1.586-4.491-2.459l-0.095-0.055
		c-15.164-8.922-21.379-15.691-24.735-20.019c-1.412-1.794-3.022-4.495-3.184-5.011l0.001,0.007l-7.356,0.637
		c0.314,1.158,2.497,4.512,3.755,6.116c3.591,4.619,10.217,11.854,26.235,21.275l0.155,0.096l0.015,0.004
		c1.348,0.764,2.83,1.586,4.448,2.445c-10.43,6.471-18.114,14.086-23.236,22.982l7.062,1.379c3.962-6.879,9.367-12.766,16.512-18
		c1.664-1.215,3.417-2.387,5.252-3.521c7.096,3.426,16.042,7.072,26.816,9.861C346.446-228.916,352.178-227.674,354.174-227.496z"/>
</g>
<rect x="700.846" y="189.215" fill-rule="evenodd" clip-rule="evenodd" fill="none" width="228.591" height="130.252"/>
<text transform="matrix(1 0 0 1 700.8457 202.5215)"><tspan x="0" y="0" fill="#586E75" font-family="'Inconsolata'" font-size="20">first column of next </tspan><tspan x="0" y="24" fill="#586E75" font-family="'Inconsolata'" font-size="20">row starts here </tspan><tspan x="0" y="48" fill="#586E75" font-family="'Inconsolata'" font-size="20">instead of clearing </tspan><tspan x="0" y="72" fill="#586E75" font-family="'Inconsolata'" font-size="20">onto the next row...</tspan></text>
<rect x="529.854" y="-117.254" fill-rule="evenodd" clip-rule="evenodd" fill="none" width="254.887" height="72.932"/>
<text transform="matrix(1 0 0 1 529.8545 -105.2778)" fill="#586E75" font-family="'Inconsolata'" font-size="18">:after</text>
<g>
	<g>
		
			<line fill="none" stroke="#586E75" stroke-width="2" stroke-miterlimit="10" x1="500.956" y1="197.523" x2="502.956" y2="197.523"/>
		
			<line fill="none" stroke="#586E75" stroke-width="2" stroke-miterlimit="10" stroke-dasharray="3.9249,3.9249" x1="506.881" y1="197.523" x2="685.462" y2="197.523"/>
		
			<line fill="none" stroke="#586E75" stroke-width="2" stroke-miterlimit="10" x1="687.425" y1="197.523" x2="689.425" y2="197.523"/>
	</g>
</g>
<g>
	<g>
		
			<line fill="none" stroke="#586E75" stroke-width="2" stroke-miterlimit="10" x1="432.72" y1="-108.953" x2="434.72" y2="-108.953"/>
		
			<line fill="none" stroke="#586E75" stroke-width="2" stroke-miterlimit="10" stroke-dasharray="3.8912,3.8912" x1="438.61" y1="-108.953" x2="514.487" y2="-108.953"/>
		
			<line fill="none" stroke="#586E75" stroke-width="2" stroke-miterlimit="10" x1="516.434" y1="-108.953" x2="518.434" y2="-108.953"/>
	</g>
</g>
<rect x="23.98" y="58.48" fill="none" stroke="#677B81" stroke-width="5" stroke-miterlimit="10" width="98.995" height="80.996"/>
<rect x="145.85" y="58.48" fill="none" stroke="#677B81" stroke-width="5" stroke-miterlimit="10" width="98.995" height="80.996"/>
<rect x="267.718" y="58.48" fill="none" stroke="#677B81" stroke-width="5" stroke-miterlimit="10" width="98.995" height="160.492"/>
<rect x="389.587" y="58.48" fill="none" stroke="#677B81" stroke-width="5" stroke-miterlimit="10" width="98.995" height="80.996"/>
<rect x="511.456" y="58.48" fill="none" stroke="#677B81" stroke-width="5" stroke-miterlimit="10" width="98.995" height="80.996"/>
<rect x="389.587" y="164.48" fill="#677B81" stroke="#677B81" stroke-width="5" stroke-miterlimit="10" width="98.995" height="80.996"/>
<rect x="511.456" y="164.48" fill="none" stroke="#677B81" stroke-width="5" stroke-miterlimit="10" width="98.995" height="80.996"/>
<rect x="389.587" y="278.48" fill="none" stroke="#677B81" stroke-width="5" stroke-miterlimit="10" width="98.995" height="80.996"/>
<rect x="511.456" y="278.48" fill="none" stroke="#677B81" stroke-width="5" stroke-miterlimit="10" width="98.995" height="80.996"/>
<rect x="23.98" y="279.48" fill="none" stroke="#677B81" stroke-width="5" stroke-miterlimit="10" width="98.995" height="80.996"/>
<rect x="145.85" y="279.48" fill="none" stroke="#677B81" stroke-width="5" stroke-miterlimit="10" width="98.995" height="80.996"/>
<rect x="267.718" y="279.48" fill="none" stroke="#677B81" stroke-width="5" stroke-miterlimit="10" width="98.995" height="80.996"/>
</svg>
